<?xml version="1.0" encoding="utf-8"?>
<!-- Generator: Adobe Illustrator 16.0.0, SVG Export Plug-In . SVG Version: 6.00 Build 0)  -->
<!DOCTYPE svg PUBLIC "-//W3C//DTD SVG 1.1//EN" "http://www.w3.org/Graphics/SVG/1.1/DTD/svg11.dtd">
<svg version="1.1" id="圖層_1" xmlns="http://www.w3.org/2000/svg" xmlns:xlink="http://www.w3.org/1999/xlink" x="0px" y="0px"
	 width="1024px" height="1024px" viewBox="0 0 1024 1024" enable-background="new 0 0 1024 1024" xml:space="preserve">
<polygon fill="#597D34" points="722.334,385.333 337,702.999 278.333,644.999 696.334,310.333 "/>
<polygon fill="#86B226" points="539.667,260 175,561.666 292.754,659.256 716.334,324.333 "/>
<path fill="#035C87" d="M114.333,487.667l2,60.333c0,0-2,21.666,12,33l301.333,246.333l27.333-139L114.333,487.667z"/>
<polygon fill="#1584BE" points="275.062,442 549.333,660.334 413.333,751.334 123.667,512 "/>
<path fill="#035C87" d="M109.667,423.667l5.708,95.387c0,0,64.959,77.279,145.626,35.279c0,0,34.703-22.398,36.667-59.082
	L295,423.667H109.667z"/>
<ellipse fill="#1584BE" cx="202" cy="424.897" rx="93" ry="77.231"/>
<path fill="#1584BE" d="M491.8,308.08c-5.33-3.37-10.17-7.21-14.4-11.44L491.8,308.08z"/>
<path fill="#1584BE" d="M423.35,656.95c1.4-1.23,2.85-2.41,4.36-3.561L423.35,656.95z"/>
<path fill="#9D8A37" d="M838.334,582.333L781,512L397.793,706.244l6.54,99.756c0,0,36,41.667,71.333,43.667
	c0,0,44.001,8.667,90.667-30L838.334,582.333z"/>
<path fill="#C9B34B" d="M820.33,535.33L560.61,761.12l-2.46,2.24l-0.091,0.09c-16.939,14.79-40.869,24.01-67.39,24.01
	c-51.37,0-93-34.58-93-77.229c0-20.641,9.74-39.37,25.62-53.23l0.06-0.05l4.36-3.561l275.96-225.06L820.33,535.33z"/>
<g>
	<g>
		<g>
			<path fill="#D8D8D8" d="M249.073,413.098l21.453,3.043l-18.957,11.552l-24.687-2.93c-8.81-1.062-14.573-1.599-17.303-1.61
				c-2.732-0.003-5.168,0.331-7.299,1.011c-1.782,0.571-4.083,1.673-6.911,3.308c-0.564,0.326-1.15,0.673-1.756,1.042l-3.205,1.961
				l25.406,19.01l-15.843,9.659l-60.858-45.552l33.34-20.331c1.356-0.825,2.667-1.603,3.932-2.334
				c6.561-3.792,11.894-6.322,16-7.576c4.894-1.5,9.873-1.903,14.949-1.202c5.083,0.698,9.425,2.405,13.025,5.091
				c4.559,3.417,6.594,7.299,6.109,11.637c-0.48,4.342-3.779,8.89-9.889,13.67c4.971-0.929,9.506-1.38,13.59-1.346
				C234.258,411.225,240.554,411.861,249.073,413.098z M192.414,416.057c7.6-4.639,12.107-7.716,13.494-9.244
				c1.393-1.523,2.016-3.067,1.871-4.63c-0.151-1.568-1.13-3.034-2.956-4.402c-2.056-1.534-4.414-2.333-7.081-2.424
				c-2.669-0.083-5.459,0.536-8.352,1.86c-0.603,0.284-1.655,0.86-3.156,1.728c-2.042,1.18-4.915,2.9-8.62,5.158l-12.365,7.54
				l15.44,11.562L192.414,416.057"/>
		</g>
	</g>
</g>
<path fill="#92312F" d="M917,497.666v53c0,0-0.773,13.778-4.079,20.077c0,0-10.576,27.2-57.415,42.562l-11.176,2.365
	c-36,4.67-62-12-62-12l-282-224c-35.33-28-37.78-55.88-37.78-55.88l-3.41-80.51l344.28,173.74H795l-58-3.35l3.33,74
	c0,0,12.67,48.66,54.67,50.66l122-36.2"/>
<path fill="#CF4F4B" d="M883,420.34L778.33,535.67L491.8,308.08c0,0-14.4-11.44-14.41-11.45C465.25,284.51,459,269.21,459,252.59
	c0-39.35,39.59-71.25,89.67-71.25c17.33,0,31.53,4.82,45.3,11.45c15.922,7.665,31.439,23.268,45.294,34.371
	c7.7,6.171,15.133,12.663,22.807,18.866c20.57,16.629,41.718,32.556,62.378,49.079c43.011,34.396,86.497,68.204,129.673,102.392
	C863.744,405.117,873.369,412.731,883,420.34z"/>
<path fill="#92312F" d="M917,417.02v85.11l-122,40.2c-42-2-54.67-54.66-54.67-54.66l-3.33-74l58,3.35H917z"/>
<ellipse fill="#CF4F4B" cx="826.915" cy="417.021" rx="89.915" ry="73.909"/>
<g>
	<g>
		<g>
			<polygon fill="#D8D8D8" points="836.73,369.356 850.644,377.455 822.518,398.11 849.8,413.982 877.929,393.339 891.854,401.438 
				820.384,453.896 806.464,445.802 837.714,422.862 810.428,406.978 779.178,429.918 765.253,421.819 			"/>
		</g>
	</g>
</g>
</svg>
