<?xml version="1.0" encoding="utf-8"?>
<!-- Generator: Adobe Illustrator 16.0.0, SVG Export Plug-In . SVG Version: 6.00 Build 0)  -->
<!DOCTYPE svg PUBLIC "-//W3C//DTD SVG 1.1//EN" "http://www.w3.org/Graphics/SVG/1.1/DTD/svg11.dtd">
<svg version="1.1" id="圖層_1" xmlns="http://www.w3.org/2000/svg" xmlns:xlink="http://www.w3.org/1999/xlink" x="0px" y="0px"
	 width="1024px" height="1024px" viewBox="0 0 1024 1024" enable-background="new 0 0 1024 1024" xml:space="preserve">
<g>
	<path fill-rule="evenodd" clip-rule="evenodd" fill="#C9CACA" d="M498.615,1003.209c-61.724,0-123.405,0.615-185.086-0.352
		c-25.129-0.352-50.126-5.271-75.255-6.324c-26.402-1.145-50.479-9.139-73.761-20.65c-23.505-11.508-36.025-30.578-37.695-56.234
		c-2.107-34.441,2.417-68.182,11.512-101.482c5.184-19.33,11.686-37.781,21.965-54.826c10.631-17.66,20.561-36.025,33.212-52.104
		c12.126-15.639,26.184-30.227,41.385-42.789c24.513-20.209,51.576-36.377,81.274-48.768
		c37.781-15.725,76.838-21.879,117.167-22.139c60.144-0.354,120.332-0.264,180.518,0c40.681,0.26,80.615,5.357,117.65,23.371
		c21.087,10.281,42.13,20.912,61.461,33.914c16.563,11.246,32.202,24.691,45.513,39.627c15.949,17.748,31.061,36.99,42.747,57.727
		c20.34,36.027,32.685,75.389,36.463,116.859c1.319,15.465,1.847,31.107,1.671,46.656c-0.396,28.381-13.796,49.383-39.935,60.188
		c-19.331,8.084-39.32,15.816-59.792,19.506c-25.569,4.656-51.928,6.238-77.935,6.855c-63.264,1.406-126.526,1.492-189.743,2.02
		c-17.793,0.176-35.542,0.088-53.335,0.088C498.615,1003.912,498.615,1003.561,498.615,1003.209z"/>
	<path fill-rule="evenodd" clip-rule="evenodd" fill="#C9CACA" d="M757.551,251.88c-0.219,34.532-4.568,61.682-15.857,87.338
		c-7.558,17.134-14.498,34.708-24.429,50.434c-8.962,14.06-21.175,26.272-32.64,38.661c-20.21,21.79-45.032,38.221-72.006,49.292
		c-40.418,16.429-82.856,25.391-127.272,18.714c-32.113-4.833-62.603-13.794-91.116-29.786
		c-20.472-11.599-38.221-26.096-55.046-42.35c-21.878-21.175-38.484-46.042-49.468-73.631
		c-21.307-53.333-27.281-108.335-6.413-163.691c7.029-18.628,13.575-37.869,23.854-54.652c9.841-16.167,23.24-30.487,36.948-43.755
		c13.268-12.74,28.073-24.515,43.755-34.091c21.44-13.181,44.021-24.955,69.678-28.117c20.032-2.46,40.065-7.029,60.056-6.59
		c35.759,0.616,71.125,5.798,102.933,24.426c15.552,9.051,32.07,17.135,46.128,28.204c24.953,19.506,45.252,43.318,60.54,71.522
		C746.699,179.658,756.674,217.79,757.551,251.88z"/>
</g>
</svg>
