<?xml version="1.0" encoding="utf-8"?>
<!-- Generator: Adobe Illustrator 16.0.0, SVG Export Plug-In . SVG Version: 6.00 Build 0)  -->
<!DOCTYPE svg PUBLIC "-//W3C//DTD SVG 1.1//EN" "http://www.w3.org/Graphics/SVG/1.1/DTD/svg11.dtd">
<svg version="1.1" id="圖層_1" xmlns="http://www.w3.org/2000/svg" xmlns:xlink="http://www.w3.org/1999/xlink" x="0px" y="0px"
	 width="1024px" height="1024px" viewBox="0 0 1024 1024" enable-background="new 0 0 1024 1024" xml:space="preserve">
<g>
	<path fill-rule="evenodd" clip-rule="evenodd" fill="#DCDDDD" d="M777.032,513.467c0,89.955,0.508,179.934-0.707,269.889
		c-0.154,10.273-6.606,23.09-16.021,30.139c-15.755,11.779-43.109,4.707-50.732-11.557c-3.382-7.27-4.199-15.555-4.199-23.379
		c-0.244-178.695-0.178-357.413-0.178-536.109c0-2.453-0.132-4.906,0.066-7.337c1.48-19.644,15.977-31.2,38.073-30.427
		c21.014,0.729,33.543,11.999,33.586,31.533C777.121,328.627,777.011,421.035,777.032,513.467z"/>
	<path fill-rule="evenodd" clip-rule="evenodd" fill="#DCDDDD" d="M244.17,510.615c0-78.951,0-157.858,0.022-236.788
		c0-5.525-0.862-11.182,0.53-16.484c3.513-13.259,13.678-22.075,32.128-23.114c18.23-1.017,31.068,5.304,35.974,18.958
		c2.298,6.364,3.049,13.237,3.049,19.865c0.177,159.716,0.133,319.408,0.111,479.102c0,4.287,0.265,8.641-0.729,12.816
		c-3.667,15.777-19.179,25.676-38.493,23.887c-20.151-1.879-31.332-11.004-32.415-26.781c-0.332-4.883-0.177-9.787-0.177-14.672
		C244.17,668.475,244.17,589.545,244.17,510.615z"/>
	<path fill-rule="evenodd" clip-rule="evenodd" fill="#DCDDDD" d="M661.775,513.422c0,50.713,0.089,101.445-0.044,152.156
		c-0.066,22.762-13.435,35.531-36.305,35.203c-22.229-0.332-35.399-12.619-35.443-34.451c-0.198-103.279-0.176-206.561,0-309.817
		c0.044-21.699,13.125-33.897,35.443-34.14c23.291-0.287,36.238,12.066,36.327,35.223
		C661.886,409.544,661.798,461.471,661.775,513.422z"/>
	<path fill-rule="evenodd" clip-rule="evenodd" fill="#DCDDDD" d="M128.914,511.653c0-42.227-0.132-84.431,0.065-126.657
		c0.111-20.639,12.706-32.615,34.052-33.168c22.495-0.575,37.278,11.491,37.387,33.101c0.464,84.433,0.398,168.886,0.066,253.339
		c-0.088,21.17-15.18,33.766-37.321,33.078c-21.521-0.641-34.073-12.484-34.184-33.01
		C128.781,596.107,128.914,553.881,128.914,511.653z"/>
	<path fill-rule="evenodd" clip-rule="evenodd" fill="#DCDDDD" d="M359.426,510.394c0-31.819-0.154-63.639,0.045-95.457
		c0.154-21.369,13.876-34.008,35.973-33.743c22.473,0.265,35.664,12.396,35.752,34.251c0.266,64.257,0.243,128.514,0,192.772
		c-0.066,21.322-13.943,33.764-36.283,33.652c-22.207-0.131-35.289-12.461-35.442-34.16
		C359.25,575.27,359.426,542.832,359.426,510.394z"/>
	<path fill-rule="evenodd" clip-rule="evenodd" fill="#DCDDDD" d="M892.268,511.388c0,33.036,0.242,66.047-0.089,99.083
		c-0.177,18.959-13.368,30.803-33.896,31.398c-20.639,0.576-36.968-10.65-37.211-29.346c-0.906-67.26-0.862-134.544-0.134-201.829
		c0.199-18.451,16.53-30.052,36.969-29.478c21.059,0.598,34.072,12,34.272,31.09C892.51,445.342,892.268,478.355,892.268,511.388z"
		/>
	<path fill-rule="evenodd" clip-rule="evenodd" fill="#DCDDDD" d="M546.52,513.443c0,13.436,0.573,26.893-0.132,40.305
		c-0.886,17.236-15.072,28.881-34.494,29.344c-20.705,0.486-36.437-11.201-36.989-29.387c-0.818-28.086-0.729-56.193-0.045-84.279
		c0.42-17.345,14.96-28.901,34.471-29.322c20.88-0.441,36.062,11.137,37.011,29.367C547.116,484.099,546.52,498.793,546.52,513.443z
		"/>
	<path fill-rule="evenodd" clip-rule="evenodd" fill="#DCDDDD" d="M13.723,511.544c0-14.011-0.375-28.043,0.111-42.051
		c0.596-17.391,14.208-29.411,33.917-29.234c21.611,0.198,35.201,9.788,36.041,25.764c1.613,30.384,1.944,60.898,0.132,91.259
		c-0.928,15.602-14.518,25.699-36.327,25.699c-19.577,0-32.99-12.131-33.83-29.389c-0.332-7.293-0.067-14.627-0.089-21.941
		C13.678,524.955,13.678,518.238,13.723,511.544z"/>
	<path fill-rule="evenodd" clip-rule="evenodd" fill="#DCDDDD" d="M1007.457,511.19c0,14.626,0.178,29.255-0.065,43.861
		c-0.267,15.734-11.425,25.125-30.979,27.799c-17.922,2.453-36.88-7.777-38.029-23.512c-2.32-31.531-2.541-63.285-0.708-94.816
		c0.929-16.02,19.401-26.406,37.697-24.175c20.661,2.498,32.35,11.933,32.128,28.771
		C1007.325,483.148,1007.457,497.158,1007.457,511.19z"/>
</g>
</svg>
