<?xml version="1.0" encoding="utf-8"?>
<!-- Generator: Adobe Illustrator 16.0.0, SVG Export Plug-In . SVG Version: 6.00 Build 0)  -->
<!DOCTYPE svg PUBLIC "-//W3C//DTD SVG 1.1//EN" "http://www.w3.org/Graphics/SVG/1.1/DTD/svg11.dtd">
<svg version="1.1" id="圖層_1" xmlns="http://www.w3.org/2000/svg" xmlns:xlink="http://www.w3.org/1999/xlink" x="0px" y="0px"
	 width="1280px" height="1280px" viewBox="0 0 1280 1280" enable-background="new 0 0 1280 1280" xml:space="preserve">
<g>
	<g>
		<path fill="#09589B" d="M370.605,499.911v14.333h-6.88v53.55h6.88v14.333h-32.279v-14.333h6.88v-53.55h-6.88v-14.333H370.605z"/>
		<path fill="#09589B" d="M502.756,523.418l-16.914,58.71h-19.035l-8.658-34.4c-0.573-2.293-0.898-4.796-0.975-7.511h-0.344
			c-0.268,2.981-0.65,5.409-1.147,7.281l-9.288,34.63h-18.806l-16.569-58.71h18.461l8.084,38.299
			c0.382,1.797,0.668,3.976,0.86,6.536h0.344c0.191-2.675,0.535-4.931,1.032-6.765l10.091-38.07h17.257l9.059,38.299
			c0.229,0.956,0.496,3.173,0.802,6.651h0.401c0.191-2.216,0.497-4.434,0.917-6.651l7.625-38.299H502.756z"/>
		<path fill="#09589B" d="M522.878,514.13c-3.058,0-5.562-0.908-7.511-2.724c-1.949-1.815-2.924-4.042-2.924-6.679
			c0-2.714,0.975-4.931,2.924-6.651c1.949-1.72,4.453-2.58,7.511-2.58c3.096,0,5.609,0.86,7.54,2.58
			c1.93,1.72,2.896,3.937,2.896,6.651c0,2.752-0.966,5.008-2.896,6.765C528.487,513.251,525.974,514.13,522.878,514.13z
			 M531.822,582.128h-18.118v-58.71h18.118V582.128z"/>
		<path fill="#09589B" d="M567.539,582.128h-18.118v-86.918h18.118V582.128z"/>
		<path fill="#09589B" d="M603.256,582.128h-18.118v-86.918h18.118V582.128z"/>
	</g>
</g>
<g>
	<g>
		<path fill="#09589B" d="M386.952,700.17v21.065H376.84v78.702h10.111v21.066h-47.44v-21.066h10.112v-78.702h-10.112V700.17
			H386.952z"/>
		<path fill="#09589B" d="M485.534,697.305l-9.269,37.413h-23.172l15.926-37.413H485.534z"/>
		<path fill="#09589B" d="M587.402,821.004h-26.627V693.26h26.627V821.004z"/>
		<path fill="#09589B" d="M639.895,821.004h-26.627V693.26h26.627V821.004z"/>
	</g>
</g>
<path fill-rule="evenodd" clip-rule="evenodd" fill="none" stroke="#09589B" stroke-width="18" stroke-miterlimit="10" d="
	M967.577,327.329c-218.991,0-436.704,0-654.983,0c-0.192-2.519-0.501-4.693-0.505-6.871c-0.031-29.572-0.041-59.145-0.01-88.719
	c0.01-10.177,0.972-11.121,11.364-11.124c210.996-0.009,421.991-0.011,632.986,0.004c10.189,0,11.128,0.974,11.139,11.351
	C967.596,263.496,967.577,295.022,967.577,327.329z M537.045,264.421c-44.623,0-89.245-0.009-133.868,0.006
	c-12.928,0.007-19.272,4.306-19.139,12.874c0.132,8.549,6.468,12.72,19.442,12.722c88.962,0.006,177.922,0.011,266.883-0.024
	c3.106,0,6.317,0.026,9.299-0.705c6.703-1.641,10.091-6.309,9.591-13.14c-0.468-6.414-4.236-10.43-10.689-11.368
	c-3.072-0.447-6.235-0.349-9.357-0.352C625.154,264.417,581.1,264.421,537.045,264.421z M887.15,290.336
	c7.076-0.12,12.657-6.225,12.357-13.521c-0.288-7.029-5.718-12.148-12.771-12.042c-6.889,0.104-12.461,5.622-12.58,12.455
	C874.035,284.236,880.195,290.452,887.15,290.336z M755.475,264.119c-7.058-0.054-13.112,6.086-12.915,13.098
	c0.192,6.789,5.905,12.375,12.708,12.424c6.977,0.051,12.455-5.219,12.706-12.219C768.24,270.032,762.733,264.174,755.475,264.119z
	 M833.969,276.581c-0.26-7.061-6.471-12.564-13.667-12.102c-7.008,0.447-11.905,5.902-11.689,13.02
	c0.211,6.989,5.636,12.275,12.576,12.26C828.19,289.74,834.224,283.521,833.969,276.581z"/>
<path fill-rule="evenodd" clip-rule="evenodd" fill="#09589B" d="M887.15,291.336c-6.955,0.115-13.115-6.1-12.993-13.107
	c0.119-6.833,5.691-12.351,12.58-12.455c7.053-0.107,12.482,5.013,12.771,12.042C899.808,285.112,894.227,291.216,887.15,291.336z"
	/>
<path fill-rule="evenodd" clip-rule="evenodd" fill="#09589B" d="M755.475,265.119c7.259,0.056,12.766,5.913,12.499,13.302
	c-0.251,7-5.729,12.271-12.706,12.219c-6.803-0.049-12.516-5.635-12.708-12.424C742.362,271.205,748.417,265.065,755.475,265.119z"
	/>
<path fill-rule="evenodd" clip-rule="evenodd" fill="#09589B" d="M833.969,277.581c0.255,6.94-5.778,13.16-12.78,13.178
	c-6.94,0.016-12.365-5.271-12.576-12.26c-0.216-7.118,4.682-12.573,11.689-13.02C827.498,265.016,833.709,270.52,833.969,277.581z"
	/>
<g>
	<path fill="none" stroke="#09589B" stroke-width="18" stroke-miterlimit="10" d="M994,1060c0,5.5-4.5,10-10,10H296
		c-5.5,0-10-4.5-10-10V206c0-5.5,4.5-10,10-10h688c5.5,0,10,4.5,10,10V1060z"/>
</g>
<g>
	<g>
		<path fill-rule="evenodd" clip-rule="evenodd" fill="#09589B" d="M826.135,701.338c-6.599,0-13.197,0-19.795-0.001
			c-0.474-1.247,0.477-2.022,1.051-2.842c10.556-15.045,21.067-30.12,31.63-45.159c4.586-6.529,9.132-13.086,13.723-19.611
			c3.124-4.424,6.374-8.762,9.231-13.371c2.712-3.356,4.969-7.041,7.562-10.482c1.102-1.462,1.01-2.537-0.56-3.546
			c-2.87-1.845-5.602-3.895-8.407-5.837c-1.326-0.917-2.155-0.774-3.078,0.582c-2.525,3.71-5.173,7.337-7.687,11.058
			c-3.14,4.268-6.134,8.641-9.18,12.977c-16.065,22.988-32.127,45.979-48.283,68.902c-1.677,2.381-2.827,5.213-5.476,6.824
			c-1.125,0.748-2.399,0.551-3.626,0.521c-5.783-0.138-11.519,0.057-17,2.223c-0.331,0.131-0.67,0.243-0.968-0.08
			c-0.329-1.135,0.472-1.875,1.013-2.646c14.492-20.649,28.893-41.363,43.434-61.98c0.571-0.811,1.173-1.586,1.962-2.199
			c3.615-4.212,6.53-8.926,9.67-13.479c9.176-13.048,18.362-26.087,27.521-39.147c4.119-5.875,8.197-6.584,14.067-2.44
			c7.908,5.583,15.847,11.125,23.773,16.684c5.065,3.552,5.792,8.047,2.19,13.168c-6.598,9.386-13.168,18.791-19.736,28.197
			c-0.403,0.577-0.686,1.24-1.023,1.862c-0.141,1.653-1.446,2.638-2.271,3.889c-2.226,3.37-4.599,6.638-6.92,9.942
			c-10.174,14.696-20.573,29.232-30.758,43.92C827.626,700.084,827.059,700.883,826.135,701.338z"/>
		<path fill-rule="evenodd" clip-rule="evenodd" fill="#09589B" d="M940.385,770.896c0-5.938,0-11.878,0-17.817
			c-0.758-0.893-0.771-1.984-0.771-3.059c0.009-21.418-0.094-42.836,0.042-64.249c0.091-2.759-0.045-5.524,0.086-8.282
			c0.226-4.734,2.755-7.594,7.317-8.391c11.038-0.011,22.076-0.063,33.113-0.017c5.54,0.022,8.805,3.391,8.808,8.979
			c0.015,31.678-0.009,63.356,0.025,95.035c0.005,4.117-1.7,6.982-5.394,8.813c-10.192,5.053-20.33,10.214-30.532,15.247
			c-6.755,3.334-12.56-0.379-12.604-7.959C940.438,783.097,940.414,776.996,940.385,770.896z"/>
		<path fill-rule="evenodd" clip-rule="evenodd" fill="#09589B" d="M732.877,749.326c4.051-5.588,8.102-11.176,12.474-17.207
			c-0.228,7.579,1.998,13.962,5.482,19.978c0.165,1.819-1.057,3.079-2.062,4.235c-3.513,4.039-5.123,8.727-5.538,13.982
			c-0.212,2.669-0.872,5.297-1.044,7.982c0.896,0.508,1.362-0.265,1.939-0.535c3.17-1.488,6.088-3.459,9.273-4.916
			c2.112-0.967,3.687-2.459,4.99-4.366c0.881-1.29,1.488-2.914,3.225-3.429c-0.034,2.789-0.122,5.578-0.09,8.365
			c0.051,4.406,0.921,8.622,3.191,12.469c-9.531,5.145-19.088,10.246-28.582,15.459c-3.396,1.865-6.753,2.598-10.061,0.159
			c-3.26-2.403-3.684-5.732-3.051-9.607c1.799-11.028,3.367-22.095,4.954-33.158c0.292-2.037,1.18-3.724,2.302-5.36
			C731.188,752.055,732.309,750.867,732.877,749.326z"/>
		<path fill-rule="evenodd" clip-rule="evenodd" fill="#09589B" d="M947.059,669.098c-5.189,2.152-6.574,4.258-6.59,9.957
			c-0.005,2.047-0.056,4.094-0.085,6.14c-0.887,0.822-1.999,0.681-3.061,0.688c-3.493,0.024-6.995-0.14-10.479,0.048
			c-3.979,0.215-7.523-0.784-11.077-2.556c-18.274-9.114-36.719-17.888-54.989-27.012c-0.79-0.394-1.705-0.601-2.254-1.393
			c3.145-4.529,6.065-9.22,9.62-13.457c0.75,0.272,1.532,0.477,2.245,0.825c12.392,6.075,24.771,12.176,37.161,18.253
			c5.31,2.604,10.647,5.147,15.949,7.767c1.094,0.539,2.197,0.658,3.377,0.66C933.604,669.027,940.332,669.068,947.059,669.098z"/>
		<path fill-rule="evenodd" clip-rule="evenodd" fill="#09589B" d="M761.617,765.051c-4.096,8.551-12.984,10.479-20.501,15.24
			c0.841-5.707,1.676-10.797,2.31-15.912c0.333-2.682,2.147-4.451,3.479-6.526c1.254-1.954,2.615-3.841,3.928-5.756
			c3.334,3.743,6.68,7.443,11.174,9.911C764.009,763.107,761.482,763.99,761.617,765.051z"/>
		<g>
			<path fill="#09589B" d="M744.721,732.873c-0.018,0.004-0.023,0.003-0.036,0.005c0.061,0.046,0.116,0.185,0.034,0.576
				c-0.001,0.026,0,0.053,0,0.079c0.052-0.143,0.102-0.287,0.146-0.434C744.922,732.913,744.876,732.839,744.721,732.873z"/>
			<path fill="#09589B" d="M744.685,732.878C744.613,732.823,744.546,732.896,744.685,732.878L744.685,732.878z"/>
			<path fill="#09589B" d="M940.887,753.447c-1.148-1.391-2.328-0.445-3.381,0.056c-2.919,1.388-5.81,2.833-8.796,4.078
				c-22.005,9.168-44.359,10.303-67.107,3.007c-7.563-2.426-14.629-5.953-21.654-9.575c-2.62-1.352-5.318-1.994-8.278-1.948
				c-6.105,0.095-12.213,0.029-18.319,0.028c-11.944-0.003-23.891,0.135-35.832-0.058c-6.239-0.1-11.052-3.061-13.688-8.849
				c-2.617-5.745-1.892-11.229,2.145-16.138c3.601-4.383,8.522-5.752,13.946-5.76c16.254-0.021,32.509,0.07,48.763-0.033
				c12.841-0.081,24.56-3.945,35.135-11.194c3.332-2.283,6.57-4.745,9.3-7.741c3.049-3.345,3.074-7.943,0.281-11.313
				c-3.054-3.684-7.218-4.467-11.306-2.119c-1.175,0.674-2.206,1.533-3.207,2.443c-9.414,8.557-20.415,12.795-33.194,12.175
				c-6.465-0.038-12.932-0.031-19.4,0.022c-6.377-0.131-12.758,0.122-19.138-0.126c-7.306,0.28-14.715-0.326-21.697,2.632
				c-10.078,4.408-16.686,11.854-19.704,22.448c-0.417,1.46-0.632,2.981-1.586,4.255c-2.575,3.434-7.542,4.318-11.077,1.943
				c-3.491-2.346-4.149-6.447-1.635-10.416c13.732-21.674,27.505-43.322,41.253-64.985c1.978-3.116,4.447-5.194,7.811-6.618
				c6.193-2.623,12.34-5.363,18.512-8.037c4.091-1.773,8.037-4.059,12.621-4.479c4.196-3.903,7.204-8.652,9.779-13.709
				c0.028-0.056-0.051-0.165-0.08-0.249c-9.058-4.157-17.628-2.569-26.255,1.688c-7.219,3.563-14.729,6.548-22.168,9.653
				c-5.631,2.35-10.165,5.932-13.44,11.086c-11.141,17.537-22.401,34.998-33.361,52.646c-4.909,7.904-11.334,15.061-13.126,24.645
				c0,2.156,0,4.313,0,6.469c1.117,2.319,1.401,4.937,2.666,7.215c3.813,6.868,9.227,11.528,17.211,12.736
				c1.467,0.125,1.908-1.141,2.521-2.012c1.645-2.335,3.53-4.607,5.042-7.027c1.425-2.282,3.56-4.166,4.56-6.754
				c0-0.026,0-0.053,0-0.079c0-0.392-0.114-0.53-0.174-0.576c-0.14,0.019-0.072-0.055,0,0c0.013-0.002-0.053-0.001-0.035-0.005
				c0.156-0.034,0.166,0.04,0.11,0.227c-0.045,0.146-0.114,0.291-0.166,0.434c-0.163,6.4,1.736,12.721,5.527,18.506
				c3.311,4.525,7.184,8.401,12.285,10.838c-0.982,0.499-1.329,1.418-1.392,2.492c-0.697,5.786-0.799,11.539,1.217,17.129
				c0.473,1.311,0.82,2.775,2.346,3.387c6.18,11.872,22.335,16.459,33.518,8.994c3.213-2.144,4.778-1.48,7.682,0.184
				c16.09,9.216,35.554-1.524,36.437-20.455c0.165-3.548,0.099-3.552,3.337-2.053c0.325,0.15,0.638,0.329,0.965,0.474
				c12.056,5.319,24.708,8.317,37.817,9.09c7.22,0.425,14.457,0.068,21.685-0.911c11.987-1.625,23.339-5.145,34.227-10.312
				c0.475-0.331,0.752-0.83,0.767-1.364C941.301,764.167,941.767,758.797,940.887,753.447z M793.421,776.643
				c-1.19,3.893-4.565,6.004-8.696,5.546c-3.604-0.399-6.694-3.388-6.986-7.06c-0.197-2.494-0.019-5.016-0.059-7.524
				c-0.019-1.161,0.504-1.593,1.622-1.575c2.149,0.035,4.301,0.01,6.452,0.01c2.15,0,4.301,0.004,6.452-0.002
				c0.879-0.002,1.675,0.135,1.622,1.266C793.684,770.417,794.359,773.579,793.421,776.643z M826.216,768.721
				c-0.112,0.881-0.019,1.789-0.019,2.922c-0.15,1.533,0.209,3.309-0.413,5.081c-1.339,3.808-4.69,5.962-8.788,5.463
				c-3.739-0.456-6.683-3.581-6.963-7.395c-0.643-8.758-0.643-8.758,8.133-8.758c1.792,0,3.599,0.138,5.373-0.035
				C825.707,765.787,826.485,766.619,826.216,768.721z"/>
		</g>
		<path fill-rule="evenodd" clip-rule="evenodd" fill="#09589B" d="M853.153,633.99c-4.324-3.035-8.649-6.07-12.974-9.105
			c2.901-4.504,5.91-8.932,9.255-13.123c0.451-0.1,0.911-0.084,1.299,0.159c3.932,2.468,7.765,5.077,11.358,8.022
			c0.201,0.166,0.258,0.461,0.294,0.73C859.67,625.363,856.471,629.719,853.153,633.99z"/>
	</g>
</g>
<line fill-rule="evenodd" clip-rule="evenodd" fill="none" stroke="#09589B" stroke-width="18" stroke-miterlimit="10" x1="304" y1="519" x2="931" y2="519"/>
<line fill-rule="evenodd" clip-rule="evenodd" fill="none" stroke="#09589B" stroke-width="18" stroke-miterlimit="10" x1="304" y1="555" x2="931" y2="555"/>
<line fill-rule="evenodd" clip-rule="evenodd" fill="none" stroke="#09589B" stroke-width="18" stroke-miterlimit="10" x1="304" y1="853" x2="931" y2="853"/>
</svg>
