<?xml version="1.0" encoding="UTF-8"?>
<!DOCTYPE svg PUBLIC "-//W3C//DTD SVG 1.1//EN" "http://www.w3.org/Graphics/SVG/1.1/DTD/svg11.dtd">
<svg xmlns="http://www.w3.org/2000/svg" version="1.1" width="275px" height="173px" style="shape-rendering:geometricPrecision; text-rendering:geometricPrecision; image-rendering:optimizeQuality; fill-rule:evenodd; clip-rule:evenodd" xmlns:xlink="http://www.w3.org/1999/xlink">
<g><path style="opacity:0.877" fill="#0060a7" d="M 236.5,11.5 C 241.287,12.7261 242.287,15.2261 239.5,19C 185.5,68.3333 131.5,117.667 77.5,167C 75.0966,167.63 73.2633,166.797 72,164.5C 71.2888,162.633 71.7888,161.133 73.5,160C 127.907,110.483 182.24,60.9833 236.5,11.5 Z"/></g>
<g><path style="opacity:0.855" fill="#0061a8" d="M 103.5,23.5 C 108.486,23.3049 110.152,25.4716 108.5,30C 101.561,31.5741 99.8941,29.4074 103.5,23.5 Z"/></g>
<g><path style="opacity:0.965" fill="#0060a8" d="M 116.5,23.5 C 118.5,23.5 120.5,23.5 122.5,23.5C 122.5,36.8333 122.5,50.1667 122.5,63.5C 120.5,63.5 118.5,63.5 116.5,63.5C 116.5,50.1667 116.5,36.8333 116.5,23.5 Z"/></g>
<g><path style="opacity:0.85" fill="#0060a7" d="M 129.5,23.5 C 131.833,23.5 134.167,23.5 136.5,23.5C 136.5,36.8333 136.5,50.1667 136.5,63.5C 134.167,63.5 131.833,63.5 129.5,63.5C 129.5,50.1667 129.5,36.8333 129.5,23.5 Z"/></g>
<g><path style="opacity:0.845" fill="#0060a7" d="M 34.5,25.5 C 36.8333,25.5 39.1667,25.5 41.5,25.5C 41.5,38.1667 41.5,50.8333 41.5,63.5C 39.1667,63.5 36.8333,63.5 34.5,63.5C 34.5,50.8333 34.5,38.1667 34.5,25.5 Z"/></g>
<g><path style="opacity:0.92" fill="#0061a8" d="M 58.5,36.5 C 60.8333,36.5 63.1667,36.5 65.5,36.5C 66.8387,42.8556 68.3387,49.189 70,55.5C 72.3012,49.2941 74.1345,42.9608 75.5,36.5C 77.8333,36.5 80.1667,36.5 82.5,36.5C 83.683,42.5654 85.183,48.5654 87,54.5C 89.1208,49.0266 90.7874,43.3599 92,37.5C 94.1385,36.2309 96.3052,36.2309 98.5,37.5C 95.846,45.7818 93.346,54.1151 91,62.5C 88.5341,63.7766 86.0341,63.7766 83.5,62.5C 82.0012,57.1723 80.5012,51.839 79,46.5C 76.4004,51.891 74.5671,57.5577 73.5,63.5C 70.8806,63.7683 68.3806,63.435 66,62.5C 63.1894,53.9038 60.6894,45.2371 58.5,36.5 Z"/></g>
<g><path style="opacity:0.965" fill="#0060a8" d="M 102.5,36.5 C 104.5,36.5 106.5,36.5 108.5,36.5C 108.5,45.5 108.5,54.5 108.5,63.5C 106.5,63.5 104.5,63.5 102.5,63.5C 102.5,54.5 102.5,45.5 102.5,36.5 Z"/></g>
<g><path style="opacity:0.851" fill="#0061a7" d="M 228.5,102.5 C 230.5,102.5 232.5,102.5 234.5,102.5C 234.5,113.833 234.5,125.167 234.5,136.5C 232.5,136.5 230.5,136.5 228.5,136.5C 228.5,125.167 228.5,113.833 228.5,102.5 Z"/></g>
<g><path style="opacity:0.988" fill="#0061a8" d="M 240.5,102.5 C 242.167,102.5 243.833,102.5 245.5,102.5C 245.5,113.833 245.5,125.167 245.5,136.5C 243.833,136.5 242.167,136.5 240.5,136.5C 240.5,125.167 240.5,113.833 240.5,102.5 Z"/></g>
<g><path style="opacity:0.781" fill="#0061a7" d="M 188.5,103.5 C 190.167,103.5 191.833,103.5 193.5,103.5C 192.909,106.94 191.909,110.273 190.5,113.5C 189.311,114.429 187.978,114.762 186.5,114.5C 187.326,110.864 187.992,107.197 188.5,103.5 Z"/></g>
<g><path style="opacity:0.994" fill="#0060a8" d="M 175.5,104.5 C 177.167,104.5 178.833,104.5 180.5,104.5C 180.5,115.167 180.5,125.833 180.5,136.5C 178.833,136.5 177.167,136.5 175.5,136.5C 175.5,125.833 175.5,115.167 175.5,104.5 Z"/></g>
</svg>
