<?xml version="1.0" encoding="utf-8"?>
<!-- Generator: Adobe Illustrator 16.0.0, SVG Export Plug-In . SVG Version: 6.00 Build 0)  -->
<!DOCTYPE svg PUBLIC "-//W3C//DTD SVG 1.1//EN" "http://www.w3.org/Graphics/SVG/1.1/DTD/svg11.dtd">
<svg version="1.1" id="圖層_1" xmlns="http://www.w3.org/2000/svg" xmlns:xlink="http://www.w3.org/1999/xlink" x="0px" y="0px"
	 width="2902.68px" height="2902.68px" viewBox="0 0 2902.68 2902.68" enable-background="new 0 0 2902.68 2902.68"
	 xml:space="preserve">
<g>
	<path fill="#FFFFFF" fill-rule="evenodd" clip-rule="evenodd" d="M2565.386,923.452c6.311,501.784,5.313,1003.688,2.437,1505.401
		c-1.244,208.857-142.399,372.809-345.763,416.908c-9.555,2.121-18.426,7.613-27.606,11.488c-470.676,0-941.353,0-1412.151,0
		c-9.123-3.875-17.988-9.367-27.484-11.488c-203.421-44.1-344.95-208.051-345.762-416.844c-2.495-651.738-2.373-1303.418,0-1955.157
		c0.69-200.359,137.531-366.625,327.278-413.967c15.55-3.868,30.663-9.49,45.968-14.364c316.653,0,633.19,0,949.843,0
		 M620.659,1451.031c0,312.346-0.245,624.692,0,937.04c0.187,170.133,86.818,255.701,258.512,255.766
		c403.974,0.121,807.947,0.064,1211.856,0c182.997,0,265.128-83.008,265.192-267.881c0-435.262,0-870.465,0-1305.662
		c0-123.231-33.79-158.955-158.266-161.141c-112.426-1.934-224.846-0.812-337.271-0.935
		c-124.785-0.129-153.578-28.98-153.765-154.274c-0.252-120.788,2.121-241.647-1.754-362.312
		c-3.243-101.743-39.096-133.031-138.214-132.973c-231.158,0-462.244-0.123-693.401,0.251
		c-166.072,0.187-252.703,87.565-252.89,255.076C620.414,826.396,620.659,1138.678,620.659,1451.031z"/>
	<path fill="#FFFFFF" fill-rule="evenodd" clip-rule="evenodd" d="M1488.068,1994.469c172.63,0,345.382-0.25,518.018,0.123
		c80.196,0.129,126.223,38.973,126.475,104.928c0.251,65.955-45.659,106.99-125.727,107.178
		c-347.51,0.625-694.896,0.684-1042.412-0.123c-74.323-0.193-120.162-42.912-120.162-106.119
		c0.058-64.266,45.156-105.426,119.543-105.734C1138.554,1993.967,1313.311,1994.469,1488.068,1994.469z"/>
	<path  fill="#FFFFFF" fill-rule="evenodd" clip-rule="evenodd" d="M1485.128,1342.042c-164.383,0-328.709,0.374-493.099-0.438
		c-26.73-0.123-54.962-1.309-79.816-9.806c-52.093-17.988-74.517-59.082-66.954-112.793c7.24-50.965,38.844-81.196,91.06-86.695
		c18.491-1.999,37.349-1.373,56.084-1.438c330.837-0.058,661.673-0.058,992.446,0.064c20.863,0,42.094-1.748,62.332,1.999
		c50.842,9.245,80.57,40.72,84.941,92.685c4.436,51.842-18.613,89.815-67.767,106.243c-24.982,8.368-53.15,9.619-79.88,9.806
		C1818.028,1342.415,1651.575,1342.042,1485.128,1342.042z"/>
	<path  fill="#FFFFFF" fill-rule="evenodd" clip-rule="evenodd" d="M1485.128,1767.373c-164.383,0-328.709,0.439-493.099-0.438
		c-26.73-0.064-54.962-1.309-79.816-9.807c-52.093-17.986-74.517-59.082-66.954-112.734c7.24-51.023,38.844-81.195,91.06-86.754
		c18.491-1.998,37.349-1.373,56.084-1.373c330.837-0.123,661.673-0.123,992.446,0c20.863,0,42.094-1.684,62.332,1.998
		c50.842,9.246,80.57,40.721,84.941,92.686c4.436,51.906-18.613,89.814-67.767,106.307c-24.982,8.305-53.15,9.613-79.88,9.742
		C1818.028,1767.813,1651.575,1767.373,1485.128,1767.373z"/>
</g>
</svg>
