<?xml version="1.0" encoding="utf-8"?>
<!-- Generator: Adobe Illustrator 16.0.0, SVG Export Plug-In . SVG Version: 6.00 Build 0)  -->
<!DOCTYPE svg PUBLIC "-//W3C//DTD SVG 1.1//EN" "http://www.w3.org/Graphics/SVG/1.1/DTD/svg11.dtd">
<svg version="1.1" id="圖層_1" xmlns="http://www.w3.org/2000/svg" xmlns:xlink="http://www.w3.org/1999/xlink" x="0px" y="0px"
	 width="1024px" height="1024px" viewBox="0 0 1024 1024" enable-background="new 0 0 1024 1024" xml:space="preserve">
<g>
	<path fill="#FFFFFF" stroke="#8D7CB8" stroke-miterlimit="10" d="M1013.009,808.348l-65.526-23.301l-63.568-22.531H499.139
		c-34.874,0-63.123-28.293-63.123-63.121V503.216c0-34.797,28.249-63.122,63.123-63.122h425.243
		c34.874,0,63.106,28.325,63.106,63.122v168.563l0.339-0.248L1013.009,808.348z"/>
	<g>
		<path fill="#8D7CB8" d="M623.78,508.487h55.017l34.628,57.234l37.694-57.234h49.991l-61.703,91.046l61.411,94.652h-55.556
			l-35.753-58.652l-37.416,58.652h-49.716l61.164-91.879L623.78,508.487z"/>
	</g>
	<path fill="#9A8EC3" d="M556.357,238.368c-7.004-2.62-14.508-4.038-22.329-4.038H108.785c-7.83,0-15.341,1.417-22.338,4.038
		c6.997-2.682,14.508-4.1,22.338-4.1h425.243C541.85,234.269,549.354,235.687,556.357,238.368z"/>
	<path fill="#9A8EC3" d="M578.627,252.792c2.165,2.034,4.138,4.407,5.979,6.873C582.765,257.261,580.792,254.95,578.627,252.792z"/>
	<path fill="#9A8EC3" d="M589.507,267.31c-1.464-2.682-3.112-5.209-4.9-7.644C586.455,262.1,588.104,264.628,589.507,267.31z"/>
	<path fill="#FFFFFF" stroke="#695B8B" stroke-miterlimit="10" d="M597.135,297.483V493.57c0,14.64-4.962,28.139-13.354,38.834
		c-1.587,2.035-3.305,3.945-5.084,5.764c0,0-0.07,0-0.07,0.092c-1.842,1.758-3.753,3.484-5.787,5.086
		c-10.687,8.385-24.18,13.346-38.812,13.346H149.246l-63.562,22.531l-65.541,23.301L45.34,465.706l0.323,0.247V297.483
		c0-19.602,8.908-37.171,22.969-48.759c1.588-1.264,3.183-2.466,4.901-3.638c0.824-0.554,1.65-1.078,2.542-1.633
		c2.351-1.479,4.901-2.743,7.445-3.883c0.956-0.463,1.973-0.833,2.927-1.202c6.997-2.62,14.508-4.038,22.338-4.038h425.243
		c7.821,0,15.325,1.417,22.329,4.038c0.956,0.37,1.973,0.739,2.929,1.202c2.544,1.14,5.023,2.404,7.443,3.883
		c0.894,0.555,1.78,1.14,2.612,1.633c1.657,1.172,3.306,2.374,4.831,3.638c1.526,1.263,3.059,2.681,4.454,4.068
		c2.165,2.157,4.138,4.469,5.979,6.873c1.788,2.435,3.437,4.962,4.9,7.644C594.346,276.278,597.135,286.511,597.135,297.483z"/>
	<g>
		<path fill-rule="evenodd" clip-rule="evenodd" fill="#695B8B" d="M286.764,411.185c13.885-13.963,27.67-27.833,41.478-41.703
			c20.927-20.988,41.855-41.979,62.807-62.937c8.962-8.97,17.244-9.062,26.113-0.309c6.51,6.442,13.044,12.853,19.396,19.448
			c7.272,7.552,7.434,16.305,0.053,23.703c-46.009,46.139-92.087,92.216-138.227,138.233c-7.743,7.737-16.396,7.675-24.201-0.093
			c-26.431-26.26-52.774-52.612-79.043-79.057c-7.612-7.644-7.412-16.305,0.216-24.133c6.388-6.564,12.892-13.005,19.418-19.417
			c8.406-8.291,16.758-8.321,25.127-0.093C255.265,379.961,270.567,395.156,286.764,411.185z"/>
	</g>
</g>
</svg>
