<?xml version="1.0" encoding="UTF-8"?>
<!DOCTYPE svg PUBLIC "-//W3C//DTD SVG 1.1//EN" "http://www.w3.org/Graphics/SVG/1.1/DTD/svg11.dtd">
<svg xmlns="http://www.w3.org/2000/svg" version="1.1" width="851px" height="351px" style="shape-rendering:geometricPrecision; text-rendering:geometricPrecision; image-rendering:optimizeQuality; fill-rule:evenodd; clip-rule:evenodd" xmlns:xlink="http://www.w3.org/1999/xlink">
<g><path style="opacity:0.967" fill="#0061a7" d="M 716.5,78.5 C 723.167,78.5 729.833,78.5 736.5,78.5C 736.5,123.167 736.5,167.833 736.5,212.5C 729.833,212.5 723.167,212.5 716.5,212.5C 716.666,208.486 716.499,204.486 716,200.5C 706.148,213.18 693.315,217.68 677.5,214C 661.385,208.633 652.218,197.467 650,180.5C 647.045,162.852 650.712,146.852 661,132.5C 676.842,117.633 694.009,115.799 712.5,127C 713.304,128.771 714.471,130.271 716,131.5C 716.5,113.836 716.667,96.1698 716.5,78.5 Z M 687.5,136.5 C 701.42,134.205 710.92,139.538 716,152.5C 716.667,161.5 716.667,170.5 716,179.5C 710.309,196.928 698.809,202.428 681.5,196C 673.007,188.842 669.007,179.676 669.5,168.5C 669.385,158.008 672.718,148.841 679.5,141C 682.099,139.205 684.766,137.705 687.5,136.5 Z"/></g>
<g><path style="opacity:0.962" fill="#0060a8" d="M 115.5,85.5 C 122.422,85.1878 129.256,85.5212 136,86.5C 136.5,104.164 136.667,121.83 136.5,139.5C 156.167,139.5 175.833,139.5 195.5,139.5C 195.5,121.5 195.5,103.5 195.5,85.5C 202.5,85.5 209.5,85.5 216.5,85.5C 216.5,127.833 216.5,170.167 216.5,212.5C 209.5,212.5 202.5,212.5 195.5,212.5C 195.5,194.167 195.5,175.833 195.5,157.5C 175.833,157.5 156.167,157.5 136.5,157.5C 136.5,175.833 136.5,194.167 136.5,212.5C 129.5,212.5 122.5,212.5 115.5,212.5C 115.5,170.167 115.5,127.833 115.5,85.5 Z"/></g>
<g><path style="opacity:0.964" fill="#0061a7" d="M 272.5,119.5 C 283.725,118.589 294.059,121.089 303.5,127C 308.665,132.497 311.832,138.997 313,146.5C 313.5,168.831 313.667,191.164 313.5,213.5C 307.167,213.5 300.833,213.5 294.5,213.5C 294.666,209.154 294.499,204.821 294,200.5C 282.783,214.781 268.616,218.614 251.5,212C 239.122,204.051 234.956,192.885 239,178.5C 243.177,167.661 251.01,161.161 262.5,159C 273.143,157.265 283.809,155.765 294.5,154.5C 294.863,145.369 290.863,139.202 282.5,136C 269.516,134.385 257.849,137.551 247.5,145.5C 246.167,139.5 246.167,133.5 247.5,127.5C 255.442,123.184 263.775,120.518 272.5,119.5 Z M 290.5,168.5 C 291.833,168.5 293.167,168.5 294.5,168.5C 295.799,179.444 292.466,188.61 284.5,196C 274.934,201.577 266.434,200.41 259,192.5C 255.524,183.629 258.024,177.129 266.5,173C 274.595,171.254 282.595,169.754 290.5,168.5 Z"/></g>
<g><path style="opacity:0.956" fill="#0061a7" d="M 526.5,119.5 C 540.09,117.862 551.59,121.862 561,131.5C 564.698,137.292 566.698,143.626 567,150.5C 567.667,171.167 567.667,191.833 567,212.5C 560.916,213.642 554.749,213.809 548.5,213C 547.7,208.92 547.2,204.753 547,200.5C 537.975,213.288 525.808,217.788 510.5,214C 494.604,208.372 488.437,197.205 492,180.5C 495.505,168.145 503.672,160.978 516.5,159C 526.806,157.254 537.139,155.754 547.5,154.5C 548.266,145.51 544.599,139.343 536.5,136C 523.301,134.091 511.468,137.258 501,145.5C 500.17,139.472 500.336,133.472 501.5,127.5C 509.414,123.194 517.747,120.527 526.5,119.5 Z M 543.5,168.5 C 544.833,168.5 546.167,168.5 547.5,168.5C 549.875,181.911 545.208,191.744 533.5,198C 521.411,202.089 513.744,198.089 510.5,186C 511.055,179.866 514.055,175.532 519.5,173C 527.607,171.328 535.607,169.828 543.5,168.5 Z"/></g>
<g><path style="opacity:0.973" fill="#0060a7" d="M 375.5,120.5 C 380.233,120.223 384.9,120.557 389.5,121.5C 390.496,127.798 390.83,134.132 390.5,140.5C 373.328,134.841 362.828,140.841 359,158.5C 358.5,176.497 358.333,194.497 358.5,212.5C 351.5,212.5 344.5,212.5 337.5,212.5C 337.333,182.498 337.5,152.498 338,122.5C 344.418,121.357 350.918,121.19 357.5,122C 358.305,126.749 358.805,131.582 359,136.5C 362.438,128.893 367.938,123.56 375.5,120.5 Z"/></g>
<g><path style="opacity:0.958" fill="#0060a7" d="M 629.5,120.5 C 633.902,120.228 638.235,120.561 642.5,121.5C 643.496,127.798 643.83,134.132 643.5,140.5C 625.002,135.13 614.502,142.13 612,161.5C 611.5,178.497 611.333,195.497 611.5,212.5C 604.833,212.5 598.167,212.5 591.5,212.5C 591.5,182.167 591.5,151.833 591.5,121.5C 598.167,121.5 604.833,121.5 611.5,121.5C 611.334,126.844 611.501,132.177 612,137.5C 615.135,128.862 620.968,123.195 629.5,120.5 Z"/></g>
<g><path style="opacity:0.958" fill="#0060a7" d="M 398.5,121.5 C 405.833,121.5 413.167,121.5 420.5,121.5C 427.892,145.512 435.392,169.512 443,193.5C 451.179,169.963 459.179,146.296 467,122.5C 470.416,121.852 473.916,121.518 477.5,121.5C 481.349,121.368 485.016,121.868 488.5,123C 476.544,152.364 464.877,181.864 453.5,211.5C 449.833,211.833 446.167,212.167 442.5,212.5C 438.405,212.458 434.571,211.792 431,210.5C 419.864,180.925 409.031,151.258 398.5,121.5 Z"/></g>
</svg>
