<?xml version="1.0" encoding="utf-8"?>
<!-- Generator: Adobe Illustrator 16.0.0, SVG Export Plug-In . SVG Version: 6.00 Build 0)  -->
<!DOCTYPE svg PUBLIC "-//W3C//DTD SVG 1.1//EN" "http://www.w3.org/Graphics/SVG/1.1/DTD/svg11.dtd">
<svg version="1.1" id="圖層_1" xmlns="http://www.w3.org/2000/svg" xmlns:xlink="http://www.w3.org/1999/xlink" x="0px" y="0px"
	 width="1280px" height="1280px" viewBox="0 0 1280 1280" enable-background="new 0 0 1280 1280" xml:space="preserve">
<path fill-rule="evenodd" clip-rule="evenodd" fill="#09589B" d="M781.81,529.321c-13.34,74.16-88.2,124.99-162.2,111.05
	c-0.6-0.109-1.13-0.63-1.68-0.96c-51.551-9.92-86.01-40.4-105.7-88.33c-6.42-15.619-8.88-32.17-8.97-49
	c-0.15-28.189,0.01-56.39-0.141-84.58c-0.02-4.619,0.561-7.14,6.26-7.119c65.221,0.31,130.45,0.379,195.69,0.52
	c24.55-0.13,49.11-0.24,73.66-0.43c3.67-0.03,6.37,0.27,6.21,5.1C783.64,453.491,788.579,491.691,781.81,529.321z"/>
<path fill="#09589B" d="M882.394,779.824c0,0,230.916,214.176,122.922,340.176H274.678C166.693,994,397.633,779.859,397.672,779.824
	c-4.969,4.604,69.066,80.491,74.143,85.231c92.572,86.428,200.386,116.216,303.621,37.934
	C819.366,869.677,853.159,826.234,882.394,779.824z"/>
<g>
	<path fill="#FFFFFF" d="M692.285,577.898h-27.301v-49.21h-50.053v49.21h-27.217V457.064h27.217v48.199h50.053v-48.199h27.301
		V577.898z"/>
</g>
<path fill-rule="evenodd" clip-rule="evenodd" fill="#09589B" d="M819.489,373.581c0.16,6.36-2.47,7.57-8.14,7.57
	c-111.84-0.04-223.69,0.08-335.53,0.109c-2.39,0-5.39,1.181-6.91-2.059c-0.08-17.341-0.35-34.671-0.159-52
	c0.17-14.75,8.34-25.65,22.529-29.721c53.609-15.33,107.96-26.061,164.08-24.12c12.66,0.44,25.47,0.181,37.91,3.46
	c30.359,0.939,59.28,9.49,88.439,16.75c6.95,1.73,14.08,2.9,20.63,6.09c10.771,5.25,16.461,14.041,16.82,25.711
	C819.659,341.432,819.079,357.521,819.489,373.581z"/>
<path fill-rule="evenodd" clip-rule="evenodd" fill="#09589B" d="M565.784,891.258c15.96-5.922,17.577-15.55,23.457-26.836
	c3.316-6.365,6.313-12.897,9.407-19.261c0.326-4.469-12.014-15.563-15.947-14.003c-17.119,6.794-30.232,0.633-42.273-11.618
	c-21.117-21.487-42.751-42.465-63.987-63.837c-3.595-3.619-6.725-4.979-11.981-3.481c-11.316,3.224-22.434,6.928-33.494,10.912
	c-6.23,2.244-7.928,4.355-3.238,10.428c7.181,9.297,13.854,18.979,20.575,28.609c24.009,34.404,53.89,65.1,91.979,83.83
	C546.955,889.282,558.082,894.115,565.784,891.258z"/>
<path fill-rule="evenodd" clip-rule="evenodd" fill="#09589B" d="M716.761,891.258c-15.96-5.922-17.577-15.55-23.457-26.836
	c-3.316-6.365-6.313-12.897-9.406-19.261c-0.328-4.469,12.012-15.563,15.945-14.003c17.12,6.794,30.234,0.633,42.274-11.618
	c21.117-21.487,42.751-42.465,63.987-63.837c3.595-3.619,6.725-4.979,11.982-3.481c11.315,3.224,22.433,6.928,33.492,10.912
	c6.231,2.244,7.929,4.355,3.238,10.428c-7.18,9.297-13.854,18.979-20.574,28.609c-24.008,34.404-53.889,65.1-91.979,83.83
	C735.591,889.282,724.462,894.115,716.761,891.258z"/>
<path fill-rule="evenodd" clip-rule="evenodd" fill="#09589B" d="M573.55,657.813c73.688,18.289,73.688,18.289,140.867,0.009
	c1.319,16.146-2.113,32.803,5.445,48.115c1.858,3.764-1.716,4.438-3.638,5.68c-22.532,14.55-45.194,28.897-67.646,43.568
	c-3.781,2.472-6.369,1.639-9.644-0.479c-22.251-14.382-44.594-28.619-66.847-42.995c-1.933-1.249-5.718-1.905-3.95-5.542
	C575.662,690.688,572.482,674.028,573.55,657.813z"/>
<path fill-rule="evenodd" clip-rule="evenodd" fill="#09589B" d="M508.168,743.722c12.051-3.324,25.518-3.711,36.705-11.3
	c1.99-1.351,3.629-0.606,5.387,0.521c21.706,13.908,43.432,27.786,66.283,42.396c-15.346,9.671-29.624,18.591-43.804,27.665
	c-3.093,1.979-5.433,1.475-7.81-0.969C546.021,782.591,527.098,763.165,508.168,743.722z"/>
<path fill-rule="evenodd" clip-rule="evenodd" fill="#09589B" d="M781.79,743.722c-12.051-3.324-25.518-3.711-36.705-11.3
	c-1.99-1.351-3.629-0.606-5.387,0.521c-21.706,13.908-43.432,27.786-66.283,42.396c15.346,9.671,29.624,18.591,43.804,27.665
	c3.093,1.979,5.433,1.475,7.81-0.969C743.937,782.591,762.86,763.165,781.79,743.722z"/>
<path fill-rule="evenodd" clip-rule="evenodd" fill="#09589B" d="M646.252,854.938c0.017,0,0.032-0.001,0.049-0.001
	c13.144-0.142,18.975,4.11,23.495,16.915c3.352,9.497,8.454,18.396,13.043,27.426c1.881,3.7,1.359,5.657-2.549,7.423
	c-10.721,4.843-21.315,9.966-31.887,15.127c-3.278,1.601-6.102,1.266-9.293-0.312c-10.254-5.067-20.528-10.117-30.997-14.715
	c-4.573-2.009-4.53-4.194-2.545-8.127c5.447-10.791,11.211-21.504,15.549-32.751C625.367,854.902,636.389,855.044,646.252,854.938z"
	/>
<path fill-rule="evenodd" clip-rule="evenodd" fill="#09589B" d="M473.639,449.638c-0.004,10.779-0.223,21.565,0.088,32.335
	c0.155,5.4-2.082,6.536-6.998,6.308c-19.568-0.912-35.709-17.867-35.996-38.185c-0.287-20.354,15.281-37.886,34.652-39.526
	c6.188-0.523,8.777,0.904,8.406,7.719C473.227,428.71,473.644,439.186,473.639,449.638z"/>
<path fill-rule="evenodd" clip-rule="evenodd" fill="#09589B" d="M814.418,449.081c-0.005-10.459,0.41-20.939-0.156-31.367
	c-0.356-6.566,2.311-7.552,7.967-7.164c19.725,1.352,35.717,19.423,35.114,40.113c-0.591,20.28-17.201,37.215-36.601,37.668
	c-4.549,0.105-6.514-1.035-6.4-5.917C814.6,471.309,814.423,460.192,814.418,449.081z"/>
<path fill-rule="evenodd" clip-rule="evenodd" fill="#09589B" d="M911.81,438.624c-5.633-0.893-14.795,3.182-18.383-1.693
	c-2.704-3.674,1.361-12.332,2.413-18.771c1.635-10.006,3.488-19.982,4.84-30.027c1.38-10.256,9.134-5.505,14.398-6.391
	c5.12-0.859,8.235,0.307,9.037,6.803c1.682,13.613,4.253,27.145,7.085,40.577c1.645,7.808-0.575,10.702-8.505,9.578
	C919.485,438.244,916.155,438.624,911.81,438.624z"/>
<path fill-rule="evenodd" clip-rule="evenodd" fill="#09589B" d="M673.213,813.788c0.453,1.429,0.192,3.111-1.259,5.294
	c-3.823,5.751-12.727,8.11-19.204,7.21c-7.709-1.073-15.688-0.155-23.543-0.233c-2.529-0.024-4.918,0.173-7.367-1.664
	c-10.876-8.156-9.905-9.32,0.301-18.054c15.43-13.205,29.211-13.531,43.854,0.252C668.785,809.218,672.335,811.027,673.213,813.788z
	"/>
<rect x="909" y="287" fill-rule="evenodd" clip-rule="evenodd" fill="#09589B" width="6" height="108"/>
<path fill-rule="evenodd" clip-rule="evenodd" fill="#09589B" d="M485.129,221.875c50.739-20.266,101.611-40.198,152.378-60.394
	c4.159-1.654,7.757-2.241,12.104-0.516c97.62,38.742,195.288,77.367,292.94,116.031c0.533,0.211,0.972,0.666,2.479,1.729
	c-9.916,4.034-19.177,7.884-28.498,11.58c-20.381,8.079-40.855,15.927-61.147,24.221c-5.072,2.073-7.068,1.944-8.854-4.035
	c-6.617-22.159-21.604-35.755-43.954-42.066c-54.493-15.39-109.647-25.665-166.579-24.761
	c-53.215,0.844-104.756,11.42-155.496,26.328c-19.869,5.838-32.553,20.1-39.028,39.772c-1.023,3.11-0.277,8.027-6.337,5.621
	c-30.344-12.053-60.711-24.044-93.271-36.927c24.351-9.624,46.6-18.383,68.82-27.215L485.129,221.875z"/>
</svg>
