<?xml version="1.0" encoding="utf-8"?>
<!-- Generator: Adobe Illustrator 16.0.0, SVG Export Plug-In . SVG Version: 6.00 Build 0)  -->
<!DOCTYPE svg PUBLIC "-//W3C//DTD SVG 1.1//EN" "http://www.w3.org/Graphics/SVG/1.1/DTD/svg11.dtd">
<svg version="1.1" id="圖層_1" xmlns="http://www.w3.org/2000/svg" xmlns:xlink="http://www.w3.org/1999/xlink" x="0px" y="0px"
	 width="1024px" height="1024px" viewBox="0 0 1024 1024" enable-background="new 0 0 1024 1024" xml:space="preserve">
<g>
	<path fill-rule="evenodd" clip-rule="evenodd" fill="#3B52A2" d="M608.688,958.865c0-74.344,0.057-146.357-0.057-218.37
		c-0.019-10.9-0.112-21.875-1.353-32.699c-2.951-25.709-18.417-42.473-43.862-43.749c-33.507-1.729-67.202-2.03-100.69-0.526
		c-30.068,1.428-46.831,20.671-47.039,51.267c-0.488,71.41-0.281,142.823-0.356,214.236c0,9.095,0,18.19,0,28.79
		c-9.021,0.825-16.293,1.953-23.566,2.027c-57.957,0.228-115.913,0.904-173.85,0.151c-32.643-0.376-50.552-17.816-50.703-49.839
		c-0.507-118.469-0.413-236.86,0.507-355.329c0.076-9.396,5.939-20.897,12.761-27.738c89.678-90.729,180.033-180.786,270.2-271.064
		c10.656-10.676,20.86-21.875,31.854-32.174c23.491-22.026,36.477-21.95,59.629,1.126c64.232,63.972,128.24,128.166,192.267,192.363
		c36.157,36.232,72.765,72.088,107.832,109.297c7.63,8.119,13.568,21.423,13.682,32.398c1.09,115.087,0.939,230.172,0.939,345.257
		c-0.038,37.812-17.815,55.778-55.213,56.003c-52.056,0.301-104.168,0.301-156.241,0.225
		C633.908,960.443,622.37,959.542,608.688,958.865z"/>
	<path fill-rule="evenodd" clip-rule="evenodd" fill="#3B52A2" d="M515.814,142.814c-79.097,79.155-151.429,151.543-223.744,224.008
		C224.474,434.477,157.103,502.43,89.224,569.857c-20.972,20.823-45.478,22.552-62.768,6.314
		c-18.229-17.139-16.837-41.494,5.77-64.194C173.415,370.581,314.66,229.259,456.506,88.542
		c34.315-34.053,77.802-33.152,111.892,0.825c139.196,138.689,278.111,277.605,416.913,416.671
		c28.452,28.489,31.985,50.364,12.742,69.156c-20.221,19.694-42.697,15.637-71.487-13.23
		c-129.369-129.443-258.718-258.96-387.823-388.705C530.549,165.065,524.554,154.616,515.814,142.814z"/>
</g>
</svg>
