<?xml version="1.0" encoding="utf-8"?>
<!-- Generator: Adobe Illustrator 16.0.0, SVG Export Plug-In . SVG Version: 6.00 Build 0)  -->
<!DOCTYPE svg PUBLIC "-//W3C//DTD SVG 1.1//EN" "http://www.w3.org/Graphics/SVG/1.1/DTD/svg11.dtd">
<svg version="1.1" id="圖層_1" xmlns="http://www.w3.org/2000/svg" xmlns:xlink="http://www.w3.org/1999/xlink" x="0px" y="0px"
	 width="2902.68px" height="2902.68px" viewBox="0 0 2902.68 2902.68" enable-background="new 0 0 2902.68 2902.68"
	 xml:space="preserve">
<g>
	<path fill="#09589B" d="M346.582,1058.418h153.393v675.834H346.582V1058.418z"/>
	<path fill="#09589B" d="M814.113,1268.44v63.211h2.488c34.428-52.282,76.434-78.396,126.051-78.396
		c32.465,0,58.208,10.828,77.275,32.391c19.049,21.563,28.582,50.765,28.582,87.613v360.992H901.146V1447.15
		c0-15.858-3.682-28.885-11.099-38.992c-7.45-10.182-17.032-15.184-28.905-15.184c-31.318,0-47.029,19.715-47.029,59.205v282.072
		H667.248V1268.44H814.113z"/>
	<path fill="#09589B" d="M1367.902,1268.44v59.206h2.541c32.735-48.277,69.731-72.32,110.861-72.32
		c44.236,0,79.77,22.5,106.605,67.539c26.814,45.014,40.259,105.736,40.259,182.014c0,73.595-13.795,132.949-41.277,178.238
		c-27.462,45.182-62.767,67.836-105.587,67.836c-45.189,0-82.186-26.039-110.861-77.996h-2.541v253.092h-146.812V1268.44H1367.902z
		 M1481.305,1499.775c0-76.602-19.393-114.92-58.209-114.92c-36.793,0-55.193,38.689-55.193,115.972
		c0,79.615,18.4,119.45,55.193,119.45C1461.912,1620.277,1481.305,1580.119,1481.305,1499.775z"/>
	<path fill="#09589B" d="M1758.495,1268.44h147.29v299.704c0,15.508,3.682,28.453,10.956,38.735
		c7.241,10.282,17.079,15.46,29.626,15.46c28.306,0,42.445-20.76,42.445-62.26v-291.64h147.384v269.827
		c0,68.564-16.054,120.968-48.121,157.195c-32.095,36.274-78.328,54.445-138.7,54.445c-67.566,0-116.24-18.596-146.063-55.666
		c-29.903-37.171-44.817-83.499-44.817-139.219V1268.44z"/>
	<path fill="#09589B" d="M2351.599,1144.412h147.263v124.028h57.237v122.518h-58.208v343.294h-146.292v-344.291h-55.713V1268.44
		h55.713V1144.412z"/>
</g>
</svg>
