<?xml version="1.0" encoding="utf-8"?>
<!-- Generator: Adobe Illustrator 16.0.0, SVG Export Plug-In . SVG Version: 6.00 Build 0)  -->
<!DOCTYPE svg PUBLIC "-//W3C//DTD SVG 1.1//EN" "http://www.w3.org/Graphics/SVG/1.1/DTD/svg11.dtd">
<svg version="1.1" id="圖層_1" xmlns="http://www.w3.org/2000/svg" xmlns:xlink="http://www.w3.org/1999/xlink" x="0px" y="0px"
	 width="1280px" height="1280px" viewBox="0 0 1280 1280" enable-background="new 0 0 1280 1280" xml:space="preserve">
<g>
	<g>
		<g>
			<path fill="#09589B" d="M306.268,658.984h-0.337v10.027h-26.627V541.267h26.627v54.435h0.337
				c6.573-10.055,15.926-15.083,28.06-15.083c11.123,0,19.689,3.821,25.701,11.459c6.01,7.641,9.016,18.089,9.016,31.346
				c0,14.382-3.512,25.926-10.533,34.633c-7.022,8.708-16.403,13.061-28.144,13.061C319.75,671.118,311.716,667.073,306.268,658.984
				z M305.509,622.582v8.847c0,5.562,1.602,10.168,4.804,13.821s7.302,5.477,12.302,5.477c6.068,0,10.771-2.346,14.115-7.036
				c3.342-4.691,5.014-11.333,5.014-19.929c0-7.134-1.531-12.709-4.593-16.727c-3.063-4.016-7.43-6.025-13.103-6.025
				c-5.338,0-9.762,1.995-13.271,5.983C307.265,610.982,305.509,616.178,305.509,622.582z"/>
		</g>
	</g>
	<g>
		<g>
			<path fill="#09589B" d="M1015.203,601.558h-56.289c0.898,12.528,8.791,18.791,23.678,18.791c9.494,0,17.836-2.246,25.027-6.741
				v19.212c-7.979,4.271-18.342,6.404-31.094,6.404c-13.933,0-24.746-3.861-32.441-11.586c-7.697-7.724-11.545-18.496-11.545-32.315
				c0-14.325,4.157-25.671,12.472-34.042c8.313-8.37,18.538-12.555,30.672-12.555c12.583,0,22.315,3.736,29.198,11.207
				c6.88,7.472,10.322,17.611,10.322,30.419V601.558z M990.514,585.211c0-12.357-5.001-18.538-15-18.538
				c-4.27,0-7.963,1.77-11.08,5.309s-5.014,7.95-5.688,13.229H990.514z"/>
		</g>
	</g>
	<path fill-rule="evenodd" clip-rule="evenodd" fill="none" stroke="#09589B" stroke-width="18" stroke-miterlimit="10" d="
		M493.518,290.062c0.414-22.319-1.035-44.535-8.734-65.618c-25.004-68.47-73.959-107.437-146.357-115.962
		c-79.299-9.337-158.863,46.1-178.895,123.126c-7.27,27.957-6.274,56.236-6.313,84.561c-0.021,16.48,9.843,27.626,24.116,27.867
		c15.364,0.263,25.598-10.67,25.857-27.93c0.178-11.799,0.14-23.604,0.021-35.405c-0.206-20.887,4.491-40.495,13.899-59.205
		c4.624-9.194,11.061-13.159,21.325-12.981c23.034,0.398,46.085-0.109,69.118,0.275c6.3,0.104,9.166-1.735,9.944-8.044
		c1.026-8.336,2.851-16.569,4.156-24.876c2.073-13.178,10.054-18.889,23.147-16.391c56.805,10.84,97.117,58.257,98.535,116.148
		c0.352,14.322-0.256,28.673,0.271,42.986c0.572,15.516,11.245,25.65,25.746,25.425c13.719-0.212,23.732-10.917,24.129-26.162
		C493.729,308.61,493.531,299.332,493.518,290.062z"/>
	<path fill-rule="evenodd" clip-rule="evenodd" fill="none" stroke="#09589B" stroke-width="18" stroke-miterlimit="10" d="
		M353.279,196.671c-2.835,10.118-5.283,19.565-8.138,28.888c-4.011,13.103-8.712,16.471-22.694,16.529
		c-19.676,0.08-39.351,0.022-59.027,0.022c-21.932,0.001-22.664,0.633-25.791,22.715c-0.314,2.221-0.482,4.479-0.51,6.723
		c-0.172,14.331-0.315,28.662-0.409,42.994c-0.081,12.252-1.616,24.262-8.636,34.611c-3.256,4.803-2.259,7.631,1.306,11.462
		c32.461,34.892,72.172,48.385,118.933,39.714c30.129-5.588,54.492-21.215,73.842-45.64c-11.004-14.261-12.601-30.574-12.217-47.421
		c0.199-8.709,0.98-17.556-0.189-26.111c-1.803-13.205-3.177-26.972-8.1-39.138C392.783,220.105,376.068,205.09,353.279,196.671z"/>
	<path fill="none" stroke="#09589B" stroke-width="18" stroke-miterlimit="10" d="M394.705,419.331
		c-57.491,13.013-80.683,8.566-138.115,3c-7.687,5.17-14.957,9.445-21.544,14.591c-42.13,32.907-61.526,76.738-61.59,129.664
		c-0.05,41.593,0.237,83.188-0.174,124.776c-0.11,11.086,3.903,18.211,13.243,24.179c47.088,30.092,93.854,60.686,140.736,91.097"/>
	<path fill-rule="evenodd" clip-rule="evenodd" fill="none" stroke="#09589B" stroke-width="18" stroke-miterlimit="10" d="
		M853.063,421.74c-0.383-5.303,2.616-12.511,6.565-16.152c11.885-10.961,30.992-19.595,43.441-29.597c0,0,40.588,6.81,138.393-0.537
		c2.795,1.747,5.041,3.219,7.348,4.584c43.112,25.531,67.926,63.529,76.07,112.577c1.555,9.367,1.687,19.044,1.713,28.58
		c0.149,56.498-0.094,112.997,0.215,169.494c0.061,11.227-3.619,18.737-13.379,24.967c-49.952,31.889-99.514,64.39-149.233,96.642
		c-2.818,1.829-5.685,3.735-8.787,4.936"/>
	<path fill-rule="evenodd" clip-rule="evenodd" fill="none" stroke="#09589B" stroke-width="18" stroke-miterlimit="10" d="
		M855.771,283.327c26.472,55.949,83.099,84.639,141.254,72.252c47.882-10.199,94.27-57.358,94.826-96.761
		c-31.907,0.196-53.63-14.859-65.275-45.093c-40.423,18.098-82.429,23.81-126.155,18.987
		C895.006,258.153,880.139,274.684,855.771,283.327z"/>
	<path fill-rule="evenodd" clip-rule="evenodd" fill="none" stroke="#09589B" stroke-width="18" stroke-miterlimit="10" d="
		M833.764,254.142c8.656-3.205,16.22-4.646,22.201-8.525c9.868-6.398,11.712-16.976,11.563-28.237
		c-0.207-15.782,7.06-22.108,22.503-20.451c2.789,0.298,5.563,0.759,8.333,1.205c25.516,4.108,50.88,3.542,76.152-2.058
		c20.193-4.477,38.892-12.438,56.817-22.669c13.805-7.879,26.254-0.379,26.668,15.467c0.089,3.369-0.129,6.77,0.252,10.104
		c2.552,22.347,27.896,33.756,45.704,20.708c3.551-2.601,5.316-5.142,3.309-9.825c-3.304-7.713-5.515-15.905-8.985-23.533
		c-23.983-52.706-85.536-85.626-142.678-77.612c-46.863,6.573-81.12,31.228-104.712,71.149
		C838.122,201.47,832.646,225.418,833.764,254.142z"/>
	<g>
		<g>
			<path fill="#09589B" d="M587.276,1058.921h-0.293v8.716h-23.145V956.602h23.145v47.314h0.293
				c5.713-8.74,13.843-13.11,24.39-13.11c9.668,0,17.113,3.321,22.339,9.961c5.225,6.641,7.837,15.723,7.837,27.246
				c0,12.5-3.052,22.534-9.155,30.103c-6.104,7.569-14.258,11.353-24.463,11.353
				C598.995,1069.468,592.012,1065.952,587.276,1058.921z M586.617,1027.28v7.69c0,4.834,1.392,8.838,4.175,12.012
				c2.783,3.175,6.347,4.761,10.693,4.761c5.273,0,9.362-2.038,12.268-6.116c2.904-4.076,4.358-9.851,4.358-17.321
				c0-6.2-1.331-11.047-3.991-14.538c-2.662-3.491-6.459-5.237-11.39-5.237c-4.64,0-8.485,1.733-11.536,5.2
				C588.143,1017.198,586.617,1021.714,586.617,1027.28z"/>
			<path fill="#09589B" d="M727.239,1036.729h-48.926c0.78,10.889,7.642,16.333,20.581,16.333c8.251,0,15.502-1.952,21.753-5.859
				v16.699c-6.934,3.711-15.942,5.566-27.026,5.566c-12.11,0-21.509-3.356-28.198-10.071c-6.69-6.713-10.034-16.076-10.034-28.088
				c0-12.451,3.613-22.313,10.84-29.59c7.226-7.275,16.113-10.913,26.66-10.913c10.938,0,19.396,3.248,25.379,9.741
				c5.98,6.494,8.972,15.308,8.972,26.44V1036.729z M705.779,1022.52c0-10.741-4.347-16.113-13.037-16.113
				c-3.711,0-6.922,1.538-9.631,4.614c-2.711,3.076-4.358,6.91-4.944,11.499H705.779z"/>
		</g>
	</g>
	<g>
		<g>
			<path fill="#09589B" d="M633.17,414.663h-51.472v-24.381h51.743v-56.89h25.193v56.89h51.743v24.381h-52.014v57.703H633.17
				V414.663z"/>
		</g>
	</g>
	<path fill-rule="evenodd" clip-rule="evenodd" fill="none" stroke="#09589B" stroke-width="18" stroke-miterlimit="10" d="
		M561.276,878.525c-34.702,23.679-58.532,55.52-64.349,96.837c-4.543,32.27-2.877,65.44-3.321,98.218
		c-0.041,3.162,3.862,7.398,7.028,9.435c45.888,29.533,91.885,58.896,138.15,87.835c3.309,2.069,10.04,2.322,13.262,0.324
		c46.718-28.952,93.173-58.337,139.442-88.008c3.256-2.091,6.436-7.181,6.485-10.924c0.35-25.711,1.181-51.53-0.643-77.137
		c-3.565-49.994-27.182-88.906-68.678-117.412C689.966,954.252,595.716,946.47,561.276,878.525z"/>
	<path fill-rule="evenodd" clip-rule="evenodd" fill="none" stroke="#09589B" stroke-width="18" stroke-miterlimit="10" d="
		M771.156,628.066c-84.226,25.027-167.969,24.575-251.326,0.105c-19.621,56.513-0.297,117.054,47.605,151.866
		c47.857,34.776,112.697,33.578,160.283-2.966C772.585,742.618,791.028,680.572,771.156,628.066z"/>
	<path fill-rule="evenodd" clip-rule="evenodd" fill="none" stroke="#09589B" stroke-width="18" stroke-miterlimit="10" d="
		M746.461,585.944c-46.983-61.998-150.745-65.258-202.112-0.002C612.032,603.911,678.877,604.107,746.461,585.944z"/>
	<path fill-rule="evenodd" clip-rule="evenodd" fill="none" stroke="#09589B" stroke-width="18" stroke-miterlimit="10" d="
		M603.564,850.408c3.287,20.985,22.927,36.152,45.721,34.596c19.033-1.301,35.679-17.577,36.046-34.596
		C658.329,850.408,631.3,850.408,603.564,850.408z"/>
</g>
</svg>
