<?xml version="1.0" encoding="UTF-8"?>
<!DOCTYPE svg PUBLIC "-//W3C//DTD SVG 1.1//EN" "http://www.w3.org/Graphics/SVG/1.1/DTD/svg11.dtd">
<svg xmlns="http://www.w3.org/2000/svg" version="1.1" width="462px" height="351px" style="shape-rendering:geometricPrecision; text-rendering:geometricPrecision; image-rendering:optimizeQuality; fill-rule:evenodd; clip-rule:evenodd" xmlns:xlink="http://www.w3.org/1999/xlink">
<g><path style="opacity:0.968" fill="#0060a8" d="M 166.5,85.5 C 181.504,85.3334 196.504,85.5001 211.5,86C 235.82,87.4857 248.487,100.319 249.5,124.5C 248.059,147.444 236.059,161.277 213.5,166C 204.506,166.5 195.506,166.666 186.5,166.5C 186.5,181.833 186.5,197.167 186.5,212.5C 179.5,212.5 172.5,212.5 165.5,212.5C 165.173,170.094 165.506,127.761 166.5,85.5 Z M 186.5,103.5 C 194.507,103.334 202.507,103.5 210.5,104C 222.304,106.305 227.971,113.472 227.5,125.5C 227.857,139.31 221.19,147.143 207.5,149C 200.508,149.5 193.508,149.666 186.5,149.5C 186.5,134.167 186.5,118.833 186.5,103.5 Z"/></g>
<g><path style="opacity:0.969" fill="#0060a7" d="M 289.5,85.5 C 297.167,85.5 304.833,85.5 312.5,85.5C 327.763,127.619 343.43,169.619 359.5,211.5C 351.862,212.497 344.196,212.831 336.5,212.5C 333.332,201.831 329.666,191.331 325.5,181C 308.833,180.333 292.167,180.333 275.5,181C 271.937,191.188 268.27,201.355 264.5,211.5C 257.197,212.497 249.863,212.831 242.5,212.5C 257.966,170.101 273.633,127.768 289.5,85.5 Z M 299.5,107.5 C 306.224,125.485 312.891,143.652 319.5,162C 306.82,162.833 294.154,162.666 281.5,161.5C 288.512,143.797 294.512,125.797 299.5,107.5 Z"/></g>
<g><path style="opacity:0.933" fill="#0061a7" d="M 114.5,85.5 C 121.5,85.5 128.5,85.5 135.5,85.5C 135.5,127.833 135.5,170.167 135.5,212.5C 128.5,212.5 121.5,212.5 114.5,212.5C 114.5,170.167 114.5,127.833 114.5,85.5 Z"/></g>
</svg>
