<?xml version="1.0" encoding="UTF-8"?>
<!DOCTYPE svg PUBLIC "-//W3C//DTD SVG 1.1//EN" "http://www.w3.org/Graphics/SVG/1.1/DTD/svg11.dtd">
<svg xmlns="http://www.w3.org/2000/svg" version="1.1" width="358px" height="282px" style="shape-rendering:geometricPrecision; text-rendering:geometricPrecision; image-rendering:optimizeQuality; fill-rule:evenodd; clip-rule:evenodd" xmlns:xlink="http://www.w3.org/1999/xlink">
<g><path style="opacity:1" fill="#0060a8" d="M 81.5,77.5 C 86.8333,77.5 92.1667,77.5 97.5,77.5C 97.5,111.167 97.5,144.833 97.5,178.5C 92.1667,178.5 86.8333,178.5 81.5,178.5C 81.5,144.833 81.5,111.167 81.5,77.5 Z"/></g>
<g><path style="opacity:1" fill="#0063a9" d="M 122.5,77.5 C 136.171,77.3334 149.837,77.5001 163.5,78C 175.81,80.3116 183.644,87.4783 187,99.5C 190.557,120.907 182.057,134.74 161.5,141C 153.841,141.5 146.174,141.666 138.5,141.5C 138.5,153.833 138.5,166.167 138.5,178.5C 133.167,178.5 127.833,178.5 122.5,178.5C 122.5,144.833 122.5,111.167 122.5,77.5 Z M 138.5,90.5 C 147.448,89.8387 156.114,91.0053 164.5,94C 171.524,101.46 173.024,109.96 169,119.5C 165.02,125.075 159.52,127.908 152.5,128C 147.845,128.499 143.179,128.666 138.5,128.5C 138.5,115.833 138.5,103.167 138.5,90.5 Z"/></g>
<g><path style="opacity:1" fill="#0265ab" d="M 231.5,77.5 C 237.833,77.5 244.167,77.5 250.5,77.5C 262.739,111.148 275.406,144.648 288.5,178C 282.5,178.667 276.5,178.667 270.5,178C 267.167,169.667 263.833,161.333 260.5,153C 246.837,152.5 233.171,152.333 219.5,152.5C 216.974,160.91 214.141,169.243 211,177.5C 205.259,178.475 199.425,178.808 193.5,178.5C 206.167,144.833 218.833,111.167 231.5,77.5 Z M 240.5,95.5 C 245.871,109.944 250.871,124.611 255.5,139.5C 245.478,139.832 235.478,139.499 225.5,138.5C 230.706,124.214 235.706,109.88 240.5,95.5 Z"/></g>
</svg>
