<?xml version="1.0" encoding="utf-8"?>
<!-- Generator: Adobe Illustrator 16.0.0, SVG Export Plug-In . SVG Version: 6.00 Build 0)  -->
<!DOCTYPE svg PUBLIC "-//W3C//DTD SVG 1.1//EN" "http://www.w3.org/Graphics/SVG/1.1/DTD/svg11.dtd">
<svg version="1.1" id="圖層_1" xmlns="http://www.w3.org/2000/svg" xmlns:xlink="http://www.w3.org/1999/xlink" x="0px" y="0px"
	 width="1024px" height="1024px" viewBox="0 0 1024 1024" enable-background="new 0 0 1024 1024" xml:space="preserve">
<path opacity="0.8" fill="#FFFFFF" d="M696.788,592.828V301.211H349.69v50.691h278.413v57.789H349.69v188.897H24.249v42.58h300.117
	v57.79H24.249v214.886h982.544V592.828H696.788z M975.227,698.959H591.188v-57.79h384.039V698.959z"/>
<rect x="349.69" y="351.902" fill="#F6B44F" width="278.413" height="57.789"/>
<rect x="591.188" y="641.169" fill="#F6B44F" width="384.039" height="57.79"/>
<rect x="24.249" y="641.169" fill="#F6B44F" width="300.117" height="57.79"/>
<rect x="266.492" y="37.412" fill="none" width="462.818" height="433.921"/>
<text transform="matrix(1 0 0 1 421.9707 280.6274)" fill="#FFFFFF" font-family="'DFHei-Md-HKSCS-U'" font-size="303.7225" letter-spacing="36">1</text>
<rect x="-59.66" y="282.099" fill="none" width="462.818" height="433.881"/>
<text transform="matrix(1 0 0 1 95.8184 525.3135)" fill="#FFFFFF" font-family="'DFHei-Md-HKSCS-U'" font-size="303.7225" letter-spacing="36">2</text>
<rect x="612.886" y="282.099" fill="none" width="462.775" height="433.881"/>
<text transform="matrix(1 0 0 1 768.3428 525.3135)" fill="#FFFFFF" font-family="'DFHei-Md-HKSCS-U'" font-size="303.7225" letter-spacing="36">3</text>
</svg>
