<?xml version="1.0" encoding="utf-8"?>
<!-- Generator: Adobe Illustrator 16.0.0, SVG Export Plug-In . SVG Version: 6.00 Build 0)  -->
<!DOCTYPE svg PUBLIC "-//W3C//DTD SVG 1.1//EN" "http://www.w3.org/Graphics/SVG/1.1/DTD/svg11.dtd">
<svg version="1.1" id="圖層_1" xmlns="http://www.w3.org/2000/svg" xmlns:xlink="http://www.w3.org/1999/xlink" x="0px" y="0px"
	 width="1024px" height="1024px" viewBox="0 0 1024 1024" enable-background="new 0 0 1024 1024" xml:space="preserve">
<g>
	<path fill-rule="evenodd" clip-rule="evenodd" fill="#C9CACA" d="M511.003,842.777c-25.084,8.277-50.042,13.377-72.053,24.332
		c-63.399,31.436-125.104,66.303-188.584,97.406c-14.152,7.023-36.12,10.787-48.369,4.348c-8.174-4.264-9.303-29.766-7.149-44.732
		c10.389-71.822,22.867-143.309,34.887-214.881c8.716-51.922-7.504-95.568-44.022-131.854
		c-46.947-46.74-94.876-92.475-142.348-138.711c-7.356-7.108-14.944-14.131-21.528-21.99
		c-20.653-24.498-13.902-47.157,17.578-52.842c49.478-8.947,99.352-15.469,149.08-22.826c28.574-4.181,57.502-6.438,85.722-12.292
		c50.668-10.367,87.081-40.049,109.74-86.704c28.868-59.532,57.984-118.812,87.06-178.175c3.304-6.69,6.731-13.379,10.515-19.734
		c19.188-32.189,43.08-32.356,60.116,1.004c28.408,55.518,55.205,111.873,83.276,167.557c10.85,21.571,21.259,43.813,35.598,62.876
		c31.501,42.055,78.177,53.426,127.676,59.697c62.79,7.776,125.416,17.225,187.706,28.095c12.917,2.34,31.438,11.872,34.364,21.822
		c3.01,10.451-6.521,28.596-15.887,38.126c-50.418,51.087-102.508,100.501-154.011,150.669
		c-41.012,39.967-57.316,87.037-46.446,144.563c13.294,70.316,24.623,141.051,34.949,211.955
		c1.882,13.127-0.878,35.283-8.905,39.715c-11.037,5.854-31.144,3.01-43.813-3.262c-65.049-32.355-128.488-67.891-193.538-100.248
		C560.646,855.738,535.668,850.805,511.003,842.777z"/>
</g>
</svg>
