<?xml version="1.0" encoding="utf-8"?>
<!-- Generator: Adobe Illustrator 16.0.0, SVG Export Plug-In . SVG Version: 6.00 Build 0)  -->
<!DOCTYPE svg PUBLIC "-//W3C//DTD SVG 1.1//EN" "http://www.w3.org/Graphics/SVG/1.1/DTD/svg11.dtd">
<svg version="1.1" id="圖層_1" xmlns="http://www.w3.org/2000/svg" xmlns:xlink="http://www.w3.org/1999/xlink" x="0px" y="0px"
	 width="1024px" height="1024px" viewBox="0 0 1024 1024" enable-background="new 0 0 1024 1024" xml:space="preserve">
<g>
	<path fill-rule="evenodd" clip-rule="evenodd" fill="#FFFFFF" d="M362.149,338.32c0-56.249-0.621-112.542,0.094-168.742
		C363.41,79.298,427.118,13.9,512.536,14.184c83.561,0.24,147.479,65.447,148.339,153.869c1.095,112.544,1.118,225.13,0.119,337.672
		c-0.859,91.138-64.16,155.345-150.174,154.964c-85.825-0.336-147.886-65.545-148.625-156.729
		C361.768,448.81,362.101,393.565,362.149,338.32z"/>
	<path fill-rule="evenodd" clip-rule="evenodd" fill="#FFFFFF" d="M469.397,926.762c0-36.035,1.144-68.781-0.976-101.338
		c-0.43-6.625-12.18-16.064-20.308-18.209C296.13,766.887,210.282,656.301,209.806,498.719
		c-0.097-39.374,0.262-78.748,0.095-118.071c-0.12-26.647,13.133-42.567,38.918-45.714c23.096-2.857,42.518,16.779,43.33,44.952
		c1.263,46.762-0.928,93.615,0.859,140.33c4.124,107.201,87.157,198.244,188.498,208.59
		c117.783,12.059,220.315-55.77,242.86-167.928c9.676-48.243,5.434-99.435,6.243-149.295c0.856-55.1,11.152-75.931,40.897-77.075
		c30.461-1.144,42.616,20.398,41.946,78.031c-0.617,51.002,4.386,103.341-5.241,152.675
		c-25.266,128.746-104.938,209.732-233.137,241.57c-7.151,1.721-13.944,4.627-21.403,7.152c0,36.656,0,72.549,0,112.875
		c28.506,0,55.675-0.383,82.892,0.049c32.031,0.475,48.931,15.252,48.762,41.752c-0.164,26.457-16.921,40.854-49.476,40.998
		c-82.963,0.283-165.903,0.283-248.843-0.051c-32.271-0.143-49.098-14.965-48.979-41.469c0.143-26.455,17.018-40.805,49.29-41.279
		C413.652,926.428,439.987,926.762,469.397,926.762z"/>
</g>
</svg>
