<?xml version="1.0" encoding="utf-8"?>
<!-- Generator: Adobe Illustrator 16.0.0, SVG Export Plug-In . SVG Version: 6.00 Build 0)  -->
<!DOCTYPE svg PUBLIC "-//W3C//DTD SVG 1.1//EN" "http://www.w3.org/Graphics/SVG/1.1/DTD/svg11.dtd">
<svg version="1.1" id="圖層_1" xmlns="http://www.w3.org/2000/svg" xmlns:xlink="http://www.w3.org/1999/xlink" x="0px" y="0px"
	 width="1024px" height="1024px" viewBox="0 0 1024 1024" enable-background="new 0 0 1024 1024" xml:space="preserve">
<path fill="#B5CAE9" d="M847.121,510.865c0,227.32-184.242,411.563-411.561,411.563c-227.311,0-411.573-184.242-411.573-411.563
	c0-227.32,184.262-411.563,411.573-411.563C662.879,99.303,847.121,283.545,847.121,510.865z"/>
<g>
	<path fill="#FFFFFF" d="M232.233,371.82h123.658c-30.351,22.372-52.994,47.692-67.025,75.552
		c-25.375,49.19-38.068,103.868-38.068,165.406c0,52.726,9.522,97.965,29.45,135.179c24.448,45.28,49.376,79.543,75.643,102.871
		H232.233V371.82z"/>
	<path fill="#FFFFFF" d="M664.73,474.483c0,13.93-3.93,24.448-11.788,31.599c-7.839,7.111-18.419,10.646-31.726,10.646
		c-13.285,0-23.879-3.535-31.705-10.646c-7.869-7.151-11.788-17.669-11.788-31.599c0-13.89,3.919-24.408,11.788-31.559
		c7.826-7.153,18.42-10.687,31.705-10.687c13.307,0,23.887,3.534,31.726,10.687C660.801,450.075,664.73,460.594,664.73,474.483z
		 M659.303,559.014v242.124h-75.695V559.014H659.303z"/>
	<path fill="#FFFFFF" d="M877.247,850.827c26.279-23.328,49.834-54.639,71.582-94.389c22.202-41.289,33.055-89.481,33.055-143.661
		c0-117.713-46.196-203.7-104.637-240.958h122.766v479.007H877.247z"/>
</g>
</svg>
