<?xml version="1.0" encoding="utf-8"?>
<!-- Generator: Adobe Illustrator 16.0.0, SVG Export Plug-In . SVG Version: 6.00 Build 0)  -->
<!DOCTYPE svg PUBLIC "-//W3C//DTD SVG 1.1//EN" "http://www.w3.org/Graphics/SVG/1.1/DTD/svg11.dtd">
<svg version="1.1" id="圖層_1" xmlns="http://www.w3.org/2000/svg" xmlns:xlink="http://www.w3.org/1999/xlink" x="0px" y="0px"
	 width="1280px" height="1280px" viewBox="0 0 1280 1280" enable-background="new 0 0 1280 1280" xml:space="preserve">
<g>
	<g>
		<path fill="none" stroke="#09589B" stroke-width="18" stroke-linecap="round" stroke-linejoin="round" stroke-miterlimit="10" d="
			M611.104,803.176l80.638-31.779c12.866-21.162,22.737-44.346,29.033-68.959l-140.25,55.271
			C589.092,773.981,599.362,789.216,611.104,803.176z"/>
		<path fill="none" stroke="#09589B" stroke-width="18" stroke-linecap="round" stroke-linejoin="round" stroke-miterlimit="10" d="
			M580.525,757.708l140.25-55.271c4.966-19.417,7.689-39.728,7.915-60.638l-167.969,66.194
			C565.594,725.39,572.271,742.027,580.525,757.708z"/>
		<path fill="none" stroke="#09589B" stroke-width="18" stroke-linecap="round" stroke-linejoin="round" stroke-miterlimit="10" d="
			M560.721,707.994L728.689,641.8c0.01-0.934,0.035-1.864,0.035-2.8c0-18.029-1.881-35.618-5.437-52.591l-171.561,67.611
			C552.807,672.615,555.87,690.678,560.721,707.994z"/>
		<path fill="none" stroke="#09589B" stroke-width="18" stroke-linecap="round" stroke-linejoin="round" stroke-miterlimit="10" d="
			M555.034,595.199l151.767-59.811c-7.394-16.623-16.513-32.304-27.128-46.827l-103.74,40.883
			C566.149,549.998,559.036,572.064,555.034,595.199z"/>
		<path fill="none" stroke="#09589B" stroke-width="18" stroke-linecap="round" stroke-linejoin="round" stroke-miterlimit="10" d="
			M691.741,771.396l-80.638,31.779c8.837,10.506,18.497,20.296,28.896,29.255C660.271,814.966,677.771,794.374,691.741,771.396z"/>
		<path fill="none" stroke="#09589B" stroke-width="18" stroke-linecap="round" stroke-linejoin="round" stroke-miterlimit="10" d="
			M551.276,639c0,5.044,0.163,10.049,0.452,15.021l171.561-67.611c-3.72-17.756-9.286-34.832-16.487-51.021l-151.767,59.811
			C552.572,609.432,551.276,624.064,551.276,639z"/>
		<path fill="none" stroke="#09589B" stroke-width="18" stroke-linecap="round" stroke-linejoin="round" stroke-miterlimit="10" d="
			M575.933,529.445l103.74-40.883c-11.552-15.805-24.867-30.237-39.673-42.992C613.222,468.639,591.293,497.176,575.933,529.445z"/>
	</g>
	<g>
		
			<circle fill="none" stroke="#09589B" stroke-width="18" stroke-linecap="round" stroke-linejoin="round" stroke-miterlimit="10" cx="473.5" cy="640" r="255.224"/>
		
			<circle fill="none" stroke="#09589B" stroke-width="18" stroke-linecap="round" stroke-linejoin="round" stroke-miterlimit="10" cx="806.5" cy="640" r="255.224"/>
	</g>
</g>
</svg>
