<?xml version="1.0" encoding="UTF-8"?>
<!DOCTYPE svg PUBLIC "-//W3C//DTD SVG 1.1//EN" "http://www.w3.org/Graphics/SVG/1.1/DTD/svg11.dtd">
<svg xmlns="http://www.w3.org/2000/svg" version="1.1" width="2388px" height="1313px" style="shape-rendering:geometricPrecision; text-rendering:geometricPrecision; image-rendering:optimizeQuality; fill-rule:evenodd; clip-rule:evenodd" xmlns:xlink="http://www.w3.org/1999/xlink">
<g><path style="opacity:0.992" fill="#0060a7" d="M 1870.5,348.5 C 1901.5,348.5 1932.5,348.5 1963.5,348.5C 1963.5,514.833 1963.5,681.167 1963.5,847.5C 1938.17,847.5 1912.83,847.5 1887.5,847.5C 1885.46,835.354 1882.8,823.354 1879.5,811.5C 1857.32,834.094 1830.65,848.594 1799.5,855C 1731.06,861.515 1683.23,833.348 1656,770.5C 1639.36,726.511 1634.36,681.178 1641,634.5C 1647.9,583.835 1671.4,543.002 1711.5,512C 1744.03,489.605 1779.53,483.105 1818,492.5C 1839.17,498.913 1857.5,509.913 1873,525.5C 1872.87,511.492 1872.2,497.492 1871,483.5C 1870.5,438.501 1870.33,393.501 1870.5,348.5 Z M 1800.5,564.5 C 1827.16,564.09 1850.33,572.756 1870,590.5C 1870.67,641.833 1870.67,693.167 1870,744.5C 1851.75,769.375 1827.25,780.875 1796.5,779C 1770.96,775.316 1753.46,761.482 1744,737.5C 1729.05,693.081 1730.05,649.081 1747,605.5C 1757.52,582.021 1775.35,568.354 1800.5,564.5 Z"/></g>
<g><path style="opacity:0.993" fill="#0060a7" d="M 385.5,384.5 C 417.407,384.171 449.24,384.504 481,385.5C 501.853,509.305 521.353,633.305 539.5,757.5C 540.192,756.975 540.692,756.308 541,755.5C 551,706.167 561,656.833 571,607.5C 588.978,533.256 606.478,458.923 623.5,384.5C 650.408,384.172 677.241,384.505 704,385.5C 721.509,459.87 739.176,534.203 757,608.5C 766.728,658.307 776.894,707.974 787.5,757.5C 788.086,757.291 788.586,756.957 789,756.5C 806.21,632.242 825.043,508.242 845.5,384.5C 875.167,384.5 904.833,384.5 934.5,384.5C 905.843,538.774 877.51,693.108 849.5,847.5C 810.594,847.83 771.761,847.496 733,846.5C 716,771.5 699,696.5 682,621.5C 674.635,585.176 667.468,548.842 660.5,512.5C 653.671,547.47 646.838,582.47 640,617.5C 622.847,694.112 606.013,770.779 589.5,847.5C 551.167,847.5 512.833,847.5 474.5,847.5C 444.962,693.144 415.295,538.811 385.5,384.5 Z"/></g>
<g><path style="opacity:0.992" fill="#0060a7" d="M 1124.5,488.5 C 1198.99,484.316 1254.15,514.649 1290,579.5C 1310.91,626.11 1315.91,674.444 1305,724.5C 1288.9,788.6 1249.4,830.766 1186.5,851C 1114.54,867.459 1055.37,847.292 1009,790.5C 980.614,749.277 968.947,703.61 974,653.5C 978.685,588.578 1008.85,539.745 1064.5,507C 1083.47,497.096 1103.47,490.93 1124.5,488.5 Z M 1130.5,564.5 C 1165.99,561.322 1190.82,575.989 1205,608.5C 1214.9,637.762 1217.9,667.762 1214,698.5C 1211.89,719.158 1205.23,738.158 1194,755.5C 1178.48,774.792 1158.31,782.959 1133.5,780C 1104.09,774.933 1084.93,758.1 1076,729.5C 1068.49,701.589 1066.49,673.256 1070,644.5C 1072.17,624.973 1078.51,606.973 1089,590.5C 1099.4,576.245 1113.24,567.578 1130.5,564.5 Z"/></g>
<g><path style="opacity:0.991" fill="#0061a7" d="M 1558.5,488.5 C 1576.72,487.008 1594.38,489.341 1611.5,495.5C 1606.72,522.711 1601.06,549.711 1594.5,576.5C 1548.26,561.185 1513.09,574.518 1489,616.5C 1486,622.5 1483,628.5 1480,634.5C 1478.68,705.443 1478.01,776.443 1478,847.5C 1447.57,848.496 1417.07,848.829 1386.5,848.5C 1386.5,731.5 1386.5,614.5 1386.5,497.5C 1411.83,497.5 1437.17,497.5 1462.5,497.5C 1463.98,517.974 1466.31,538.308 1469.5,558.5C 1479.71,541.113 1492.37,525.613 1507.5,512C 1522.56,499.82 1539.56,491.987 1558.5,488.5 Z"/></g>
</svg>
