<?xml version="1.0" encoding="utf-8"?>
<!-- Generator: Adobe Illustrator 16.0.0, SVG Export Plug-In . SVG Version: 6.00 Build 0)  -->
<!DOCTYPE svg PUBLIC "-//W3C//DTD SVG 1.1//EN" "http://www.w3.org/Graphics/SVG/1.1/DTD/svg11.dtd">
<svg version="1.1" id="圖層_1" xmlns="http://www.w3.org/2000/svg" xmlns:xlink="http://www.w3.org/1999/xlink" x="0px" y="0px"
	 width="2902.68px" height="2902.68px" viewBox="0 0 2902.68 2902.68" enable-background="new 0 0 2902.68 2902.68"
	 xml:space="preserve">
<g>
	<path fill="#09589B" d="M657.166,930.903h372.077c-91.32,46.207-159.46,98.69-201.634,156.346
		c-76.406,101.677-114.623,214.809-114.623,342.175c0,109.094,28.629,202.605,88.576,279.584
		c73.595,93.66,148.605,164.518,227.681,212.861H657.166V930.903z"/>
	<path fill="#09589B" d="M1551.861,1143.266c0,28.878-8.118,50.589-24.348,65.382c-16.283,14.732-38.115,22.008-65.625,22.008
		c-27.536,0-49.449-7.275-65.678-22.008c-16.209-14.793-24.327-36.504-24.327-65.382c0-28.676,8.118-50.488,24.327-65.274
		c16.229-14.739,38.142-22.108,65.678-22.108c27.51,0,49.342,7.369,65.625,22.108
		C1543.743,1092.777,1551.861,1114.59,1551.861,1143.266z M1540.635,1318.187v500.813h-156.621v-500.813H1540.635z"/>
	<path fill="#09589B" d="M1875.487,1921.869c79.144-48.344,150.149-113.024,215.673-195.337
		c66.945-85.394,99.641-185.075,99.641-297.108c0-243.586-139.172-421.439-315.313-498.521h370.028v990.966H1875.487z"/>
</g>
</svg>
