<?xml version="1.0" encoding="UTF-8"?>
<!DOCTYPE svg PUBLIC "-//W3C//DTD SVG 1.1//EN" "http://www.w3.org/Graphics/SVG/1.1/DTD/svg11.dtd">
<svg xmlns="http://www.w3.org/2000/svg" version="1.1" width="1080px" height="391px" style="shape-rendering:geometricPrecision; text-rendering:geometricPrecision; image-rendering:optimizeQuality; fill-rule:evenodd; clip-rule:evenodd" xmlns:xlink="http://www.w3.org/1999/xlink">
<g><path style="opacity:1" fill="#fcf8f2" d="M -0.5,-0.5 C 359.5,-0.5 719.5,-0.5 1079.5,-0.5C 1079.5,129.833 1079.5,260.167 1079.5,390.5C 719.5,390.5 359.5,390.5 -0.5,390.5C -0.5,260.167 -0.5,129.833 -0.5,-0.5 Z"/></g>
<g><path style="opacity:1" fill="#fff6eb" d="M 967.5,24.5 C 682.167,24.5 396.833,24.5 111.5,24.5C 112.609,23.71 113.942,23.21 115.5,23C 398.5,22.3333 681.5,22.3333 964.5,23C 966.506,23.0826 967.506,23.5826 967.5,24.5 Z"/></g>
<g><path style="opacity:1" fill="#f1fbfe" d="M 111.5,25.5 C 111.5,25.1667 111.5,24.8333 111.5,24.5C 396.833,24.5 682.167,24.5 967.5,24.5C 969.5,25.5 971.5,26.5 973.5,27.5C 971.073,27.477 968.74,26.977 966.5,26C 681.5,25.5 396.5,25.3333 111.5,25.5 Z"/></g>
<g><path style="opacity:1" fill="#5082ab" d="M 110.5,26.5 C 110.5,25.8333 110.833,25.5 111.5,25.5C 396.5,25.3333 681.5,25.5 966.5,26C 968.74,26.977 971.073,27.477 973.5,27.5C 973.5,27.8333 973.5,28.1667 973.5,28.5C 969.709,28.3413 966.042,27.6746 962.5,26.5C 681.167,26.5 399.833,26.5 118.5,26.5C 115.833,26.5 113.167,26.5 110.5,26.5 Z"/></g>
<g><path style="opacity:1" fill="#105795" d="M 110.5,26.5 C 113.167,26.5 115.833,26.5 118.5,26.5C 118.389,27.1174 118.056,27.6174 117.5,28C 258.333,28.1667 399.167,28.3333 540,28.5C 681.168,28.5 822.002,27.8333 962.5,26.5C 966.042,27.6746 969.709,28.3413 973.5,28.5C 991.761,34.2675 1002.93,46.6008 1007,65.5C 1007.67,155.167 1007.67,244.833 1007,334.5C 1002.4,351.929 991.898,364.263 975.5,371.5C 972.126,371.674 968.793,372.174 965.5,373C 680.167,373.5 394.834,373.667 109.5,373.5C 92.3512,368.352 80.6845,357.352 74.5,340.5C 75.8333,293.838 76.4999,246.838 76.5,199.5C 76.3333,152.5 76.1667,105.5 76,58.5C 75.2514,61.5026 74.0848,64.1693 72.5,66.5C 72.5172,64.4352 72.8505,62.4352 73.5,60.5C 79.4507,42.2158 91.784,30.8825 110.5,26.5 Z"/></g>
<g><path style="opacity:1" fill="#05579c" d="M 118.5,26.5 C 399.833,26.5 681.167,26.5 962.5,26.5C 822.002,27.8333 681.168,28.5 540,28.5C 399.167,28.3333 258.333,28.1667 117.5,28C 118.056,27.6174 118.389,27.1174 118.5,26.5 Z"/></g>
<g><path style="opacity:1" fill="#c0c9d0" d="M 111.5,32.5 C 254,31.8333 396.666,31.5 539.5,31.5C 682.167,31.6667 824.833,31.8333 967.5,32C 968.416,32.2784 969.082,32.7784 969.5,33.5C 683.521,32.5031 397.521,32.1698 111.5,32.5 Z"/></g>
<g><path style="opacity:1" fill="#f6f9fa" d="M 111.5,32.5 C 397.521,32.1698 683.521,32.5031 969.5,33.5C 970.791,33.2627 971.791,33.596 972.5,34.5C 686.843,33.3404 401.176,33.1738 115.5,34C 110.368,34.2902 105.368,35.1236 100.5,36.5C 103.66,34 107.327,32.6667 111.5,32.5 Z"/></g>
<g><path style="opacity:1" fill="#fcf7f1" d="M 972.5,34.5 C 979.773,36.2232 985.94,39.8898 991,45.5C 992.421,47.4048 993.588,49.4048 994.5,51.5C 994.328,53.4918 994.995,55.1585 996.5,56.5C 995.975,57.1924 995.308,57.6924 994.5,58C 998.498,61.1377 1000.5,65.3044 1000.5,70.5C 999.167,113.495 998.5,156.828 998.5,200.5C 998.5,244.172 999.167,287.505 1000.5,330.5C 1000.5,331.5 1000.5,332.5 1000.5,333.5C 1000.5,334.167 1000.5,334.833 1000.5,335.5C 1000.5,336.167 1000.5,336.833 1000.5,337.5C 994.187,354.804 981.854,364.804 963.5,367.5C 678.479,367.83 393.479,367.497 108.5,366.5C 91.4926,360.981 81.3259,349.315 78,331.5C 77.3333,242.833 77.3333,154.167 78,65.5C 81.2135,52.3601 88.7135,42.6934 100.5,36.5C 105.368,35.1236 110.368,34.2902 115.5,34C 401.176,33.1738 686.843,33.3404 972.5,34.5 Z"/></g>
<g><path style="opacity:1" fill="#fdcace" d="M 794.5,55.5 C 797.797,60.3801 801.797,64.7135 806.5,68.5C 807.583,67.635 807.749,66.635 807,65.5C 803.601,62.2711 800.435,58.9378 797.5,55.5C 800.5,55.5 803.5,55.5 806.5,55.5C 807.734,58.4073 809.734,60.7407 812.5,62.5C 812.833,62.1667 813.167,61.8333 813.5,61.5C 811.722,59.736 810.389,57.736 809.5,55.5C 824.848,55.1673 840.181,55.5006 855.5,56.5C 895.623,97.1126 935.956,137.446 976.5,177.5C 977.5,203.491 977.833,229.491 977.5,255.5C 963.829,257.486 951.829,253.986 941.5,245C 887.306,190.806 833.14,136.64 779,82.5C 776.34,77.2019 773.673,71.8685 771,66.5C 770.501,62.8484 770.335,59.1817 770.5,55.5C 778.5,55.5 786.5,55.5 794.5,55.5 Z"/></g>
<g><path style="opacity:1" fill="#e35950" d="M 806.5,55.5 C 807.5,55.5 808.5,55.5 809.5,55.5C 810.389,57.736 811.722,59.736 813.5,61.5C 813.167,61.8333 812.833,62.1667 812.5,62.5C 809.734,60.7407 807.734,58.4073 806.5,55.5 Z"/></g>
<g><path style="opacity:1" fill="#e85c52" d="M 794.5,55.5 C 795.5,55.5 796.5,55.5 797.5,55.5C 800.435,58.9378 803.601,62.2711 807,65.5C 807.749,66.635 807.583,67.635 806.5,68.5C 801.797,64.7135 797.797,60.3801 794.5,55.5 Z"/></g>
<g><path style="opacity:1" fill="#0058a4" d="M 1000.5,337.5 C 1000.5,336.833 1000.5,336.167 1000.5,335.5C 1002.5,245.173 1003.16,154.506 1002.5,63.5C 1003.22,63.0825 1003.72,62.4158 1004,61.5C 1004.83,154.168 1004.67,246.835 1003.5,339.5C 1002.7,341.078 1002.2,342.744 1002,344.5C 1001.02,342.26 1000.52,339.927 1000.5,337.5 Z"/></g>
<g><path style="opacity:1" fill="#e95d54" d="M 819.5,65.5 C 822.394,66.8823 824.894,68.8823 827,71.5C 827.749,72.635 827.583,73.635 826.5,74.5C 823.479,72.1456 820.812,69.4789 818.5,66.5C 818.5,65.8333 818.833,65.5 819.5,65.5 Z"/></g>
<g><path style="opacity:1" fill="#175385" d="M 1000.5,63.5 C 1001.17,63.5 1001.83,63.5 1002.5,63.5C 1003.16,154.506 1002.5,245.173 1000.5,335.5C 1000.5,334.833 1000.5,334.167 1000.5,333.5C 1001.83,243.627 1001.83,153.627 1000.5,63.5 Z"/></g>
<g><path style="opacity:1" fill="#fff6e7" d="M 70.5,65.5 C 70.5,154.833 70.5,244.167 70.5,333.5C 69.8333,333.5 69.1667,333.5 68.5,333.5C 68.5,245.167 68.5,156.833 68.5,68.5C 68.427,66.9731 69.0937,65.9731 70.5,65.5 Z"/></g>
<g><path style="opacity:1" fill="#fff6e9" d="M 1000.5,70.5 C 1000.5,157.167 1000.5,243.833 1000.5,330.5C 999.167,287.505 998.5,244.172 998.5,200.5C 998.5,156.828 999.167,113.495 1000.5,70.5 Z"/></g>
<g><path style="opacity:1" fill="#e85a53" d="M 815.5,69.5 C 819.925,71.2163 822.259,74.2163 822.5,78.5C 820.814,77.1431 819.148,75.8098 817.5,74.5C 816.058,73.1805 815.392,71.5138 815.5,69.5 Z"/></g>
<g><path style="opacity:1" fill="#fbc0c2" d="M 822.5,62.5 C 827.461,65.613 830.628,69.9464 832,75.5C 833.855,77.3551 835.688,79.1884 837.5,81C 833.318,87.0057 828.984,92.839 824.5,98.5C 823.5,97.8333 822.5,97.1667 821.5,96.5C 825.193,95.7529 825.193,94.4196 821.5,92.5C 823.833,89.8333 826.167,87.1667 828.5,84.5C 829.5,85.1667 830.5,85.8333 831.5,86.5C 832.072,83.1707 830.572,80.8374 827,79.5C 825.83,83.9126 822.997,87.5793 818.5,90.5C 816.5,89.8333 815.167,88.5 814.5,86.5C 815.686,84.4923 817.02,82.6589 818.5,81C 817.456,79.8261 816.456,78.6594 815.5,77.5C 817.048,77.1788 817.715,76.1788 817.5,74.5C 819.148,75.8098 820.814,77.1431 822.5,78.5C 822.259,74.2163 819.925,71.2163 815.5,69.5C 815.81,67.8564 816.81,66.8564 818.5,66.5C 820.812,69.4789 823.479,72.1456 826.5,74.5C 827.583,73.635 827.749,72.635 827,71.5C 824.894,68.8823 822.394,66.8823 819.5,65.5C 820.694,64.7281 821.694,63.7281 822.5,62.5 Z"/></g>
<g><path style="opacity:1" fill="#ecf8fc" d="M 994.5,51.5 C 997.535,54.9024 999.535,58.9024 1000.5,63.5C 1001.83,153.627 1001.83,243.627 1000.5,333.5C 1000.5,332.5 1000.5,331.5 1000.5,330.5C 1000.5,243.833 1000.5,157.167 1000.5,70.5C 1000.5,65.3044 998.498,61.1377 994.5,58C 995.308,57.6924 995.975,57.1924 996.5,56.5C 994.995,55.1585 994.328,53.4918 994.5,51.5 Z"/></g>
<g><path style="opacity:1" fill="#ecfafe" d="M 73.5,60.5 C 72.8505,62.4352 72.5172,64.4352 72.5,66.5C 71.1807,156.347 71.1807,246.347 72.5,336.5C 71.0937,336.027 70.427,335.027 70.5,333.5C 70.5,244.167 70.5,154.833 70.5,65.5C 71.0652,63.58 72.0652,61.9133 73.5,60.5 Z"/></g>
<g><path style="opacity:1" fill="#09579b" d="M 74.5,340.5 C 73.8333,339.167 73.1667,337.833 72.5,336.5C 71.1807,246.347 71.1807,156.347 72.5,66.5C 74.0848,64.1693 75.2514,61.5026 76,58.5C 76.1667,105.5 76.3333,152.5 76.5,199.5C 76.4999,246.838 75.8333,293.838 74.5,340.5 Z"/></g>
<g><path style="opacity:1" fill="#f8f9f8" d="M 68.5,68.5 C 68.5,156.833 68.5,245.167 68.5,333.5C 68.44,334.043 68.1067,334.376 67.5,334.5C 66.3333,246.169 66.1667,157.835 67,69.5C 67.3826,68.944 67.8826,68.6107 68.5,68.5 Z"/></g>
<g><path style="opacity:1" fill="#e7564c" d="M 845.5,84.5 C 847.129,86.1959 846.796,87.1959 844.5,87.5C 843.373,86.8783 842.373,86.045 841.5,85C 840.5,84.3333 839.5,84.3333 838.5,85C 833.644,89.8801 829.644,95.3801 826.5,101.5C 828.365,102.666 830.032,102.333 831.5,100.5C 832.833,101.5 832.833,102.5 831.5,103.5C 829.149,105.229 826.482,105.896 823.5,105.5C 823.298,103.05 823.631,100.717 824.5,98.5C 828.984,92.839 833.318,87.0057 837.5,81C 835.688,79.1884 833.855,77.3551 832,75.5C 830.628,69.9464 827.461,65.613 822.5,62.5C 821.596,61.791 821.263,60.791 821.5,59.5C 824.42,60.4422 827.086,61.7755 829.5,63.5C 829.265,60.1881 830.265,59.3547 832.5,61C 832.025,62.7633 831.358,64.43 830.5,66C 832.062,71.7397 835.395,76.2397 840.5,79.5C 841.648,77.8513 842.981,76.3513 844.5,75C 845.635,74.2506 846.635,74.4173 847.5,75.5C 845.833,77.5 844.167,79.5 842.5,81.5C 843.188,82.8549 844.188,83.8549 845.5,84.5 Z"/></g>
<g><path style="opacity:1" fill="#e67770" d="M 844.5,87.5 C 846.796,87.1959 847.129,86.1959 845.5,84.5C 846.461,82.7354 846.795,80.7354 846.5,78.5C 847.5,78.5 848.5,78.5 849.5,78.5C 849.684,82.0794 849.017,85.4127 847.5,88.5C 846.209,88.7373 845.209,88.404 844.5,87.5 Z"/></g>
<g><path style="opacity:1" fill="#e8554b" d="M 815.5,77.5 C 816.456,78.6594 817.456,79.8261 818.5,81C 817.02,82.6589 815.686,84.4923 814.5,86.5C 815.167,88.5 816.5,89.8333 818.5,90.5C 822.997,87.5793 825.83,83.9126 827,79.5C 830.572,80.8374 832.072,83.1707 831.5,86.5C 830.5,85.8333 829.5,85.1667 828.5,84.5C 826.167,87.1667 823.833,89.8333 821.5,92.5C 825.193,94.4196 825.193,95.7529 821.5,96.5C 815.101,92.3633 809.101,87.6967 803.5,82.5C 805.745,78.2428 809.078,75.7428 813.5,75C 814.381,75.7083 815.047,76.5416 815.5,77.5 Z"/></g>
<g><path style="opacity:1" fill="#fcbec0" d="M 810.5,77.5 C 816.965,79.6459 817.131,82.3126 811,85.5C 809.167,85 808,83.8333 807.5,82C 808.315,80.3566 809.315,78.8566 810.5,77.5 Z"/></g>
<g><path style="opacity:1" fill="#f19591" d="M 843.5,100.5 C 843.351,101.552 843.517,102.552 844,103.5C 846.222,105.385 848.056,107.551 849.5,110C 848.204,113.27 846.537,113.77 844.5,111.5C 843.199,113.444 842.199,115.444 841.5,117.5C 840.178,115.024 839.511,112.69 839.5,110.5C 843.5,105.167 842.833,104.5 837.5,108.5C 836.833,108.5 836.167,108.5 835.5,108.5C 836.688,107.636 837.855,106.636 839,105.5C 839.692,104.563 839.525,103.897 838.5,103.5C 838.56,102.957 838.893,102.624 839.5,102.5C 840.167,103.167 840.833,103.833 841.5,104.5C 842.172,103.051 842.839,101.718 843.5,100.5 Z"/></g>
<g><path style="opacity:1" fill="#e3584f" d="M 868.5,103.5 C 870.833,103.5 873.167,103.5 875.5,103.5C 875.5,104.833 875.5,106.167 875.5,107.5C 874.515,111.634 874.182,115.968 874.5,120.5C 873.5,120.5 872.5,120.5 871.5,120.5C 871.5,118.833 871.5,117.167 871.5,115.5C 870.448,115.649 869.448,115.483 868.5,115C 867.333,113.167 865.833,111.667 864,110.5C 863.51,109.207 863.343,107.873 863.5,106.5C 861.712,106.785 860.045,106.452 858.5,105.5C 861.977,104.833 865.311,104.166 868.5,103.5 Z"/></g>
<g><path style="opacity:1" fill="#e4635b" d="M 838.5,103.5 C 839.525,103.897 839.692,104.563 839,105.5C 837.855,106.636 836.688,107.636 835.5,108.5C 834.518,109.141 833.518,109.807 832.5,110.5C 832.167,110 831.833,109.5 831.5,109C 833.469,106.685 835.803,104.851 838.5,103.5 Z"/></g>
<g><path style="opacity:1" fill="#fbbec1" d="M 865.5,106.5 C 867.924,106.192 870.257,106.526 872.5,107.5C 871.811,109.444 871.311,111.444 871,113.5C 868.546,111.559 866.713,109.225 865.5,106.5 Z"/></g>
<g><path style="opacity:1" fill="#e0625b" d="M 839.5,110.5 C 835.5,113.167 834.833,112.5 837.5,108.5C 842.833,104.5 843.5,105.167 839.5,110.5 Z"/></g>
<g><path style="opacity:1" fill="#fababb" d="M 860.5,99.5 C 861.434,100.568 861.768,101.901 861.5,103.5C 863.833,103.5 866.167,103.5 868.5,103.5C 865.311,104.166 861.977,104.833 858.5,105.5C 860.045,106.452 861.712,106.785 863.5,106.5C 863.343,107.873 863.51,109.207 864,110.5C 865.833,111.667 867.333,113.167 868.5,115C 869.448,115.483 870.448,115.649 871.5,115.5C 871.5,117.167 871.5,118.833 871.5,120.5C 872.5,120.5 873.5,120.5 874.5,120.5C 874.182,115.968 874.515,111.634 875.5,107.5C 875.334,112.511 875.501,117.511 876,122.5C 876.704,120.273 877.871,119.94 879.5,121.5C 877.858,122.803 876.191,124.136 874.5,125.5C 874.5,124.5 874.5,123.5 874.5,122.5C 872.389,121.62 870.389,121.62 868.5,122.5C 869.584,119.015 868.251,116.682 864.5,115.5C 861.018,117.644 858.685,120.644 857.5,124.5C 855.929,125.309 854.262,125.643 852.5,125.5C 852.5,123.5 852.5,121.5 852.5,119.5C 856.664,119.857 859.831,118.19 862,114.5C 862.024,111.706 860.524,110.039 857.5,109.5C 855.527,110.64 853.693,111.973 852,113.5C 851.508,114.549 851.674,115.549 852.5,116.5C 849.739,119.365 846.406,120.531 842.5,120C 845.855,116.645 849.188,113.312 852.5,110C 851.394,108.118 851.394,106.284 852.5,104.5C 853.891,105.645 855.224,105.645 856.5,104.5C 855.754,103.264 855.421,101.93 855.5,100.5C 857.39,100.297 858.89,100.963 860,102.5C 860.483,101.552 860.649,100.552 860.5,99.5 Z"/></g>
<g><path style="opacity:1" fill="#e85b52" d="M 860.5,99.5 C 860.649,100.552 860.483,101.552 860,102.5C 858.89,100.963 857.39,100.297 855.5,100.5C 855.421,101.93 855.754,103.264 856.5,104.5C 855.224,105.645 853.891,105.645 852.5,104.5C 851.394,106.284 851.394,108.118 852.5,110C 849.188,113.312 845.855,116.645 842.5,120C 846.406,120.531 849.739,119.365 852.5,116.5C 851.674,115.549 851.508,114.549 852,113.5C 853.693,111.973 855.527,110.64 857.5,109.5C 860.524,110.039 862.024,111.706 862,114.5C 859.831,118.19 856.664,119.857 852.5,119.5C 852.5,121.5 852.5,123.5 852.5,125.5C 854.262,125.643 855.929,125.309 857.5,124.5C 858.685,120.644 861.018,117.644 864.5,115.5C 868.251,116.682 869.584,119.015 868.5,122.5C 866.852,123.81 865.186,125.143 863.5,126.5C 861.217,125.15 859.217,125.483 857.5,127.5C 854.974,126.343 852.307,126.343 849.5,127.5C 849.5,125.833 849.5,124.167 849.5,122.5C 846.482,122.704 843.482,123.037 840.5,123.5C 839.323,120.962 837.656,118.629 835.5,116.5C 836,116.167 836.5,115.833 837,115.5C 838.3,116.707 839.8,117.374 841.5,117.5C 842.199,115.444 843.199,113.444 844.5,111.5C 846.537,113.77 848.204,113.27 849.5,110C 848.056,107.551 846.222,105.385 844,103.5C 843.517,102.552 843.351,101.552 843.5,100.5C 847.479,95.8544 851.812,91.521 856.5,87.5C 860.932,90.0577 863.432,93.7243 864,98.5C 862.915,97.7069 861.748,97.0402 860.5,96.5C 859.224,97.6136 859.224,98.6136 860.5,99.5 Z"/></g>
<g><path style="opacity:1" fill="#fbbfc1" d="M 856.5,111.5 C 860.379,112.836 860.379,114.502 856.5,116.5C 855.5,116.167 854.833,115.5 854.5,114.5C 855.612,113.735 856.279,112.735 856.5,111.5 Z"/></g>
<g><path style="opacity:1" fill="#fbb7b6" d="M 846.5,99.5 C 848.59,99.4501 849.923,100.45 850.5,102.5C 847.581,103.932 846.248,102.932 846.5,99.5 Z"/></g>
<g><path style="opacity:1" fill="#fcb8b7" d="M 850.5,95.5 C 853.5,95.1667 854.833,96.5 854.5,99.5C 851.5,99.8333 850.167,98.5 850.5,95.5 Z"/></g>
<g><path style="opacity:1" fill="#fcb8b8" d="M 854.5,91.5 C 857.5,91.1667 858.833,92.5 858.5,95.5C 855.5,95.8333 854.167,94.5 854.5,91.5 Z"/></g>
<g><path style="opacity:1" fill="#fabfc2" d="M 863.5,118.5 C 867.379,119.836 867.379,121.502 863.5,123.5C 862.334,121.833 862.334,120.166 863.5,118.5 Z"/></g>
<g><path style="opacity:1" fill="#e6584e" d="M 881.5,120.5 C 882.776,121.386 882.776,122.386 881.5,123.5C 878.761,125.851 876.095,128.184 873.5,130.5C 872.5,130.5 871.5,130.5 870.5,130.5C 870.774,128.019 872.107,126.353 874.5,125.5C 876.191,124.136 877.858,122.803 879.5,121.5C 880.167,121.167 880.833,120.833 881.5,120.5 Z"/></g>
<g><path style="opacity:1" fill="#f9adad" d="M 881.5,120.5 C 881.56,119.957 881.893,119.624 882.5,119.5C 883.141,120.993 884.141,121.993 885.5,122.5C 882.491,125.842 879.157,128.842 875.5,131.5C 875.158,130.662 874.492,130.328 873.5,130.5C 876.095,128.184 878.761,125.851 881.5,123.5C 882.776,122.386 882.776,121.386 881.5,120.5 Z"/></g>
<g><path style="opacity:1" fill="#ec4a3e" d="M 857.5,127.5 C 857.817,130.572 857.484,133.572 856.5,136.5C 855.52,133.914 855.187,131.247 855.5,128.5C 853.658,128.723 851.825,129.057 850,129.5C 847.015,128.96 846.848,128.294 849.5,127.5C 852.307,126.343 854.974,126.343 857.5,127.5 Z"/></g>
<g><path style="opacity:1" fill="#e95449" d="M 875.5,131.5 C 879.157,128.842 882.491,125.842 885.5,122.5C 886.708,119.956 888.708,118.622 891.5,118.5C 890.836,120.867 889.503,122.867 887.5,124.5C 888.06,126.854 888.727,129.187 889.5,131.5C 891.028,130.139 892.695,128.972 894.5,128C 895.635,127.251 896.635,127.417 897.5,128.5C 896.329,130.169 894.996,131.669 893.5,133C 894.319,134.319 895.319,135.485 896.5,136.5C 898.5,134.833 900.5,133.167 902.5,131.5C 903.583,132.365 903.749,133.365 903,134.5C 901.437,135.725 900.27,137.225 899.5,139C 901.131,140.926 902.965,142.76 905,144.5C 905.483,145.448 905.649,146.448 905.5,147.5C 904.167,147.5 902.833,147.5 901.5,147.5C 898.778,139.667 895.444,139.5 891.5,147C 892.27,148.775 893.437,150.275 895,151.5C 895.749,152.635 895.583,153.635 894.5,154.5C 892.5,152.833 890.5,151.167 888.5,149.5C 885.257,151.548 883.09,154.215 882,157.5C 884.222,159.385 886.056,161.551 887.5,164C 887.15,165.257 886.483,165.591 885.5,165C 879.788,159.623 874.455,153.957 869.5,148C 869.833,147.5 870.167,147 870.5,146.5C 872.984,148.483 875.317,150.65 877.5,153C 881.203,152.66 883.869,150.66 885.5,147C 884.039,144.702 882.372,142.535 880.5,140.5C 881.365,139.417 882.365,139.251 883.5,140C 887.636,146.122 890.969,145.622 893.5,138.5C 893.225,136.391 892.058,135.058 890,134.5C 887.563,135.8 885.063,136.8 882.5,137.5C 883.129,135.014 884.129,132.681 885.5,130.5C 885.167,129.5 884.833,128.5 884.5,127.5C 877.833,133.833 871.167,140.167 864.5,146.5C 863.417,145.635 863.251,144.635 864,143.5C 868.037,139.631 871.87,135.631 875.5,131.5 Z"/></g>
<g><path style="opacity:1" fill="#35628b" d="M 556.5,148.5 C 559.91,148.384 561.244,150.05 560.5,153.5C 559.167,153.5 557.833,153.5 556.5,153.5C 556.5,151.833 556.5,150.167 556.5,148.5 Z"/></g>
<g><path style="opacity:1" fill="#2b5e8e" d="M 496.5,148.5 C 499.91,148.384 501.244,150.05 500.5,153.5C 499.167,153.5 497.833,153.5 496.5,153.5C 496.5,151.833 496.5,150.167 496.5,148.5 Z"/></g>
<g><path style="opacity:1" fill="#326499" d="M 760.5,148.5 C 764.161,148.35 765.161,149.85 763.5,153C 759.707,153.487 758.707,151.987 760.5,148.5 Z"/></g>
<g><path style="opacity:1" fill="#2f5c75" d="M 560.5,176.5 C 559.51,170.69 559.177,164.69 559.5,158.5C 557.585,158.216 555.919,158.549 554.5,159.5C 553.957,159.44 553.624,159.107 553.5,158.5C 555.743,157.526 558.076,157.192 560.5,157.5C 560.5,163.833 560.5,170.167 560.5,176.5 Z"/></g>
<g><path style="opacity:1" fill="#1e5c96" d="M 347.5,158.5 C 348.451,159.919 348.784,161.585 348.5,163.5C 346.381,163.532 345.048,162.532 344.5,160.5C 344.082,159.778 343.416,159.278 342.5,159C 344.134,158.506 345.801,158.34 347.5,158.5 Z"/></g>
<g><path style="opacity:1" fill="#1a5da3" d="M 411.5,159.5 C 412.919,158.549 414.585,158.216 416.5,158.5C 416.824,165.354 416.491,172.021 415.5,178.5C 414.357,171.913 413.024,165.579 411.5,159.5 Z"/></g>
<g><path style="opacity:1" fill="#1e5c96" d="M 683.5,158.5 C 684.451,159.919 684.784,161.585 684.5,163.5C 682.381,163.532 681.048,162.532 680.5,160.5C 680.082,159.778 679.416,159.278 678.5,159C 680.134,158.506 681.801,158.34 683.5,158.5 Z"/></g>
<g><path style="opacity:1" fill="#84a6be" d="M 764.5,177.5 C 763.51,171.355 763.177,165.022 763.5,158.5C 761.265,158.205 759.265,158.539 757.5,159.5C 756.957,159.44 756.624,159.107 756.5,158.5C 759.086,157.52 761.753,157.187 764.5,157.5C 764.5,164.167 764.5,170.833 764.5,177.5 Z"/></g>
<g><path style="opacity:1" fill="#5783a9" d="M 347.5,158.5 C 345.801,158.34 344.134,158.506 342.5,159C 343.416,159.278 344.082,159.778 344.5,160.5C 342.089,160.137 340.589,161.137 340,163.5C 339.501,168.155 339.334,172.821 339.5,177.5C 338.512,172.36 338.179,167.026 338.5,161.5C 339.837,160.685 340.837,159.518 341.5,158C 343.712,157.211 345.712,157.378 347.5,158.5 Z"/></g>
<g><path style="opacity:1" fill="#2c6297" d="M 380.5,157.5 C 382.833,157.5 385.167,157.5 387.5,157.5C 387.281,158.675 387.614,159.675 388.5,160.5C 393.054,156.288 397.221,156.621 401,161.5C 401.333,166.833 401.667,172.167 402,177.5C 402.833,178.333 403.667,179.167 404.5,180C 402.19,180.497 399.857,180.663 397.5,180.5C 397.666,174.491 397.499,168.491 397,162.5C 394.385,159.93 391.718,159.93 389,162.5C 388.501,167.823 388.334,173.156 388.5,178.5C 389.675,178.281 390.675,178.614 391.5,179.5C 388.216,180.657 384.882,180.824 381.5,180C 382.667,179.5 383.5,178.667 384,177.5C 384.667,171.833 384.667,166.167 384,160.5C 382.271,160.026 381.105,159.026 380.5,157.5 Z"/></g>
<g><path style="opacity:1" fill="#245c92" d="M 424.5,159.5 C 426.265,158.539 428.265,158.205 430.5,158.5C 430.177,165.022 430.51,171.355 431.5,177.5C 432.398,178.158 433.398,178.824 434.5,179.5C 432.257,180.474 429.924,180.808 427.5,180.5C 427.649,179.448 427.483,178.448 427,177.5C 423.251,180.925 419.418,181.259 415.5,178.5C 416.491,172.021 416.824,165.354 416.5,158.5C 414.585,158.216 412.919,158.549 411.5,159.5C 410.957,159.44 410.624,159.107 410.5,158.5C 412.743,157.526 415.076,157.192 417.5,157.5C 417.334,163.509 417.501,169.509 418,175.5C 421.242,178.241 424.242,177.908 427,174.5C 427.667,169.833 427.667,165.167 427,160.5C 426.329,159.748 425.496,159.414 424.5,159.5 Z"/></g>
<g><path style="opacity:1" fill="#cfdde7" d="M 516.5,167.5 C 517.552,165.744 519.219,165.077 521.5,165.5C 521.5,164.167 521.5,162.833 521.5,161.5C 519.833,161.5 518.167,161.5 516.5,161.5C 516.5,162.5 516.5,163.5 516.5,164.5C 514.901,164.768 513.568,164.434 512.5,163.5C 513.5,163.5 514.5,163.5 515.5,163.5C 515.843,159.562 517.843,158.562 521.5,160.5C 522.474,162.743 522.808,165.076 522.5,167.5C 520.5,167.5 518.5,167.5 516.5,167.5 Z"/></g>
<g><path style="opacity:1" fill="#5d89ae" d="M 612.5,158.5 C 610.801,158.34 609.134,158.506 607.5,159C 608.737,159.232 609.737,159.732 610.5,160.5C 608.379,160.325 606.379,160.659 604.5,161.5C 603.833,161.5 603.167,161.5 602.5,161.5C 602.5,160.5 602.5,159.5 602.5,158.5C 600.585,158.216 598.919,158.549 597.5,159.5C 596.957,159.44 596.624,159.107 596.5,158.5C 598.743,157.526 601.076,157.192 603.5,157.5C 603.443,161.133 604.443,161.3 606.5,158C 608.712,157.211 610.712,157.378 612.5,158.5 Z"/></g>
<g><path style="opacity:1" fill="#185893" d="M 612.5,158.5 C 614.411,158.574 615.578,159.574 616,161.5C 616.333,166.833 616.667,172.167 617,177.5C 617.5,178.667 618.333,179.5 619.5,180C 617.527,180.495 615.527,180.662 613.5,180.5C 613.666,174.491 613.499,168.491 613,162.5C 612.292,161.619 611.458,160.953 610.5,160.5C 609.737,159.732 608.737,159.232 607.5,159C 609.134,158.506 610.801,158.34 612.5,158.5 Z"/></g>
<g><path style="opacity:1" fill="#5783a9" d="M 683.5,158.5 C 681.801,158.34 680.134,158.506 678.5,159C 679.416,159.278 680.082,159.778 680.5,160.5C 678.089,160.137 676.589,161.137 676,163.5C 675.501,168.155 675.334,172.821 675.5,177.5C 674.512,172.36 674.179,167.026 674.5,161.5C 675.837,160.685 676.837,159.518 677.5,158C 679.712,157.211 681.712,157.378 683.5,158.5 Z"/></g>
<g><path style="opacity:1" fill="#74a2c9" d="M 431.5,177.5 C 430.51,171.355 430.177,165.022 430.5,158.5C 428.265,158.205 426.265,158.539 424.5,159.5C 423.957,159.44 423.624,159.107 423.5,158.5C 426.086,157.52 428.753,157.187 431.5,157.5C 431.5,164.167 431.5,170.833 431.5,177.5 Z"/></g>
<g><path style="opacity:1" fill="#265d8e" d="M 504.5,180.5 C 500.818,180.665 497.152,180.499 493.5,180C 494.416,179.722 495.082,179.222 495.5,178.5C 496.621,172.582 496.788,166.582 496,160.5C 495.075,159.953 494.242,159.287 493.5,158.5C 495.743,157.526 498.076,157.192 500.5,157.5C 500.334,164.175 500.5,170.842 501,177.5C 502.729,177.974 503.895,178.974 504.5,180.5 Z"/></g>
<g><path style="opacity:1" fill="#aecce6" d="M 535.5,159.5 C 536.5,159.5 537.5,159.5 538.5,159.5C 538.5,164.833 538.5,170.167 538.5,175.5C 538.064,170.061 537.064,164.728 535.5,159.5 Z"/></g>
<g><path style="opacity:1" fill="#1d5991" d="M 541.5,152.5 C 541.5,154.5 541.5,156.5 541.5,158.5C 548.167,158.833 548.167,159.167 541.5,159.5C 541.178,165.358 541.511,171.025 542.5,176.5C 543.79,177.935 545.456,178.935 547.5,179.5C 542.673,181.75 539.673,180.417 538.5,175.5C 538.5,170.167 538.5,164.833 538.5,159.5C 537.5,159.5 536.5,159.5 535.5,159.5C 538.193,157.718 540.193,155.385 541.5,152.5 Z"/></g>
<g><path style="opacity:1" fill="#789bb7" d="M 541.5,152.5 C 542.451,153.919 542.784,155.585 542.5,157.5C 544.167,157.5 545.833,157.5 547.5,157.5C 547.5,158.5 547.5,159.5 547.5,160.5C 545.833,160.5 544.167,160.5 542.5,160.5C 542.5,165.833 542.5,171.167 542.5,176.5C 541.511,171.025 541.178,165.358 541.5,159.5C 548.167,159.167 548.167,158.833 541.5,158.5C 541.5,156.5 541.5,154.5 541.5,152.5 Z"/></g>
<g><path style="opacity:1" fill="#0159a4" d="M 597.5,159.5 C 598.919,158.549 600.585,158.216 602.5,158.5C 602.5,159.5 602.5,160.5 602.5,161.5C 602.829,167.206 602.495,172.872 601.5,178.5C 601.141,171.78 600.141,165.447 598.5,159.5C 598.167,159.5 597.833,159.5 597.5,159.5 Z"/></g>
<g><path style="opacity:1" fill="#205c9a" d="M 742.5,176.5 C 743.092,170.369 742.425,164.536 740.5,159C 741.756,158.583 742.423,157.75 742.5,156.5C 744.36,151.184 745.36,151.517 745.5,157.5C 753.5,158.167 753.5,158.833 745.5,159.5C 745.334,165.176 745.501,170.843 746,176.5C 747.6,177.866 749.433,178.866 751.5,179.5C 749.235,180.647 746.902,180.814 744.5,180C 743.177,179.184 742.511,178.017 742.5,176.5 Z"/></g>
<g><path style="opacity:1" fill="#2d6191" d="M 320.5,167.5 C 317.57,168.299 314.57,168.632 311.5,168.5C 311.19,171.713 311.523,174.713 312.5,177.5C 313.347,178.966 314.68,179.8 316.5,180C 312.5,180.667 308.5,180.667 304.5,180C 305.025,179.308 305.692,178.808 306.5,178.5C 307.665,170.187 307.832,161.853 307,153.5C 306.075,152.953 305.242,152.287 304.5,151.5C 310.223,150.147 315.89,150.314 321.5,152C 327.036,157.596 326.703,162.763 320.5,167.5 Z"/></g>
<g><path style="opacity:1" fill="#a0bdd0" d="M 317.5,153.5 C 315.833,153.5 314.167,153.5 312.5,153.5C 312.5,157.833 312.5,162.167 312.5,166.5C 311.514,162.03 311.181,157.363 311.5,152.5C 313.735,152.205 315.735,152.539 317.5,153.5 Z"/></g>
<g><path style="opacity:1" fill="#03589f" d="M 308.5,152.5 C 309.825,156.445 310.492,160.778 310.5,165.5C 310.167,169.833 309.833,174.167 309.5,178.5C 308.502,169.859 308.169,161.192 308.5,152.5 Z"/></g>
<g><path style="opacity:1" fill="#f2f4f2" d="M 317.5,153.5 C 319.017,153.511 320.184,154.177 321,155.5C 322.931,162.999 320.098,166.666 312.5,166.5C 312.5,162.167 312.5,157.833 312.5,153.5C 314.167,153.5 315.833,153.5 317.5,153.5 Z"/></g>
<g><path style="opacity:1" fill="#2b6299" d="M 360.5,157.5 C 372.76,157.655 376.926,163.655 373,175.5C 370.103,180.155 365.937,181.655 360.5,180C 358.652,178.482 357.152,176.649 356,174.5C 354.268,167.84 355.768,162.174 360.5,157.5 Z"/></g>
<g><path style="opacity:1" fill="#f2f3f1" d="M 362.5,159.5 C 366.182,158.725 368.682,160.059 370,163.5C 370.667,167.167 370.667,170.833 370,174.5C 367.119,179.313 363.785,179.647 360,175.5C 359.333,171.167 359.333,166.833 360,162.5C 361.045,161.627 361.878,160.627 362.5,159.5 Z"/></g>
<g><path style="opacity:1" fill="#426f89" d="M 555.5,159.5 C 556.816,162.087 557.483,165.087 557.5,168.5C 557.498,171.686 557.165,174.686 556.5,177.5C 556.789,171.409 556.455,165.409 555.5,159.5 Z"/></g>
<g><path style="opacity:1" fill="#2d6191" d="M 656.5,167.5 C 653.57,168.299 650.57,168.632 647.5,168.5C 647.19,171.713 647.523,174.713 648.5,177.5C 649.347,178.966 650.68,179.8 652.5,180C 648.5,180.667 644.5,180.667 640.5,180C 641.025,179.308 641.692,178.808 642.5,178.5C 643.665,170.187 643.832,161.853 643,153.5C 642.075,152.953 641.242,152.287 640.5,151.5C 646.223,150.147 651.89,150.314 657.5,152C 663.036,157.596 662.703,162.763 656.5,167.5 Z"/></g>
<g><path style="opacity:1" fill="#a0bdd0" d="M 653.5,153.5 C 651.833,153.5 650.167,153.5 648.5,153.5C 648.5,157.833 648.5,162.167 648.5,166.5C 647.514,162.03 647.181,157.363 647.5,152.5C 649.735,152.205 651.735,152.539 653.5,153.5 Z"/></g>
<g><path style="opacity:1" fill="#03589f" d="M 644.5,152.5 C 645.825,156.445 646.492,160.778 646.5,165.5C 646.167,169.833 645.833,174.167 645.5,178.5C 644.502,169.859 644.169,161.192 644.5,152.5 Z"/></g>
<g><path style="opacity:1" fill="#f2f4f2" d="M 653.5,153.5 C 655.017,153.511 656.184,154.177 657,155.5C 658.931,162.999 656.098,166.666 648.5,166.5C 648.5,162.167 648.5,157.833 648.5,153.5C 650.167,153.5 651.833,153.5 653.5,153.5 Z"/></g>
<g><path style="opacity:1" fill="#255e96" d="M 703.5,177.5 C 703.167,176.833 702.833,176.167 702.5,175.5C 703.833,170.833 703.833,166.167 702.5,161.5C 700.989,159.559 698.989,159.059 696.5,160C 695.663,161.011 695.33,162.178 695.5,163.5C 694.5,163.5 693.5,163.5 692.5,163.5C 692.178,161.278 692.845,159.444 694.5,158C 698.909,156.738 702.743,157.572 706,160.5C 706.333,166.167 706.667,171.833 707,177.5C 707.925,178.047 708.758,178.713 709.5,179.5C 707.604,180.466 705.604,180.799 703.5,180.5C 703.5,179.5 703.5,178.5 703.5,177.5 Z"/></g>
<g><path style="opacity:1" fill="#dde6eb" d="M 789.5,160.5 C 790.8,163.024 790.8,165.691 789.5,168.5C 788.158,166.995 786.492,166.328 784.5,166.5C 784.5,165.167 784.5,163.833 784.5,162.5C 782.833,162.5 781.167,162.5 779.5,162.5C 779.489,164.547 779.156,166.547 778.5,168.5C 779.378,171.13 780.045,173.797 780.5,176.5C 779.21,175.942 778.377,174.942 778,173.5C 777.333,170.167 777.333,166.833 778,163.5C 779.845,159.205 782.512,158.538 786,161.5C 786.483,162.448 786.649,163.448 786.5,164.5C 787.5,164.5 788.5,164.5 789.5,164.5C 789.5,163.167 789.5,161.833 789.5,160.5 Z"/></g>
<g><path style="opacity:1" fill="#2f6498" d="M 475.5,157.5 C 479.054,157.15 482.388,157.816 485.5,159.5C 486.452,161.045 486.785,162.712 486.5,164.5C 485.5,164.5 484.5,164.5 483.5,164.5C 482.661,159.332 480.161,158.332 476,161.5C 474.466,165.711 474.133,170.044 475,174.5C 478.39,178.032 482.057,178.366 486,175.5C 486.711,177.367 486.211,178.867 484.5,180C 475.02,181.864 470.353,177.864 470.5,168C 470.43,163.641 472.097,160.141 475.5,157.5 Z"/></g>
<g><path style="opacity:1" fill="#ea5247" d="M 910.5,147.5 C 914.045,149.691 917.378,152.358 920.5,155.5C 921.181,159.265 920.181,159.432 917.5,156C 916.5,155.333 915.5,155.333 914.5,156C 911,159.5 907.5,163 904,166.5C 903.333,167.167 903.333,167.833 904,168.5C 905.487,169.155 906.653,170.155 907.5,171.5C 907,171.833 906.5,172.167 906,172.5C 901.917,170.53 897.75,168.863 893.5,167.5C 893.07,162.504 894.403,161.67 897.5,165C 898.833,165.667 900.167,165.667 901.5,165C 905.522,160.978 909.522,156.978 913.5,153C 911.424,151.756 910.424,149.923 910.5,147.5 Z"/></g>
<g><path style="opacity:1" fill="#295d8a" d="M 598.5,159.5 C 600.141,165.447 601.141,171.78 601.5,178.5C 602.495,172.872 602.829,167.206 602.5,161.5C 603.167,161.5 603.833,161.5 604.5,161.5C 603.433,166.782 603.267,172.115 604,177.5C 604.671,178.252 605.504,178.586 606.5,178.5C 605.306,179.777 603.64,180.444 601.5,180.5C 599.833,180.333 598.167,180.167 596.5,180C 597.056,179.617 597.389,179.117 597.5,178.5C 598.117,178.389 598.617,178.056 599,177.5C 599.788,171.418 599.621,165.418 598.5,159.5 Z"/></g>
<g><path style="opacity:1" fill="#537fa6" d="M 742.5,156.5 C 742.423,157.75 741.756,158.583 740.5,159C 742.425,164.536 743.092,170.369 742.5,176.5C 741.512,171.36 741.179,166.026 741.5,160.5C 737.779,159.151 738.112,157.817 742.5,156.5 Z"/></g>
<g><path style="opacity:1" fill="#135794" d="M 757.5,159.5 C 759.265,158.539 761.265,158.205 763.5,158.5C 763.177,165.022 763.51,171.355 764.5,177.5C 765.058,178.79 766.058,179.623 767.5,180C 763.789,180.825 760.122,180.659 756.5,179.5C 757.628,178.738 758.795,178.071 760,177.5C 760.667,171.833 760.667,166.167 760,160.5C 759.329,159.748 758.496,159.414 757.5,159.5 Z"/></g>
<g><path style="opacity:1" fill="#e95449" d="M 903.5,178.5 C 901.396,178.799 899.396,178.466 897.5,177.5C 899.631,176.831 901.631,176.165 903.5,175.5C 909.738,174.445 914.905,171.445 919,166.5C 918.649,164.114 918.815,161.781 919.5,159.5C 920.833,160.5 922.167,161.5 923.5,162.5C 925.629,160.344 927.962,158.677 930.5,157.5C 929.857,160.325 928.523,162.825 926.5,165C 926.862,166.225 927.362,167.391 928,168.5C 931.195,169.851 933.028,172.185 933.5,175.5C 932.448,175.351 931.448,175.517 930.5,176C 925.275,181.894 919.441,187.061 913,191.5C 908.893,190.23 906.393,187.564 905.5,183.5C 907.824,183.662 909.491,184.828 910.5,187C 911.833,187.667 913.167,187.667 914.5,187C 919.649,183.018 924.315,178.518 928.5,173.5C 927.393,171.03 925.559,169.364 923,168.5C 919.569,170.261 916.403,172.428 913.5,175C 910.439,177.035 907.105,178.201 903.5,178.5 Z"/></g>
<g><path style="opacity:1" fill="#2d6294" d="M 516.5,167.5 C 518.5,167.5 520.5,167.5 522.5,167.5C 522.808,165.076 522.474,162.743 521.5,160.5C 517.843,158.562 515.843,159.562 515.5,163.5C 514.5,163.5 513.5,163.5 512.5,163.5C 510.923,161.006 511.59,159.173 514.5,158C 518.244,157.071 521.744,157.571 525,159.5C 526.245,165.39 526.912,171.39 527,177.5C 527.692,178.025 528.192,178.692 528.5,179.5C 526.955,180.452 525.288,180.785 523.5,180.5C 523.719,179.325 523.386,178.325 522.5,177.5C 512.891,183.402 509.058,180.736 511,169.5C 512.584,168.139 514.418,167.472 516.5,167.5 Z"/></g>
<g><path style="opacity:1" fill="#2b6092" d="M 814.5,163.5 C 814.5,165.167 814.5,166.833 814.5,168.5C 809.833,168.5 805.167,168.5 800.5,168.5C 800.232,170.099 800.566,171.432 801.5,172.5C 802.618,177.254 805.618,178.754 810.5,177C 814.059,175.613 814.392,176.613 811.5,180C 799.561,181.038 795.061,175.538 798,163.5C 801.391,156.956 806.224,155.789 812.5,160C 813.305,161.113 813.972,162.279 814.5,163.5 Z"/></g>
<g><path style="opacity:1" fill="#e8f0f2" d="M 803.5,159.5 C 808.167,159.5 810.5,161.833 810.5,166.5C 807.5,166.5 804.5,166.5 801.5,166.5C 801.394,163.921 802.061,161.588 803.5,159.5 Z"/></g>
<g><path style="opacity:1" fill="#2b6193" d="M 440.5,157.5 C 442.5,157.5 444.5,157.5 446.5,157.5C 446.281,158.675 446.614,159.675 447.5,160.5C 452.054,156.288 456.221,156.621 460,161.5C 460.333,166.833 460.667,172.167 461,177.5C 461.5,178.667 462.333,179.5 463.5,180C 461.19,180.497 458.857,180.663 456.5,180.5C 456.666,174.491 456.499,168.491 456,162.5C 453.385,159.93 450.718,159.93 448,162.5C 447.501,167.823 447.334,173.156 447.5,178.5C 448.675,178.281 449.675,178.614 450.5,179.5C 447.216,180.657 443.882,180.824 440.5,180C 441.333,179.167 442.167,178.333 443,177.5C 443.667,171.833 443.667,166.167 443,160.5C 441.583,159.922 440.75,158.922 440.5,157.5 Z"/></g>
<g><path style="opacity:1" fill="#0258a2" d="M 444.5,161.5 C 445.117,161.611 445.617,161.944 446,162.5C 446.829,167.864 446.663,173.198 445.5,178.5C 444.505,172.872 444.171,167.206 444.5,161.5 Z"/></g>
<g><path style="opacity:1" fill="#98bad7" d="M 814.5,163.5 C 815.461,165.265 815.795,167.265 815.5,169.5C 810.833,169.5 806.167,169.5 801.5,169.5C 801.5,170.5 801.5,171.5 801.5,172.5C 800.566,171.432 800.232,170.099 800.5,168.5C 805.167,168.5 809.833,168.5 814.5,168.5C 814.5,166.833 814.5,165.167 814.5,163.5 Z"/></g>
<g><path style="opacity:1" fill="#aac3d3" d="M 320.5,167.5 C 320.389,168.117 320.056,168.617 319.5,169C 317.19,169.497 314.857,169.663 312.5,169.5C 312.5,172.167 312.5,174.833 312.5,177.5C 311.523,174.713 311.19,171.713 311.5,168.5C 314.57,168.632 317.57,168.299 320.5,167.5 Z"/></g>
<g><path style="opacity:1" fill="#aac3d3" d="M 656.5,167.5 C 656.389,168.117 656.056,168.617 655.5,169C 653.19,169.497 650.857,169.663 648.5,169.5C 648.5,172.167 648.5,174.833 648.5,177.5C 647.523,174.713 647.19,171.713 647.5,168.5C 650.57,168.632 653.57,168.299 656.5,167.5 Z"/></g>
<g><path style="opacity:1" fill="#406d98" d="M 702.5,161.5 C 703.833,166.167 703.833,170.833 702.5,175.5C 702.833,176.167 703.167,176.833 703.5,177.5C 700.274,180.391 696.607,181.057 692.5,179.5C 688.309,169.673 691.642,165.673 702.5,167.5C 702.5,165.5 702.5,163.5 702.5,161.5 Z"/></g>
<g><path style="opacity:1" fill="#ebf0f0" d="M 516.5,168.5 C 518.5,168.5 520.5,168.5 522.5,168.5C 524.004,175.493 521.337,178.327 514.5,177C 512.937,173.651 513.603,170.818 516.5,168.5 Z"/></g>
<g><path style="opacity:1" fill="#f1f4f1" d="M 702.5,175.5 C 700.18,177.226 697.513,177.893 694.5,177.5C 693,170.67 695.667,167.67 702.5,168.5C 702.5,170.833 702.5,173.167 702.5,175.5 Z"/></g>
<g><path style="opacity:1" fill="#205a94" d="M 338.5,161.5 C 338.179,167.026 338.512,172.36 339.5,177.5C 340.718,178.161 342.051,178.828 343.5,179.5C 339.878,180.659 336.211,180.825 332.5,180C 333.333,179.167 334.167,178.333 335,177.5C 335.667,171.833 335.667,166.167 335,160.5C 333.795,159.929 332.628,159.262 331.5,158.5C 333.743,157.526 336.076,157.192 338.5,157.5C 338.5,158.833 338.5,160.167 338.5,161.5 Z"/></g>
<g><path style="opacity:1" fill="#205a94" d="M 674.5,161.5 C 674.179,167.026 674.512,172.36 675.5,177.5C 676.718,178.161 678.051,178.828 679.5,179.5C 675.878,180.659 672.211,180.825 668.5,180C 669.333,179.167 670.167,178.333 671,177.5C 671.667,171.833 671.667,166.167 671,160.5C 669.795,159.929 668.628,159.262 667.5,158.5C 669.743,157.526 672.076,157.192 674.5,157.5C 674.5,158.833 674.5,160.167 674.5,161.5 Z"/></g>
<g><path style="opacity:1" fill="#2e6499" d="M 789.5,160.5 C 789.5,161.833 789.5,163.167 789.5,164.5C 788.5,164.5 787.5,164.5 786.5,164.5C 786.649,163.448 786.483,162.448 786,161.5C 782.512,158.538 779.845,159.205 778,163.5C 777.333,166.833 777.333,170.167 778,173.5C 778.377,174.942 779.21,175.942 780.5,176.5C 783.478,177.305 786.478,177.638 789.5,177.5C 788.09,179.955 785.923,180.955 783,180.5C 780.019,180.919 777.686,179.919 776,177.5C 772.743,171.804 772.743,166.138 776,160.5C 780.614,156.519 785.114,156.519 789.5,160.5 Z"/></g>
<g><path style="opacity:1" fill="#265f96" d="M 575.5,157.5 C 587.114,157.364 591.614,163.031 589,174.5C 586.081,180.025 581.581,181.858 575.5,180C 570.848,175.464 569.348,169.964 571,163.5C 572.332,161.34 573.832,159.34 575.5,157.5 Z"/></g>
<g><path style="opacity:1" fill="#eff1f0" d="M 577.5,159.5 C 581.182,158.725 583.682,160.059 585,163.5C 585.667,167.5 585.667,171.5 585,175.5C 581.157,179.729 577.823,179.395 575,174.5C 574.333,170.5 574.333,166.5 575,162.5C 576.045,161.627 576.878,160.627 577.5,159.5 Z"/></g>
<g><path style="opacity:1" fill="#306597" d="M 721.5,157.5 C 725.054,157.15 728.388,157.816 731.5,159.5C 732.452,161.045 732.785,162.712 732.5,164.5C 731.5,164.5 730.5,164.5 729.5,164.5C 728.661,159.332 726.161,158.332 722,161.5C 720.466,165.711 720.133,170.044 721,174.5C 724.39,178.032 728.057,178.366 732,175.5C 732.711,177.367 732.211,178.867 730.5,180C 720.98,181.82 716.313,177.82 716.5,168C 716.43,163.641 718.097,160.141 721.5,157.5 Z"/></g>
<g><path style="opacity:1" fill="#0c5695" d="M 554.5,159.5 C 555.919,158.549 557.585,158.216 559.5,158.5C 559.177,164.69 559.51,170.69 560.5,176.5C 560.5,176.833 560.5,177.167 560.5,177.5C 560.38,178.586 559.713,179.253 558.5,179.5C 557.584,179.457 556.917,179.124 556.5,178.5C 556.5,178.167 556.5,177.833 556.5,177.5C 557.165,174.686 557.498,171.686 557.5,168.5C 557.483,165.087 556.816,162.087 555.5,159.5C 555.167,159.5 554.833,159.5 554.5,159.5 Z"/></g>
<g><path style="opacity:1" fill="#ef7872" d="M 903.5,175.5 C 901.631,176.165 899.631,176.831 897.5,177.5C 899.396,178.466 901.396,178.799 903.5,178.5C 901.052,179.473 898.385,179.806 895.5,179.5C 895.5,178.167 895.5,176.833 895.5,175.5C 898.167,175.5 900.833,175.5 903.5,175.5 Z"/></g>
<g><path style="opacity:1" fill="#335f7f" d="M 560.5,177.5 C 562.455,177.799 563.789,178.799 564.5,180.5C 560.818,180.665 557.152,180.499 553.5,180C 554.416,179.722 555.082,179.222 555.5,178.5C 555.833,178.5 556.167,178.5 556.5,178.5C 556.917,179.124 557.584,179.457 558.5,179.5C 559.713,179.253 560.38,178.586 560.5,177.5 Z"/></g>
<g><path style="opacity:1" fill="#a6c1ce" d="M 495.5,178.5 C 495.082,179.222 494.416,179.722 493.5,180C 497.152,180.499 500.818,180.665 504.5,180.5C 500.702,181.483 496.702,181.817 492.5,181.5C 492.5,180.5 492.5,179.5 492.5,178.5C 493.5,178.5 494.5,178.5 495.5,178.5 Z"/></g>
<g><path style="opacity:1" fill="#a7c1ce" d="M 555.5,178.5 C 555.082,179.222 554.416,179.722 553.5,180C 557.152,180.499 560.818,180.665 564.5,180.5C 560.702,181.483 556.702,181.817 552.5,181.5C 552.5,180.5 552.5,179.5 552.5,178.5C 553.5,178.5 554.5,178.5 555.5,178.5 Z"/></g>
<g><path style="opacity:1" fill="#b1c9d6" d="M 597.5,178.5 C 597.389,179.117 597.056,179.617 596.5,180C 598.167,180.167 599.833,180.333 601.5,180.5C 603.64,180.444 605.306,179.777 606.5,178.5C 607.404,179.209 607.737,180.209 607.5,181.5C 603.5,181.5 599.5,181.5 595.5,181.5C 595.285,179.821 595.952,178.821 597.5,178.5 Z"/></g>
<g><path style="opacity:1" fill="#acd2f3" d="M 238.5,177.5 C 239.167,184.167 239.833,190.833 240.5,197.5C 240.217,198.289 239.717,198.956 239,199.5C 238.5,192.508 238.334,185.508 238.5,178.5C 238.5,178.167 238.5,177.833 238.5,177.5 Z"/></g>
<g><path style="opacity:1" fill="#eb544a" d="M 951.5,190.5 C 950.842,191.398 950.176,192.398 949.5,193.5C 948.818,192.757 948.151,192.091 947.5,191.5C 944.312,188.632 941.145,185.632 938,182.5C 937.517,181.552 937.351,180.552 937.5,179.5C 942.167,179.167 946.833,178.833 951.5,178.5C 951.5,179.5 951.5,180.5 951.5,181.5C 948.5,181.5 945.5,181.5 942.5,181.5C 942.8,184.518 944.467,186.518 947.5,187.5C 948.386,186.675 948.719,185.675 948.5,184.5C 949.5,184.5 950.5,184.5 951.5,184.5C 951.5,186.5 951.5,188.5 951.5,190.5 Z"/></g>
<g><path style="opacity:1" fill="#7ea1b2" d="M 245.5,189.5 C 247.948,188.527 250.615,188.194 253.5,188.5C 253.737,189.791 253.404,190.791 252.5,191.5C 250.721,189.656 248.388,188.99 245.5,189.5 Z"/></g>
<g><path style="opacity:1" fill="#89a7be" d="M 158.5,191.5 C 156.544,189.852 154.211,189.185 151.5,189.5C 151.5,200.5 151.5,211.5 151.5,222.5C 150.505,211.346 150.172,200.012 150.5,188.5C 153.167,188.5 155.833,188.5 158.5,188.5C 158.5,189.5 158.5,190.5 158.5,191.5 Z"/></g>
<g><path style="opacity:1" fill="#a3bccd" d="M 207.5,190.5 C 207.238,191.978 207.571,193.311 208.5,194.5C 211.635,193.217 214.635,193.217 217.5,194.5C 213.802,194.552 210.135,194.886 206.5,195.5C 206.216,193.585 206.549,191.919 207.5,190.5 Z"/></g>
<g><path style="opacity:1" fill="#ef8e89" d="M 951.5,190.5 C 951.285,192.179 951.952,193.179 953.5,193.5C 952.5,195.167 951.167,196.5 949.5,197.5C 948.833,195.5 948.167,193.5 947.5,191.5C 948.151,192.091 948.818,192.757 949.5,193.5C 950.176,192.398 950.842,191.398 951.5,190.5 Z"/></g>
<g><path style="opacity:1" fill="#e8554b" d="M 949.5,197.5 C 951.167,196.5 952.5,195.167 953.5,193.5C 955.146,191.188 957.146,189.188 959.5,187.5C 961.111,188.32 961.778,189.654 961.5,191.5C 958.5,191.167 957.167,192.5 957.5,195.5C 960.261,196.92 963.261,197.587 966.5,197.5C 966.5,198.5 966.5,199.5 966.5,200.5C 961.931,199.862 957.597,198.695 953.5,197C 951.579,198.241 951.246,199.741 952.5,201.5C 953.981,202.48 955.315,203.647 956.5,205C 958.464,205.624 960.131,205.124 961.5,203.5C 962.606,206.699 961.273,208.365 957.5,208.5C 954.257,206.765 951.423,204.432 949,201.5C 948.421,200.072 948.588,198.738 949.5,197.5 Z"/></g>
<g><path style="opacity:1" fill="#e95349" d="M 934.5,185.5 C 939.395,187.391 943.062,190.724 945.5,195.5C 941.079,201.258 935.745,205.924 929.5,209.5C 927.884,208.885 926.551,207.885 925.5,206.5C 934.48,206.666 935.48,203.833 928.5,198C 926.08,198.372 924.08,199.705 922.5,202C 921.365,202.749 920.365,202.583 919.5,201.5C 924.522,196.146 929.522,190.813 934.5,185.5 Z"/></g>
<g><path style="opacity:1" fill="#fdbfc1" d="M 934.5,189.5 C 938.5,190.167 940.833,192.5 941.5,196.5C 938.213,195.736 935.546,193.903 933.5,191C 934.056,190.617 934.389,190.117 934.5,189.5 Z"/></g>
<g><path style="opacity:1" fill="#fbb9ba" d="M 930.5,193.5 C 932.867,194.164 934.867,195.497 936.5,197.5C 937.949,200.016 937.282,201.183 934.5,201C 933,199.5 931.5,198 930,196.5C 929.53,195.423 929.697,194.423 930.5,193.5 Z"/></g>
<g><path style="opacity:1" fill="#1c5c9a" d="M 129.5,179.5 C 134.167,179.5 138.833,179.5 143.5,179.5C 143.808,181.924 143.474,184.257 142.5,186.5C 139.227,185.415 135.894,185.248 132.5,186C 131.167,187.667 131.167,189.333 132.5,191C 136.57,192.734 140.403,194.9 144,197.5C 146.881,204.197 145.048,209.031 138.5,212C 133.463,212.663 128.463,212.496 123.5,211.5C 123.336,208.813 123.503,206.146 124,203.5C 125.863,205.949 128.363,206.949 131.5,206.5C 136.676,207.5 138.343,205.667 136.5,201C 131.087,199.387 126.92,196.22 124,191.5C 122.873,186.089 124.707,182.089 129.5,179.5 Z"/></g>
<g><path style="opacity:1" fill="#5b88af" d="M 238.5,177.5 C 238.5,177.833 238.5,178.167 238.5,178.5C 236.5,178.5 234.5,178.5 232.5,178.5C 232.5,189.5 232.5,200.5 232.5,211.5C 234.5,211.5 236.5,211.5 238.5,211.5C 236.393,212.468 234.059,212.802 231.5,212.5C 231.5,200.833 231.5,189.167 231.5,177.5C 233.833,177.5 236.167,177.5 238.5,177.5 Z"/></g>
<g><path style="opacity:1" fill="#125999" d="M 238.5,178.5 C 238.334,185.508 238.5,192.508 239,199.5C 239.717,198.956 240.217,198.289 240.5,197.5C 242.167,194.833 243.833,192.167 245.5,189.5C 248.388,188.99 250.721,189.656 252.5,191.5C 249.96,193.886 247.96,196.719 246.5,200C 248.622,203.626 250.955,207.126 253.5,210.5C 250.894,211.652 248.227,211.818 245.5,211C 243.333,207.5 241.167,204 239,200.5C 238.501,204.152 238.335,207.818 238.5,211.5C 236.5,211.5 234.5,211.5 232.5,211.5C 232.5,200.5 232.5,189.5 232.5,178.5C 234.5,178.5 236.5,178.5 238.5,178.5 Z"/></g>
<g><path style="opacity:1" fill="#628aac" d="M 224.5,194.5 C 225.49,200.31 225.823,206.31 225.5,212.5C 222.941,212.802 220.607,212.468 218.5,211.5C 220.5,211.5 222.5,211.5 224.5,211.5C 224.5,205.833 224.5,200.167 224.5,194.5 Z"/></g>
<g><path style="opacity:1" fill="#165a98" d="M 159.5,210.5 C 159.44,209.957 159.107,209.624 158.5,209.5C 157.508,213.783 157.174,218.116 157.5,222.5C 155.5,222.5 153.5,222.5 151.5,222.5C 151.5,211.5 151.5,200.5 151.5,189.5C 154.211,189.185 156.544,189.852 158.5,191.5C 168.202,185.664 173.535,188.497 174.5,200C 174.611,207.221 171.111,211.388 164,212.5C 161.992,212.693 160.492,212.026 159.5,210.5 Z"/></g>
<g><path style="opacity:1" fill="#e4eaea" d="M 160.5,193.5 C 163.547,192.855 165.713,193.855 167,196.5C 168.098,200.505 167.265,204.005 164.5,207C 158.943,207.125 156.776,204.292 158,198.5C 158.366,196.548 159.199,194.882 160.5,193.5 Z"/></g>
<g><path style="opacity:1" fill="#dfe8ee" d="M 218.5,204.5 C 217.833,205.5 217.167,206.5 216.5,207.5C 214.833,207.5 213.167,207.5 211.5,207.5C 210.735,202.094 213.069,200.094 218.5,201.5C 218.5,202.5 218.5,203.5 218.5,204.5 Z"/></g>
<g><path style="opacity:1" fill="#668a98" d="M 333.5,205.5 C 331.821,205.285 330.821,205.952 330.5,207.5C 329.833,208.833 329.167,210.167 328.5,211.5C 328.5,210.167 328.5,208.833 328.5,207.5C 321.5,207.5 314.5,207.5 307.5,207.5C 315.454,207.046 323.454,206.046 331.5,204.5C 332.416,204.543 333.083,204.876 333.5,205.5 Z"/></g>
<g><path style="opacity:1" fill="#155999" d="M 224.5,194.5 C 224.5,200.167 224.5,205.833 224.5,211.5C 222.5,211.5 220.5,211.5 218.5,211.5C 218.5,210.833 218.5,210.167 218.5,209.5C 217.833,208.833 217.167,208.167 216.5,207.5C 217.167,206.5 217.833,205.5 218.5,204.5C 220.104,203.713 220.771,202.38 220.5,200.5C 217.813,200.664 215.146,200.497 212.5,200C 214.502,198.981 216.502,198.148 218.5,197.5C 218.737,196.209 218.404,195.209 217.5,194.5C 214.635,193.217 211.635,193.217 208.5,194.5C 207.571,193.311 207.238,191.978 207.5,190.5C 207.918,189.778 208.584,189.278 209.5,189C 212.833,188.333 216.167,188.333 219.5,189C 222.079,190.076 223.746,191.909 224.5,194.5 Z"/></g>
<g><path style="opacity:1" fill="#1c5a92" d="M 438.5,213.5 C 438.5,214.5 438.5,215.5 438.5,216.5C 435.784,222.052 432.451,227.219 428.5,232C 430.81,232.497 433.143,232.663 435.5,232.5C 435.065,223.324 436.398,223.324 439.5,232.5C 439.369,233.376 439.702,234.043 440.5,234.5C 441.494,229.544 441.827,224.544 441.5,219.5C 445.371,219.815 449.038,219.482 452.5,218.5C 452.5,217.167 452.5,215.833 452.5,214.5C 448.5,214.5 444.5,214.5 440.5,214.5C 440.5,213.167 440.5,211.833 440.5,210.5C 444.5,210.5 448.5,210.5 452.5,210.5C 452.5,208.833 452.5,207.167 452.5,205.5C 453.833,205.5 455.167,205.5 456.5,205.5C 456.5,207.167 456.5,208.833 456.5,210.5C 461.167,210.5 465.833,210.5 470.5,210.5C 470.5,211.833 470.5,213.167 470.5,214.5C 465.833,214.5 461.167,214.5 456.5,214.5C 456.5,215.833 456.5,217.167 456.5,218.5C 459.962,219.482 463.629,219.815 467.5,219.5C 467.5,225.5 467.5,231.5 467.5,237.5C 465.5,237.5 463.5,237.5 461.5,237.5C 461.608,239.783 462.441,241.783 464,243.5C 466.522,246.022 469.022,248.522 471.5,251C 470.941,253.188 469.607,253.854 467.5,253C 462.898,248.963 459.398,244.129 457,238.5C 456.501,244.491 456.334,250.491 456.5,256.5C 455.167,256.5 453.833,256.5 452.5,256.5C 452.666,250.491 452.499,244.491 452,238.5C 449.383,244.745 445.549,250.079 440.5,254.5C 438.707,254.116 437.707,252.95 437.5,251C 438.544,249.826 439.544,248.659 440.5,247.5C 444.324,245.177 446.657,241.844 447.5,237.5C 443.767,237.476 440.434,237.143 437.5,236.5C 432.69,236.013 427.69,236.013 422.5,236.5C 422.343,235.127 422.51,233.793 423,232.5C 425.406,230.017 427.573,227.35 429.5,224.5C 426.914,223.52 424.247,223.187 421.5,223.5C 421.343,222.127 421.51,220.793 422,219.5C 425.005,215.494 427.505,211.16 429.5,206.5C 430.689,205.571 432.022,205.238 433.5,205.5C 432.347,210.144 430.347,214.477 427.5,218.5C 429.074,219.631 430.741,219.798 432.5,219C 433.5,217.333 434.5,215.667 435.5,214C 436.448,213.517 437.448,213.351 438.5,213.5 Z"/></g>
<g><path style="opacity:1" fill="#1d5d9a" d="M 185.5,188.5 C 196.337,187.006 201.337,191.672 200.5,202.5C 195.833,202.5 191.167,202.5 186.5,202.5C 186.421,203.93 186.754,205.264 187.5,206.5C 190.844,207.757 194.177,207.757 197.5,206.5C 198.951,211.494 196.951,213.494 191.5,212.5C 185.726,213.201 181.893,210.868 180,205.5C 179.333,202.167 179.333,198.833 180,195.5C 181.666,193.004 183.5,190.671 185.5,188.5 Z"/></g>
<g><path style="opacity:1" fill="#dbe8f0" d="M 188.5,193.5 C 192.349,193.019 194.349,194.686 194.5,198.5C 191.833,198.5 189.167,198.5 186.5,198.5C 186.392,196.486 187.058,194.82 188.5,193.5 Z"/></g>
<g><path style="opacity:1" fill="#e8564b" d="M 944.5,201.5 C 945.675,201.281 946.675,201.614 947.5,202.5C 946.167,204.167 944.833,205.833 943.5,207.5C 947.04,208.873 950.373,210.54 953.5,212.5C 952.667,212.833 951.833,213.167 951,213.5C 947.733,212.8 944.566,211.8 941.5,210.5C 938.754,211.096 937.92,212.763 939,215.5C 941.35,219.737 944.35,220.404 948,217.5C 948.5,217.833 949,218.167 949.5,218.5C 947.877,222.058 945.21,223.224 941.5,222C 938.781,219.618 936.447,216.951 934.5,214C 937.273,209.393 940.607,205.226 944.5,201.5 Z"/></g>
<g><path style="opacity:1" fill="#5e8bb1" d="M 385.5,209.5 C 385.5,209.833 385.5,210.167 385.5,210.5C 379.167,210.5 372.833,210.5 366.5,210.5C 366.5,211.5 366.5,212.5 366.5,213.5C 369.5,213.5 372.5,213.5 375.5,213.5C 375.672,214.492 375.338,215.158 374.5,215.5C 371.713,214.523 368.713,214.19 365.5,214.5C 365.5,212.833 365.5,211.167 365.5,209.5C 372.167,209.5 378.833,209.5 385.5,209.5 Z"/></g>
<g><path style="opacity:1" fill="#276197" d="M 218.5,197.5 C 216.502,198.148 214.502,198.981 212.5,200C 215.146,200.497 217.813,200.664 220.5,200.5C 220.771,202.38 220.104,203.713 218.5,204.5C 218.5,203.5 218.5,202.5 218.5,201.5C 213.069,200.094 210.735,202.094 211.5,207.5C 213.167,207.5 214.833,207.5 216.5,207.5C 217.167,208.167 217.833,208.833 218.5,209.5C 215.322,212.22 211.655,213.054 207.5,212C 203.5,207.667 203.5,203.333 207.5,199C 211.026,197.663 214.692,197.163 218.5,197.5 Z"/></g>
<g><path style="opacity:1" fill="#246099" d="M 524.5,207.5 C 524.5,214.167 524.5,220.833 524.5,227.5C 523.167,227.5 521.833,227.5 520.5,227.5C 520.5,226.167 520.5,224.833 520.5,223.5C 516.173,224.551 511.84,225.718 507.5,227C 506.748,227.671 506.414,228.504 506.5,229.5C 506.167,229.5 505.833,229.5 505.5,229.5C 504.081,228.549 502.415,228.216 500.5,228.5C 500.179,226.952 499.179,226.285 497.5,226.5C 497.5,225.5 497.5,224.5 497.5,223.5C 492.228,225.145 486.895,226.812 481.5,228.5C 480.374,227.142 480.374,225.808 481.5,224.5C 486.857,222.825 492.191,221.158 497.5,219.5C 497.5,216.833 497.5,214.167 497.5,211.5C 494.102,211.18 490.768,211.513 487.5,212.5C 490.56,214.019 492.06,216.352 492,219.5C 491.586,219.957 491.086,220.291 490.5,220.5C 488.517,219.018 486.684,217.351 485,215.5C 484.508,214.451 484.674,213.451 485.5,212.5C 484.311,211.571 482.978,211.238 481.5,211.5C 481.5,210.167 481.5,208.833 481.5,207.5C 488.5,207.5 495.5,207.5 502.5,207.5C 502.5,214.167 502.5,220.833 502.5,227.5C 503.5,227.5 504.5,227.5 505.5,227.5C 505.286,225.856 505.62,224.356 506.5,223C 513.709,222.403 514.209,219.903 508,215.5C 507.316,214.216 507.483,213.049 508.5,212C 507.552,211.517 506.552,211.351 505.5,211.5C 505.5,210.167 505.5,208.833 505.5,207.5C 511.833,207.5 518.167,207.5 524.5,207.5 Z"/></g>
<g><path style="opacity:1" fill="#06579d" d="M 385.5,210.5 C 393.196,210.169 400.862,210.503 408.5,211.5C 398.675,212.167 389.008,212.833 379.5,213.5C 378.662,213.842 378.328,214.508 378.5,215.5C 378.719,216.675 378.386,217.675 377.5,218.5C 376.83,216.709 376.163,215.042 375.5,213.5C 372.5,213.5 369.5,213.5 366.5,213.5C 366.5,212.5 366.5,211.5 366.5,210.5C 372.833,210.5 379.167,210.5 385.5,210.5 Z"/></g>
<g><path style="opacity:1" fill="#215c94" d="M 409.5,213.5 C 406.167,213.5 402.833,213.5 399.5,213.5C 398.561,216.106 396.894,218.106 394.5,219.5C 395.167,218.167 395.833,216.833 396.5,215.5C 397.043,215.44 397.376,215.107 397.5,214.5C 391.537,213.504 385.537,213.171 379.5,213.5C 389.008,212.833 398.675,212.167 408.5,211.5C 400.862,210.503 393.196,210.169 385.5,210.5C 385.5,210.167 385.5,209.833 385.5,209.5C 384.962,207.883 384.629,206.216 384.5,204.5C 388.938,203.425 390.938,205.092 390.5,209.5C 396.833,209.5 403.167,209.5 409.5,209.5C 409.5,210.833 409.5,212.167 409.5,213.5 Z"/></g>
<g><path style="opacity:1" fill="#eef1f0" d="M 330.5,207.5 C 332.491,212.991 335.824,217.491 340.5,221C 336.514,221.499 332.514,221.666 328.5,221.5C 329.057,225.634 328.057,229.301 325.5,232.5C 325.619,234.926 325.953,237.26 326.5,239.5C 326.5,240.5 326.5,241.5 326.5,242.5C 326.369,243.376 326.702,244.043 327.5,244.5C 329.711,245.123 331.711,246.123 333.5,247.5C 330.51,248.831 327.51,250.164 324.5,251.5C 323.438,252.425 323.438,253.425 324.5,254.5C 322.883,255.038 321.216,255.371 319.5,255.5C 320.504,254.317 321.338,252.984 322,251.5C 322.499,247.179 322.666,242.846 322.5,238.5C 319.713,237.523 316.713,237.19 313.5,237.5C 313.5,236.5 313.5,235.5 313.5,234.5C 317.042,234.813 320.375,234.479 323.5,233.5C 323.5,229.5 323.5,225.5 323.5,221.5C 322.127,221.657 320.793,221.49 319.5,221C 323.38,218.621 326.38,215.454 328.5,211.5C 329.167,210.167 329.833,208.833 330.5,207.5 Z"/></g>
<g><path style="opacity:1" fill="#7499b7" d="M 379.5,213.5 C 385.537,213.171 391.537,213.504 397.5,214.5C 397.376,215.107 397.043,215.44 396.5,215.5C 390.833,214.167 385.167,214.167 379.5,215.5C 379.167,215.5 378.833,215.5 378.5,215.5C 378.328,214.508 378.662,213.842 379.5,213.5 Z"/></g>
<g><path style="opacity:1" fill="#779bb7" d="M 399.5,213.5 C 402.833,213.5 406.167,213.5 409.5,213.5C 406.5,214.167 403.5,214.833 400.5,215.5C 399.662,215.158 399.328,214.492 399.5,213.5 Z"/></g>
<g><path style="opacity:1" fill="#84a7c2" d="M 159.5,210.5 C 158.833,214.5 158.167,218.5 157.5,222.5C 157.174,218.116 157.508,213.783 158.5,209.5C 159.107,209.624 159.44,209.957 159.5,210.5 Z"/></g>
<g><path style="opacity:1" fill="#b1cee1" d="M 456.5,205.5 C 455.167,205.5 453.833,205.5 452.5,205.5C 452.5,207.167 452.5,208.833 452.5,210.5C 448.5,210.5 444.5,210.5 440.5,210.5C 440.5,211.833 440.5,213.167 440.5,214.5C 444.5,214.5 448.5,214.5 452.5,214.5C 452.5,215.833 452.5,217.167 452.5,218.5C 452.167,218.5 451.833,218.5 451.5,218.5C 451.5,217.5 451.5,216.5 451.5,215.5C 447.069,215.231 442.735,215.564 438.5,216.5C 438.5,215.5 438.5,214.5 438.5,213.5C 439.434,212.432 439.768,211.099 439.5,209.5C 443.5,209.5 447.5,209.5 451.5,209.5C 451.5,207.833 451.5,206.167 451.5,204.5C 453.415,204.216 455.081,204.549 456.5,205.5 Z"/></g>
<g><path style="opacity:1" fill="#e4ecef" d="M 509.5,212.5 C 512.962,211.518 516.629,211.185 520.5,211.5C 520.663,213.857 520.497,216.19 520,218.5C 518.559,219.26 517.059,219.926 515.5,220.5C 514.935,217.2 512.935,214.533 509.5,212.5 Z"/></g>
<g><path style="opacity:1" fill="#225e99" d="M 351.5,227.5 C 349.68,225.552 347.346,224.552 344.5,224.5C 344.34,226.199 344.506,227.866 345,229.5C 347.63,229.859 349.797,230.859 351.5,232.5C 351.5,232.833 351.5,233.167 351.5,233.5C 347.731,233.756 344.064,233.423 340.5,232.5C 340.5,230.167 340.5,227.833 340.5,225.5C 337.833,225.5 335.167,225.5 332.5,225.5C 332.552,227.903 332.219,230.236 331.5,232.5C 330.373,233.122 329.373,233.955 328.5,235C 335.158,235.5 341.825,235.666 348.5,235.5C 348.5,236.833 348.5,238.167 348.5,239.5C 346.597,241.628 344.931,243.961 343.5,246.5C 345.531,248.522 347.865,250.189 350.5,251.5C 351.799,253.307 351.632,254.973 350,256.5C 346.34,254.169 342.674,251.836 339,249.5C 335.047,251.893 330.88,253.893 326.5,255.5C 325.817,255.137 325.15,254.804 324.5,254.5C 323.438,253.425 323.438,252.425 324.5,251.5C 327.51,250.164 330.51,248.831 333.5,247.5C 331.711,246.123 329.711,245.123 327.5,244.5C 326.702,244.043 326.369,243.376 326.5,242.5C 327.815,240.401 329.482,240.067 331.5,241.5C 333.581,242.623 335.747,243.623 338,244.5C 339.174,243.456 340.341,242.456 341.5,241.5C 342.338,241.158 342.672,240.492 342.5,239.5C 345.064,241.291 346.731,240.624 347.5,237.5C 340.532,236.503 333.532,236.17 326.5,236.5C 326.5,237.5 326.5,238.5 326.5,239.5C 325.953,237.26 325.619,234.926 325.5,232.5C 328.057,229.301 329.057,225.634 328.5,221.5C 332.514,221.666 336.514,221.499 340.5,221C 335.824,217.491 332.491,212.991 330.5,207.5C 330.821,205.952 331.821,205.285 333.5,205.5C 334.234,206.929 335.401,207.929 337,208.5C 339.722,207.556 342.222,206.223 344.5,204.5C 346.49,205.463 346.823,206.796 345.5,208.5C 343.29,209.766 341.29,211.266 339.5,213C 339.613,214.28 340.28,215.113 341.5,215.5C 344.64,213.594 347.973,212.26 351.5,211.5C 351.649,212.552 351.483,213.552 351,214.5C 349.027,215.64 347.193,216.973 345.5,218.5C 348.498,221.002 351.832,223.002 355.5,224.5C 354.923,226.55 353.59,227.55 351.5,227.5 Z"/></g>
<g><path style="opacity:1" fill="#f0f3f1" d="M 396.5,215.5 C 395.833,216.833 395.167,218.167 394.5,219.5C 393.833,220.167 393.167,220.833 392.5,221.5C 388.486,221.666 384.486,221.499 380.5,221C 381.757,218.924 381.424,217.09 379.5,215.5C 385.167,214.167 390.833,214.167 396.5,215.5 Z"/></g>
<g><path style="opacity:1" fill="#54819c" d="M 451.5,218.5 C 451.833,218.5 452.167,218.5 452.5,218.5C 449.038,219.482 445.371,219.815 441.5,219.5C 441.827,224.544 441.494,229.544 440.5,234.5C 439.702,234.043 439.369,233.376 439.5,232.5C 440.486,228.03 440.819,223.363 440.5,218.5C 444.167,218.5 447.833,218.5 451.5,218.5 Z"/></g>
<g><path style="opacity:1" fill="#e65f57" d="M 963.5,211.5 C 967.788,214.287 971.621,217.62 975,221.5C 976.241,222.877 976.408,224.21 975.5,225.5C 970.323,221.671 966.323,217.004 963.5,211.5 Z"/></g>
<g><path style="opacity:1" fill="#6794b9" d="M 524.5,207.5 C 525.491,214.313 525.825,221.313 525.5,228.5C 523.585,228.784 521.919,228.451 520.5,227.5C 521.833,227.5 523.167,227.5 524.5,227.5C 524.5,220.833 524.5,214.167 524.5,207.5 Z"/></g>
<g><path style="opacity:1" fill="#4f7a93" d="M 456.5,218.5 C 460.5,218.5 464.5,218.5 468.5,218.5C 468.823,225.022 468.49,231.355 467.5,237.5C 467.5,231.5 467.5,225.5 467.5,219.5C 463.629,219.815 459.962,219.482 456.5,218.5 Z"/></g>
<g><path style="opacity:1" fill="#0a599f" d="M 399.5,213.5 C 399.328,214.492 399.662,215.158 400.5,215.5C 401.097,215.735 401.43,216.235 401.5,217C 400.586,218.406 399.92,219.906 399.5,221.5C 402.962,222.482 406.629,222.815 410.5,222.5C 403.197,223.831 395.53,224.498 387.5,224.5C 379.833,224.167 372.167,223.833 364.5,223.5C 369.6,223.09 374.434,222.09 379,220.5C 381.041,221.752 383.375,222.419 386,222.5C 388.361,222.496 390.527,222.163 392.5,221.5C 393.167,220.833 393.833,220.167 394.5,219.5C 396.894,218.106 398.561,216.106 399.5,213.5 Z"/></g>
<g><path style="opacity:1" fill="#225d93" d="M 375.5,213.5 C 376.163,215.042 376.83,216.709 377.5,218.5C 378.386,217.675 378.719,216.675 378.5,215.5C 378.833,215.5 379.167,215.5 379.5,215.5C 381.424,217.09 381.757,218.924 380.5,221C 384.486,221.499 388.486,221.666 392.5,221.5C 390.527,222.163 388.361,222.496 386,222.5C 383.375,222.419 381.041,221.752 379,220.5C 374.434,222.09 369.6,223.09 364.5,223.5C 372.167,223.833 379.833,224.167 387.5,224.5C 395.53,224.498 403.197,223.831 410.5,222.5C 411.404,223.209 411.737,224.209 411.5,225.5C 395.5,225.5 379.5,225.5 363.5,225.5C 363.5,224.167 363.5,222.833 363.5,221.5C 368.179,221.666 372.845,221.499 377.5,221C 375.84,219.512 374.84,217.679 374.5,215.5C 375.338,215.158 375.672,214.492 375.5,213.5 Z"/></g>
<g><path style="opacity:1" fill="#e6594f" d="M 957.5,217.5 C 962.419,220.748 966.753,224.748 970.5,229.5C 969.5,230.833 968.5,230.833 967.5,229.5C 965.478,226.644 962.978,224.311 960,222.5C 958.562,221.1 957.729,219.433 957.5,217.5 Z"/></g>
<g><path style="opacity:1" fill="#6087a5" d="M 399.5,221.5 C 403.833,221.5 408.167,221.5 412.5,221.5C 412.5,223.167 412.5,224.833 412.5,226.5C 395.991,226.83 379.658,226.496 363.5,225.5C 379.5,225.5 395.5,225.5 411.5,225.5C 411.737,224.209 411.404,223.209 410.5,222.5C 406.629,222.815 402.962,222.482 399.5,221.5 Z"/></g>
<g><path style="opacity:1" fill="#b0c9db" d="M 351.5,227.5 C 349.883,226.962 348.216,226.629 346.5,226.5C 346.5,227.5 346.5,228.5 346.5,229.5C 348.5,229.5 350.5,229.5 352.5,229.5C 352.737,230.791 352.404,231.791 351.5,232.5C 349.797,230.859 347.63,229.859 345,229.5C 344.506,227.866 344.34,226.199 344.5,224.5C 347.346,224.552 349.68,225.552 351.5,227.5 Z"/></g>
<g><path style="opacity:1" fill="#cbe2ef" d="M 456.5,222.5 C 459.167,222.5 461.833,222.5 464.5,222.5C 464.5,226.167 464.5,229.833 464.5,233.5C 461.833,233.5 459.167,233.5 456.5,233.5C 456.5,229.833 456.5,226.167 456.5,222.5 Z"/></g>
<g><path style="opacity:1" fill="#e5f0f3" d="M 451.5,218.5 C 447.833,218.5 444.167,218.5 440.5,218.5C 440.819,223.363 440.486,228.03 439.5,232.5C 436.398,223.324 435.065,223.324 435.5,232.5C 433.143,232.663 430.81,232.497 428.5,232C 432.451,227.219 435.784,222.052 438.5,216.5C 442.735,215.564 447.069,215.231 451.5,215.5C 451.5,216.5 451.5,217.5 451.5,218.5 Z"/></g>
<g><path style="opacity:1" fill="#c6dfef" d="M 444.5,222.5 C 447.167,222.5 449.833,222.5 452.5,222.5C 452.5,226.167 452.5,229.833 452.5,233.5C 449.833,233.5 447.167,233.5 444.5,233.5C 444.5,229.833 444.5,226.167 444.5,222.5 Z"/></g>
<g><path style="opacity:1" fill="#276097" d="M 445.5,224.5 C 446.552,224.351 447.552,224.517 448.5,225C 449.627,226.753 450.627,228.587 451.5,230.5C 450.635,231.583 449.635,231.749 448.5,231C 447.086,229.007 446.086,226.84 445.5,224.5 Z"/></g>
<g><path style="opacity:1" fill="#256095" d="M 460.5,224.5 C 461.675,224.281 462.675,224.614 463.5,225.5C 462.7,228.133 461.2,230.133 459,231.5C 458.5,231.167 458,230.833 457.5,230.5C 458.513,228.473 459.513,226.473 460.5,224.5 Z"/></g>
<g><path style="opacity:1" fill="#d7e3e8" d="M 500.5,228.5 C 500.443,229.609 500.11,230.609 499.5,231.5C 495.167,231.5 490.833,231.5 486.5,231.5C 486.611,230.883 486.944,230.383 487.5,230C 490.5,229.667 493.5,229.333 496.5,229C 495.774,227.603 494.607,226.769 493,226.5C 489.733,227.2 486.566,228.2 483.5,229.5C 482.584,229.457 481.917,229.124 481.5,228.5C 486.895,226.812 492.228,225.145 497.5,223.5C 497.5,224.5 497.5,225.5 497.5,226.5C 499.179,226.285 500.179,226.952 500.5,228.5 Z"/></g>
<g><path style="opacity:1" fill="#f3f3f0" d="M 340.5,232.5 C 339.486,233.765 337.986,234.431 336,234.5C 334.014,234.431 332.514,233.765 331.5,232.5C 332.219,230.236 332.552,227.903 332.5,225.5C 335.167,225.5 337.833,225.5 340.5,225.5C 340.5,227.833 340.5,230.167 340.5,232.5 Z"/></g>
<g><path style="opacity:1" fill="#c7d9e7" d="M 331.5,232.5 C 332.514,233.765 334.014,234.431 336,234.5C 337.986,234.431 339.486,233.765 340.5,232.5C 344.064,233.423 347.731,233.756 351.5,233.5C 350.478,235.544 349.478,237.544 348.5,239.5C 348.5,238.167 348.5,236.833 348.5,235.5C 341.825,235.666 335.158,235.5 328.5,235C 329.373,233.955 330.373,233.122 331.5,232.5 Z"/></g>
<g><path style="opacity:1" fill="#9dbad0" d="M 437.5,236.5 C 432.547,237.329 427.547,237.663 422.5,237.5C 422.5,237.167 422.5,236.833 422.5,236.5C 427.69,236.013 432.69,236.013 437.5,236.5 Z"/></g>
<g><path style="opacity:1" fill="#b3d2eb" d="M 323.5,233.5 C 320.375,234.479 317.042,234.813 313.5,234.5C 313.5,235.5 313.5,236.5 313.5,237.5C 316.713,237.19 319.713,237.523 322.5,238.5C 319.167,238.5 315.833,238.5 312.5,238.5C 312.5,236.833 312.5,235.167 312.5,233.5C 316.167,233.5 319.833,233.5 323.5,233.5 Z"/></g>
<g><path style="opacity:1" fill="#085699" d="M 342.5,239.5 C 337.167,239.5 331.833,239.5 326.5,239.5C 326.5,238.5 326.5,237.5 326.5,236.5C 333.532,236.17 340.532,236.503 347.5,237.5C 346.731,240.624 345.064,241.291 342.5,239.5 Z"/></g>
<g><path style="opacity:1" fill="#e0e9ee" d="M 437.5,236.5 C 440.434,237.143 443.767,237.476 447.5,237.5C 446.657,241.844 444.324,245.177 440.5,247.5C 439.544,248.659 438.544,249.826 437.5,251C 437.707,252.95 438.707,254.116 440.5,254.5C 439.432,255.434 438.099,255.768 436.5,255.5C 436.048,251.837 435.548,248.17 435,244.5C 434.819,247.695 434.319,250.695 433.5,253.5C 433.563,248.797 433.229,244.13 432.5,239.5C 431.5,239.5 430.5,239.5 429.5,239.5C 429.5,242.5 429.5,245.5 429.5,248.5C 428.732,247.737 428.232,246.737 428,245.5C 427.617,246.056 427.117,246.389 426.5,246.5C 426.802,243.941 426.468,241.607 425.5,239.5C 424.5,238.833 423.5,238.167 422.5,237.5C 427.547,237.663 432.547,237.329 437.5,236.5 Z"/></g>
<g><path style="opacity:1" fill="#8eabbf" d="M 505.5,229.5 C 505.833,229.5 506.167,229.5 506.5,229.5C 511.64,230.488 516.974,230.821 522.5,230.5C 522.826,238.684 522.492,246.684 521.5,254.5C 521.5,246.833 521.5,239.167 521.5,231.5C 516.167,231.5 510.833,231.5 505.5,231.5C 505.5,230.833 505.5,230.167 505.5,229.5 Z"/></g>
<g><path style="opacity:1" fill="#1d5b96" d="M 307.5,207.5 C 314.5,207.5 321.5,207.5 328.5,207.5C 328.5,208.833 328.5,210.167 328.5,211.5C 326.38,215.454 323.38,218.621 319.5,221C 320.793,221.49 322.127,221.657 323.5,221.5C 323.5,225.5 323.5,229.5 323.5,233.5C 319.833,233.5 316.167,233.5 312.5,233.5C 312.5,235.167 312.5,236.833 312.5,238.5C 315.833,238.5 319.167,238.5 322.5,238.5C 322.666,242.846 322.499,247.179 322,251.5C 321.338,252.984 320.504,254.317 319.5,255.5C 315.671,256.069 312.337,255.402 309.5,253.5C 311.717,251.92 314.384,250.92 317.5,250.5C 318.393,247.916 318.726,245.249 318.5,242.5C 315.167,242.5 311.833,242.5 308.5,242.5C 308.5,240.833 308.5,239.167 308.5,237.5C 308.5,234.833 308.5,232.167 308.5,229.5C 311.833,229.5 315.167,229.5 318.5,229.5C 318.5,228.167 318.5,226.833 318.5,225.5C 314.126,225.029 310.126,226.029 306.5,228.5C 305.05,227.15 304.383,225.484 304.5,223.5C 308.187,222.824 311.52,221.324 314.5,219C 312.792,216.957 310.792,215.29 308.5,214C 311.468,211.822 311.135,210.656 307.5,210.5C 307.5,209.5 307.5,208.5 307.5,207.5 Z"/></g>
<g><path style="opacity:1" fill="#d5e3ec" d="M 311.5,211.5 C 315.351,210.191 319.351,210.191 323.5,211.5C 322.167,213.5 320.5,215.167 318.5,216.5C 316.313,214.578 313.98,212.912 311.5,211.5 Z"/></g>
<g><path style="opacity:1" fill="#b2c4d2" d="M 326.5,239.5 C 331.833,239.5 337.167,239.5 342.5,239.5C 342.672,240.492 342.338,241.158 341.5,241.5C 338.167,240.167 334.833,240.167 331.5,241.5C 329.482,240.067 327.815,240.401 326.5,242.5C 326.5,241.5 326.5,240.5 326.5,239.5 Z"/></g>
<g><path style="opacity:1" fill="#eef2f2" d="M 331.5,241.5 C 334.833,240.167 338.167,240.167 341.5,241.5C 340.341,242.456 339.174,243.456 338,244.5C 335.747,243.623 333.581,242.623 331.5,241.5 Z"/></g>
<g><path style="opacity:1" fill="#205c93" d="M 369.5,231.5 C 381.5,231.5 393.5,231.5 405.5,231.5C 405.5,238.833 405.5,246.167 405.5,253.5C 393.5,253.5 381.5,253.5 369.5,253.5C 369.5,246.167 369.5,238.833 369.5,231.5 Z"/></g>
<g><path style="opacity:1" fill="#05579e" d="M 374.5,250.5 C 378.982,251.326 383.649,251.826 388.5,252C 382.509,252.499 376.509,252.666 370.5,252.5C 370.5,245.833 370.5,239.167 370.5,232.5C 381.833,232.5 393.167,232.5 404.5,232.5C 404.83,239.2 404.497,245.866 403.5,252.5C 402.504,246.537 402.171,240.537 402.5,234.5C 392.5,234.5 382.5,234.5 372.5,234.5C 372.334,239.511 372.501,244.511 373,249.5C 373.383,250.056 373.883,250.389 374.5,250.5 Z"/></g>
<g><path style="opacity:1" fill="#c5dff3" d="M 374.5,235.5 C 383.5,235.5 392.5,235.5 401.5,235.5C 401.5,237.167 401.5,238.833 401.5,240.5C 392.5,240.5 383.5,240.5 374.5,240.5C 374.5,238.833 374.5,237.167 374.5,235.5 Z"/></g>
<g><path style="opacity:1" fill="#fdf7f2" d="M 375.5,236.5 C 383.833,236.5 392.167,236.5 400.5,236.5C 400.5,237.5 400.5,238.5 400.5,239.5C 392.167,239.5 383.833,239.5 375.5,239.5C 375.5,238.5 375.5,237.5 375.5,236.5 Z"/></g>
<g><path style="opacity:1" fill="#c9dbe6" d="M 308.5,237.5 C 308.5,239.167 308.5,240.833 308.5,242.5C 311.833,242.5 315.167,242.5 318.5,242.5C 318.726,245.249 318.393,247.916 317.5,250.5C 314.384,250.92 311.717,251.92 309.5,253.5C 308.596,252.791 308.263,251.791 308.5,250.5C 311.167,250.5 313.833,250.5 316.5,250.5C 316.5,248.5 316.5,246.5 316.5,244.5C 313.5,244.5 310.5,244.5 307.5,244.5C 307.198,241.941 307.532,239.607 308.5,237.5 Z"/></g>
<g><path style="opacity:1" fill="#205c96" d="M 425.5,239.5 C 426.468,241.607 426.802,243.941 426.5,246.5C 425.469,248.961 424.802,251.627 424.5,254.5C 423.167,254.5 421.833,254.5 420.5,254.5C 420.808,250.405 421.641,246.405 423,242.5C 423.236,240.881 424.069,239.881 425.5,239.5 Z"/></g>
<g><path style="opacity:1" fill="#2a6097" d="M 440.5,247.5 C 439.178,247.67 438.011,247.337 437,246.5C 436.443,244.385 435.609,242.385 434.5,240.5C 435.833,239.167 437.167,239.167 438.5,240.5C 439.946,242.618 440.613,244.951 440.5,247.5 Z"/></g>
<g><path style="opacity:1" fill="#2f6494" d="M 433.5,253.5 C 432.167,253.5 430.833,253.5 429.5,253.5C 429.5,251.833 429.5,250.167 429.5,248.5C 429.5,245.5 429.5,242.5 429.5,239.5C 430.5,239.5 431.5,239.5 432.5,239.5C 433.229,244.13 433.563,248.797 433.5,253.5 Z"/></g>
<g><path style="opacity:1" fill="#0358a1" d="M 500.5,228.5 C 502.415,228.216 504.081,228.549 505.5,229.5C 505.5,230.167 505.5,230.833 505.5,231.5C 510.305,232.487 515.305,232.821 520.5,232.5C 520.83,239.2 520.497,245.866 519.5,252.5C 518.504,246.537 518.171,240.537 518.5,234.5C 509.167,234.5 499.833,234.5 490.5,234.5C 490.829,240.537 490.496,246.537 489.5,252.5C 488.503,245.866 488.17,239.2 488.5,232.5C 492.371,232.815 496.038,232.482 499.5,231.5C 500.11,230.609 500.443,229.609 500.5,228.5 Z"/></g>
<g><path style="opacity:1" fill="#f4f7f7" d="M 374.5,245.5 C 383.167,245.5 391.833,245.5 400.5,245.5C 400.5,246.833 400.5,248.167 400.5,249.5C 391.833,249.5 383.167,249.5 374.5,249.5C 374.5,248.167 374.5,246.833 374.5,245.5 Z"/></g>
<g><path style="opacity:1" fill="#0159a6" d="M 430.5,240.5 C 432.131,244.319 432.464,248.319 431.5,252.5C 430.509,248.555 430.176,244.555 430.5,240.5 Z"/></g>
<g><path style="opacity:1" fill="#9bbed8" d="M 374.5,245.5 C 383.318,244.507 392.318,244.173 401.5,244.5C 401.5,246.5 401.5,248.5 401.5,250.5C 392.5,250.5 383.5,250.5 374.5,250.5C 374.5,250.167 374.5,249.833 374.5,249.5C 383.167,249.5 391.833,249.5 400.5,249.5C 400.5,248.167 400.5,246.833 400.5,245.5C 391.833,245.5 383.167,245.5 374.5,245.5 Z"/></g>
<g><path style="opacity:1" fill="#285f93" d="M 486.5,231.5 C 490.833,231.5 495.167,231.5 499.5,231.5C 496.038,232.482 492.371,232.815 488.5,232.5C 488.17,239.2 488.503,245.866 489.5,252.5C 490.496,246.537 490.829,240.537 490.5,234.5C 499.833,234.5 509.167,234.5 518.5,234.5C 518.171,240.537 518.504,246.537 519.5,252.5C 520.497,245.866 520.83,239.2 520.5,232.5C 515.305,232.821 510.305,232.487 505.5,231.5C 510.833,231.5 516.167,231.5 521.5,231.5C 521.5,239.167 521.5,246.833 521.5,254.5C 509.833,254.5 498.167,254.5 486.5,254.5C 486.5,246.833 486.5,239.167 486.5,231.5 Z"/></g>
<g><path style="opacity:1" fill="#94b7d4" d="M 516.5,245.5 C 517.451,246.919 517.784,248.585 517.5,250.5C 508.651,250.826 499.984,250.493 491.5,249.5C 499.833,249.5 508.167,249.5 516.5,249.5C 516.5,248.167 516.5,246.833 516.5,245.5 Z"/></g>
<g><path style="opacity:1" fill="#eef2f4" d="M 516.5,245.5 C 516.5,246.833 516.5,248.167 516.5,249.5C 508.167,249.5 499.833,249.5 491.5,249.5C 491.5,248.167 491.5,246.833 491.5,245.5C 499.833,245.5 508.167,245.5 516.5,245.5 Z"/></g>
<g><path style="opacity:1" fill="#abc5d9" d="M 516.5,240.5 C 516.5,239.167 516.5,237.833 516.5,236.5C 508.5,236.5 500.5,236.5 492.5,236.5C 492.5,237.833 492.5,239.167 492.5,240.5C 491.549,239.081 491.216,237.415 491.5,235.5C 500.167,235.5 508.833,235.5 517.5,235.5C 517.784,237.415 517.451,239.081 516.5,240.5 Z"/></g>
<g><path style="opacity:1" fill="#f7f8f4" d="M 516.5,240.5 C 508.5,240.5 500.5,240.5 492.5,240.5C 492.5,239.167 492.5,237.833 492.5,236.5C 500.5,236.5 508.5,236.5 516.5,236.5C 516.5,237.833 516.5,239.167 516.5,240.5 Z"/></g>
<g><path style="opacity:1" fill="#326182" d="M 369.5,231.5 C 381.655,230.505 393.989,230.171 406.5,230.5C 406.5,238.5 406.5,246.5 406.5,254.5C 393.989,254.829 381.655,254.495 369.5,253.5C 381.5,253.5 393.5,253.5 405.5,253.5C 405.5,246.167 405.5,238.833 405.5,231.5C 393.5,231.5 381.5,231.5 369.5,231.5 Z"/></g>
<g><path style="opacity:1" fill="#4085c0" d="M 108.5,366.5 C 393.479,367.497 678.479,367.83 963.5,367.5C 963.5,367.833 963.5,368.167 963.5,368.5C 679.5,368.5 395.5,368.5 111.5,368.5C 110.5,367.833 109.5,367.167 108.5,366.5 Z"/></g>
<g><path style="opacity:1" fill="#12548c" d="M 111.5,368.5 C 395.5,368.5 679.5,368.5 963.5,368.5C 682.833,369.167 402.167,369.833 121.5,370.5C 118.059,369.903 114.725,369.237 111.5,368.5 Z"/></g>
<g><path style="opacity:1" fill="#0158a2" d="M 111.5,368.5 C 114.725,369.237 118.059,369.903 121.5,370.5C 403.167,370.333 684.834,370.5 966.5,371C 681.246,372.665 395.913,372.998 110.5,372C 102.557,369.679 102.89,368.512 111.5,368.5 Z"/></g>
<g><path style="opacity:1" fill="#b5ccdf" d="M 975.5,371.5 C 972.742,372.761 969.742,373.594 966.5,374C 680.666,374.833 395,374.666 109.5,373.5C 394.834,373.667 680.167,373.5 965.5,373C 968.793,372.174 972.126,371.674 975.5,371.5 Z"/></g>
</svg>
