<?xml version="1.0" encoding="UTF-8"?>
<!DOCTYPE svg PUBLIC "-//W3C//DTD SVG 1.1//EN" "http://www.w3.org/Graphics/SVG/1.1/DTD/svg11.dtd">
<svg xmlns="http://www.w3.org/2000/svg" version="1.1" width="1080px" height="388px" style="shape-rendering:geometricPrecision; text-rendering:geometricPrecision; image-rendering:optimizeQuality; fill-rule:evenodd; clip-rule:evenodd" xmlns:xlink="http://www.w3.org/1999/xlink">
<g><path style="opacity:1" fill="#f9fafa" d="M -0.5,-0.5 C 359.5,-0.5 719.5,-0.5 1079.5,-0.5C 1079.5,128.833 1079.5,258.167 1079.5,387.5C 719.5,387.5 359.5,387.5 -0.5,387.5C -0.5,258.167 -0.5,128.833 -0.5,-0.5 Z"/></g>
<g><path style="opacity:1" fill="#18558b" d="M 971.5,365.5 C 973.878,363.877 976.545,362.543 979.5,361.5C 980.833,360.5 980.833,359.5 979.5,358.5C 975.109,360.853 970.442,362.187 965.5,362.5C 966.5,361.833 967.5,361.167 968.5,360.5C 976.899,358.805 983.899,354.805 989.5,348.5C 993.7,344.972 996.7,340.639 998.5,335.5C 999.833,333.5 1001.17,331.5 1002.5,329.5C 1002.78,330.289 1003.28,330.956 1004,331.5C 1004.17,285.667 1004.33,239.833 1004.5,194C 1004.5,147.828 1003.83,101.995 1002.5,56.5C 1001.83,56.5 1001.17,56.5 1000.5,56.5C 1000.01,55.0048 999.345,53.6715 998.5,52.5C 993.445,38.7754 983.778,30.442 969.5,27.5C 968.737,26.7321 967.737,26.2321 966.5,26C 681.5,25.5 396.5,25.3333 111.5,25.5C 112.263,24.7321 113.263,24.2321 114.5,24C 398.167,23.3333 681.833,23.3333 965.5,24C 968.982,26.2485 972.649,26.7485 976.5,25.5C 976.291,24.914 975.957,24.414 975.5,24C 972.289,22.8468 968.956,22.1802 965.5,22C 681.167,21.3333 396.833,21.3333 112.5,22C 108.627,21.8493 105.294,23.0159 102.5,25.5C 104.045,26.4519 105.712,26.7852 107.5,26.5C 104.371,27.8988 101.371,29.5655 98.5,31.5C 87.4258,37.6358 80.7591,46.9691 78.5,59.5C 77.3343,148.332 77.1676,237.332 78,326.5C 78.2321,327.737 78.7321,328.737 79.5,329.5C 80.3585,335.884 82.8585,341.551 87,346.5C 89.1057,349.118 91.6057,351.118 94.5,352.5C 99.4802,356.823 105.147,359.823 111.5,361.5C 107.21,361.69 103.21,360.69 99.5,358.5C 98.6143,359.325 98.281,360.325 98.5,361.5C 100.973,361.088 102.306,362.088 102.5,364.5C 88.6835,358.684 79.3502,348.684 74.5,334.5C 75.8333,287.838 76.4999,240.838 76.5,193.5C 76.3333,146.5 76.1667,99.5 76,52.5C 74.1335,54.8082 73.1335,57.4749 73,60.5C 72.5,148.166 72.3333,235.833 72.5,323.5C 72.1667,323.5 71.8333,323.5 71.5,323.5C 71.1743,234.138 71.5077,144.805 72.5,55.5C 78.881,36.9528 91.5476,25.1195 110.5,20C 395.5,19.3333 680.5,19.3333 965.5,20C 987.335,24.1666 1001.17,37 1007,58.5C 1007.67,147.5 1007.67,236.5 1007,325.5C 1003.43,346.237 991.592,359.57 971.5,365.5 Z"/></g>
<g><path style="opacity:1" fill="#085699" d="M 111.5,25.5 C 111.5,25.8333 111.5,26.1667 111.5,26.5C 110.167,26.5 108.833,26.5 107.5,26.5C 105.712,26.7852 104.045,26.4519 102.5,25.5C 105.294,23.0159 108.627,21.8493 112.5,22C 396.833,21.3333 681.167,21.3333 965.5,22C 968.956,22.1802 972.289,22.8468 975.5,24C 975.957,24.414 976.291,24.914 976.5,25.5C 972.649,26.7485 968.982,26.2485 965.5,24C 681.833,23.3333 398.167,23.3333 114.5,24C 113.263,24.2321 112.263,24.7321 111.5,25.5 Z"/></g>
<g><path style="opacity:1" fill="#d8f6fe" d="M 111.5,26.5 C 111.5,26.1667 111.5,25.8333 111.5,25.5C 396.5,25.3333 681.5,25.5 966.5,26C 967.737,26.2321 968.737,26.7321 969.5,27.5C 966.518,27.0371 963.518,26.7038 960.5,26.5C 677.5,26.5 394.5,26.5 111.5,26.5 Z"/></g>
<g><path style="opacity:1" fill="#f2fef8" d="M 107.5,26.5 C 108.833,26.5 110.167,26.5 111.5,26.5C 394.5,26.5 677.5,26.5 960.5,26.5C 677,27.3332 393.334,27.8332 109.5,28C 106.176,30.2476 102.509,31.4143 98.5,31.5C 101.371,29.5655 104.371,27.8988 107.5,26.5 Z"/></g>
<g><path style="opacity:1" fill="#f9f9f9" d="M 960.5,26.5 C 963.518,26.7038 966.518,27.0371 969.5,27.5C 983.778,30.442 993.445,38.7754 998.5,52.5C 998.848,56.5568 999.514,60.5568 1000.5,64.5C 999.883,64.6107 999.383,64.944 999,65.5C 998.333,151.833 998.333,238.167 999,324.5C 999.383,323.944 999.883,323.611 1000.5,323.5C 1000.5,323.833 1000.5,324.167 1000.5,324.5C 1000.31,328.262 999.642,331.929 998.5,335.5C 996.7,340.639 993.7,344.972 989.5,348.5C 987.876,348.64 986.71,347.973 986,346.5C 984.69,348.132 984.19,349.799 984.5,351.5C 982.574,352.061 980.574,352.227 978.5,352C 980.481,352.605 980.815,353.605 979.5,355C 976.042,356.786 972.376,358.119 968.5,359C 684.167,359.5 399.834,359.667 115.5,359.5C 113.473,359.662 111.473,359.495 109.5,359C 104.811,356.327 99.8111,354.161 94.5,352.5C 91.6057,351.118 89.1057,349.118 87,346.5C 82.8585,341.551 80.3585,335.884 79.5,329.5C 78.5101,239.522 78.1768,149.522 78.5,59.5C 80.7591,46.9691 87.4258,37.6358 98.5,31.5C 102.509,31.4143 106.176,30.2476 109.5,28C 393.334,27.8332 677,27.3332 960.5,26.5 Z"/></g>
<g><path style="opacity:1" fill="#fecacf" d="M 795.5,49.5 C 795.281,50.675 795.614,51.675 796.5,52.5C 799.791,55.8248 803.124,59.1581 806.5,62.5C 807.308,62.1924 807.975,61.6924 808.5,61C 804.63,57.2977 800.963,53.4643 797.5,49.5C 800.167,49.5 802.833,49.5 805.5,49.5C 807.479,52.1456 809.812,54.4789 812.5,56.5C 813.583,55.635 813.749,54.635 813,53.5C 811.624,52.2949 810.458,50.9616 809.5,49.5C 824.837,49.3334 840.17,49.5001 855.5,50C 869.333,65.1667 883.833,79.6667 899,93.5C 899.667,94.8333 900.333,96.1667 901,97.5C 926.578,122.077 951.911,147.077 977,172.5C 977.5,198.165 977.667,223.831 977.5,249.5C 972.195,250.442 966.861,250.609 961.5,250C 956.556,248.6 951.89,246.6 947.5,244C 920.218,216.55 892.884,189.384 865.5,162.5C 864.833,161.167 863.833,160.167 862.5,159.5C 834.535,131.035 806.368,102.701 778,74.5C 772.587,67.0903 770.087,58.757 770.5,49.5C 778.833,49.5 787.167,49.5 795.5,49.5 Z"/></g>
<g><path style="opacity:1" fill="#dc5d55" d="M 805.5,49.5 C 806.833,49.5 808.167,49.5 809.5,49.5C 810.458,50.9616 811.624,52.2949 813,53.5C 813.749,54.635 813.583,55.635 812.5,56.5C 809.812,54.4789 807.479,52.1456 805.5,49.5 Z"/></g>
<g><path style="opacity:1" fill="#db564e" d="M 795.5,49.5 C 796.167,49.5 796.833,49.5 797.5,49.5C 800.963,53.4643 804.63,57.2977 808.5,61C 807.975,61.6924 807.308,62.1924 806.5,62.5C 803.124,59.1581 799.791,55.8248 796.5,52.5C 795.614,51.675 795.281,50.675 795.5,49.5 Z"/></g>
<g><path style="opacity:1" fill="#06579c" d="M 74.5,334.5 C 72.9177,331.124 72.2511,327.458 72.5,323.5C 72.3333,235.833 72.5,148.166 73,60.5C 73.1335,57.4749 74.1335,54.8082 76,52.5C 76.1667,99.5 76.3333,146.5 76.5,193.5C 76.4999,240.838 75.8333,287.838 74.5,334.5 Z"/></g>
<g><path style="opacity:1" fill="#0058a3" d="M 1002.5,56.5 C 1003.83,101.995 1004.5,147.828 1004.5,194C 1004.33,239.833 1004.17,285.667 1004,331.5C 1003.28,330.956 1002.78,330.289 1002.5,329.5C 1002.5,238.5 1002.5,147.5 1002.5,56.5 Z"/></g>
<g><path style="opacity:1" fill="#fef8f0" d="M 70.5,60.5 C 70.5,148.833 70.5,237.167 70.5,325.5C 70.762,326.978 70.4287,328.311 69.5,329.5C 68.3333,240.502 68.1667,151.502 69,62.5C 69.2784,61.5842 69.7784,60.9175 70.5,60.5 Z"/></g>
<g><path style="opacity:1" fill="#ebfdfe" d="M 72.5,55.5 C 71.5077,144.805 71.1743,234.138 71.5,323.5C 71.6716,324.492 71.3382,325.158 70.5,325.5C 70.5,237.167 70.5,148.833 70.5,60.5C 70.1201,58.302 70.7868,56.6354 72.5,55.5 Z"/></g>
<g><path style="opacity:1" fill="#195588" d="M 1000.5,56.5 C 1001.17,56.5 1001.83,56.5 1002.5,56.5C 1002.5,147.5 1002.5,238.5 1002.5,329.5C 1001.17,331.5 999.833,333.5 998.5,335.5C 999.642,331.929 1000.31,328.262 1000.5,324.5C 1001.83,235.306 1001.83,145.973 1000.5,56.5 Z"/></g>
<g><path style="opacity:1" fill="#fef8f2" d="M 1000.5,64.5 C 1000.5,150.833 1000.5,237.167 1000.5,323.5C 999.883,323.611 999.383,323.944 999,324.5C 998.333,238.167 998.333,151.833 999,65.5C 999.383,64.944 999.883,64.6107 1000.5,64.5 Z"/></g>
<g><path style="opacity:1" fill="#e3fdfe" d="M 78.5,59.5 C 78.1768,149.522 78.5101,239.522 79.5,329.5C 78.7321,328.737 78.2321,327.737 78,326.5C 77.1676,237.332 77.3343,148.332 78.5,59.5 Z"/></g>
<g><path style="opacity:1" fill="#eafbfe" d="M 998.5,52.5 C 999.345,53.6715 1000.01,55.0048 1000.5,56.5C 1001.83,145.973 1001.83,235.306 1000.5,324.5C 1000.5,324.167 1000.5,323.833 1000.5,323.5C 1000.5,237.167 1000.5,150.833 1000.5,64.5C 999.514,60.5568 998.848,56.5568 998.5,52.5 Z"/></g>
<g><path style="opacity:1" fill="#fdc1c4" d="M 821.5,55.5 C 826.786,58.9361 830.286,63.6028 832,69.5C 834.018,71.3501 835.851,73.3501 837.5,75.5C 832.728,80.9247 828.395,86.5914 824.5,92.5C 823.833,91.8333 823.167,91.1667 822.5,90.5C 823.376,90.6309 824.043,90.2975 824.5,89.5C 822.985,88.4095 822.152,87.0761 822,85.5C 824.333,83.1667 826.667,80.8333 829,78.5C 831.351,81.4328 832.351,81.0994 832,77.5C 830.316,75.6487 828.483,73.982 826.5,72.5C 825.758,74.1082 825.591,75.7749 826,77.5C 823.833,79.6667 821.667,81.8333 819.5,84C 817.235,83.926 815.235,83.0927 813.5,81.5C 815.348,79.4836 817.015,77.317 818.5,75C 816.68,72.0135 814.347,69.5135 811.5,67.5C 812.581,65.8664 813.915,64.533 815.5,63.5C 816.968,62.2482 817.968,60.2482 818.5,57.5C 820.179,57.7148 821.179,57.0481 821.5,55.5 Z"/></g>
<g><path style="opacity:1" fill="#e05951" d="M 815.5,63.5 C 818.394,64.8823 820.894,66.8823 823,69.5C 823.749,70.635 823.583,71.635 822.5,72.5C 818.963,70.3129 816.63,67.3129 815.5,63.5 Z"/></g>
<g><path style="opacity:1" fill="#dc564d" d="M 819.5,59.5 C 822.744,61.0713 825.411,63.4046 827.5,66.5C 826.635,67.5827 825.635,67.7494 824.5,67C 823.667,64.8333 822.167,63.3333 820,62.5C 819.517,61.552 819.351,60.552 819.5,59.5 Z"/></g>
<g><path style="opacity:1" fill="#e1554b" d="M 811.5,67.5 C 814.347,69.5135 816.68,72.0135 818.5,75C 817.015,77.317 815.348,79.4836 813.5,81.5C 812.518,82.1408 811.518,82.8075 810.5,83.5C 808.328,80.8283 805.994,78.3283 803.5,76C 805.654,72.6791 808.321,69.8458 811.5,67.5 Z"/></g>
<g><path style="opacity:1" fill="#fec3c5" d="M 810.5,71.5 C 813.127,71.2933 814.793,72.46 815.5,75C 814.003,76.6621 812.337,78.1621 810.5,79.5C 806.667,76.9427 806.667,74.276 810.5,71.5 Z"/></g>
<g><path style="opacity:1" fill="#d8655e" d="M 846.5,72.5 C 847.5,72.5 848.5,72.5 849.5,72.5C 849.5,74.5 849.5,76.5 849.5,78.5C 848.5,78.5 847.5,78.5 846.5,78.5C 846.5,76.5 846.5,74.5 846.5,72.5 Z"/></g>
<g><path style="opacity:1" fill="#e3554c" d="M 824.5,92.5 C 828.395,86.5914 832.728,80.9247 837.5,75.5C 835.851,73.3501 834.018,71.3501 832,69.5C 830.286,63.6028 826.786,58.9361 821.5,55.5C 821.47,54.5028 821.97,53.8361 823,53.5C 824.944,54.4394 826.611,55.7727 828,57.5C 829.188,56.4366 829.688,55.1033 829.5,53.5C 830.5,53.5 831.5,53.5 832.5,53.5C 832.414,55.677 831.747,57.677 830.5,59.5C 832.831,61.6174 833.997,64.284 834,67.5C 835.719,69.5571 837.719,71.2237 840,72.5C 841.775,71.7297 843.275,70.563 844.5,69C 845.635,68.2506 846.635,68.4173 847.5,69.5C 845.739,71.2525 844.406,73.2525 843.5,75.5C 844.065,77.4048 845.065,79.0715 846.5,80.5C 844.438,81.7609 842.772,81.2609 841.5,79C 840.5,78.3333 839.5,78.3333 838.5,79C 833.352,84.1558 829.352,89.9892 826.5,96.5C 828.484,96.6168 830.15,95.9501 831.5,94.5C 832.833,95.5 832.833,96.5 831.5,97.5C 829.149,99.2289 826.482,99.8956 823.5,99.5C 823.298,97.0504 823.631,94.717 824.5,92.5 Z"/></g>
<g><path style="opacity:1" fill="#e1544b" d="M 822.5,90.5 C 820.405,89.588 818.405,88.4213 816.5,87C 814.393,85.7365 813.393,83.9032 813.5,81.5C 815.235,83.0927 817.235,83.926 819.5,84C 821.667,81.8333 823.833,79.6667 826,77.5C 825.591,75.7749 825.758,74.1082 826.5,72.5C 828.483,73.982 830.316,75.6487 832,77.5C 832.351,81.0994 831.351,81.4328 829,78.5C 826.667,80.8333 824.333,83.1667 822,85.5C 822.152,87.0761 822.985,88.4095 824.5,89.5C 824.043,90.2975 823.376,90.6309 822.5,90.5 Z"/></g>
<g><path style="opacity:1" fill="#fcb2b0" d="M 842.5,94.5 C 844.403,97.7485 846.737,100.748 849.5,103.5C 847.19,107.236 846.523,107.236 847.5,103.5C 843.999,104.394 842.332,107.061 842.5,111.5C 840.167,110.833 837.833,110.167 835.5,109.5C 835.5,108.5 835.5,107.5 835.5,106.5C 837.754,105.585 839.754,104.252 841.5,102.5C 842.028,101.153 842.195,99.8193 842,98.5C 840.296,100.373 838.463,102.04 836.5,103.5C 836.5,102.833 836.167,102.5 835.5,102.5C 837.883,101.115 839.55,99.1149 840.5,96.5C 841.167,95.8333 841.833,95.1667 842.5,94.5 Z"/></g>
<g><path style="opacity:1" fill="#df574f" d="M 871.5,112.5 C 871.657,111.127 871.49,109.793 871,108.5C 870.667,108.833 870.333,109.167 870,109.5C 866.764,107.123 864.597,104.123 863.5,100.5C 861.712,100.785 860.045,100.452 858.5,99.5C 861.642,98.8326 864.642,98.166 867.5,97.5C 870.167,97.1667 872.833,96.8333 875.5,96.5C 874.835,102.477 874.502,108.477 874.5,114.5C 872.821,114.715 871.821,114.048 871.5,112.5 Z"/></g>
<g><path style="opacity:1" fill="#fdbdbe" d="M 869.5,99.5 C 870.5,99.5 871.5,99.5 872.5,99.5C 872.248,108.045 869.915,108.712 865.5,101.5C 866.949,100.828 868.282,100.161 869.5,99.5 Z"/></g>
<g><path style="opacity:1" fill="#d95f58" d="M 840.5,96.5 C 839.55,99.1149 837.883,101.115 835.5,102.5C 834.518,103.141 833.518,103.807 832.5,104.5C 831.479,103.998 831.312,103.332 832,102.5C 834.279,99.6194 837.112,97.6194 840.5,96.5 Z"/></g>
<g><path style="opacity:1" fill="#d75c55" d="M 841.5,102.5 C 839.754,104.252 837.754,105.585 835.5,106.5C 835.557,105.391 835.89,104.391 836.5,103.5C 838.463,102.04 840.296,100.373 842,98.5C 842.195,99.8193 842.028,101.153 841.5,102.5 Z"/></g>
<g><path style="opacity:1" fill="#d55d56" d="M 841.5,102.5 C 842.458,102.047 843.292,101.381 844,100.5C 843.797,103.574 842.463,106.241 840,108.5C 839.678,106.311 840.178,104.311 841.5,102.5 Z"/></g>
<g><path style="opacity:1" fill="#fcbbbb" d="M 861.5,95.5 C 862.918,97.3079 864.918,97.9746 867.5,97.5C 864.642,98.166 861.642,98.8326 858.5,99.5C 860.045,100.452 861.712,100.785 863.5,100.5C 864.597,104.123 866.764,107.123 870,109.5C 870.333,109.167 870.667,108.833 871,108.5C 871.49,109.793 871.657,111.127 871.5,112.5C 870.849,111.909 870.182,111.243 869.5,110.5C 868.893,110.624 868.56,110.957 868.5,111.5C 867.064,109.681 865.397,109.348 863.5,110.5C 860.139,112.178 858.472,114.845 858.5,118.5C 856.5,118.833 854.5,119.167 852.5,119.5C 852.5,117.5 852.5,115.5 852.5,113.5C 858.039,113.451 861.205,110.784 862,105.5C 860.938,104.101 859.605,103.101 858,102.5C 855.719,103.776 853.719,105.443 852,107.5C 851.508,108.549 851.674,109.549 852.5,110.5C 849.687,113.202 846.354,114.369 842.5,114C 845.369,110.796 848.535,107.963 852,105.5C 852.825,103.299 852.325,101.466 850.5,100C 852.478,97.9851 854.312,98.1517 856,100.5C 857.437,98.7788 856.937,97.2788 854.5,96C 855.047,95.0754 855.713,94.2421 856.5,93.5C 857.85,94.9501 859.516,95.6168 861.5,95.5 Z"/></g>
<g><path style="opacity:1" fill="#e1574e" d="M 861.5,95.5 C 859.516,95.6168 857.85,94.9501 856.5,93.5C 855.713,94.2421 855.047,95.0754 854.5,96C 856.937,97.2788 857.437,98.7788 856,100.5C 854.312,98.1517 852.478,97.9851 850.5,100C 852.325,101.466 852.825,103.299 852,105.5C 848.535,107.963 845.369,110.796 842.5,114C 846.354,114.369 849.687,113.202 852.5,110.5C 851.674,109.549 851.508,108.549 852,107.5C 853.719,105.443 855.719,103.776 858,102.5C 859.605,103.101 860.938,104.101 862,105.5C 861.205,110.784 858.039,113.451 852.5,113.5C 852.5,115.5 852.5,117.5 852.5,119.5C 854.5,119.167 856.5,118.833 858.5,118.5C 858.472,114.845 860.139,112.178 863.5,110.5C 865.397,109.348 867.064,109.681 868.5,111.5C 869.412,112.738 869.579,114.072 869,115.5C 867.5,117 866,118.5 864.5,120C 862.023,118.869 859.857,119.369 858,121.5C 857.033,132.496 856.2,132.829 855.5,122.5C 852.873,123.092 850.206,123.425 847.5,123.5C 848.449,121.263 849.116,118.929 849.5,116.5C 846.482,116.704 843.482,117.037 840.5,117.5C 838.888,114.869 837.221,112.202 835.5,109.5C 837.833,110.167 840.167,110.833 842.5,111.5C 842.332,107.061 843.999,104.394 847.5,103.5C 846.523,107.236 847.19,107.236 849.5,103.5C 846.737,100.748 844.403,97.7485 842.5,94.5C 847.146,90.1885 851.813,85.8551 856.5,81.5C 861.01,84.2683 863.677,87.935 864.5,92.5C 859.592,88.7381 858.592,89.7381 861.5,95.5 Z"/></g>
<g><path style="opacity:1" fill="#feb8b8" d="M 856.5,105.5 C 860.379,106.836 860.379,108.502 856.5,110.5C 854.07,108.963 854.07,107.296 856.5,105.5 Z"/></g>
<g><path style="opacity:1" fill="#febbba" d="M 846.5,93.5 C 848.359,93.4609 849.692,94.2942 850.5,96C 847.691,98.0564 846.358,97.2231 846.5,93.5 Z"/></g>
<g><path style="opacity:1" fill="#feb6b5" d="M 850.5,89.5 C 853.5,89.1667 854.833,90.5 854.5,93.5C 851.5,93.8333 850.167,92.5 850.5,89.5 Z"/></g>
<g><path style="opacity:1" fill="#feb9b8" d="M 854.5,85.5 C 857.5,85.1667 858.833,86.5 858.5,89.5C 855.5,89.8333 854.167,88.5 854.5,85.5 Z"/></g>
<g><path style="opacity:1" fill="#febebe" d="M 863.5,112.5 C 867.379,113.836 867.379,115.502 863.5,117.5C 861.07,115.963 861.07,114.296 863.5,112.5 Z"/></g>
<g><path style="opacity:1" fill="#e05850" d="M 881.5,113.5 C 883.225,113.843 883.725,114.843 883,116.5C 879.325,120.079 875.158,122.745 870.5,124.5C 870.281,123.325 870.614,122.325 871.5,121.5C 875.165,119.159 878.499,116.493 881.5,113.5 Z"/></g>
<g><path style="opacity:1" fill="#185995" d="M 221.5,139.5 C 223.985,141.008 226.652,142.341 229.5,143.5C 228.757,144.182 228.091,144.849 227.5,145.5C 226.209,145.263 225.209,145.596 224.5,146.5C 222.323,146.586 220.323,147.253 218.5,148.5C 217.018,146.517 215.351,144.684 213.5,143C 197.483,137.093 181.483,137.093 165.5,143C 163.859,144.129 162.859,145.629 162.5,147.5C 157.837,147.839 153.504,146.506 149.5,143.5C 162.7,137.865 176.034,132.532 189.5,127.5C 200.119,131.705 210.786,135.705 221.5,139.5 Z"/></g>
<g><path style="opacity:1" fill="#e45147" d="M 889.5,111.5 C 890.478,111.811 891.145,112.478 891.5,113.5C 890.167,115.167 888.833,116.833 887.5,118.5C 888.213,120.776 888.713,123.109 889,125.5C 891.149,123.339 893.649,122.172 896.5,122C 896.833,122.333 897.167,122.667 897.5,123C 896.315,124.353 894.981,125.52 893.5,126.5C 894.5,127.833 895.5,129.167 896.5,130.5C 898.833,128.833 900.833,126.833 902.5,124.5C 904.101,125.035 904.601,126.035 904,127.5C 902.315,129.017 900.815,130.684 899.5,132.5C 901.5,134.833 903.5,137.167 905.5,139.5C 905.167,140.5 904.5,141.167 903.5,141.5C 899.535,133.87 895.535,133.704 891.5,141C 892.27,142.775 893.437,144.275 895,145.5C 895.749,146.635 895.583,147.635 894.5,148.5C 892.5,146.833 890.5,145.167 888.5,143.5C 885.257,145.548 883.09,148.215 882,151.5C 883.667,153.167 885.333,154.833 887,156.5C 887.749,157.635 887.583,158.635 886.5,159.5C 880.304,154.137 874.637,148.304 869.5,142C 869.85,140.743 870.517,140.409 871.5,141C 874,143.5 876.5,146 879,148.5C 881.553,146.284 883.72,143.784 885.5,141C 884.392,138.888 882.892,137.054 881,135.5C 880.251,134.365 880.417,133.365 881.5,132.5C 883.833,134.5 886.167,136.5 888.5,138.5C 894.286,135.706 894.786,132.373 890,128.5C 887.861,129.236 885.861,130.236 884,131.5C 882.77,130.725 882.437,129.725 883,128.5C 884.609,127.853 886.109,127.02 887.5,126C 885.954,124.56 885.121,122.727 885,120.5C 878.5,127 872,133.5 865.5,140C 864.517,140.591 863.85,140.257 863.5,139C 871.993,129.674 880.659,120.507 889.5,111.5 Z"/></g>
<g><path style="opacity:1" fill="#275a88" d="M 760.5,170.5 C 759.213,166.935 759.213,163.268 760.5,159.5C 759.511,154.025 759.178,148.358 759.5,142.5C 756.941,142.198 754.607,142.532 752.5,143.5C 751.957,143.44 751.624,143.107 751.5,142.5C 758.69,140.887 765.69,141.387 772.5,144C 776.748,149.862 776.081,155.195 770.5,160C 767.274,161.199 763.941,161.699 760.5,161.5C 760.5,164.5 760.5,167.5 760.5,170.5 Z"/></g>
<g><path style="opacity:1" fill="#1a5487" d="M 313.5,144.5 C 312.517,148.298 312.183,152.298 312.5,156.5C 317.5,156.5 322.5,156.5 327.5,156.5C 327.817,152.298 327.483,148.298 326.5,144.5C 325.602,143.842 324.602,143.176 323.5,142.5C 327.5,141.167 331.5,141.167 335.5,142.5C 334.372,143.262 333.205,143.929 332,144.5C 331.333,153.5 331.333,162.5 332,171.5C 333.205,172.071 334.372,172.738 335.5,173.5C 331.555,174.491 327.555,174.824 323.5,174.5C 324.105,172.974 325.271,171.974 327,171.5C 327.499,167.179 327.666,162.846 327.5,158.5C 322.5,158.5 317.5,158.5 312.5,158.5C 312.334,162.846 312.501,167.179 313,171.5C 314.205,172.071 315.372,172.738 316.5,173.5C 312.5,174.833 308.5,174.833 304.5,173.5C 305.602,172.824 306.602,172.158 307.5,171.5C 308.657,162.676 308.824,153.676 308,144.5C 306.795,143.929 305.628,143.262 304.5,142.5C 308.5,141.167 312.5,141.167 316.5,142.5C 315.398,143.176 314.398,143.842 313.5,144.5 Z"/></g>
<g><path style="opacity:1" fill="#0059a6" d="M 328.5,143.5 C 329.827,147.951 330.494,152.784 330.5,158C 330.167,162.833 329.833,167.667 329.5,172.5C 328.502,162.856 328.168,153.19 328.5,143.5 Z"/></g>
<g><path style="opacity:1" fill="#dcf2fa" d="M 760.5,159.5 C 760.5,154.167 760.5,148.833 760.5,143.5C 766.761,142.437 770.095,144.937 770.5,151C 770.644,157.777 767.31,160.61 760.5,159.5 Z"/></g>
<g><path style="opacity:1" fill="#faf9f9" d="M 762.5,145.5 C 764.467,145.261 766.301,145.594 768,146.5C 768.498,149.817 768.665,153.15 768.5,156.5C 766.139,156.674 763.806,157.007 761.5,157.5C 761.237,153.4 761.57,149.4 762.5,145.5 Z"/></g>
<g><path style="opacity:1" fill="#2b5d8c" d="M 360.5,154.5 C 359.542,154.047 358.708,153.381 358,152.5C 357.536,153.094 357.369,153.761 357.5,154.5C 353.246,150.061 349.912,150.728 347.5,156.5C 344.32,151.965 345.653,149.632 351.5,149.5C 353.923,149.594 356.256,150.094 358.5,151C 359.823,151.816 360.489,152.983 360.5,154.5 Z"/></g>
<g><path style="opacity:1" fill="#255a89" d="M 451.5,149.5 C 456.061,148.58 458.895,150.246 460,154.5C 462.004,149.164 465.337,148.164 470,151.5C 470.854,153.607 470.188,154.941 468,155.5C 464.284,151.177 461.617,151.843 460,157.5C 459.333,162.167 459.333,166.833 460,171.5C 461.509,172.09 463.009,172.756 464.5,173.5C 460.167,174.833 455.833,174.833 451.5,173.5C 452.628,172.738 453.795,172.071 455,171.5C 455.667,165.167 455.667,158.833 455,152.5C 453.271,152.026 452.105,151.026 451.5,149.5 Z"/></g>
<g><path style="opacity:1" fill="#2a5f96" d="M 619.5,149.5 C 618.198,151.028 616.531,152.028 614.5,152.5C 614.334,158.509 614.501,164.509 615,170.5C 616.491,172.004 618.324,172.837 620.5,173C 616.669,175.445 613.503,174.945 611,171.5C 610.5,165.175 610.334,158.842 610.5,152.5C 609.022,152.762 607.689,152.429 606.5,151.5C 609.39,149.957 611.057,147.624 611.5,144.5C 612.5,144.5 613.5,144.5 614.5,144.5C 614.5,146.167 614.5,147.833 614.5,149.5C 616.167,149.5 617.833,149.5 619.5,149.5 Z"/></g>
<g><path style="opacity:1" fill="#7fa2c1" d="M 619.5,149.5 C 620.404,150.209 620.737,151.209 620.5,152.5C 618.5,152.5 616.5,152.5 614.5,152.5C 616.531,152.028 618.198,151.028 619.5,149.5 Z"/></g>
<g><path style="opacity:1" fill="#225a92" d="M 653.5,149.5 C 655.833,149.5 658.167,149.5 660.5,149.5C 660.367,154.272 661.7,154.438 664.5,150C 668.793,148.798 672.293,149.965 675,153.5C 675.333,159.5 675.667,165.5 676,171.5C 677.205,172.071 678.372,172.738 679.5,173.5C 676.914,174.48 674.247,174.813 671.5,174.5C 671.666,167.825 671.5,161.158 671,154.5C 666.882,151.408 663.549,152.075 661,156.5C 660.333,161.5 660.333,166.5 661,171.5C 662.205,172.071 663.372,172.738 664.5,173.5C 660.5,174.833 656.5,174.833 652.5,173.5C 653.628,172.738 654.795,172.071 656,171.5C 656.667,165.167 656.667,158.833 656,152.5C 654.583,151.922 653.75,150.922 653.5,149.5 Z"/></g>
<g><path style="opacity:1" fill="#225a8d" d="M 840.5,149.5 C 847.148,147.71 850.814,150.043 851.5,156.5C 848.891,156.17 847.224,154.67 846.5,152C 843.975,151.104 841.808,151.604 840,153.5C 838,158.833 838,164.167 840,169.5C 843.465,172.128 846.965,172.128 850.5,169.5C 851.881,172.318 850.881,173.818 847.5,174C 837.985,175.153 833.652,170.82 834.5,161C 834.025,155.781 836.025,151.948 840.5,149.5 Z"/></g>
<g><path style="opacity:1" fill="#235b92" d="M 729.5,155.5 C 729.5,157.5 729.5,159.5 729.5,161.5C 724.637,161.181 719.97,161.514 715.5,162.5C 716.265,172.001 720.598,174.001 728.5,168.5C 729.583,169.365 729.749,170.365 729,171.5C 723.391,175.716 718.058,175.383 713,170.5C 711.508,165.589 711.174,160.589 712,155.5C 715.26,149.354 720.093,147.854 726.5,151C 727.883,152.271 728.883,153.771 729.5,155.5 Z"/></g>
<g><path style="opacity:1" fill="#0358a2" d="M 820.5,170.5 C 820.81,167.287 820.477,164.287 819.5,161.5C 819.5,160.833 819.5,160.167 819.5,159.5C 820.314,157.369 820.814,155.036 821,152.5C 821.333,152.833 821.667,153.167 822,153.5C 822.667,159.5 822.667,165.5 822,171.5C 821.617,170.944 821.117,170.611 820.5,170.5 Z"/></g>
<g><path style="opacity:1" fill="#e44f46" d="M 910.5,141.5 C 915.206,143.367 918.873,146.533 921.5,151C 920.046,152.659 918.713,152.326 917.5,150C 916.5,149.333 915.5,149.333 914.5,150C 911,153.5 907.5,157 904,160.5C 903.333,161.167 903.333,161.833 904,162.5C 905.487,163.155 906.653,164.155 907.5,165.5C 907,165.833 906.5,166.167 906,166.5C 901.012,164.934 896.846,162.267 893.5,158.5C 894.687,156.188 896.02,156.354 897.5,159C 898.833,159.667 900.167,159.667 901.5,159C 905.333,155.167 909.167,151.333 913,147.5C 912.517,145.463 911.684,143.463 910.5,141.5 Z"/></g>
<g><path style="opacity:1" fill="#0159a5" d="M 456.5,151.5 C 457.117,151.611 457.617,151.944 458,152.5C 458.831,159.192 458.664,165.858 457.5,172.5C 456.503,165.532 456.17,158.532 456.5,151.5 Z"/></g>
<g><path style="opacity:1" fill="#b9daf3" d="M 313.5,144.5 C 313.5,148.167 313.5,151.833 313.5,155.5C 317.833,155.5 322.167,155.5 326.5,155.5C 326.5,151.833 326.5,148.167 326.5,144.5C 327.483,148.298 327.817,152.298 327.5,156.5C 322.5,156.5 317.5,156.5 312.5,156.5C 312.183,152.298 312.517,148.298 313.5,144.5 Z"/></g>
<g><path style="opacity:1" fill="#265a8a" d="M 788.5,151.5 C 790.153,153.839 791.487,153.339 792.5,150C 796.175,148.703 798.842,149.703 800.5,153C 798.947,156.283 797.281,156.283 795.5,153C 794.5,152.333 793.5,152.333 792.5,153C 791.54,154.419 790.707,155.919 790,157.5C 789.333,162.167 789.333,166.833 790,171.5C 791.509,172.09 793.009,172.756 794.5,173.5C 790.167,174.833 785.833,174.833 781.5,173.5C 782.628,172.738 783.795,172.071 785,171.5C 785.667,165.167 785.667,158.833 785,152.5C 780.582,151.042 780.582,150.042 785,149.5C 786.681,149.608 787.848,150.275 788.5,151.5 Z"/></g>
<g><path style="opacity:1" fill="#0158a4" d="M 788.5,151.5 C 788.83,158.532 788.497,165.532 787.5,172.5C 787.167,169 786.833,165.5 786.5,162C 786.512,158.098 787.179,154.598 788.5,151.5 Z"/></g>
<g><path style="opacity:1" fill="#235b92" d="M 526.5,141.5 C 530.637,141.146 534.637,141.646 538.5,143C 541.487,146.208 540.82,148.041 536.5,148.5C 535.826,143.849 533.159,142.349 528.5,144C 525.878,147.13 525.878,150.297 528.5,153.5C 533.195,155.343 537.362,158.009 541,161.5C 541.815,172.012 536.981,176.178 526.5,174C 522.329,172.55 520.995,169.883 522.5,166C 523.448,165.517 524.448,165.351 525.5,165.5C 526.07,172.225 529.403,174.058 535.5,171C 538.167,168 538.167,165 535.5,162C 530.087,160.387 525.92,157.22 523,152.5C 521.662,147.96 522.829,144.293 526.5,141.5 Z"/></g>
<g><path style="opacity:1" fill="#e7f6f8" d="M 719.5,151.5 C 724.119,152.127 726.119,154.794 725.5,159.5C 722.167,159.5 718.833,159.5 715.5,159.5C 715.278,155.944 716.611,153.277 719.5,151.5 Z"/></g>
<g><path style="opacity:1" fill="#e8f3f7" d="M 224.5,146.5 C 225.482,149.962 225.815,153.629 225.5,157.5C 223.96,159.838 223.294,162.505 223.5,165.5C 225.167,165.5 226.833,165.5 228.5,165.5C 228.721,162.721 228.388,160.054 227.5,157.5C 227.5,153.5 227.5,149.5 227.5,145.5C 228.091,144.849 228.757,144.182 229.5,143.5C 226.652,142.341 223.985,141.008 221.5,139.5C 225.216,140.319 228.882,140.319 232.5,139.5C 235.413,141.901 235.079,143.234 231.5,143.5C 233.056,151.265 232.722,158.932 230.5,166.5C 227.525,166.307 225.025,167.307 223,169.5C 221.542,164.406 220.709,164.739 220.5,170.5C 219.5,170.5 218.5,170.5 217.5,170.5C 218.983,167.589 218.65,164.922 216.5,162.5C 215.432,161.566 214.099,161.232 212.5,161.5C 212.5,165.167 212.5,168.833 212.5,172.5C 211.677,169.023 211.177,165.356 211,161.5C 210.667,168.833 210.333,176.167 210,183.5C 209.296,185.727 208.129,186.06 206.5,184.5C 207.015,182.106 207.681,179.772 208.5,177.5C 209.488,172.36 209.821,167.026 209.5,161.5C 196.323,161.171 183.323,161.505 170.5,162.5C 170.5,167.833 170.5,173.167 170.5,178.5C 169.883,178.389 169.383,178.056 169,177.5C 168.667,172.167 168.333,166.833 168,161.5C 167.821,165.025 167.321,168.359 166.5,171.5C 166.5,168.167 166.5,164.833 166.5,161.5C 165.209,161.263 164.209,161.596 163.5,162.5C 162.5,163.167 161.5,163.833 160.5,164.5C 160.181,162.25 160.681,160.25 162,158.5C 162.725,160.158 163.892,160.658 165.5,160C 164.179,156.066 164.179,152.233 165.5,148.5C 165.196,146.204 164.196,145.871 162.5,147.5C 162.859,145.629 163.859,144.129 165.5,143C 181.483,137.093 197.483,137.093 213.5,143C 215.351,144.684 217.018,146.517 218.5,148.5C 220.323,147.253 222.323,146.586 224.5,146.5 Z"/></g>
<g><path style="opacity:1" fill="#1f5685" d="M 165.5,148.5 C 165.833,148.5 166.167,148.5 166.5,148.5C 166.5,151.167 166.5,153.833 166.5,156.5C 181.833,156.5 197.167,156.5 212.5,156.5C 212.5,153.833 212.5,151.167 212.5,148.5C 213.477,151.287 213.81,154.287 213.5,157.5C 197.5,157.5 181.5,157.5 165.5,157.5C 165.5,154.5 165.5,151.5 165.5,148.5 Z"/></g>
<g><path style="opacity:1" fill="#9fbeda" d="M 224.5,146.5 C 225.209,145.596 226.209,145.263 227.5,145.5C 227.5,149.5 227.5,153.5 227.5,157.5C 226.833,157.5 226.167,157.5 225.5,157.5C 225.815,153.629 225.482,149.962 224.5,146.5 Z"/></g>
<g><path style="opacity:1" fill="#0f5899" d="M 212.5,148.5 C 212.5,151.167 212.5,153.833 212.5,156.5C 197.167,156.5 181.833,156.5 166.5,156.5C 166.5,153.833 166.5,151.167 166.5,148.5C 166.953,147.542 167.619,146.708 168.5,146C 182.486,142.721 196.486,142.721 210.5,146C 211.381,146.708 212.047,147.542 212.5,148.5 Z"/></g>
<g><path style="opacity:1" fill="#255a8b" d="M 820.5,170.5 C 821.117,170.611 821.617,170.944 822,171.5C 822.667,165.5 822.667,159.5 822,153.5C 821.667,153.167 821.333,152.833 821,152.5C 820.814,155.036 820.314,157.369 819.5,159.5C 820.822,154.007 818.822,151.507 813.5,152C 811.963,153.11 811.297,154.61 811.5,156.5C 806.535,155.392 806.202,153.226 810.5,150C 815.109,148.926 819.276,149.76 823,152.5C 823.333,158.833 823.667,165.167 824,171.5C 824.925,172.047 825.758,172.713 826.5,173.5C 824.604,174.466 822.604,174.799 820.5,174.5C 820.5,173.167 820.5,171.833 820.5,170.5 Z"/></g>
<g><path style="opacity:1" fill="#628caf" d="M 170.5,162.5 C 183.323,161.505 196.323,161.171 209.5,161.5C 209.821,167.026 209.488,172.36 208.5,177.5C 208.5,172.5 208.5,167.5 208.5,162.5C 195.833,162.5 183.167,162.5 170.5,162.5 Z"/></g>
<g><path style="opacity:1" fill="#d9f0f9" d="M 323.5,174.5 C 322.566,173.432 322.232,172.099 322.5,170.5C 323.833,170.5 325.167,170.5 326.5,170.5C 326.5,166.833 326.5,163.167 326.5,159.5C 322.5,159.5 318.5,159.5 314.5,159.5C 314.5,163.5 314.5,167.5 314.5,171.5C 315.5,171.5 316.5,171.5 317.5,171.5C 317.5,172.833 317.5,174.167 317.5,175.5C 312.833,175.5 308.167,175.5 303.5,175.5C 303.5,174.167 303.5,172.833 303.5,171.5C 304.833,171.5 306.167,171.5 307.5,171.5C 306.602,172.158 305.602,172.824 304.5,173.5C 308.5,174.833 312.5,174.833 316.5,173.5C 315.372,172.738 314.205,172.071 313,171.5C 312.501,167.179 312.334,162.846 312.5,158.5C 317.5,158.5 322.5,158.5 327.5,158.5C 327.666,162.846 327.499,167.179 327,171.5C 325.271,171.974 324.105,172.974 323.5,174.5 Z"/></g>
<g><path style="opacity:1" fill="#1e5689" d="M 370.5,149.5 C 372.833,149.5 375.167,149.5 377.5,149.5C 377.238,150.978 377.571,152.311 378.5,153.5C 380.474,149.83 383.474,148.663 387.5,150C 390.303,152.222 390.137,154.055 387,155.5C 385.003,152.158 382.67,151.824 380,154.5C 378.43,160.053 378.097,165.719 379,171.5C 380.509,172.09 382.009,172.756 383.5,173.5C 379.167,174.833 374.833,174.833 370.5,173.5C 371.628,172.738 372.795,172.071 374,171.5C 374.667,165.167 374.667,158.833 374,152.5C 372.271,152.026 371.105,151.026 370.5,149.5 Z"/></g>
<g><path style="opacity:1" fill="#93b7d5" d="M 568.5,161.5 C 564.03,162.486 559.363,162.819 554.5,162.5C 554.5,163.833 554.5,165.167 554.5,166.5C 553.549,165.081 553.216,163.415 553.5,161.5C 558.5,161.5 563.5,161.5 568.5,161.5 Z"/></g>
<g><path style="opacity:1" fill="#91b4d0" d="M 645.5,155.5 C 646.468,157.607 646.802,159.941 646.5,162.5C 641.5,162.5 636.5,162.5 631.5,162.5C 635.97,161.514 640.637,161.181 645.5,161.5C 645.5,159.5 645.5,157.5 645.5,155.5 Z"/></g>
<g><path style="opacity:1" fill="#91b4d0" d="M 729.5,155.5 C 730.468,157.607 730.802,159.941 730.5,162.5C 725.5,162.5 720.5,162.5 715.5,162.5C 719.97,161.514 724.637,161.181 729.5,161.5C 729.5,159.5 729.5,157.5 729.5,155.5 Z"/></g>
<g><path style="opacity:1" fill="#08579a" d="M 360.5,154.5 C 360.83,160.868 360.496,167.202 359.5,173.5C 358.833,167.012 358.167,160.679 357.5,154.5C 357.369,153.761 357.536,153.094 358,152.5C 358.708,153.381 359.542,154.047 360.5,154.5 Z"/></g>
<g><path style="opacity:1" fill="#2f6192" d="M 575.5,149.5 C 578.167,149.5 580.833,149.5 583.5,149.5C 583.443,153.133 584.443,153.3 586.5,150C 592.15,148.242 595.983,150.076 598,155.5C 598.499,161.157 598.666,166.824 598.5,172.5C 599.675,172.281 600.675,172.614 601.5,173.5C 598.914,174.48 596.247,174.813 593.5,174.5C 593.666,167.825 593.5,161.158 593,154.5C 589.706,151.689 586.706,152.022 584,155.5C 583.333,160.833 583.333,166.167 584,171.5C 585.205,172.071 586.372,172.738 587.5,173.5C 583.5,174.833 579.5,174.833 575.5,173.5C 576.628,172.738 577.795,172.071 579,171.5C 579.667,165.167 579.667,158.833 579,152.5C 577.271,152.026 576.105,151.026 575.5,149.5 Z"/></g>
<g><path style="opacity:1" fill="#0059a7" d="M 580.5,151.5 C 581.117,151.611 581.617,151.944 582,152.5C 582.831,159.192 582.664,165.858 581.5,172.5C 580.503,165.532 580.17,158.532 580.5,151.5 Z"/></g>
<g><path style="opacity:1" fill="#155793" d="M 752.5,143.5 C 754.607,142.532 756.941,142.198 759.5,142.5C 759.178,148.358 759.511,154.025 760.5,159.5C 759.213,163.268 759.213,166.935 760.5,170.5C 761.79,171.935 763.456,172.935 765.5,173.5C 760.833,174.833 756.167,174.833 751.5,173.5C 753.193,172.772 754.693,171.772 756,170.5C 756.667,162.167 756.667,153.833 756,145.5C 755.184,144.177 754.017,143.511 752.5,143.5 Z"/></g>
<g><path style="opacity:1" fill="#316294" d="M 819.5,159.5 C 819.5,160.167 819.5,160.833 819.5,161.5C 820.477,164.287 820.81,167.287 820.5,170.5C 817.653,173.909 813.987,175.076 809.5,174C 803.938,168.837 804.271,164.171 810.5,160C 813.482,159.502 816.482,159.335 819.5,159.5 Z"/></g>
<g><path style="opacity:1" fill="#215a90" d="M 568.5,161.5 C 563.5,161.5 558.5,161.5 553.5,161.5C 553.216,163.415 553.549,165.081 554.5,166.5C 555.843,171.078 558.843,172.578 563.5,171C 564.931,170.535 566.097,169.701 567,168.5C 567.711,170.367 567.211,171.867 565.5,173C 557.527,176.264 552.361,173.764 550,165.5C 547.751,153.081 552.584,148.247 564.5,151C 568.048,153.591 569.382,157.091 568.5,161.5 Z"/></g>
<g><path style="opacity:1" fill="#e3f4f9" d="M 556.5,152.5 C 562.284,151.284 564.951,153.618 564.5,159.5C 560.833,159.5 557.167,159.5 553.5,159.5C 553.688,156.794 554.688,154.461 556.5,152.5 Z"/></g>
<g><path style="opacity:1" fill="#eff8fa" d="M 819.5,161.5 C 820.826,168.327 818.16,171.494 811.5,171C 808.844,163.484 811.511,160.317 819.5,161.5 Z"/></g>
<g><path style="opacity:1" fill="#1d5a95" d="M 163.5,162.5 C 164.765,163.514 165.431,165.014 165.5,167C 165.431,168.986 164.765,170.486 163.5,171.5C 160.908,169.964 159.908,167.631 160.5,164.5C 161.5,163.833 162.5,163.167 163.5,162.5 Z"/></g>
<g><path style="opacity:1" fill="#115898" d="M 170.5,162.5 C 183.167,162.5 195.833,162.5 208.5,162.5C 208.5,167.5 208.5,172.5 208.5,177.5C 207.681,179.772 207.015,182.106 206.5,184.5C 199.492,192.947 190.825,195.28 180.5,191.5C 175.698,188.356 172.365,184.023 170.5,178.5C 170.5,173.167 170.5,167.833 170.5,162.5 Z"/></g>
<g><path style="opacity:1" fill="#316492" d="M 225.5,157.5 C 226.167,157.5 226.833,157.5 227.5,157.5C 228.388,160.054 228.721,162.721 228.5,165.5C 226.833,165.5 225.167,165.5 223.5,165.5C 223.294,162.505 223.96,159.838 225.5,157.5 Z"/></g>
<g><path style="opacity:1" fill="#215a90" d="M 393.5,149.5 C 397.226,149.177 400.893,149.511 404.5,150.5C 403.675,151.386 402.675,151.719 401.5,151.5C 402.346,157.709 404.013,163.709 406.5,169.5C 408.89,164.663 410.89,159.663 412.5,154.5C 412.272,152.603 411.272,151.27 409.5,150.5C 412.5,149.167 415.5,149.167 418.5,150.5C 416.282,151.924 414.782,153.924 414,156.5C 412.197,162.242 410.197,167.909 408,173.5C 406.644,174.38 405.144,174.714 403.5,174.5C 401.514,165.478 398.18,157.144 393.5,149.5 Z"/></g>
<g><path style="opacity:1" fill="#85aac2" d="M 216.5,162.5 C 215.5,162.5 214.5,162.5 213.5,162.5C 212.945,166.012 213.612,169.012 215.5,171.5C 214.791,172.404 213.791,172.737 212.5,172.5C 212.5,168.833 212.5,165.167 212.5,161.5C 214.099,161.232 215.432,161.566 216.5,162.5 Z"/></g>
<g><path style="opacity:1" fill="#285c8f" d="M 428.5,149.5 C 433.849,148.461 438.349,149.795 442,153.5C 442.333,159.5 442.667,165.5 443,171.5C 443.925,172.047 444.758,172.713 445.5,173.5C 443.604,174.466 441.604,174.799 439.5,174.5C 439.762,173.022 439.429,171.689 438.5,170.5C 434.834,174.735 430.668,175.402 426,172.5C 423.226,162.098 427.393,157.765 438.5,159.5C 439.667,153.504 437.334,151.004 431.5,152C 430.62,153.356 430.286,154.856 430.5,156.5C 425.995,155.498 425.328,153.165 428.5,149.5 Z"/></g>
<g><path style="opacity:1" fill="#145794" d="M 216.5,162.5 C 218.65,164.922 218.983,167.589 217.5,170.5C 216.833,170.833 216.167,171.167 215.5,171.5C 213.612,169.012 212.945,166.012 213.5,162.5C 214.5,162.5 215.5,162.5 216.5,162.5 Z"/></g>
<g><path style="opacity:1" fill="#eef6fa" d="M 431.5,161.5 C 433.833,161.5 436.167,161.5 438.5,161.5C 439.605,168.87 436.605,172.037 429.5,171C 427.861,167.327 428.528,164.16 431.5,161.5 Z"/></g>
<g><path style="opacity:1" fill="#5c859f" d="M 163.5,162.5 C 164.209,161.596 165.209,161.263 166.5,161.5C 166.5,164.833 166.5,168.167 166.5,171.5C 165.5,172.833 164.5,172.833 163.5,171.5C 164.765,170.486 165.431,168.986 165.5,167C 165.431,165.014 164.765,163.514 163.5,162.5 Z"/></g>
<g><path style="opacity:1" fill="#e4534a" d="M 928.5,151.5 C 930.225,151.843 930.725,152.843 930,154.5C 928.5,156 927,157.5 925.5,159C 928.922,161.719 931.422,164.886 933,168.5C 926.616,174.555 919.949,180.222 913,185.5C 908.893,184.23 906.393,181.564 905.5,177.5C 908.325,178.143 910.825,179.477 913,181.5C 918.85,177.647 924.017,172.98 928.5,167.5C 927.557,164.891 925.89,162.891 923.5,161.5C 919.244,165.253 914.577,168.42 909.5,171C 905.414,173.053 901.08,173.887 896.5,173.5C 896.5,172.5 896.5,171.5 896.5,170.5C 906.336,170.496 914.336,166.663 920.5,159C 919.491,157.832 918.491,156.665 917.5,155.5C 917.709,154.914 918.043,154.414 918.5,154C 920.417,154.027 922.084,154.861 923.5,156.5C 925.521,155.145 927.188,153.479 928.5,151.5 Z"/></g>
<g><path style="opacity:1" fill="#245b91" d="M 645.5,155.5 C 645.5,157.5 645.5,159.5 645.5,161.5C 640.637,161.181 635.97,161.514 631.5,162.5C 632.295,172.003 636.628,174.003 644.5,168.5C 645.583,169.365 645.749,170.365 645,171.5C 640,175.5 635,175.5 630,171.5C 627.576,166.43 626.909,161.097 628,155.5C 631.26,149.354 636.093,147.854 642.5,151C 643.883,152.271 644.883,153.771 645.5,155.5 Z"/></g>
<g><path style="opacity:1" fill="#f0f8f9" d="M 633.5,152.5 C 639.334,151.337 642,153.671 641.5,159.5C 638.167,159.5 634.833,159.5 631.5,159.5C 631.394,156.921 632.061,154.588 633.5,152.5 Z"/></g>
<g><path style="opacity:1" fill="#f2fcfc" d="M 185.5,168.5 C 185.5,170.5 185.5,172.5 185.5,174.5C 187.833,174.5 190.167,174.5 192.5,174.5C 192.5,172.5 192.5,170.5 192.5,168.5C 193.5,168.5 194.5,168.5 195.5,168.5C 195.5,173.833 195.5,179.167 195.5,184.5C 194.5,184.5 193.5,184.5 192.5,184.5C 192.5,182.167 192.5,179.833 192.5,177.5C 190.167,177.5 187.833,177.5 185.5,177.5C 185.5,179.833 185.5,182.167 185.5,184.5C 184.5,184.5 183.5,184.5 182.5,184.5C 182.5,179.167 182.5,173.833 182.5,168.5C 183.5,168.5 184.5,168.5 185.5,168.5 Z"/></g>
<g><path style="opacity:1" fill="#84aac7" d="M 185.5,168.5 C 184.5,168.5 183.5,168.5 182.5,168.5C 182.5,173.833 182.5,179.167 182.5,184.5C 181.511,179.025 181.178,173.358 181.5,167.5C 183.099,167.232 184.432,167.566 185.5,168.5 Z"/></g>
<g><path style="opacity:1" fill="#3a6895" d="M 357.5,154.5 C 358.167,160.679 358.833,167.012 359.5,173.5C 360.496,167.202 360.83,160.868 360.5,154.5C 360.913,160.862 361.913,167.195 363.5,173.5C 361.604,174.466 359.604,174.799 357.5,174.5C 357.657,173.127 357.49,171.793 357,170.5C 352.884,175.249 348.551,175.582 344,171.5C 342.795,161.55 347.295,157.55 357.5,159.5C 357.5,157.833 357.5,156.167 357.5,154.5 Z"/></g>
<g><path style="opacity:1" fill="#eff7f9" d="M 350.5,161.5 C 352.5,161.5 354.5,161.5 356.5,161.5C 358.365,169.466 355.532,172.466 348,170.5C 346.779,166.718 347.613,163.718 350.5,161.5 Z"/></g>
<g><path style="opacity:1" fill="#275d92" d="M 488.5,139.5 C 491.167,139.5 493.833,139.5 496.5,139.5C 496.333,150.172 496.5,160.839 497,171.5C 498.205,172.071 499.372,172.738 500.5,173.5C 498.257,174.474 495.924,174.808 493.5,174.5C 493.762,173.022 493.429,171.689 492.5,170.5C 489.253,174.654 485.253,175.487 480.5,173C 475.306,165.621 475.306,158.287 480.5,151C 484.714,148.731 488.547,149.231 492,152.5C 492.667,149.167 492.667,145.833 492,142.5C 490.271,142.026 489.105,141.026 488.5,139.5 Z"/></g>
<g><path style="opacity:1" fill="#f3f8f9" d="M 483.5,152.5 C 486.97,151.875 489.804,152.875 492,155.5C 492.667,159.833 492.667,164.167 492,168.5C 488.492,172.436 485.159,172.436 482,168.5C 481.003,162.95 481.503,157.617 483.5,152.5 Z"/></g>
<g><path style="opacity:1" fill="#275d90" d="M 691.5,149.5 C 694.941,149.301 698.274,149.801 701.5,151C 703.155,152.444 703.822,154.278 703.5,156.5C 702.167,156.5 700.833,156.5 699.5,156.5C 698.661,151.332 696.161,150.332 692,153.5C 690.466,157.711 690.133,162.044 691,166.5C 692.077,171.115 694.91,172.615 699.5,171C 700.931,170.535 702.097,169.701 703,168.5C 703.781,169.944 703.614,171.277 702.5,172.5C 692.056,176.778 686.723,173.278 686.5,162C 685.832,156.845 687.498,152.678 691.5,149.5 Z"/></g>
<g><path style="opacity:1" fill="#2d6096" d="M 862.5,159.5 C 863.833,160.167 864.833,161.167 865.5,162.5C 865.336,165.187 865.503,167.854 866,170.5C 867.491,172.004 869.324,172.837 871.5,173C 863.823,176.5 860.49,174 861.5,165.5C 861.505,163.304 861.838,161.304 862.5,159.5 Z"/></g>
<g><path style="opacity:1" fill="#afd3ef" d="M 192.5,168.5 C 193.568,167.566 194.901,167.232 196.5,167.5C 196.822,173.358 196.489,179.025 195.5,184.5C 195.5,179.167 195.5,173.833 195.5,168.5C 194.5,168.5 193.5,168.5 192.5,168.5 Z"/></g>
<g><path style="opacity:1" fill="#e5584f" d="M 951.5,188.5 C 950.167,188.5 948.833,188.5 947.5,188.5C 947.657,187.127 947.49,185.793 947,184.5C 944,181.833 941,179.167 938,176.5C 937.517,175.552 937.351,174.552 937.5,173.5C 942.167,173.167 946.833,172.833 951.5,172.5C 951.5,173.5 951.5,174.5 951.5,175.5C 948.428,175.183 945.428,175.516 942.5,176.5C 943.833,178.5 945.5,180.167 947.5,181.5C 948.719,180.737 949.719,179.737 950.5,178.5C 951.487,181.768 951.82,185.102 951.5,188.5 Z"/></g>
<g><path style="opacity:1" fill="#e3534a" d="M 935.5,178.5 C 939.295,181.464 942.628,184.964 945.5,189C 941.529,193.973 937.195,198.639 932.5,203C 928.635,204.349 926.468,203.182 926,199.5C 926.333,199.167 926.667,198.833 927,198.5C 930.355,201.382 932.355,200.716 933,196.5C 931.281,194.443 929.281,192.776 927,191.5C 925.337,193.328 923.504,194.995 921.5,196.5C 920.692,196.192 920.025,195.692 919.5,195C 925.036,189.631 930.37,184.131 935.5,178.5 Z"/></g>
<g><path style="opacity:1" fill="#febcbd" d="M 935.5,182.5 C 938.687,184.344 940.687,187.011 941.5,190.5C 938.386,189.909 935.886,188.242 934,185.5C 933.761,184.212 934.261,183.212 935.5,182.5 Z"/></g>
<g><path style="opacity:1" fill="#e1534a" d="M 951.5,188.5 C 954.147,186.189 956.814,183.856 959.5,181.5C 960.515,184.018 959.848,186.185 957.5,188C 959.942,190.428 962.942,191.595 966.5,191.5C 966.5,192.5 966.5,193.5 966.5,194.5C 961.929,193.803 957.596,192.636 953.5,191C 952.643,191.689 951.977,192.522 951.5,193.5C 952.982,195.483 954.649,197.316 956.5,199C 958.464,199.624 960.131,199.124 961.5,197.5C 962.9,199.782 962.234,201.282 959.5,202C 958.167,202.667 956.833,202.667 955.5,202C 953.333,199.833 951.167,197.667 949,195.5C 948.333,194.167 948.333,192.833 949,191.5C 950.045,190.627 950.878,189.627 951.5,188.5 Z"/></g>
<g><path style="opacity:1" fill="#fdc0c1" d="M 930.5,187.5 C 934.378,188.233 936.711,190.566 937.5,194.5C 934.213,193.736 931.546,191.903 929.5,189C 930.056,188.617 930.389,188.117 930.5,187.5 Z"/></g>
<g><path style="opacity:1" fill="#e3534a" d="M 944.5,195.5 C 945.5,195.5 946.5,195.5 947.5,195.5C 946.836,197.867 945.503,199.867 943.5,201.5C 946.447,203.704 949.78,204.704 953.5,204.5C 953.5,205.5 953.5,206.5 953.5,207.5C 948.745,206.737 944.078,205.904 939.5,205C 937.923,208.482 938.923,211.148 942.5,213C 943.5,213.667 944.5,213.667 945.5,213C 946.713,210.674 948.046,210.341 949.5,212C 948.451,214.698 946.451,216.198 943.5,216.5C 940.257,214.765 937.423,212.432 935,209.5C 934.333,208.167 934.333,206.833 935,205.5C 938.371,202.297 941.538,198.964 944.5,195.5 Z"/></g>
<g><path style="opacity:1" fill="#cde2f1" d="M 747.5,204.5 C 740.5,204.5 733.5,204.5 726.5,204.5C 726.5,205.833 726.5,207.167 726.5,208.5C 727.873,208.343 729.207,208.51 730.5,209C 729.663,210.011 729.33,211.178 729.5,212.5C 728.251,211.222 726.751,210.222 725,209.5C 724.505,207.527 724.338,205.527 724.5,203.5C 732.352,203.175 740.018,203.508 747.5,204.5 Z"/></g>
<g><path style="opacity:1" fill="#105695" d="M 653.5,205.5 C 653.135,209.893 650.801,212.893 646.5,214.5C 645.244,214.539 644.244,214.039 643.5,213C 644.756,212.583 645.423,211.75 645.5,210.5C 645.5,209.833 645.167,209.5 644.5,209.5C 634.347,208.506 624.014,208.172 613.5,208.5C 613.5,207.5 613.5,206.5 613.5,205.5C 626.833,205.5 640.167,205.5 653.5,205.5 Z"/></g>
<g><path style="opacity:1" fill="#275781" d="M 315.5,210.5 C 315.209,209.351 314.376,208.684 313,208.5C 310.725,208.278 309.559,209.278 309.5,211.5C 307.986,210.32 306.319,209.32 304.5,208.5C 309.833,207.167 315.167,207.167 320.5,208.5C 318.861,209.322 317.195,209.989 315.5,210.5 Z"/></g>
<g><path style="opacity:1" fill="#1d5a93" d="M 577.5,249.5 C 580.203,247.89 583.203,246.89 586.5,246.5C 587.496,246.586 588.329,246.252 589,245.5C 590.406,234.564 590.906,223.564 590.5,212.5C 581.161,212.334 571.827,212.5 562.5,213C 561.167,215 559.833,217 558.5,219C 566.159,219.5 573.826,219.666 581.5,219.5C 581.5,227.167 581.5,234.833 581.5,242.5C 581.167,242.5 580.833,242.5 580.5,242.5C 580.5,235.167 580.5,227.833 580.5,220.5C 573.167,220.5 565.833,220.5 558.5,220.5C 557.508,220.328 556.842,220.662 556.5,221.5C 553.139,227.05 550.972,226.717 550,220.5C 555.115,214.56 559.615,208.227 563.5,201.5C 567.907,202.126 568.573,203.959 565.5,207C 575.494,207.5 585.494,207.666 595.5,207.5C 595.667,220.171 595.5,232.838 595,245.5C 594.208,247.587 593.041,249.421 591.5,251C 586.934,252.309 582.267,252.809 577.5,252.5C 577.5,251.5 577.5,250.5 577.5,249.5 Z"/></g>
<g><path style="opacity:1" fill="#1f5b95" d="M 204.5,205.5 C 205.209,206.404 206.209,206.737 207.5,206.5C 205.588,209.919 203.088,212.919 200,215.5C 198.037,214.375 196.204,213.041 194.5,211.5C 197.557,208.974 200.891,206.974 204.5,205.5 Z"/></g>
<g><path style="opacity:1" fill="#2c5c82" d="M 653.5,205.5 C 640.167,205.5 626.833,205.5 613.5,205.5C 613.5,206.5 613.5,207.5 613.5,208.5C 624.014,208.172 634.347,208.506 644.5,209.5C 633.833,209.5 623.167,209.5 612.5,209.5C 612.5,207.833 612.5,206.167 612.5,204.5C 626.344,204.171 640.01,204.504 653.5,205.5 Z"/></g>
<g><path style="opacity:1" fill="#2e6295" d="M 712.5,234.5 C 712.5,228.5 712.5,222.5 712.5,216.5C 708.818,216.335 705.152,216.501 701.5,217C 704.166,218.061 706.833,218.894 709.5,219.5C 706.833,219.5 704.167,219.5 701.5,219.5C 701.5,222.833 701.5,226.167 701.5,229.5C 700.833,220.991 700.167,212.324 699.5,203.5C 698.205,206.012 697.539,208.679 697.5,211.5C 693.5,211.5 689.5,211.5 685.5,211.5C 685.5,210.167 685.5,208.833 685.5,207.5C 689.371,207.815 693.038,207.482 696.5,206.5C 697.451,205.081 697.784,203.415 697.5,201.5C 698.833,201.5 700.167,201.5 701.5,201.5C 701.5,203.5 701.5,205.5 701.5,207.5C 706.167,207.5 710.833,207.5 715.5,207.5C 715.5,208.833 715.5,210.167 715.5,211.5C 710.833,211.5 706.167,211.5 701.5,211.5C 701.5,212.833 701.5,214.167 701.5,215.5C 705.5,215.5 709.5,215.5 713.5,215.5C 713.823,222.022 713.49,228.355 712.5,234.5 Z"/></g>
<g><path style="opacity:1" fill="#185996" d="M 159.5,211.5 C 159.5,211.167 159.5,210.833 159.5,210.5C 161.601,208.891 163.935,208.391 166.5,209C 169.833,212.333 173.167,215.667 176.5,219C 179.043,219.14 181.377,219.806 183.5,221C 182.406,222.78 181.406,224.614 180.5,226.5C 178.902,227.485 177.235,227.651 175.5,227C 168.975,222.974 163.642,217.807 159.5,211.5 Z"/></g>
<g><path style="opacity:1" fill="#215b92" d="M 769.5,224.5 C 768.167,224.5 766.833,224.5 765.5,224.5C 765.785,222.712 765.452,221.045 764.5,219.5C 763.893,219.624 763.56,219.957 763.5,220.5C 759.561,221.535 755.728,222.869 752,224.5C 750.422,223.289 750.255,221.955 751.5,220.5C 753.385,219.391 755.385,218.557 757.5,218C 755.316,215.984 753.316,213.817 751.5,211.5C 754.251,208.945 753.584,207.945 749.5,208.5C 749.5,207.167 749.5,205.833 749.5,204.5C 756.167,204.5 762.833,204.5 769.5,204.5C 769.5,211.167 769.5,217.833 769.5,224.5 Z"/></g>
<g><path style="opacity:1" fill="#e05d56" d="M 963.5,205.5 C 968.072,208.563 972.239,212.23 976,216.5C 976.749,217.635 976.583,218.635 975.5,219.5C 970.323,215.671 966.323,211.004 963.5,205.5 Z"/></g>
<g><path style="opacity:1" fill="#e3f2f8" d="M 754.5,209.5 C 757.962,208.518 761.629,208.185 765.5,208.5C 766.689,214.511 764.356,217.344 758.5,217C 759.167,216.333 759.833,215.667 760.5,215C 758.63,212.96 756.63,211.127 754.5,209.5 Z"/></g>
<g><path style="opacity:1" fill="#0d589a" d="M 157.5,214.5 C 165.331,226.165 176.165,233.165 190,235.5C 204.359,233.075 214.859,225.408 221.5,212.5C 222.239,212.369 222.906,212.536 223.5,213C 230.497,220.331 236.331,228.498 241,237.5C 242.492,242.411 242.826,247.411 242,252.5C 241.626,254.491 240.793,256.158 239.5,257.5C 205.457,257.82 171.457,257.486 137.5,256.5C 135.015,250.616 134.848,244.616 137,238.5C 141.401,228.431 147.734,219.764 156,212.5C 156.717,213.044 157.217,213.711 157.5,214.5 Z"/></g>
<g><path style="opacity:1" fill="#20598b" d="M 645.5,210.5 C 645.423,211.75 644.756,212.583 643.5,213C 644.244,214.039 645.244,214.539 646.5,214.5C 643.402,216.892 640.069,219.058 636.5,221C 635.663,222.011 635.33,223.178 635.5,224.5C 642.5,224.5 649.5,224.5 656.5,224.5C 656.5,224.833 656.5,225.167 656.5,225.5C 649.167,225.5 641.833,225.5 634.5,225.5C 634.799,223.396 634.466,221.396 633.5,219.5C 632.964,221.969 631.964,224.136 630.5,226C 623.809,226.169 617.142,226.669 610.5,227.5C 616.988,228.167 623.321,228.833 629.5,229.5C 622.5,229.5 615.5,229.5 608.5,229.5C 608.5,227.833 608.5,226.167 608.5,224.5C 615.833,224.5 623.167,224.5 630.5,224.5C 630.261,222.533 630.594,220.699 631.5,219C 636.316,216.338 640.982,213.505 645.5,210.5 Z"/></g>
<g><path style="opacity:1" fill="#e9f5f9" d="M 206.5,184.5 C 206.123,186.258 205.456,187.925 204.5,189.5C 205.504,191.677 204.838,192.011 202.5,190.5C 201.692,190.808 201.025,191.308 200.5,192C 200.629,195.955 200.629,200.122 200.5,204.5C 202.099,204.232 203.432,204.566 204.5,205.5C 200.891,206.974 197.557,208.974 194.5,211.5C 196.204,213.041 198.037,214.375 200,215.5C 203.088,212.919 205.588,209.919 207.5,206.5C 210.813,207.045 214.146,207.545 217.5,208C 218.056,208.383 218.389,208.883 218.5,209.5C 219.272,210.694 220.272,211.694 221.5,212.5C 214.859,225.408 204.359,233.075 190,235.5C 176.165,233.165 165.331,226.165 157.5,214.5C 160.687,215.837 161.354,214.837 159.5,211.5C 163.642,217.807 168.975,222.974 175.5,227C 177.235,227.651 178.902,227.485 180.5,226.5C 181.406,224.614 182.406,222.78 183.5,221C 181.377,219.806 179.043,219.14 176.5,219C 173.167,215.667 169.833,212.333 166.5,209C 163.935,208.391 161.601,208.891 159.5,210.5C 160.286,208.265 161.952,207.265 164.5,207.5C 166.481,207.437 168.148,208.104 169.5,209.5C 170.176,208.398 170.842,207.398 171.5,206.5C 171.624,204.418 172.624,202.918 174.5,202C 174.167,201.667 173.833,201.333 173.5,201C 175.166,198.52 175.999,195.687 176,192.5C 176.175,196.211 176.675,199.878 177.5,203.5C 178.168,200.694 178.834,198.028 179.5,195.5C 180.234,194.292 180.567,192.959 180.5,191.5C 190.825,195.28 199.492,192.947 206.5,184.5 Z"/></g>
<g><path style="opacity:1" fill="#265a8b" d="M 187.5,214.5 C 190.022,214.128 192.022,214.961 193.5,217C 190.833,219 188.167,219 185.5,217C 186.381,216.292 187.047,215.458 187.5,214.5 Z"/></g>
<g><path style="opacity:1" fill="#296096" d="M 171.5,206.5 C 173.512,205.986 175.512,205.82 177.5,206C 180.029,208.029 182.696,209.862 185.5,211.5C 183.772,213.226 181.772,214.559 179.5,215.5C 176.074,213.08 173.408,210.08 171.5,206.5 Z"/></g>
<g><path style="opacity:1" fill="#1f5c98" d="M 179.5,195.5 C 182.418,196.454 185.418,197.121 188.5,197.5C 192.207,196.989 195.874,196.322 199.5,195.5C 200.047,202.639 196.714,206.972 189.5,208.5C 182.286,206.972 178.953,202.639 179.5,195.5 Z"/></g>
<g><path style="opacity:1" fill="#195996" d="M 218.5,209.5 C 215.162,217.011 209.829,222.844 202.5,227C 200.888,227.72 199.388,227.554 198,226.5C 196.097,224.559 195.264,222.226 195.5,219.5C 197.527,219.662 199.527,219.495 201.5,219C 204.833,215.667 208.167,212.333 211.5,209C 213.797,208.982 216.131,209.149 218.5,209.5 Z"/></g>
<g><path style="opacity:1" fill="#2b5f93" d="M 357.5,217.5 C 361.514,217.334 365.514,217.501 369.5,218C 371.552,218.93 373.052,220.43 374,222.5C 374.333,229.5 374.667,236.5 375,243.5C 375.925,244.047 376.758,244.713 377.5,245.5C 375.257,246.474 372.924,246.808 370.5,246.5C 370.509,244.692 370.009,243.025 369,241.5C 365.702,246.22 361.202,247.72 355.5,246C 350.657,241.62 350.323,236.954 354.5,232C 358.922,229.896 363.588,229.063 368.5,229.5C 369.006,225.993 368.34,222.826 366.5,220C 361.556,218.633 358.89,220.466 358.5,225.5C 355.757,225.923 354.424,224.756 354.5,222C 354.557,219.791 355.557,218.291 357.5,217.5 Z"/></g>
<g><path style="opacity:1" fill="#db554d" d="M 958.5,211.5 C 962.964,215.463 967.298,219.63 971.5,224C 971,224.5 970.5,225 970,225.5C 965.779,221.279 961.613,217.113 957.5,213C 958.056,212.617 958.389,212.117 958.5,211.5 Z"/></g>
<g><path style="opacity:1" fill="#0b5698" d="M 558.5,220.5 C 565.833,220.5 573.167,220.5 580.5,220.5C 580.5,227.833 580.5,235.167 580.5,242.5C 573.167,242.5 565.833,242.5 558.5,242.5C 558.5,235.167 558.5,227.833 558.5,220.5 Z"/></g>
<g><path style="opacity:1" fill="#245c90" d="M 747.5,204.5 C 747.823,211.022 747.49,217.355 746.5,223.5C 746.5,217.5 746.5,211.5 746.5,205.5C 740.132,205.17 733.798,205.504 727.5,206.5C 732.792,207.495 738.125,207.828 743.5,207.5C 743.5,210.833 743.5,214.167 743.5,217.5C 738.26,218.413 738.26,219.413 743.5,220.5C 744.127,221.417 744.461,222.417 744.5,223.5C 742.952,223.179 742.285,222.179 742.5,220.5C 737.427,221.866 732.427,223.532 727.5,225.5C 725.404,224.38 725.07,222.88 726.5,221C 731.764,220.101 736.764,218.435 741.5,216C 742.435,213.619 742.768,211.119 742.5,208.5C 739.15,208.335 735.817,208.502 732.5,209C 734.557,210.719 736.224,212.719 737.5,215C 736.991,216.169 736.158,217.002 735,217.5C 733.296,215.627 731.463,213.96 729.5,212.5C 729.33,211.178 729.663,210.011 730.5,209C 729.207,208.51 727.873,208.343 726.5,208.5C 726.5,207.167 726.5,205.833 726.5,204.5C 733.5,204.5 740.5,204.5 747.5,204.5 Z"/></g>
<g><path style="opacity:1" fill="#08569c" d="M 746.5,223.5 C 745.833,223.5 745.167,223.5 744.5,223.5C 744.461,222.417 744.127,221.417 743.5,220.5C 738.26,219.413 738.26,218.413 743.5,217.5C 743.5,214.167 743.5,210.833 743.5,207.5C 738.125,207.828 732.792,207.495 727.5,206.5C 733.798,205.504 740.132,205.17 746.5,205.5C 746.5,211.5 746.5,217.5 746.5,223.5 Z"/></g>
<g><path style="opacity:1" fill="#1a5890" d="M 482.5,217.5 C 485.5,217.5 488.5,217.5 491.5,217.5C 491.215,219.288 491.548,220.955 492.5,222.5C 495.213,217.812 499.213,216.312 504.5,218C 505.576,219.726 505.743,221.559 505,223.5C 504.439,224.022 503.772,224.355 503,224.5C 498.612,218.841 495.279,219.508 493,226.5C 492.333,231.833 492.333,237.167 493,242.5C 494.6,243.866 496.433,244.866 498.5,245.5C 493.5,246.833 488.5,246.833 483.5,245.5C 484.76,244.618 485.926,243.618 487,242.5C 487.667,235.5 487.667,228.5 487,221.5C 485.933,220.809 484.766,220.309 483.5,220C 482.748,219.329 482.414,218.496 482.5,217.5 Z"/></g>
<g><path style="opacity:1" fill="#2b5e8b" d="M 562.5,224.5 C 567.64,223.512 572.974,223.179 578.5,223.5C 578.829,229.206 578.495,234.872 577.5,240.5C 572.701,239.883 568.034,239.216 563.5,238.5C 568.032,238.818 572.366,238.485 576.5,237.5C 576.5,233.167 576.5,228.833 576.5,224.5C 572.167,224.5 567.833,224.5 563.5,224.5C 563.167,224.5 562.833,224.5 562.5,224.5 Z"/></g>
<g><path style="opacity:1" fill="#8bb0cd" d="M 763.5,220.5 C 763.56,219.957 763.893,219.624 764.5,219.5C 765.452,221.045 765.785,222.712 765.5,224.5C 766.833,224.5 768.167,224.5 769.5,224.5C 768.081,225.451 766.415,225.784 764.5,225.5C 764.784,223.585 764.451,221.919 763.5,220.5 Z"/></g>
<g><path style="opacity:1" fill="#115694" d="M 656.5,225.5 C 656.5,226.833 656.5,228.167 656.5,229.5C 649.5,229.5 642.5,229.5 635.5,229.5C 635.5,235.5 635.5,241.5 635.5,247.5C 635.056,249.113 634.056,250.28 632.5,251C 628.848,251.499 625.182,251.665 621.5,251.5C 621.5,249.833 621.5,248.167 621.5,246.5C 624.448,246.777 627.281,246.444 630,245.5C 630.817,239.984 630.651,234.65 629.5,229.5C 623.321,228.833 616.988,228.167 610.5,227.5C 617.142,226.669 623.809,226.169 630.5,226C 631.964,224.136 632.964,221.969 633.5,219.5C 634.466,221.396 634.799,223.396 634.5,225.5C 641.833,225.5 649.167,225.5 656.5,225.5 Z"/></g>
<g><path style="opacity:1" fill="#175996" d="M 187.5,222.5 C 192.751,222.572 194.751,225.072 193.5,230C 184.852,232.528 182.852,230.028 187.5,222.5 Z"/></g>
<g><path style="opacity:1" fill="#1f5a93" d="M 412.5,217.5 C 416.884,217.174 421.217,217.508 425.5,218.5C 423.495,219.337 422.495,220.837 422.5,223C 424.071,229.38 426.238,235.546 429,241.5C 432.453,234.82 434.453,227.82 435,220.5C 434.075,219.953 433.242,219.287 432.5,218.5C 436.167,217.167 439.833,217.167 443.5,218.5C 440.744,220.091 438.911,222.424 438,225.5C 435.598,232.205 433.098,238.872 430.5,245.5C 428.647,246.76 426.814,246.76 425,245.5C 422.333,238.167 419.667,230.833 417,223.5C 415.612,221.298 414.112,219.298 412.5,217.5 Z"/></g>
<g><path style="opacity:1" fill="#1e5a93" d="M 309.5,211.5 C 309.559,209.278 310.725,208.278 313,208.5C 314.376,208.684 315.209,209.351 315.5,210.5C 315.5,215.167 315.5,219.833 315.5,224.5C 321.5,224.5 327.5,224.5 333.5,224.5C 333.666,220.154 333.499,215.821 333,211.5C 331.693,210.228 330.193,209.228 328.5,208.5C 333.5,207.167 338.5,207.167 343.5,208.5C 341.807,209.228 340.307,210.228 339,211.5C 338.333,221.833 338.333,232.167 339,242.5C 340.307,243.772 341.807,244.772 343.5,245.5C 338.5,246.833 333.5,246.833 328.5,245.5C 330.193,244.772 331.693,243.772 333,242.5C 333.499,237.511 333.666,232.511 333.5,227.5C 327.5,227.5 321.5,227.5 315.5,227.5C 315.334,232.844 315.501,238.177 316,243.5C 317.509,244.09 319.009,244.756 320.5,245.5C 315.167,246.833 309.833,246.833 304.5,245.5C 306.193,244.772 307.693,243.772 309,242.5C 309.5,232.172 309.666,221.839 309.5,211.5 Z"/></g>
<g><path style="opacity:1" fill="#1a568b" d="M 384.5,217.5 C 387.5,217.5 390.5,217.5 393.5,217.5C 393.215,219.288 393.548,220.955 394.5,222.5C 397.213,217.812 401.213,216.312 406.5,218C 407.576,219.726 407.743,221.559 407,223.5C 406.439,224.022 405.772,224.355 405,224.5C 402.35,219.824 399.35,219.491 396,223.5C 394.464,229.749 394.13,236.083 395,242.5C 396.6,243.866 398.433,244.866 400.5,245.5C 395.5,246.833 390.5,246.833 385.5,245.5C 386.76,244.618 387.926,243.618 389,242.5C 389.667,235.5 389.667,228.5 389,221.5C 387.141,220.421 385.641,219.088 384.5,217.5 Z"/></g>
<g><path style="opacity:1" fill="#0257a3" d="M 390.5,218.5 C 392.177,226.684 393.177,235.184 393.5,244C 392.552,244.483 391.552,244.649 390.5,244.5C 390.5,235.833 390.5,227.167 390.5,218.5 Z"/></g>
<g><path style="opacity:1" fill="#215a8e" d="M 532.5,207.5 C 533.828,212.288 534.495,217.454 534.5,223C 534.478,228.549 534.144,234.049 533.5,239.5C 534.041,241.535 534.708,243.535 535.5,245.5C 536.833,232.167 536.833,218.833 535.5,205.5C 533.974,205.994 532.641,206.661 531.5,207.5C 530.357,207.092 529.357,206.425 528.5,205.5C 531.428,204.516 534.428,204.183 537.5,204.5C 537.333,217.171 537.5,229.838 538,242.5C 539.307,243.772 540.807,244.772 542.5,245.5C 539.572,246.484 536.572,246.817 533.5,246.5C 533.66,244.801 533.494,243.134 533,241.5C 532.052,243.57 530.552,245.07 528.5,246C 517.235,247.904 512.235,243.071 513.5,231.5C 513.853,217.909 520.02,214.243 532,220.5C 532.499,216.179 532.666,211.846 532.5,207.5 Z"/></g>
<g><path style="opacity:1" fill="#0357a1" d="M 518.5,225.5 C 518.5,225.833 518.5,226.167 518.5,226.5C 516.888,229.744 515.888,233.411 515.5,237.5C 513.99,231.893 514.657,226.56 517.5,221.5C 518.429,222.689 518.762,224.022 518.5,225.5 Z"/></g>
<g><path style="opacity:1" fill="#0158a3" d="M 532.5,207.5 C 532.167,207.5 531.833,207.5 531.5,207.5C 532.641,206.661 533.974,205.994 535.5,205.5C 536.833,218.833 536.833,232.167 535.5,245.5C 534.708,243.535 534.041,241.535 533.5,239.5C 534.144,234.049 534.478,228.549 534.5,223C 534.495,217.454 533.828,212.288 532.5,207.5 Z"/></g>
<g><path style="opacity:1" fill="#f4f8fa" d="M 518.5,226.5 C 518.5,226.167 518.5,225.833 518.5,225.5C 522.5,219.309 527,218.975 532,224.5C 532.95,230.32 532.45,235.987 530.5,241.5C 525.538,244.812 521.705,243.812 519,238.5C 518.501,234.514 518.334,230.514 518.5,226.5 Z"/></g>
<g><path style="opacity:1" fill="#f7fafa" d="M 563.5,224.5 C 567.833,224.5 572.167,224.5 576.5,224.5C 576.5,228.833 576.5,233.167 576.5,237.5C 572.167,237.5 567.833,237.5 563.5,237.5C 563.5,233.167 563.5,228.833 563.5,224.5 Z"/></g>
<g><path style="opacity:1" fill="#225d99" d="M 748.5,224.5 C 748.286,226.144 748.62,227.644 749.5,229C 754.823,229.499 760.156,229.666 765.5,229.5C 765.5,236.5 765.5,243.5 765.5,250.5C 754.167,250.5 742.833,250.5 731.5,250.5C 731.5,243.167 731.5,235.833 731.5,228.5C 735.846,228.666 740.179,228.499 744.5,228C 745.337,226.989 745.67,225.822 745.5,224.5C 746.5,224.5 747.5,224.5 748.5,224.5 Z"/></g>
<g><path style="opacity:1" fill="#295e90" d="M 470.5,221.5 C 471.117,221.611 471.617,221.944 472,222.5C 472.333,229.5 472.667,236.5 473,243.5C 473.925,244.047 474.758,244.713 475.5,245.5C 473.257,246.474 470.924,246.808 468.5,246.5C 468.509,244.692 468.009,243.025 467,241.5C 463.702,246.22 459.202,247.72 453.5,246C 447.842,240.474 448.175,235.474 454.5,231C 458.73,229.71 463.064,229.21 467.5,229.5C 468.646,221.977 465.646,218.977 458.5,220.5C 457.05,221.85 456.383,223.516 456.5,225.5C 452.775,225.22 451.608,223.22 453,219.5C 457.609,217.49 462.442,216.99 467.5,218C 469.426,218.422 470.426,219.589 470.5,221.5 Z"/></g>
<g><path style="opacity:1" fill="#0158a4" d="M 470.5,221.5 C 470.666,229.174 470.5,236.841 470,244.5C 468.899,240.448 468.399,236.281 468.5,232C 468.512,228.098 469.179,224.598 470.5,221.5 Z"/></g>
<g><path style="opacity:1" fill="#175895" d="M 683.5,210.5 C 681.521,217.172 678.188,223.172 673.5,228.5C 678.602,230.561 680.269,229.061 678.5,224C 679.025,223.308 679.692,222.808 680.5,222.5C 682.645,224.732 684.145,227.399 685,230.5C 685.499,225.511 685.666,220.511 685.5,215.5C 689.5,215.5 693.5,215.5 697.5,215.5C 697.5,214.167 697.5,212.833 697.5,211.5C 697.539,208.679 698.205,206.012 699.5,203.5C 700.167,212.324 700.833,220.991 701.5,229.5C 703.948,230.473 706.615,230.806 709.5,230.5C 709.5,226.833 709.5,223.167 709.5,219.5C 706.833,218.894 704.166,218.061 701.5,217C 705.152,216.501 708.818,216.335 712.5,216.5C 712.5,222.5 712.5,228.5 712.5,234.5C 710.143,234.337 707.81,234.503 705.5,235C 708.265,239.934 711.932,244.1 716.5,247.5C 715.833,248.833 714.833,249.833 713.5,250.5C 708.314,246.986 704.648,242.32 702.5,236.5C 702.631,235.624 702.298,234.957 701.5,234.5C 700.504,240.463 700.171,246.463 700.5,252.5C 699.5,252.5 698.5,252.5 697.5,252.5C 697.666,246.491 697.499,240.491 697,234.5C 696.487,235.527 695.987,236.527 695.5,237.5C 692.575,242.924 688.741,247.591 684,251.5C 683.535,250.069 682.701,248.903 681.5,248C 684.97,245.877 684.97,244.71 681.5,244.5C 681.768,242.901 681.434,241.568 680.5,240.5C 678.913,238.381 679.246,236.714 681.5,235.5C 683.657,237.803 685.323,240.47 686.5,243.5C 688.853,241.14 690.853,238.473 692.5,235.5C 689.843,234.741 687.177,234.074 684.5,233.5C 683.914,233.709 683.414,234.043 683,234.5C 682.161,233.376 680.994,232.709 679.5,232.5C 675.535,233.274 671.535,233.607 667.5,233.5C 667.5,232.167 667.5,230.833 667.5,229.5C 669.969,226.856 672.302,224.023 674.5,221C 671.774,220.818 669.107,220.318 666.5,219.5C 666.167,218.833 665.833,218.167 665.5,217.5C 669.338,212.494 672.671,207.16 675.5,201.5C 676.902,201.865 677.902,202.699 678.5,204C 676.426,208.148 674.093,212.148 671.5,216C 673.167,216.667 674.833,216.667 676.5,216C 678.123,213.92 679.623,211.754 681,209.5C 681.671,210.252 682.504,210.586 683.5,210.5 Z"/></g>
<g><path style="opacity:1" fill="#cde7f4" d="M 709.5,219.5 C 709.5,223.167 709.5,226.833 709.5,230.5C 706.615,230.806 703.948,230.473 701.5,229.5C 701.5,226.167 701.5,222.833 701.5,219.5C 704.167,219.5 706.833,219.5 709.5,219.5 Z"/></g>
<g><path style="opacity:1" fill="#d1e8f3" d="M 689.5,219.5 C 692.167,219.5 694.833,219.5 697.5,219.5C 697.5,223.167 697.5,226.833 697.5,230.5C 694.833,230.5 692.167,230.5 689.5,230.5C 689.5,226.833 689.5,223.167 689.5,219.5 Z"/></g>
<g><path style="opacity:1" fill="#285e93" d="M 705.5,220.5 C 706.695,220.866 707.361,221.699 707.5,223C 706.722,225.39 705.555,227.557 704,229.5C 703.13,228.892 702.63,228.059 702.5,227C 703.377,224.747 704.377,222.581 705.5,220.5 Z"/></g>
<g><path style="opacity:1" fill="#1f5990" d="M 690.5,221.5 C 694.665,222.161 695.999,224.494 694.5,228.5C 692.4,226.636 691.067,224.303 690.5,221.5 Z"/></g>
<g><path style="opacity:1" fill="#ddeff6" d="M 696.5,206.5 C 693.038,207.482 689.371,207.815 685.5,207.5C 685.5,208.833 685.5,210.167 685.5,211.5C 689.5,211.5 693.5,211.5 697.5,211.5C 697.5,212.833 697.5,214.167 697.5,215.5C 693.5,215.5 689.5,215.5 685.5,215.5C 685.666,220.511 685.499,225.511 685,230.5C 684.145,227.399 682.645,224.732 680.5,222.5C 679.692,222.808 679.025,223.308 678.5,224C 680.269,229.061 678.602,230.561 673.5,228.5C 678.188,223.172 681.521,217.172 683.5,210.5C 684.434,209.432 684.768,208.099 684.5,206.5C 688.5,206.5 692.5,206.5 696.5,206.5 Z"/></g>
<g><path style="opacity:1" fill="#8aafc8" d="M 361.5,232.5 C 363.948,231.527 366.615,231.194 369.5,231.5C 369.802,234.059 369.468,236.393 368.5,238.5C 368.5,236.5 368.5,234.5 368.5,232.5C 366.167,232.5 363.833,232.5 361.5,232.5 Z"/></g>
<g><path style="opacity:1" fill="#8aaec8" d="M 459.5,232.5 C 461.948,231.527 464.615,231.194 467.5,231.5C 467.802,234.059 467.468,236.393 466.5,238.5C 466.5,236.5 466.5,234.5 466.5,232.5C 464.167,232.5 461.833,232.5 459.5,232.5 Z"/></g>
<g><path style="opacity:1" fill="#f0fafa" d="M 761.5,232.5 C 761.5,234.167 761.5,235.833 761.5,237.5C 753.167,237.5 744.833,237.5 736.5,237.5C 736.5,235.833 736.5,234.167 736.5,232.5C 744.833,232.5 753.167,232.5 761.5,232.5 Z"/></g>
<g><path style="opacity:1" fill="#f2f8fb" d="M 361.5,232.5 C 363.833,232.5 366.167,232.5 368.5,232.5C 368.5,234.5 368.5,236.5 368.5,238.5C 366.641,242.926 363.308,244.426 358.5,243C 357.39,240.263 357.223,237.429 358,234.5C 358.816,233.177 359.983,232.511 361.5,232.5 Z"/></g>
<g><path style="opacity:1" fill="#f2f8fa" d="M 459.5,232.5 C 461.833,232.5 464.167,232.5 466.5,232.5C 466.5,234.5 466.5,236.5 466.5,238.5C 464.641,242.926 461.308,244.426 456.5,243C 455.39,240.263 455.223,237.429 456,234.5C 456.816,233.177 457.983,232.511 459.5,232.5 Z"/></g>
<g><path style="opacity:1" fill="#d5e9f2" d="M 667.5,229.5 C 667.5,230.833 667.5,232.167 667.5,233.5C 671.535,233.607 675.535,233.274 679.5,232.5C 680.994,232.709 682.161,233.376 683,234.5C 683.414,234.043 683.914,233.709 684.5,233.5C 687.177,234.074 689.843,234.741 692.5,235.5C 690.853,238.473 688.853,241.14 686.5,243.5C 685.323,240.47 683.657,237.803 681.5,235.5C 679.246,236.714 678.913,238.381 680.5,240.5C 679.883,240.389 679.383,240.056 679,239.5C 678.51,240.793 678.343,242.127 678.5,243.5C 678.167,243.5 677.833,243.5 677.5,243.5C 677.5,241.167 677.5,238.833 677.5,236.5C 676.5,236.5 675.5,236.5 674.5,236.5C 674.5,239.5 674.5,242.5 674.5,245.5C 673.834,242.311 673.167,238.977 672.5,235.5C 671.893,235.624 671.56,235.957 671.5,236.5C 670.167,236.5 668.833,236.5 667.5,236.5C 667.678,240.122 667.011,243.456 665.5,246.5C 665.898,240.661 666.565,234.994 667.5,229.5 Z"/></g>
<g><path style="opacity:1" fill="#accfee" d="M 562.5,224.5 C 562.833,224.5 563.167,224.5 563.5,224.5C 563.5,228.833 563.5,233.167 563.5,237.5C 567.833,237.5 572.167,237.5 576.5,237.5C 572.366,238.485 568.032,238.818 563.5,238.5C 562.514,234.03 562.181,229.363 562.5,224.5 Z"/></g>
<g><path style="opacity:1" fill="#21557d" d="M 761.5,232.5 C 753.167,232.5 744.833,232.5 736.5,232.5C 736.5,234.167 736.5,235.833 736.5,237.5C 744.833,237.5 753.167,237.5 761.5,237.5C 753.016,238.493 744.349,238.826 735.5,238.5C 735.5,236.167 735.5,233.833 735.5,231.5C 744.349,231.174 753.016,231.507 761.5,232.5 Z"/></g>
<g><path style="opacity:1" fill="#c5e1f3" d="M 656.5,224.5 C 657.461,226.265 657.795,228.265 657.5,230.5C 650.5,230.5 643.5,230.5 636.5,230.5C 636.822,236.358 636.489,242.025 635.5,247.5C 635.5,241.5 635.5,235.5 635.5,229.5C 642.5,229.5 649.5,229.5 656.5,229.5C 656.5,228.167 656.5,226.833 656.5,225.5C 656.5,225.167 656.5,224.833 656.5,224.5 Z"/></g>
<g><path style="opacity:1" fill="#9ebdd3" d="M 697.5,252.5 C 697.5,252.833 697.5,253.167 697.5,253.5C 696.833,248.167 696.167,242.833 695.5,237.5C 695.987,236.527 696.487,235.527 697,234.5C 697.499,240.491 697.666,246.491 697.5,252.5 Z"/></g>
<g><path style="opacity:1" fill="#4f7ca0" d="M 556.5,221.5 C 556.842,220.662 557.508,220.328 558.5,220.5C 558.5,227.833 558.5,235.167 558.5,242.5C 565.833,242.5 573.167,242.5 580.5,242.5C 580.833,242.5 581.167,242.5 581.5,242.5C 573.684,243.492 565.684,243.826 557.5,243.5C 557.825,235.981 557.492,228.648 556.5,221.5 Z"/></g>
<g><path style="opacity:1" fill="#235c96" d="M 671.5,236.5 C 671.333,241.336 670.333,246.003 668.5,250.5C 664.705,251.613 663.705,250.28 665.5,246.5C 667.011,243.456 667.678,240.122 667.5,236.5C 668.833,236.5 670.167,236.5 671.5,236.5 Z"/></g>
<g><path style="opacity:1" fill="#4d81a9" d="M 702.5,236.5 C 701.511,241.975 701.178,247.642 701.5,253.5C 700.167,253.5 698.833,253.5 697.5,253.5C 697.5,253.167 697.5,252.833 697.5,252.5C 698.5,252.5 699.5,252.5 700.5,252.5C 700.171,246.463 700.504,240.463 701.5,234.5C 702.298,234.957 702.631,235.624 702.5,236.5 Z"/></g>
<g><path style="opacity:1" fill="#115694" d="M 677.5,243.5 C 677.5,245.5 677.5,247.5 677.5,249.5C 676.5,249.5 675.5,249.5 674.5,249.5C 674.5,248.167 674.5,246.833 674.5,245.5C 674.5,242.5 674.5,239.5 674.5,236.5C 675.5,236.5 676.5,236.5 677.5,236.5C 677.5,238.833 677.5,241.167 677.5,243.5 Z"/></g>
<g><path style="opacity:1" fill="#eefbfe" d="M 736.5,242.5 C 744.833,242.5 753.167,242.5 761.5,242.5C 761.5,243.833 761.5,245.167 761.5,246.5C 753.167,246.5 744.833,246.5 736.5,246.5C 736.5,245.167 736.5,243.833 736.5,242.5 Z"/></g>
<g><path style="opacity:1" fill="#8aaecd" d="M 586.5,246.5 C 583.203,246.89 580.203,247.89 577.5,249.5C 576.596,248.791 576.263,247.791 576.5,246.5C 579.833,246.5 583.167,246.5 586.5,246.5 Z"/></g>
<g><path style="opacity:1" fill="#6a90ac" d="M 677.5,243.5 C 677.833,243.5 678.167,243.5 678.5,243.5C 678.5,245.833 678.5,248.167 678.5,250.5C 676.901,250.768 675.568,250.434 674.5,249.5C 675.5,249.5 676.5,249.5 677.5,249.5C 677.5,247.5 677.5,245.5 677.5,243.5 Z"/></g>
<g><path style="opacity:1" fill="#1d527d" d="M 748.5,224.5 C 750.176,225.183 750.843,226.517 750.5,228.5C 755.833,228.5 761.167,228.5 766.5,228.5C 766.5,236.167 766.5,243.833 766.5,251.5C 754.655,251.828 742.988,251.495 731.5,250.5C 742.833,250.5 754.167,250.5 765.5,250.5C 765.5,243.5 765.5,236.5 765.5,229.5C 760.156,229.666 754.823,229.499 749.5,229C 748.62,227.644 748.286,226.144 748.5,224.5 Z"/></g>
<g><path style="opacity:1" fill="#1b5383" d="M 137.5,256.5 C 171.457,257.486 205.457,257.82 239.5,257.5C 206.002,258.664 172.336,258.831 138.5,258C 137.944,257.617 137.611,257.117 137.5,256.5 Z"/></g>
<g><path style="opacity:1" fill="#f2fdf9" d="M 989.5,348.5 C 983.899,354.805 976.899,358.805 968.5,360.5C 967.167,360.5 965.833,360.5 964.5,360.5C 681.333,360.833 398.333,360.5 115.5,359.5C 399.834,359.667 684.167,359.5 968.5,359C 972.376,358.119 976.042,356.786 979.5,355C 980.815,353.605 980.481,352.605 978.5,352C 980.574,352.227 982.574,352.061 984.5,351.5C 984.19,349.799 984.69,348.132 986,346.5C 986.71,347.973 987.876,348.64 989.5,348.5 Z"/></g>
<g><path style="opacity:1" fill="#e0fbfe" d="M 94.5,352.5 C 99.8111,354.161 104.811,356.327 109.5,359C 111.473,359.495 113.473,359.662 115.5,359.5C 398.333,360.5 681.333,360.833 964.5,360.5C 681.334,361.5 398,361.833 114.5,361.5C 113.5,361.5 112.5,361.5 111.5,361.5C 105.147,359.823 99.4802,356.823 94.5,352.5 Z"/></g>
<g><path style="opacity:1" fill="#085699" d="M 111.5,361.5 C 111.918,362.222 112.584,362.722 113.5,363C 255.5,363.167 397.5,363.333 539.5,363.5C 681.667,363.5 823.667,363.167 965.5,362.5C 970.442,362.187 975.109,360.853 979.5,358.5C 980.833,359.5 980.833,360.5 979.5,361.5C 976.545,362.543 973.878,363.877 971.5,365.5C 971.167,365.5 970.833,365.5 970.5,365.5C 681.479,365.83 392.479,365.497 103.5,364.5C 103.167,364.5 102.833,364.5 102.5,364.5C 102.306,362.088 100.973,361.088 98.5,361.5C 98.281,360.325 98.6143,359.325 99.5,358.5C 103.21,360.69 107.21,361.69 111.5,361.5 Z"/></g>
<g><path style="opacity:1" fill="#105490" d="M 111.5,361.5 C 112.5,361.5 113.5,361.5 114.5,361.5C 398,362.5 681.666,362.833 965.5,362.5C 823.667,363.167 681.667,363.5 539.5,363.5C 397.5,363.333 255.5,363.167 113.5,363C 112.584,362.722 111.918,362.222 111.5,361.5 Z"/></g>
<g><path style="opacity:1" fill="#27577a" d="M 964.5,360.5 C 965.833,360.5 967.167,360.5 968.5,360.5C 967.5,361.167 966.5,361.833 965.5,362.5C 681.666,362.833 398,362.5 114.5,361.5C 398,361.833 681.334,361.5 964.5,360.5 Z"/></g>
<g><path style="opacity:1" fill="#165386" d="M 103.5,364.5 C 392.479,365.497 681.479,365.83 970.5,365.5C 968.833,366.167 967.167,366.833 965.5,367.5C 680.833,367.5 396.167,367.5 111.5,367.5C 108.646,366.795 105.979,365.795 103.5,364.5 Z"/></g>
<g><path style="opacity:1" fill="#eafbfc" d="M 111.5,367.5 C 396.167,367.5 680.833,367.5 965.5,367.5C 823.835,368.833 681.835,369.5 539.5,369.5C 397.5,369.333 255.5,369.167 113.5,369C 112.584,368.722 111.918,368.222 111.5,367.5 Z"/></g>
</svg>
