<?xml version="1.0" encoding="UTF-8"?>
<!DOCTYPE svg PUBLIC "-//W3C//DTD SVG 1.1//EN" "http://www.w3.org/Graphics/SVG/1.1/DTD/svg11.dtd">
<svg xmlns="http://www.w3.org/2000/svg" version="1.1" width="1080px" height="391px" style="shape-rendering:geometricPrecision; text-rendering:geometricPrecision; image-rendering:optimizeQuality; fill-rule:evenodd; clip-rule:evenodd" xmlns:xlink="http://www.w3.org/1999/xlink">
<g><path style="opacity:1" fill="#f9fafa" d="M -0.5,-0.5 C 359.5,-0.5 719.5,-0.5 1079.5,-0.5C 1079.5,129.833 1079.5,260.167 1079.5,390.5C 719.5,390.5 359.5,390.5 -0.5,390.5C -0.5,260.167 -0.5,129.833 -0.5,-0.5 Z"/></g>
<g><path style="opacity:1" fill="#d1effa" d="M 111.5,23.5 C 396,22.3336 680.666,22.167 965.5,23C 968.797,23.2037 971.797,24.037 974.5,25.5C 970.837,25.0482 967.17,24.5482 963.5,24C 679.5,23.5 395.5,23.3333 111.5,23.5 Z"/></g>
<g><path style="opacity:1" fill="#17548a" d="M 111.5,23.5 C 395.5,23.3333 679.5,23.5 963.5,24C 967.17,24.5482 970.837,25.0482 974.5,25.5C 976.261,26.3127 977.928,27.3127 979.5,28.5C 975.583,27.3633 971.583,26.53 967.5,26C 681.833,25.3333 396.167,25.3333 110.5,26C 109.377,27.0437 108.044,27.7104 106.5,28C 108.134,28.4935 109.801,28.6602 111.5,28.5C 111.5,28.8333 111.5,29.1667 111.5,29.5C 110.167,30.1667 108.833,30.8333 107.5,31.5C 94.3883,35.6123 85.0549,43.9456 79.5,56.5C 79.2287,54.6883 78.562,53.0217 77.5,51.5C 76.8503,53.1836 75.8503,54.5169 74.5,55.5C 81.2469,38.4226 93.5802,27.756 111.5,23.5 Z"/></g>
<g><path style="opacity:1" fill="#085699" d="M 979.5,28.5 C 979.833,28.5 980.167,28.5 980.5,28.5C 982.244,30.6057 981.744,31.939 979,32.5C 976.521,31.9022 974.354,30.7355 972.5,29C 970.5,28.6667 968.5,28.3333 966.5,28C 681.333,27.167 396.333,27.3336 111.5,28.5C 109.801,28.6602 108.134,28.4935 106.5,28C 108.044,27.7104 109.377,27.0437 110.5,26C 396.167,25.3333 681.833,25.3333 967.5,26C 971.583,26.53 975.583,27.3633 979.5,28.5 Z"/></g>
<g><path style="opacity:1" fill="#1e5789" d="M 980.5,28.5 C 984.41,30.0875 987.743,32.4208 990.5,35.5C 988.634,34.9862 986.8,34.3195 985,33.5C 983.274,34.6479 983.441,35.8145 985.5,37C 987.259,37.9804 988.926,38.647 990.5,39C 989.829,39.9862 989.829,41.1529 990.5,42.5C 984.653,36.6582 977.653,32.9916 969.5,31.5C 968.737,30.7321 967.737,30.2321 966.5,30C 681.5,29.5 396.5,29.3333 111.5,29.5C 111.5,29.1667 111.5,28.8333 111.5,28.5C 396.333,27.3336 681.333,27.167 966.5,28C 968.5,28.3333 970.5,28.6667 972.5,29C 974.354,30.7355 976.521,31.9022 979,32.5C 981.744,31.939 982.244,30.6057 980.5,28.5 Z"/></g>
<g><path style="opacity:1" fill="#e0fbfe" d="M 111.5,29.5 C 396.5,29.3333 681.5,29.5 966.5,30C 967.737,30.2321 968.737,30.7321 969.5,31.5C 682.169,30.1682 394.835,30.1682 107.5,31.5C 108.833,30.8333 110.167,30.1667 111.5,29.5 Z"/></g>
<g><path style="opacity:1" fill="#f9f9f9" d="M 969.5,31.5 C 977.653,32.9916 984.653,36.6582 990.5,42.5C 995.135,48.1015 998.468,54.4348 1000.5,61.5C 1001.66,151.43 1001.83,241.43 1001,331.5C 999.856,334.08 999.022,336.747 998.5,339.5C 991.909,354.143 980.576,362.476 964.5,364.5C 679.206,363.668 393.873,363.168 108.5,363C 106.231,360.977 103.564,360.144 100.5,360.5C 90.3457,355.68 83.3457,348.014 79.5,337.5C 79.5,337.167 79.5,336.833 79.5,336.5C 79.0022,333.513 78.5022,330.513 78,327.5C 77.1744,238.139 77.341,148.805 78.5,59.5C 79.404,58.791 79.7373,57.791 79.5,56.5C 85.0549,43.9456 94.3883,35.6123 107.5,31.5C 394.835,30.1682 682.169,30.1682 969.5,31.5 Z"/></g>
<g><path style="opacity:1" fill="#fecace" d="M 795.5,53.5 C 798.027,58.3687 801.694,62.3687 806.5,65.5C 807.521,64.9984 807.688,64.3317 807,63.5C 803.629,60.2975 800.462,56.9641 797.5,53.5C 800.167,53.5 802.833,53.5 805.5,53.5C 807.479,56.1456 809.812,58.4789 812.5,60.5C 813.583,59.635 813.749,58.635 813,57.5C 811.624,56.2949 810.458,54.9616 809.5,53.5C 824.504,53.3334 839.504,53.5001 854.5,54C 895.653,93.9859 936.319,134.486 976.5,175.5C 977.5,201.491 977.833,227.491 977.5,253.5C 965.285,256.196 954.285,253.696 944.5,246C 891.081,192.581 837.581,139.081 784,85.5C 780.154,80.3041 776.487,74.9708 773,69.5C 771.508,64.5893 771.174,59.5893 772,54.5C 779.747,53.5183 787.58,53.185 795.5,53.5 Z"/></g>
<g><path style="opacity:1" fill="#dd5f58" d="M 805.5,53.5 C 806.833,53.5 808.167,53.5 809.5,53.5C 810.458,54.9616 811.624,56.2949 813,57.5C 813.749,58.635 813.583,59.635 812.5,60.5C 809.812,58.4789 807.479,56.1456 805.5,53.5 Z"/></g>
<g><path style="opacity:1" fill="#dc544c" d="M 795.5,53.5 C 796.167,53.5 796.833,53.5 797.5,53.5C 800.462,56.9641 803.629,60.2975 807,63.5C 807.688,64.3317 807.521,64.9984 806.5,65.5C 801.694,62.3687 798.027,58.3687 795.5,53.5 Z"/></g>
<g><path style="opacity:1" fill="#135690" d="M 78.5,59.5 C 77.341,148.805 77.1744,238.139 78,327.5C 78.5022,330.513 79.0022,333.513 79.5,336.5C 78.8485,337.091 78.1818,337.757 77.5,338.5C 76.1667,244.833 76.1667,151.167 77.5,57.5C 78.2975,57.9569 78.6309,58.6236 78.5,59.5 Z"/></g>
<g><path style="opacity:1" fill="#fef8f0" d="M 70.5,63.5 C 70.5,152.5 70.5,241.5 70.5,330.5C 69.8826,330.389 69.3826,330.056 69,329.5C 68.3333,241.5 68.3333,153.5 69,65.5C 69.2784,64.5842 69.7784,63.9175 70.5,63.5 Z"/></g>
<g><path style="opacity:1" fill="#07579c" d="M 79.5,56.5 C 79.7373,57.791 79.404,58.791 78.5,59.5C 78.6309,58.6236 78.2975,57.9569 77.5,57.5C 76.1667,151.167 76.1667,244.833 77.5,338.5C 78.1818,337.757 78.8485,337.091 79.5,336.5C 79.5,336.833 79.5,337.167 79.5,337.5C 79.6168,339.484 78.9501,341.15 77.5,342.5C 76.8589,341.007 75.8589,340.007 74.5,339.5C 73.8333,337.5 73.1667,335.5 72.5,333.5C 72.5,332.167 72.5,330.833 72.5,329.5C 72.1793,239.149 72.5126,148.815 73.5,58.5C 73.2627,57.209 73.596,56.209 74.5,55.5C 75.8503,54.5169 76.8503,53.1836 77.5,51.5C 78.562,53.0217 79.2287,54.6883 79.5,56.5 Z"/></g>
<g><path style="opacity:1" fill="#0058a3" d="M 1002.5,333.5 C 1002.5,242.833 1002.5,152.167 1002.5,61.5C 1002.56,60.9569 1002.89,60.6236 1003.5,60.5C 1004.67,152.165 1004.83,243.832 1004,335.5C 1003.28,334.956 1002.78,334.289 1002.5,333.5 Z"/></g>
<g><path style="opacity:1" fill="#eafdfe" d="M 72.5,60.5 C 71.1707,150.294 71.1707,239.961 72.5,329.5C 72.5,330.833 72.5,332.167 72.5,333.5C 71.0937,333.027 70.427,332.027 70.5,330.5C 70.5,241.5 70.5,152.5 70.5,63.5C 70.2852,61.8212 70.9519,60.8212 72.5,60.5 Z"/></g>
<g><path style="opacity:1" fill="#165487" d="M 1000.5,61.5 C 1001.17,61.5 1001.83,61.5 1002.5,61.5C 1002.5,152.167 1002.5,242.833 1002.5,333.5C 1001.45,335.77 1000.12,337.77 998.5,339.5C 999.022,336.747 999.856,334.08 1001,331.5C 1001.83,241.43 1001.66,151.43 1000.5,61.5 Z"/></g>
<g><path style="opacity:1" fill="#de574f" d="M 819.5,63.5 C 822.744,65.0713 825.411,67.4046 827.5,70.5C 826.635,71.5827 825.635,71.7494 824.5,71C 822.192,68.8723 820.526,66.3723 819.5,63.5 Z"/></g>
<g><path style="opacity:1" fill="#fef8f2" d="M 998.5,63.5 C 999.268,64.2625 999.768,65.2625 1000,66.5C 1000.17,110 1000.33,153.5 1000.5,197C 1000.66,240.975 1000.16,284.809 999,328.5C 998.5,240.167 998.333,151.834 998.5,63.5 Z"/></g>
<g><path style="opacity:1" fill="#e05a51" d="M 815.5,67.5 C 818.744,69.0713 821.411,71.4046 823.5,74.5C 822.635,75.5827 821.635,75.7494 820.5,75C 817.758,73.1136 816.091,70.6136 815.5,67.5 Z"/></g>
<g><path style="opacity:1" fill="#18558b" d="M 73.5,58.5 C 72.5126,148.815 72.1793,239.149 72.5,329.5C 71.1707,239.961 71.1707,150.294 72.5,60.5C 72.3284,59.5084 72.6618,58.8417 73.5,58.5 Z"/></g>
<g><path style="opacity:1" fill="#e3564c" d="M 846.5,75.5 C 844.855,76.4787 843.521,77.812 842.5,79.5C 843.982,81.4829 845.649,83.3163 847.5,85C 846.975,85.6924 846.308,86.1924 845.5,86.5C 844.019,85.5197 842.685,84.353 841.5,83C 840.5,82.3333 839.5,82.3333 838.5,83C 833.352,88.1558 829.352,93.9892 826.5,100.5C 828.484,100.617 830.15,99.9501 831.5,98.5C 831.833,99 832.167,99.5 832.5,100C 830.457,102.689 827.79,103.689 824.5,103C 823.424,101.274 823.257,99.4406 824,97.5C 827.923,91.0757 832.423,85.0757 837.5,79.5C 835.851,77.3501 834.018,75.3501 832,73.5C 831.667,71.8333 831.333,70.1667 831,68.5C 827.651,65.318 824.484,61.9846 821.5,58.5C 822.365,57.4173 823.365,57.2506 824.5,58C 825.667,59.1667 826.833,60.3333 828,61.5C 829.188,60.4366 829.688,59.1033 829.5,57.5C 830.5,57.5 831.5,57.5 832.5,57.5C 832.414,59.677 831.747,61.677 830.5,63.5C 831.5,64.8333 832.5,66.1667 833.5,67.5C 832.54,68.8123 832.706,70.1456 834,71.5C 835.719,73.5571 837.719,75.2237 840,76.5C 842,75.1667 844,73.8333 846,72.5C 847.683,73.1765 847.85,74.1765 846.5,75.5 Z"/></g>
<g><path style="opacity:1" fill="#d66b66" d="M 846.5,75.5 C 847.496,75.4142 848.329,75.7476 849,76.5C 849.495,78.4727 849.662,80.4727 849.5,82.5C 848.5,82.5 847.5,82.5 846.5,82.5C 846.5,80.1667 846.5,77.8333 846.5,75.5 Z"/></g>
<g><path style="opacity:1" fill="#e2554c" d="M 810.5,71.5 C 813.899,73.3883 816.899,75.8883 819.5,79C 817.167,80.6667 815.167,82.6667 813.5,85C 815.028,86.3613 816.695,87.528 818.5,88.5C 823.46,85.6248 826.127,81.6248 826.5,76.5C 828.483,77.982 830.316,79.6487 832,81.5C 832.749,82.635 832.583,83.635 831.5,84.5C 830.5,83.8333 829.5,83.1667 828.5,82.5C 826.517,84.9837 824.35,87.3171 822,89.5C 822.152,91.0761 822.985,92.4095 824.5,93.5C 824.192,94.3081 823.692,94.9747 823,95.5C 816.254,90.968 809.921,85.968 804,80.5C 803.333,79.8333 803.333,79.1667 804,78.5C 806.372,76.2968 808.539,73.9635 810.5,71.5 Z"/></g>
<g><path style="opacity:1" fill="#fec0c2" d="M 810.5,75.5 C 812.912,75.244 814.579,76.244 815.5,78.5C 814.167,80.5 812.5,82.1667 810.5,83.5C 806.667,80.9427 806.667,78.276 810.5,75.5 Z"/></g>
<g><path style="opacity:1" fill="#e25950" d="M 861.5,99.5 C 860.883,99.6107 860.383,99.944 860,100.5C 858.137,97.096 856.303,96.9293 854.5,100C 856.937,101.279 857.437,102.779 856,104.5C 854.89,102.963 853.39,102.297 851.5,102.5C 852.167,104.819 852.334,107.153 852,109.5C 848.87,111.628 846.037,114.128 843.5,117C 846.304,117.46 848.971,116.96 851.5,115.5C 851.655,111.446 853.821,108.446 858,106.5C 860.167,107.333 861.667,108.833 862.5,111C 860.573,115.442 857.24,117.608 852.5,117.5C 852.5,119.5 852.5,121.5 852.5,123.5C 854.5,123.167 856.5,122.833 858.5,122.5C 858.622,118.853 860.288,116.019 863.5,114C 865.282,113.878 866.948,114.378 868.5,115.5C 869.412,116.738 869.579,118.072 869,119.5C 867.5,121 866,122.5 864.5,124C 862.023,122.869 859.857,123.369 858,125.5C 857.057,135.165 856.224,135.499 855.5,126.5C 852.873,127.092 850.206,127.425 847.5,127.5C 848.449,125.263 849.116,122.929 849.5,120.5C 843.155,121.581 838.488,119.414 835.5,114C 835.833,113.5 836.167,113 836.5,112.5C 837.94,113.952 839.606,114.952 841.5,115.5C 842.199,113.444 843.199,111.444 844.5,109.5C 845.167,110.167 845.833,110.833 846.5,111.5C 847.107,111.376 847.44,111.043 847.5,110.5C 848.141,109.518 848.807,108.518 849.5,107.5C 847.167,104.833 844.833,102.167 842.5,99.5C 846.624,94.8748 850.957,90.3748 855.5,86C 859.639,87.7897 862.972,90.7897 865.5,95C 865.167,95.5 864.833,96 864.5,96.5C 859.569,92.6465 858.569,93.6465 861.5,99.5 Z"/></g>
<g><path style="opacity:1" fill="#ffbbbb" d="M 850.5,93.5 C 853.166,93.0658 854.333,94.0658 854,96.5C 851.342,97.694 850.176,96.694 850.5,93.5 Z"/></g>
<g><path style="opacity:1" fill="#feb8b6" d="M 855.5,88.5 C 857.727,89.4006 858.727,91.0672 858.5,93.5C 854.716,93.4747 853.716,91.8081 855.5,88.5 Z"/></g>
<g><path style="opacity:1" fill="#fdbdbc" d="M 846.5,97.5 C 849.5,97.1667 850.833,98.5 850.5,101.5C 847.5,101.833 846.167,100.5 846.5,97.5 Z"/></g>
<g><path style="opacity:1" fill="#fdbcbc" d="M 861.5,99.5 C 864.625,100.479 867.958,100.813 871.5,100.5C 867.366,101.485 863.032,101.818 858.5,101.5C 858.5,102.5 858.5,103.5 858.5,104.5C 860.167,104.5 861.833,104.5 863.5,104.5C 864.461,108.794 867.128,111.461 871.5,112.5C 871.5,113.5 871.5,114.5 871.5,115.5C 870.849,114.909 870.182,114.243 869.5,113.5C 868.702,113.957 868.369,114.624 868.5,115.5C 866.948,114.378 865.282,113.878 863.5,114C 860.288,116.019 858.622,118.853 858.5,122.5C 856.5,122.833 854.5,123.167 852.5,123.5C 852.5,121.5 852.5,119.5 852.5,117.5C 857.24,117.608 860.573,115.442 862.5,111C 861.667,108.833 860.167,107.333 858,106.5C 853.821,108.446 851.655,111.446 851.5,115.5C 848.971,116.96 846.304,117.46 843.5,117C 846.037,114.128 848.87,111.628 852,109.5C 852.334,107.153 852.167,104.819 851.5,102.5C 853.39,102.297 854.89,102.963 856,104.5C 857.437,102.779 856.937,101.279 854.5,100C 856.303,96.9293 858.137,97.096 860,100.5C 860.383,99.944 860.883,99.6107 861.5,99.5 Z"/></g>
<g><path style="opacity:1" fill="#db605b" d="M 837.5,100.5 C 839.355,100.272 840.188,100.939 840,102.5C 830.345,110.424 829.511,109.757 837.5,100.5 Z"/></g>
<g><path style="opacity:1" fill="#e15a51" d="M 871.5,100.5 C 872.833,100.5 874.167,100.5 875.5,100.5C 874.693,106.464 874.36,112.464 874.5,118.5C 873.5,118.5 872.5,118.5 871.5,118.5C 871.5,117.5 871.5,116.5 871.5,115.5C 871.5,114.5 871.5,113.5 871.5,112.5C 867.128,111.461 864.461,108.794 863.5,104.5C 861.833,104.5 860.167,104.5 858.5,104.5C 858.5,103.5 858.5,102.5 858.5,101.5C 863.032,101.818 867.366,101.485 871.5,100.5 Z"/></g>
<g><path style="opacity:1" fill="#fdbebf" d="M 869.5,103.5 C 870.5,103.5 871.5,103.5 872.5,103.5C 872.248,112.045 869.915,112.712 865.5,105.5C 866.949,104.828 868.282,104.161 869.5,103.5 Z"/></g>
<g><path style="opacity:1" fill="#d95e58" d="M 841.5,106.5 C 840.038,107.458 838.705,108.624 837.5,110C 836.668,110.688 836.002,110.521 835.5,109.5C 837.483,107.016 839.65,104.683 842,102.5C 842.195,103.819 842.028,105.153 841.5,106.5 Z"/></g>
<g><path style="opacity:1" fill="#fdbebe" d="M 856.5,109.5 C 860.379,110.836 860.379,112.502 856.5,114.5C 855.334,112.833 855.334,111.166 856.5,109.5 Z"/></g>
<g><path style="opacity:1" fill="#e88681" d="M 847.5,110.5 C 847.44,111.043 847.107,111.376 846.5,111.5C 845.833,110.833 845.167,110.167 844.5,109.5C 843.199,111.444 842.199,113.444 841.5,115.5C 841.5,114.5 841.5,113.5 841.5,112.5C 840.325,112.719 839.325,112.386 838.5,111.5C 839.952,110.06 840.952,108.394 841.5,106.5C 842.482,105.859 843.482,105.193 844.5,104.5C 845.5,105.5 846.5,106.5 847.5,107.5C 846.347,108.687 846.347,109.687 847.5,110.5 Z"/></g>
<g><path style="opacity:1" fill="#febdbe" d="M 863.5,116.5 C 867.379,117.836 867.379,119.502 863.5,121.5C 861.07,119.963 861.07,118.296 863.5,116.5 Z"/></g>
<g><path style="opacity:1" fill="#e15851" d="M 881.5,117.5 C 883.981,118.696 883.981,120.196 881.5,122C 878.991,123.421 876.657,125.088 874.5,127C 873.056,127.781 871.723,127.614 870.5,126.5C 874.381,123.731 878.048,120.731 881.5,117.5 Z"/></g>
<g><path style="opacity:1" fill="#b4eefe" d="M 142.5,137.5 C 173.5,137.5 204.5,137.5 235.5,137.5C 235.672,138.492 235.338,139.158 234.5,139.5C 204.669,138.336 174.669,138.169 144.5,139C 143.944,139.383 143.611,139.883 143.5,140.5C 142.596,139.791 142.263,138.791 142.5,137.5 Z"/></g>
<g><path style="opacity:1" fill="#316292" d="M 513.5,144.5 C 517.161,144.35 518.161,145.85 516.5,149C 515.207,149.49 513.873,149.657 512.5,149.5C 512.366,147.708 512.699,146.042 513.5,144.5 Z"/></g>
<g><path style="opacity:1" fill="#2d6190" d="M 731.5,144.5 C 735.161,144.35 736.161,145.85 734.5,149C 733.207,149.49 731.873,149.657 730.5,149.5C 730.366,147.708 730.699,146.042 731.5,144.5 Z"/></g>
<g><path style="opacity:1" fill="#e45046" d="M 911.5,145.5 C 915.634,147.8 918.967,150.967 921.5,155C 920.046,156.659 918.713,156.326 917.5,154C 916.5,153.333 915.5,153.333 914.5,154C 911,157.5 907.5,161 904,164.5C 903.667,166.934 904.834,167.934 907.5,167.5C 907.5,168.5 907.5,169.5 907.5,170.5C 901.882,169.362 897.216,166.695 893.5,162.5C 893.833,161.833 894.167,161.167 894.5,160.5C 896.487,162.501 898.82,163.335 901.5,163C 905.333,159.167 909.167,155.333 913,151.5C 912.405,149.65 911.905,147.65 911.5,145.5 Z"/></g>
<g><path style="opacity:1" fill="#205c98" d="M 720.5,154.5 C 719.198,156.028 717.531,157.028 715.5,157.5C 715.149,164.065 714.149,170.399 712.5,176.5C 711.662,176.158 711.328,175.492 711.5,174.5C 711.5,168.5 711.5,162.5 711.5,156.5C 710.167,156.5 708.833,156.5 707.5,156.5C 710.554,154.447 712.887,151.781 714.5,148.5C 715.466,150.396 715.799,152.396 715.5,154.5C 717.167,154.5 718.833,154.5 720.5,154.5 Z"/></g>
<g><path style="opacity:1" fill="#245883" d="M 234.5,139.5 C 235.449,144.74 235.782,150.073 235.5,155.5C 204.833,155.5 174.167,155.5 143.5,155.5C 143.5,150.5 143.5,145.5 143.5,140.5C 143.611,139.883 143.944,139.383 144.5,139C 174.669,138.169 204.669,138.336 234.5,139.5 Z"/></g>
<g><path style="opacity:1" fill="#cbe3ef" d="M 145.5,140.5 C 174.5,140.5 203.5,140.5 232.5,140.5C 232.5,144.833 232.5,149.167 232.5,153.5C 203.5,153.5 174.5,153.5 145.5,153.5C 145.5,149.167 145.5,144.833 145.5,140.5 Z"/></g>
<g><path style="opacity:1" fill="#f8faf7" d="M 225.5,145.5 C 225.611,144.883 225.944,144.383 226.5,144C 221.177,143.501 215.844,143.334 210.5,143.5C 210.232,146.119 210.565,148.619 211.5,151C 209.537,151.844 208.204,151.344 207.5,149.5C 207.5,148.167 207.5,146.833 207.5,145.5C 207.209,144.351 206.376,143.684 205,143.5C 201.833,143.677 198.667,144.01 195.5,144.5C 181.343,143.504 167.01,143.171 152.5,143.5C 152.5,146.167 152.5,148.833 152.5,151.5C 150.5,151.5 148.5,151.5 146.5,151.5C 146.5,148.5 146.5,145.5 146.5,142.5C 174.833,142.5 203.167,142.5 231.5,142.5C 231.5,145.167 231.5,147.833 231.5,150.5C 229.833,150.5 228.167,150.5 226.5,150.5C 226.784,148.585 226.451,146.919 225.5,145.5 Z"/></g>
<g><path style="opacity:1" fill="#2a5f94" d="M 211.5,144.5 C 216.159,144.015 217.492,145.848 215.5,150C 214.216,150.684 213.049,150.517 212,149.5C 211.506,147.866 211.34,146.199 211.5,144.5 Z"/></g>
<g><path style="opacity:1" fill="#245b90" d="M 225.5,145.5 C 226.263,149.138 224.93,150.638 221.5,150C 219.587,145.415 220.921,143.915 225.5,145.5 Z"/></g>
<g><path style="opacity:1" fill="#21598f" d="M 207.5,145.5 C 207.5,146.833 207.5,148.167 207.5,149.5C 202.921,151.085 201.587,149.585 203.5,145C 204.928,144.421 206.262,144.588 207.5,145.5 Z"/></g>
<g><path style="opacity:1" fill="#255784" d="M 195.5,144.5 C 196.752,146.339 196.752,148.172 195.5,150C 181.833,150.667 168.167,150.667 154.5,150C 153.167,148.333 153.167,146.667 154.5,145C 168.163,144.5 181.829,144.333 195.5,144.5 Z"/></g>
<g><path style="opacity:1" fill="#6aa9de" d="M 155.5,146.5 C 168.517,146.168 181.517,146.501 194.5,147.5C 188,147.833 181.5,148.167 175,148.5C 168.131,148.497 161.631,147.83 155.5,146.5 Z"/></g>
<g><path style="opacity:1" fill="#2f6396" d="M 407.5,156.5 C 405.5,156.5 403.5,156.5 401.5,156.5C 401.177,162.69 401.51,168.69 402.5,174.5C 404.025,176.036 406.025,177.036 408.5,177.5C 407.473,179.024 405.973,179.691 404,179.5C 401.966,179.646 400.299,178.98 399,177.5C 397.575,170.615 397.075,163.615 397.5,156.5C 396.448,156.649 395.448,156.483 394.5,156C 397.371,154.629 399.371,152.463 400.5,149.5C 401.452,151.045 401.785,152.712 401.5,154.5C 404.082,154.025 406.082,154.692 407.5,156.5 Z"/></g>
<g><path style="opacity:1" fill="#306088" d="M 139.5,255.5 C 140.492,255.672 141.158,255.338 141.5,254.5C 141.833,254.5 142.167,254.5 142.5,254.5C 173.833,254.5 205.167,254.5 236.5,254.5C 236.5,241.833 236.5,229.167 236.5,216.5C 237.833,211.5 237.833,206.5 236.5,201.5C 236.831,179.993 236.497,158.66 235.5,137.5C 204.5,137.5 173.5,137.5 142.5,137.5C 142.167,137.5 141.833,137.5 141.5,137.5C 141.062,136.494 140.396,136.494 139.5,137.5C 172.15,135.507 205.15,134.84 238.5,135.5C 238.667,175.835 238.5,216.168 238,256.5C 205.572,257.662 173.072,257.829 140.5,257C 139.944,256.617 139.611,256.117 139.5,255.5 Z"/></g>
<g><path style="opacity:1" fill="#346594" d="M 455.5,159.5 C 454.542,159.047 453.708,158.381 453,157.5C 452.826,162.351 452.326,167.018 451.5,171.5C 451.5,169.833 451.5,168.167 451.5,166.5C 444,165.166 441.167,168.166 443,175.5C 446.349,177.063 449.182,176.397 451.5,173.5C 451.833,174.167 452.167,174.833 452.5,175.5C 449.653,178.909 445.987,180.076 441.5,179C 435.938,173.837 436.271,169.171 442.5,165C 445.482,164.502 448.482,164.335 451.5,164.5C 452.822,159.007 450.822,156.507 445.5,157C 443.963,158.11 443.297,159.61 443.5,161.5C 438.535,160.392 438.202,158.226 442.5,155C 446.261,154.262 449.928,154.595 453.5,156C 454.823,156.816 455.489,157.983 455.5,159.5 Z"/></g>
<g><path style="opacity:1" fill="#b2daf4" d="M 235.5,137.5 C 236.497,158.66 236.831,179.993 236.5,201.5C 234.5,201.5 232.5,201.5 230.5,201.5C 229.209,201.737 228.209,201.404 227.5,200.5C 230.167,200.5 232.833,200.5 235.5,200.5C 235.5,185.5 235.5,170.5 235.5,155.5C 235.782,150.073 235.449,144.74 234.5,139.5C 235.338,139.158 235.672,138.492 235.5,137.5 Z"/></g>
<g><path style="opacity:1" fill="#0358a3" d="M 310.5,170.5 C 310.719,171.675 310.386,172.675 309.5,173.5C 308.735,172.388 307.735,171.721 306.5,171.5C 306.5,170.833 306.5,170.167 306.5,169.5C 307.003,150.845 307.836,150.845 309,169.5C 309.383,170.056 309.883,170.389 310.5,170.5 Z"/></g>
<g><path style="opacity:1" fill="#87aac8" d="M 502.5,154.5 C 503.404,155.209 503.737,156.209 503.5,157.5C 501.5,157.5 499.5,157.5 497.5,157.5C 499.531,157.028 501.198,156.028 502.5,154.5 Z"/></g>
<g><path style="opacity:1" fill="#86aac7" d="M 720.5,154.5 C 721.404,155.209 721.737,156.209 721.5,157.5C 719.5,157.5 717.5,157.5 715.5,157.5C 717.531,157.028 719.198,156.028 720.5,154.5 Z"/></g>
<g><path style="opacity:1" fill="#0458a2" d="M 398.5,155.5 C 399.117,155.611 399.617,155.944 400,156.5C 400.667,162.833 400.667,169.167 400,175.5C 398.58,168.95 398.08,162.284 398.5,155.5 Z"/></g>
<g><path style="opacity:1" fill="#2e6094" d="M 371.5,177.5 C 369.5,178.833 367.5,178.833 365.5,177.5C 366.626,170.914 366.792,164.247 366,157.5C 365.075,156.953 364.242,156.287 363.5,155.5C 365.743,154.526 368.076,154.192 370.5,154.5C 370.367,159.272 371.7,159.438 374.5,155C 378.793,153.798 382.293,154.965 385,158.5C 385.333,164.5 385.667,170.5 386,176.5C 387.205,177.071 388.372,177.738 389.5,178.5C 386.914,179.48 384.247,179.813 381.5,179.5C 381.666,172.825 381.5,166.158 381,159.5C 378,156.833 375,156.833 372,159.5C 371.501,165.491 371.334,171.491 371.5,177.5 Z"/></g>
<g><path style="opacity:1" fill="#275d90" d="M 639.5,175.5 C 638.51,169.355 638.177,163.022 638.5,156.5C 639.222,156.918 639.722,157.584 640,158.5C 641.691,154.787 644.525,153.621 648.5,155C 651.303,157.222 651.137,159.055 648,160.5C 644.842,156.324 642.176,156.657 640,161.5C 639.501,166.155 639.334,170.821 639.5,175.5 Z"/></g>
<g><path style="opacity:1" fill="#22598d" d="M 310.5,170.5 C 309.883,170.389 309.383,170.056 309,169.5C 307.836,150.845 307.003,150.845 306.5,169.5C 305.08,163.901 305.247,158.235 307,152.5C 311.53,146.829 317.363,144.996 324.5,147C 328.866,148.698 329.366,150.865 326,153.5C 319.749,146.43 314.416,147.096 310,155.5C 309.274,160.552 309.441,165.552 310.5,170.5 Z"/></g>
<g><path style="opacity:1" fill="#215b94" d="M 341.5,154.5 C 354.557,154.422 359.057,160.755 355,173.5C 351.945,178.635 347.445,180.468 341.5,179C 339.43,178.052 337.93,176.552 337,174.5C 335.524,169.924 335.19,165.257 336,160.5C 337.36,157.977 339.193,155.977 341.5,154.5 Z"/></g>
<g><path style="opacity:1" fill="#94b4cc" d="M 407.5,156.5 C 406.081,157.451 404.415,157.784 402.5,157.5C 402.5,163.167 402.5,168.833 402.5,174.5C 401.51,168.69 401.177,162.69 401.5,156.5C 403.5,156.5 405.5,156.5 407.5,156.5 Z"/></g>
<g><path style="opacity:1" fill="#94b3c8" d="M 489.5,156.5 C 490.833,156.5 492.167,156.5 493.5,156.5C 493.5,162.5 493.5,168.5 493.5,174.5C 492.511,169.025 492.178,163.358 492.5,157.5C 491.209,157.737 490.209,157.404 489.5,156.5 Z"/></g>
<g><path style="opacity:1" fill="#94b3c9" d="M 707.5,156.5 C 708.833,156.5 710.167,156.5 711.5,156.5C 711.5,162.5 711.5,168.5 711.5,174.5C 710.511,169.025 710.178,163.358 710.5,157.5C 709.209,157.737 708.209,157.404 707.5,156.5 Z"/></g>
<g><path style="opacity:1" fill="#e45148" d="M 889.5,115.5 C 890.478,115.811 891.145,116.478 891.5,117.5C 890.167,119.167 888.833,120.833 887.5,122.5C 888.213,124.776 888.713,127.109 889,129.5C 891.086,127.751 893.419,126.417 896,125.5C 896.5,125.833 897,126.167 897.5,126.5C 896.167,127.833 894.833,129.167 893.5,130.5C 894.5,131.833 895.5,133.167 896.5,134.5C 898.833,132.833 900.833,130.833 902.5,128.5C 904.101,129.035 904.601,130.035 904,131.5C 902.315,133.017 900.815,134.684 899.5,136.5C 901.5,138.833 903.5,141.167 905.5,143.5C 905.167,144.5 904.5,145.167 903.5,145.5C 899.535,137.87 895.535,137.704 891.5,145C 892.27,146.775 893.437,148.275 895,149.5C 895.749,150.635 895.583,151.635 894.5,152.5C 892.5,150.833 890.5,149.167 888.5,147.5C 885.257,149.548 883.09,152.215 882,155.5C 883.667,157.167 885.333,158.833 887,160.5C 887.749,161.635 887.583,162.635 886.5,163.5C 880.304,158.137 874.637,152.304 869.5,146C 869.85,144.743 870.517,144.409 871.5,145C 874,147.5 876.5,150 879,152.5C 881.553,150.284 883.72,147.784 885.5,145C 884.392,142.888 882.892,141.054 881,139.5C 880.251,138.365 880.417,137.365 881.5,136.5C 883.833,138.5 886.167,140.5 888.5,142.5C 891.42,140.778 893.253,138.445 894,135.5C 890.848,131.845 887.514,131.845 884,135.5C 882.015,133.765 882.349,132.432 885,131.5C 885.667,129.167 885.667,126.833 885,124.5C 878.5,131 872,137.5 865.5,144C 864.517,144.591 863.85,144.257 863.5,143C 871.993,133.674 880.659,124.507 889.5,115.5 Z"/></g>
<g><path style="opacity:1" fill="#0059a8" d="M 382.5,159.5 C 383.816,162.087 384.483,165.087 384.5,168.5C 384.628,172.02 384.128,175.353 383,178.5C 382.5,172.175 382.334,165.842 382.5,159.5 Z"/></g>
<g><path style="opacity:1" fill="#2b5e90" d="M 509.5,154.5 C 511.833,154.5 514.167,154.5 516.5,154.5C 516.334,161.508 516.5,168.508 517,175.5C 518.307,176.772 519.807,177.772 521.5,178.5C 517.167,179.833 512.833,179.833 508.5,178.5C 509.628,177.738 510.795,177.071 512,176.5C 512.667,170.167 512.667,163.833 512,157.5C 510.583,156.922 509.75,155.922 509.5,154.5 Z"/></g>
<g><path style="opacity:1" fill="#215a92" d="M 555.5,154.5 C 557.833,154.5 560.167,154.5 562.5,154.5C 562.367,159.272 563.7,159.438 566.5,155C 570.847,153.801 574.347,154.967 577,158.5C 577.333,164.5 577.667,170.5 578,176.5C 579.205,177.071 580.372,177.738 581.5,178.5C 578.914,179.48 576.247,179.813 573.5,179.5C 573.666,172.825 573.5,166.158 573,159.5C 570.205,156.887 567.371,156.887 564.5,159.5C 563.337,165.137 563.17,170.804 564,176.5C 564.925,177.047 565.758,177.713 566.5,178.5C 562.833,179.833 559.167,179.833 555.5,178.5C 556.76,177.618 557.926,176.618 559,175.5C 559.667,169.5 559.667,163.5 559,157.5C 557.271,157.026 556.105,156.026 555.5,154.5 Z"/></g>
<g><path style="opacity:1" fill="#295b89" d="M 638.5,156.5 C 636.539,163.087 635.872,170.087 636.5,177.5C 637.791,177.737 638.791,177.404 639.5,176.5C 641.195,177.011 642.861,177.678 644.5,178.5C 640.167,179.833 635.833,179.833 631.5,178.5C 632.628,177.738 633.795,177.071 635,176.5C 635.667,170.167 635.667,163.833 635,157.5C 630.582,156.042 630.582,155.042 635,154.5C 636.681,154.608 637.848,155.275 638.5,156.5 Z"/></g>
<g><path style="opacity:1" fill="#0258a1" d="M 638.5,156.5 C 638.177,163.022 638.51,169.355 639.5,175.5C 639.5,175.833 639.5,176.167 639.5,176.5C 638.791,177.404 637.791,177.737 636.5,177.5C 635.872,170.087 636.539,163.087 638.5,156.5 Z"/></g>
<g><path style="opacity:1" fill="#1a5995" d="M 502.5,154.5 C 501.198,156.028 499.531,157.028 497.5,157.5C 497.149,164.065 496.149,170.399 494.5,176.5C 493.662,176.158 493.328,175.492 493.5,174.5C 493.5,168.5 493.5,162.5 493.5,156.5C 492.167,156.5 490.833,156.5 489.5,156.5C 492.554,154.447 494.887,151.781 496.5,148.5C 497.466,150.396 497.799,152.396 497.5,154.5C 499.167,154.5 500.833,154.5 502.5,154.5 Z"/></g>
<g><path style="opacity:1" fill="#1f598f" d="M 473.5,154.5 C 476.607,154.351 479.607,154.851 482.5,156C 483.406,157.699 483.739,159.533 483.5,161.5C 480.891,161.17 479.224,159.67 478.5,157C 475.975,156.104 473.808,156.604 472,158.5C 470.455,163.047 470.121,167.713 471,172.5C 474.175,176.89 478.008,177.557 482.5,174.5C 483.881,177.318 482.881,178.818 479.5,179C 472.756,180.714 468.59,178.214 467,171.5C 466.333,167.833 466.333,164.167 467,160.5C 468.436,157.558 470.603,155.558 473.5,154.5 Z"/></g>
<g><path style="opacity:1" fill="#0158a6" d="M 574.5,158.5 C 575.117,158.611 575.617,158.944 576,159.5C 576.167,162.5 576.333,165.5 576.5,168.5C 576.628,172.02 576.128,175.353 575,178.5C 574.5,171.842 574.334,165.175 574.5,158.5 Z"/></g>
<g><path style="opacity:1" fill="#255e98" d="M 735.5,177.5 C 733.167,178.833 730.833,178.833 728.5,177.5C 729.117,177.389 729.617,177.056 730,176.5C 730.667,170.167 730.667,163.833 730,157.5C 729.075,156.953 728.242,156.287 727.5,155.5C 729.743,154.526 732.076,154.192 734.5,154.5C 734.233,162.222 734.566,169.889 735.5,177.5 Z"/></g>
<g><path style="opacity:1" fill="#265c90" d="M 789.5,166.5 C 784.5,166.5 779.5,166.5 774.5,166.5C 774.232,168.099 774.566,169.432 775.5,170.5C 776.293,175.776 779.293,177.609 784.5,176C 785.931,175.535 787.097,174.701 788,173.5C 788.711,175.367 788.211,176.867 786.5,178C 779.075,181.204 773.908,179.037 771,171.5C 769.959,166.56 770.626,161.894 773,157.5C 778.907,153.105 784.24,153.772 789,159.5C 789.497,161.81 789.663,164.143 789.5,166.5 Z"/></g>
<g><path style="opacity:1" fill="#e6f4f9" d="M 777.5,157.5 C 783.284,156.284 785.951,158.618 785.5,164.5C 781.833,164.5 778.167,164.5 774.5,164.5C 774.688,161.794 775.688,159.461 777.5,157.5 Z"/></g>
<g><path style="opacity:1" fill="#9cbfdc" d="M 789.5,166.5 C 785.03,167.486 780.363,167.819 775.5,167.5C 775.5,168.5 775.5,169.5 775.5,170.5C 774.566,169.432 774.232,168.099 774.5,166.5C 779.5,166.5 784.5,166.5 789.5,166.5 Z"/></g>
<g><path style="opacity:1" fill="#e4554c" d="M 928.5,155.5 C 929.756,155.461 930.756,155.961 931.5,157C 929.167,158.667 927.167,160.667 925.5,163C 928.922,165.719 931.422,168.886 933,172.5C 926.616,178.555 919.949,184.222 913,189.5C 908.893,188.23 906.393,185.564 905.5,181.5C 908.084,181.569 910.084,182.735 911.5,185C 912.5,185.667 913.5,185.667 914.5,185C 919.301,181.201 923.801,177.034 928,172.5C 928.667,171.5 928.667,170.5 928,169.5C 926.333,168.167 924.667,166.833 923,165.5C 917.609,170.553 911.443,174.386 904.5,177C 901.833,177.667 899.167,177.667 896.5,177C 895.663,175.989 895.33,174.822 895.5,173.5C 905.43,174.451 913.597,171.117 920,163.5C 920.115,161.893 919.615,160.393 918.5,159C 918.833,158.5 919.167,158 919.5,157.5C 923.005,160.977 926.005,160.31 928.5,155.5 Z"/></g>
<g><path style="opacity:1" fill="#f0f5f7" d="M 343.5,156.5 C 346.505,156.253 349.005,157.253 351,159.5C 351.667,164.167 351.667,168.833 351,173.5C 346.904,179.067 343.237,178.734 340,172.5C 338.432,166.375 339.599,161.042 343.5,156.5 Z"/></g>
<g><path style="opacity:1" fill="#185794" d="M 455.5,159.5 C 455.334,165.176 455.501,170.843 456,176.5C 456.925,177.047 457.758,177.713 458.5,178.5C 456.604,179.466 454.604,179.799 452.5,179.5C 452.5,178.167 452.5,176.833 452.5,175.5C 452.167,174.833 451.833,174.167 451.5,173.5C 451.5,172.833 451.5,172.167 451.5,171.5C 452.326,167.018 452.826,162.351 453,157.5C 453.708,158.381 454.542,159.047 455.5,159.5 Z"/></g>
<g><path style="opacity:1" fill="#f0f8fa" d="M 451.5,171.5 C 451.5,172.167 451.5,172.833 451.5,173.5C 449.182,176.397 446.349,177.063 443,175.5C 441.167,168.166 444,165.166 451.5,166.5C 451.5,168.167 451.5,169.833 451.5,171.5 Z"/></g>
<g><path style="opacity:1" fill="#255d94" d="M 751.5,154.5 C 754.978,154.184 758.312,154.684 761.5,156C 764.487,159.208 763.82,161.041 759.5,161.5C 759.125,156.818 756.792,155.484 752.5,157.5C 749.674,161.392 748.841,165.725 750,170.5C 751.095,175.8 754.262,177.633 759.5,176C 760.646,175.355 761.646,174.522 762.5,173.5C 763.583,174.365 763.749,175.365 763,176.5C 756.932,181.061 751.599,180.394 747,174.5C 743.843,166.557 745.343,159.891 751.5,154.5 Z"/></g>
<g><path style="opacity:1" fill="#225c94" d="M 533.5,154.5 C 546.557,154.422 551.057,160.755 547,173.5C 543.945,178.635 539.445,180.468 533.5,179C 531.43,178.052 529.93,176.552 529,174.5C 527.524,169.924 527.19,165.257 528,160.5C 529.36,157.977 531.193,155.977 533.5,154.5 Z"/></g>
<g><path style="opacity:1" fill="#f0f5f7" d="M 535.5,156.5 C 538.505,156.253 541.005,157.253 543,159.5C 543.667,164.167 543.667,168.833 543,173.5C 538.904,179.067 535.237,178.734 532,172.5C 530.432,166.375 531.599,161.042 535.5,156.5 Z"/></g>
<g><path style="opacity:1" fill="#205a8f" d="M 689.5,154.5 C 693.342,154.239 697.009,154.906 700.5,156.5C 701.452,158.045 701.785,159.712 701.5,161.5C 698.891,161.17 697.224,159.67 696.5,157C 693.975,156.104 691.808,156.604 690,158.5C 688.455,163.047 688.121,167.713 689,172.5C 692.175,176.89 696.008,177.557 700.5,174.5C 701.881,177.318 700.881,178.818 697.5,179C 687.985,180.153 683.652,175.82 684.5,166C 684.132,161.241 685.798,157.407 689.5,154.5 Z"/></g>
<g><path style="opacity:1" fill="#306292" d="M 669.5,164.5 C 670.822,159.007 668.822,156.507 663.5,157C 661.963,158.11 661.297,159.61 661.5,161.5C 656.535,160.392 656.202,158.226 660.5,155C 665.109,153.926 669.276,154.76 673,157.5C 673.333,163.833 673.667,170.167 674,176.5C 674.925,177.047 675.758,177.713 676.5,178.5C 674.604,179.466 672.604,179.799 670.5,179.5C 670.762,178.022 670.429,176.689 669.5,175.5C 667.064,179.08 663.73,180.246 659.5,179C 653.707,173.309 654.374,168.643 661.5,165C 664.146,164.503 666.813,164.336 669.5,164.5 Z"/></g>
<g><path style="opacity:1" fill="#ecf7fa" d="M 669.5,166.5 C 670.826,173.327 668.16,176.494 661.5,176C 658.844,168.484 661.511,165.317 669.5,166.5 Z"/></g>
<g><path style="opacity:1" fill="#0358a3" d="M 669.5,166.5 C 669.5,165.833 669.5,165.167 669.5,164.5C 670.314,162.369 670.814,160.036 671,157.5C 671.333,157.833 671.667,158.167 672,158.5C 672.667,164.833 672.667,171.167 672,177.5C 671.205,173.688 670.371,170.021 669.5,166.5 Z"/></g>
<g><path style="opacity:1" fill="#1d578e" d="M 602.5,146.5 C 608.909,146.183 615.243,146.683 621.5,148C 626.468,152.952 626.801,158.286 622.5,164C 618.747,165.989 614.747,166.822 610.5,166.5C 610.335,169.85 610.502,173.183 611,176.5C 612.509,177.09 614.009,177.756 615.5,178.5C 611.167,179.833 606.833,179.833 602.5,178.5C 603.628,177.738 604.795,177.071 606,176.5C 606.667,167.5 606.667,158.5 606,149.5C 604.271,149.026 603.105,148.026 602.5,146.5 Z"/></g>
<g><path style="opacity:1" fill="#eff6fa" d="M 610.5,148.5 C 619.328,147.839 622.495,151.839 620,160.5C 619.535,161.931 618.701,163.097 617.5,164C 615.19,164.497 612.857,164.663 610.5,164.5C 610.5,159.167 610.5,153.833 610.5,148.5 Z"/></g>
<g><path style="opacity:1" fill="#406e9a" d="M 715.5,157.5 C 715.334,163.509 715.501,169.509 716,175.5C 717.6,176.866 719.433,177.866 721.5,178.5C 719.235,179.647 716.902,179.814 714.5,179C 713.244,178.583 712.577,177.75 712.5,176.5C 714.149,170.399 715.149,164.065 715.5,157.5 Z"/></g>
<g><path style="opacity:1" fill="#2e6090" d="M 310.5,170.5 C 314.644,177.238 319.977,178.238 326.5,173.5C 327.644,176.248 326.644,178.081 323.5,179C 315.627,181.257 309.96,178.757 306.5,171.5C 307.735,171.721 308.735,172.388 309.5,173.5C 310.386,172.675 310.719,171.675 310.5,170.5 Z"/></g>
<g><path style="opacity:1" fill="#255a8c" d="M 413.5,154.5 C 417.471,153.758 420.304,155.091 422,158.5C 424.107,154.499 427.273,153.499 431.5,155.5C 433.002,157.833 432.502,159.499 430,160.5C 426.284,156.177 423.617,156.843 422,162.5C 421.333,167.167 421.333,171.833 422,176.5C 423.509,177.09 425.009,177.756 426.5,178.5C 422.167,179.833 417.833,179.833 413.5,178.5C 414.628,177.738 415.795,177.071 417,176.5C 417.667,170.167 417.667,163.833 417,157.5C 415.271,157.026 414.105,156.026 413.5,154.5 Z"/></g>
<g><path style="opacity:1" fill="#0158a5" d="M 418.5,161.5 C 419.812,163.743 420.478,166.41 420.5,169.5C 420.167,172.167 419.833,174.833 419.5,177.5C 418.505,172.208 418.172,166.875 418.5,161.5 Z"/></g>
<g><path style="opacity:1" fill="#3f6e9a" d="M 497.5,157.5 C 497.334,163.509 497.501,169.509 498,175.5C 499.491,177.004 501.324,177.837 503.5,178C 501.045,179.54 498.379,179.874 495.5,179C 494.748,178.329 494.414,177.496 494.5,176.5C 496.149,170.399 497.149,164.065 497.5,157.5 Z"/></g>
<g><path style="opacity:1" fill="#325b7b" d="M 365.5,177.5 C 367.5,178.833 369.5,178.833 371.5,177.5C 372.675,177.281 373.675,177.614 374.5,178.5C 370.5,179.833 366.5,179.833 362.5,178.5C 363.325,177.614 364.325,177.281 365.5,177.5 Z"/></g>
<g><path style="opacity:1" fill="#3a5f7d" d="M 728.5,177.5 C 730.833,178.833 733.167,178.833 735.5,177.5C 736.978,177.238 738.311,177.571 739.5,178.5C 735.167,179.833 730.833,179.833 726.5,178.5C 726.957,177.702 727.624,177.369 728.5,177.5 Z"/></g>
<g><path style="opacity:1" fill="#2a577e" d="M 184.5,179.5 C 243.167,180.167 243.167,180.833 184.5,181.5C 184.5,180.833 184.5,180.167 184.5,179.5 Z"/></g>
<g><path style="opacity:1" fill="#b2d3ec" d="M 184.5,179.5 C 184.5,179.167 184.5,178.833 184.5,178.5C 199.5,178.5 214.5,178.5 229.5,178.5C 229.5,179.833 229.5,181.167 229.5,182.5C 214.5,182.5 199.5,182.5 184.5,182.5C 184.5,182.167 184.5,181.833 184.5,181.5C 243.167,180.833 243.167,180.167 184.5,179.5 Z"/></g>
<g><path style="opacity:1" fill="#fbaead" d="M 951.5,178.5 C 952.417,181.005 952.417,183.338 951.5,185.5C 950.833,181.5 950.167,181.5 949.5,185.5C 946.376,185.057 944.043,183.39 942.5,180.5C 945.478,179.647 948.478,178.981 951.5,178.5 Z"/></g>
<g><path style="opacity:1" fill="#e1544b" d="M 951.5,178.5 C 948.478,178.981 945.478,179.647 942.5,180.5C 944.043,183.39 946.376,185.057 949.5,185.5C 950.167,181.5 950.833,181.5 951.5,185.5C 951.435,187.696 950.768,189.696 949.5,191.5C 946.148,187.314 942.314,183.647 938,180.5C 937.517,179.552 937.351,178.552 937.5,177.5C 941.644,177.67 945.644,177.003 949.5,175.5C 950.919,176.005 951.585,177.005 951.5,178.5 Z"/></g>
<g><path style="opacity:1" fill="#285e91" d="M 184.5,178.5 C 184.5,178.833 184.5,179.167 184.5,179.5C 184.5,180.167 184.5,180.833 184.5,181.5C 184.5,181.833 184.5,182.167 184.5,182.5C 184.5,182.833 184.5,183.167 184.5,183.5C 199.006,184.167 213.672,184.833 228.5,185.5C 213.672,186.167 199.006,186.833 184.5,187.5C 184.179,189.048 183.179,189.715 181.5,189.5C 180.833,185.5 180.167,185.5 179.5,189.5C 178.5,189.5 177.5,189.5 176.5,189.5C 175.833,185.5 175.167,185.5 174.5,189.5C 173.5,189.5 172.5,189.5 171.5,189.5C 171.5,188.5 171.5,187.5 171.5,186.5C 170.5,186.5 169.5,186.5 168.5,186.5C 168.5,187.5 168.5,188.5 168.5,189.5C 166.408,189.439 164.908,188.439 164,186.5C 163.092,188.439 161.592,189.439 159.5,189.5C 159.5,188.5 159.5,187.5 159.5,186.5C 156.813,186.336 154.146,186.503 151.5,187C 152.741,188.487 152.241,189.32 150,189.5C 147.759,189.32 147.259,188.487 148.5,187C 146.866,186.506 145.199,186.34 143.5,186.5C 144.552,184.744 146.219,184.077 148.5,184.5C 148.5,183.5 148.5,182.5 148.5,181.5C 142.426,181.326 142.093,180.326 147.5,178.5C 161.06,179.015 173.393,179.015 184.5,178.5 Z"/></g>
<g><path style="opacity:1" fill="#aad6f5" d="M 170.5,181.5 C 171.776,182.386 171.776,183.386 170.5,184.5C 169.438,183.575 169.438,182.575 170.5,181.5 Z"/></g>
<g><path style="opacity:1" fill="#c1e6f8" d="M 179.5,181.5 C 181.465,181.948 181.798,182.948 180.5,184.5C 179.614,183.675 179.281,182.675 179.5,181.5 Z"/></g>
<g><path style="opacity:1" fill="#bfe4f4" d="M 174.5,181.5 C 176.465,181.948 176.798,182.948 175.5,184.5C 174.614,183.675 174.281,182.675 174.5,181.5 Z"/></g>
<g><path style="opacity:1" fill="#a1cdeb" d="M 165.5,181.5 C 167.225,181.843 167.725,182.843 167,184.5C 165.961,183.756 165.461,182.756 165.5,181.5 Z"/></g>
<g><path style="opacity:1" fill="#a4d2ef" d="M 160.5,181.5 C 162.465,181.948 162.798,182.948 161.5,184.5C 160.614,183.675 160.281,182.675 160.5,181.5 Z"/></g>
<g><path style="opacity:1" fill="#b3d7f0" d="M 151.5,181.5 C 153.833,181.5 156.167,181.5 158.5,181.5C 158.5,182.5 158.5,183.5 158.5,184.5C 156.167,184.5 153.833,184.5 151.5,184.5C 151.5,183.5 151.5,182.5 151.5,181.5 Z"/></g>
<g><path style="opacity:1" fill="#b6d8f3" d="M 184.5,183.5 C 199.5,183.5 214.5,183.5 229.5,183.5C 229.5,184.833 229.5,186.167 229.5,187.5C 214.5,187.5 199.5,187.5 184.5,187.5C 199.006,186.833 213.672,186.167 228.5,185.5C 213.672,184.833 199.006,184.167 184.5,183.5 Z"/></g>
<g><path style="opacity:1" fill="#9bc1df" d="M 141.5,137.5 C 141.833,137.5 142.167,137.5 142.5,137.5C 142.263,138.791 142.596,139.791 143.5,140.5C 143.5,145.5 143.5,150.5 143.5,155.5C 142.508,162.982 142.175,170.648 142.5,178.5C 144.167,178.5 145.833,178.5 147.5,178.5C 142.093,180.326 142.426,181.326 148.5,181.5C 148.5,182.5 148.5,183.5 148.5,184.5C 146.219,184.077 144.552,184.744 143.5,186.5C 142.167,199.167 142.167,211.833 143.5,224.5C 143.5,224.833 143.5,225.167 143.5,225.5C 143.5,226.167 143.5,226.833 143.5,227.5C 142.507,235.984 142.174,244.651 142.5,253.5C 142.5,253.833 142.5,254.167 142.5,254.5C 142.167,254.5 141.833,254.5 141.5,254.5C 141.5,215.5 141.5,176.5 141.5,137.5 Z"/></g>
<g><path style="opacity:1" fill="#f6f9fa" d="M 143.5,155.5 C 174.167,155.5 204.833,155.5 235.5,155.5C 235.5,170.5 235.5,185.5 235.5,200.5C 232.833,200.5 230.167,200.5 227.5,200.5C 220.777,199.877 219.444,197.21 223.5,192.5C 222.055,190.937 220.389,189.604 218.5,188.5C 216.973,190.193 215.64,192.027 214.5,194C 206.218,195.615 201.218,200.615 199.5,209C 199.844,210.365 200.511,211.532 201.5,212.5C 199.413,218.236 200.746,219.902 205.5,217.5C 205.833,217.5 206.167,217.5 206.5,217.5C 210.859,219.313 214.692,218.647 218,215.5C 222.152,216.599 226.318,216.599 230.5,215.5C 230.5,216.5 230.5,217.5 230.5,218.5C 231.959,218.567 233.292,218.234 234.5,217.5C 235.495,229.322 235.828,241.322 235.5,253.5C 204.5,253.5 173.5,253.5 142.5,253.5C 142.174,244.651 142.507,235.984 143.5,227.5C 171.833,227.5 200.167,227.5 228.5,227.5C 229.404,226.791 229.737,225.791 229.5,224.5C 200.833,224.5 172.167,224.5 143.5,224.5C 142.167,211.833 142.167,199.167 143.5,186.5C 145.199,186.34 146.866,186.506 148.5,187C 147.259,188.487 147.759,189.32 150,189.5C 152.241,189.32 152.741,188.487 151.5,187C 154.146,186.503 156.813,186.336 159.5,186.5C 159.5,187.5 159.5,188.5 159.5,189.5C 161.592,189.439 163.092,188.439 164,186.5C 164.908,188.439 166.408,189.439 168.5,189.5C 168.5,188.5 168.5,187.5 168.5,186.5C 169.5,186.5 170.5,186.5 171.5,186.5C 171.5,187.5 171.5,188.5 171.5,189.5C 172.5,189.5 173.5,189.5 174.5,189.5C 175.167,185.5 175.833,185.5 176.5,189.5C 177.5,189.5 178.5,189.5 179.5,189.5C 180.167,185.5 180.833,185.5 181.5,189.5C 183.179,189.715 184.179,189.048 184.5,187.5C 199.5,187.5 214.5,187.5 229.5,187.5C 229.5,186.167 229.5,184.833 229.5,183.5C 214.5,183.5 199.5,183.5 184.5,183.5C 184.5,183.167 184.5,182.833 184.5,182.5C 199.5,182.5 214.5,182.5 229.5,182.5C 229.5,181.167 229.5,179.833 229.5,178.5C 214.5,178.5 199.5,178.5 184.5,178.5C 173.393,179.015 161.06,179.015 147.5,178.5C 145.833,178.5 144.167,178.5 142.5,178.5C 142.175,170.648 142.508,162.982 143.5,155.5 Z"/></g>
<g><path style="opacity:1" fill="#0d5796" d="M 141.5,137.5 C 141.5,176.5 141.5,215.5 141.5,254.5C 141.158,255.338 140.492,255.672 139.5,255.5C 139.5,216.167 139.5,176.833 139.5,137.5C 140.396,136.494 141.062,136.494 141.5,137.5 Z"/></g>
<g><path style="opacity:1" fill="#e1544a" d="M 958.5,185.5 C 959.497,185.47 960.164,185.97 960.5,187C 959.073,188.7 958.24,190.533 958,192.5C 960.419,194.585 963.253,195.585 966.5,195.5C 966.5,196.5 966.5,197.5 966.5,198.5C 961.929,197.803 957.596,196.636 953.5,195C 952.643,195.689 951.977,196.522 951.5,197.5C 952.982,199.483 954.649,201.316 956.5,203C 958.464,203.624 960.131,203.124 961.5,201.5C 962.606,204.699 961.273,206.365 957.5,206.5C 954.257,204.765 951.423,202.432 949,199.5C 948.333,198.167 948.333,196.833 949,195.5C 952.371,192.297 955.538,188.964 958.5,185.5 Z"/></g>
<g><path style="opacity:1" fill="#e3554b" d="M 935.5,182.5 C 939.295,185.464 942.628,188.964 945.5,193C 941.5,197.999 937.167,202.665 932.5,207C 928.156,208.476 925.822,206.976 925.5,202.5C 927.484,202.383 929.15,203.05 930.5,204.5C 931.833,203.833 932.833,202.833 933.5,201.5C 931.833,199.167 929.833,197.167 927.5,195.5C 925.684,196.815 924.017,198.315 922.5,200C 921.552,200.483 920.552,200.649 919.5,200.5C 919.281,199.325 919.614,198.325 920.5,197.5C 925.854,192.812 930.854,187.812 935.5,182.5 Z"/></g>
<g><path style="opacity:1" fill="#febbbb" d="M 935.5,186.5 C 938.687,188.344 940.687,191.011 941.5,194.5C 938.386,193.909 935.886,192.242 934,189.5C 933.761,188.212 934.261,187.212 935.5,186.5 Z"/></g>
<g><path style="opacity:1" fill="#fdbebe" d="M 929.5,191.5 C 934.036,191.703 936.702,194.036 937.5,198.5C 933.562,197.558 930.895,195.225 929.5,191.5 Z"/></g>
<g><path style="opacity:1" fill="#0c5798" d="M 230.5,201.5 C 232.5,201.5 234.5,201.5 236.5,201.5C 237.833,206.5 237.833,211.5 236.5,216.5C 235.508,216.328 234.842,216.662 234.5,217.5C 233.292,218.234 231.959,218.567 230.5,218.5C 230.5,217.5 230.5,216.5 230.5,215.5C 230.5,210.833 230.5,206.167 230.5,201.5 Z"/></g>
<g><path style="opacity:1" fill="#2f6291" d="M 227.5,200.5 C 228.209,201.404 229.209,201.737 230.5,201.5C 230.5,206.167 230.5,210.833 230.5,215.5C 226.318,216.599 222.152,216.599 218,215.5C 214.692,218.647 210.859,219.313 206.5,217.5C 208.042,216.859 209.376,215.859 210.5,214.5C 209.624,213.749 208.624,213.249 207.5,213C 210.482,212.502 213.482,212.335 216.5,212.5C 226.34,217.093 230.674,214.093 229.5,203.5C 225.973,202.74 222.64,201.406 219.5,199.5C 217.493,201.008 215.826,202.842 214.5,205C 216.585,205.529 218.418,205.029 220,203.5C 221.826,204.01 221.993,204.844 220.5,206C 215.761,207.051 211.094,207.885 206.5,208.5C 205.71,209.609 205.21,210.942 205,212.5C 204.346,211.304 203.846,211.304 203.5,212.5C 204.456,214.075 205.123,215.742 205.5,217.5C 200.746,219.902 199.413,218.236 201.5,212.5C 200.511,211.532 199.844,210.365 199.5,209C 201.218,200.615 206.218,195.615 214.5,194C 215.64,192.027 216.973,190.193 218.5,188.5C 220.389,189.604 222.055,190.937 223.5,192.5C 219.444,197.21 220.777,199.877 227.5,200.5 Z"/></g>
<g><path style="opacity:1" fill="#d6edf8" d="M 208.5,197.5 C 209.552,197.351 210.552,197.517 211.5,198C 208.862,202.105 205.862,205.939 202.5,209.5C 202.167,209.167 201.833,208.833 201.5,208.5C 203.594,204.636 205.928,200.969 208.5,197.5 Z"/></g>
<g><path style="opacity:1" fill="#cce9f6" d="M 215.5,195.5 C 216.376,195.369 217.043,195.702 217.5,196.5C 215.833,199.167 214.167,201.833 212.5,204.5C 211.635,205.583 210.635,205.749 209.5,205C 212.146,202.198 214.146,199.032 215.5,195.5 Z"/></g>
<g><path style="opacity:1" fill="#1c5990" d="M 433.5,204.5 C 432.322,209.191 430.322,213.524 427.5,217.5C 429.167,218.833 430.833,218.833 432.5,217.5C 433.833,215.5 435.167,213.5 436.5,211.5C 437.646,212.145 438.646,212.978 439.5,214C 436.332,220.007 432.665,225.674 428.5,231C 430.951,231.306 433.284,230.806 435.5,229.5C 434.96,228.252 434.293,227.085 433.5,226C 434.108,225.13 434.941,224.63 436,224.5C 438.015,226.361 439.182,228.695 439.5,231.5C 439.56,232.043 439.893,232.376 440.5,232.5C 441.494,227.544 441.827,222.544 441.5,217.5C 445.167,217.5 448.833,217.5 452.5,217.5C 452.5,216.167 452.5,214.833 452.5,213.5C 448.5,213.5 444.5,213.5 440.5,213.5C 440.5,212.167 440.5,210.833 440.5,209.5C 444.5,209.5 448.5,209.5 452.5,209.5C 452.5,207.5 452.5,205.5 452.5,203.5C 453.833,203.5 455.167,203.5 456.5,203.5C 456.5,205.5 456.5,207.5 456.5,209.5C 461.167,209.5 465.833,209.5 470.5,209.5C 470.5,210.833 470.5,212.167 470.5,213.5C 465.833,213.5 461.167,213.5 456.5,213.5C 456.5,214.833 456.5,216.167 456.5,217.5C 460.5,217.5 464.5,217.5 468.5,217.5C 468.5,223.833 468.5,230.167 468.5,236.5C 466.076,236.192 463.743,236.526 461.5,237.5C 463.733,242.401 467.066,246.401 471.5,249.5C 470.919,251.724 469.586,252.557 467.5,252C 463.226,247.726 459.726,242.893 457,237.5C 456.501,243.491 456.334,249.491 456.5,255.5C 455.167,255.5 453.833,255.5 452.5,255.5C 452.666,249.158 452.5,242.825 452,236.5C 449.704,242.466 446.204,247.633 441.5,252C 439.072,252.747 437.406,251.914 436.5,249.5C 441.533,246.798 445.2,242.798 447.5,237.5C 444.843,236.741 442.177,236.074 439.5,235.5C 438.914,235.709 438.414,236.043 438,236.5C 437.161,235.376 435.994,234.709 434.5,234.5C 430.535,235.274 426.535,235.607 422.5,235.5C 423.881,230.915 426.214,226.748 429.5,223C 426.854,222.503 424.187,222.336 421.5,222.5C 421.343,221.127 421.51,219.793 422,218.5C 424.157,216.183 425.657,213.516 426.5,210.5C 427.976,208.231 429.476,205.898 431,203.5C 431.671,204.252 432.504,204.586 433.5,204.5 Z"/></g>
<g><path style="opacity:1" fill="#a4c5de" d="M 177.5,203.5 C 179.167,203.5 180.833,203.5 182.5,203.5C 182.5,209.833 182.5,216.167 182.5,222.5C 180.833,222.5 179.167,222.5 177.5,222.5C 177.5,216.167 177.5,209.833 177.5,203.5 Z"/></g>
<g><path style="opacity:1" fill="#0f5796" d="M 188.5,204.5 C 188.5,210.167 188.5,215.833 188.5,221.5C 187.5,221.5 186.5,221.5 185.5,221.5C 185.5,215.833 185.5,210.167 185.5,204.5C 186.5,204.5 187.5,204.5 188.5,204.5 Z"/></g>
<g><path style="opacity:1" fill="#5e8cb0" d="M 391.5,207.5 C 397.833,207.5 404.167,207.5 410.5,207.5C 410.813,211.042 410.479,214.375 409.5,217.5C 409.5,214.5 409.5,211.5 409.5,208.5C 403.31,208.823 397.31,208.49 391.5,207.5 Z"/></g>
<g><path style="opacity:1" fill="#7aa5c8" d="M 505.5,206.5 C 511.979,205.509 518.646,205.176 525.5,205.5C 525.5,212.833 525.5,220.167 525.5,227.5C 523.585,227.784 521.919,227.451 520.5,226.5C 521.833,226.5 523.167,226.5 524.5,226.5C 524.5,219.833 524.5,213.167 524.5,206.5C 518.167,206.5 511.833,206.5 505.5,206.5 Z"/></g>
<g><path style="opacity:1" fill="#48739d" d="M 165.5,205.5 C 166.586,205.62 167.253,206.287 167.5,207.5C 167.141,210.282 165.808,210.948 163.5,209.5C 164.18,208.14 164.847,206.807 165.5,205.5 Z"/></g>
<g><path style="opacity:1" fill="#2b6198" d="M 148.5,205.5 C 150.5,205.5 152.5,205.5 154.5,205.5C 153.167,210.833 153.167,216.167 154.5,221.5C 152.396,221.799 150.396,221.466 148.5,220.5C 149.715,215.515 149.715,210.515 148.5,205.5 Z"/></g>
<g><path style="opacity:1" fill="#ebf5f9" d="M 216.5,212.5 C 213.375,211.521 210.042,211.187 206.5,211.5C 206.5,210.5 206.5,209.5 206.5,208.5C 211.094,207.885 215.761,207.051 220.5,206C 221.993,204.844 221.826,204.01 220,203.5C 218.418,205.029 216.585,205.529 214.5,205C 215.826,202.842 217.493,201.008 219.5,199.5C 222.64,201.406 225.973,202.74 229.5,203.5C 230.674,214.093 226.34,217.093 216.5,212.5 Z"/></g>
<g><path style="opacity:1" fill="#235c8f" d="M 391.5,207.5 C 397.31,208.49 403.31,208.823 409.5,208.5C 409.5,211.5 409.5,214.5 409.5,217.5C 408.167,217.5 406.833,217.5 405.5,217.5C 405.5,222.167 405.5,226.833 405.5,231.5C 396.5,231.5 387.5,231.5 378.5,231.5C 386.984,230.507 395.651,230.174 404.5,230.5C 404.826,226.116 404.492,221.783 403.5,217.5C 402.832,220.306 402.166,222.972 401.5,225.5C 401.5,223.167 401.5,220.833 401.5,218.5C 397.5,218.5 393.5,218.5 389.5,218.5C 389.5,217.5 389.5,216.5 389.5,215.5C 394.833,215.5 400.167,215.5 405.5,215.5C 405.5,214.167 405.5,212.833 405.5,211.5C 393.833,211.5 382.167,211.5 370.5,211.5C 370.5,212.833 370.5,214.167 370.5,215.5C 375.923,215.482 381.256,214.815 386.5,213.5C 386.5,214.833 386.5,216.167 386.5,217.5C 383.513,217.998 380.513,218.498 377.5,219C 375.881,219.236 374.881,220.069 374.5,221.5C 373.566,220.432 373.232,219.099 373.5,217.5C 372.5,217.5 371.5,217.5 370.5,217.5C 370.5,221.833 370.5,226.167 370.5,230.5C 371.791,230.263 372.791,230.596 373.5,231.5C 372.167,231.5 370.833,231.5 369.5,231.5C 369.5,226.833 369.5,222.167 369.5,217.5C 368.167,217.5 366.833,217.5 365.5,217.5C 365.5,214.167 365.5,210.833 365.5,207.5C 372.2,207.83 378.866,207.497 385.5,206.5C 383.973,204.67 384.473,203.67 387,203.5C 389.151,204.167 390.651,205.5 391.5,207.5 Z"/></g>
<g><path style="opacity:1" fill="#7a9db8" d="M 342.5,208.5 C 346.5,208.5 350.5,208.5 354.5,208.5C 354.806,211.385 354.473,214.052 353.5,216.5C 353.5,214.167 353.5,211.833 353.5,209.5C 349.629,209.815 345.962,209.482 342.5,208.5 Z"/></g>
<g><path style="opacity:1" fill="#105793" d="M 178.5,204.5 C 179.5,204.5 180.5,204.5 181.5,204.5C 181.5,210.167 181.5,215.833 181.5,221.5C 180.5,221.5 179.5,221.5 178.5,221.5C 178.5,215.833 178.5,210.167 178.5,204.5 Z"/></g>
<g><path style="opacity:1" fill="#77a2c3" d="M 188.5,204.5 C 189.49,210.31 189.823,216.31 189.5,222.5C 187.901,222.768 186.568,222.434 185.5,221.5C 186.5,221.5 187.5,221.5 188.5,221.5C 188.5,215.833 188.5,210.167 188.5,204.5 Z"/></g>
<g><path style="opacity:1" fill="#5182b1" d="M 206.5,208.5 C 206.5,209.5 206.5,210.5 206.5,211.5C 210.042,211.187 213.375,211.521 216.5,212.5C 213.482,212.335 210.482,212.502 207.5,213C 208.624,213.249 209.624,213.749 210.5,214.5C 209.376,215.859 208.042,216.859 206.5,217.5C 206.167,217.5 205.833,217.5 205.5,217.5C 205.123,215.742 204.456,214.075 203.5,212.5C 203.846,211.304 204.346,211.304 205,212.5C 205.21,210.942 205.71,209.609 206.5,208.5 Z"/></g>
<g><path style="opacity:1" fill="#e35f58" d="M 963.5,209.5 C 968.072,212.563 972.239,216.23 976,220.5C 976.749,221.635 976.583,222.635 975.5,223.5C 970.323,219.671 966.323,215.004 963.5,209.5 Z"/></g>
<g><path style="opacity:1" fill="#b0e8ff" d="M 212.5,214.5 C 214.337,214.639 214.67,215.306 213.5,216.5C 212.702,216.043 212.369,215.376 212.5,214.5 Z"/></g>
<g><path style="opacity:1" fill="#afd1ed" d="M 333.5,216.5 C 340.6,217.134 347.6,217.801 354.5,218.5C 347.087,219.128 340.087,218.461 333.5,216.5 Z"/></g>
<g><path style="opacity:1" fill="#daedf6" d="M 507.5,221.5 C 507.918,220.778 508.584,220.278 509.5,220C 508.536,218.275 507.869,216.441 507.5,214.5C 509.463,215.96 511.296,217.627 513,219.5C 513.833,218.667 514.667,217.833 515.5,217C 513.5,215 511.5,213 509.5,211C 513.152,210.501 516.818,210.335 520.5,210.5C 520.808,212.924 520.474,215.257 519.5,217.5C 515.798,219.758 511.798,221.091 507.5,221.5 Z"/></g>
<g><path style="opacity:1" fill="#e2564d" d="M 944.5,199.5 C 945.5,199.5 946.5,199.5 947.5,199.5C 946.199,201.672 945.199,204.005 944.5,206.5C 947.426,207.461 950.426,208.127 953.5,208.5C 953.5,209.5 953.5,210.5 953.5,211.5C 948.756,210.742 944.089,209.909 939.5,209C 937.923,212.482 938.923,215.148 942.5,217C 943.5,217.667 944.5,217.667 945.5,217C 946.713,214.674 948.046,214.341 949.5,216C 948.451,218.698 946.451,220.198 943.5,220.5C 940.257,218.765 937.423,216.432 935,213.5C 934.333,212.167 934.333,210.833 935,209.5C 938.371,206.297 941.538,202.964 944.5,199.5 Z"/></g>
<g><path style="opacity:1" fill="#1f5b95" d="M 342.5,208.5 C 345.962,209.482 349.629,209.815 353.5,209.5C 353.5,211.833 353.5,214.167 353.5,216.5C 352.167,216.5 350.833,216.5 349.5,216.5C 349.5,215.5 349.5,214.5 349.5,213.5C 342.687,212.509 335.687,212.175 328.5,212.5C 328.338,214.527 328.505,216.527 329,218.5C 329.513,217.473 330.013,216.473 330.5,215.5C 331.791,215.263 332.791,215.596 333.5,216.5C 340.087,218.461 347.087,219.128 354.5,218.5C 354.5,219.833 354.5,221.167 354.5,222.5C 351.428,222.183 348.428,222.516 345.5,223.5C 344.754,224.736 344.421,226.07 344.5,227.5C 344.209,228.649 343.376,229.316 342,229.5C 341.167,229.333 340.333,229.167 339.5,229C 341.291,226.894 341.958,224.394 341.5,221.5C 338.833,221.5 336.167,221.5 333.5,221.5C 333.631,220.761 333.464,220.094 333,219.5C 332.062,221.488 331.228,223.488 330.5,225.5C 329.833,234.675 329.167,244.009 328.5,253.5C 327.833,246.679 327.167,240.012 326.5,233.5C 325.791,232.596 324.791,232.263 323.5,232.5C 323.5,233.833 323.5,235.167 323.5,236.5C 318.847,235.17 314.18,235.17 309.5,236.5C 307.886,236.197 306.552,235.53 305.5,234.5C 307.454,231.279 309.454,227.945 311.5,224.5C 309.604,223.534 307.604,223.201 305.5,223.5C 305.34,221.801 305.506,220.134 306,218.5C 309.278,214.279 311.778,209.612 313.5,204.5C 315.204,203.177 316.537,203.51 317.5,205.5C 315.5,209.5 313.5,213.5 311.5,217.5C 312.723,218.614 314.056,218.781 315.5,218C 317.081,216.172 318.415,214.172 319.5,212C 320.449,211.383 321.282,211.549 322,212.5C 322.52,214.289 322.187,215.956 321,217.5C 318.167,221.833 315.333,226.167 312.5,230.5C 314.396,231.466 316.396,231.799 318.5,231.5C 318.007,229.194 317.674,226.861 317.5,224.5C 318.822,224.33 319.989,224.663 321,225.5C 321.471,227.246 322.138,228.913 323,230.5C 325.087,227.327 326.921,223.994 328.5,220.5C 327.311,219.571 325.978,219.238 324.5,219.5C 324.5,215.833 324.5,212.167 324.5,208.5C 328.833,208.5 333.167,208.5 337.5,208.5C 337.579,207.07 337.246,205.736 336.5,204.5C 340.265,202.909 342.265,204.242 342.5,208.5 Z"/></g>
<g><path style="opacity:1" fill="#8bb2ce" d="M 349.5,213.5 C 342.8,213.17 336.134,213.503 329.5,214.5C 329.624,215.107 329.957,215.44 330.5,215.5C 330.013,216.473 329.513,217.473 329,218.5C 328.505,216.527 328.338,214.527 328.5,212.5C 335.687,212.175 342.687,212.509 349.5,213.5 Z"/></g>
<g><path style="opacity:1" fill="#e2f2f8" d="M 452.5,203.5 C 452.5,205.5 452.5,207.5 452.5,209.5C 448.5,209.5 444.5,209.5 440.5,209.5C 440.5,210.833 440.5,212.167 440.5,213.5C 444.5,213.5 448.5,213.5 452.5,213.5C 452.5,214.833 452.5,216.167 452.5,217.5C 448.833,217.5 445.167,217.5 441.5,217.5C 440.833,222.167 440.167,226.833 439.5,231.5C 439.182,228.695 438.015,226.361 436,224.5C 434.941,224.63 434.108,225.13 433.5,226C 434.293,227.085 434.96,228.252 435.5,229.5C 433.284,230.806 430.951,231.306 428.5,231C 432.665,225.674 436.332,220.007 439.5,214C 438.646,212.978 437.646,212.145 436.5,211.5C 435.167,213.5 433.833,215.5 432.5,217.5C 430.833,218.833 429.167,218.833 427.5,217.5C 430.322,213.524 432.322,209.191 433.5,204.5C 434.461,206.265 434.795,208.265 434.5,210.5C 435.978,210.762 437.311,210.429 438.5,209.5C 438.291,208.914 437.957,208.414 437.5,208C 442.155,207.501 446.821,207.334 451.5,207.5C 451.232,205.901 451.566,204.568 452.5,203.5 Z"/></g>
<g><path style="opacity:1" fill="#dc534c" d="M 958.5,215.5 C 962.464,218.963 966.298,222.63 970,226.5C 970.688,227.332 970.521,227.998 969.5,228.5C 965.322,224.821 961.322,220.988 957.5,217C 958.056,216.617 958.389,216.117 958.5,215.5 Z"/></g>
<g><path style="opacity:1" fill="#1b5891" d="M 505.5,206.5 C 511.833,206.5 518.167,206.5 524.5,206.5C 524.5,213.167 524.5,219.833 524.5,226.5C 523.167,226.5 521.833,226.5 520.5,226.5C 520.785,224.712 520.452,223.045 519.5,221.5C 515.465,223.548 511.298,225.214 507,226.5C 504.919,224.443 505.086,222.777 507.5,221.5C 511.798,221.091 515.798,219.758 519.5,217.5C 520.474,215.257 520.808,212.924 520.5,210.5C 516.818,210.335 513.152,210.501 509.5,211C 511.5,213 513.5,215 515.5,217C 514.667,217.833 513.833,218.667 513,219.5C 511.296,217.627 509.463,215.96 507.5,214.5C 506.294,213.12 506.627,211.953 508.5,211C 507.552,210.517 506.552,210.351 505.5,210.5C 505.5,209.167 505.5,207.833 505.5,206.5 Z"/></g>
<g><path style="opacity:1" fill="#275d8f" d="M 481.5,206.5 C 488.5,206.5 495.5,206.5 502.5,206.5C 502.5,212.833 502.5,219.167 502.5,225.5C 500.833,225.5 499.167,225.5 497.5,225.5C 497.5,224.5 497.5,223.5 497.5,222.5C 492.427,223.866 487.427,225.532 482.5,227.5C 480.862,226.295 480.529,224.962 481.5,223.5C 484.539,222.431 487.539,221.265 490.5,220C 488.667,218.167 486.833,216.333 485,214.5C 484.508,213.451 484.674,212.451 485.5,211.5C 484.311,210.571 482.978,210.238 481.5,210.5C 481.5,209.167 481.5,207.833 481.5,206.5 Z"/></g>
<g><path style="opacity:1" fill="#08569a" d="M 497.5,210.5 C 492.933,208.715 487.933,207.882 482.5,208C 488.825,207.5 495.158,207.334 501.5,207.5C 501.5,213.167 501.5,218.833 501.5,224.5C 500.5,224.5 499.5,224.5 498.5,224.5C 498.863,222.089 497.863,220.589 495.5,220C 496.448,219.517 497.448,219.351 498.5,219.5C 498.81,216.287 498.477,213.287 497.5,210.5 Z"/></g>
<g><path style="opacity:1" fill="#ecf6f9" d="M 497.5,210.5 C 497.663,212.857 497.497,215.19 497,217.5C 492.917,220.719 491.25,220.053 492,215.5C 490.5,214 489,212.5 487.5,211C 490.817,210.502 494.15,210.335 497.5,210.5 Z"/></g>
<g><path style="opacity:1" fill="#4d7c9a" d="M 441.5,217.5 C 441.827,222.544 441.494,227.544 440.5,232.5C 439.893,232.376 439.56,232.043 439.5,231.5C 440.167,226.833 440.833,222.167 441.5,217.5 Z"/></g>
<g><path style="opacity:1" fill="#80a5c8" d="M 143.5,225.5 C 143.5,225.167 143.5,224.833 143.5,224.5C 172.167,224.5 200.833,224.5 229.5,224.5C 229.737,225.791 229.404,226.791 228.5,227.5C 200.52,225.508 172.186,224.842 143.5,225.5 Z"/></g>
<g><path style="opacity:1" fill="#ecf5f9" d="M 410.5,207.5 C 411.319,210.305 411.819,213.305 412,216.5C 412.684,214.641 413.684,212.974 415,211.5C 415.283,214.742 416.117,215.076 417.5,212.5C 421.825,217.84 423.158,217.006 421.5,210C 422.126,209.25 422.626,208.416 423,207.5C 423.759,209.063 424.926,210.063 426.5,210.5C 425.657,213.516 424.157,216.183 422,218.5C 421.51,219.793 421.343,221.127 421.5,222.5C 424.187,222.336 426.854,222.503 429.5,223C 426.214,226.748 423.881,230.915 422.5,235.5C 426.535,235.607 430.535,235.274 434.5,234.5C 435.994,234.709 437.161,235.376 438,236.5C 438.414,236.043 438.914,235.709 439.5,235.5C 442.177,236.074 444.843,236.741 447.5,237.5C 445.2,242.798 441.533,246.798 436.5,249.5C 436.5,247.833 436.5,246.167 436.5,244.5C 435.609,243.89 434.609,243.557 433.5,243.5C 432.699,241.958 432.366,240.292 432.5,238.5C 431.5,238.5 430.5,238.5 429.5,238.5C 429.5,241.5 429.5,244.5 429.5,247.5C 428.698,246.048 428.198,244.382 428,242.5C 427.617,243.056 427.117,243.389 426.5,243.5C 426.5,241.833 426.5,240.167 426.5,238.5C 425.167,238.5 423.833,238.5 422.5,238.5C 422.932,241.877 422.265,244.877 420.5,247.5C 420.66,245.801 420.494,244.134 420,242.5C 418.983,244.376 418.149,246.376 417.5,248.5C 416.795,244.029 417.795,239.862 420.5,236C 419.141,234.796 418.141,233.296 417.5,231.5C 416.522,231.977 415.689,232.643 415,233.5C 414.83,239.196 414.33,244.862 413.5,250.5C 412.491,229.341 411.325,229.341 410,250.5C 409.617,251.056 409.117,251.389 408.5,251.5C 408.5,250.833 408.5,250.167 408.5,249.5C 409.487,244.695 409.821,239.695 409.5,234.5C 398.833,234.5 388.167,234.5 377.5,234.5C 378.103,233.365 378.436,232.365 378.5,231.5C 387.5,231.5 396.5,231.5 405.5,231.5C 405.5,226.833 405.5,222.167 405.5,217.5C 406.833,217.5 408.167,217.5 409.5,217.5C 410.479,214.375 410.813,211.042 410.5,207.5 Z"/></g>
<g><path style="opacity:1" fill="#cbebf9" d="M 444.5,221.5 C 447.167,221.5 449.833,221.5 452.5,221.5C 452.5,225.167 452.5,228.833 452.5,232.5C 449.833,232.5 447.167,232.5 444.5,232.5C 444.5,228.833 444.5,225.167 444.5,221.5 Z"/></g>
<g><path style="opacity:1" fill="#ceedf9" d="M 456.5,221.5 C 459.167,221.5 461.833,221.5 464.5,221.5C 464.5,225.167 464.5,228.833 464.5,232.5C 461.833,232.5 459.167,232.5 456.5,232.5C 456.5,228.833 456.5,225.167 456.5,221.5 Z"/></g>
<g><path style="opacity:1" fill="#2e5b7e" d="M 143.5,225.5 C 172.186,224.842 200.52,225.508 228.5,227.5C 200.167,227.5 171.833,227.5 143.5,227.5C 143.5,226.833 143.5,226.167 143.5,225.5 Z"/></g>
<g><path style="opacity:1" fill="#def1f9" d="M 389.5,218.5 C 392.962,219.482 396.629,219.815 400.5,219.5C 400.5,220.5 400.5,221.5 400.5,222.5C 396.351,221.92 392.684,222.586 389.5,224.5C 392.962,225.482 396.629,225.815 400.5,225.5C 400.5,226.5 400.5,227.5 400.5,228.5C 391.833,228.5 383.167,228.5 374.5,228.5C 374.5,227.5 374.5,226.5 374.5,225.5C 378.167,225.5 381.833,225.5 385.5,225.5C 385.5,224.5 385.5,223.5 385.5,222.5C 381.629,222.815 377.962,222.482 374.5,221.5C 374.881,220.069 375.881,219.236 377.5,219C 380.513,218.498 383.513,217.998 386.5,217.5C 386.5,216.167 386.5,214.833 386.5,213.5C 381.256,214.815 375.923,215.482 370.5,215.5C 370.5,214.167 370.5,212.833 370.5,211.5C 382.167,211.5 393.833,211.5 405.5,211.5C 405.5,212.833 405.5,214.167 405.5,215.5C 400.167,215.5 394.833,215.5 389.5,215.5C 389.5,216.5 389.5,217.5 389.5,218.5 Z"/></g>
<g><path style="opacity:1" fill="#2c6092" d="M 446.5,222.5 C 448.858,224.168 450.524,226.501 451.5,229.5C 451,229.833 450.5,230.167 450,230.5C 446.86,228.566 445.693,225.899 446.5,222.5 Z"/></g>
<g><path style="opacity:1" fill="#275e90" d="M 460.5,222.5 C 461.756,222.461 462.756,222.961 463.5,224C 462.783,226.715 461.283,228.882 459,230.5C 458.5,230.167 458,229.833 457.5,229.5C 458.788,227.261 459.788,224.928 460.5,222.5 Z"/></g>
<g><path style="opacity:1" fill="#36638e" d="M 333.5,221.5 C 336.167,221.5 338.833,221.5 341.5,221.5C 341.958,224.394 341.291,226.894 339.5,229C 340.333,229.167 341.167,229.333 342,229.5C 343.376,229.316 344.209,228.649 344.5,227.5C 347.167,227.5 349.833,227.5 352.5,227.5C 352.5,236.167 352.5,244.833 352.5,253.5C 346.5,253.5 340.5,253.5 334.5,253.5C 334.5,244.833 334.5,236.167 334.5,227.5C 336.5,227.5 338.5,227.5 340.5,227.5C 340.5,225.833 340.5,224.167 340.5,222.5C 337.941,222.802 335.607,222.468 333.5,221.5 Z"/></g>
<g><path style="opacity:1" fill="#165793" d="M 374.5,221.5 C 377.962,222.482 381.629,222.815 385.5,222.5C 385.5,223.5 385.5,224.5 385.5,225.5C 381.833,225.5 378.167,225.5 374.5,225.5C 374.5,226.5 374.5,227.5 374.5,228.5C 383.167,228.5 391.833,228.5 400.5,228.5C 401.404,227.791 401.737,226.791 401.5,225.5C 402.166,222.972 402.832,220.306 403.5,217.5C 404.492,221.783 404.826,226.116 404.5,230.5C 395.651,230.174 386.984,230.507 378.5,231.5C 378.436,232.365 378.103,233.365 377.5,234.5C 386.342,235.167 395.342,235.833 404.5,236.5C 393.136,236.846 382.136,237.846 371.5,239.5C 372.789,240.637 373.789,241.97 374.5,243.5C 373.134,246.734 371.301,249.734 369,252.5C 367.605,252.22 366.438,251.553 365.5,250.5C 367.086,248.33 368.42,245.996 369.5,243.5C 366.914,244.21 364.914,243.21 363.5,240.5C 367.476,238.19 370.809,235.19 373.5,231.5C 372.791,230.596 371.791,230.263 370.5,230.5C 370.5,226.167 370.5,221.833 370.5,217.5C 371.5,217.5 372.5,217.5 373.5,217.5C 373.232,219.099 373.566,220.432 374.5,221.5 Z"/></g>
<g><path style="opacity:1" fill="#4f7a9d" d="M 389.5,218.5 C 393.5,218.5 397.5,218.5 401.5,218.5C 401.5,220.833 401.5,223.167 401.5,225.5C 401.737,226.791 401.404,227.791 400.5,228.5C 400.5,227.5 400.5,226.5 400.5,225.5C 396.629,225.815 392.962,225.482 389.5,224.5C 393.649,225.08 397.316,224.414 400.5,222.5C 400.5,221.5 400.5,220.5 400.5,219.5C 396.629,219.815 392.962,219.482 389.5,218.5 Z"/></g>
<g><path style="opacity:1" fill="#16538b" d="M 400.5,222.5 C 397.316,224.414 393.649,225.08 389.5,224.5C 392.684,222.586 396.351,221.92 400.5,222.5 Z"/></g>
<g><path style="opacity:1" fill="#0c5696" d="M 505.5,229.5 C 510.64,230.488 515.974,230.821 521.5,230.5C 521.5,237.833 521.5,245.167 521.5,252.5C 513.159,252.19 504.826,251.69 496.5,251C 503.346,250.828 510.013,250.328 516.5,249.5C 517.451,248.081 517.784,246.415 517.5,244.5C 517.5,242.833 517.5,241.167 517.5,239.5C 517.5,237.833 517.5,236.167 517.5,234.5C 508.682,233.507 499.682,233.173 490.5,233.5C 490.829,239.537 490.496,245.537 489.5,251.5C 488.503,244.866 488.17,238.2 488.5,231.5C 492.371,231.815 496.038,231.482 499.5,230.5C 499.5,230.167 499.5,229.833 499.5,229.5C 500.404,228.791 500.737,227.791 500.5,226.5C 502.167,226.5 503.833,226.5 505.5,226.5C 505.5,227.5 505.5,228.5 505.5,229.5 Z"/></g>
<g><path style="opacity:1" fill="#80a3bc" d="M 505.5,229.5 C 511.167,229.5 516.833,229.5 522.5,229.5C 522.826,237.684 522.492,245.684 521.5,253.5C 521.5,253.167 521.5,252.833 521.5,252.5C 521.5,245.167 521.5,237.833 521.5,230.5C 515.974,230.821 510.64,230.488 505.5,229.5 Z"/></g>
<g><path style="opacity:1" fill="#678ea8" d="M 499.5,229.5 C 499.5,229.833 499.5,230.167 499.5,230.5C 495.5,230.5 491.5,230.5 487.5,230.5C 487.5,238.167 487.5,245.833 487.5,253.5C 486.508,245.684 486.174,237.684 486.5,229.5C 490.833,229.5 495.167,229.5 499.5,229.5 Z"/></g>
<g><path style="opacity:1" fill="#2c6191" d="M 377.5,234.5 C 388.167,234.5 398.833,234.5 409.5,234.5C 409.821,239.695 409.487,244.695 408.5,249.5C 408.826,245.116 408.492,240.783 407.5,236.5C 406.675,240.122 406.175,243.789 406,247.5C 405.617,248.056 405.117,248.389 404.5,248.5C 404.5,245.167 404.5,241.833 404.5,238.5C 393.449,238.211 382.449,238.545 371.5,239.5C 382.136,237.846 393.136,236.846 404.5,236.5C 395.342,235.833 386.342,235.167 377.5,234.5 Z"/></g>
<g><path style="opacity:1" fill="#04579f" d="M 408.5,249.5 C 407.265,249.721 406.265,250.388 405.5,251.5C 404.614,250.675 404.281,249.675 404.5,248.5C 405.117,248.389 405.617,248.056 406,247.5C 406.175,243.789 406.675,240.122 407.5,236.5C 408.492,240.783 408.826,245.116 408.5,249.5 Z"/></g>
<g><path style="opacity:1" fill="#e7f7f9" d="M 517.5,234.5 C 517.5,236.167 517.5,237.833 517.5,239.5C 508.833,239.5 500.167,239.5 491.5,239.5C 491.5,237.833 491.5,236.167 491.5,234.5C 500.167,234.5 508.833,234.5 517.5,234.5 Z"/></g>
<g><path style="opacity:1" fill="#265e95" d="M 433.5,243.5 C 433.5,246.5 433.5,249.5 433.5,252.5C 432.167,252.5 430.833,252.5 429.5,252.5C 429.5,250.833 429.5,249.167 429.5,247.5C 429.5,244.5 429.5,241.5 429.5,238.5C 430.5,238.5 431.5,238.5 432.5,238.5C 432.366,240.292 432.699,241.958 433.5,243.5 Z"/></g>
<g><path style="opacity:1" fill="#245c96" d="M 436.5,244.5 C 436.131,242.559 435.464,240.725 434.5,239C 435.108,238.13 435.941,237.63 437,237.5C 438.91,239.201 440.077,241.367 440.5,244C 439.421,247.052 438.088,247.218 436.5,244.5 Z"/></g>
<g><path style="opacity:1" fill="#235c91" d="M 499.5,230.5 C 496.038,231.482 492.371,231.815 488.5,231.5C 488.17,238.2 488.503,244.866 489.5,251.5C 490.496,245.537 490.829,239.537 490.5,233.5C 499.682,233.173 508.682,233.507 517.5,234.5C 508.833,234.5 500.167,234.5 491.5,234.5C 491.5,236.167 491.5,237.833 491.5,239.5C 500.167,239.5 508.833,239.5 517.5,239.5C 517.5,241.167 517.5,242.833 517.5,244.5C 517.167,244.5 516.833,244.5 516.5,244.5C 508.167,244.5 499.833,244.5 491.5,244.5C 491.5,245.833 491.5,247.167 491.5,248.5C 499.65,249.493 507.983,249.826 516.5,249.5C 510.013,250.328 503.346,250.828 496.5,251C 504.826,251.69 513.159,252.19 521.5,252.5C 521.5,252.833 521.5,253.167 521.5,253.5C 510.167,253.5 498.833,253.5 487.5,253.5C 487.5,245.833 487.5,238.167 487.5,230.5C 491.5,230.5 495.5,230.5 499.5,230.5 Z"/></g>
<g><path style="opacity:1" fill="#1c5991" d="M 310.5,244.5 C 309.525,247.067 308.858,249.733 308.5,252.5C 307.167,252.5 305.833,252.5 304.5,252.5C 304.5,251.5 304.5,250.5 304.5,249.5C 305.74,246.353 306.74,243.02 307.5,239.5C 308.833,238.167 310.167,238.167 311.5,239.5C 310.691,241.071 310.357,242.738 310.5,244.5 Z"/></g>
<g><path style="opacity:1" fill="#dbeff7" d="M 326.5,233.5 C 326.5,240.5 326.5,247.5 326.5,254.5C 324.886,252.925 322.886,252.259 320.5,252.5C 320.296,249.482 319.963,246.482 319.5,243.5C 320.641,245.667 321.641,248 322.5,250.5C 323.902,250.135 324.902,249.301 325.5,248C 324.599,245.129 323.599,242.296 322.5,239.5C 321.167,238.167 319.833,238.167 318.5,239.5C 319.127,240.417 319.461,241.417 319.5,242.5C 318.521,245.625 318.187,248.958 318.5,252.5C 316.585,252.784 314.919,252.451 313.5,251.5C 314.833,251.5 316.167,251.5 317.5,251.5C 316.92,247.19 316.586,242.857 316.5,238.5C 315.5,238.5 314.5,238.5 313.5,238.5C 313.5,241.167 313.5,243.833 313.5,246.5C 312.732,245.737 312.232,244.737 312,243.5C 311.617,244.056 311.117,244.389 310.5,244.5C 310.357,242.738 310.691,241.071 311.5,239.5C 310.167,238.167 308.833,238.167 307.5,239.5C 306.74,243.02 305.74,246.353 304.5,249.5C 304.109,245.617 304.776,241.95 306.5,238.5C 305.754,237.264 305.421,235.93 305.5,234.5C 306.552,235.53 307.886,236.197 309.5,236.5C 314.18,235.17 318.847,235.17 323.5,236.5C 323.5,235.167 323.5,233.833 323.5,232.5C 324.791,232.263 325.791,232.596 326.5,233.5 Z"/></g>
<g><path style="opacity:1" fill="#275e94" d="M 319.5,243.5 C 319.5,243.167 319.5,242.833 319.5,242.5C 319.461,241.417 319.127,240.417 318.5,239.5C 319.833,238.167 321.167,238.167 322.5,239.5C 323.599,242.296 324.599,245.129 325.5,248C 324.902,249.301 323.902,250.135 322.5,250.5C 321.641,248 320.641,245.667 319.5,243.5 Z"/></g>
<g><path style="opacity:1" fill="#e3f1f8" d="M 404.5,248.5 C 403.833,248.833 403.167,249.167 402.5,249.5C 399.833,249.5 397.167,249.5 394.5,249.5C 394.5,250.5 394.5,251.5 394.5,252.5C 391.461,251.585 388.961,252.585 387,255.5C 387.437,253.243 387.937,250.91 388.5,248.5C 390.202,251.026 391.868,250.859 393.5,248C 392.637,245.773 391.637,243.607 390.5,241.5C 389.192,240.374 387.858,240.374 386.5,241.5C 385.817,239.824 384.483,239.157 382.5,239.5C 382.5,240.833 382.5,242.167 382.5,243.5C 381.221,242.032 379.554,241.365 377.5,241.5C 377.993,243.806 378.326,246.139 378.5,248.5C 376.87,246.974 376.037,244.974 376,242.5C 375.617,243.056 375.117,243.389 374.5,243.5C 373.789,241.97 372.789,240.637 371.5,239.5C 382.449,238.545 393.449,238.211 404.5,238.5C 404.5,241.833 404.5,245.167 404.5,248.5 Z"/></g>
<g><path style="opacity:1" fill="#245d97" d="M 388.5,248.5 C 387.833,246.167 387.167,243.833 386.5,241.5C 387.858,240.374 389.192,240.374 390.5,241.5C 391.637,243.607 392.637,245.773 393.5,248C 391.868,250.859 390.202,251.026 388.5,248.5 Z"/></g>
<g><path style="opacity:1" fill="#245c94" d="M 397.5,239.5 C 399.88,241.237 401.547,243.57 402.5,246.5C 401.672,247.415 400.672,248.081 399.5,248.5C 397.556,246.72 396.223,244.553 395.5,242C 396.056,240.989 396.722,240.156 397.5,239.5 Z"/></g>
<g><path style="opacity:1" fill="#225577" d="M 330.5,225.5 C 330.5,235.167 330.5,244.833 330.5,254.5C 329.167,254.5 327.833,254.5 326.5,254.5C 326.5,247.5 326.5,240.5 326.5,233.5C 327.167,240.012 327.833,246.679 328.5,253.5C 329.167,244.009 329.833,234.675 330.5,225.5 Z"/></g>
<g><path style="opacity:1" fill="#275e96" d="M 382.5,243.5 C 383.092,246.127 383.425,248.794 383.5,251.5C 381.833,251.5 380.167,251.5 378.5,251.5C 378.5,250.5 378.5,249.5 378.5,248.5C 378.326,246.139 377.993,243.806 377.5,241.5C 379.554,241.365 381.221,242.032 382.5,243.5 Z"/></g>
<g><path style="opacity:1" fill="#1b5996" d="M 426.5,243.5 C 425.366,246.37 424.7,249.37 424.5,252.5C 423.167,252.5 421.833,252.5 420.5,252.5C 420.5,250.833 420.5,249.167 420.5,247.5C 422.265,244.877 422.932,241.877 422.5,238.5C 423.833,238.5 425.167,238.5 426.5,238.5C 426.5,240.167 426.5,241.833 426.5,243.5 Z"/></g>
<g><path style="opacity:1" fill="#f0f9fd" d="M 516.5,244.5 C 516.5,245.833 516.5,247.167 516.5,248.5C 508.167,248.5 499.833,248.5 491.5,248.5C 491.5,247.167 491.5,245.833 491.5,244.5C 499.833,244.5 508.167,244.5 516.5,244.5 Z"/></g>
<g><path style="opacity:1" fill="#739fc4" d="M 516.5,244.5 C 516.833,244.5 517.167,244.5 517.5,244.5C 517.784,246.415 517.451,248.081 516.5,249.5C 507.983,249.826 499.65,249.493 491.5,248.5C 499.833,248.5 508.167,248.5 516.5,248.5C 516.5,247.167 516.5,245.833 516.5,244.5 Z"/></g>
<g><path style="opacity:1" fill="#81a8c5" d="M 402.5,249.5 C 399.841,249.917 397.508,250.917 395.5,252.5C 395.167,252.5 394.833,252.5 394.5,252.5C 394.5,251.5 394.5,250.5 394.5,249.5C 397.167,249.5 399.833,249.5 402.5,249.5 Z"/></g>
<g><path style="opacity:1" fill="#1e5b93" d="M 313.5,251.5 C 313.5,249.833 313.5,248.167 313.5,246.5C 313.5,243.833 313.5,241.167 313.5,238.5C 314.5,238.5 315.5,238.5 316.5,238.5C 316.586,242.857 316.92,247.19 317.5,251.5C 316.167,251.5 314.833,251.5 313.5,251.5 Z"/></g>
<g><path style="opacity:1" fill="#145794" d="M 347.5,231.5 C 348.183,229.824 349.517,229.157 351.5,229.5C 351.5,237.167 351.5,244.833 351.5,252.5C 346.167,252.5 340.833,252.5 335.5,252.5C 335.5,244.833 335.5,237.167 335.5,229.5C 336.552,229.351 337.552,229.517 338.5,230C 337.549,233.057 337.216,236.223 337.5,239.5C 341.514,239.666 345.514,239.499 349.5,239C 349.833,238.667 350.167,238.333 350.5,238C 349.269,235.834 348.269,233.667 347.5,231.5 Z"/></g>
<g><path style="opacity:1" fill="#e0f0f9" d="M 338.5,242.5 C 341.5,242.5 344.5,242.5 347.5,242.5C 347.5,244.833 347.5,247.167 347.5,249.5C 344.5,249.5 341.5,249.5 338.5,249.5C 338.5,247.167 338.5,244.833 338.5,242.5 Z"/></g>
<g><path style="opacity:1" fill="#add2f0" d="M 347.5,231.5 C 347.5,231.833 347.5,232.167 347.5,232.5C 344.833,232.5 342.167,232.5 339.5,232.5C 339.5,234.167 339.5,235.833 339.5,237.5C 342.167,237.5 344.833,237.5 347.5,237.5C 344.713,238.477 341.713,238.81 338.5,238.5C 338.5,236.167 338.5,233.833 338.5,231.5C 341.5,231.5 344.5,231.5 347.5,231.5 Z"/></g>
<g><path style="opacity:1" fill="#f6fafa" d="M 347.5,232.5 C 347.5,234.167 347.5,235.833 347.5,237.5C 344.833,237.5 342.167,237.5 339.5,237.5C 339.5,235.833 339.5,234.167 339.5,232.5C 342.167,232.5 344.833,232.5 347.5,232.5 Z"/></g>
<g><path style="opacity:1" fill="#275f93" d="M 404.5,248.5 C 404.281,249.675 404.614,250.675 405.5,251.5C 406.265,250.388 407.265,249.721 408.5,249.5C 408.5,250.167 408.5,250.833 408.5,251.5C 404.111,254.62 399.778,254.953 395.5,252.5C 397.508,250.917 399.841,249.917 402.5,249.5C 403.167,249.167 403.833,248.833 404.5,248.5 Z"/></g>
<g><path style="opacity:1" fill="#d2f0fd" d="M 234.5,217.5 C 234.842,216.662 235.508,216.328 236.5,216.5C 236.5,229.167 236.5,241.833 236.5,254.5C 205.167,254.5 173.833,254.5 142.5,254.5C 142.5,254.167 142.5,253.833 142.5,253.5C 173.5,253.5 204.5,253.5 235.5,253.5C 235.828,241.322 235.495,229.322 234.5,217.5 Z"/></g>
<g><path style="opacity:1" fill="#1b568c" d="M 990.5,35.5 C 999.042,42.5744 1004.54,51.5744 1007,62.5C 1007.67,151.5 1007.67,240.5 1007,329.5C 1004.15,345.827 995.654,358.161 981.5,366.5C 976.37,368.617 971.036,370.117 965.5,371C 680.834,371.5 396.167,371.667 111.5,371.5C 93.6012,367.268 81.2679,356.601 74.5,339.5C 75.8589,340.007 76.8589,341.007 77.5,342.5C 78.9501,341.15 79.6168,339.484 79.5,337.5C 83.3457,348.014 90.3457,355.68 100.5,360.5C 103.715,362.856 107.381,364.356 111.5,365C 396,365.833 680.334,365.666 964.5,364.5C 980.576,362.476 991.909,354.143 998.5,339.5C 1000.12,337.77 1001.45,335.77 1002.5,333.5C 1002.78,334.289 1003.28,334.956 1004,335.5C 1004.83,243.832 1004.67,152.165 1003.5,60.5C 1002.89,60.6236 1002.56,60.9569 1002.5,61.5C 1001.83,61.5 1001.17,61.5 1000.5,61.5C 998.468,54.4348 995.135,48.1015 990.5,42.5C 989.829,41.1529 989.829,39.9862 990.5,39C 988.926,38.647 987.259,37.9804 985.5,37C 983.441,35.8145 983.274,34.6479 985,33.5C 986.8,34.3195 988.634,34.9862 990.5,35.5 Z"/></g>
<g><path style="opacity:1" fill="#08569a" d="M 106.5,367.5 C 394.095,367.498 681.762,367.498 969.5,367.5C 969.291,368.086 968.957,368.586 968.5,369C 683.167,369.667 397.833,369.667 112.5,369C 110.564,368.187 108.564,367.687 106.5,367.5 Z"/></g>
<g><path style="opacity:1" fill="#e6f8f9" d="M 100.5,360.5 C 103.564,360.144 106.231,360.977 108.5,363C 393.873,363.168 679.206,363.668 964.5,364.5C 680.334,365.666 396,365.833 111.5,365C 107.381,364.356 103.715,362.856 100.5,360.5 Z"/></g>
<g><path style="opacity:1" fill="#e1fbfe" d="M 981.5,366.5 C 981.67,367.822 981.337,368.989 980.5,370C 975.588,370.222 970.921,371.055 966.5,372.5C 681.833,372.5 397.167,372.5 112.5,372.5C 111.833,372.5 111.5,372.167 111.5,371.5C 396.167,371.667 680.834,371.5 965.5,371C 971.036,370.117 976.37,368.617 981.5,366.5 Z"/></g>
<g><path style="opacity:1" fill="#f7fbf8" d="M 112.5,372.5 C 397.167,372.5 681.833,372.5 966.5,372.5C 969.916,371.894 972.582,372.894 974.5,375.5C 974.167,376.5 973.5,377.167 972.5,377.5C 971.719,376.271 971.219,374.938 971,373.5C 686.078,374.498 401.244,374.831 116.5,374.5C 114.829,374.332 113.496,373.665 112.5,372.5 Z"/></g>
</svg>
