<?xml version="1.0" encoding="UTF-8"?>
<!DOCTYPE svg PUBLIC "-//W3C//DTD SVG 1.1//EN" "http://www.w3.org/Graphics/SVG/1.1/DTD/svg11.dtd">
<svg xmlns="http://www.w3.org/2000/svg" version="1.1" width="1080px" height="395px" style="shape-rendering:geometricPrecision; text-rendering:geometricPrecision; image-rendering:optimizeQuality; fill-rule:evenodd; clip-rule:evenodd" xmlns:xlink="http://www.w3.org/1999/xlink">
<g><path style="opacity:1" fill="#f9fafa" d="M -0.5,-0.5 C 359.5,-0.5 719.5,-0.5 1079.5,-0.5C 1079.5,131.167 1079.5,262.833 1079.5,394.5C 719.5,394.5 359.5,394.5 -0.5,394.5C -0.5,262.833 -0.5,131.167 -0.5,-0.5 Z"/></g>
<g><path style="opacity:1" fill="#e2fefe" d="M 964.5,25.5 C 679.833,25.3333 395.166,25.5 110.5,26C 106.961,26.6792 103.628,27.8458 100.5,29.5C 100.369,28.6236 100.702,27.9569 101.5,27.5C 104.07,26.3657 106.736,25.5323 109.5,25C 394.667,24.167 679.667,24.3336 964.5,25.5 Z"/></g>
<g><path style="opacity:1" fill="#165792" d="M 964.5,25.5 C 986.733,29.5615 1000.9,42.5615 1007,64.5C 1007.67,153.5 1007.67,242.5 1007,331.5C 1004.98,344.888 998.809,355.888 988.5,364.5C 981.995,368.415 974.995,371.248 967.5,373C 681.666,373.833 396,373.666 110.5,372.5C 110.5,372.167 110.5,371.833 110.5,371.5C 281.5,371.667 452.5,371.5 623.5,371C 454,370.833 284.666,370.333 115.5,369.5C 398.167,369.667 680.834,369.5 963.5,369C 964.056,368.617 964.389,368.117 964.5,367.5C 966.167,366.833 967.833,366.167 969.5,365.5C 985.258,361.746 995.591,352.079 1000.5,336.5C 1001.12,336.389 1001.62,336.056 1002,335.5C 1002.17,290.167 1002.33,244.833 1002.5,199.5C 1002.5,153.828 1001.83,108.495 1000.5,63.5C 1000.2,61.597 999.537,59.9303 998.5,58.5C 994.065,46.3974 985.731,38.3974 973.5,34.5C 970.039,33.134 966.373,32.134 962.5,31.5C 962.389,30.8826 962.056,30.3826 961.5,30C 679.5,29.3333 397.5,29.3333 115.5,30C 114.944,30.3826 114.611,30.8826 114.5,31.5C 110.098,31.9264 106.098,33.2597 102.5,35.5C 91.7699,39.8972 84.4366,47.5638 80.5,58.5C 79.8333,59.5 79.1667,60.5 78.5,61.5C 77.7784,61.9175 77.2784,62.5842 77,63.5C 76.3333,154.167 76.3333,244.833 77,335.5C 77.3333,336.833 77.6667,338.167 78,339.5C 78.3826,338.944 78.8826,338.611 79.5,338.5C 82.8896,347.292 88.2229,354.626 95.5,360.5C 95.5394,361.583 95.8728,362.583 96.5,363.5C 96,363.833 95.5,364.167 95,364.5C 92.3505,363.327 89.8505,361.994 87.5,360.5C 86.1667,359.5 84.8333,358.5 83.5,357.5C 77.1004,350.029 73.4337,341.363 72.5,331.5C 72.3333,243.166 72.5,154.833 73,66.5C 73.696,63.5219 74.196,60.5219 74.5,57.5C 79.3791,44.6219 88.0457,35.2886 100.5,29.5C 103.628,27.8458 106.961,26.6792 110.5,26C 395.166,25.5 679.833,25.3333 964.5,25.5 Z"/></g>
<g><path style="opacity:1" fill="#165388" d="M 962.5,31.5 C 679.833,31.5 397.167,31.5 114.5,31.5C 114.611,30.8826 114.944,30.3826 115.5,30C 397.5,29.3333 679.5,29.3333 961.5,30C 962.056,30.3826 962.389,30.8826 962.5,31.5 Z"/></g>
<g><path style="opacity:1" fill="#e3f6f9" d="M 114.5,31.5 C 397.167,31.5 679.833,31.5 962.5,31.5C 966.373,32.134 970.039,33.134 973.5,34.5C 685.181,33.338 396.847,33.1713 108.5,34C 106.655,35.128 104.655,35.628 102.5,35.5C 106.098,33.2597 110.098,31.9264 114.5,31.5 Z"/></g>
<g><path style="opacity:1" fill="#f9f9fa" d="M 973.5,34.5 C 985.731,38.3974 994.065,46.3974 998.5,58.5C 999.167,63.1667 999.833,67.8333 1000.5,72.5C 999.778,72.0825 999.278,71.4158 999,70.5C 998.333,156.5 998.333,242.5 999,328.5C 999.383,327.944 999.883,327.611 1000.5,327.5C 1000.5,329.167 1000.5,330.833 1000.5,332.5C 1000.5,333.833 1000.5,335.167 1000.5,336.5C 995.591,352.079 985.258,361.746 969.5,365.5C 681.146,365.83 392.812,365.497 104.5,364.5C 101.515,363.674 98.8485,362.341 96.5,360.5C 95.3741,358.5 95.2075,356.5 96,354.5C 95.586,354.957 95.086,355.291 94.5,355.5C 91.1074,353.775 88.2741,351.441 86,348.5C 85.5065,346.866 85.3398,345.199 85.5,343.5C 84.5,343.5 83.5,343.5 82.5,343.5C 82.6653,339.818 82.4986,336.152 82,332.5C 81.3848,330.884 80.3848,329.551 79,328.5C 78.3333,241.5 78.3333,154.5 79,67.5C 79.696,64.5219 80.196,61.5219 80.5,58.5C 84.4366,47.5638 91.7699,39.8972 102.5,35.5C 104.655,35.628 106.655,35.128 108.5,34C 396.847,33.1713 685.181,33.338 973.5,34.5 Z"/></g>
<g><path style="opacity:1" fill="#fecbcf" d="M 794.5,55.5 C 798.478,59.8131 802.478,64.1465 806.5,68.5C 807.308,68.1924 807.975,67.6924 808.5,67C 804.63,63.2977 800.963,59.4643 797.5,55.5C 800.167,55.5 802.833,55.5 805.5,55.5C 807.479,58.1456 809.812,60.4789 812.5,62.5C 813.583,61.635 813.749,60.635 813,59.5C 811.624,58.2949 810.458,56.9616 809.5,55.5C 824.504,55.3334 839.504,55.5001 854.5,56C 895.252,96.7522 936.086,137.586 977,178.5C 977.5,204.165 977.667,229.831 977.5,255.5C 965.406,257.785 954.406,255.285 944.5,248C 890.306,193.806 836.14,139.64 782,85.5C 779.247,80.9924 776.247,76.6591 773,72.5C 770.984,67.0117 770.151,61.345 770.5,55.5C 778.5,55.5 786.5,55.5 794.5,55.5 Z"/></g>
<g><path style="opacity:1" fill="#d7625c" d="M 805.5,55.5 C 806.833,55.5 808.167,55.5 809.5,55.5C 810.458,56.9616 811.624,58.2949 813,59.5C 813.749,60.635 813.583,61.635 812.5,62.5C 809.812,60.4789 807.479,58.1456 805.5,55.5 Z"/></g>
<g><path style="opacity:1" fill="#d45852" d="M 794.5,55.5 C 795.5,55.5 796.5,55.5 797.5,55.5C 800.963,59.4643 804.63,63.2977 808.5,67C 807.975,67.6924 807.308,68.1924 806.5,68.5C 802.478,64.1465 798.478,59.8131 794.5,55.5 Z"/></g>
<g><path style="opacity:1" fill="#fafaf5" d="M 1000.5,72.5 C 1000.5,157.5 1000.5,242.5 1000.5,327.5C 999.883,327.611 999.383,327.944 999,328.5C 998.333,242.5 998.333,156.5 999,70.5C 999.278,71.4158 999.778,72.0825 1000.5,72.5 Z"/></g>
<g><path style="opacity:1" fill="#e5fbfe" d="M 72.5,61.5 C 71.1731,151.64 71.1731,241.64 72.5,331.5C 73.4337,341.363 77.1004,350.029 83.5,357.5C 81.236,356.419 79.0693,355.085 77,353.5C 76.51,352.207 76.3433,350.873 76.5,349.5C 73.3873,349.935 72.7207,348.935 74.5,346.5C 73.149,343.273 71.9824,339.94 71,336.5C 70.3333,245.5 70.3333,154.5 71,63.5C 71.2784,62.5842 71.7784,61.9175 72.5,61.5 Z"/></g>
<g><path style="opacity:1" fill="#1c5581" d="M 74.5,57.5 C 74.196,60.5219 73.696,63.5219 73,66.5C 72.5,154.833 72.3333,243.166 72.5,331.5C 71.1731,241.64 71.1731,151.64 72.5,61.5C 72.9887,60.0048 73.6554,58.6715 74.5,57.5 Z"/></g>
<g><path style="opacity:1" fill="#e2fafd" d="M 80.5,58.5 C 80.196,61.5219 79.696,64.5219 79,67.5C 78.3333,154.5 78.3333,241.5 79,328.5C 80.3848,329.551 81.3848,330.884 82,332.5C 82.4986,336.152 82.6653,339.818 82.5,343.5C 83.5,343.5 84.5,343.5 85.5,343.5C 85.3398,345.199 85.5065,346.866 86,348.5C 88.2741,351.441 91.1074,353.775 94.5,355.5C 95.086,355.291 95.586,354.957 96,354.5C 95.2075,356.5 95.3741,358.5 96.5,360.5C 96.1667,360.5 95.8333,360.5 95.5,360.5C 88.2229,354.626 82.8896,347.292 79.5,338.5C 79.162,336.146 78.662,333.813 78,331.5C 77.1768,241.479 77.3435,151.479 78.5,61.5C 79.1667,60.5 79.8333,59.5 80.5,58.5 Z"/></g>
<g><path style="opacity:1" fill="#185485" d="M 78.5,61.5 C 77.3435,151.479 77.1768,241.479 78,331.5C 78.662,333.813 79.162,336.146 79.5,338.5C 78.8826,338.611 78.3826,338.944 78,339.5C 77.6667,338.167 77.3333,336.833 77,335.5C 76.3333,244.833 76.3333,154.167 77,63.5C 77.2784,62.5842 77.7784,61.9175 78.5,61.5 Z"/></g>
<g><path style="opacity:1" fill="#e4fbfd" d="M 998.5,58.5 C 999.537,59.9303 1000.2,61.597 1000.5,63.5C 1001.83,153.294 1001.83,242.961 1000.5,332.5C 1000.5,330.833 1000.5,329.167 1000.5,327.5C 1000.5,242.5 1000.5,157.5 1000.5,72.5C 999.833,67.8333 999.167,63.1667 998.5,58.5 Z"/></g>
<g><path style="opacity:1" fill="#fdbfc0" d="M 824.5,59.5 C 822.645,59.272 821.812,59.9387 822,61.5C 825,64.5 828,67.5 831,70.5C 831.333,72.1667 831.667,73.8333 832,75.5C 834.222,77.3848 836.056,79.5515 837.5,82C 832.554,87.1013 828.221,92.6013 824.5,98.5C 822.781,97.9779 821.448,96.9779 820.5,95.5C 825.385,96.548 825.719,95.548 821.5,92.5C 823.833,89.8333 826.167,87.1667 828.5,84.5C 829.5,85.1667 830.5,85.8333 831.5,86.5C 831.833,86 832.167,85.5 832.5,85C 831.224,82.7194 829.557,80.7194 827.5,79C 824.012,79.0196 823.679,80.1863 826.5,82.5C 824.35,85.1506 822.017,87.6506 819.5,90C 817.744,90.1405 816.078,89.6405 814.5,88.5C 813.702,88.9569 813.369,89.6236 813.5,90.5C 810.715,91.0838 809.048,90.0838 808.5,87.5C 809.458,87.9528 810.292,88.6195 811,89.5C 813.885,86.9518 816.385,84.1185 818.5,81C 816.61,77.6083 813.944,75.1083 810.5,73.5C 811.209,72.596 812.209,72.2627 813.5,72.5C 813.293,69.2546 814.793,67.2546 818,66.5C 818.483,65.552 818.649,64.552 818.5,63.5C 819.552,63.6495 820.552,63.4828 821.5,63C 820.62,61.6439 820.286,60.1439 820.5,58.5C 822.099,58.2322 823.432,58.5655 824.5,59.5 Z"/></g>
<g><path style="opacity:1" fill="#d95b54" d="M 815.5,69.5 C 818.394,70.8823 820.894,72.8823 823,75.5C 823.563,76.7248 823.23,77.7248 822,78.5C 818.774,76.1311 816.608,73.1311 815.5,69.5 Z"/></g>
<g><path style="opacity:1" fill="#da5e57" d="M 819.5,65.5 C 822.744,67.0713 825.411,69.4046 827.5,72.5C 826.635,73.5827 825.635,73.7494 824.5,73C 821.758,71.1136 820.091,68.6136 819.5,65.5 Z"/></g>
<g><path style="opacity:1" fill="#de564e" d="M 824.5,59.5 C 825.353,61.8927 827.019,63.226 829.5,63.5C 829.265,60.1881 830.265,59.3547 832.5,61C 832.025,62.7633 831.358,64.43 830.5,66C 832.074,67.8259 832.907,69.9925 833,72.5C 834.833,74.3333 836.667,76.1667 838.5,78C 839.5,78.6667 840.5,78.6667 841.5,78C 842.725,76.437 844.225,75.2703 846,74.5C 847.03,74.8361 847.53,75.5028 847.5,76.5C 845.521,77.8121 843.855,79.4788 842.5,81.5C 843.855,83.5212 845.521,85.1879 847.5,86.5C 847.189,87.4778 846.522,88.1445 845.5,88.5C 844.019,87.5197 842.685,86.353 841.5,85C 840.5,84.3333 839.5,84.3333 838.5,85C 833.644,89.8801 829.644,95.3801 826.5,101.5C 828.365,102.666 830.032,102.333 831.5,100.5C 832.833,101.5 832.833,102.5 831.5,103.5C 829.057,105.055 826.39,105.722 823.5,105.5C 823.298,103.05 823.631,100.717 824.5,98.5C 828.221,92.6013 832.554,87.1013 837.5,82C 836.056,79.5515 834.222,77.3848 832,75.5C 831.667,73.8333 831.333,72.1667 831,70.5C 828,67.5 825,64.5 822,61.5C 821.812,59.9387 822.645,59.272 824.5,59.5 Z"/></g>
<g><path style="opacity:1" fill="#fcaca9" d="M 847.5,76.5 C 849.604,79.003 849.937,81.6697 848.5,84.5C 848.799,82.396 848.466,80.396 847.5,78.5C 846.207,80.6365 846.207,82.6365 847.5,84.5C 847.5,85.1667 847.5,85.8333 847.5,86.5C 845.521,85.1879 843.855,83.5212 842.5,81.5C 843.855,79.4788 845.521,77.8121 847.5,76.5 Z"/></g>
<g><path style="opacity:1" fill="#cd5d58" d="M 848.5,84.5 C 848.167,84.5 847.833,84.5 847.5,84.5C 846.207,82.6365 846.207,80.6365 847.5,78.5C 848.466,80.396 848.799,82.396 848.5,84.5 Z"/></g>
<g><path style="opacity:1" fill="#dd5951" d="M 810.5,73.5 C 813.944,75.1083 816.61,77.6083 818.5,81C 816.385,84.1185 813.885,86.9518 811,89.5C 810.292,88.6195 809.458,87.9528 808.5,87.5C 807.017,85.5163 805.351,83.683 803.5,82C 805.654,79.0132 807.987,76.1798 810.5,73.5 Z"/></g>
<g><path style="opacity:1" fill="#febfc1" d="M 810.5,77.5 C 817.054,79.9046 817.054,82.5713 810.5,85.5C 806.667,82.9427 806.667,80.276 810.5,77.5 Z"/></g>
<g><path style="opacity:1" fill="#dd564e" d="M 820.5,95.5 C 817.991,94.0787 815.657,92.4121 813.5,90.5C 813.369,89.6236 813.702,88.9569 814.5,88.5C 816.078,89.6405 817.744,90.1405 819.5,90C 822.017,87.6506 824.35,85.1506 826.5,82.5C 823.679,80.1863 824.012,79.0196 827.5,79C 829.557,80.7194 831.224,82.7194 832.5,85C 832.167,85.5 831.833,86 831.5,86.5C 830.5,85.8333 829.5,85.1667 828.5,84.5C 826.167,87.1667 823.833,89.8333 821.5,92.5C 825.719,95.548 825.385,96.548 820.5,95.5 Z"/></g>
<g><path style="opacity:1" fill="#dd5850" d="M 865.5,95.5 C 865.719,96.675 865.386,97.675 864.5,98.5C 863.186,97.6872 862.019,96.6872 861,95.5C 858.985,97.4783 859.152,99.3116 861.5,101C 861,101.5 860.5,102 860,102.5C 858.89,100.963 857.39,100.297 855.5,100.5C 855.297,102.39 855.963,103.89 857.5,105C 855.76,106.827 854.093,106.66 852.5,104.5C 852.167,105 851.833,105.5 851.5,106C 852.615,107.393 853.115,108.893 853,110.5C 849.201,113.297 845.701,116.464 842.5,120C 846.406,120.531 849.739,119.365 852.5,116.5C 851.674,115.549 851.508,114.549 852,113.5C 853.719,111.443 855.719,109.776 858,108.5C 861.031,109.506 862.365,111.506 862,114.5C 859.831,118.19 856.664,119.857 852.5,119.5C 852.5,121.5 852.5,123.5 852.5,125.5C 850.824,124.817 850.157,123.483 850.5,121.5C 847.214,122.207 843.881,122.54 840.5,122.5C 838.478,120.469 836.811,118.135 835.5,115.5C 837.833,116.167 840.167,116.833 842.5,117.5C 842.247,115.173 842.914,113.173 844.5,111.5C 846.537,113.77 848.204,113.27 849.5,110C 846.939,106.948 844.606,103.781 842.5,100.5C 847.146,96.1885 851.813,91.8551 856.5,87.5C 859.565,90.24 862.565,92.9067 865.5,95.5 Z"/></g>
<g><path style="opacity:1" fill="#feb8b6" d="M 850.5,95.5 C 853.5,95.1667 854.833,96.5 854.5,99.5C 851.5,99.8333 850.167,98.5 850.5,95.5 Z"/></g>
<g><path style="opacity:1" fill="#feb5b3" d="M 854.5,91.5 C 857.5,91.1667 858.833,92.5 858.5,95.5C 855.5,95.8333 854.167,94.5 854.5,91.5 Z"/></g>
<g><path style="opacity:1" fill="#fbadaa" d="M 842.5,100.5 C 844.606,103.781 846.939,106.948 849.5,110C 848.204,113.27 846.537,113.77 844.5,111.5C 842.914,113.173 842.247,115.173 842.5,117.5C 840.167,116.833 837.833,116.167 835.5,115.5C 835.5,114.5 835.5,113.5 835.5,112.5C 834.778,112.082 834.278,111.416 834,110.5C 833.023,111.774 832.189,111.774 831.5,110.5C 834.567,108.879 837.401,106.879 840,104.5C 840.207,102.239 839.374,101.905 837.5,103.5C 838.605,101.777 840.272,100.777 842.5,100.5 Z"/></g>
<g><path style="opacity:1" fill="#fdbab8" d="M 846.5,99.5 C 848.359,99.4609 849.692,100.294 850.5,102C 847.691,104.056 846.358,103.223 846.5,99.5 Z"/></g>
<g><path style="opacity:1" fill="#d5615c" d="M 831.5,110.5 C 831.281,109.325 831.614,108.325 832.5,107.5C 834.419,106.388 836.086,105.054 837.5,103.5C 839.374,101.905 840.207,102.239 840,104.5C 837.401,106.879 834.567,108.879 831.5,110.5 Z"/></g>
<g><path style="opacity:1" fill="#dd5c55" d="M 870.5,102.5 C 872.948,102.01 874.615,102.843 875.5,105C 874.575,110.116 874.242,115.283 874.5,120.5C 873.5,120.5 872.5,120.5 871.5,120.5C 871.662,118.473 871.495,116.473 871,114.5C 870.667,114.833 870.333,115.167 870,115.5C 866.774,113.131 864.608,110.131 863.5,106.5C 861.833,106.5 860.167,106.5 858.5,106.5C 858.5,105.5 858.5,104.5 858.5,103.5C 862.702,103.817 866.702,103.483 870.5,102.5 Z"/></g>
<g><path style="opacity:1" fill="#febabb" d="M 865.5,95.5 C 866.586,95.62 867.253,96.2867 867.5,97.5C 866.449,99.5318 864.783,100.865 862.5,101.5C 865.086,102.48 867.753,102.813 870.5,102.5C 866.702,103.483 862.702,103.817 858.5,103.5C 858.5,104.5 858.5,105.5 858.5,106.5C 860.167,106.5 861.833,106.5 863.5,106.5C 864.608,110.131 866.774,113.131 870,115.5C 870.333,115.167 870.667,114.833 871,114.5C 871.495,116.473 871.662,118.473 871.5,120.5C 870.833,120.833 870.167,121.167 869.5,121.5C 869.359,118.52 867.859,116.52 865,115.5C 861.223,117.443 858.723,120.443 857.5,124.5C 856.583,125.127 855.583,125.461 854.5,125.5C 853.833,125.5 853.167,125.5 852.5,125.5C 852.5,123.5 852.5,121.5 852.5,119.5C 856.664,119.857 859.831,118.19 862,114.5C 862.365,111.506 861.031,109.506 858,108.5C 855.719,109.776 853.719,111.443 852,113.5C 851.508,114.549 851.674,115.549 852.5,116.5C 849.739,119.365 846.406,120.531 842.5,120C 845.701,116.464 849.201,113.297 853,110.5C 853.115,108.893 852.615,107.393 851.5,106C 851.833,105.5 852.167,105 852.5,104.5C 854.093,106.66 855.76,106.827 857.5,105C 855.963,103.89 855.297,102.39 855.5,100.5C 857.39,100.297 858.89,100.963 860,102.5C 860.5,102 861,101.5 861.5,101C 859.152,99.3116 858.985,97.4783 861,95.5C 862.019,96.6872 863.186,97.6872 864.5,98.5C 865.386,97.675 865.719,96.675 865.5,95.5 Z"/></g>
<g><path style="opacity:1" fill="#d4605c" d="M 835.5,112.5 C 836.802,109.025 839.135,106.858 842.5,106C 840.929,109.074 838.596,111.24 835.5,112.5 Z"/></g>
<g><path style="opacity:1" fill="#d1605a" d="M 843.5,106.5 C 843.883,109.452 842.717,112.119 840,114.5C 839.333,113.5 839.333,112.5 840,111.5C 841.669,110.154 842.836,108.487 843.5,106.5 Z"/></g>
<g><path style="opacity:1" fill="#febbbc" d="M 865.5,106.5 C 867.924,106.192 870.257,106.526 872.5,107.5C 871.811,109.444 871.311,111.444 871,113.5C 868.546,111.559 866.713,109.225 865.5,106.5 Z"/></g>
<g><path style="opacity:1" fill="#feb7b5" d="M 856.5,111.5 C 860.379,112.836 860.379,114.502 856.5,116.5C 854.07,114.963 854.07,113.296 856.5,111.5 Z"/></g>
<g><path style="opacity:1" fill="#f28e8b" d="M 852.5,125.5 C 853.167,125.5 853.833,125.5 854.5,125.5C 852.337,126.469 850.004,127.302 847.5,128C 850.146,128.497 852.813,128.664 855.5,128.5C 854.964,131.698 855.631,134.365 857.5,136.5C 856.791,137.404 855.791,137.737 854.5,137.5C 854.5,134.833 854.5,132.167 854.5,129.5C 851.833,129.5 849.167,129.5 846.5,129.5C 846.5,128.5 846.5,127.5 846.5,126.5C 847.5,126.5 848.5,126.5 849.5,126.5C 849.5,125.5 849.5,124.5 849.5,123.5C 846.287,123.81 843.287,123.477 840.5,122.5C 843.881,122.54 847.214,122.207 850.5,121.5C 850.157,123.483 850.824,124.817 852.5,125.5 Z"/></g>
<g><path style="opacity:1" fill="#dc564e" d="M 869.5,121.5 C 867.704,122.793 866.037,124.293 864.5,126C 862.023,124.869 859.857,125.369 858,127.5C 857.502,130.482 857.335,133.482 857.5,136.5C 855.631,134.365 854.964,131.698 855.5,128.5C 852.813,128.664 850.146,128.497 847.5,128C 850.004,127.302 852.337,126.469 854.5,125.5C 855.583,125.461 856.583,125.127 857.5,124.5C 858.723,120.443 861.223,117.443 865,115.5C 867.859,116.52 869.359,118.52 869.5,121.5 Z"/></g>
<g><path style="opacity:1" fill="#feb9b8" d="M 863.5,118.5 C 867.379,119.836 867.379,121.502 863.5,123.5C 861.07,121.963 861.07,120.296 863.5,118.5 Z"/></g>
<g><path style="opacity:1" fill="#da5b53" d="M 880.5,120.5 C 882.355,120.272 883.188,120.939 883,122.5C 879.325,126.079 875.158,128.745 870.5,130.5C 870.281,129.325 870.614,128.325 871.5,127.5C 874.75,125.388 877.75,123.055 880.5,120.5 Z"/></g>
<g><path style="opacity:1" fill="#df534b" d="M 888.5,118.5 C 889.675,118.281 890.675,118.614 891.5,119.5C 890.167,121.167 888.833,122.833 887.5,124.5C 888.213,126.776 888.713,129.109 889,131.5C 891.086,129.751 893.419,128.417 896,127.5C 896.5,127.833 897,128.167 897.5,128.5C 896.5,130.167 895.167,131.5 893.5,132.5C 894.5,133.833 895.5,135.167 896.5,136.5C 898.316,135.185 899.983,133.685 901.5,132C 902.635,131.251 903.635,131.417 904.5,132.5C 902.833,134.5 901.167,136.5 899.5,138.5C 901.5,140.833 903.5,143.167 905.5,145.5C 905.167,146.5 904.5,147.167 903.5,147.5C 902.061,145.64 900.395,143.973 898.5,142.5C 895.171,141.928 892.837,143.428 891.5,147C 892.27,148.775 893.437,150.275 895,151.5C 895.749,152.635 895.583,153.635 894.5,154.5C 892.5,152.833 890.5,151.167 888.5,149.5C 885.257,151.548 883.09,154.215 882,157.5C 883.667,159.167 885.333,160.833 887,162.5C 887.749,163.635 887.583,164.635 886.5,165.5C 880.304,160.137 874.637,154.304 869.5,148C 869.833,147.5 870.167,147 870.5,146.5C 872.984,148.483 875.317,150.65 877.5,153C 881.203,152.66 883.869,150.66 885.5,147C 884.392,144.888 882.892,143.054 881,141.5C 880.251,140.365 880.417,139.365 881.5,138.5C 883.833,140.5 886.167,142.5 888.5,144.5C 891.42,142.778 893.253,140.445 894,137.5C 890.848,133.845 887.514,133.845 884,137.5C 882.77,136.725 882.437,135.725 883,134.5C 884.609,133.853 886.109,133.02 887.5,132C 886.141,130.796 885.141,129.296 884.5,127.5C 878.014,133.485 871.681,139.652 865.5,146C 864.517,146.591 863.85,146.257 863.5,145C 871.659,136.007 879.993,127.174 888.5,118.5 Z"/></g>
<g><path style="opacity:1" fill="#38638d" d="M 513.5,146.5 C 516.91,146.384 518.244,148.05 517.5,151.5C 515.833,151.5 514.167,151.5 512.5,151.5C 512.366,149.708 512.699,148.042 513.5,146.5 Z"/></g>
<g><path style="opacity:1" fill="#2b5c89" d="M 731.5,146.5 C 734.91,146.384 736.244,148.05 735.5,151.5C 733.833,151.5 732.167,151.5 730.5,151.5C 730.366,149.708 730.699,148.042 731.5,146.5 Z"/></g>
<g><path style="opacity:1" fill="#285e92" d="M 407.5,158.5 C 405.5,158.5 403.5,158.5 401.5,158.5C 401.177,164.69 401.51,170.69 402.5,176.5C 402.328,177.492 402.662,178.158 403.5,178.5C 404.609,179.29 405.942,179.79 407.5,180C 406.944,180.383 406.611,180.883 406.5,181.5C 402.51,182.384 399.677,181.051 398,177.5C 397.501,171.509 397.334,165.509 397.5,159.5C 396.325,159.719 395.325,159.386 394.5,158.5C 397.227,156.774 399.227,154.441 400.5,151.5C 401.452,153.045 401.785,154.712 401.5,156.5C 404.082,156.025 406.082,156.692 407.5,158.5 Z"/></g>
<g><path style="opacity:1" fill="#ebf5fa" d="M 644.5,181.5 C 640.285,183.436 635.619,184.103 630.5,183.5C 630.828,178.125 630.495,172.792 629.5,167.5C 628.282,174.484 626.949,174.817 625.5,168.5C 624.459,170.991 623.626,170.991 623,168.5C 619.757,170.263 616.257,170.929 612.5,170.5C 612.5,172.833 612.5,175.167 612.5,177.5C 614.144,177.714 615.644,177.38 617,176.5C 617.318,178.061 618.151,179.228 619.5,180C 618.939,181.676 617.939,183.009 616.5,184C 613.038,182.596 608.038,182.096 601.5,182.5C 601.116,180.335 601.783,178.668 603.5,177.5C 604.498,169.193 604.831,160.86 604.5,152.5C 600.09,152.677 599.423,151.343 602.5,148.5C 605.649,147.835 608.982,147.502 612.5,147.5C 624.082,145.249 628.915,149.916 627,161.5C 627.833,160.667 628.667,159.833 629.5,159C 628.424,157.274 628.257,155.441 629,153.5C 636.11,155.097 643.276,155.597 650.5,155C 653.128,157.061 653.795,159.561 652.5,162.5C 649.404,164.421 646.07,165.754 642.5,166.5C 642.5,170.5 642.5,174.5 642.5,178.5C 643.5,178.5 644.5,178.5 645.5,178.5C 645.737,179.791 645.404,180.791 644.5,181.5 Z"/></g>
<g><path style="opacity:1" fill="#426a86" d="M 420.5,157.5 C 418.585,157.216 416.919,157.549 415.5,158.5C 414.624,158.631 413.957,158.298 413.5,157.5C 415.973,156.203 418.307,156.203 420.5,157.5 Z"/></g>
<g><path style="opacity:1" fill="#456c86" d="M 638.5,157.5 C 636.265,157.205 634.265,157.539 632.5,158.5C 631.957,158.44 631.624,158.107 631.5,157.5C 633.973,156.203 636.307,156.203 638.5,157.5 Z"/></g>
<g><path style="opacity:1" fill="#2c6093" d="M 720.5,156.5 C 719.198,158.028 717.531,159.028 715.5,159.5C 715.334,165.509 715.501,171.509 716,177.5C 717.6,178.866 719.433,179.866 721.5,180.5C 718.894,181.652 716.227,181.818 713.5,181C 712.874,180.25 712.374,179.416 712,178.5C 711.5,172.175 711.334,165.842 711.5,159.5C 710.022,159.762 708.689,159.429 707.5,158.5C 710.39,156.957 712.057,154.624 712.5,151.5C 713.5,151.5 714.5,151.5 715.5,151.5C 715.5,153.167 715.5,154.833 715.5,156.5C 717.167,156.5 718.833,156.5 720.5,156.5 Z"/></g>
<g><path style="opacity:1" fill="#1c527e" d="M 1000.5,63.5 C 1001.83,108.495 1002.5,153.828 1002.5,199.5C 1002.33,244.833 1002.17,290.167 1002,335.5C 1001.62,336.056 1001.12,336.389 1000.5,336.5C 1000.5,335.167 1000.5,333.833 1000.5,332.5C 1001.83,242.961 1001.83,153.294 1000.5,63.5 Z"/></g>
<g><path style="opacity:1" fill="#eaf8fc" d="M 179.5,159.5 C 180.493,168.318 180.827,177.318 180.5,186.5C 175.693,185.835 171.026,185.501 166.5,185.5C 165.674,180.684 165.174,175.684 165,170.5C 164.262,173.501 163.096,176.168 161.5,178.5C 162.167,174.833 162.833,171.167 163.5,167.5C 162.5,167.5 161.5,167.5 160.5,167.5C 162.463,165.601 163.963,163.267 165,160.5C 165.671,159.748 166.504,159.414 167.5,159.5C 168.879,156.953 170.546,156.953 172.5,159.5C 175.083,156.918 177.417,156.918 179.5,159.5 Z"/></g>
<g><path style="opacity:1" fill="#416e94" d="M 543.5,158.5 C 542.209,158.263 541.209,158.596 540.5,159.5C 537.487,159.107 534.82,159.774 532.5,161.5C 532.5,160.167 531.833,159.5 530.5,159.5C 532.031,157.32 534.198,156.32 537,156.5C 539.484,156.497 541.651,157.163 543.5,158.5 Z"/></g>
<g><path style="opacity:1" fill="#31618d" d="M 673.5,178.5 C 672.672,172.681 672.172,166.681 672,160.5C 671.667,160.167 671.333,159.833 671,159.5C 670.814,162.036 670.314,164.369 669.5,166.5C 670.822,161.007 668.822,158.507 663.5,159C 661.963,160.11 661.297,161.61 661.5,163.5C 656.535,162.392 656.202,160.226 660.5,157C 665.109,155.926 669.276,156.76 673,159.5C 673.5,165.825 673.666,172.158 673.5,178.5 Z"/></g>
<g><path style="opacity:1" fill="#749fc6" d="M 720.5,156.5 C 721.404,157.209 721.737,158.209 721.5,159.5C 719.5,159.5 717.5,159.5 715.5,159.5C 717.531,159.028 719.198,158.028 720.5,156.5 Z"/></g>
<g><path style="opacity:1" fill="#1f578d" d="M 415.5,158.5 C 416.919,157.549 418.585,157.216 420.5,157.5C 421.09,158.766 421.59,160.099 422,161.5C 423.366,157.234 426.199,155.734 430.5,157C 433.303,159.222 433.137,161.055 430,162.5C 426.284,158.177 423.617,158.843 422,164.5C 421.333,169.167 421.333,173.833 422,178.5C 423.509,179.09 425.009,179.756 426.5,180.5C 422.167,181.833 417.833,181.833 413.5,180.5C 414.628,179.738 415.795,179.071 417,178.5C 417.667,172.167 417.667,165.833 417,159.5C 416.617,158.944 416.117,158.611 415.5,158.5 Z"/></g>
<g><path style="opacity:1" fill="#34648f" d="M 572.5,157.5 C 569.99,157.054 567.99,157.72 566.5,159.5C 563.967,162.604 562.967,166.271 563.5,170.5C 563.667,173.167 563.833,175.833 564,178.5C 564.925,179.047 565.758,179.713 566.5,180.5C 562.833,181.833 559.167,181.833 555.5,180.5C 555.957,179.702 556.624,179.369 557.5,179.5C 558.919,180.451 560.585,180.784 562.5,180.5C 562.5,174.167 562.5,167.833 562.5,161.5C 561.5,161.5 560.5,161.5 559.5,161.5C 559.103,159.338 557.769,158.005 555.5,157.5C 557.743,156.526 560.076,156.192 562.5,156.5C 562.974,160.157 564.307,160.324 566.5,157C 568.712,156.211 570.712,156.378 572.5,157.5 Z"/></g>
<g><path style="opacity:1" fill="#1b5791" d="M 673.5,178.5 C 674.643,178.908 675.643,179.575 676.5,180.5C 674.604,181.466 672.604,181.799 670.5,181.5C 670.843,179.517 670.176,178.183 668.5,177.5C 669.299,174.57 669.632,171.57 669.5,168.5C 669.5,167.833 669.5,167.167 669.5,166.5C 670.314,164.369 670.814,162.036 671,159.5C 671.333,159.833 671.667,160.167 672,160.5C 672.172,166.681 672.672,172.681 673.5,178.5 Z"/></g>
<g><path style="opacity:1" fill="#df524a" d="M 910.5,147.5 C 915.221,149.384 918.888,152.551 921.5,157C 920.046,158.659 918.713,158.326 917.5,156C 916.5,155.333 915.5,155.333 914.5,156C 911,159.5 907.5,163 904,166.5C 903.333,167.167 903.333,167.833 904,168.5C 905.609,169.147 907.109,169.98 908.5,171C 907.737,171.944 906.737,172.444 905.5,172.5C 900.777,170.813 896.777,168.146 893.5,164.5C 893.833,163.833 894.167,163.167 894.5,162.5C 896.487,164.501 898.82,165.335 901.5,165C 905.333,161.167 909.167,157.333 913,153.5C 912.517,151.463 911.684,149.463 910.5,147.5 Z"/></g>
<g><path style="opacity:1" fill="#2d6196" d="M 493.5,176.5 C 493.5,170.5 493.5,164.5 493.5,158.5C 492.167,158.5 490.833,158.5 489.5,158.5C 492.331,157.002 493.998,154.669 494.5,151.5C 495.5,151.5 496.5,151.5 497.5,151.5C 497.5,153.167 497.5,154.833 497.5,156.5C 499.5,156.5 501.5,156.5 503.5,156.5C 503.5,157.5 503.5,158.5 503.5,159.5C 501.5,159.5 499.5,159.5 497.5,159.5C 497.334,165.509 497.501,171.509 498,177.5C 499.491,179.004 501.324,179.837 503.5,180C 501.045,181.54 498.379,181.874 495.5,181C 494.418,179.67 493.751,178.17 493.5,176.5 Z"/></g>
<g><path style="opacity:1" fill="#20588d" d="M 644.5,181.5 C 640.116,181.826 635.783,181.492 631.5,180.5C 632.628,179.738 633.795,179.071 635,178.5C 635.667,172.167 635.667,165.833 635,159.5C 634.329,158.748 633.496,158.414 632.5,158.5C 634.265,157.539 636.265,157.205 638.5,157.5C 639.09,158.766 639.59,160.099 640,161.5C 641.366,157.234 644.199,155.734 648.5,157C 651.303,159.222 651.137,161.055 648,162.5C 644.284,158.177 641.617,158.843 640,164.5C 639.333,169.167 639.333,173.833 640,178.5C 642.026,178.915 643.526,179.915 644.5,181.5 Z"/></g>
<g><path style="opacity:1" fill="#8eb9d5" d="M 184.5,159.5 C 184.5,167.833 184.5,176.167 184.5,184.5C 185.833,184.5 187.167,184.5 188.5,184.5C 187.081,185.451 185.415,185.784 183.5,185.5C 183.174,176.651 183.507,167.984 184.5,159.5 Z"/></g>
<g><path style="opacity:1" fill="#8db2cf" d="M 407.5,158.5 C 406.081,159.451 404.415,159.784 402.5,159.5C 402.5,165.167 402.5,170.833 402.5,176.5C 401.51,170.69 401.177,164.69 401.5,158.5C 403.5,158.5 405.5,158.5 407.5,158.5 Z"/></g>
<g><path style="opacity:1" fill="#e0574e" d="M 928.5,157.5 C 930.225,157.843 930.725,158.843 930,160.5C 928.5,162 927,163.5 925.5,165C 928.922,167.719 931.422,170.886 933,174.5C 926.859,179.971 920.692,185.471 914.5,191C 909.598,190.942 906.598,188.442 905.5,183.5C 908.084,183.569 910.084,184.735 911.5,187C 912.5,187.667 913.5,187.667 914.5,187C 919.301,183.201 923.801,179.034 928,174.5C 928.269,171.72 927.102,169.554 924.5,168C 918.303,172.107 911.637,175.774 904.5,179C 901.833,179.667 899.167,179.667 896.5,179C 895.663,177.989 895.33,176.822 895.5,175.5C 905.074,176.922 912.907,173.922 919,166.5C 919.624,164.536 919.124,162.869 917.5,161.5C 917.709,160.914 918.043,160.414 918.5,160C 920.417,160.027 922.084,160.861 923.5,162.5C 925.521,161.145 927.188,159.479 928.5,157.5 Z"/></g>
<g><path style="opacity:1" fill="#3076ac" d="M 123.5,161.5 C 124.833,161.5 126.167,161.5 127.5,161.5C 127.5,169.167 127.5,176.833 127.5,184.5C 126.167,184.5 124.833,184.5 123.5,184.5C 123.5,176.833 123.5,169.167 123.5,161.5 Z"/></g>
<g><path style="opacity:1" fill="#9fbbcb" d="M 123.5,161.5 C 124.919,160.549 126.585,160.216 128.5,160.5C 128.5,168.833 128.5,177.167 128.5,185.5C 126.585,185.784 124.919,185.451 123.5,184.5C 124.833,184.5 126.167,184.5 127.5,184.5C 127.5,176.833 127.5,169.167 127.5,161.5C 126.167,161.5 124.833,161.5 123.5,161.5 Z"/></g>
<g><path style="opacity:1" fill="#41749c" d="M 167.5,159.5 C 168.5,159.5 169.5,159.5 170.5,159.5C 170.5,160.833 170.5,162.167 170.5,163.5C 169.167,163.5 167.833,163.5 166.5,163.5C 166.433,162.041 166.766,160.708 167.5,159.5 Z"/></g>
<g><path style="opacity:1" fill="#386896" d="M 727.5,156.5 C 730.167,156.5 732.833,156.5 735.5,156.5C 735.5,164.167 735.5,171.833 735.5,179.5C 736.978,179.238 738.311,179.571 739.5,180.5C 735.167,181.833 730.833,181.833 726.5,180.5C 727.628,179.738 728.795,179.071 730,178.5C 730.667,172.167 730.667,165.833 730,159.5C 728.583,158.922 727.75,157.922 727.5,156.5 Z"/></g>
<g><path style="opacity:1" fill="#d5ebf6" d="M 479.5,161.5 C 477.482,160.377 475.482,160.377 473.5,161.5C 472.338,166.131 472.172,170.798 473,175.5C 476.773,176.517 480.606,176.517 484.5,175.5C 485.575,179.938 483.908,181.938 479.5,181.5C 480.531,180.751 481.698,180.085 483,179.5C 483.505,176.486 482.672,175.986 480.5,178C 472.886,179.556 469.552,176.389 470.5,168.5C 469.385,161.818 472.052,158.651 478.5,159C 479.252,159.671 479.586,160.504 479.5,161.5 Z"/></g>
<g><path style="opacity:1" fill="#275d90" d="M 341.5,156.5 C 354.232,156.566 358.732,162.899 355,175.5C 351.945,180.635 347.445,182.468 341.5,181C 339.333,180.167 337.833,178.667 337,176.5C 333.774,168.493 335.274,161.827 341.5,156.5 Z"/></g>
<g><path style="opacity:1" fill="#ecf6fa" d="M 342.5,159.5 C 344.857,159.337 347.19,159.503 349.5,160C 350.126,160.75 350.626,161.584 351,162.5C 351.667,166.833 351.667,171.167 351,175.5C 346.904,181.067 343.237,180.734 340,174.5C 339.333,170.5 339.333,166.5 340,162.5C 341.045,161.627 341.878,160.627 342.5,159.5 Z"/></g>
<g><path style="opacity:1" fill="#295d8f" d="M 450.5,177.5 C 450.426,179.411 449.426,180.578 447.5,181C 441.742,182.253 438.408,179.919 437.5,174C 437.615,172.105 438.282,170.438 439.5,169C 443.253,167.011 447.253,166.178 451.5,166.5C 452.822,161.007 450.822,158.507 445.5,159C 443.963,160.11 443.297,161.61 443.5,163.5C 438.535,162.392 438.202,160.226 442.5,157C 447.109,155.926 451.276,156.76 455,159.5C 455.333,165.833 455.667,172.167 456,178.5C 456.925,179.047 457.758,179.713 458.5,180.5C 456.604,181.466 454.604,181.799 452.5,181.5C 452.843,179.517 452.176,178.183 450.5,177.5 Z"/></g>
<g><path style="opacity:1" fill="#23598c" d="M 479.5,161.5 C 479.586,160.504 479.252,159.671 478.5,159C 472.052,158.651 469.385,161.818 470.5,168.5C 469.552,176.389 472.886,179.556 480.5,178C 482.672,175.986 483.505,176.486 483,179.5C 481.698,180.085 480.531,180.751 479.5,181.5C 472.756,182.718 468.589,180.051 467,173.5C 464.394,159.933 469.561,154.933 482.5,158.5C 483.452,160.045 483.785,161.712 483.5,163.5C 481.801,163.473 480.467,162.806 479.5,161.5 Z"/></g>
<g><path style="opacity:1" fill="#285d92" d="M 517.5,179.5 C 515.5,180.833 513.5,180.833 511.5,179.5C 512.626,172.914 512.792,166.247 512,159.5C 511.075,158.953 510.242,158.287 509.5,157.5C 511.743,156.526 514.076,156.192 516.5,156.5C 516.233,164.222 516.566,171.889 517.5,179.5 Z"/></g>
<g><path style="opacity:1" fill="#3574a1" d="M 184.5,159.5 C 185.833,159.5 187.167,159.5 188.5,159.5C 188.5,167.833 188.5,176.167 188.5,184.5C 187.167,184.5 185.833,184.5 184.5,184.5C 184.5,176.167 184.5,167.833 184.5,159.5 Z"/></g>
<g><path style="opacity:1" fill="#0f5592" d="M 559.5,161.5 C 560.5,161.5 561.5,161.5 562.5,161.5C 562.5,167.833 562.5,174.167 562.5,180.5C 560.585,180.784 558.919,180.451 557.5,179.5C 558.117,179.389 558.617,179.056 559,178.5C 559.499,172.843 559.666,167.176 559.5,161.5 Z"/></g>
<g><path style="opacity:1" fill="#145691" d="M 572.5,157.5 C 574.371,157.859 575.871,158.859 577,160.5C 577.499,166.491 577.666,172.491 577.5,178.5C 577.179,180.048 576.179,180.715 574.5,180.5C 574.823,173.978 574.49,167.645 573.5,161.5C 571.521,159.832 569.188,159.166 566.5,159.5C 567.99,157.72 569.99,157.054 572.5,157.5 Z"/></g>
<g><path style="opacity:1" fill="#35638a" d="M 573.5,161.5 C 574.49,167.645 574.823,173.978 574.5,180.5C 576.179,180.715 577.179,180.048 577.5,178.5C 578.901,178.971 580.234,179.638 581.5,180.5C 578.914,181.48 576.247,181.813 573.5,181.5C 573.5,174.833 573.5,168.167 573.5,161.5 Z"/></g>
<g><path style="opacity:1" fill="#08569a" d="M 385.5,177.5 C 385.5,177.833 385.5,178.167 385.5,178.5C 385.179,180.048 384.179,180.715 382.5,180.5C 382.334,174.158 382.5,167.825 383,161.5C 384.068,166.906 384.901,172.239 385.5,177.5 Z"/></g>
<g><path style="opacity:1" fill="#86b0d2" d="M 789.5,168.5 C 785.03,169.486 780.363,169.819 775.5,169.5C 775.5,170.833 775.5,172.167 775.5,173.5C 774.549,172.081 774.216,170.415 774.5,168.5C 779.5,168.5 784.5,168.5 789.5,168.5 Z"/></g>
<g><path style="opacity:1" fill="#91b4cd" d="M 489.5,158.5 C 490.833,158.5 492.167,158.5 493.5,158.5C 493.5,164.5 493.5,170.5 493.5,176.5C 492.511,171.025 492.178,165.358 492.5,159.5C 491.209,159.737 490.209,159.404 489.5,158.5 Z"/></g>
<g><path style="opacity:1" fill="#ecf7fa" d="M 450.5,177.5 C 448.218,178.39 445.885,178.556 443.5,178C 440.844,170.484 443.511,167.317 451.5,168.5C 451.632,171.57 451.299,174.57 450.5,177.5 Z"/></g>
<g><path style="opacity:1" fill="#285a89" d="M 385.5,164.5 C 385.5,168.833 385.5,173.167 385.5,177.5C 384.901,172.239 384.068,166.906 383,161.5C 382.5,167.825 382.334,174.158 382.5,180.5C 384.179,180.715 385.179,180.048 385.5,178.5C 386.643,178.908 387.643,179.575 388.5,180.5C 386.257,181.474 383.924,181.808 381.5,181.5C 381.666,175.158 381.5,168.825 381,162.5C 379.334,159.621 376.834,158.788 373.5,160C 372.299,160.903 371.465,162.069 371,163.5C 370.333,168.5 370.333,173.5 371,178.5C 372.205,179.071 373.372,179.738 374.5,180.5C 370.555,181.491 366.555,181.824 362.5,181.5C 363.105,179.974 364.271,178.974 366,178.5C 366.667,172.167 366.667,165.833 366,159.5C 365.075,158.953 364.242,158.287 363.5,157.5C 365.743,156.526 368.076,156.192 370.5,156.5C 370.367,161.272 371.7,161.438 374.5,157C 380.941,155.548 384.608,158.048 385.5,164.5 Z"/></g>
<g><path style="opacity:1" fill="#245b8e" d="M 313.5,148.5 C 317.182,148.335 320.848,148.501 324.5,149C 329.257,151.066 329.59,153.566 325.5,156.5C 322.324,149.775 317.824,148.775 312,153.5C 308.718,160.527 308.718,167.527 312,174.5C 316.569,179.484 321.569,179.818 327,175.5C 327.711,177.367 327.211,178.867 325.5,180C 317.605,183.428 311.438,181.595 307,174.5C 304.727,167.334 305.06,160.334 308,153.5C 309.73,151.598 311.563,149.931 313.5,148.5 Z"/></g>
<g><path style="opacity:1" fill="#e8f6fb" d="M 669.5,168.5 C 669.632,171.57 669.299,174.57 668.5,177.5C 666.218,178.39 663.885,178.556 661.5,178C 658.844,170.484 661.511,167.317 669.5,168.5 Z"/></g>
<g><path style="opacity:1" fill="#e7f2f8" d="M 385.5,178.5 C 385.5,178.167 385.5,177.833 385.5,177.5C 385.5,173.167 385.5,168.833 385.5,164.5C 386.485,168.634 386.818,172.968 386.5,177.5C 391.147,176.704 391.814,178.538 388.5,183C 385.518,183.498 382.518,183.665 379.5,183.5C 379.719,182.325 379.386,181.325 378.5,180.5C 377.108,181.605 375.941,182.939 375,184.5C 370.96,182.911 366.794,181.911 362.5,181.5C 366.555,181.824 370.555,181.491 374.5,180.5C 373.372,179.738 372.205,179.071 371,178.5C 370.333,173.5 370.333,168.5 371,163.5C 371.465,162.069 372.299,160.903 373.5,160C 376.834,158.788 379.334,159.621 381,162.5C 381.5,168.825 381.666,175.158 381.5,181.5C 383.924,181.808 386.257,181.474 388.5,180.5C 387.643,179.575 386.643,178.908 385.5,178.5 Z"/></g>
<g><path style="opacity:1" fill="#1d588e" d="M 540.5,159.5 C 541.209,158.596 542.209,158.263 543.5,158.5C 545.173,159.343 546.34,160.676 547,162.5C 547.667,166.833 547.667,171.167 547,175.5C 543.194,181.386 538.028,182.886 531.5,180C 527.773,174.757 526.607,168.924 528,162.5C 528.852,161.429 529.685,160.429 530.5,159.5C 531.833,159.5 532.5,160.167 532.5,161.5C 531.398,165.747 531.232,170.08 532,174.5C 535.237,180.734 538.904,181.067 543,175.5C 543.667,171.167 543.667,166.833 543,162.5C 542.623,161.058 541.79,160.058 540.5,159.5 Z"/></g>
<g><path style="opacity:1" fill="#ecf6fa" d="M 540.5,159.5 C 541.79,160.058 542.623,161.058 543,162.5C 543.667,166.833 543.667,171.167 543,175.5C 538.904,181.067 535.237,180.734 532,174.5C 531.232,170.08 531.398,165.747 532.5,161.5C 534.82,159.774 537.487,159.107 540.5,159.5 Z"/></g>
<g><path style="opacity:1" fill="#295d8f" d="M 751.5,156.5 C 754.941,156.301 758.274,156.801 761.5,158C 764.487,161.208 763.82,163.041 759.5,163.5C 758.523,158.251 755.857,157.251 751.5,160.5C 748.318,166.864 748.985,172.697 753.5,178C 757.067,179.075 760.067,178.242 762.5,175.5C 763.583,176.365 763.749,177.365 763,178.5C 758.264,182.179 753.43,182.345 748.5,179C 745.849,174.155 745.016,168.989 746,163.5C 746.967,160.379 748.8,158.046 751.5,156.5 Z"/></g>
<g><path style="opacity:1" fill="#285d8d" d="M 789.5,168.5 C 784.5,168.5 779.5,168.5 774.5,168.5C 774.216,170.415 774.549,172.081 775.5,173.5C 776.843,178.078 779.843,179.578 784.5,178C 785.931,177.535 787.097,176.701 788,175.5C 788.711,177.367 788.211,178.867 786.5,180C 780.61,182.879 775.776,181.712 772,176.5C 769.69,170.638 770.024,164.971 773,159.5C 778.907,155.105 784.24,155.772 789,161.5C 789.497,163.81 789.663,166.143 789.5,168.5 Z"/></g>
<g><path style="opacity:1" fill="#e2f4f9" d="M 777.5,159.5 C 783.284,158.284 785.951,160.618 785.5,166.5C 782.167,166.5 778.833,166.5 775.5,166.5C 775.166,163.812 775.832,161.479 777.5,159.5 Z"/></g>
<g><path style="opacity:1" fill="#6793b0" d="M 170.5,168.5 C 169.5,168.5 168.5,168.5 167.5,168.5C 167.5,173.833 167.5,179.167 167.5,184.5C 168.5,184.5 169.5,184.5 170.5,184.5C 169.432,185.434 168.099,185.768 166.5,185.5C 166.5,179.5 166.5,173.5 166.5,167.5C 168.099,167.232 169.432,167.566 170.5,168.5 Z"/></g>
<g><path style="opacity:1" fill="#1d66a1" d="M 179.5,159.5 C 179.5,167.833 179.5,176.167 179.5,184.5C 178.167,184.5 176.833,184.5 175.5,184.5C 175.5,176.167 175.5,167.833 175.5,159.5C 176.833,159.5 178.167,159.5 179.5,159.5 Z"/></g>
<g><path style="opacity:1" fill="#1e568b" d="M 602.5,148.5 C 608.909,148.183 615.243,148.683 621.5,150C 626.383,155.058 626.716,160.391 622.5,166C 618.747,167.989 614.747,168.822 610.5,168.5C 610.335,171.85 610.502,175.183 611,178.5C 612.509,179.09 614.009,179.756 615.5,180.5C 611.167,181.833 606.833,181.833 602.5,180.5C 603.628,179.738 604.795,179.071 606,178.5C 606.667,169.5 606.667,160.5 606,151.5C 604.271,151.026 603.105,150.026 602.5,148.5 Z"/></g>
<g><path style="opacity:1" fill="#f2f9fa" d="M 617.5,151.5 C 618.458,151.953 619.292,152.619 620,153.5C 622.956,161.953 620.123,166.287 611.5,166.5C 611.5,161.5 611.5,156.5 611.5,151.5C 613.5,151.5 615.5,151.5 617.5,151.5 Z"/></g>
<g><path style="opacity:1" fill="#b5d8f6" d="M 617.5,151.5 C 615.5,151.5 613.5,151.5 611.5,151.5C 611.5,156.5 611.5,161.5 611.5,166.5C 610.512,161.36 610.179,156.026 610.5,150.5C 613.059,150.198 615.393,150.532 617.5,151.5 Z"/></g>
<g><path style="opacity:1" fill="#1d6192" d="M 170.5,168.5 C 170.5,173.833 170.5,179.167 170.5,184.5C 169.5,184.5 168.5,184.5 167.5,184.5C 167.5,179.167 167.5,173.833 167.5,168.5C 168.5,168.5 169.5,168.5 170.5,168.5 Z"/></g>
<g><path style="opacity:1" fill="#94b3c8" d="M 403.5,178.5 C 405.167,178.5 406.833,178.5 408.5,178.5C 408.715,180.179 408.048,181.179 406.5,181.5C 406.611,180.883 406.944,180.383 407.5,180C 405.942,179.79 404.609,179.29 403.5,178.5 Z"/></g>
<g><path style="opacity:1" fill="#346490" d="M 669.5,166.5 C 669.5,167.167 669.5,167.833 669.5,168.5C 661.511,167.317 658.844,170.484 661.5,178C 663.885,178.556 666.218,178.39 668.5,177.5C 668.426,179.411 667.426,180.578 665.5,181C 656.994,181.484 654.161,177.651 657,169.5C 660.671,166.804 664.838,165.804 669.5,166.5 Z"/></g>
<g><path style="opacity:1" fill="#2d70a5" d="M 160.5,167.5 C 161.5,167.5 162.5,167.5 163.5,167.5C 162.833,171.167 162.167,174.833 161.5,178.5C 160.262,180.214 159.595,182.214 159.5,184.5C 157.833,184.5 156.167,184.5 154.5,184.5C 152.918,171.396 150.918,171.396 148.5,184.5C 146.712,184.785 145.045,184.452 143.5,183.5C 142.031,178.426 140.364,173.426 138.5,168.5C 140.045,167.548 141.712,167.215 143.5,167.5C 144.952,181.971 146.952,181.971 149.5,167.5C 151.167,167.5 152.833,167.5 154.5,167.5C 154.605,171.319 155.438,174.986 157,178.5C 158.609,174.939 159.775,171.272 160.5,167.5 Z"/></g>
<g><path style="opacity:1" fill="#265b8c" d="M 690.5,156.5 C 694.007,156.307 697.34,156.973 700.5,158.5C 701.452,160.045 701.785,161.712 701.5,163.5C 699.184,161.94 696.684,160.606 694,159.5C 692.564,159.559 691.231,159.892 690,160.5C 688,165.833 688,171.167 690,176.5C 693.598,179.089 697.264,179.089 701,176.5C 701.795,179.383 700.629,180.883 697.5,181C 687.985,182.153 683.652,177.82 684.5,168C 684.025,162.781 686.025,158.948 690.5,156.5 Z"/></g>
<g><path style="opacity:1" fill="#df574f" d="M 948.5,178.5 C 950.549,178.706 950.883,179.539 949.5,181C 942.09,180.672 941.09,182.672 946.5,187C 947.448,187.483 948.448,187.649 949.5,187.5C 950.167,183.5 950.833,183.5 951.5,187.5C 951.5,188.833 951.5,190.167 951.5,191.5C 950.596,192.209 950.263,193.209 950.5,194.5C 949.5,194.5 948.5,194.5 947.5,194.5C 947.657,193.127 947.49,191.793 947,190.5C 942.932,187.934 939.765,184.601 937.5,180.5C 940.946,179.313 944.613,178.646 948.5,178.5 Z"/></g>
<g><path style="opacity:1" fill="#355b7b" d="M 511.5,179.5 C 513.5,180.833 515.5,180.833 517.5,179.5C 518.978,179.238 520.311,179.571 521.5,180.5C 517.167,181.833 512.833,181.833 508.5,180.5C 509.325,179.614 510.325,179.281 511.5,179.5 Z"/></g>
<g><path style="opacity:1" fill="#fbb0af" d="M 948.5,178.5 C 949.209,177.596 950.209,177.263 951.5,177.5C 952.012,181.035 952.012,184.368 951.5,187.5C 950.833,183.5 950.167,183.5 949.5,187.5C 948.448,187.649 947.448,187.483 946.5,187C 941.09,182.672 942.09,180.672 949.5,181C 950.883,179.539 950.549,178.706 948.5,178.5 Z"/></g>
<g><path style="opacity:1" fill="#e0574e" d="M 935.5,184.5 C 939.344,187.511 942.678,191.011 945.5,195C 941.529,199.973 937.195,204.639 932.5,209C 931.207,209.49 929.873,209.657 928.5,209.5C 927.026,208.416 926.193,207.082 926,205.5C 934.502,206.575 935.336,204.075 928.5,198C 927.833,197.333 927.167,197.333 926.5,198C 924.983,199.685 923.316,201.185 921.5,202.5C 920.692,202.192 920.025,201.692 919.5,201C 925.036,195.631 930.37,190.131 935.5,184.5 Z"/></g>
<g><path style="opacity:1" fill="#febcbb" d="M 935.5,188.5 C 938.687,190.344 940.687,193.011 941.5,196.5C 936.649,195.682 934.649,193.016 935.5,188.5 Z"/></g>
<g><path style="opacity:1" fill="#febdbe" d="M 930.5,193.5 C 932.867,194.164 934.867,195.497 936.5,197.5C 937.823,199.204 937.49,200.537 935.5,201.5C 933.684,199.183 931.684,197.016 929.5,195C 930.056,194.617 930.389,194.117 930.5,193.5 Z"/></g>
<g><path style="opacity:1" fill="#febfc1" d="M 937.5,180.5 C 939.765,184.601 942.932,187.934 947,190.5C 947.49,191.793 947.657,193.127 947.5,194.5C 948.5,194.5 949.5,194.5 950.5,194.5C 950.263,193.209 950.596,192.209 951.5,191.5C 951.328,192.492 951.662,193.158 952.5,193.5C 951.542,194.962 950.376,196.295 949,197.5C 948.333,198.833 948.333,200.167 949,201.5C 951.167,203.667 953.333,205.833 955.5,208C 957.545,208.49 959.545,208.323 961.5,207.5C 960.393,209.969 958.393,210.969 955.5,210.5C 956.167,214.5 954.5,216.167 950.5,215.5C 950.66,217.199 950.494,218.866 950,220.5C 949.329,221.252 948.496,221.586 947.5,221.5C 948.141,220.518 948.807,219.518 949.5,218.5C 949,218.167 948.5,217.833 948,217.5C 944.35,220.404 941.35,219.737 939,215.5C 937.92,212.763 938.754,211.096 941.5,210.5C 944.711,211.404 947.877,212.404 951,213.5C 951.833,213.167 952.667,212.833 953.5,212.5C 950.739,210.72 947.739,209.387 944.5,208.5C 945.199,206.005 946.199,203.672 947.5,201.5C 946.448,201.351 945.448,201.517 944.5,202C 941.297,205.371 937.964,208.538 934.5,211.5C 934.631,210.761 934.464,210.094 934,209.5C 931.794,211.811 929.961,211.811 928.5,209.5C 929.873,209.657 931.207,209.49 932.5,209C 937.195,204.639 941.529,199.973 945.5,195C 942.678,191.011 939.344,187.511 935.5,184.5C 935.989,183.005 936.655,181.671 937.5,180.5 Z"/></g>
<g><path style="opacity:1" fill="#dd5951" d="M 961.5,207.5 C 959.545,208.323 957.545,208.49 955.5,208C 953.333,205.833 951.167,203.667 949,201.5C 948.333,200.167 948.333,198.833 949,197.5C 950.376,196.295 951.542,194.962 952.5,193.5C 954.814,191.523 957.147,189.523 959.5,187.5C 962.088,189.72 961.588,191.387 958,192.5C 957.251,193.635 957.417,194.635 958.5,195.5C 961.021,196.785 963.687,197.452 966.5,197.5C 966.5,198.5 966.5,199.5 966.5,200.5C 962.167,200.085 958.167,198.752 954.5,196.5C 952.616,197.693 952.116,199.359 953,201.5C 955.203,205.634 958.036,206.301 961.5,203.5C 962.626,204.808 962.626,206.142 961.5,207.5 Z"/></g>
<g><path style="opacity:1" fill="#7fa7c6" d="M 384.5,207.5 C 385.404,208.209 385.737,209.209 385.5,210.5C 378.833,210.5 372.167,210.5 365.5,210.5C 372.065,210.149 378.399,209.149 384.5,207.5 Z"/></g>
<g><path style="opacity:1" fill="#df564e" d="M 947.5,221.5 C 945.545,222.323 943.545,222.49 941.5,222C 937.652,219.353 935.319,215.853 934.5,211.5C 937.964,208.538 941.297,205.371 944.5,202C 945.448,201.517 946.448,201.351 947.5,201.5C 946.199,203.672 945.199,206.005 944.5,208.5C 947.739,209.387 950.739,210.72 953.5,212.5C 952.667,212.833 951.833,213.167 951,213.5C 947.877,212.404 944.711,211.404 941.5,210.5C 938.754,211.096 937.92,212.763 939,215.5C 941.35,219.737 944.35,220.404 948,217.5C 948.5,217.833 949,218.167 949.5,218.5C 948.807,219.518 948.141,220.518 947.5,221.5 Z"/></g>
<g><path style="opacity:1" fill="#96bbd3" d="M 254.5,210.5 C 255.568,209.566 256.901,209.232 258.5,209.5C 258.825,217.019 258.492,224.352 257.5,231.5C 257.5,231.167 257.5,230.833 257.5,230.5C 258.126,223.416 257.459,216.75 255.5,210.5C 255.167,210.5 254.833,210.5 254.5,210.5 Z"/></g>
<g><path style="opacity:1" fill="#275d90" d="M 410.5,219.5 C 408.833,219.5 407.167,219.5 405.5,219.5C 405.5,224.167 405.5,228.833 405.5,233.5C 396.161,233.334 386.827,233.5 377.5,234C 378.833,234.667 378.833,235.333 377.5,236C 388.161,236.5 398.828,236.667 409.5,236.5C 409.5,236.833 409.5,237.167 409.5,237.5C 398.833,237.5 388.167,237.5 377.5,237.5C 376.837,235.958 376.17,234.291 375.5,232.5C 374.817,232.863 374.15,233.196 373.5,233.5C 372.167,233.5 370.833,233.5 369.5,233.5C 369.5,228.833 369.5,224.167 369.5,219.5C 368.167,219.5 366.833,219.5 365.5,219.5C 365.5,216.5 365.5,213.5 365.5,210.5C 372.167,210.5 378.833,210.5 385.5,210.5C 385.737,209.209 385.404,208.209 384.5,207.5C 384.791,206.351 385.624,205.684 387,205.5C 388.871,205.709 390.038,206.709 390.5,208.5C 397.134,209.497 403.8,209.83 410.5,209.5C 410.5,212.833 410.5,216.167 410.5,219.5 Z"/></g>
<g><path style="opacity:1" fill="#2a5f8c" d="M 524.5,208.5 C 524.5,208.833 524.5,209.167 524.5,209.5C 518.463,209.171 512.463,209.504 506.5,210.5C 510.982,211.167 515.316,211.834 519.5,212.5C 516.15,212.335 512.817,212.502 509.5,213C 511.5,215 513.5,217 515.5,219C 514.646,220.022 513.646,220.855 512.5,221.5C 510.425,219.103 508.425,216.769 506.5,214.5C 509.186,213.012 508.853,212.345 505.5,212.5C 505.5,211.167 505.5,209.833 505.5,208.5C 511.833,208.5 518.167,208.5 524.5,208.5 Z"/></g>
<g><path style="opacity:1" fill="#6a96b9" d="M 524.5,208.5 C 524.833,208.5 525.167,208.5 525.5,208.5C 525.5,215.5 525.5,222.5 525.5,229.5C 523.585,229.784 521.919,229.451 520.5,228.5C 521.833,228.5 523.167,228.5 524.5,228.5C 524.5,222.167 524.5,215.833 524.5,209.5C 524.5,209.167 524.5,208.833 524.5,208.5 Z"/></g>
<g><path style="opacity:1" fill="#5a86a4" d="M 221.5,210.5 C 222.675,210.281 223.675,210.614 224.5,211.5C 221.348,219.49 220.348,219.156 221.5,210.5 Z"/></g>
<g><path style="opacity:1" fill="#80a4be" d="M 342.5,210.5 C 346.5,210.5 350.5,210.5 354.5,210.5C 354.806,213.385 354.473,216.052 353.5,218.5C 353.5,216.167 353.5,213.833 353.5,211.5C 349.629,211.815 345.962,211.482 342.5,210.5 Z"/></g>
<g><path style="opacity:1" fill="#1f5a90" d="M 481.5,208.5 C 488.5,208.5 495.5,208.5 502.5,208.5C 503.123,215.255 502.456,221.588 500.5,227.5C 499.5,227.5 498.5,227.5 497.5,227.5C 497.5,226.5 497.5,225.5 497.5,224.5C 492.461,225.957 487.461,227.624 482.5,229.5C 481.818,228.757 481.151,228.091 480.5,227.5C 480.577,226.25 481.244,225.417 482.5,225C 487.289,223.637 491.956,221.971 496.5,220C 497.435,217.619 497.768,215.119 497.5,212.5C 494.15,212.335 490.817,212.502 487.5,213C 490.412,214.858 491.912,217.358 492,220.5C 491.586,220.957 491.086,221.291 490.5,221.5C 488.517,220.018 486.684,218.351 485,216.5C 484.508,215.451 484.674,214.451 485.5,213.5C 484.311,212.571 482.978,212.238 481.5,212.5C 481.5,211.167 481.5,209.833 481.5,208.5 Z"/></g>
<g><path style="opacity:1" fill="#145691" d="M 524.5,209.5 C 524.5,215.833 524.5,222.167 524.5,228.5C 523.167,228.5 521.833,228.5 520.5,228.5C 520.785,226.712 520.452,225.045 519.5,223.5C 515.362,225.767 511.028,227.433 506.5,228.5C 505.438,226.766 505.438,225.099 506.5,223.5C 511.037,223.116 515.371,221.949 519.5,220C 520.814,217.395 520.814,214.895 519.5,212.5C 515.316,211.834 510.982,211.167 506.5,210.5C 512.463,209.504 518.463,209.171 524.5,209.5 Z"/></g>
<g><path style="opacity:1" fill="#185d8f" d="M 213.5,211.5 C 214.5,211.5 215.5,211.5 216.5,211.5C 216.5,218.167 216.5,224.833 216.5,231.5C 215.5,231.5 214.5,231.5 213.5,231.5C 213.5,224.833 213.5,218.167 213.5,211.5 Z"/></g>
<g><path style="opacity:1" fill="#b1d6ef" d="M 370.5,214.5 C 381.988,213.505 393.655,213.172 405.5,213.5C 405.768,215.099 405.434,216.432 404.5,217.5C 404.5,216.5 404.5,215.5 404.5,214.5C 393.167,214.5 381.833,214.5 370.5,214.5 Z"/></g>
<g><path style="opacity:1" fill="#c3dff1" d="M 481.5,208.5 C 496.167,207.167 510.833,207.167 525.5,208.5C 525.167,208.5 524.833,208.5 524.5,208.5C 518.167,208.5 511.833,208.5 505.5,208.5C 505.5,209.833 505.5,211.167 505.5,212.5C 508.853,212.345 509.186,213.012 506.5,214.5C 506.44,213.957 506.107,213.624 505.5,213.5C 505.167,215.167 504.833,216.833 504.5,218.5C 504.556,220.64 505.223,222.306 506.5,223.5C 505.438,225.099 505.438,226.766 506.5,228.5C 506.672,229.492 506.338,230.158 505.5,230.5C 504.393,228.153 502.726,227.82 500.5,229.5C 500.5,228.833 500.5,228.167 500.5,227.5C 502.456,221.588 503.123,215.255 502.5,208.5C 495.5,208.5 488.5,208.5 481.5,208.5 Z"/></g>
<g><path style="opacity:1" fill="#a2c5de" d="M 250.5,231.5 C 250.5,224.5 250.5,217.5 250.5,210.5C 249.5,210.5 248.5,210.5 247.5,210.5C 247.5,217.5 247.5,224.5 247.5,231.5C 246.508,224.352 246.175,217.019 246.5,209.5C 248.167,209.5 249.833,209.5 251.5,209.5C 251.825,217.019 251.492,224.352 250.5,231.5 Z"/></g>
<g><path style="opacity:1" fill="#3374a5" d="M 250.5,231.5 C 249.5,231.5 248.5,231.5 247.5,231.5C 247.5,224.5 247.5,217.5 247.5,210.5C 248.5,210.5 249.5,210.5 250.5,210.5C 250.5,217.5 250.5,224.5 250.5,231.5 Z"/></g>
<g><path style="opacity:1" fill="#115f99" d="M 255.5,210.5 C 257.459,216.75 258.126,223.416 257.5,230.5C 255.541,224.25 254.874,217.584 255.5,210.5 Z"/></g>
<g><path style="opacity:1" fill="#e4f3fa" d="M 519.5,212.5 C 520.814,214.895 520.814,217.395 519.5,220C 515.371,221.949 511.037,223.116 506.5,223.5C 505.223,222.306 504.556,220.64 504.5,218.5C 504.833,216.833 505.167,215.167 505.5,213.5C 506.107,213.624 506.44,213.957 506.5,214.5C 508.425,216.769 510.425,219.103 512.5,221.5C 513.646,220.855 514.646,220.022 515.5,219C 513.5,217 511.5,215 509.5,213C 512.817,212.502 516.15,212.335 519.5,212.5 Z"/></g>
<g><path style="opacity:1" fill="#db615b" d="M 963.5,211.5 C 968.072,214.563 972.239,218.23 976,222.5C 976.749,223.635 976.583,224.635 975.5,225.5C 970.323,221.671 966.323,217.004 963.5,211.5 Z"/></g>
<g><path style="opacity:1" fill="#def2fa" d="M 370.5,214.5 C 381.833,214.5 393.167,214.5 404.5,214.5C 404.5,215.5 404.5,216.5 404.5,217.5C 399.5,217.5 394.5,217.5 389.5,217.5C 389.5,218.833 389.5,220.167 389.5,221.5C 393.167,221.5 396.833,221.5 400.5,221.5C 400.5,222.5 400.5,223.5 400.5,224.5C 396.833,224.5 393.167,224.5 389.5,224.5C 389.5,225.5 389.5,226.5 389.5,227.5C 393.167,227.5 396.833,227.5 400.5,227.5C 400.5,228.5 400.5,229.5 400.5,230.5C 391.833,230.5 383.167,230.5 374.5,230.5C 374.5,229.5 374.5,228.5 374.5,227.5C 378.167,227.5 381.833,227.5 385.5,227.5C 385.5,226.5 385.5,225.5 385.5,224.5C 381.833,224.5 378.167,224.5 374.5,224.5C 374.5,223.5 374.5,222.5 374.5,221.5C 378.5,220.833 382.5,220.167 386.5,219.5C 386.5,218.167 386.5,216.833 386.5,215.5C 381.256,216.815 375.923,217.482 370.5,217.5C 370.5,216.5 370.5,215.5 370.5,214.5 Z"/></g>
<g><path style="opacity:1" fill="#4b7993" d="M 254.5,210.5 C 254.833,210.5 255.167,210.5 255.5,210.5C 254.874,217.584 255.541,224.25 257.5,230.5C 257.5,230.833 257.5,231.167 257.5,231.5C 256.5,231.5 255.5,231.5 254.5,231.5C 254.5,224.5 254.5,217.5 254.5,210.5 Z"/></g>
<g><path style="opacity:1" fill="#b5d2ea" d="M 410.5,219.5 C 409.432,220.434 408.099,220.768 406.5,220.5C 406.818,225.032 406.485,229.366 405.5,233.5C 405.5,228.833 405.5,224.167 405.5,219.5C 407.167,219.5 408.833,219.5 410.5,219.5 Z"/></g>
<g><path style="opacity:1" fill="#3375a9" d="M 250.5,152.5 C 251.833,152.5 253.167,152.5 254.5,152.5C 254.029,156.503 252.029,159.669 248.5,162C 232.121,176.201 216.121,190.867 200.5,206C 185.167,220 169.833,234 154.5,248C 152.559,249.903 150.226,250.736 147.5,250.5C 147.178,248.278 147.845,246.444 149.5,245C 183.662,214.669 217.329,183.836 250.5,152.5 Z"/></g>
<g><path style="opacity:1" fill="#235c92" d="M 322.5,214.5 C 322.5,215.167 322.5,215.833 322.5,216.5C 319.589,222.082 316.256,227.415 312.5,232.5C 314.396,233.466 316.396,233.799 318.5,233.5C 317.722,224.811 319.222,224.478 323,232.5C 325.087,229.327 326.921,225.994 328.5,222.5C 327.311,221.571 325.978,221.238 324.5,221.5C 324.5,218.167 324.5,214.833 324.5,211.5C 329.032,211.818 333.366,211.485 337.5,210.5C 336.962,208.883 336.629,207.216 336.5,205.5C 339.911,204.933 341.911,206.266 342.5,209.5C 342.5,209.833 342.5,210.167 342.5,210.5C 345.962,211.482 349.629,211.815 353.5,211.5C 353.5,213.833 353.5,216.167 353.5,218.5C 352.167,218.5 350.833,218.5 349.5,218.5C 349.5,217.5 349.5,216.5 349.5,215.5C 342.5,215.5 335.5,215.5 328.5,215.5C 328.34,217.199 328.506,218.866 329,220.5C 330.085,217.183 331.585,216.849 333.5,219.5C 340.468,220.497 347.468,220.83 354.5,220.5C 354.5,221.833 354.5,223.167 354.5,224.5C 351.5,224.5 348.5,224.5 345.5,224.5C 345.5,226.167 345.5,227.833 345.5,229.5C 347.833,229.5 350.167,229.5 352.5,229.5C 352.5,238.167 352.5,246.833 352.5,255.5C 346.5,255.5 340.5,255.5 334.5,255.5C 334.5,246.833 334.5,238.167 334.5,229.5C 336.5,229.5 338.5,229.5 340.5,229.5C 340.5,227.833 340.5,226.167 340.5,224.5C 338.167,224.5 335.833,224.5 333.5,224.5C 333.649,223.448 333.483,222.448 333,221.5C 332.062,223.488 331.228,225.488 330.5,227.5C 329.833,236.675 329.167,246.009 328.5,255.5C 327.833,248.679 327.167,242.012 326.5,235.5C 325.504,235.586 324.671,235.252 324,234.5C 323.51,235.793 323.343,237.127 323.5,238.5C 317.78,237.586 312.113,237.252 306.5,237.5C 306.069,236.707 305.735,235.873 305.5,235C 307.824,232.031 310.158,229.031 312.5,226C 310.19,225.503 307.857,225.337 305.5,225.5C 305.5,223.833 305.5,222.167 305.5,220.5C 309.242,216.029 312.242,211.029 314.5,205.5C 315.902,205.865 316.902,206.699 317.5,208C 315.3,212.232 312.967,216.398 310.5,220.5C 311.723,221.614 313.056,221.781 314.5,221C 316.688,218.805 318.521,216.305 320,213.5C 320.671,214.252 321.504,214.586 322.5,214.5 Z"/></g>
<g><path style="opacity:1" fill="#e1f2f9" d="M 322.5,216.5 C 323.167,218.167 323.833,219.833 324.5,221.5C 325.978,221.238 327.311,221.571 328.5,222.5C 326.921,225.994 325.087,229.327 323,232.5C 319.222,224.478 317.722,224.811 318.5,233.5C 316.396,233.799 314.396,233.466 312.5,232.5C 316.256,227.415 319.589,222.082 322.5,216.5 Z"/></g>
<g><path style="opacity:1" fill="#9fc4e1" d="M 337.5,210.5 C 333.366,211.485 329.032,211.818 324.5,211.5C 324.5,214.833 324.5,218.167 324.5,221.5C 323.833,219.833 323.167,218.167 322.5,216.5C 322.5,215.833 322.5,215.167 322.5,214.5C 323.434,213.432 323.768,212.099 323.5,210.5C 328.167,210.5 332.833,210.5 337.5,210.5 Z"/></g>
<g><path style="opacity:1" fill="#d65750" d="M 958.5,217.5 C 962.464,220.963 966.298,224.63 970,228.5C 970.667,229.5 970.667,230.5 970,231.5C 965.779,227.279 961.613,223.113 957.5,219C 958.056,218.617 958.389,218.117 958.5,217.5 Z"/></g>
<g><path style="opacity:1" fill="#467492" d="M 456.5,219.5 C 460.5,219.5 464.5,219.5 468.5,219.5C 468.823,226.022 468.49,232.355 467.5,238.5C 467.5,232.5 467.5,226.5 467.5,220.5C 463.629,220.815 459.962,220.482 456.5,219.5 Z"/></g>
<g><path style="opacity:1" fill="#eaf7fd" d="M 342.5,210.5 C 342.5,210.167 342.5,209.833 342.5,209.5C 348.033,209.327 353.199,209.66 358,210.5C 357.041,215.651 356.541,220.985 356.5,226.5C 353.102,226.18 349.768,226.513 346.5,227.5C 349.086,228.48 351.753,228.813 354.5,228.5C 354.563,238.347 354.563,248.013 354.5,257.5C 353.758,258.287 352.925,258.953 352,259.5C 343.312,258.532 334.812,257.866 326.5,257.5C 328.099,257.768 329.432,257.434 330.5,256.5C 330.5,246.833 330.5,237.167 330.5,227.5C 331.228,225.488 332.062,223.488 333,221.5C 333.483,222.448 333.649,223.448 333.5,224.5C 335.833,224.5 338.167,224.5 340.5,224.5C 340.5,226.167 340.5,227.833 340.5,229.5C 338.5,229.5 336.5,229.5 334.5,229.5C 334.5,238.167 334.5,246.833 334.5,255.5C 340.5,255.5 346.5,255.5 352.5,255.5C 352.5,246.833 352.5,238.167 352.5,229.5C 350.167,229.5 347.833,229.5 345.5,229.5C 345.5,227.833 345.5,226.167 345.5,224.5C 348.5,224.5 351.5,224.5 354.5,224.5C 354.5,223.167 354.5,221.833 354.5,220.5C 347.468,220.83 340.468,220.497 333.5,219.5C 331.585,216.849 330.085,217.183 329,220.5C 328.506,218.866 328.34,217.199 328.5,215.5C 335.5,215.5 342.5,215.5 349.5,215.5C 349.5,216.5 349.5,217.5 349.5,218.5C 350.833,218.5 352.167,218.5 353.5,218.5C 354.473,216.052 354.806,213.385 354.5,210.5C 350.5,210.5 346.5,210.5 342.5,210.5 Z"/></g>
<g><path style="opacity:1" fill="#1b588f" d="M 438.5,214.5 C 438.611,215.117 438.944,215.617 439.5,216C 436.332,222.007 432.665,227.674 428.5,233C 430.81,233.497 433.143,233.663 435.5,233.5C 435.528,231.418 434.861,229.584 433.5,228C 434.108,227.13 434.941,226.63 436,226.5C 438.015,228.361 439.182,230.695 439.5,233.5C 439.369,234.376 439.702,235.043 440.5,235.5C 441.494,230.544 441.827,225.544 441.5,220.5C 445.371,220.815 449.038,220.482 452.5,219.5C 452.5,218.167 452.5,216.833 452.5,215.5C 448.5,215.5 444.5,215.5 440.5,215.5C 440.5,214.167 440.5,212.833 440.5,211.5C 444.5,211.5 448.5,211.5 452.5,211.5C 452.5,209.5 452.5,207.5 452.5,205.5C 453.833,205.5 455.167,205.5 456.5,205.5C 456.5,207.5 456.5,209.5 456.5,211.5C 461.167,211.5 465.833,211.5 470.5,211.5C 470.5,212.833 470.5,214.167 470.5,215.5C 465.833,215.5 461.167,215.5 456.5,215.5C 456.5,216.833 456.5,218.167 456.5,219.5C 459.962,220.482 463.629,220.815 467.5,220.5C 467.5,226.5 467.5,232.5 467.5,238.5C 465.5,238.5 463.5,238.5 461.5,238.5C 461.608,240.783 462.441,242.783 464,244.5C 466.522,247.022 469.022,249.522 471.5,252C 471.022,253.642 470.022,254.809 468.5,255.5C 463.515,250.844 459.515,245.51 456.5,239.5C 455.833,244.681 455.167,250.015 454.5,255.5C 453.833,250.015 453.167,244.681 452.5,239.5C 450.583,242.331 448.917,245.331 447.5,248.5C 445.5,249.833 443.833,251.5 442.5,253.5C 440.088,254.979 438.088,254.479 436.5,252C 441.896,248.784 445.562,244.284 447.5,238.5C 439.397,237.966 431.064,237.632 422.5,237.5C 423.881,232.915 426.214,228.748 429.5,225C 426.854,224.503 424.187,224.336 421.5,224.5C 421.5,223.167 421.5,221.833 421.5,220.5C 425.142,215.903 428.308,210.903 431,205.5C 432.158,205.998 432.991,206.831 433.5,208C 431.89,212.054 429.89,215.887 427.5,219.5C 429.074,220.631 430.741,220.798 432.5,220C 433.708,217.75 435.041,215.583 436.5,213.5C 437.183,213.863 437.85,214.196 438.5,214.5 Z"/></g>
<g><path style="opacity:1" fill="#cbeefa" d="M 456.5,223.5 C 459.167,223.5 461.833,223.5 464.5,223.5C 464.5,227.167 464.5,230.833 464.5,234.5C 461.833,234.5 459.167,234.5 456.5,234.5C 456.5,230.833 456.5,227.167 456.5,223.5 Z"/></g>
<g><path style="opacity:1" fill="#285c8b" d="M 460.5,224.5 C 461.643,224.908 462.643,225.575 463.5,226.5C 462.7,229.133 461.2,231.133 459,232.5C 458.5,232.167 458,231.833 457.5,231.5C 458.788,229.261 459.788,226.928 460.5,224.5 Z"/></g>
<g><path style="opacity:1" fill="#c8eaf8" d="M 444.5,223.5 C 447.167,223.5 449.833,223.5 452.5,223.5C 452.5,227.167 452.5,230.833 452.5,234.5C 449.833,234.5 447.167,234.5 444.5,234.5C 444.5,230.833 444.5,227.167 444.5,223.5 Z"/></g>
<g><path style="opacity:1" fill="#2b5e8b" d="M 445.5,225.5 C 446.552,225.351 447.552,225.517 448.5,226C 449.627,227.753 450.627,229.587 451.5,231.5C 450.635,232.583 449.635,232.749 448.5,232C 447.086,230.007 446.086,227.84 445.5,225.5 Z"/></g>
<g><path style="opacity:1" fill="#47779b" d="M 452.5,219.5 C 449.038,220.482 445.371,220.815 441.5,220.5C 441.827,225.544 441.494,230.544 440.5,235.5C 439.702,235.043 439.369,234.376 439.5,233.5C 440.486,229.03 440.819,224.363 440.5,219.5C 444.5,219.5 448.5,219.5 452.5,219.5 Z"/></g>
<g><path style="opacity:1" fill="#daf0f8" d="M 440.5,211.5 C 440.5,212.833 440.5,214.167 440.5,215.5C 444.5,215.5 448.5,215.5 452.5,215.5C 452.5,216.833 452.5,218.167 452.5,219.5C 448.5,219.5 444.5,219.5 440.5,219.5C 440.819,224.363 440.486,229.03 439.5,233.5C 439.182,230.695 438.015,228.361 436,226.5C 434.941,226.63 434.108,227.13 433.5,228C 434.861,229.584 435.528,231.418 435.5,233.5C 433.143,233.663 430.81,233.497 428.5,233C 432.665,227.674 436.332,222.007 439.5,216C 438.944,215.617 438.611,215.117 438.5,214.5C 439.167,213.5 439.833,212.5 440.5,211.5 Z"/></g>
<g><path style="opacity:1" fill="#b0d3ed" d="M 452.5,205.5 C 452.5,207.5 452.5,209.5 452.5,211.5C 448.5,211.5 444.5,211.5 440.5,211.5C 443.962,210.518 447.629,210.185 451.5,210.5C 451.216,208.585 451.549,206.919 452.5,205.5 Z"/></g>
<g><path style="opacity:1" fill="#eefbfd" d="M 347.5,234.5 C 347.5,236.167 347.5,237.833 347.5,239.5C 344.833,239.5 342.167,239.5 339.5,239.5C 339.5,237.833 339.5,236.167 339.5,234.5C 342.167,234.5 344.833,234.5 347.5,234.5 Z"/></g>
<g><path style="opacity:1" fill="#d4ecf6" d="M 305.5,220.5 C 305.5,222.167 305.5,223.833 305.5,225.5C 307.857,225.337 310.19,225.503 312.5,226C 310.158,229.031 307.824,232.031 305.5,235C 305.735,235.873 306.069,236.707 306.5,237.5C 312.113,237.252 317.78,237.586 323.5,238.5C 323.343,237.127 323.51,235.793 324,234.5C 324.671,235.252 325.504,235.586 326.5,235.5C 326.5,242.5 326.5,249.5 326.5,256.5C 327.833,256.5 329.167,256.5 330.5,256.5C 329.432,257.434 328.099,257.768 326.5,257.5C 325.077,255.455 323.077,254.455 320.5,254.5C 320.296,251.482 319.963,248.482 319.5,245.5C 318.523,248.287 318.19,251.287 318.5,254.5C 316.585,254.784 314.919,254.451 313.5,253.5C 314.833,253.5 316.167,253.5 317.5,253.5C 316.92,249.19 316.586,244.857 316.5,240.5C 315.5,240.5 314.5,240.5 313.5,240.5C 313.5,243.167 313.5,245.833 313.5,248.5C 312.504,248.414 311.671,248.748 311,249.5C 310.998,252.051 310.164,254.051 308.5,255.5C 309.341,250.468 310.341,245.468 311.5,240.5C 310.167,240.5 308.833,240.5 307.5,240.5C 306.791,239.596 305.791,239.263 304.5,239.5C 304.5,236.833 304.5,234.167 304.5,231.5C 305.5,231.5 306.5,231.5 307.5,231.5C 307.413,228.439 306.413,225.773 304.5,223.5C 304.52,222.274 304.853,221.274 305.5,220.5 Z"/></g>
<g><path style="opacity:1" fill="#b1d5f4" d="M 347.5,234.5 C 344.833,234.5 342.167,234.5 339.5,234.5C 339.5,236.167 339.5,237.833 339.5,239.5C 342.167,239.5 344.833,239.5 347.5,239.5C 344.713,240.477 341.713,240.81 338.5,240.5C 338.5,238.167 338.5,235.833 338.5,233.5C 341.713,233.19 344.713,233.523 347.5,234.5 Z"/></g>
<g><path style="opacity:1" fill="#09569a" d="M 377.5,237.5 C 387.653,238.494 397.986,238.828 408.5,238.5C 409.134,243.871 408.134,248.871 405.5,253.5C 404.614,252.675 404.281,251.675 404.5,250.5C 404.5,250.167 404.5,249.833 404.5,249.5C 406.402,246.663 407.069,243.329 406.5,239.5C 395.167,239.5 383.833,239.5 372.5,239.5C 372.629,237.784 372.962,236.117 373.5,234.5C 373.5,234.167 373.5,233.833 373.5,233.5C 374.15,233.196 374.817,232.863 375.5,232.5C 376.17,234.291 376.837,235.958 377.5,237.5 Z"/></g>
<g><path style="opacity:1" fill="#20598e" d="M 373.5,234.5 C 372.962,236.117 372.629,237.784 372.5,239.5C 383.833,239.5 395.167,239.5 406.5,239.5C 407.069,243.329 406.402,246.663 404.5,249.5C 404.5,246.833 404.5,244.167 404.5,241.5C 394.167,240.167 383.833,240.167 373.5,241.5C 373.062,241.435 372.728,241.601 372.5,242C 373.357,242.689 374.023,243.522 374.5,244.5C 372.964,247.778 371.631,251.111 370.5,254.5C 368.365,254.853 367.032,254.02 366.5,252C 367.363,249.773 368.363,247.607 369.5,245.5C 368.467,244.548 367.3,244.548 366,245.5C 364.831,244.991 363.998,244.158 363.5,243C 367,240.331 370.333,237.498 373.5,234.5 Z"/></g>
<g><path style="opacity:1" fill="#b2d7f5" d="M 373.5,241.5 C 383.833,240.167 394.167,240.167 404.5,241.5C 402.585,241.216 400.919,241.549 399.5,242.5C 398.5,241.167 397.5,241.167 396.5,242.5C 389.018,241.508 381.352,241.175 373.5,241.5 Z"/></g>
<g><path style="opacity:1" fill="#e1f2f9" d="M 409.5,236.5 C 411.17,243.599 410.67,250.599 408,257.5C 403.599,258.467 399.099,258.8 394.5,258.5C 394.225,253.652 391.892,252.319 387.5,254.5C 387.61,251.941 386.944,249.608 385.5,247.5C 384.081,248.005 383.415,249.005 383.5,250.5C 382.717,248.657 382.05,246.657 381.5,244.5C 380.311,243.571 378.978,243.238 377.5,243.5C 377.5,244.833 377.5,246.167 377.5,247.5C 376.85,247.196 376.183,246.863 375.5,246.5C 374.529,249.763 372.863,252.43 370.5,254.5C 371.631,251.111 372.964,247.778 374.5,244.5C 374.023,243.522 373.357,242.689 372.5,242C 372.728,241.601 373.062,241.435 373.5,241.5C 381.352,241.175 389.018,241.508 396.5,242.5C 395.686,245.591 396.686,248.257 399.5,250.5C 400.672,250.081 401.672,249.415 402.5,248.5C 401.487,246.473 400.487,244.473 399.5,242.5C 400.919,241.549 402.585,241.216 404.5,241.5C 404.5,244.167 404.5,246.833 404.5,249.5C 404.5,249.833 404.5,250.167 404.5,250.5C 401.838,252.268 398.838,252.935 395.5,252.5C 395.5,253.833 395.5,255.167 395.5,256.5C 399.995,256.507 404.162,255.507 408,253.5C 409.339,248.264 409.839,242.93 409.5,237.5C 409.5,237.167 409.5,236.833 409.5,236.5 Z"/></g>
<g><path style="opacity:1" fill="#285c8f" d="M 399.5,242.5 C 400.487,244.473 401.487,246.473 402.5,248.5C 401.672,249.415 400.672,250.081 399.5,250.5C 396.686,248.257 395.686,245.591 396.5,242.5C 397.5,241.167 398.5,241.167 399.5,242.5 Z"/></g>
<g><path style="opacity:1" fill="#e4f5fd" d="M 452.5,239.5 C 452.5,245.5 452.5,251.5 452.5,257.5C 453.833,257.5 455.167,257.5 456.5,257.5C 456.5,251.5 456.5,245.5 456.5,239.5C 459.515,245.51 463.515,250.844 468.5,255.5C 466.801,255.66 465.134,255.494 463.5,255C 463.833,254.667 464.167,254.333 464.5,254C 463.5,253.5 462.5,253 461.5,252.5C 460.851,250.376 460.017,248.376 459,246.5C 458.667,250.5 458.333,254.5 458,258.5C 457.692,259.308 457.192,259.975 456.5,260.5C 454.958,259.253 453.458,259.253 452,260.5C 450.726,256.015 450.059,251.348 450,246.5C 449.583,247.756 448.75,248.423 447.5,248.5C 448.917,245.331 450.583,242.331 452.5,239.5 Z"/></g>
<g><path style="opacity:1" fill="#19568f" d="M 313.5,253.5 C 313.5,251.833 313.5,250.167 313.5,248.5C 313.5,245.833 313.5,243.167 313.5,240.5C 314.5,240.5 315.5,240.5 316.5,240.5C 316.586,244.857 316.92,249.19 317.5,253.5C 316.167,253.5 314.833,253.5 313.5,253.5 Z"/></g>
<g><path style="opacity:1" fill="#275c8e" d="M 319.5,245.5 C 319.579,244.07 319.246,242.736 318.5,241.5C 319.833,240.167 321.167,240.167 322.5,241.5C 324.281,244.779 324.947,248.112 324.5,251.5C 323.833,251.833 323.167,252.167 322.5,252.5C 321.641,250 320.641,247.667 319.5,245.5 Z"/></g>
<g><path style="opacity:1" fill="#def0f8" d="M 421.5,220.5 C 421.5,221.833 421.5,223.167 421.5,224.5C 424.187,224.336 426.854,224.503 429.5,225C 426.214,228.748 423.881,232.915 422.5,237.5C 431.064,237.632 439.397,237.966 447.5,238.5C 445.562,244.284 441.896,248.784 436.5,252C 438.088,254.479 440.088,254.979 442.5,253.5C 442.985,258.159 441.152,259.492 437,257.5C 436.517,256.552 436.351,255.552 436.5,254.5C 435.5,254.5 434.5,254.5 433.5,254.5C 433.563,249.797 433.229,245.13 432.5,240.5C 431.5,240.5 430.5,240.5 429.5,240.5C 429.5,243.5 429.5,246.5 429.5,249.5C 428.5,249.5 427.5,249.5 426.5,249.5C 426.923,251.781 426.256,253.448 424.5,254.5C 425.487,249.883 426.154,245.216 426.5,240.5C 424.801,240.527 423.467,241.194 422.5,242.5C 421.858,239.865 421.191,237.198 420.5,234.5C 420.365,232.192 421.031,230.192 422.5,228.5C 420.558,225.852 420.224,223.185 421.5,220.5 Z"/></g>
<g><path style="opacity:1" fill="#295c8e" d="M 435.5,239.5 C 436.5,239.5 437.5,239.5 438.5,239.5C 438.724,241.787 439.391,243.953 440.5,246C 439.968,248.02 438.635,248.853 436.5,248.5C 436.534,245.801 435.867,243.301 434.5,241C 435.056,240.617 435.389,240.117 435.5,239.5 Z"/></g>
<g><path style="opacity:1" fill="#26577e" d="M 452.5,239.5 C 453.167,244.681 453.833,250.015 454.5,255.5C 455.167,250.015 455.833,244.681 456.5,239.5C 456.5,245.5 456.5,251.5 456.5,257.5C 455.167,257.5 453.833,257.5 452.5,257.5C 452.5,251.5 452.5,245.5 452.5,239.5 Z"/></g>
<g><path style="opacity:1" fill="#22598e" d="M 307.5,240.5 C 308.833,240.5 310.167,240.5 311.5,240.5C 310.341,245.468 309.341,250.468 308.5,255.5C 306.052,255.915 304.719,254.915 304.5,252.5C 305.757,248.547 306.757,244.547 307.5,240.5 Z"/></g>
<g><path style="opacity:1" fill="#e0f1fa" d="M 338.5,244.5 C 341.5,244.5 344.5,244.5 347.5,244.5C 347.5,246.833 347.5,249.167 347.5,251.5C 344.5,251.5 341.5,251.5 338.5,251.5C 338.5,249.167 338.5,246.833 338.5,244.5 Z"/></g>
<g><path style="opacity:1" fill="#2a5d8f" d="M 383.5,250.5 C 383.5,251.5 383.5,252.5 383.5,253.5C 381.833,253.5 380.167,253.5 378.5,253.5C 378.675,251.379 378.341,249.379 377.5,247.5C 377.5,246.167 377.5,244.833 377.5,243.5C 378.978,243.238 380.311,243.571 381.5,244.5C 382.05,246.657 382.717,248.657 383.5,250.5 Z"/></g>
<g><path style="opacity:1" fill="#306191" d="M 433.5,254.5 C 432.167,254.5 430.833,254.5 429.5,254.5C 429.5,252.833 429.5,251.167 429.5,249.5C 429.5,246.5 429.5,243.5 429.5,240.5C 430.5,240.5 431.5,240.5 432.5,240.5C 433.229,245.13 433.563,249.797 433.5,254.5 Z"/></g>
<g><path style="opacity:1" fill="#275b8b" d="M 387.5,242.5 C 388.675,242.281 389.675,242.614 390.5,243.5C 391.695,245.751 392.695,248.085 393.5,250.5C 392.672,251.415 391.672,252.081 390.5,252.5C 387.823,249.488 386.823,246.154 387.5,242.5 Z"/></g>
<g><path style="opacity:1" fill="#225477" d="M 330.5,227.5 C 330.5,237.167 330.5,246.833 330.5,256.5C 329.167,256.5 327.833,256.5 326.5,256.5C 326.5,249.5 326.5,242.5 326.5,235.5C 327.167,242.012 327.833,248.679 328.5,255.5C 329.167,246.009 329.833,236.675 330.5,227.5 Z"/></g>
<g><path style="opacity:1" fill="#1e598e" d="M 377.5,237.5 C 388.167,237.5 398.833,237.5 409.5,237.5C 409.839,242.93 409.339,248.264 408,253.5C 404.162,255.507 399.995,256.507 395.5,256.5C 395.5,255.167 395.5,253.833 395.5,252.5C 398.838,252.935 401.838,252.268 404.5,250.5C 404.281,251.675 404.614,252.675 405.5,253.5C 408.134,248.871 409.134,243.871 408.5,238.5C 397.986,238.828 387.653,238.494 377.5,237.5 Z"/></g>
<g><path style="opacity:1" fill="#21588b" d="M 424.5,254.5 C 422.623,255.928 421.289,255.428 420.5,253C 421.726,249.598 422.393,246.098 422.5,242.5C 423.467,241.194 424.801,240.527 426.5,240.5C 426.154,245.216 425.487,249.883 424.5,254.5 Z"/></g>
<g><path style="opacity:1" fill="#edf8fb" d="M 520.5,228.5 C 521.919,229.451 523.585,229.784 525.5,229.5C 523.868,238.821 522.868,248.321 522.5,258C 509.212,258.427 496.046,258.593 483,258.5C 482.493,257.004 482.993,255.837 484.5,255C 482.566,253.271 482.566,251.271 484.5,249C 483.167,247.333 483.167,245.667 484.5,244C 483.833,241.333 483.167,238.667 482.5,236C 485.368,233.673 485.035,232.173 481.5,231.5C 480.571,230.311 480.238,228.978 480.5,227.5C 481.151,228.091 481.818,228.757 482.5,229.5C 487.461,227.624 492.461,225.957 497.5,224.5C 497.5,225.5 497.5,226.5 497.5,227.5C 498.5,227.5 499.5,227.5 500.5,227.5C 500.5,228.167 500.5,228.833 500.5,229.5C 500.672,230.492 500.338,231.158 499.5,231.5C 495.167,231.5 490.833,231.5 486.5,231.5C 486.174,239.684 486.508,247.684 487.5,255.5C 498.833,255.5 510.167,255.5 521.5,255.5C 522.492,247.684 522.826,239.684 522.5,231.5C 516.833,231.5 511.167,231.5 505.5,231.5C 505.5,231.167 505.5,230.833 505.5,230.5C 506.338,230.158 506.672,229.492 506.5,228.5C 511.028,227.433 515.362,225.767 519.5,223.5C 520.452,225.045 520.785,226.712 520.5,228.5 Z"/></g>
<g><path style="opacity:1" fill="#205a8f" d="M 499.5,232.5 C 496.038,233.482 492.371,233.815 488.5,233.5C 488.17,240.2 488.503,246.866 489.5,253.5C 490.484,250.572 490.817,247.572 490.5,244.5C 499.506,244.334 508.506,244.5 517.5,245C 518.125,247.8 518.792,250.634 519.5,253.5C 520.497,246.866 520.83,240.2 520.5,233.5C 515.305,233.821 510.305,233.487 505.5,232.5C 510.833,232.5 516.167,232.5 521.5,232.5C 521.5,240.167 521.5,247.833 521.5,255.5C 510.167,255.5 498.833,255.5 487.5,255.5C 487.5,247.833 487.5,240.167 487.5,232.5C 491.5,232.5 495.5,232.5 499.5,232.5 Z"/></g>
<g><path style="opacity:1" fill="#6c92ae" d="M 499.5,231.5 C 499.5,231.833 499.5,232.167 499.5,232.5C 495.5,232.5 491.5,232.5 487.5,232.5C 487.5,240.167 487.5,247.833 487.5,255.5C 486.508,247.684 486.174,239.684 486.5,231.5C 490.833,231.5 495.167,231.5 499.5,231.5 Z"/></g>
<g><path style="opacity:1" fill="#85a7c2" d="M 505.5,232.5 C 505.5,232.167 505.5,231.833 505.5,231.5C 511.167,231.5 516.833,231.5 522.5,231.5C 522.826,239.684 522.492,247.684 521.5,255.5C 521.5,247.833 521.5,240.167 521.5,232.5C 516.167,232.5 510.833,232.5 505.5,232.5 Z"/></g>
<g><path style="opacity:1" fill="#0b5697" d="M 505.5,230.5 C 505.5,230.833 505.5,231.167 505.5,231.5C 505.5,231.833 505.5,232.167 505.5,232.5C 510.305,233.487 515.305,233.821 520.5,233.5C 520.83,240.2 520.497,246.866 519.5,253.5C 518.792,250.634 518.125,247.8 517.5,245C 508.506,244.5 499.506,244.334 490.5,244.5C 490.817,247.572 490.484,250.572 489.5,253.5C 488.503,246.866 488.17,240.2 488.5,233.5C 492.371,233.815 496.038,233.482 499.5,232.5C 499.5,232.167 499.5,231.833 499.5,231.5C 500.338,231.158 500.672,230.492 500.5,229.5C 502.726,227.82 504.393,228.153 505.5,230.5 Z"/></g>
<g><path style="opacity:1" fill="#84adcc" d="M 516.5,246.5 C 517.451,247.919 517.784,249.585 517.5,251.5C 508.651,251.826 499.984,251.493 491.5,250.5C 499.833,250.5 508.167,250.5 516.5,250.5C 516.5,249.167 516.5,247.833 516.5,246.5 Z"/></g>
<g><path style="opacity:1" fill="#eaf8fe" d="M 516.5,246.5 C 516.5,247.833 516.5,249.167 516.5,250.5C 508.167,250.5 499.833,250.5 491.5,250.5C 491.5,249.167 491.5,247.833 491.5,246.5C 499.833,246.5 508.167,246.5 516.5,246.5 Z"/></g>
<g><path style="opacity:1" fill="#1a5588" d="M 490.5,235.5 C 499.833,235.5 509.167,235.5 518.5,235.5C 518.768,238.119 518.435,240.619 517.5,243C 508.506,243.5 499.506,243.666 490.5,243.5C 490.5,240.833 490.5,238.167 490.5,235.5 Z"/></g>
<g><path style="opacity:1" fill="#bddcf2" d="M 516.5,241.5 C 516.5,240.167 516.5,238.833 516.5,237.5C 508.5,237.5 500.5,237.5 492.5,237.5C 492.5,238.833 492.5,240.167 492.5,241.5C 491.549,240.081 491.216,238.415 491.5,236.5C 500.167,236.5 508.833,236.5 517.5,236.5C 517.784,238.415 517.451,240.081 516.5,241.5 Z"/></g>
<g><path style="opacity:1" fill="#f2fcfb" d="M 516.5,241.5 C 508.5,241.5 500.5,241.5 492.5,241.5C 492.5,240.167 492.5,238.833 492.5,237.5C 500.5,237.5 508.5,237.5 516.5,237.5C 516.5,238.833 516.5,240.167 516.5,241.5 Z"/></g>
<g><path style="opacity:1" fill="#20598b" d="M 87.5,360.5 C 89.8505,361.994 92.3505,363.327 95,364.5C 95.5,364.167 96,363.833 96.5,363.5C 95.8728,362.583 95.5394,361.583 95.5,360.5C 95.8333,360.5 96.1667,360.5 96.5,360.5C 98.8485,362.341 101.515,363.674 104.5,364.5C 106.562,365.776 108.896,366.61 111.5,367C 395.833,367.5 680.166,367.667 964.5,367.5C 964.389,368.117 964.056,368.617 963.5,369C 680.834,369.5 398.167,369.667 115.5,369.5C 113.738,369.643 112.071,369.309 110.5,368.5C 109.913,369.233 109.913,370.233 110.5,371.5C 110.5,371.833 110.5,372.167 110.5,372.5C 101.43,371.075 93.7632,367.075 87.5,360.5 Z"/></g>
<g><path style="opacity:1" fill="#ceeaf7" d="M 83.5,357.5 C 84.8333,358.5 86.1667,359.5 87.5,360.5C 93.7632,367.075 101.43,371.075 110.5,372.5C 396,373.666 681.666,373.833 967.5,373C 974.995,371.248 981.995,368.415 988.5,364.5C 987.385,366.455 986.052,368.288 984.5,370C 979.371,371.882 974.037,373.216 968.5,374C 680.499,374.833 392.499,374.667 104.5,373.5C 101.209,371.279 97.5426,370.113 93.5,370C 92.8333,368.667 92.1667,367.333 91.5,366C 86.698,365.26 84.0314,362.426 83.5,357.5 Z"/></g>
<g><path style="opacity:1" fill="#07569b" d="M 115.5,369.5 C 284.666,370.333 454,370.833 623.5,371C 452.5,371.5 281.5,371.667 110.5,371.5C 109.913,370.233 109.913,369.233 110.5,368.5C 112.071,369.309 113.738,369.643 115.5,369.5 Z"/></g>
<g><path style="opacity:1" fill="#ecfdfe" d="M 104.5,364.5 C 392.812,365.497 681.146,365.83 969.5,365.5C 967.833,366.167 966.167,366.833 964.5,367.5C 680.166,367.667 395.833,367.5 111.5,367C 108.896,366.61 106.562,365.776 104.5,364.5 Z"/></g>
</svg>
