<?xml version="1.0" encoding="UTF-8"?>
<!DOCTYPE svg PUBLIC "-//W3C//DTD SVG 1.1//EN" "http://www.w3.org/Graphics/SVG/1.1/DTD/svg11.dtd">
<svg xmlns="http://www.w3.org/2000/svg" version="1.1" width="1080px" height="399px" style="shape-rendering:geometricPrecision; text-rendering:geometricPrecision; image-rendering:optimizeQuality; fill-rule:evenodd; clip-rule:evenodd" xmlns:xlink="http://www.w3.org/1999/xlink">
<g><path style="opacity:1" fill="#fcf8f2" d="M -0.5,-0.5 C 359.5,-0.5 719.5,-0.5 1079.5,-0.5C 1079.5,132.5 1079.5,265.5 1079.5,398.5C 719.5,398.5 359.5,398.5 -0.5,398.5C -0.5,265.5 -0.5,132.5 -0.5,-0.5 Z"/></g>
<g><path style="opacity:1" fill="#d5e7f1" d="M 983.5,30.5 C 979.698,28.6005 975.698,27.2672 971.5,26.5C 971.167,26.5 970.833,26.5 970.5,26.5C 969.737,25.7321 968.737,25.2321 967.5,25C 681.5,24.3333 395.5,24.3333 109.5,25C 91.9539,29.0496 80.2873,39.5496 74.5,56.5C 73.8333,57.5 73.1667,58.5 72.5,59.5C 72.907,55.7422 72.907,52.0756 72.5,48.5C 73.3914,47.4104 74.3914,47.4104 75.5,48.5C 77.0054,44.6031 78.672,40.9365 80.5,37.5C 82.711,37.0332 84.711,36.0332 86.5,34.5C 86.2907,33.914 85.9574,33.414 85.5,33C 86.7932,32.51 88.1266,32.3433 89.5,32.5C 89.1854,30.7741 89.0187,29.1075 89,27.5C 91.2429,29.7868 93.7429,29.9535 96.5,28C 96.727,26.8647 97.0604,25.698 97.5,24.5C 98.7722,25.046 100.106,25.3793 101.5,25.5C 104.056,24.4756 106.723,23.6423 109.5,23C 398.097,22.5053 686.597,22.3387 975,22.5C 978.38,24.717 981.213,27.3837 983.5,30.5 Z"/></g>
<g><path style="opacity:1" fill="#17558a" d="M 970.5,26.5 C 683.166,26.1667 395.833,26.5 108.5,27.5C 109.689,28.4287 111.022,28.762 112.5,28.5C 112.167,29.1667 111.833,29.8333 111.5,30.5C 99.889,33.1375 90.889,39.4709 84.5,49.5C 82.1259,52.9492 80.1259,56.6159 78.5,60.5C 77.8333,61.1667 77.1667,61.8333 76.5,62.5C 76.8432,60.5168 76.1765,59.1834 74.5,58.5C 74.5,57.8333 74.5,57.1667 74.5,56.5C 80.2873,39.5496 91.9539,29.0496 109.5,25C 395.5,24.3333 681.5,24.3333 967.5,25C 968.737,25.2321 969.737,25.7321 970.5,26.5 Z"/></g>
<g><path style="opacity:1" fill="#095698" d="M 970.5,26.5 C 970.833,26.5 971.167,26.5 971.5,26.5C 972.261,27.3909 973.261,28.0576 974.5,28.5C 975.386,29.325 975.719,30.325 975.5,31.5C 974.167,31.5 972.833,31.5 971.5,31.5C 971.167,31.5 970.833,31.5 970.5,31.5C 969.158,30.207 967.491,29.3736 965.5,29C 681.167,28.5 396.834,28.3333 112.5,28.5C 111.022,28.762 109.689,28.4287 108.5,27.5C 395.833,26.5 683.166,26.1667 970.5,26.5 Z"/></g>
<g><path style="opacity:1" fill="#37668e" d="M 112.5,28.5 C 396.834,28.3333 681.167,28.5 965.5,29C 967.491,29.3736 969.158,30.207 970.5,31.5C 684.188,30.5031 397.854,30.1698 111.5,30.5C 111.833,29.8333 112.167,29.1667 112.5,28.5 Z"/></g>
<g><path style="opacity:1" fill="#fcf7f2" d="M 111.5,30.5 C 397.854,30.1698 684.188,30.5031 970.5,31.5C 970.833,31.5 971.167,31.5 971.5,31.5C 981.923,35.546 990.256,42.2127 996.5,51.5C 996.989,52.9952 997.655,54.3285 998.5,55.5C 998.5,56.1667 998.5,56.8333 998.5,57.5C 998.652,61.924 999.319,66.2574 1000.5,70.5C 999.883,70.3893 999.383,70.056 999,69.5C 998.333,155.833 998.333,242.167 999,328.5C 999.278,327.584 999.778,326.918 1000.5,326.5C 1000.5,327.5 1000.5,328.5 1000.5,329.5C 1000.5,330.833 1000.5,332.167 1000.5,333.5C 995.993,350.342 985.326,360.676 968.5,364.5C 681.833,364.667 395.166,364.5 108.5,364C 103.309,362.64 99.9757,359.473 98.5,354.5C 95.0369,353.901 91.7036,352.901 88.5,351.5C 87.2058,350.71 86.0391,349.71 85,348.5C 83.3924,344.944 81.5591,341.611 79.5,338.5C 79.5,338.167 79.5,337.833 79.5,337.5C 79.5,336.833 79.5,336.167 79.5,335.5C 80.7501,333.032 80.5834,330.699 79,328.5C 78.3333,240.833 78.3333,153.167 79,65.5C 79.6667,64.1667 80.6667,63.1667 82,62.5C 82.4512,58.0574 83.2846,53.7241 84.5,49.5C 90.889,39.4709 99.889,33.1375 111.5,30.5 Z"/></g>
<g><path style="opacity:1" fill="#fecbcf" d="M 797.5,54.5 C 801.707,54.1149 805.707,54.1149 809.5,54.5C 824.504,54.3334 839.504,54.5001 854.5,55C 895.055,95.8883 935.888,136.388 977,176.5C 977.833,202.173 977.666,227.84 976.5,253.5C 966.106,256.99 956.44,255.49 947.5,249C 936.629,236.965 925.296,225.298 913.5,214C 912.5,213.667 911.5,213.333 910.5,213C 870.713,173.884 831.879,134.384 794,94.5C 790.304,90.304 786.137,86.6374 781.5,83.5C 773.359,75.5389 770.025,65.8722 771.5,54.5C 780.39,54.3936 789.057,54.3936 797.5,54.5 Z"/></g>
<g><path style="opacity:1" fill="#da635d" d="M 809.5,54.5 C 810.458,55.9616 811.624,57.2949 813,58.5C 813.749,59.635 813.583,60.635 812.5,61.5C 810.167,59.8333 808.167,57.8333 806.5,55.5C 807.325,54.6143 808.325,54.281 809.5,54.5 Z"/></g>
<g><path style="opacity:1" fill="#0a5698" d="M 74.5,58.5 C 76.1765,59.1834 76.8432,60.5168 76.5,62.5C 76.3333,152.834 76.5,243.167 77,333.5C 77.1216,335.437 77.955,336.77 79.5,337.5C 79.5,337.833 79.5,338.167 79.5,338.5C 78.0646,339.096 76.398,339.096 74.5,338.5C 72.7345,335.877 72.0679,332.877 72.5,329.5C 72.3333,241.499 72.5,153.499 73,65.5C 73.4396,63.1341 73.9396,60.8008 74.5,58.5 Z"/></g>
<g><path style="opacity:1" fill="#d95c56" d="M 797.5,54.5 C 800.499,58.3316 803.999,61.6649 808,64.5C 808.563,65.7248 808.23,66.7248 807,67.5C 803.333,63.8333 799.667,60.1667 796,56.5C 795.472,55.184 795.972,54.5173 797.5,54.5 Z"/></g>
<g><path style="opacity:1" fill="#e8fbfe" d="M 72.5,59.5 C 71.1756,149.646 71.1756,239.646 72.5,329.5C 72.0679,332.877 72.7345,335.877 74.5,338.5C 74.6287,340.216 74.962,341.883 75.5,343.5C 74.5416,343.047 73.7083,342.381 73,341.5C 72.4888,339.122 71.8221,336.788 71,334.5C 70.3333,243.167 70.3333,151.833 71,60.5C 71.3826,59.944 71.8826,59.6107 72.5,59.5 Z"/></g>
<g><path style="opacity:1" fill="#1c527f" d="M 998.5,55.5 C 1000.28,56.5738 1001.45,58.2404 1002,60.5C 1002.5,150.166 1002.67,239.833 1002.5,329.5C 1002.77,331.38 1002.1,332.713 1000.5,333.5C 1000.5,332.167 1000.5,330.833 1000.5,329.5C 1001.67,241.001 1001.83,152.334 1001,63.5C 1000.43,61.2774 999.6,59.2774 998.5,57.5C 998.5,56.8333 998.5,56.1667 998.5,55.5 Z"/></g>
<g><path style="opacity:1" fill="#fdf8ef" d="M 1000.5,70.5 C 1000.5,155.833 1000.5,241.167 1000.5,326.5C 999.778,326.918 999.278,327.584 999,328.5C 998.333,242.167 998.333,155.833 999,69.5C 999.383,70.056 999.883,70.3893 1000.5,70.5 Z"/></g>
<g><path style="opacity:1" fill="#195381" d="M 78.5,60.5 C 77.341,150.139 77.1743,239.805 78,329.5C 78.1909,331.708 78.6909,333.708 79.5,335.5C 79.5,336.167 79.5,336.833 79.5,337.5C 77.955,336.77 77.1216,335.437 77,333.5C 76.5,243.167 76.3333,152.834 76.5,62.5C 77.1667,61.8333 77.8333,61.1667 78.5,60.5 Z"/></g>
<g><path style="opacity:1" fill="#e5fafd" d="M 84.5,49.5 C 83.2846,53.7241 82.4512,58.0574 82,62.5C 80.6667,63.1667 79.6667,64.1667 79,65.5C 78.3333,153.167 78.3333,240.833 79,328.5C 80.5834,330.699 80.7501,333.032 79.5,335.5C 78.6909,333.708 78.1909,331.708 78,329.5C 77.1743,239.805 77.341,150.139 78.5,60.5C 80.1259,56.6159 82.1259,52.9492 84.5,49.5 Z"/></g>
<g><path style="opacity:1" fill="#f3faf8" d="M 1006.5,59.5 C 1007.97,60.347 1008.8,61.6803 1009,63.5C 1009.83,154.169 1009.67,244.835 1008.5,335.5C 1007.07,337.22 1006.23,339.22 1006,341.5C 1005.29,342.381 1004.46,343.047 1003.5,343.5C 1004.66,339.844 1005.83,336.178 1007,332.5C 1007.82,241.479 1007.66,150.479 1006.5,59.5 Z"/></g>
<g><path style="opacity:1" fill="#1e537f" d="M 74.5,56.5 C 74.5,57.1667 74.5,57.8333 74.5,58.5C 73.9396,60.8008 73.4396,63.1341 73,65.5C 72.5,153.499 72.3333,241.499 72.5,329.5C 71.1756,239.646 71.1756,149.646 72.5,59.5C 73.1667,58.5 73.8333,57.5 74.5,56.5 Z"/></g>
<g><path style="opacity:1" fill="#e6fafd" d="M 998.5,57.5 C 999.6,59.2774 1000.43,61.2774 1001,63.5C 1001.83,152.334 1001.67,241.001 1000.5,329.5C 1000.5,328.5 1000.5,327.5 1000.5,326.5C 1000.5,241.167 1000.5,155.833 1000.5,70.5C 999.319,66.2574 998.652,61.924 998.5,57.5 Z"/></g>
<g><path style="opacity:1" fill="#145793" d="M 971.5,26.5 C 975.698,27.2672 979.698,28.6005 983.5,30.5C 994.495,37.4982 1002.16,47.1649 1006.5,59.5C 1007.66,150.479 1007.82,241.479 1007,332.5C 1005.83,336.178 1004.66,339.844 1003.5,343.5C 997.492,356.846 987.492,365.512 973.5,369.5C 975.647,367.53 977.98,365.697 980.5,364C 980,363.833 979.5,363.667 979,363.5C 975.124,365.608 970.957,366.941 966.5,367.5C 686.667,368.833 407,368.833 127.5,367.5C 406,367.833 684.334,367.5 962.5,366.5C 964.626,365.952 966.626,365.285 968.5,364.5C 985.326,360.676 995.993,350.342 1000.5,333.5C 1002.1,332.713 1002.77,331.38 1002.5,329.5C 1003.22,329.918 1003.72,330.584 1004,331.5C 1004.67,240.167 1004.67,148.833 1004,57.5C 1002.4,53.3206 1000.06,49.654 997,46.5C 996.506,48.1341 996.34,49.8008 996.5,51.5C 990.256,42.2127 981.923,35.546 971.5,31.5C 972.833,31.5 974.167,31.5 975.5,31.5C 975.719,30.325 975.386,29.325 974.5,28.5C 973.261,28.0576 972.261,27.3909 971.5,26.5 Z"/></g>
<g><path style="opacity:1" fill="#fdbec0" d="M 821.5,60.5 C 826.786,63.9361 830.286,68.6028 832,74.5C 834.035,76.2404 835.869,78.0738 837.5,80C 834.061,85.1101 830.228,89.9434 826,94.5C 824.092,97.2065 823.259,100.206 823.5,103.5C 822.817,100.453 821.817,97.4533 820.5,94.5C 821.858,95.6256 823.192,95.6256 824.5,94.5C 822.861,93.084 822.027,91.4174 822,89.5C 824.016,87.316 826.183,85.316 828.5,83.5C 829.5,84.1667 830.5,84.8333 831.5,85.5C 832.583,84.635 832.749,83.635 832,82.5C 830.316,80.6487 828.483,78.982 826.5,77.5C 825.758,79.1082 825.591,80.7749 826,82.5C 823.061,84.3963 820.561,86.7296 818.5,89.5C 816.833,88.5 815.5,87.1667 814.5,85.5C 816.167,83.5 817.833,81.5 819.5,79.5C 816.734,76.7186 813.734,74.3853 810.5,72.5C 812.279,71.3303 813.279,69.6636 813.5,67.5C 815.099,67.2322 816.432,67.5655 817.5,68.5C 818.833,68.5 819.5,67.8333 819.5,66.5C 818.903,66.2648 818.57,65.7648 818.5,65C 819.555,63.4928 820.555,61.9928 821.5,60.5 Z"/></g>
<g><path style="opacity:1" fill="#dd615a" d="M 817.5,68.5 C 819.477,70.8138 821.477,73.1472 823.5,75.5C 822.635,76.5827 821.635,76.7494 820.5,76C 818.443,74.2806 816.776,72.2806 815.5,70C 815.836,68.9701 816.503,68.4701 817.5,68.5 Z"/></g>
<g><path style="opacity:1" fill="#d85952" d="M 819.5,66.5 C 819.517,64.9719 820.184,64.4719 821.5,65C 823.684,67.0165 825.684,69.1831 827.5,71.5C 826.998,72.521 826.332,72.6877 825.5,72C 823.63,69.9604 821.63,68.1271 819.5,66.5 Z"/></g>
<g><path style="opacity:1" fill="#06579e" d="M 1002.5,329.5 C 1002.67,239.833 1002.5,150.166 1002,60.5C 1001.45,58.2404 1000.28,56.5738 998.5,55.5C 997.655,54.3285 996.989,52.9952 996.5,51.5C 996.34,49.8008 996.506,48.1341 997,46.5C 1000.06,49.654 1002.4,53.3206 1004,57.5C 1004.67,148.833 1004.67,240.167 1004,331.5C 1003.72,330.584 1003.22,329.918 1002.5,329.5 Z"/></g>
<g><path style="opacity:1" fill="#ffbbb9" d="M 846.5,76.5 C 846.975,79.0821 846.308,81.0821 844.5,82.5C 842.226,79.9645 842.893,77.9645 846.5,76.5 Z"/></g>
<g><path style="opacity:1" fill="#e07773" d="M 846.5,76.5 C 847.496,76.4142 848.329,76.7476 849,77.5C 849.495,79.4727 849.662,81.4727 849.5,83.5C 847.058,83.1192 846.391,83.7859 847.5,85.5C 845.506,88.0348 843.839,87.7015 842.5,84.5C 845.358,86.1241 846.025,85.4574 844.5,82.5C 846.308,81.0821 846.975,79.0821 846.5,76.5 Z"/></g>
<g><path style="opacity:1" fill="#e05a52" d="M 846.5,76.5 C 842.893,77.9645 842.226,79.9645 844.5,82.5C 846.025,85.4574 845.358,86.1241 842.5,84.5C 841.998,82.9153 840.998,82.4153 839.5,83C 834.386,88.1085 830.052,93.7751 826.5,100C 826.833,100.5 827.167,101 827.5,101.5C 828.833,100.5 830.167,99.5 831.5,98.5C 832.583,99.365 832.749,100.365 832,101.5C 829.594,104.311 826.761,104.977 823.5,103.5C 823.259,100.206 824.092,97.2065 826,94.5C 830.228,89.9434 834.061,85.1101 837.5,80C 835.869,78.0738 834.035,76.2404 832,74.5C 830.286,68.6028 826.786,63.9361 821.5,60.5C 821.47,59.5028 821.97,58.8361 823,58.5C 824.944,59.4394 826.611,60.7727 828,62.5C 828.9,60.6025 830.066,58.9358 831.5,57.5C 832.643,59.9593 832.31,62.2927 830.5,64.5C 831.5,65.8333 832.5,67.1667 833.5,68.5C 833.291,69.086 832.957,69.586 832.5,70C 834.36,73.3603 837.027,75.8603 840.5,77.5C 841.941,76.1349 843.274,74.6349 844.5,73C 845.448,72.5172 846.448,72.3505 847.5,72.5C 847.567,73.9587 847.234,75.2921 846.5,76.5 Z"/></g>
<g><path style="opacity:1" fill="#e05b53" d="M 810.5,72.5 C 813.734,74.3853 816.734,76.7186 819.5,79.5C 817.833,81.5 816.167,83.5 814.5,85.5C 815.5,87.1667 816.833,88.5 818.5,89.5C 820.561,86.7296 823.061,84.3963 826,82.5C 825.591,80.7749 825.758,79.1082 826.5,77.5C 828.483,78.982 830.316,80.6487 832,82.5C 832.749,83.635 832.583,84.635 831.5,85.5C 830.5,84.8333 829.5,84.1667 828.5,83.5C 826.183,85.316 824.016,87.316 822,89.5C 822.027,91.4174 822.861,93.084 824.5,94.5C 823.192,95.6256 821.858,95.6256 820.5,94.5C 816.934,92.8071 814.434,90.1404 813,86.5C 811.951,87.5171 810.784,87.6838 809.5,87C 807.316,84.9835 805.316,82.8169 803.5,80.5C 805.856,77.8136 808.189,75.147 810.5,72.5 Z"/></g>
<g><path style="opacity:1" fill="#febebf" d="M 810.5,76.5 C 817.086,78.6294 817.086,80.9628 810.5,83.5C 808.734,83.5658 807.734,82.7324 807.5,81C 808.315,79.3566 809.315,77.8566 810.5,76.5 Z"/></g>
<g><path style="opacity:1" fill="#f8a4a1" d="M 842.5,99.5 C 844.51,102.694 846.843,105.694 849.5,108.5C 846.025,114.156 844.858,113.823 846,107.5C 844.139,110.569 842.306,113.569 840.5,116.5C 839.186,115.687 838.019,114.687 837,113.5C 836.617,114.056 836.117,114.389 835.5,114.5C 835.5,113.5 835.5,112.5 835.5,111.5C 836.239,111.631 836.906,111.464 837.5,111C 839.046,108.743 840.712,106.576 842.5,104.5C 841.412,103.066 840.078,102.066 838.5,101.5C 839.671,100.655 841.005,99.9887 842.5,99.5 Z"/></g>
<g><path style="opacity:1" fill="#df6058" d="M 870.5,101.5 C 872.167,101.5 873.833,101.5 875.5,101.5C 874.693,107.464 874.36,113.464 874.5,119.5C 873.209,119.737 872.209,119.404 871.5,118.5C 871.5,116.833 871.5,115.167 871.5,113.5C 867.167,112.5 864.5,109.833 863.5,105.5C 861.833,105.5 860.167,105.5 858.5,105.5C 858.5,104.5 858.5,103.5 858.5,102.5C 862.702,102.817 866.702,102.483 870.5,101.5 Z"/></g>
<g><path style="opacity:1" fill="#da6762" d="M 838.5,101.5 C 840.078,102.066 841.412,103.066 842.5,104.5C 840.712,106.576 839.046,108.743 837.5,111C 836.906,111.464 836.239,111.631 835.5,111.5C 836.389,109.264 837.722,107.264 839.5,105.5C 839.167,105.167 838.833,104.833 838.5,104.5C 836.476,106.358 834.309,108.025 832,109.5C 831.833,109 831.667,108.5 831.5,108C 833.639,105.697 835.972,103.53 838.5,101.5 Z"/></g>
<g><path style="opacity:1" fill="#fdbbbb" d="M 870.5,104.5 C 871.497,104.47 872.164,104.97 872.5,106C 872.062,107.92 871.395,109.754 870.5,111.5C 869.167,109.833 867.833,108.167 866.5,106.5C 867.949,105.828 869.282,105.161 870.5,104.5 Z"/></g>
<g><path style="opacity:1" fill="#fcb5b4" d="M 865.5,95.5 C 866.534,97.817 865.534,98.817 862.5,98.5C 862.5,99.5 862.5,100.5 862.5,101.5C 865.167,101.5 867.833,101.5 870.5,101.5C 866.702,102.483 862.702,102.817 858.5,102.5C 858.5,103.5 858.5,104.5 858.5,105.5C 860.167,105.5 861.833,105.5 863.5,105.5C 864.5,109.833 867.167,112.5 871.5,113.5C 871.5,115.167 871.5,116.833 871.5,118.5C 870.9,119.9 869.9,120.9 868.5,121.5C 869.935,118.053 868.768,115.72 865,114.5C 861.645,116.355 859.145,119.022 857.5,122.5C 856.15,123.95 854.484,124.617 852.5,124.5C 851.115,119.187 853.115,116.687 858.5,117C 864.151,112.311 863.485,109.311 856.5,108C 853.156,109.894 851.822,112.727 852.5,116.5C 849.575,117.639 846.575,118.139 843.5,118C 846.333,115.167 849.167,112.333 852,109.5C 852.116,107.345 851.783,105.345 851,103.5C 852.68,102.397 854.18,102.73 855.5,104.5C 855.567,102.576 855.9,100.576 856.5,98.5C 860.841,101.391 861.841,100.724 859.5,96.5C 859.808,95.6919 860.308,95.0253 861,94.5C 862.506,96.0653 864.006,96.3986 865.5,95.5 Z"/></g>
<g><path style="opacity:1" fill="#e16059" d="M 865.5,95.5 C 864.006,96.3986 862.506,96.0653 861,94.5C 860.308,95.0253 859.808,95.6919 859.5,96.5C 861.841,100.724 860.841,101.391 856.5,98.5C 855.9,100.576 855.567,102.576 855.5,104.5C 854.18,102.73 852.68,102.397 851,103.5C 851.783,105.345 852.116,107.345 852,109.5C 849.167,112.333 846.333,115.167 843.5,118C 846.575,118.139 849.575,117.639 852.5,116.5C 851.822,112.727 853.156,109.894 856.5,108C 863.485,109.311 864.151,112.311 858.5,117C 853.115,116.687 851.115,119.187 852.5,124.5C 854.484,124.617 856.15,123.95 857.5,122.5C 859.145,119.022 861.645,116.355 865,114.5C 868.768,115.72 869.935,118.053 868.5,121.5C 867.038,122.458 865.705,123.624 864.5,125C 863.328,125.353 862.162,125.187 861,124.5C 859.699,124.639 858.866,125.305 858.5,126.5C 857.834,129.028 857.168,131.694 856.5,134.5C 855.571,133.311 855.238,131.978 855.5,130.5C 855.5,129.5 855.5,128.5 855.5,127.5C 852.545,128.159 849.545,128.492 846.5,128.5C 846.5,127.5 846.5,126.5 846.5,125.5C 847.5,125.5 848.5,125.5 849.5,125.5C 849.785,123.712 849.452,122.045 848.5,120.5C 845.834,121.738 843.168,121.738 840.5,120.5C 838.093,119.095 836.426,117.095 835.5,114.5C 836.117,114.389 836.617,114.056 837,113.5C 838.019,114.687 839.186,115.687 840.5,116.5C 842.306,113.569 844.139,110.569 846,107.5C 844.858,113.823 846.025,114.156 849.5,108.5C 846.843,105.694 844.51,102.694 842.5,99.5C 846.483,94.6848 850.983,90.3514 856,86.5C 859.655,88.9885 862.822,91.9885 865.5,95.5 Z"/></g>
<g><path style="opacity:1" fill="#fdbdbc" d="M 856.5,110.5 C 857.756,110.461 858.756,110.961 859.5,112C 858.692,113.706 857.359,114.539 855.5,114.5C 855.433,113.041 855.766,111.708 856.5,110.5 Z"/></g>
<g><path style="opacity:1" fill="#fdb4b4" d="M 846.5,98.5 C 849.166,98.0658 850.333,99.0658 850,101.5C 847.342,102.694 846.176,101.694 846.5,98.5 Z"/></g>
<g><path style="opacity:1" fill="#feb1af" d="M 850.5,94.5 C 853.166,94.0658 854.333,95.0658 854,97.5C 851.342,98.694 850.176,97.694 850.5,94.5 Z"/></g>
<g><path style="opacity:1" fill="#feb4b1" d="M 854.5,90.5 C 856.346,90.2222 857.68,90.8888 858.5,92.5C 857.311,93.4287 855.978,93.762 854.5,93.5C 854.5,92.5 854.5,91.5 854.5,90.5 Z"/></g>
<g><path style="opacity:1" fill="#febbbc" d="M 863.5,117.5 C 866.173,117.684 866.84,118.851 865.5,121C 861.447,121.468 860.78,120.302 863.5,117.5 Z"/></g>
<g><path style="opacity:1" fill="#cde1ec" d="M 184.5,134.5 C 174.811,124.266 162.811,119.933 148.5,121.5C 151.087,120.184 154.087,119.517 157.5,119.5C 160.5,119.667 163.5,119.833 166.5,120C 169.84,122.5 173.506,124.333 177.5,125.5C 179.19,128.024 181.357,130.024 184,131.5C 184.483,132.448 184.649,133.448 184.5,134.5 Z"/></g>
<g><path style="opacity:1" fill="#df615b" d="M 883.5,119.5 C 880.146,124.021 875.813,127.354 870.5,129.5C 870.238,128.022 870.571,126.689 871.5,125.5C 874.64,123.527 877.64,121.36 880.5,119C 881.749,118.26 882.749,118.427 883.5,119.5 Z"/></g>
<g><path style="opacity:1" fill="#fcb1b0" d="M 883.5,119.5 C 884.167,119.833 884.833,120.167 885.5,120.5C 881.833,124.833 877.833,128.833 873.5,132.5C 872.9,131.1 871.9,130.1 870.5,129.5C 875.813,127.354 880.146,124.021 883.5,119.5 Z"/></g>
<g><path style="opacity:1" fill="#f7a3a1" d="M 858.5,126.5 C 858.5,129.5 858.5,132.5 858.5,135.5C 857.167,135.5 855.833,135.5 854.5,135.5C 854.216,133.585 854.549,131.919 855.5,130.5C 855.238,131.978 855.571,133.311 856.5,134.5C 857.168,131.694 857.834,129.028 858.5,126.5 Z"/></g>
<g><path style="opacity:1" fill="#e25951" d="M 873.5,132.5 C 877.833,128.833 881.833,124.833 885.5,120.5C 886.837,119.685 887.837,118.518 888.5,117C 889.448,116.517 890.448,116.351 891.5,116.5C 891.067,119.285 889.734,121.619 887.5,123.5C 888.041,125.535 888.708,127.535 889.5,129.5C 891.5,128.167 893.5,126.833 895.5,125.5C 895.833,126 896.167,126.5 896.5,127C 895.711,128.626 894.711,130.126 893.5,131.5C 894.212,133.046 895.378,134.046 897,134.5C 898.478,133.022 899.978,131.522 901.5,130C 903.667,129.5 904.5,130.333 904,132.5C 902.315,134.017 900.815,135.684 899.5,137.5C 901.5,139.833 903.5,142.167 905.5,144.5C 904.635,145.583 903.635,145.749 902.5,145C 898.515,138.943 894.849,139.11 891.5,145.5C 892.048,147.556 893.214,149.223 895,150.5C 895.749,151.635 895.583,152.635 894.5,153.5C 892.5,151.833 890.5,150.167 888.5,148.5C 881.374,151.963 880.874,155.963 887,160.5C 887.483,161.448 887.649,162.448 887.5,163.5C 881.052,159.577 875.218,154.577 870,148.5C 869.517,147.552 869.351,146.552 869.5,145.5C 872.991,147.185 876.158,149.519 879,152.5C 881.378,150.291 883.545,147.958 885.5,145.5C 884.214,143.71 882.714,142.043 881,140.5C 880.251,139.365 880.417,138.365 881.5,137.5C 883.833,139.5 886.167,141.5 888.5,143.5C 890.167,141.5 891.833,139.5 893.5,137.5C 893.471,135.971 892.804,134.804 891.5,134C 888.924,133.394 886.59,133.894 884.5,135.5C 882.188,134.313 882.354,132.98 885,131.5C 885.808,129.421 885.641,127.421 884.5,125.5C 878.167,132.5 871.5,139.167 864.5,145.5C 863.386,144.277 863.219,142.944 864,141.5C 867.365,138.633 870.531,135.633 873.5,132.5 Z"/></g>
<g><path style="opacity:1" fill="#a5c2d5" d="M 319.5,149.5 C 314.489,149.334 309.489,149.501 304.5,150C 305.056,150.383 305.389,150.883 305.5,151.5C 303.952,151.179 303.285,150.179 303.5,148.5C 309.026,148.179 314.36,148.512 319.5,149.5 Z"/></g>
<g><path style="opacity:1" fill="#a7c3d7" d="M 655.5,149.5 C 650.489,149.334 645.489,149.501 640.5,150C 641.056,150.383 641.389,150.883 641.5,151.5C 639.952,151.179 639.285,150.179 639.5,148.5C 645.026,148.179 650.36,148.512 655.5,149.5 Z"/></g>
<g><path style="opacity:1" fill="#aecde1" d="M 249.5,151.5 C 243.464,151.36 237.464,151.693 231.5,152.5C 234.695,150.97 238.195,150.304 242,150.5C 244.69,150.503 247.19,150.836 249.5,151.5 Z"/></g>
<g><path style="opacity:1" fill="#3a638a" d="M 496.5,147.5 C 497.833,147.5 499.167,147.5 500.5,147.5C 500.5,149.167 500.5,150.833 500.5,152.5C 499.167,152.5 497.833,152.5 496.5,152.5C 496.5,150.833 496.5,149.167 496.5,147.5 Z"/></g>
<g><path style="opacity:1" fill="#436b93" d="M 760.5,147.5 C 764.161,147.35 765.161,148.85 763.5,152C 759.707,152.487 758.707,150.987 760.5,147.5 Z"/></g>
<g><path style="opacity:1" fill="#e0ebf1" d="M 745.5,151.5 C 746.404,152.209 746.737,153.209 746.5,154.5C 752.678,153.772 758.844,154.105 765,155.5C 765.037,162.668 765.704,169.668 767,176.5C 769.333,175.5 771,173.833 772,171.5C 772.115,166.609 772.948,161.943 774.5,157.5C 775.5,157.5 776.5,157.5 777.5,157.5C 772.966,162.974 772.299,168.974 775.5,175.5C 772.58,176.442 769.914,177.776 767.5,179.5C 766.554,178.069 765.388,176.736 764,175.5C 763.5,169.175 763.334,162.842 763.5,156.5C 761.076,156.192 758.743,156.526 756.5,157.5C 757.628,158.262 758.795,158.929 760,159.5C 760.667,165.167 760.667,170.833 760,176.5C 758.989,177.337 757.822,177.67 756.5,177.5C 758.55,171.785 759.05,165.785 758,159.5C 756.971,162.875 754.804,164.042 751.5,163C 752.91,162.632 753.91,161.799 754.5,160.5C 751.833,159.167 749.167,159.167 746.5,160.5C 747.116,165.151 747.782,169.818 748.5,174.5C 749.739,174.942 750.739,175.609 751.5,176.5C 749.533,176.739 747.699,176.406 746,175.5C 745.501,169.843 745.334,164.176 745.5,158.5C 752.167,157.833 752.167,157.167 745.5,156.5C 745.5,154.833 745.5,153.167 745.5,151.5 Z"/></g>
<g><path style="opacity:1" fill="#316393" d="M 319.5,149.5 C 325.521,152.503 327.021,157.17 324,163.5C 320.408,166.53 316.242,167.864 311.5,167.5C 311.5,166.833 311.5,166.167 311.5,165.5C 310.834,160.651 310.167,155.651 309.5,150.5C 308.833,158.99 308.167,167.324 307.5,175.5C 308.134,167.097 307.467,159.097 305.5,151.5C 305.389,150.883 305.056,150.383 304.5,150C 309.489,149.501 314.489,149.334 319.5,149.5 Z"/></g>
<g><path style="opacity:1" fill="#f2f6f5" d="M 312.5,151.5 C 319.327,150.825 322.16,153.825 321,160.5C 320.34,162.324 319.173,163.657 317.5,164.5C 315.833,164.5 314.167,164.5 312.5,164.5C 312.5,160.167 312.5,155.833 312.5,151.5 Z"/></g>
<g><path style="opacity:1" fill="#95b6cc" d="M 541.5,151.5 C 542.434,152.568 542.768,153.901 542.5,155.5C 544.167,155.5 545.833,155.5 547.5,155.5C 547.5,155.833 547.5,156.167 547.5,156.5C 545.5,156.5 543.5,156.5 541.5,156.5C 541.5,154.833 541.5,153.167 541.5,151.5 Z"/></g>
<g><path style="opacity:1" fill="#e7eef2" d="M 374.5,162.5 C 370.522,156.679 365.189,155.179 358.5,158C 357.299,158.903 356.465,160.069 356,161.5C 355.238,165.587 355.404,169.587 356.5,173.5C 357.415,175.754 358.748,177.754 360.5,179.5C 358.914,178.587 357.414,178.587 356,179.5C 355.206,176.529 354.539,173.529 354,170.5C 352.989,169.663 351.822,169.33 350.5,169.5C 350.5,167.167 350.5,164.833 350.5,162.5C 348.533,162.261 346.699,162.594 345,163.5C 344.51,162.207 344.343,160.873 344.5,159.5C 345.467,160.806 346.801,161.473 348.5,161.5C 348.532,156.787 346.199,155.287 341.5,157C 340.299,157.903 339.465,159.069 339,160.5C 338.51,159.207 338.343,157.873 338.5,156.5C 336.167,156.5 333.833,156.5 331.5,156.5C 332.152,155.275 333.319,154.608 335,154.5C 338.333,155.833 341.667,155.833 345,154.5C 348.198,155.522 350.698,157.522 352.5,160.5C 353.424,158.61 354.757,157.11 356.5,156C 361.833,155.333 367.167,155.333 372.5,156C 373.669,158.007 374.335,160.173 374.5,162.5 Z"/></g>
<g><path style="opacity:1" fill="#3a6690" d="M 745.5,151.5 C 745.5,153.167 745.5,154.833 745.5,156.5C 752.167,157.167 752.167,157.833 745.5,158.5C 745.334,164.176 745.501,169.843 746,175.5C 747.699,176.406 749.533,176.739 751.5,176.5C 751.315,178.89 749.982,179.89 747.5,179.5C 745.626,179.61 744.126,178.944 743,177.5C 741.584,171.285 741.084,164.952 741.5,158.5C 740.325,158.719 739.325,158.386 738.5,157.5C 741.272,155.886 743.606,153.886 745.5,151.5 Z"/></g>
<g><path style="opacity:1" fill="#0b5696" d="M 742.5,156.5 C 743.818,159.258 744.485,162.424 744.5,166C 744.333,169.167 744.167,172.333 744,175.5C 742.584,169.285 742.084,162.952 742.5,156.5 Z"/></g>
<g><path style="opacity:1" fill="#105592" d="M 311.5,165.5 C 311.5,166.167 311.5,166.833 311.5,167.5C 311.335,170.518 311.502,173.518 312,176.5C 312.383,177.056 312.883,177.389 313.5,177.5C 310.696,178.638 307.696,178.805 304.5,178C 305.416,177.722 306.082,177.222 306.5,176.5C 307.167,176.5 307.5,176.167 307.5,175.5C 308.167,167.324 308.833,158.99 309.5,150.5C 310.167,155.651 310.834,160.651 311.5,165.5 Z"/></g>
<g><path style="opacity:1" fill="#105592" d="M 647.5,165.5 C 647.5,166.167 647.5,166.833 647.5,167.5C 647.335,170.518 647.502,173.518 648,176.5C 648.383,177.056 648.883,177.389 649.5,177.5C 646.696,178.638 643.696,178.805 640.5,178C 641.416,177.722 642.082,177.222 642.5,176.5C 643.167,176.5 643.5,176.167 643.5,175.5C 644.167,167.324 644.833,158.99 645.5,150.5C 646.167,155.651 646.834,160.651 647.5,165.5 Z"/></g>
<g><path style="opacity:1" fill="#326f9f" d="M 249.5,151.5 C 258.467,153.571 266.3,157.904 273,164.5C 278.95,178.318 275.45,189.151 262.5,197C 254.958,200.737 246.958,202.404 238.5,202C 235.971,204.029 233.304,205.862 230.5,207.5C 228.857,204.692 227.357,201.692 226,198.5C 211.716,190.63 207.716,179.297 214,164.5C 218.843,158.846 224.676,154.846 231.5,152.5C 237.464,151.693 243.464,151.36 249.5,151.5 Z"/></g>
<g><path style="opacity:1" fill="#f7f6f2" d="M 249.5,155.5 C 256.138,156.321 261.804,158.988 266.5,163.5C 268.015,167.53 269.348,171.697 270.5,176C 269.006,178.639 268.339,181.472 268.5,184.5C 265.477,184.105 264.477,185.105 265.5,187.5C 257.233,194.566 247.566,197.566 236.5,196.5C 235.264,197.357 233.931,198.023 232.5,198.5C 231.859,197.007 230.859,196.007 229.5,195.5C 220.546,192.213 215.212,185.879 213.5,176.5C 214.382,168.62 218.382,162.954 225.5,159.5C 233.304,157.088 241.304,155.755 249.5,155.5 Z"/></g>
<g><path style="opacity:1" fill="#c7dfed" d="M 249.5,155.5 C 241.304,155.755 233.304,157.088 225.5,159.5C 225.611,158.883 225.944,158.383 226.5,158C 234.064,154.692 241.731,153.859 249.5,155.5 Z"/></g>
<g><path style="opacity:1" fill="#f2f5f5" d="M 427.5,179.5 C 429.924,179.808 432.257,179.474 434.5,178.5C 434.043,177.702 433.376,177.369 432.5,177.5C 431.509,170.687 431.175,163.687 431.5,156.5C 428.753,156.187 426.086,156.52 423.5,157.5C 424.628,158.262 425.795,158.929 427,159.5C 427.667,163.833 427.667,168.167 427,172.5C 425.666,176.104 423.166,177.271 419.5,176C 418.874,175.25 418.374,174.416 418,173.5C 417.501,167.843 417.334,162.176 417.5,156.5C 415.076,156.192 412.743,156.526 410.5,157.5C 411.325,158.386 412.325,158.719 413.5,158.5C 413.021,165.02 413.688,171.353 415.5,177.5C 414.25,177.423 413.417,176.756 413,175.5C 412.891,170.386 412.224,165.386 411,160.5C 410.727,164.817 410.06,169.15 409,173.5C 408.631,165.547 408.465,157.714 408.5,150C 409.5,149.333 410.5,149.333 411.5,150C 413.377,152.106 415.71,153.439 418.5,154C 419.684,161.203 420.684,161.037 421.5,153.5C 424.909,153.751 428.242,153.417 431.5,152.5C 433.061,155.138 434.728,157.638 436.5,160C 436.32,162.241 435.487,162.741 434,161.5C 433.833,163.833 433.667,166.167 433.5,168.5C 433.749,172.554 434.582,176.22 436,179.5C 433.063,180.817 430.23,180.817 427.5,179.5 Z"/></g>
<g><path style="opacity:1" fill="#235888" d="M 502.5,177.5 C 499.696,178.638 496.696,178.805 493.5,178C 494.416,177.722 495.082,177.222 495.5,176.5C 496.49,170.69 496.823,164.69 496.5,158.5C 495.325,158.719 494.325,158.386 493.5,157.5C 495.743,156.526 498.076,156.192 500.5,156.5C 500.334,163.175 500.5,169.842 501,176.5C 501.383,177.056 501.883,177.389 502.5,177.5 Z"/></g>
<g><path style="opacity:1" fill="#f2f7f7" d="M 564.5,177.5 C 563.833,177.5 563.167,177.5 562.5,177.5C 561.883,177.389 561.383,177.056 561,176.5C 560.5,169.842 560.334,163.175 560.5,156.5C 558.076,156.192 555.743,156.526 553.5,157.5C 554.325,158.386 555.325,158.719 556.5,158.5C 556.823,164.69 556.49,170.69 555.5,176.5C 554.5,176.5 553.5,176.5 552.5,176.5C 552.5,177.5 552.5,178.5 552.5,179.5C 556.5,179.5 560.5,179.5 564.5,179.5C 557.868,180.219 551.202,180.552 544.5,180.5C 542.36,180.444 540.694,179.777 539.5,178.5C 542.054,179.388 544.721,179.721 547.5,179.5C 547.5,178.5 547.5,177.5 547.5,176.5C 545.219,176.923 543.552,176.256 542.5,174.5C 542.5,169.5 542.5,164.5 542.5,159.5C 544.415,159.784 546.081,159.451 547.5,158.5C 547.5,157.833 547.5,157.167 547.5,156.5C 547.5,156.167 547.5,155.833 547.5,155.5C 548.613,156.946 548.78,158.613 548,160.5C 543.766,162.54 543.599,164.707 547.5,167C 543.028,170.695 543.694,172.528 549.5,172.5C 549.408,177.227 550.742,177.394 553.5,173C 553.18,171.347 552.18,170.347 550.5,170C 551.448,169.517 552.448,169.351 553.5,169.5C 553.671,165.361 553.004,161.361 551.5,157.5C 552.581,155.789 553.915,154.289 555.5,153C 553.416,147.673 555.249,144.839 561,144.5C 562.236,145.399 563.07,146.566 563.5,148C 563.122,154.047 562.789,160.213 562.5,166.5C 562.58,170.427 563.247,174.093 564.5,177.5 Z"/></g>
<g><path style="opacity:1" fill="#386188" d="M 556.5,147.5 C 557.833,147.5 559.167,147.5 560.5,147.5C 561.244,150.95 559.91,152.616 556.5,152.5C 556.5,150.833 556.5,149.167 556.5,147.5 Z"/></g>
<g><path style="opacity:1" fill="#f3f6f5" d="M 369.5,174.5 C 366.904,176.626 364.071,176.959 361,175.5C 359.646,171.637 359.146,167.637 359.5,163.5C 360.24,158.849 362.906,157.349 367.5,159C 369.888,161.306 370.888,164.139 370.5,167.5C 370.363,169.883 370.029,172.217 369.5,174.5 Z"/></g>
<g><path style="opacity:1" fill="#b1d1ed" d="M 535.5,158.5 C 536.5,158.5 537.5,158.5 538.5,158.5C 538.5,163.833 538.5,169.167 538.5,174.5C 538.064,169.061 537.064,163.728 535.5,158.5 Z"/></g>
<g><path style="opacity:1" fill="#8baeca" d="M 547.5,158.5 C 546.081,159.451 544.415,159.784 542.5,159.5C 542.5,164.5 542.5,169.5 542.5,174.5C 541.512,169.36 541.179,164.026 541.5,158.5C 543.5,158.5 545.5,158.5 547.5,158.5 Z"/></g>
<g><path style="opacity:1" fill="#eff4f5" d="M 616.5,159.5 C 615.395,158.4 614.062,157.733 612.5,157.5C 609.345,156.035 606.511,156.701 604,159.5C 603.517,158.552 603.351,157.552 603.5,156.5C 601.076,156.192 598.743,156.526 596.5,157.5C 597.325,158.386 598.325,158.719 599.5,158.5C 599.5,159.167 599.5,159.833 599.5,160.5C 599.666,165.844 599.499,171.177 599,176.5C 598.075,177.047 597.242,177.713 596.5,178.5C 599.833,179.833 603.167,179.833 606.5,178.5C 605.758,177.713 604.925,177.047 604,176.5C 603.333,171.5 603.333,166.5 604,161.5C 606.135,159.722 608.635,159.055 611.5,159.5C 611.833,160.167 612.167,160.833 612.5,161.5C 612.5,167.167 612.5,172.833 612.5,178.5C 611.673,173.015 611.173,167.348 611,161.5C 610.779,164.943 609.779,165.276 608,162.5C 607.501,168.491 607.334,174.491 607.5,180.5C 603.233,180.797 599.066,180.464 595,179.5C 594.667,171.833 594.333,164.167 594,156.5C 593.626,155.584 593.126,154.75 592.5,154C 599.528,153.502 606.528,153.835 613.5,155C 615.439,155.908 616.439,157.408 616.5,159.5 Z"/></g>
<g><path style="opacity:1" fill="#0c5696" d="M 599.5,160.5 C 599.5,159.833 599.5,159.167 599.5,158.5C 600.209,157.596 601.209,157.263 602.5,157.5C 602.83,164.2 602.497,170.866 601.5,177.5C 600.833,171.681 600.167,166.014 599.5,160.5 Z"/></g>
<g><path style="opacity:1" fill="#346492" d="M 655.5,149.5 C 661.521,152.503 663.021,157.17 660,163.5C 656.408,166.53 652.242,167.864 647.5,167.5C 647.5,166.833 647.5,166.167 647.5,165.5C 646.834,160.651 646.167,155.651 645.5,150.5C 644.833,158.99 644.167,167.324 643.5,175.5C 644.134,167.097 643.467,159.097 641.5,151.5C 641.389,150.883 641.056,150.383 640.5,150C 645.489,149.501 650.489,149.334 655.5,149.5 Z"/></g>
<g><path style="opacity:1" fill="#f2f6f5" d="M 648.5,151.5 C 655.327,150.825 658.16,153.825 657,160.5C 656.34,162.324 655.173,163.657 653.5,164.5C 651.833,164.5 650.167,164.5 648.5,164.5C 648.5,160.167 648.5,155.833 648.5,151.5 Z"/></g>
<g><path style="opacity:1" fill="#2f6191" d="M 331.5,156.5 C 333.833,156.5 336.167,156.5 338.5,156.5C 338.343,157.873 338.51,159.207 339,160.5C 339.465,159.069 340.299,157.903 341.5,157C 346.199,155.287 348.532,156.787 348.5,161.5C 346.801,161.473 345.467,160.806 344.5,159.5C 342.61,159.297 341.11,159.963 340,161.5C 339.833,164.167 339.667,166.833 339.5,169.5C 339.522,172.59 340.188,175.257 341.5,177.5C 338.696,178.638 335.696,178.805 332.5,178C 333.416,177.722 334.082,177.222 334.5,176.5C 335.618,170.916 335.785,165.249 335,159.5C 333.271,159.026 332.105,158.026 331.5,156.5 Z"/></g>
<g><path style="opacity:1" fill="#255a8a" d="M 582.5,178.5 C 581.127,178.657 579.793,178.49 578.5,178C 580.058,177.79 581.391,177.29 582.5,176.5C 583.966,175.653 584.8,174.32 585,172.5C 585.667,168.833 585.667,165.167 585,161.5C 581.492,157.564 578.159,157.564 575,161.5C 574.333,165.167 574.333,168.833 575,172.5C 575.2,174.32 576.034,175.653 577.5,176.5C 576.791,177.404 575.791,177.737 574.5,177.5C 570.911,173.566 569.745,168.899 571,163.5C 573.649,156.452 578.483,154.619 585.5,158C 590.48,163.976 590.814,170.31 586.5,177C 585.255,177.791 583.922,178.291 582.5,178.5 Z"/></g>
<g><path style="opacity:1" fill="#f2f5f5" d="M 582.5,176.5 C 580.833,176.5 579.167,176.5 577.5,176.5C 576.034,175.653 575.2,174.32 575,172.5C 574.333,168.833 574.333,165.167 575,161.5C 578.159,157.564 581.492,157.564 585,161.5C 585.667,165.167 585.667,168.833 585,172.5C 584.8,174.32 583.966,175.653 582.5,176.5 Z"/></g>
<g><path style="opacity:1" fill="#2f6191" d="M 667.5,156.5 C 669.833,156.5 672.167,156.5 674.5,156.5C 674.343,157.873 674.51,159.207 675,160.5C 676.691,156.787 679.525,155.621 683.5,157C 684.38,158.356 684.714,159.856 684.5,161.5C 676.832,158.147 673.832,160.814 675.5,169.5C 675.522,172.59 676.188,175.257 677.5,177.5C 674.696,178.638 671.696,178.805 668.5,178C 669.416,177.722 670.082,177.222 670.5,176.5C 671.618,170.916 671.785,165.249 671,159.5C 669.271,159.026 668.105,158.026 667.5,156.5 Z"/></g>
<g><path style="opacity:1" fill="#e2eef5" d="M 721.5,179.5 C 723.857,179.663 726.19,179.497 728.5,179C 731.629,178.883 732.795,177.383 732,174.5C 728.595,177.077 725.262,177.077 722,174.5C 720.466,170.289 720.133,165.956 721,161.5C 721.777,159.785 723.11,158.785 725,158.5C 727.656,159.684 730.156,161.017 732.5,162.5C 732.842,158.176 730.842,156.176 726.5,156.5C 721.757,156.333 718.423,158.333 716.5,162.5C 716.833,160.5 717.167,158.5 717.5,156.5C 720.135,155.858 722.802,155.191 725.5,154.5C 728.559,155.362 731.559,155.362 734.5,154.5C 735.484,157.428 735.817,160.428 735.5,163.5C 733.208,163.244 731.041,163.577 729,164.5C 727.777,161.553 725.777,160.553 723,161.5C 722.333,165.5 722.333,169.5 723,173.5C 724.085,174.293 725.252,174.96 726.5,175.5C 728.523,173.827 730.856,173.16 733.5,173.5C 733.896,176.044 733.229,178.211 731.5,180C 727.973,180.808 724.64,180.641 721.5,179.5 Z"/></g>
<g><path style="opacity:1" fill="#e8f1f5" d="M 526.5,159.5 C 522.64,156.676 518.307,155.842 513.5,157C 510.513,160.208 511.18,162.041 515.5,162.5C 515.78,158.775 517.78,157.608 521.5,159C 522.423,161.041 522.756,163.208 522.5,165.5C 513.102,163.74 509.269,167.406 511,176.5C 512.864,179.207 515.364,180.041 518.5,179C 520.426,178.578 521.426,177.411 521.5,175.5C 523.176,176.183 523.843,177.517 523.5,179.5C 525.5,179.5 527.5,179.5 529.5,179.5C 523.74,181.414 517.74,181.414 511.5,179.5C 507.602,174.434 507.602,169.268 511.5,164C 510.885,161.485 509.885,159.152 508.5,157C 514.267,154.006 520.1,153.839 526,156.5C 526.483,157.448 526.649,158.448 526.5,159.5 Z"/></g>
<g><path style="opacity:1" fill="#31618c" d="M 721.5,179.5 C 717.043,174.749 715.376,169.082 716.5,162.5C 718.423,158.333 721.757,156.333 726.5,156.5C 730.842,156.176 732.842,158.176 732.5,162.5C 730.156,161.017 727.656,159.684 725,158.5C 723.11,158.785 721.777,159.785 721,161.5C 720.133,165.956 720.466,170.289 722,174.5C 725.262,177.077 728.595,177.077 732,174.5C 732.795,177.383 731.629,178.883 728.5,179C 726.19,179.497 723.857,179.663 721.5,179.5 Z"/></g>
<g><path style="opacity:1" fill="#9abad2" d="M 312.5,151.5 C 312.5,155.833 312.5,160.167 312.5,164.5C 314.167,164.5 315.833,164.5 317.5,164.5C 315.735,165.461 313.735,165.795 311.5,165.5C 311.181,160.637 311.514,155.97 312.5,151.5 Z"/></g>
<g><path style="opacity:1" fill="#6d94b5" d="M 397.5,162.5 C 398.488,167.64 398.821,172.974 398.5,178.5C 400.5,178.5 402.5,178.5 404.5,178.5C 402.393,179.468 400.059,179.802 397.5,179.5C 397.5,173.833 397.5,168.167 397.5,162.5 Z"/></g>
<g><path style="opacity:1" fill="#9abbd2" d="M 648.5,151.5 C 648.5,155.833 648.5,160.167 648.5,164.5C 650.167,164.5 651.833,164.5 653.5,164.5C 651.735,165.461 649.735,165.795 647.5,165.5C 647.181,160.637 647.514,155.97 648.5,151.5 Z"/></g>
<g><path style="opacity:1" fill="#ebf2f5" d="M 709.5,179.5 C 709.25,178.078 708.417,177.078 707,176.5C 706.667,170.833 706.333,165.167 706,159.5C 705.167,158.667 704.333,157.833 703.5,157C 700.167,156.333 696.833,156.333 693.5,157C 692.594,158.699 692.261,160.533 692.5,162.5C 693.5,162.5 694.5,162.5 695.5,162.5C 696.262,158.452 698.596,157.452 702.5,159.5C 702.5,161.5 702.5,163.5 702.5,165.5C 699.287,165.19 696.287,165.523 693.5,166.5C 692.542,166.953 691.708,167.619 691,168.5C 690.366,171.555 690.532,174.555 691.5,177.5C 690.167,177.5 688.833,177.5 687.5,177.5C 687.249,172.493 686.916,167.493 686.5,162.5C 683.065,163.368 679.731,163.368 676.5,162.5C 676.5,167.167 676.5,171.833 676.5,176.5C 677.791,176.263 678.791,176.596 679.5,177.5C 678.833,177.5 678.167,177.5 677.5,177.5C 676.188,175.257 675.522,172.59 675.5,169.5C 673.832,160.814 676.832,158.147 684.5,161.5C 684.714,159.856 684.38,158.356 683.5,157C 679.525,155.621 676.691,156.787 675,160.5C 674.51,159.207 674.343,157.873 674.5,156.5C 672.167,156.5 669.833,156.5 667.5,156.5C 667.5,155.5 667.5,154.5 667.5,153.5C 673.176,153.334 678.843,153.501 684.5,154C 685.328,154.915 686.328,155.581 687.5,156C 686.664,157.243 686.997,158.41 688.5,159.5C 690.003,158.41 690.336,157.243 689.5,156C 694.526,153.742 699.859,152.909 705.5,153.5C 705.498,155.831 706.331,157.831 708,159.5C 707.97,165.837 708.803,172.004 710.5,178C 710.43,178.765 710.097,179.265 709.5,179.5 Z"/></g>
<g><path style="opacity:1" fill="#1a568c" d="M 799.5,159.5 C 800.167,161.5 800.833,163.5 801.5,165.5C 804.5,165.5 807.5,165.5 810.5,165.5C 810.5,163.833 810.5,162.167 810.5,160.5C 811.329,159.668 812.162,160.001 813,161.5C 813.494,163.134 813.66,164.801 813.5,166.5C 809.167,166.5 804.833,166.5 800.5,166.5C 801.01,169.388 800.344,171.721 798.5,173.5C 797.899,171.422 797.566,169.255 797.5,167C 797.3,164.134 797.967,161.634 799.5,159.5 Z"/></g>
<g><path style="opacity:1" fill="#94b3cb" d="M 612.5,161.5 C 613.489,166.975 613.822,172.642 613.5,178.5C 615.735,178.795 617.735,178.461 619.5,177.5C 620.043,177.56 620.376,177.893 620.5,178.5C 617.691,179.8 615.024,179.8 612.5,178.5C 612.5,172.833 612.5,167.167 612.5,161.5 Z"/></g>
<g><path style="opacity:1" fill="#1a5589" d="M 612.5,157.5 C 614.062,157.733 615.395,158.4 616.5,159.5C 616.334,164.844 616.501,170.177 617,175.5C 617.417,176.756 618.25,177.423 619.5,177.5C 617.735,178.461 615.735,178.795 613.5,178.5C 613.822,172.642 613.489,166.975 612.5,161.5C 612.167,160.833 611.833,160.167 611.5,159.5C 609.969,158.075 610.302,157.409 612.5,157.5 Z"/></g>
<g><path style="opacity:1" fill="#688baa" d="M 702.5,159.5 C 703.833,163.833 703.833,168.167 702.5,172.5C 702.5,170.833 702.5,169.167 702.5,167.5C 700.5,167.5 698.5,167.5 696.5,167.5C 695.791,166.596 694.791,166.263 693.5,166.5C 696.287,165.523 699.287,165.19 702.5,165.5C 702.5,163.5 702.5,161.5 702.5,159.5 Z"/></g>
<g><path style="opacity:1" fill="#e3564e" d="M 910.5,145.5 C 914.75,148.079 918.417,151.412 921.5,155.5C 920.226,157.85 918.893,157.683 917.5,155C 916.5,154.333 915.5,154.333 914.5,155C 911,158.5 907.5,162 904,165.5C 903.667,167.934 904.834,168.934 907.5,168.5C 907.5,169.5 907.5,170.5 907.5,171.5C 902.078,170.061 897.411,167.394 893.5,163.5C 893.833,162.833 894.167,162.167 894.5,161.5C 896.487,163.501 898.82,164.335 901.5,164C 904.667,159.5 908.5,155.667 913,152.5C 912.063,150.326 911.229,147.993 910.5,145.5 Z"/></g>
<g><path style="opacity:1" fill="#31608d" d="M 481.5,159.5 C 479.777,158.193 477.943,158.193 476,159.5C 474.466,163.711 474.133,168.044 475,172.5C 477.824,177.028 481.49,177.695 486,174.5C 486.45,177.064 485.284,178.564 482.5,179C 480.527,179.495 478.527,179.662 476.5,179.5C 470.441,174.37 468.941,168.037 472,160.5C 475.342,156.797 479.509,155.631 484.5,157C 486.155,158.444 486.822,160.278 486.5,162.5C 484.336,162.279 482.67,161.279 481.5,159.5 Z"/></g>
<g><path style="opacity:1" fill="#33628f" d="M 526.5,159.5 C 526.334,165.176 526.501,170.843 527,176.5C 528.417,177.078 529.25,178.078 529.5,179.5C 527.5,179.5 525.5,179.5 523.5,179.5C 523.843,177.517 523.176,176.183 521.5,175.5C 521.426,177.411 520.426,178.578 518.5,179C 515.364,180.041 512.864,179.207 511,176.5C 509.269,167.406 513.102,163.74 522.5,165.5C 522.756,163.208 522.423,161.041 521.5,159C 517.78,157.608 515.78,158.775 515.5,162.5C 511.18,162.041 510.513,160.208 513.5,157C 518.307,155.842 522.64,156.676 526.5,159.5 Z"/></g>
<g><path style="opacity:1" fill="#256aa0" d="M 256.5,164.5 C 259.001,164.826 260.168,166.159 260,168.5C 253.285,175.717 246.118,182.384 238.5,188.5C 234.015,184.515 229.682,180.349 225.5,176C 226.399,174.764 227.566,173.93 229,173.5C 231.478,175.978 233.978,178.478 236.5,181C 237.5,181.667 238.5,181.667 239.5,181C 245.242,175.484 250.908,169.984 256.5,164.5 Z"/></g>
<g><path style="opacity:1" fill="#7194af" d="M 456.5,162.5 C 457.488,167.64 457.821,172.974 457.5,178.5C 459.5,178.5 461.5,178.5 463.5,178.5C 463.5,178.833 463.5,179.167 463.5,179.5C 461.167,179.5 458.833,179.5 456.5,179.5C 456.5,173.833 456.5,168.167 456.5,162.5 Z"/></g>
<g><path style="opacity:1" fill="#2b5d8d" d="M 541.5,151.5 C 541.5,153.167 541.5,154.833 541.5,156.5C 543.5,156.5 545.5,156.5 547.5,156.5C 547.5,157.167 547.5,157.833 547.5,158.5C 545.5,158.5 543.5,158.5 541.5,158.5C 541.179,164.026 541.512,169.36 542.5,174.5C 543.552,176.256 545.219,176.923 547.5,176.5C 547.5,177.5 547.5,178.5 547.5,179.5C 544.721,179.721 542.054,179.388 539.5,178.5C 539.167,177.167 538.833,175.833 538.5,174.5C 538.5,169.167 538.5,163.833 538.5,158.5C 537.5,158.5 536.5,158.5 535.5,158.5C 537.537,156.135 539.537,153.802 541.5,151.5 Z"/></g>
<g><path style="opacity:1" fill="#cee0ed" d="M 779.5,160.5 C 779.121,165.297 779.621,169.964 781,174.5C 781.893,175.081 782.893,175.415 784,175.5C 786.059,174.382 788.226,173.715 790.5,173.5C 790.737,174.791 790.404,175.791 789.5,176.5C 789.631,175.761 789.464,175.094 789,174.5C 786.24,176.703 783.24,177.036 780,175.5C 776.965,170.446 776.798,165.446 779.5,160.5 Z"/></g>
<g><path style="opacity:1" fill="#dbe9f3" d="M 463.5,179.5 C 463.5,179.167 463.5,178.833 463.5,178.5C 462.828,177.733 461.995,177.066 461,176.5C 460.912,170.39 460.245,164.39 459,158.5C 454.93,155.745 451.097,156.078 447.5,159.5C 446.614,158.675 446.281,157.675 446.5,156.5C 444.473,156.338 442.473,156.505 440.5,157C 441.667,157.5 442.5,158.333 443,159.5C 443.818,165.349 443.652,171.015 442.5,176.5C 441.833,176.5 441.167,176.5 440.5,176.5C 442,169.415 441.667,162.415 439.5,155.5C 444.193,155.564 448.859,155.231 453.5,154.5C 457.177,154.504 459.844,156.171 461.5,159.5C 462.495,165.128 462.829,170.794 462.5,176.5C 466.001,176.351 466.334,177.351 463.5,179.5 Z"/></g>
<g><path style="opacity:1" fill="#285c8e" d="M 374.5,162.5 C 375.09,167.6 374.09,172.267 371.5,176.5C 370.167,176.5 369.5,175.833 369.5,174.5C 370.029,172.217 370.363,169.883 370.5,167.5C 370.888,164.139 369.888,161.306 367.5,159C 362.906,157.349 360.24,158.849 359.5,163.5C 359.119,167.119 358.119,170.452 356.5,173.5C 355.404,169.587 355.238,165.587 356,161.5C 356.465,160.069 357.299,158.903 358.5,158C 365.189,155.179 370.522,156.679 374.5,162.5 Z"/></g>
<g><path style="opacity:1" fill="#255c90" d="M 463.5,178.5 C 461.5,178.5 459.5,178.5 457.5,178.5C 457.821,172.974 457.488,167.64 456.5,162.5C 456.315,160.11 454.982,159.11 452.5,159.5C 450.626,159.39 449.126,160.056 448,161.5C 447.501,166.823 447.334,172.156 447.5,177.5C 448.791,177.263 449.791,177.596 450.5,178.5C 447.15,178.665 443.817,178.498 440.5,178C 441.416,177.722 442.082,177.222 442.5,176.5C 443.652,171.015 443.818,165.349 443,159.5C 442.5,158.333 441.667,157.5 440.5,157C 442.473,156.505 444.473,156.338 446.5,156.5C 446.281,157.675 446.614,158.675 447.5,159.5C 451.097,156.078 454.93,155.745 459,158.5C 460.245,164.39 460.912,170.39 461,176.5C 461.995,177.066 462.828,177.733 463.5,178.5 Z"/></g>
<g><path style="opacity:1" fill="#d2e6f2" d="M 521.5,175.5 C 521.167,175.5 520.833,175.5 520.5,175.5C 513.647,177.006 511.981,174.506 515.5,168C 517.81,167.503 520.143,167.337 522.5,167.5C 522.599,170.237 522.265,172.904 521.5,175.5 Z"/></g>
<g><path style="opacity:1" fill="#f9f9f5" d="M 520.5,175.5 C 518.833,175.5 517.167,175.5 515.5,175.5C 514.502,170.061 516.502,168.061 521.5,169.5C 520.652,171.409 520.318,173.409 520.5,175.5 Z"/></g>
<g><path style="opacity:1" fill="#326291" d="M 779.5,160.5 C 776.798,165.446 776.965,170.446 780,175.5C 783.24,177.036 786.24,176.703 789,174.5C 789.464,175.094 789.631,175.761 789.5,176.5C 788.308,178.922 786.308,179.922 783.5,179.5C 782.167,179.333 780.833,179.167 779.5,179C 778.051,177.898 776.718,176.731 775.5,175.5C 772.299,168.974 772.966,162.974 777.5,157.5C 781.524,155.909 785.357,156.243 789,158.5C 789.49,159.793 789.657,161.127 789.5,162.5C 788.5,162.5 787.5,162.5 786.5,162.5C 786.22,158.775 784.22,157.608 780.5,159C 779.944,159.383 779.611,159.883 779.5,160.5 Z"/></g>
<g><path style="opacity:1" fill="#dcebf4" d="M 481.5,159.5 C 479.549,159.227 478.049,159.893 477,161.5C 476.501,165.486 476.334,169.486 476.5,173.5C 480.167,173.5 483.833,173.5 487.5,173.5C 488.158,178.69 485.825,181.023 480.5,180.5C 478.955,180.489 477.622,180.156 476.5,179.5C 478.527,179.662 480.527,179.495 482.5,179C 485.284,178.564 486.45,177.064 486,174.5C 481.49,177.695 477.824,177.028 475,172.5C 474.133,168.044 474.466,163.711 476,159.5C 477.943,158.193 479.777,158.193 481.5,159.5 Z"/></g>
<g><path style="opacity:1" fill="#2e5f8e" d="M 709.5,179.5 C 707.5,179.5 705.5,179.5 703.5,179.5C 703.657,178.127 703.49,176.793 703,175.5C 699.652,179.739 695.819,180.406 691.5,177.5C 690.532,174.555 690.366,171.555 691,168.5C 691.708,167.619 692.542,166.953 693.5,166.5C 694.791,166.263 695.791,166.596 696.5,167.5C 694.382,170.055 694.049,172.888 695.5,176C 699.205,177.313 701.538,176.146 702.5,172.5C 703.833,168.167 703.833,163.833 702.5,159.5C 698.596,157.452 696.262,158.452 695.5,162.5C 694.5,162.5 693.5,162.5 692.5,162.5C 692.261,160.533 692.594,158.699 693.5,157C 696.833,156.333 700.167,156.333 703.5,157C 704.333,157.833 705.167,158.667 706,159.5C 706.333,165.167 706.667,170.833 707,176.5C 708.417,177.078 709.25,178.078 709.5,179.5 Z"/></g>
<g><path style="opacity:1" fill="#e8f3f6" d="M 696.5,167.5 C 698.5,167.5 700.5,167.5 702.5,167.5C 702.5,169.167 702.5,170.833 702.5,172.5C 701.538,176.146 699.205,177.313 695.5,176C 694.049,172.888 694.382,170.055 696.5,167.5 Z"/></g>
<g><path style="opacity:1" fill="#366594" d="M 432.5,177.5 C 430.643,178.765 428.976,178.432 427.5,176.5C 427.565,176.062 427.399,175.728 427,175.5C 423.835,179.889 420.002,180.555 415.5,177.5C 413.688,171.353 413.021,165.02 413.5,158.5C 412.325,158.719 411.325,158.386 410.5,157.5C 412.743,156.526 415.076,156.192 417.5,156.5C 417.334,162.176 417.501,167.843 418,173.5C 418.374,174.416 418.874,175.25 419.5,176C 423.166,177.271 425.666,176.104 427,172.5C 427.667,168.167 427.667,163.833 427,159.5C 425.795,158.929 424.628,158.262 423.5,157.5C 426.086,156.52 428.753,156.187 431.5,156.5C 431.175,163.687 431.509,170.687 432.5,177.5 Z"/></g>
<g><path style="opacity:1" fill="#4c769c" d="M 359.5,163.5 C 359.146,167.637 359.646,171.637 361,175.5C 364.071,176.959 366.904,176.626 369.5,174.5C 369.5,175.833 370.167,176.5 371.5,176.5C 368.373,179.055 364.706,180.055 360.5,179.5C 358.748,177.754 357.415,175.754 356.5,173.5C 358.119,170.452 359.119,167.119 359.5,163.5 Z"/></g>
<g><path style="opacity:1" fill="#265b8c" d="M 404.5,178.5 C 402.5,178.5 400.5,178.5 398.5,178.5C 398.821,172.974 398.488,167.64 397.5,162.5C 397.315,160.11 395.982,159.11 393.5,159.5C 391.626,159.39 390.126,160.056 389,161.5C 388.833,164.167 388.667,166.833 388.5,169.5C 388.522,172.59 389.188,175.257 390.5,177.5C 387.696,178.638 384.696,178.805 381.5,178C 382.416,177.722 383.082,177.222 383.5,176.5C 384.652,171.015 384.818,165.349 384,159.5C 383.075,158.953 382.242,158.287 381.5,157.5C 383.396,156.534 385.396,156.201 387.5,156.5C 387.281,157.675 387.614,158.675 388.5,159.5C 391.98,155.848 395.813,155.515 400,158.5C 401.245,164.39 401.912,170.39 402,176.5C 402.995,177.066 403.828,177.733 404.5,178.5 Z"/></g>
<g><path style="opacity:1" fill="#255986" d="M 562.5,177.5 C 559.696,178.638 556.696,178.805 553.5,178C 554.416,177.722 555.082,177.222 555.5,176.5C 556.49,170.69 556.823,164.69 556.5,158.5C 555.325,158.719 554.325,158.386 553.5,157.5C 555.743,156.526 558.076,156.192 560.5,156.5C 560.334,163.175 560.5,169.842 561,176.5C 561.383,177.056 561.883,177.389 562.5,177.5 Z"/></g>
<g><path style="opacity:1" fill="#668cad" d="M 577.5,176.5 C 579.167,176.5 580.833,176.5 582.5,176.5C 581.391,177.29 580.058,177.79 578.5,178C 579.793,178.49 581.127,178.657 582.5,178.5C 581.551,179.152 580.385,179.486 579,179.5C 576.992,179.693 575.492,179.026 574.5,177.5C 575.791,177.737 576.791,177.404 577.5,176.5 Z"/></g>
<g><path style="opacity:1" fill="#386791" d="M 612.5,157.5 C 610.302,157.409 609.969,158.075 611.5,159.5C 608.635,159.055 606.135,159.722 604,161.5C 603.333,166.5 603.333,171.5 604,176.5C 604.925,177.047 605.758,177.713 606.5,178.5C 603.167,179.833 599.833,179.833 596.5,178.5C 597.242,177.713 598.075,177.047 599,176.5C 599.499,171.177 599.666,165.844 599.5,160.5C 600.167,166.014 600.833,171.681 601.5,177.5C 602.497,170.866 602.83,164.2 602.5,157.5C 601.209,157.263 600.209,157.596 599.5,158.5C 598.325,158.719 597.325,158.386 596.5,157.5C 598.743,156.526 601.076,156.192 603.5,156.5C 603.351,157.552 603.517,158.552 604,159.5C 606.511,156.701 609.345,156.035 612.5,157.5 Z"/></g>
<g><path style="opacity:1" fill="#295d8d" d="M 767.5,179.5 C 763.351,180.08 759.684,179.414 756.5,177.5C 757.822,177.67 758.989,177.337 760,176.5C 760.667,170.833 760.667,165.167 760,159.5C 758.795,158.929 757.628,158.262 756.5,157.5C 758.743,156.526 761.076,156.192 763.5,156.5C 763.334,162.842 763.5,169.175 764,175.5C 765.388,176.736 766.554,178.069 767.5,179.5 Z"/></g>
<g><path style="opacity:1" fill="#386690" d="M 798.5,173.5 C 800.344,171.721 801.01,169.388 800.5,166.5C 804.833,166.5 809.167,166.5 813.5,166.5C 813.66,164.801 813.494,163.134 813,161.5C 812.162,160.001 811.329,159.668 810.5,160.5C 804.603,156.757 801.603,158.424 801.5,165.5C 800.833,163.5 800.167,161.5 799.5,159.5C 804.535,155.248 809.369,155.581 814,160.5C 814.497,162.81 814.663,165.143 814.5,167.5C 810.167,167.5 805.833,167.5 801.5,167.5C 800.938,176.556 804.605,178.889 812.5,174.5C 813.594,175.868 813.26,177.035 811.5,178C 805.409,181.079 801.076,179.579 798.5,173.5 Z"/></g>
<g><path style="opacity:1" fill="#dfedf2" d="M 810.5,160.5 C 810.5,162.167 810.5,163.833 810.5,165.5C 807.5,165.5 804.5,165.5 801.5,165.5C 801.603,158.424 804.603,156.757 810.5,160.5 Z"/></g>
<g><path style="opacity:1" fill="#678ba9" d="M 306.5,176.5 C 306.082,177.222 305.416,177.722 304.5,178C 307.696,178.805 310.696,178.638 313.5,177.5C 314.675,177.281 315.675,177.614 316.5,178.5C 312.217,179.492 307.884,179.826 303.5,179.5C 303.5,178.5 303.5,177.5 303.5,176.5C 304.5,176.5 305.5,176.5 306.5,176.5 Z"/></g>
<g><path style="opacity:1" fill="#6b90ae" d="M 334.5,176.5 C 334.082,177.222 333.416,177.722 332.5,178C 335.696,178.805 338.696,178.638 341.5,177.5C 342.376,177.369 343.043,177.702 343.5,178.5C 339.555,179.491 335.555,179.824 331.5,179.5C 331.5,178.5 331.5,177.5 331.5,176.5C 332.5,176.5 333.5,176.5 334.5,176.5 Z"/></g>
<g><path style="opacity:1" fill="#6f92ae" d="M 383.5,176.5 C 383.082,177.222 382.416,177.722 381.5,178C 384.696,178.805 387.696,178.638 390.5,177.5C 391.043,177.56 391.376,177.893 391.5,178.5C 387.893,179.489 384.226,179.823 380.5,179.5C 380.5,178.5 380.5,177.5 380.5,176.5C 381.5,176.5 382.5,176.5 383.5,176.5 Z"/></g>
<g><path style="opacity:1" fill="#6489a5" d="M 427.5,176.5 C 428.976,178.432 430.643,178.765 432.5,177.5C 433.376,177.369 434.043,177.702 434.5,178.5C 432.257,179.474 429.924,179.808 427.5,179.5C 427.5,178.5 427.5,177.5 427.5,176.5 Z"/></g>
<g><path style="opacity:1" fill="#6f93b0" d="M 440.5,176.5 C 441.167,176.5 441.833,176.5 442.5,176.5C 442.082,177.222 441.416,177.722 440.5,178C 443.817,178.498 447.15,178.665 450.5,178.5C 447.038,179.482 443.371,179.815 439.5,179.5C 439.263,178.209 439.596,177.209 440.5,176.5 Z"/></g>
<g><path style="opacity:1" fill="#6f93ae" d="M 495.5,176.5 C 495.082,177.222 494.416,177.722 493.5,178C 496.696,178.805 499.696,178.638 502.5,177.5C 503.376,177.369 504.043,177.702 504.5,178.5C 500.555,179.491 496.555,179.824 492.5,179.5C 492.5,178.5 492.5,177.5 492.5,176.5C 493.5,176.5 494.5,176.5 495.5,176.5 Z"/></g>
<g><path style="opacity:1" fill="#7092ae" d="M 555.5,176.5 C 555.082,177.222 554.416,177.722 553.5,178C 556.696,178.805 559.696,178.638 562.5,177.5C 563.167,177.5 563.833,177.5 564.5,177.5C 564.5,178.167 564.5,178.833 564.5,179.5C 560.5,179.5 556.5,179.5 552.5,179.5C 552.5,178.5 552.5,177.5 552.5,176.5C 553.5,176.5 554.5,176.5 555.5,176.5 Z"/></g>
<g><path style="opacity:1" fill="#678ba9" d="M 642.5,176.5 C 642.082,177.222 641.416,177.722 640.5,178C 643.696,178.805 646.696,178.638 649.5,177.5C 650.675,177.281 651.675,177.614 652.5,178.5C 648.217,179.492 643.884,179.826 639.5,179.5C 639.5,178.5 639.5,177.5 639.5,176.5C 640.5,176.5 641.5,176.5 642.5,176.5 Z"/></g>
<g><path style="opacity:1" fill="#6b90ae" d="M 670.5,176.5 C 670.082,177.222 669.416,177.722 668.5,178C 671.696,178.805 674.696,178.638 677.5,177.5C 678.167,177.5 678.833,177.5 679.5,177.5C 675.971,179.423 671.971,180.089 667.5,179.5C 667.5,178.5 667.5,177.5 667.5,176.5C 668.5,176.5 669.5,176.5 670.5,176.5 Z"/></g>
<g><path style="opacity:1" fill="#de564e" d="M 945.5,177.5 C 947.288,177.215 948.955,177.548 950.5,178.5C 948.49,180.171 946.157,180.838 943.5,180.5C 943.833,184.167 945.833,186.167 949.5,186.5C 949.157,184.517 949.824,183.183 951.5,182.5C 951.5,184.833 951.5,187.167 951.5,189.5C 950.842,190.398 950.176,191.398 949.5,192.5C 946.164,188.331 942.331,184.664 938,181.5C 937.517,180.552 937.351,179.552 937.5,178.5C 940.279,178.721 942.946,178.388 945.5,177.5 Z"/></g>
<g><path style="opacity:1" fill="#e2574e" d="M 927.5,156.5 C 928.5,156.5 929.5,156.5 930.5,156.5C 929.857,159.325 928.523,161.825 926.5,164C 927.944,166.449 929.778,168.615 932,170.5C 932.667,171.5 932.667,172.5 932,173.5C 926.802,179.033 921.302,184.2 915.5,189C 910.394,190.395 907.061,188.561 905.5,183.5C 905.833,182.833 906.167,182.167 906.5,181.5C 908.316,182.815 909.983,184.315 911.5,186C 912.5,186.667 913.5,186.667 914.5,186C 919.161,181.339 923.828,176.672 928.5,172C 927.185,168.656 924.852,166.99 921.5,167C 914.906,174.569 906.573,178.069 896.5,177.5C 896.5,176.5 896.5,175.5 896.5,174.5C 901.012,174.851 905.345,174.185 909.5,172.5C 913.142,170.025 916.642,167.358 920,164.5C 920.333,162.953 919.833,161.62 918.5,160.5C 922.432,161.515 925.432,160.182 927.5,156.5 Z"/></g>
<g><path style="opacity:1" fill="#fbacab" d="M 945.5,177.5 C 947.265,176.539 949.265,176.205 951.5,176.5C 951.5,178.5 951.5,180.5 951.5,182.5C 949.824,183.183 949.157,184.517 949.5,186.5C 945.833,186.167 943.833,184.167 943.5,180.5C 946.157,180.838 948.49,180.171 950.5,178.5C 948.955,177.548 947.288,177.215 945.5,177.5 Z"/></g>
<g><path style="opacity:1" fill="#e2584f" d="M 935.5,183.5 C 939.79,185.79 943.124,189.124 945.5,193.5C 941.043,198.459 936.376,203.292 931.5,208C 930.072,208.579 928.738,208.412 927.5,207.5C 925.896,206.713 925.229,205.38 925.5,203.5C 934.417,205.714 935.417,203.547 928.5,197C 927.5,196.333 926.5,196.333 925.5,197C 924.274,198.635 922.941,200.135 921.5,201.5C 920.5,201.167 919.833,200.5 919.5,199.5C 924.521,193.812 929.854,188.479 935.5,183.5 Z"/></g>
<g><path style="opacity:1" fill="#fdbbbb" d="M 934.5,187.5 C 938.266,188.931 940.599,191.598 941.5,195.5C 937.734,194.069 935.401,191.402 934.5,187.5 Z"/></g>
<g><path style="opacity:1" fill="#fcb0af" d="M 930.5,191.5 C 934.274,192.938 936.607,195.605 937.5,199.5C 932.128,199.147 929.795,196.48 930.5,191.5 Z"/></g>
<g><path style="opacity:1" fill="#e35c53" d="M 955.5,207.5 C 952.776,204.779 950.442,201.779 948.5,198.5C 949.432,196.235 950.765,194.235 952.5,192.5C 954.575,190.281 956.909,188.281 959.5,186.5C 959.833,187 960.167,187.5 960.5,188C 957.536,193.783 959.536,196.283 966.5,195.5C 966.5,196.833 966.5,198.167 966.5,199.5C 961.896,198.79 957.563,197.624 953.5,196C 952.643,196.689 951.977,197.522 951.5,198.5C 953.897,203.349 957.563,204.682 962.5,202.5C 961.614,206.037 959.281,207.704 955.5,207.5 Z"/></g>
<g><path style="opacity:1" fill="#fdbbbc" d="M 937.5,178.5 C 937.351,179.552 937.517,180.552 938,181.5C 942.331,184.664 946.164,188.331 949.5,192.5C 950.176,191.398 950.842,190.398 951.5,189.5C 951.263,190.791 951.596,191.791 952.5,192.5C 950.765,194.235 949.432,196.235 948.5,198.5C 950.442,201.779 952.776,204.779 955.5,207.5C 953.302,207.409 952.969,208.075 954.5,209.5C 950.808,210.029 947.642,209.029 945,206.5C 945.24,204.533 946.073,202.7 947.5,201C 947.167,200.5 946.833,200 946.5,199.5C 941.323,203.329 937.323,207.996 934.5,213.5C 933.71,212.391 933.21,211.058 933,209.5C 930.189,211.18 928.356,210.513 927.5,207.5C 928.738,208.412 930.072,208.579 931.5,208C 936.376,203.292 941.043,198.459 945.5,193.5C 943.124,189.124 939.79,185.79 935.5,183.5C 936.024,181.694 936.691,180.028 937.5,178.5 Z"/></g>
<g><path style="opacity:1" fill="#e5f1f6" d="M 266.5,163.5 C 270.607,166.381 272.607,170.381 272.5,175.5C 272.545,181.202 270.545,186.035 266.5,190C 258.035,196.731 248.369,199.398 237.5,198C 232.925,203.212 230.258,202.378 229.5,195.5C 230.859,196.007 231.859,197.007 232.5,198.5C 233.931,198.023 235.264,197.357 236.5,196.5C 247.566,197.566 257.233,194.566 265.5,187.5C 264.477,185.105 265.477,184.105 268.5,184.5C 268.339,181.472 269.006,178.639 270.5,176C 269.348,171.697 268.015,167.53 266.5,163.5 Z"/></g>
<g><path style="opacity:1" fill="#cde0eb" d="M 341.5,204.5 C 340.166,205.652 338.666,206.652 337,207.5C 335.699,206.902 334.865,205.902 334.5,204.5C 333.311,203.571 331.978,203.238 330.5,203.5C 330.584,206.327 331.25,208.994 332.5,211.5C 329.5,212.168 326.833,213.502 324.5,215.5C 327.248,212.67 328.915,209.337 329.5,205.5C 322.167,205.5 314.833,205.5 307.5,205.5C 314.678,204.833 322.011,204.167 329.5,203.5C 331.749,201.295 333.749,201.295 335.5,203.5C 337.396,204.466 339.396,204.799 341.5,204.5 Z"/></g>
<g><path style="opacity:1" fill="#95bad4" d="M 389.5,203.5 C 388.167,203.5 386.833,203.5 385.5,203.5C 385.5,205.167 385.5,206.833 385.5,208.5C 379.167,208.5 372.833,208.5 366.5,208.5C 372.31,207.51 378.31,207.177 384.5,207.5C 384.5,205.833 384.5,204.167 384.5,202.5C 386.415,202.216 388.081,202.549 389.5,203.5 Z"/></g>
<g><path style="opacity:1" fill="#1d588f" d="M 520.5,225.5 C 520.762,224.022 520.429,222.689 519.5,221.5C 516.686,223.105 513.686,224.105 510.5,224.5C 506.696,226.452 505.696,225.452 507.5,221.5C 509.311,221.428 510.644,220.595 511.5,219C 510.224,216.719 508.557,214.719 506.5,213C 507.056,212.617 507.389,212.117 507.5,211.5C 508.043,211.44 508.376,211.107 508.5,210.5C 507.675,209.614 506.675,209.281 505.5,209.5C 505.5,208.5 505.5,207.5 505.5,206.5C 511.833,206.5 518.167,206.5 524.5,206.5C 524.5,212.833 524.5,219.167 524.5,225.5C 523.167,225.5 521.833,225.5 520.5,225.5 Z"/></g>
<g><path style="opacity:1" fill="#6b94b6" d="M 525.5,205.5 C 525.5,212.5 525.5,219.5 525.5,226.5C 523.585,226.784 521.919,226.451 520.5,225.5C 521.833,225.5 523.167,225.5 524.5,225.5C 524.5,219.167 524.5,212.833 524.5,206.5C 518.167,206.5 511.833,206.5 505.5,206.5C 505.5,207.5 505.5,208.5 505.5,209.5C 506.675,209.281 507.675,209.614 508.5,210.5C 508.376,211.107 508.043,211.44 507.5,211.5C 506.791,210.596 505.791,210.263 504.5,210.5C 504.5,208.833 504.5,207.167 504.5,205.5C 511.5,205.5 518.5,205.5 525.5,205.5 Z"/></g>
<g><path style="opacity:1" fill="#6f98b1" d="M 520.5,210.5 C 516.958,210.187 513.625,210.521 510.5,211.5C 509.957,211.44 509.624,211.107 509.5,210.5C 513.315,209.192 516.981,209.192 520.5,210.5 Z"/></g>
<g><path style="opacity:1" fill="#e15b53" d="M 954.5,209.5 C 954.5,210.5 954.5,211.5 954.5,212.5C 949.375,211.946 944.375,211.112 939.5,210C 938.361,215.529 940.694,217.862 946.5,217C 947.667,215.216 948.667,215.216 949.5,217C 948.091,219.213 946.091,220.713 943.5,221.5C 939.861,219.526 936.861,216.86 934.5,213.5C 937.323,207.996 941.323,203.329 946.5,199.5C 946.833,200 947.167,200.5 947.5,201C 946.073,202.7 945.24,204.533 945,206.5C 947.642,209.029 950.808,210.029 954.5,209.5 Z"/></g>
<g><path style="opacity:1" fill="#6691b3" d="M 481.5,209.5 C 487.026,209.179 492.36,209.512 497.5,210.5C 493.958,210.187 490.625,210.521 487.5,211.5C 486.833,211.5 486.167,211.5 485.5,211.5C 484.167,210.833 482.833,210.167 481.5,209.5 Z"/></g>
<g><path style="opacity:1" fill="#e4f3f7" d="M 487.5,211.5 C 490.625,210.521 493.958,210.187 497.5,210.5C 498.099,213.948 497.099,216.614 494.5,218.5C 493.508,218.672 492.842,218.338 492.5,217.5C 491.581,214.911 489.914,212.911 487.5,211.5 Z"/></g>
<g><path style="opacity:1" fill="#e7f2f8" d="M 525.5,205.5 C 518.5,205.5 511.5,205.5 504.5,205.5C 504.5,207.167 504.5,208.833 504.5,210.5C 505.791,210.263 506.791,210.596 507.5,211.5C 507.389,212.117 507.056,212.617 506.5,213C 508.557,214.719 510.224,216.719 511.5,219C 510.644,220.595 509.311,221.428 507.5,221.5C 505.824,222.183 505.157,223.517 505.5,225.5C 504.209,225.737 503.209,225.404 502.5,224.5C 502.5,218.167 502.5,211.833 502.5,205.5C 495.5,205.5 488.5,205.5 481.5,205.5C 489.149,203.798 497.149,202.798 505.5,202.5C 511.783,203.294 518.116,203.794 524.5,204C 525.056,204.383 525.389,204.883 525.5,205.5 Z"/></g>
<g><path style="opacity:1" fill="#f5f7f6" d="M 332.5,211.5 C 334.471,213.808 336.471,216.142 338.5,218.5C 334.702,219.483 330.702,219.817 326.5,219.5C 325.833,230.167 325.167,230.167 324.5,219.5C 323.209,219.737 322.209,219.404 321.5,218.5C 322.167,217.167 323.167,216.167 324.5,215.5C 326.833,213.502 329.5,212.168 332.5,211.5 Z"/></g>
<g><path style="opacity:1" fill="#285e95" d="M 481.5,205.5 C 488.5,205.5 495.5,205.5 502.5,205.5C 502.5,211.833 502.5,218.167 502.5,224.5C 500.446,224.635 498.779,223.968 497.5,222.5C 492.489,223.823 487.489,225.49 482.5,227.5C 481.585,226.672 480.919,225.672 480.5,224.5C 483.157,222.392 486.157,221.059 489.5,220.5C 491.403,220.204 493.07,219.537 494.5,218.5C 497.099,216.614 498.099,213.948 497.5,210.5C 492.36,209.512 487.026,209.179 481.5,209.5C 481.5,208.167 481.5,206.833 481.5,205.5 Z"/></g>
<g><path style="opacity:1" fill="#e9f3f7" d="M 520.5,210.5 C 520.808,212.924 520.474,215.257 519.5,217.5C 517.902,218.485 516.235,218.651 514.5,218C 514.957,217.586 515.291,217.086 515.5,216.5C 513.479,215.145 511.812,213.479 510.5,211.5C 513.625,210.521 516.958,210.187 520.5,210.5 Z"/></g>
<g><path style="opacity:1" fill="#295e90" d="M 485.5,211.5 C 486.167,211.5 486.833,211.5 487.5,211.5C 489.914,212.911 491.581,214.911 492.5,217.5C 491.609,218.11 490.609,218.443 489.5,218.5C 486.139,216.914 484.806,214.581 485.5,211.5 Z"/></g>
<g><path style="opacity:1" fill="#215b92" d="M 341.5,204.5 C 344.808,202.716 346.475,203.716 346.5,207.5C 343.619,208.274 340.952,209.607 338.5,211.5C 338.977,212.478 339.643,213.311 340.5,214C 343.735,212.97 346.901,211.47 350,209.5C 350.765,209.57 351.265,209.903 351.5,210.5C 351.719,211.675 351.386,212.675 350.5,213.5C 348.611,214.604 346.945,215.937 345.5,217.5C 347.677,219.758 350.343,221.258 353.5,222C 354.337,223.011 354.67,224.178 354.5,225.5C 351.028,225.874 348.028,224.874 345.5,222.5C 343.64,227.926 345.64,229.926 351.5,228.5C 351.5,229.833 351.5,231.167 351.5,232.5C 348.833,232.5 346.167,232.5 343.5,232.5C 340.828,230.609 339.828,227.942 340.5,224.5C 337.833,224.5 335.167,224.5 332.5,224.5C 332.984,227.788 331.984,230.455 329.5,232.5C 328.5,232.5 327.5,232.5 326.5,232.5C 325.711,232.217 325.044,231.717 324.5,231C 328.048,228.409 329.382,224.909 328.5,220.5C 332.555,220.824 336.555,220.491 340.5,219.5C 340.043,218.702 339.376,218.369 338.5,218.5C 336.471,216.142 334.471,213.808 332.5,211.5C 331.25,208.994 330.584,206.327 330.5,203.5C 331.978,203.238 333.311,203.571 334.5,204.5C 334.865,205.902 335.699,206.902 337,207.5C 338.666,206.652 340.166,205.652 341.5,204.5 Z"/></g>
<g><path style="opacity:1" fill="#df645e" d="M 963.5,210.5 C 968.419,213.748 972.753,217.748 976.5,222.5C 975.635,223.583 974.635,223.749 973.5,223C 970.333,219.833 967.167,216.667 964,213.5C 963.517,212.552 963.351,211.552 963.5,210.5 Z"/></g>
<g><path style="opacity:1" fill="#88b4d4" d="M 492.5,217.5 C 492.842,218.338 493.508,218.672 494.5,218.5C 493.07,219.537 491.403,220.204 489.5,220.5C 489.5,219.833 489.5,219.167 489.5,218.5C 490.609,218.443 491.609,218.11 492.5,217.5 Z"/></g>
<g><path style="opacity:1" fill="#517a96" d="M 467.5,217.5 C 468.49,223.645 468.823,229.978 468.5,236.5C 466.167,236.5 463.833,236.5 461.5,236.5C 463.265,235.539 465.265,235.205 467.5,235.5C 467.5,229.5 467.5,223.5 467.5,217.5 Z"/></g>
<g><path style="opacity:1" fill="#185891" d="M 389.5,203.5 C 390.301,205.042 390.634,206.708 390.5,208.5C 396.833,208.5 403.167,208.5 409.5,208.5C 409.5,209.833 409.5,211.167 409.5,212.5C 406.15,212.335 402.817,212.502 399.5,213C 400.357,213.689 401.023,214.522 401.5,215.5C 400.544,217.075 399.877,218.742 399.5,220.5C 403.353,221.166 407.353,221.833 411.5,222.5C 395.833,223.833 380.167,223.833 364.5,222.5C 368.982,221.833 373.316,221.166 377.5,220.5C 376.952,218.606 375.952,216.94 374.5,215.5C 374.833,214.833 375.167,214.167 375.5,213.5C 372.572,212.516 369.572,212.183 366.5,212.5C 366.5,211.167 366.5,209.833 366.5,208.5C 372.833,208.5 379.167,208.5 385.5,208.5C 385.5,206.833 385.5,205.167 385.5,203.5C 386.833,203.5 388.167,203.5 389.5,203.5 Z"/></g>
<g><path style="opacity:1" fill="#a0c3d9" d="M 381.5,216.5 C 382.404,217.209 382.737,218.209 382.5,219.5C 385.833,219.5 389.167,219.5 392.5,219.5C 388.649,220.809 384.649,220.809 380.5,219.5C 381.127,218.583 381.461,217.583 381.5,216.5 Z"/></g>
<g><path style="opacity:1" fill="#f7f8f6" d="M 395.5,215.5 C 394.974,217.23 393.974,218.564 392.5,219.5C 389.167,219.5 385.833,219.5 382.5,219.5C 382.737,218.209 382.404,217.209 381.5,216.5C 381.167,215.833 380.833,215.167 380.5,214.5C 382.81,213.836 385.31,213.503 388,213.5C 390.929,213.525 393.429,214.191 395.5,215.5 Z"/></g>
<g><path style="opacity:1" fill="#b1d0e7" d="M 395.5,215.5 C 393.429,214.191 390.929,213.525 388,213.5C 385.31,213.503 382.81,213.836 380.5,214.5C 379.957,214.44 379.624,214.107 379.5,213.5C 385.128,212.505 390.794,212.171 396.5,212.5C 396.737,213.791 396.404,214.791 395.5,215.5 Z"/></g>
<g><path style="opacity:1" fill="#d95953" d="M 957.5,216.5 C 962.419,219.748 966.753,223.748 970.5,228.5C 969.998,229.521 969.332,229.688 968.5,229C 964.23,225.239 960.563,221.072 957.5,216.5 Z"/></g>
<g><path style="opacity:1" fill="#346790" d="M 377.5,220.5 C 373.316,221.166 368.982,221.833 364.5,222.5C 380.167,223.833 395.833,223.833 411.5,222.5C 407.353,221.833 403.353,221.166 399.5,220.5C 403.833,220.5 408.167,220.5 412.5,220.5C 412.5,221.833 412.5,223.167 412.5,224.5C 396.167,224.5 379.833,224.5 363.5,224.5C 363.5,223.167 363.5,221.833 363.5,220.5C 368.167,220.5 372.833,220.5 377.5,220.5 Z"/></g>
<g><path style="opacity:1" fill="#d6e5ef" d="M 351.5,210.5 C 352.586,210.62 353.253,211.287 353.5,212.5C 352.814,214.347 351.814,216.014 350.5,217.5C 351.447,219.4 352.947,220.733 355,221.5C 355.167,222.333 355.333,223.167 355.5,224C 354.606,227.256 353.272,230.089 351.5,232.5C 351.5,231.167 351.5,229.833 351.5,228.5C 345.64,229.926 343.64,227.926 345.5,222.5C 348.028,224.874 351.028,225.874 354.5,225.5C 354.67,224.178 354.337,223.011 353.5,222C 350.343,221.258 347.677,219.758 345.5,217.5C 346.945,215.937 348.611,214.604 350.5,213.5C 351.386,212.675 351.719,211.675 351.5,210.5 Z"/></g>
<g><path style="opacity:1" fill="#d8e8f1" d="M 366.5,208.5 C 366.5,209.833 366.5,211.167 366.5,212.5C 369.572,212.183 372.572,212.516 375.5,213.5C 375.167,214.167 374.833,214.833 374.5,215.5C 375.952,216.94 376.952,218.606 377.5,220.5C 372.833,220.5 368.167,220.5 363.5,220.5C 363.5,221.833 363.5,223.167 363.5,224.5C 379.833,224.5 396.167,224.5 412.5,224.5C 395.866,226.486 378.866,227.152 361.5,226.5C 361.223,223.552 361.556,220.719 362.5,218C 365.817,217.502 369.15,217.335 372.5,217.5C 372.5,216.5 372.5,215.5 372.5,214.5C 366.496,215.836 364.496,213.836 366.5,208.5 Z"/></g>
<g><path style="opacity:1" fill="#638daf" d="M 507.5,221.5 C 505.696,225.452 506.696,226.452 510.5,224.5C 509.035,225.737 507.368,226.737 505.5,227.5C 504.081,226.549 502.415,226.216 500.5,226.5C 499.791,225.596 498.791,225.263 497.5,225.5C 497.5,224.5 497.5,223.5 497.5,222.5C 498.779,223.968 500.446,224.635 502.5,224.5C 503.209,225.404 504.209,225.737 505.5,225.5C 505.157,223.517 505.824,222.183 507.5,221.5 Z"/></g>
<g><path style="opacity:1" fill="#ecf5f8" d="M 343.5,232.5 C 338.833,233.833 334.167,233.833 329.5,232.5C 331.984,230.455 332.984,227.788 332.5,224.5C 335.167,224.5 337.833,224.5 340.5,224.5C 339.828,227.942 340.828,230.609 343.5,232.5 Z"/></g>
<g><path style="opacity:1" fill="#93b5cc" d="M 311.5,224.5 C 311.047,225.458 310.381,226.292 309.5,227C 312.482,227.498 315.482,227.665 318.5,227.5C 318.5,226.5 318.5,225.5 318.5,224.5C 319.434,225.568 319.768,226.901 319.5,228.5C 316.167,228.5 312.833,228.5 309.5,228.5C 309.768,230.099 309.434,231.432 308.5,232.5C 308.5,230.833 308.5,229.167 308.5,227.5C 307.209,227.737 306.209,227.404 305.5,226.5C 307.685,226.296 309.685,225.63 311.5,224.5 Z"/></g>
<g><path style="opacity:1" fill="#e7f9fe" d="M 311.5,224.5 C 313.833,224.5 316.167,224.5 318.5,224.5C 318.5,225.5 318.5,226.5 318.5,227.5C 315.482,227.665 312.482,227.498 309.5,227C 310.381,226.292 311.047,225.458 311.5,224.5 Z"/></g>
<g><path style="opacity:1" fill="#205b92" d="M 307.5,205.5 C 314.833,205.5 322.167,205.5 329.5,205.5C 328.915,209.337 327.248,212.67 324.5,215.5C 323.167,216.167 322.167,217.167 321.5,218.5C 320.624,218.369 319.957,218.702 319.5,219.5C 320.689,220.429 322.022,220.762 323.5,220.5C 323.5,224.5 323.5,228.5 323.5,232.5C 320.167,232.5 316.833,232.5 313.5,232.5C 312.549,233.919 312.216,235.585 312.5,237.5C 315.833,237.5 319.167,237.5 322.5,237.5C 322.825,242.599 322.325,247.599 321,252.5C 317.27,253.46 313.437,253.793 309.5,253.5C 309.5,252.167 309.5,250.833 309.5,249.5C 312.167,249.5 314.833,249.5 317.5,249.5C 317.5,248.5 317.5,247.5 317.5,246.5C 318.461,244.735 318.795,242.735 318.5,240.5C 315.167,240.5 311.833,240.5 308.5,240.5C 308.5,238.833 308.5,237.167 308.5,235.5C 308.5,234.5 308.5,233.5 308.5,232.5C 309.434,231.432 309.768,230.099 309.5,228.5C 312.833,228.5 316.167,228.5 319.5,228.5C 319.768,226.901 319.434,225.568 318.5,224.5C 316.167,224.5 313.833,224.5 311.5,224.5C 309.685,225.63 307.685,226.296 305.5,226.5C 304.766,225.292 304.433,223.959 304.5,222.5C 308.244,222.129 311.244,220.462 313.5,217.5C 312.167,215.5 310.5,213.833 308.5,212.5C 311.433,210.262 311.099,209.262 307.5,209.5C 307.5,208.167 307.5,206.833 307.5,205.5 Z"/></g>
<g><path style="opacity:1" fill="#dae9f4" d="M 312.5,209.5 C 316.182,209.335 319.848,209.501 323.5,210C 319.523,215.92 315.856,215.753 312.5,209.5 Z"/></g>
<g><path style="opacity:1" fill="#e5f2f8" d="M 525.5,205.5 C 526.655,212.655 526.822,219.988 526,227.5C 525.586,227.957 525.086,228.291 524.5,228.5C 523.833,236.99 523.167,245.324 522.5,253.5C 522.5,245.5 522.5,237.5 522.5,229.5C 516.833,229.5 511.167,229.5 505.5,229.5C 505.5,228.833 505.5,228.167 505.5,227.5C 507.368,226.737 509.035,225.737 510.5,224.5C 513.686,224.105 516.686,223.105 519.5,221.5C 520.429,222.689 520.762,224.022 520.5,225.5C 521.919,226.451 523.585,226.784 525.5,226.5C 525.5,219.5 525.5,212.5 525.5,205.5 Z"/></g>
<g><path style="opacity:1" fill="#245d95" d="M 369.5,229.5 C 381.833,229.5 394.167,229.5 406.5,229.5C 406.5,237.5 406.5,245.5 406.5,253.5C 394.167,253.5 381.833,253.5 369.5,253.5C 369.5,245.5 369.5,237.5 369.5,229.5 Z"/></g>
<g><path style="opacity:1" fill="#8ab4d5" d="M 326.5,232.5 C 327.5,232.5 328.5,232.5 329.5,232.5C 334.167,233.833 338.833,233.833 343.5,232.5C 346.167,232.5 348.833,232.5 351.5,232.5C 350.5,233.167 349.5,233.833 348.5,234.5C 341.167,234.5 333.833,234.5 326.5,234.5C 326.5,233.833 326.5,233.167 326.5,232.5 Z"/></g>
<g><path style="opacity:1" fill="#235c92" d="M 433.5,204.5 C 432.322,209.191 430.322,213.524 427.5,217.5C 429.167,218.833 430.833,218.833 432.5,217.5C 433.521,214.825 435.187,212.825 437.5,211.5C 438.167,212.167 438.833,212.833 439.5,213.5C 437.58,216.339 435.913,219.339 434.5,222.5C 433.599,223.29 432.932,224.29 432.5,225.5C 431.512,226.795 430.512,228.128 429.5,229.5C 428.957,229.56 428.624,229.893 428.5,230.5C 430.973,231.797 433.307,231.797 435.5,230.5C 435.443,229.391 435.11,228.391 434.5,227.5C 434.5,226.5 434.5,225.5 434.5,224.5C 435.5,224.5 436.5,224.5 437.5,224.5C 438.045,226.593 438.878,228.593 440,230.5C 440.499,226.179 440.666,221.846 440.5,217.5C 444.5,217.5 448.5,217.5 452.5,217.5C 452.5,215.833 452.5,214.167 452.5,212.5C 448.5,212.5 444.5,212.5 440.5,212.5C 440.5,211.5 440.5,210.5 440.5,209.5C 444.702,209.817 448.702,209.483 452.5,208.5C 452.5,206.833 452.5,205.167 452.5,203.5C 453.833,203.5 455.167,203.5 456.5,203.5C 456.5,205.167 456.5,206.833 456.5,208.5C 461.167,208.5 465.833,208.5 470.5,208.5C 470.5,210.167 470.5,211.833 470.5,213.5C 465.833,213.5 461.167,213.5 456.5,213.5C 456.5,214.833 456.5,216.167 456.5,217.5C 460.167,217.5 463.833,217.5 467.5,217.5C 467.5,223.5 467.5,229.5 467.5,235.5C 465.265,235.205 463.265,235.539 461.5,236.5C 462.343,239.516 463.843,242.183 466,244.5C 467.451,246.464 469.284,247.797 471.5,248.5C 471.472,251.342 470.138,252.509 467.5,252C 464.22,249.225 461.554,246.058 459.5,242.5C 458.611,240.07 457.611,238.403 456.5,237.5C 455.834,242.349 455.167,247.349 454.5,252.5C 453.833,247.349 453.166,242.349 452.5,237.5C 451.293,237.378 450.626,238.378 450.5,240.5C 447.633,244.909 444.299,248.909 440.5,252.5C 436.971,251.391 436.638,249.558 439.5,247C 436.722,244.516 435.389,241.349 435.5,237.5C 438.835,238.461 440.501,240.794 440.5,244.5C 443.745,243.255 446.078,240.922 447.5,237.5C 443.143,236.592 438.81,235.592 434.5,234.5C 430.535,235.274 426.535,235.607 422.5,235.5C 422.343,234.127 422.51,232.793 423,231.5C 425.029,228.971 426.862,226.304 428.5,223.5C 426.257,222.526 423.924,222.192 421.5,222.5C 423.66,215.844 426.66,209.51 430.5,203.5C 431.417,204.127 432.417,204.461 433.5,204.5 Z"/></g>
<g><path style="opacity:1" fill="#7aa3c3" d="M 429.5,229.5 C 431.265,230.461 433.265,230.795 435.5,230.5C 433.307,231.797 430.973,231.797 428.5,230.5C 428.624,229.893 428.957,229.56 429.5,229.5 Z"/></g>
<g><path style="opacity:1" fill="#d8ecf6" d="M 432.5,225.5 C 433.167,226.167 433.833,226.833 434.5,227.5C 435.11,228.391 435.443,229.391 435.5,230.5C 433.265,230.795 431.265,230.461 429.5,229.5C 430.512,228.128 431.512,226.795 432.5,225.5 Z"/></g>
<g><path style="opacity:1" fill="#c5e5f5" d="M 444.5,221.5 C 447.167,221.5 449.833,221.5 452.5,221.5C 452.5,225.167 452.5,228.833 452.5,232.5C 449.833,232.5 447.167,232.5 444.5,232.5C 444.5,228.833 444.5,225.167 444.5,221.5 Z"/></g>
<g><path style="opacity:1" fill="#30618f" d="M 446.5,222.5 C 449.068,223.574 450.735,225.574 451.5,228.5C 451.167,229.5 450.5,230.167 449.5,230.5C 448.167,228.5 446.833,226.5 445.5,224.5C 445.863,223.817 446.196,223.15 446.5,222.5 Z"/></g>
<g><path style="opacity:1" fill="#c5e6f5" d="M 456.5,221.5 C 459.167,221.5 461.833,221.5 464.5,221.5C 464.5,225.167 464.5,228.833 464.5,232.5C 461.833,232.5 459.167,232.5 456.5,232.5C 456.5,228.833 456.5,225.167 456.5,221.5 Z"/></g>
<g><path style="opacity:1" fill="#99bcd7" d="M 434.5,222.5 C 435.5,223.167 436.5,223.833 437.5,224.5C 436.5,224.5 435.5,224.5 434.5,224.5C 434.5,225.5 434.5,226.5 434.5,227.5C 433.833,226.833 433.167,226.167 432.5,225.5C 432.932,224.29 433.599,223.29 434.5,222.5 Z"/></g>
<g><path style="opacity:1" fill="#32618d" d="M 460.5,222.5 C 461.756,222.461 462.756,222.961 463.5,224C 462.373,225.753 461.373,227.587 460.5,229.5C 459.675,230.386 458.675,230.719 457.5,230.5C 457.94,227.62 458.94,224.954 460.5,222.5 Z"/></g>
<g><path style="opacity:1" fill="#ecf8fa" d="M 439.5,213.5 C 443.5,213.5 447.5,213.5 451.5,213.5C 451.5,214.5 451.5,215.5 451.5,216.5C 447.629,216.185 443.962,216.518 440.5,217.5C 440.666,221.846 440.499,226.179 440,230.5C 438.878,228.593 438.045,226.593 437.5,224.5C 436.5,223.833 435.5,223.167 434.5,222.5C 435.913,219.339 437.58,216.339 439.5,213.5 Z"/></g>
<g><path style="opacity:1" fill="#85aac7" d="M 452.5,208.5 C 448.702,209.483 444.702,209.817 440.5,209.5C 440.5,210.5 440.5,211.5 440.5,212.5C 444.5,212.5 448.5,212.5 452.5,212.5C 452.5,214.167 452.5,215.833 452.5,217.5C 448.5,217.5 444.5,217.5 440.5,217.5C 443.962,216.518 447.629,216.185 451.5,216.5C 451.5,215.5 451.5,214.5 451.5,213.5C 447.5,213.5 443.5,213.5 439.5,213.5C 438.833,212.833 438.167,212.167 437.5,211.5C 439.048,211.179 439.715,210.179 439.5,208.5C 443.833,208.5 448.167,208.5 452.5,208.5 Z"/></g>
<g><path style="opacity:1" fill="#f1f7fa" d="M 374.5,234.5 C 383.167,234.5 391.833,234.5 400.5,234.5C 400.5,235.833 400.5,237.167 400.5,238.5C 391.833,238.5 383.167,238.5 374.5,238.5C 374.5,237.167 374.5,235.833 374.5,234.5 Z"/></g>
<g><path style="opacity:1" fill="#d9e8f1" d="M 433.5,204.5 C 432.417,204.461 431.417,204.127 430.5,203.5C 426.66,209.51 423.66,215.844 421.5,222.5C 423.924,222.192 426.257,222.526 428.5,223.5C 426.862,226.304 425.029,228.971 423,231.5C 422.51,232.793 422.343,234.127 422.5,235.5C 426.535,235.607 430.535,235.274 434.5,234.5C 438.81,235.592 443.143,236.592 447.5,237.5C 446.078,240.922 443.745,243.255 440.5,244.5C 440.501,240.794 438.835,238.461 435.5,237.5C 435.389,241.349 436.722,244.516 439.5,247C 436.638,249.558 436.971,251.391 440.5,252.5C 437.825,253.747 435.991,252.747 435,249.5C 434.722,250.416 434.222,251.082 433.5,251.5C 433.414,247.143 433.08,242.81 432.5,238.5C 431.5,238.5 430.5,238.5 429.5,238.5C 429.5,241.167 429.5,243.833 429.5,246.5C 428.683,244.031 428.183,241.365 428,238.5C 427.79,240.058 427.29,241.391 426.5,242.5C 426.5,241.167 426.5,239.833 426.5,238.5C 425.167,238.5 423.833,238.5 422.5,238.5C 421.833,243.167 421.167,247.833 420.5,252.5C 420.38,244.402 420.38,236.236 420.5,228C 421.448,227.517 422.448,227.351 423.5,227.5C 423.833,224.5 422.5,223.167 419.5,223.5C 419.655,219.371 420.488,215.371 422,211.5C 422.893,212.711 423.726,212.711 424.5,211.5C 423.689,210.784 423.022,209.95 422.5,209C 423.482,207.946 424.649,207.446 426,207.5C 427.438,206.1 428.271,204.433 428.5,202.5C 430.698,202.12 432.365,202.787 433.5,204.5 Z"/></g>
<g><path style="opacity:1" fill="#82a8c8" d="M 313.5,232.5 C 313.5,233.833 313.5,235.167 313.5,236.5C 316.713,236.19 319.713,236.523 322.5,237.5C 319.167,237.5 315.833,237.5 312.5,237.5C 312.216,235.585 312.549,233.919 313.5,232.5 Z"/></g>
<g><path style="opacity:1" fill="#618fae" d="M 326.5,234.5 C 326.5,235.5 326.5,236.5 326.5,237.5C 331.875,237.172 337.208,237.505 342.5,238.5C 342.376,239.107 342.043,239.44 341.5,239.5C 337.5,238.167 333.5,238.167 329.5,239.5C 328.833,239.5 328.167,239.5 327.5,239.5C 325.568,238.024 325.235,236.357 326.5,234.5 Z"/></g>
<g><path style="opacity:1" fill="#e1f0f6" d="M 470.5,213.5 C 466.647,214.166 462.647,214.833 458.5,215.5C 462.107,216.489 465.774,216.823 469.5,216.5C 469.666,223.508 469.5,230.508 469,237.5C 467.601,238.227 466.101,238.727 464.5,239C 466.853,242.199 469.186,245.365 471.5,248.5C 469.284,247.797 467.451,246.464 466,244.5C 463.843,242.183 462.343,239.516 461.5,236.5C 463.833,236.5 466.167,236.5 468.5,236.5C 468.823,229.978 468.49,223.645 467.5,217.5C 463.833,217.5 460.167,217.5 456.5,217.5C 456.5,216.167 456.5,214.833 456.5,213.5C 461.167,213.5 465.833,213.5 470.5,213.5 Z"/></g>
<g><path style="opacity:1" fill="#d7eff8" d="M 329.5,239.5 C 333.5,238.167 337.5,238.167 341.5,239.5C 340.751,241.246 339.417,242.246 337.5,242.5C 334.655,241.886 331.988,240.886 329.5,239.5 Z"/></g>
<g><path style="opacity:1" fill="#92aec6" d="M 374.5,234.5 C 383.318,233.507 392.318,233.173 401.5,233.5C 401.5,235.5 401.5,237.5 401.5,239.5C 392.318,239.827 383.318,239.493 374.5,238.5C 383.167,238.5 391.833,238.5 400.5,238.5C 400.5,237.167 400.5,235.833 400.5,234.5C 391.833,234.5 383.167,234.5 374.5,234.5 Z"/></g>
<g><path style="opacity:1" fill="#23598a" d="M 433.5,251.5 C 432.167,251.5 430.833,251.5 429.5,251.5C 429.5,249.833 429.5,248.167 429.5,246.5C 429.5,243.833 429.5,241.167 429.5,238.5C 430.5,238.5 431.5,238.5 432.5,238.5C 433.08,242.81 433.414,247.143 433.5,251.5 Z"/></g>
<g><path style="opacity:1" fill="#749dbe" d="M 308.5,235.5 C 308.5,237.167 308.5,238.833 308.5,240.5C 311.833,240.5 315.167,240.5 318.5,240.5C 318.795,242.735 318.461,244.735 317.5,246.5C 317.5,244.833 317.5,243.167 317.5,241.5C 314.167,241.5 310.833,241.5 307.5,241.5C 307.205,239.265 307.539,237.265 308.5,235.5 Z"/></g>
<g><path style="opacity:1" fill="#255a8e" d="M 426.5,242.5 C 425.626,245.789 424.959,249.123 424.5,252.5C 423.167,252.5 421.833,252.5 420.5,252.5C 421.167,247.833 421.833,243.167 422.5,238.5C 423.833,238.5 425.167,238.5 426.5,238.5C 426.5,239.833 426.5,241.167 426.5,242.5 Z"/></g>
<g><path style="opacity:1" fill="#2d6c9f" d="M 148.5,121.5 C 162.811,119.933 174.811,124.266 184.5,134.5C 195.762,153.211 193.428,170.044 177.5,185C 173.828,187.009 170.161,189.009 166.5,191C 187.078,200.251 200.578,215.751 207,237.5C 210.715,249.553 212.548,261.887 212.5,274.5C 210.833,274.5 209.167,274.5 207.5,274.5C 208.731,250.745 202.231,229.412 188,210.5C 161.745,187.005 138.745,190.005 119,219.5C 109.317,236.563 104.817,254.897 105.5,274.5C 104.167,274.5 102.833,274.5 101.5,274.5C 100.29,245.274 109.957,220.441 130.5,200C 135.712,196.116 141.379,193.116 147.5,191C 130.877,184.607 122.544,172.44 122.5,154.5C 123.212,143.909 127.546,135.075 135.5,128C 139.894,125.803 144.227,123.636 148.5,121.5 Z"/></g>
<g><path style="opacity:1" fill="#c1dceb" d="M 142.5,184.5 C 150.018,186.257 157.685,186.924 165.5,186.5C 159.377,188.972 153.044,189.139 146.5,187C 144.934,186.392 143.6,185.558 142.5,184.5 Z"/></g>
<g><path style="opacity:1" fill="#eaf3f5" d="M 169.5,127.5 C 162.856,126.557 156.189,126.391 149.5,127C 146.445,128.947 143.279,130.78 140,132.5C 139.922,134.657 139.755,136.657 139.5,138.5C 138.476,137.147 137.143,136.48 135.5,136.5C 133.725,138.635 133.058,140.969 133.5,143.5C 132.914,143.291 132.414,142.957 132,142.5C 127.471,147.934 125.637,154.267 126.5,161.5C 124.264,149.384 127.931,139.217 137.5,131C 147.664,124.061 158.331,122.894 169.5,127.5 Z"/></g>
<g><path style="opacity:1" fill="#e8f2f5" d="M 169.5,127.5 C 181.431,133.177 187.764,142.677 188.5,156C 188.063,167.208 183.396,176.208 174.5,183C 172.846,183.608 171.179,184.108 169.5,184.5C 169.461,183.417 169.127,182.417 168.5,181.5C 170.412,181.512 172.412,181.179 174.5,180.5C 176.815,177.618 178.981,173.951 181,169.5C 182.351,169.554 183.518,169.054 184.5,168C 186.458,161.634 186.958,155.134 186,148.5C 184.989,147.663 183.822,147.33 182.5,147.5C 183.461,144.672 183.295,142.005 182,139.5C 178.482,138.322 175.482,136.322 173,133.5C 169.981,134.447 169.814,133.78 172.5,131.5C 171.174,130.358 170.174,129.024 169.5,127.5 Z"/></g>
<g><path style="opacity:1" fill="#fcf8f2" d="M 169.5,127.5 C 170.174,129.024 171.174,130.358 172.5,131.5C 169.814,133.78 169.981,134.447 173,133.5C 175.482,136.322 178.482,138.322 182,139.5C 183.295,142.005 183.461,144.672 182.5,147.5C 183.822,147.33 184.989,147.663 186,148.5C 186.958,155.134 186.458,161.634 184.5,168C 183.518,169.054 182.351,169.554 181,169.5C 178.981,173.951 176.815,177.618 174.5,180.5C 172.412,181.179 170.412,181.512 168.5,181.5C 169.127,182.417 169.461,183.417 169.5,184.5C 168.329,185.345 166.995,186.011 165.5,186.5C 157.685,186.924 150.018,186.257 142.5,184.5C 133.321,179.632 127.988,171.965 126.5,161.5C 125.637,154.267 127.471,147.934 132,142.5C 132.414,142.957 132.914,143.291 133.5,143.5C 133.058,140.969 133.725,138.635 135.5,136.5C 137.143,136.48 138.476,137.147 139.5,138.5C 139.755,136.657 139.922,134.657 140,132.5C 143.279,130.78 146.445,128.947 149.5,127C 156.189,126.391 162.856,126.557 169.5,127.5 Z"/></g>
<g><path style="opacity:1" fill="#c4e3f6" d="M 452.5,237.5 C 452.5,243.167 452.5,248.833 452.5,254.5C 453.833,254.5 455.167,254.5 456.5,254.5C 456.5,248.833 456.5,243.167 456.5,237.5C 457.611,238.403 458.611,240.07 459.5,242.5C 457.57,246.373 456.903,250.706 457.5,255.5C 455.5,255.5 453.5,255.5 451.5,255.5C 451.821,250.305 451.487,245.305 450.5,240.5C 450.626,238.378 451.293,237.378 452.5,237.5 Z"/></g>
<g><path style="opacity:1" fill="#21547b" d="M 452.5,237.5 C 453.166,242.349 453.833,247.349 454.5,252.5C 455.167,247.349 455.834,242.349 456.5,237.5C 456.5,243.167 456.5,248.833 456.5,254.5C 455.167,254.5 453.833,254.5 452.5,254.5C 452.5,248.833 452.5,243.167 452.5,237.5 Z"/></g>
<g><path style="opacity:1" fill="#235c92" d="M 326.5,234.5 C 333.833,234.5 341.167,234.5 348.5,234.5C 348.657,235.873 348.49,237.207 348,238.5C 346.485,240.677 344.985,242.844 343.5,245C 345.118,247.484 347.452,248.984 350.5,249.5C 352.038,251.551 351.704,253.218 349.5,254.5C 346.065,252.367 342.565,250.367 339,248.5C 336.177,249.983 333.343,251.483 330.5,253C 327.407,254.026 325.073,253.193 323.5,250.5C 327.209,249.812 330.542,248.312 333.5,246C 331.254,244.961 329.087,243.794 327,242.5C 326.53,241.423 326.697,240.423 327.5,239.5C 328.167,239.5 328.833,239.5 329.5,239.5C 331.988,240.886 334.655,241.886 337.5,242.5C 339.417,242.246 340.751,241.246 341.5,239.5C 342.043,239.44 342.376,239.107 342.5,238.5C 337.208,237.505 331.875,237.172 326.5,237.5C 326.5,236.5 326.5,235.5 326.5,234.5 Z"/></g>
<g><path style="opacity:1" fill="#cbe0f0" d="M 374.5,243.5 C 383.5,243.5 392.5,243.5 401.5,243.5C 401.5,245.167 401.5,246.833 401.5,248.5C 392.5,248.5 383.5,248.5 374.5,248.5C 374.5,246.833 374.5,245.167 374.5,243.5 Z"/></g>
<g><path style="opacity:1" fill="#f8f9f7" d="M 375.5,244.5 C 383.833,244.5 392.167,244.5 400.5,244.5C 400.5,245.5 400.5,246.5 400.5,247.5C 392.167,247.5 383.833,247.5 375.5,247.5C 375.5,246.5 375.5,245.5 375.5,244.5 Z"/></g>
<g><path style="opacity:1" fill="#185894" d="M 500.5,226.5 C 502.415,226.216 504.081,226.549 505.5,227.5C 505.5,228.167 505.5,228.833 505.5,229.5C 510.64,230.488 515.974,230.821 521.5,230.5C 521.5,237.833 521.5,245.167 521.5,252.5C 510.167,252.5 498.833,252.5 487.5,252.5C 487.5,245.167 487.5,237.833 487.5,230.5C 491.702,230.817 495.702,230.483 499.5,229.5C 500.404,228.791 500.737,227.791 500.5,226.5 Z"/></g>
<g><path style="opacity:1" fill="#668eaf" d="M 499.5,229.5 C 495.702,230.483 491.702,230.817 487.5,230.5C 487.5,237.833 487.5,245.167 487.5,252.5C 498.833,252.5 510.167,252.5 521.5,252.5C 521.5,245.167 521.5,237.833 521.5,230.5C 515.974,230.821 510.64,230.488 505.5,229.5C 511.167,229.5 516.833,229.5 522.5,229.5C 522.5,237.5 522.5,245.5 522.5,253.5C 510.5,253.5 498.5,253.5 486.5,253.5C 486.5,245.5 486.5,237.5 486.5,229.5C 490.833,229.5 495.167,229.5 499.5,229.5 Z"/></g>
<g><path style="opacity:1" fill="#b6cfe2" d="M 516.5,244.5 C 517.434,245.568 517.768,246.901 517.5,248.5C 508.833,248.5 500.167,248.5 491.5,248.5C 491.5,246.833 491.5,245.167 491.5,243.5C 500.017,243.174 508.35,243.507 516.5,244.5 Z"/></g>
<g><path style="opacity:1" fill="#f4fafc" d="M 516.5,244.5 C 516.5,245.5 516.5,246.5 516.5,247.5C 508.5,247.5 500.5,247.5 492.5,247.5C 492.5,246.5 492.5,245.5 492.5,244.5C 500.5,244.5 508.5,244.5 516.5,244.5 Z"/></g>
<g><path style="opacity:1" fill="#90aec0" d="M 516.5,234.5 C 517.451,235.919 517.784,237.585 517.5,239.5C 508.833,239.5 500.167,239.5 491.5,239.5C 491.5,237.5 491.5,235.5 491.5,233.5C 500.017,233.174 508.35,233.507 516.5,234.5 Z"/></g>
<g><path style="opacity:1" fill="#f1fafc" d="M 516.5,234.5 C 516.5,235.833 516.5,237.167 516.5,238.5C 508.5,238.5 500.5,238.5 492.5,238.5C 492.5,237.167 492.5,235.833 492.5,234.5C 500.5,234.5 508.5,234.5 516.5,234.5 Z"/></g>
<g><path style="opacity:1" fill="#e9f1f4" d="M 321.5,218.5 C 322.209,219.404 323.209,219.737 324.5,219.5C 325.167,230.167 325.833,230.167 326.5,219.5C 330.702,219.817 334.702,219.483 338.5,218.5C 339.376,218.369 340.043,218.702 340.5,219.5C 336.555,220.491 332.555,220.824 328.5,220.5C 329.382,224.909 328.048,228.409 324.5,231C 325.044,231.717 325.711,232.217 326.5,232.5C 326.5,233.167 326.5,233.833 326.5,234.5C 325.235,236.357 325.568,238.024 327.5,239.5C 326.697,240.423 326.53,241.423 327,242.5C 329.087,243.794 331.254,244.961 333.5,246C 330.542,248.312 327.209,249.812 323.5,250.5C 325.073,253.193 327.407,254.026 330.5,253C 333.343,251.483 336.177,249.983 339,248.5C 342.565,250.367 346.065,252.367 349.5,254.5C 351.704,253.218 352.038,251.551 350.5,249.5C 351.5,249.5 352.5,249.5 353.5,249.5C 353.307,252.308 352.64,254.975 351.5,257.5C 349.801,257.66 348.134,257.494 346.5,257C 345.167,256.333 345.167,255.667 346.5,255C 345.737,254.056 344.737,253.556 343.5,253.5C 340.657,254.771 337.823,254.771 335,253.5C 330.572,254.704 326.072,255.537 321.5,256C 320.333,256.5 319.5,257.333 319,258.5C 316.56,257.344 314.06,257.344 311.5,258.5C 310.558,258.392 309.725,258.059 309,257.5C 308.502,254.518 308.335,251.518 308.5,248.5C 311.167,248.5 313.833,248.5 316.5,248.5C 316.5,246.5 316.5,244.5 316.5,242.5C 313.287,242.81 310.287,242.477 307.5,241.5C 310.833,241.5 314.167,241.5 317.5,241.5C 317.5,243.167 317.5,244.833 317.5,246.5C 317.5,247.5 317.5,248.5 317.5,249.5C 314.833,249.5 312.167,249.5 309.5,249.5C 309.5,250.833 309.5,252.167 309.5,253.5C 313.437,253.793 317.27,253.46 321,252.5C 322.325,247.599 322.825,242.599 322.5,237.5C 319.713,236.523 316.713,236.19 313.5,236.5C 313.5,235.167 313.5,233.833 313.5,232.5C 316.833,232.5 320.167,232.5 323.5,232.5C 323.5,228.5 323.5,224.5 323.5,220.5C 322.022,220.762 320.689,220.429 319.5,219.5C 319.957,218.702 320.624,218.369 321.5,218.5 Z"/></g>
<g><path style="opacity:1" fill="#1d5687" d="M 74.5,338.5 C 76.398,339.096 78.0646,339.096 79.5,338.5C 81.5591,341.611 83.3924,344.944 85,348.5C 86.0391,349.71 87.2058,350.71 88.5,351.5C 94.145,359.27 101.812,364.103 111.5,366C 395.166,366.5 678.833,366.667 962.5,366.5C 684.334,367.5 406,367.833 127.5,367.5C 122.426,367.848 117.426,367.848 112.5,367.5C 111.263,367.556 110.263,368.056 109.5,369C 111.708,369.191 113.708,369.691 115.5,370.5C 109.41,371.448 104.41,369.615 100.5,365C 97.2472,364.799 94.2472,363.966 91.5,362.5C 84.0667,357.986 78.7334,351.653 75.5,343.5C 74.962,341.883 74.6287,340.216 74.5,338.5 Z"/></g>
<g><path style="opacity:1" fill="#0b5697" d="M 973.5,369.5 C 687.508,370.491 401.508,370.825 115.5,370.5C 113.708,369.691 111.708,369.191 109.5,369C 110.263,368.056 111.263,367.556 112.5,367.5C 117.426,367.848 122.426,367.848 127.5,367.5C 407,368.833 686.667,368.833 966.5,367.5C 970.957,366.941 975.124,365.608 979,363.5C 979.5,363.667 980,363.833 980.5,364C 977.98,365.697 975.647,367.53 973.5,369.5 Z"/></g>
<g><path style="opacity:1" fill="#d3e8f2" d="M 88.5,351.5 C 91.7036,352.901 95.0369,353.901 98.5,354.5C 99.9757,359.473 103.309,362.64 108.5,364C 395.166,364.5 681.833,364.667 968.5,364.5C 966.626,365.285 964.626,365.952 962.5,366.5C 678.833,366.667 395.166,366.5 111.5,366C 101.812,364.103 94.145,359.27 88.5,351.5 Z"/></g>
<g><path style="opacity:1" fill="#36668f" d="M 91.5,362.5 C 94.2472,363.966 97.2472,364.799 100.5,365C 104.41,369.615 109.41,371.448 115.5,370.5C 401.508,370.825 687.508,370.491 973.5,369.5C 973.5,369.833 973.5,370.167 973.5,370.5C 970.478,370.804 967.478,371.304 964.5,372C 680.167,372.5 395.834,372.667 111.5,372.5C 103.972,370.736 97.3054,367.403 91.5,362.5 Z"/></g>
<g><path style="opacity:1" fill="#e8fcfe" d="M 973.5,370.5 C 972.365,372.213 970.698,372.88 968.5,372.5C 682.873,373.498 397.206,373.832 111.5,373.5C 111.5,373.167 111.5,372.833 111.5,372.5C 395.834,372.667 680.167,372.5 964.5,372C 967.478,371.304 970.478,370.804 973.5,370.5 Z"/></g>
<g><path style="opacity:1" fill="#faf9f4" d="M 968.5,372.5 C 968.047,373.458 967.381,374.292 966.5,375C 964.302,375.373 962.135,375.873 960,376.5C 677.327,375.615 393.994,375.615 110,376.5C 108.833,376.167 107.667,375.833 106.5,375.5C 108.006,374.253 109.506,374.253 111,375.5C 111.464,374.906 111.631,374.239 111.5,373.5C 397.206,373.832 682.873,373.498 968.5,372.5 Z"/></g>
</svg>
