<?xml version="1.0" encoding="UTF-8"?>
<!DOCTYPE svg PUBLIC "-//W3C//DTD SVG 1.1//EN" "http://www.w3.org/Graphics/SVG/1.1/DTD/svg11.dtd">
<svg xmlns="http://www.w3.org/2000/svg" version="1.1" width="1080px" height="395px" style="shape-rendering:geometricPrecision; text-rendering:geometricPrecision; image-rendering:optimizeQuality; fill-rule:evenodd; clip-rule:evenodd" xmlns:xlink="http://www.w3.org/1999/xlink">
<g><path style="opacity:1" fill="#f9f9f9" d="M -0.5,-0.5 C 359.5,-0.5 719.5,-0.5 1079.5,-0.5C 1079.5,131.167 1079.5,262.833 1079.5,394.5C 719.5,394.5 359.5,394.5 -0.5,394.5C -0.5,262.833 -0.5,131.167 -0.5,-0.5 Z"/></g>
<g><path style="opacity:1" fill="#f6fafe" d="M 969.5,20.5 C 683.5,20.5 397.5,20.5 111.5,20.5C 109.972,20.4827 109.472,19.816 110,18.5C 253.293,18.835 396.793,18.835 540.5,18.5C 683.835,18.5 826.835,19.1667 969.5,20.5 Z"/></g>
<g><path style="opacity:1" fill="#fdf8f4" d="M 111.5,20.5 C 397.5,20.5 683.5,20.5 969.5,20.5C 826.835,21.8333 683.835,22.5 540.5,22.5C 397.165,22.5 254.165,21.8333 111.5,20.5 Z"/></g>
<g><path style="opacity:1" fill="#0e5695" d="M 979.5,28.5 C 977.328,29.2055 975.328,30.2055 973.5,31.5C 974.598,30.603 974.598,29.7697 973.5,29C 687,28.167 400.666,28.3336 114.5,29.5C 111.848,29.4095 109.515,30.0762 107.5,31.5C 96.2435,34.4144 87.9102,41.0811 82.5,51.5C 81.5,51.5 80.5,51.5 79.5,51.5C 79.5,52.5 79.5,53.5 79.5,54.5C 78.5,54.5 77.5,54.5 76.5,54.5C 77.449,52.2627 78.1156,49.9294 78.5,47.5C 85.6885,35.0592 96.3551,27.2259 110.5,24C 396.167,23.3333 681.833,23.3333 967.5,24C 971.837,24.9052 975.837,26.4052 979.5,28.5 Z"/></g>
<g><path style="opacity:1" fill="#03579f" d="M 115.5,24.5 C 398.639,24.0009 681.639,24.5009 964.5,26C 681.167,26.6667 397.833,26.6667 114.5,26C 115.056,25.6174 115.389,25.1174 115.5,24.5 Z"/></g>
<g><path style="opacity:1" fill="#2e6da3" d="M 114.5,29.5 C 400.666,28.3336 687,28.167 973.5,29C 974.598,29.7697 974.598,30.603 973.5,31.5C 971.435,31.4828 969.435,31.1495 967.5,30.5C 683.334,29.5002 399,29.1669 114.5,29.5 Z"/></g>
<g><path style="opacity:1" fill="#e6fdfe" d="M 114.5,29.5 C 399,29.1669 683.334,29.5002 967.5,30.5C 680.812,30.1698 394.146,30.5031 107.5,31.5C 109.515,30.0762 111.848,29.4095 114.5,29.5 Z"/></g>
<g><path style="opacity:1" fill="#f9f9f9" d="M 967.5,30.5 C 969.435,31.1495 971.435,31.4828 973.5,31.5C 985.468,36.1346 993.801,44.4679 998.5,56.5C 996.702,59.031 995.535,62.031 995,65.5C 994.667,154.167 994.333,242.833 994,331.5C 992.306,333.683 992.139,336.016 993.5,338.5C 994.149,336.376 994.983,334.376 996,332.5C 996.333,242.833 996.667,153.167 997,63.5C 998.328,152.419 998.995,241.419 999,330.5C 999.278,329.584 999.778,328.918 1000.5,328.5C 1000.31,332.262 999.642,335.929 998.5,339.5C 993.887,350.113 986.22,357.78 975.5,362.5C 971.929,363.642 968.262,364.309 964.5,364.5C 680.833,364.667 397.166,364.5 113.5,364C 110.522,363.304 107.522,362.804 104.5,362.5C 89.5071,356.546 80.6738,345.546 78,329.5C 77.1768,239.479 77.3435,149.479 78.5,59.5C 80.0114,56.9949 81.3447,54.3283 82.5,51.5C 87.9102,41.0811 96.2435,34.4144 107.5,31.5C 394.146,30.5031 680.812,30.1698 967.5,30.5 Z"/></g>
<g><path style="opacity:1" fill="#fdcbcf" d="M 809.5,53.5 C 824.837,53.3334 840.17,53.5001 855.5,54C 895.932,94.266 936.266,134.766 976.5,175.5C 977.5,201.491 977.833,227.491 977.5,253.5C 965.321,255.197 954.321,252.531 944.5,245.5C 921.162,222.143 897.829,198.81 874.5,175.5C 874.167,175.5 873.833,175.5 873.5,175.5C 870.536,170.869 866.869,166.869 862.5,163.5C 861.738,161.738 860.404,160.738 858.5,160.5C 855.167,156.5 851.5,152.833 847.5,149.5C 847.167,147.167 845.833,145.833 843.5,145.5C 843.631,144.761 843.464,144.094 843,143.5C 819.972,120.805 797.305,97.8053 775,74.5C 772.391,67.7341 771.225,60.7341 771.5,53.5C 779.5,53.5 787.5,53.5 795.5,53.5C 798.731,58.2391 802.564,62.5724 807,66.5C 807.667,65.5 807.667,64.5 807,63.5C 803.629,60.2975 800.462,56.9641 797.5,53.5C 801.707,53.1149 805.707,53.1149 809.5,53.5 Z"/></g>
<g><path style="opacity:1" fill="#e55d55" d="M 809.5,53.5 C 810.458,54.9616 811.624,56.2949 813,57.5C 813.749,58.635 813.583,59.635 812.5,60.5C 810.167,58.8333 808.167,56.8333 806.5,54.5C 807.325,53.6143 808.325,53.281 809.5,53.5 Z"/></g>
<g><path style="opacity:1" fill="#e65045" d="M 795.5,53.5 C 796.167,53.5 796.833,53.5 797.5,53.5C 800.462,56.9641 803.629,60.2975 807,63.5C 807.667,64.5 807.667,65.5 807,66.5C 802.564,62.5724 798.731,58.2391 795.5,53.5 Z"/></g>
<g><path style="opacity:1" fill="#fef8f0" d="M 70.5,61.5 C 70.5,151.833 70.5,242.167 70.5,332.5C 69.8826,332.389 69.3826,332.056 69,331.5C 68.3333,241.833 68.3333,152.167 69,62.5C 69.3826,61.944 69.8826,61.6107 70.5,61.5 Z"/></g>
<g><path style="opacity:1" fill="#e9fcfd" d="M 72.5,60.5 C 71.1732,149.64 71.1732,238.64 72.5,327.5C 72.2511,331.458 72.9177,335.124 74.5,338.5C 74.8333,339.833 75.1667,341.167 75.5,342.5C 71.9401,342.346 70.9401,340.846 72.5,338C 72.2994,335.889 71.6327,334.055 70.5,332.5C 70.5,242.167 70.5,151.833 70.5,61.5C 70.8417,60.6618 71.5084,60.3284 72.5,60.5 Z"/></g>
<g><path style="opacity:1" fill="#fdf8f3" d="M 998.5,56.5 C 998.547,59.5682 999.047,62.5682 1000,65.5C 1000.5,153.166 1000.67,240.833 1000.5,328.5C 999.778,328.918 999.278,329.584 999,330.5C 998.995,241.419 998.328,152.419 997,63.5C 996.667,153.167 996.333,242.833 996,332.5C 994.983,334.376 994.149,336.376 993.5,338.5C 992.139,336.016 992.306,333.683 994,331.5C 994.333,242.833 994.667,154.167 995,65.5C 995.535,62.031 996.702,59.031 998.5,56.5 Z"/></g>
<g><path style="opacity:1" fill="#eafbfe" d="M 998.5,56.5 C 999.345,57.6715 1000.01,59.0048 1000.5,60.5C 1001.83,149.973 1001.83,239.306 1000.5,328.5C 1000.67,240.833 1000.5,153.166 1000,65.5C 999.047,62.5682 998.547,59.5682 998.5,56.5 Z"/></g>
<g><path style="opacity:1" fill="#19568c" d="M 78.5,47.5 C 78.1156,49.9294 77.449,52.2627 76.5,54.5C 77.5,54.5 78.5,54.5 79.5,54.5C 79.5,53.5 79.5,52.5 79.5,51.5C 80.5,51.5 81.5,51.5 82.5,51.5C 81.3447,54.3283 80.0114,56.9949 78.5,59.5C 78.5,58.1667 77.8333,57.5 76.5,57.5C 76.19,56.2617 75.69,56.2617 75,57.5C 74.8823,60.3713 74.2156,63.038 73,65.5C 72.5,152.833 72.3333,240.166 72.5,327.5C 71.1732,238.64 71.1732,149.64 72.5,60.5C 73.733,55.7071 75.733,51.3737 78.5,47.5 Z"/></g>
<g><path style="opacity:1" fill="#05579d" d="M 76.5,57.5 C 77.1643,151.506 76.4976,245.173 74.5,338.5C 72.9177,335.124 72.2511,331.458 72.5,327.5C 72.3333,240.166 72.5,152.833 73,65.5C 74.2156,63.038 74.8823,60.3713 75,57.5C 75.69,56.2617 76.19,56.2617 76.5,57.5 Z"/></g>
<g><path style="opacity:1" fill="#1a5b96" d="M 979.5,28.5 C 994.341,35.181 1003.51,46.5143 1007,62.5C 1007.67,151.167 1007.67,239.833 1007,328.5C 1003.01,351.321 989.844,365.654 967.5,371.5C 680.806,371.831 394.139,371.498 107.5,370.5C 92.8016,365.803 82.135,356.47 75.5,342.5C 75.1667,341.167 74.8333,339.833 74.5,338.5C 76.4976,245.173 77.1643,151.506 76.5,57.5C 77.8333,57.5 78.5,58.1667 78.5,59.5C 77.3435,149.479 77.1768,239.479 78,329.5C 80.6738,345.546 89.5071,356.546 104.5,362.5C 105.93,363.537 107.597,364.204 109.5,364.5C 109.833,365.167 110.167,365.833 110.5,366.5C 108.914,367.148 107.247,367.648 105.5,368C 106.333,368.167 107.167,368.333 108,368.5C 395.317,367.835 682.483,367.169 969.5,366.5C 971.63,365.289 973.63,363.956 975.5,362.5C 986.22,357.78 993.887,350.113 998.5,339.5C 999.956,337.63 1001.29,335.63 1002.5,333.5C 1003.12,333.611 1003.62,333.944 1004,334.5C 1004.67,242.5 1004.67,150.5 1004,58.5C 1003.72,59.4158 1003.22,60.0825 1002.5,60.5C 1001.83,60.5 1001.17,60.5 1000.5,60.5C 1000.01,59.0048 999.345,57.6715 998.5,56.5C 993.801,44.4679 985.468,36.1346 973.5,31.5C 975.328,30.2055 977.328,29.2055 979.5,28.5 Z"/></g>
<g><path style="opacity:1" fill="#0059a8" d="M 110.5,366.5 C 396.833,366.5 683.167,366.5 969.5,366.5C 682.483,367.169 395.317,367.835 108,368.5C 107.167,368.333 106.333,368.167 105.5,368C 107.247,367.648 108.914,367.148 110.5,366.5 Z"/></g>
<g><path style="opacity:1" fill="#175385" d="M 975.5,362.5 C 973.63,363.956 971.63,365.289 969.5,366.5C 683.167,366.5 396.833,366.5 110.5,366.5C 110.167,365.833 109.833,365.167 109.5,364.5C 394.627,365.832 679.627,365.832 964.5,364.5C 968.262,364.309 971.929,363.642 975.5,362.5 Z"/></g>
<g><path style="opacity:1" fill="#d0e3f3" d="M 104.5,362.5 C 107.522,362.804 110.522,363.304 113.5,364C 397.166,364.5 680.833,364.667 964.5,364.5C 679.627,365.832 394.627,365.832 109.5,364.5C 107.597,364.204 105.93,363.537 104.5,362.5 Z"/></g>
<g><path style="opacity:1" fill="#3e729b" d="M 386.5,235.5 C 386.833,235.5 387.167,235.5 387.5,235.5C 387.178,241.358 387.511,247.025 388.5,252.5C 395.167,252.5 401.833,252.5 408.5,252.5C 408.833,252.5 409.167,252.5 409.5,252.5C 402.018,253.492 394.352,253.825 386.5,253.5C 386.5,247.5 386.5,241.5 386.5,235.5 Z"/></g>
<g><path style="opacity:1" fill="#537f9d" d="M 365.5,235.5 C 365.833,235.5 366.167,235.5 366.5,235.5C 366.5,235.833 366.5,236.167 366.5,236.5C 366.5,239.833 366.5,243.167 366.5,246.5C 366.5,248.167 366.5,249.833 366.5,251.5C 371.5,251.5 376.5,251.5 381.5,251.5C 381.5,251.833 381.5,252.167 381.5,252.5C 376.167,252.5 370.833,252.5 365.5,252.5C 365.5,246.833 365.5,241.167 365.5,235.5 Z"/></g>
<g><path style="opacity:1" fill="#1b5b99" d="M 327.5,216.5 C 328.833,216.5 330.167,216.5 331.5,216.5C 331.232,218.099 331.566,219.432 332.5,220.5C 337.305,221.487 342.305,221.821 347.5,221.5C 347.183,225.702 347.517,229.702 348.5,233.5C 350.265,234.461 352.265,234.795 354.5,234.5C 354.5,235.833 354.5,237.167 354.5,238.5C 347.468,238.17 340.468,238.503 333.5,239.5C 333.624,240.107 333.957,240.44 334.5,240.5C 339.451,246.219 345.784,249.386 353.5,250C 353.833,250.333 354.167,250.667 354.5,251C 353.687,252.803 352.52,254.303 351,255.5C 342.331,253.675 335.331,249.342 330,242.5C 324.042,249.146 316.709,253.479 308,255.5C 306.916,254.335 306.083,253.002 305.5,251.5C 331.603,241.831 331.27,237.497 304.5,238.5C 304.5,237.167 304.5,235.833 304.5,234.5C 306.833,234.5 309.167,234.5 311.5,234.5C 311.5,230.167 311.5,225.833 311.5,221.5C 316.695,221.821 321.695,221.487 326.5,220.5C 327.434,219.432 327.768,218.099 327.5,216.5 Z"/></g>
<g><path style="opacity:1" fill="#5987ad" d="M 523.5,208.5 C 524.496,222.657 524.829,236.99 524.5,251.5C 510.99,251.829 497.656,251.496 484.5,250.5C 484.833,250.5 485.167,250.5 485.5,250.5C 485.833,250.5 486.167,250.5 486.5,250.5C 498.833,250.5 511.167,250.5 523.5,250.5C 523.5,236.833 523.5,223.167 523.5,209.5C 523.5,209.167 523.5,208.833 523.5,208.5 Z"/></g>
<g><path style="opacity:1" fill="#12568f" d="M 366.5,236.5 C 366.5,236.167 366.5,235.833 366.5,235.5C 371.5,235.5 376.5,235.5 381.5,235.5C 381.5,240.833 381.5,246.167 381.5,251.5C 376.5,251.5 371.5,251.5 366.5,251.5C 366.5,249.833 366.5,248.167 366.5,246.5C 367.117,246.611 367.617,246.944 368,247.5C 368.498,244.518 368.665,241.518 368.5,238.5C 371.713,238.19 374.713,238.523 377.5,239.5C 378.166,243.021 378.833,246.687 379.5,250.5C 380.493,245.88 380.827,241.214 380.5,236.5C 375.833,236.5 371.167,236.5 366.5,236.5 Z"/></g>
<g><path style="opacity:1" fill="#1b5991" d="M 387.5,235.5 C 394.833,235.5 402.167,235.5 409.5,235.5C 409.5,241.167 409.5,246.833 409.5,252.5C 409.167,252.5 408.833,252.5 408.5,252.5C 408.5,247.167 408.5,241.833 408.5,236.5C 401.8,236.17 395.134,236.503 388.5,237.5C 394.463,238.496 400.463,238.829 406.5,238.5C 406.5,242.5 406.5,246.5 406.5,250.5C 401.167,250.5 395.833,250.5 390.5,250.5C 390.823,246.774 390.489,243.107 389.5,239.5C 388.508,243.783 388.174,248.116 388.5,252.5C 387.511,247.025 387.178,241.358 387.5,235.5 Z"/></g>
<g><path style="opacity:1" fill="#769fbf" d="M 377.5,239.5 C 377.5,239.833 377.5,240.167 377.5,240.5C 375.167,240.5 372.833,240.5 370.5,240.5C 370.5,242.833 370.5,245.167 370.5,247.5C 372.833,247.5 375.167,247.5 377.5,247.5C 375.052,248.473 372.385,248.806 369.5,248.5C 369.5,245.5 369.5,242.5 369.5,239.5C 372.167,239.5 374.833,239.5 377.5,239.5 Z"/></g>
<g><path style="opacity:1" fill="#779ebb" d="M 632.5,239.5 C 631.512,244.64 631.179,249.974 631.5,255.5C 629.833,255.5 628.167,255.5 626.5,255.5C 626.822,249.642 626.489,243.975 625.5,238.5C 625.783,237.711 626.283,237.044 627,236.5C 627.499,242.491 627.666,248.491 627.5,254.5C 628.5,254.5 629.5,254.5 630.5,254.5C 630.334,248.491 630.501,242.491 631,236.5C 632.039,237.244 632.539,238.244 632.5,239.5 Z"/></g>
<g><path style="opacity:1" fill="#245d95" d="M 600.5,245.5 C 599.525,248.067 598.858,250.733 598.5,253.5C 596.365,253.853 595.032,253.02 594.5,251C 595.406,248.209 596.073,245.376 596.5,242.5C 597.434,241.432 597.768,240.099 597.5,238.5C 598.833,238.5 600.167,238.5 601.5,238.5C 601.007,240.806 600.674,243.139 600.5,245.5 Z"/></g>
<g><path style="opacity:1" fill="#1e5c98" d="M 440.5,237.5 C 450.167,237.5 459.833,237.5 469.5,237.5C 469.5,238.5 469.5,239.5 469.5,240.5C 466.287,240.19 463.287,240.523 460.5,241.5C 459.186,243.895 459.186,246.395 460.5,249C 464.917,250.568 466.917,249.068 466.5,244.5C 467.5,244.5 468.5,244.5 469.5,244.5C 469.5,246.167 469.5,247.833 469.5,249.5C 468.972,250.721 468.305,251.887 467.5,253C 457.166,255.833 453.166,252 455.5,241.5C 454.167,241.5 452.833,241.5 451.5,241.5C 450.486,249.181 446.152,253.514 438.5,254.5C 438.238,253.022 438.571,251.689 439.5,250.5C 443.785,248.896 446.118,245.896 446.5,241.5C 444.5,241.5 442.5,241.5 440.5,241.5C 440.5,240.167 440.5,238.833 440.5,237.5 Z"/></g>
<g><path style="opacity:1" fill="#1c5c98" d="M 543.5,230.5 C 555.655,229.505 567.989,229.171 580.5,229.5C 580.66,231.199 580.494,232.866 580,234.5C 576.658,239.008 572.825,243.008 568.5,246.5C 570.909,247.701 572.909,249.367 574.5,251.5C 573.469,252.7 572.635,254.034 572,255.5C 564.01,250.425 555.844,245.758 547.5,241.5C 547.833,239.833 548.833,238.833 550.5,238.5C 554.534,240.175 558.534,241.842 562.5,243.5C 566.139,241.192 569.473,238.525 572.5,235.5C 573.043,235.44 573.376,235.107 573.5,234.5C 563.522,233.501 553.522,233.168 543.5,233.5C 543.5,233.167 543.5,232.833 543.5,232.5C 555.576,232.938 567.576,232.438 579.5,231C 567.505,230.5 555.505,230.333 543.5,230.5 Z"/></g>
<g><path style="opacity:1" fill="#205c94" d="M 420.5,252.5 C 420.448,250.097 420.781,247.764 421.5,245.5C 422.283,243.657 422.95,241.657 423.5,239.5C 424.325,238.614 425.325,238.281 426.5,238.5C 426.154,243.216 425.487,247.883 424.5,252.5C 423.167,252.5 421.833,252.5 420.5,252.5 Z"/></g>
<g><path style="opacity:1" fill="#ddeaf2" d="M 596.5,234.5 C 600.782,235.777 605.116,235.777 609.5,234.5C 613.752,235.75 618.086,236.584 622.5,237C 621.1,240.402 618.933,243.236 616,245.5C 614.725,243.283 613.725,240.949 613,238.5C 611.989,237.663 610.822,237.33 609.5,237.5C 610.167,240.5 610.833,243.5 611.5,246.5C 612.552,246.351 613.552,246.517 614.5,247C 613.29,248.039 612.29,249.206 611.5,250.5C 610.883,250.389 610.383,250.056 610,249.5C 609.05,252.892 606.883,254.059 603.5,253C 602.712,249.924 602.212,246.758 602,243.5C 601.722,244.416 601.222,245.082 600.5,245.5C 600.674,243.139 601.007,240.806 601.5,238.5C 600.167,238.5 598.833,238.5 597.5,238.5C 597.768,240.099 597.434,241.432 596.5,242.5C 596.5,239.833 596.5,237.167 596.5,234.5 Z"/></g>
<g><path style="opacity:1" fill="#1b5b97" d="M 603.5,238.5 C 604.833,238.5 606.167,238.5 607.5,238.5C 607.5,242.833 607.5,247.167 607.5,251.5C 606.5,251.5 605.5,251.5 604.5,251.5C 604.414,247.143 604.08,242.81 603.5,238.5 Z"/></g>
<g><path style="opacity:1" fill="#2c6498" d="M 176.5,132.5 C 217.527,129.568 244.027,147.568 256,186.5C 259.926,213.05 251.759,235.217 231.5,253C 200.435,273.575 170.435,272.242 141.5,249C 124.968,231.399 118.468,210.566 122,186.5C 130.096,158.237 148.263,140.237 176.5,132.5 Z"/></g>
<g><path style="opacity:1" fill="#f4f7f8" d="M 169.5,253.5 C 174.925,254.984 180.591,255.651 186.5,255.5C 192.409,255.651 198.075,254.984 203.5,253.5C 214.547,252.823 224.88,249.823 234.5,244.5C 235.521,245.002 235.688,245.668 235,246.5C 216.856,262.983 195.689,268.483 171.5,263C 162.627,260.158 154.46,255.991 147,250.5C 145.759,249.123 145.592,247.79 146.5,246.5C 153.615,250.53 161.282,252.864 169.5,253.5 Z"/></g>
<g><path style="opacity:1" fill="#41749d" d="M 201.5,251.5 C 201.082,252.222 200.416,252.722 199.5,253C 200.793,253.49 202.127,253.657 203.5,253.5C 198.075,254.984 192.409,255.651 186.5,255.5C 180.591,255.651 174.925,254.984 169.5,253.5C 171.735,253.795 173.735,253.461 175.5,252.5C 184.2,252.711 192.867,252.377 201.5,251.5 Z"/></g>
<g><path style="opacity:1" fill="#c7e0f0" d="M 174.5,248.5 C 174.62,249.586 175.287,250.253 176.5,250.5C 179.783,251.327 183.116,251.66 186.5,251.5C 187.167,251.5 187.833,251.5 188.5,251.5C 190.857,251.663 193.19,251.497 195.5,251C 197.119,250.764 198.119,249.931 198.5,248.5C 200.14,249.32 201.807,250.153 203.5,251C 202.906,251.464 202.239,251.631 201.5,251.5C 192.867,252.377 184.2,252.711 175.5,252.5C 173.369,251.686 171.036,251.186 168.5,251C 170.407,249.878 172.407,249.045 174.5,248.5 Z"/></g>
<g><path style="opacity:1" fill="#f3f8f9" d="M 198.5,248.5 C 198.119,249.931 197.119,250.764 195.5,251C 193.19,251.497 190.857,251.663 188.5,251.5C 187.833,243.5 187.167,243.5 186.5,251.5C 183.116,251.66 179.783,251.327 176.5,250.5C 175.287,250.253 174.62,249.586 174.5,248.5C 179.346,245.577 184.346,242.91 189.5,240.5C 192.197,243.532 195.197,246.198 198.5,248.5 Z"/></g>
<g><path style="opacity:1" fill="#2b566a" d="M 188.5,251.5 C 187.833,251.5 187.167,251.5 186.5,251.5C 187.167,243.5 187.833,243.5 188.5,251.5 Z"/></g>
<g><path style="opacity:1" fill="#b4d2e6" d="M 139.5,232.5 C 140.645,236.323 141.145,240.323 141,244.5C 139.624,243.295 138.458,241.962 137.5,240.5C 139.369,238.365 140.036,235.698 139.5,232.5 Z"/></g>
<g><path style="opacity:1" fill="#285f92" d="M 670.5,230.5 C 669.391,231.29 668.058,231.79 666.5,232C 675.16,232.5 683.827,232.666 692.5,232.5C 692.802,235.059 692.468,237.393 691.5,239.5C 691.5,237.833 691.5,236.167 691.5,234.5C 683.167,234.5 674.833,234.5 666.5,234.5C 666.5,236.167 666.5,237.833 666.5,239.5C 673.833,239.5 681.167,239.5 688.5,239.5C 681.322,240.167 673.989,240.833 666.5,241.5C 675.141,242.498 683.808,242.831 692.5,242.5C 692.768,245.119 692.435,247.619 691.5,250C 682.506,250.5 673.506,250.666 664.5,250.5C 664.83,244.132 664.496,237.798 663.5,231.5C 662.503,238.468 662.17,245.468 662.5,252.5C 673.5,252.5 684.5,252.5 695.5,252.5C 695.5,245.167 695.5,237.833 695.5,230.5C 695.833,230.5 696.167,230.5 696.5,230.5C 696.5,238.167 696.5,245.833 696.5,253.5C 684.833,253.5 673.167,253.5 661.5,253.5C 661.5,245.833 661.5,238.167 661.5,230.5C 664.5,230.5 667.5,230.5 670.5,230.5 Z"/></g>
<g><path style="opacity:1" fill="#0358a3" d="M 408.5,252.5 C 401.833,252.5 395.167,252.5 388.5,252.5C 388.174,248.116 388.508,243.783 389.5,239.5C 390.489,243.107 390.823,246.774 390.5,250.5C 395.833,250.5 401.167,250.5 406.5,250.5C 406.5,246.5 406.5,242.5 406.5,238.5C 400.463,238.829 394.463,238.496 388.5,237.5C 395.134,236.503 401.8,236.17 408.5,236.5C 408.5,241.833 408.5,247.167 408.5,252.5 Z"/></g>
<g><path style="opacity:1" fill="#92b2c5" d="M 391.5,240.5 C 395.97,239.514 400.637,239.181 405.5,239.5C 405.5,242.833 405.5,246.167 405.5,249.5C 400.637,249.819 395.97,249.486 391.5,248.5C 395.833,248.5 400.167,248.5 404.5,248.5C 404.5,245.833 404.5,243.167 404.5,240.5C 400.167,240.5 395.833,240.5 391.5,240.5 Z"/></g>
<g><path style="opacity:1" fill="#f4f9fa" d="M 391.5,240.5 C 395.833,240.5 400.167,240.5 404.5,240.5C 404.5,243.167 404.5,245.833 404.5,248.5C 400.167,248.5 395.833,248.5 391.5,248.5C 391.5,245.833 391.5,243.167 391.5,240.5 Z"/></g>
<g><path style="opacity:1" fill="#d7e6f4" d="M 409.5,235.5 C 402.167,235.5 394.833,235.5 387.5,235.5C 387.167,235.5 386.833,235.5 386.5,235.5C 385.675,239.647 385.175,243.981 385,248.5C 384.697,244.106 384.03,239.773 383,235.5C 382.827,241.348 382.327,247.015 381.5,252.5C 381.5,252.167 381.5,251.833 381.5,251.5C 381.5,246.167 381.5,240.833 381.5,235.5C 376.5,235.5 371.5,235.5 366.5,235.5C 366.167,235.5 365.833,235.5 365.5,235.5C 371.234,234.814 377.067,234.148 383,233.5C 391.932,234.154 400.765,234.821 409.5,235.5 Z"/></g>
<g><path style="opacity:1" fill="#a4cff4" d="M 354.5,238.5 C 347.833,239.167 341.167,239.833 334.5,240.5C 333.957,240.44 333.624,240.107 333.5,239.5C 340.468,238.503 347.468,238.17 354.5,238.5 Z"/></g>
<g><path style="opacity:1" fill="#0358a1" d="M 366.5,236.5 C 371.167,236.5 375.833,236.5 380.5,236.5C 380.827,241.214 380.493,245.88 379.5,250.5C 378.833,246.687 378.166,243.021 377.5,239.5C 374.713,238.523 371.713,238.19 368.5,238.5C 368.665,241.518 368.498,244.518 368,247.5C 367.617,246.944 367.117,246.611 366.5,246.5C 366.5,243.167 366.5,239.833 366.5,236.5 Z"/></g>
<g><path style="opacity:1" fill="#f2f7fa" d="M 377.5,240.5 C 377.5,242.833 377.5,245.167 377.5,247.5C 375.167,247.5 372.833,247.5 370.5,247.5C 370.5,245.167 370.5,242.833 370.5,240.5C 372.833,240.5 375.167,240.5 377.5,240.5 Z"/></g>
<g><path style="opacity:1" fill="#e1eef5" d="M 459.5,220.5 C 459.5,221.5 459.5,222.5 459.5,223.5C 458.167,223.5 456.833,223.5 455.5,223.5C 455.5,224.5 455.5,225.5 455.5,226.5C 456.833,226.5 458.167,226.5 459.5,226.5C 459.5,227.833 459.5,229.167 459.5,230.5C 457.833,230.5 456.167,230.5 454.5,230.5C 454.5,231.5 454.5,232.5 454.5,233.5C 459.64,234.488 464.974,234.821 470.5,234.5C 470.5,232.833 470.5,231.167 470.5,229.5C 471.877,236.231 471.543,242.898 469.5,249.5C 469.5,247.833 469.5,246.167 469.5,244.5C 468.5,244.5 467.5,244.5 466.5,244.5C 466.917,249.068 464.917,250.568 460.5,249C 459.186,246.395 459.186,243.895 460.5,241.5C 463.833,241.5 467.167,241.5 470.5,241.5C 470.5,239.833 470.5,238.167 470.5,236.5C 460.319,236.173 450.319,236.506 440.5,237.5C 440.5,238.833 440.5,240.167 440.5,241.5C 442.5,241.5 444.5,241.5 446.5,241.5C 446.118,245.896 443.785,248.896 439.5,250.5C 438.571,251.689 438.238,253.022 438.5,254.5C 437.883,254.389 437.383,254.056 437,253.5C 436.703,250.086 436.036,246.753 435,243.5C 434.817,246.365 434.317,249.031 433.5,251.5C 433.533,247.131 433.2,242.798 432.5,238.5C 431.5,238.5 430.5,238.5 429.5,238.5C 429.5,241.167 429.5,243.833 429.5,246.5C 428.778,246.082 428.278,245.416 428,244.5C 426.236,247.557 425.402,250.89 425.5,254.5C 423.219,254.923 421.552,254.256 420.5,252.5C 421.833,252.5 423.167,252.5 424.5,252.5C 425.487,247.883 426.154,243.216 426.5,238.5C 425.325,238.281 424.325,238.614 423.5,239.5C 422.95,241.657 422.283,243.657 421.5,245.5C 421.616,242.14 421.949,238.807 422.5,235.5C 428.62,235.708 434.62,235.708 440.5,235.5C 442.415,235.784 444.081,235.451 445.5,234.5C 448.127,233.908 450.794,233.575 453.5,233.5C 453.5,232.167 453.5,230.833 453.5,229.5C 452.167,229.5 450.833,229.5 449.5,229.5C 449.5,228.5 449.5,227.5 449.5,226.5C 450.833,226.5 452.167,226.5 453.5,226.5C 453.5,225.5 453.5,224.5 453.5,223.5C 451.027,223.912 449.694,222.912 449.5,220.5C 452.833,219.167 456.167,219.167 459.5,220.5 Z"/></g>
<g><path style="opacity:1" fill="#205c98" d="M 438.5,238.5 C 440.076,241.655 441.076,244.988 441.5,248.5C 440.167,248.5 438.833,248.5 437.5,248.5C 437.167,246.5 436.833,244.5 436.5,242.5C 436.157,240.517 436.824,239.183 438.5,238.5 Z"/></g>
<g><path style="opacity:1" fill="#215c96" d="M 433.5,251.5 C 432.167,251.5 430.833,251.5 429.5,251.5C 429.5,249.833 429.5,248.167 429.5,246.5C 429.5,243.833 429.5,241.167 429.5,238.5C 430.5,238.5 431.5,238.5 432.5,238.5C 433.2,242.798 433.533,247.131 433.5,251.5 Z"/></g>
<g><path style="opacity:1" fill="#4f789e" d="M 438.5,238.5 C 436.824,239.183 436.157,240.517 436.5,242.5C 433.797,240.466 433.963,238.799 437,237.5C 437.765,237.57 438.265,237.903 438.5,238.5 Z"/></g>
<g><path style="opacity:1" fill="#a5c1d9" d="M 440.5,237.5 C 450.319,236.506 460.319,236.173 470.5,236.5C 470.5,238.167 470.5,239.833 470.5,241.5C 467.167,241.5 463.833,241.5 460.5,241.5C 463.287,240.523 466.287,240.19 469.5,240.5C 469.5,239.5 469.5,238.5 469.5,237.5C 459.833,237.5 450.167,237.5 440.5,237.5 Z"/></g>
<g><path style="opacity:1" fill="#84afd1" d="M 439.5,231.5 C 440.167,231.5 440.833,231.5 441.5,231.5C 441.5,232.5 441.5,233.5 441.5,234.5C 442.833,234.5 444.167,234.5 445.5,234.5C 444.081,235.451 442.415,235.784 440.5,235.5C 440.167,234.167 439.833,232.833 439.5,231.5 Z"/></g>
<g><path style="opacity:1" fill="#1a5a97" d="M 613.5,229.5 C 613.987,230.473 614.487,231.473 615,232.5C 615.499,227.511 615.666,222.511 615.5,217.5C 619.167,217.5 622.833,217.5 626.5,217.5C 626.5,216.167 626.5,214.833 626.5,213.5C 622.5,213.5 618.5,213.5 614.5,213.5C 614.5,212.167 614.5,210.833 614.5,209.5C 618.702,209.817 622.702,209.483 626.5,208.5C 627.434,207.432 627.768,206.099 627.5,204.5C 628.5,204.5 629.5,204.5 630.5,204.5C 630.232,206.099 630.566,207.432 631.5,208.5C 635.634,209.485 639.968,209.818 644.5,209.5C 644.5,210.5 644.5,211.5 644.5,212.5C 639.968,212.182 635.634,212.515 631.5,213.5C 630.566,214.568 630.232,215.901 630.5,217.5C 634.5,217.5 638.5,217.5 642.5,217.5C 642.5,223.833 642.5,230.167 642.5,236.5C 640.076,236.192 637.743,236.526 635.5,237.5C 638.106,241.609 641.273,245.276 645,248.5C 645.783,250.319 645.283,251.652 643.5,252.5C 638.713,249.052 635.046,244.719 632.5,239.5C 632.539,238.244 632.039,237.244 631,236.5C 630.501,242.491 630.334,248.491 630.5,254.5C 629.5,254.5 628.5,254.5 627.5,254.5C 627.666,248.491 627.499,242.491 627,236.5C 626.283,237.044 625.783,237.711 625.5,238.5C 623.057,244.459 619.223,249.459 614,253.5C 612.955,252.627 612.122,251.627 611.5,250.5C 612.29,249.206 613.29,248.039 614.5,247C 613.552,246.517 612.552,246.351 611.5,246.5C 610.833,243.5 610.167,240.5 609.5,237.5C 610.822,237.33 611.989,237.663 613,238.5C 613.725,240.949 614.725,243.283 616,245.5C 618.933,243.236 621.1,240.402 622.5,237C 618.086,236.584 613.752,235.75 609.5,234.5C 605.116,235.777 600.782,235.777 596.5,234.5C 596.351,233.448 596.517,232.448 597,231.5C 599.735,229.268 601.902,226.601 603.5,223.5C 600.914,222.52 598.247,222.187 595.5,222.5C 595.343,221.127 595.51,219.793 596,218.5C 599.429,214.228 602.262,209.562 604.5,204.5C 605.962,203.529 607.295,203.862 608.5,205.5C 606.547,209.909 604.213,214.076 601.5,218C 603.167,218.667 604.833,218.667 606.5,218C 608,215.833 609.5,213.667 611,211.5C 612.158,211.998 612.991,212.831 613.5,214C 610.637,220.195 606.97,225.861 602.5,231C 604.81,231.497 607.143,231.663 609.5,231.5C 609.014,229.193 609.014,227.027 609.5,225C 612.031,225.128 613.365,226.628 613.5,229.5 Z"/></g>
<g><path style="opacity:1" fill="#bed7e9" d="M 543.5,233.5 C 553.522,233.168 563.522,233.501 573.5,234.5C 573.376,235.107 573.043,235.44 572.5,235.5C 562.833,234.833 553.167,234.167 543.5,233.5 Z"/></g>
<g><path style="opacity:1" fill="#87a9c1" d="M 464.5,226.5 C 464.5,227.5 464.5,228.5 464.5,229.5C 466.5,229.5 468.5,229.5 470.5,229.5C 470.5,231.167 470.5,232.833 470.5,234.5C 464.974,234.821 459.64,234.488 454.5,233.5C 459.5,233.5 464.5,233.5 469.5,233.5C 469.5,232.5 469.5,231.5 469.5,230.5C 467.5,230.5 465.5,230.5 463.5,230.5C 463.232,228.901 463.566,227.568 464.5,226.5 Z"/></g>
<g><path style="opacity:1" fill="#9cc0de" d="M 326.5,225.5 C 327.477,228.287 327.81,231.287 327.5,234.5C 323.629,234.815 319.962,234.482 316.5,233.5C 319.833,233.5 323.167,233.5 326.5,233.5C 326.5,230.833 326.5,228.167 326.5,225.5 Z"/></g>
<g><path style="opacity:1" fill="#5e8eb2" d="M 237.5,228.5 C 238.167,232.833 238.833,237.167 239.5,241.5C 239.217,242.289 238.717,242.956 238,243.5C 237.501,238.511 237.334,233.511 237.5,228.5 Z"/></g>
<g><path style="opacity:1" fill="#07579d" d="M 675.5,226.5 C 677.167,226.5 678.833,226.5 680.5,226.5C 680.5,227.167 680.5,227.833 680.5,228.5C 679.957,228.56 679.624,228.893 679.5,229.5C 684.792,230.495 690.125,230.828 695.5,230.5C 695.5,237.833 695.5,245.167 695.5,252.5C 684.5,252.5 673.5,252.5 662.5,252.5C 662.17,245.468 662.503,238.468 663.5,231.5C 664.496,237.798 664.83,244.132 664.5,250.5C 673.506,250.666 682.506,250.5 691.5,250C 692.435,247.619 692.768,245.119 692.5,242.5C 683.808,242.831 675.141,242.498 666.5,241.5C 673.989,240.833 681.322,240.167 688.5,239.5C 689.5,239.5 690.5,239.5 691.5,239.5C 692.468,237.393 692.802,235.059 692.5,232.5C 683.827,232.666 675.16,232.5 666.5,232C 668.058,231.79 669.391,231.29 670.5,230.5C 672.099,230.768 673.432,230.434 674.5,229.5C 675.11,228.609 675.443,227.609 675.5,226.5 Z"/></g>
<g><path style="opacity:1" fill="#ddeaf0" d="M 666.5,243.5 C 674.833,243.5 683.167,243.5 691.5,243.5C 691.5,245.167 691.5,246.833 691.5,248.5C 683.167,248.5 674.833,248.5 666.5,248.5C 666.5,246.833 666.5,245.167 666.5,243.5 Z"/></g>
<g><path style="opacity:1" fill="#f0f7fa" d="M 691.5,239.5 C 690.5,239.5 689.5,239.5 688.5,239.5C 681.167,239.5 673.833,239.5 666.5,239.5C 666.5,237.833 666.5,236.167 666.5,234.5C 674.833,234.5 683.167,234.5 691.5,234.5C 691.5,236.167 691.5,237.833 691.5,239.5 Z"/></g>
<g><path style="opacity:1" fill="#98bdd5" d="M 631.5,221.5 C 631.198,224.059 631.532,226.393 632.5,228.5C 633.031,231.767 634.031,232.1 635.5,229.5C 635.821,231.048 636.821,231.715 638.5,231.5C 638.802,228.941 638.468,226.607 637.5,224.5C 637.5,224.167 637.5,223.833 637.5,223.5C 638.338,223.158 638.672,222.492 638.5,221.5C 639.482,224.962 639.815,228.629 639.5,232.5C 636.5,232.5 633.5,232.5 630.5,232.5C 630.185,228.629 630.518,224.962 631.5,221.5 Z"/></g>
<g><path style="opacity:1" fill="#b4d1e4" d="M 618.5,221.5 C 621.5,221.5 624.5,221.5 627.5,221.5C 627.665,224.85 627.498,228.183 627,231.5C 624.281,232.444 621.448,232.777 618.5,232.5C 618.5,228.833 618.5,225.167 618.5,221.5 Z"/></g>
<g><path style="opacity:1" fill="#0357a1" d="M 543.5,230.5 C 555.505,230.333 567.505,230.5 579.5,231C 567.576,232.438 555.576,232.938 543.5,232.5C 543.5,231.833 543.5,231.167 543.5,230.5 Z"/></g>
<g><path style="opacity:1" fill="#1f5c98" d="M 433.5,224.5 C 437.892,224.526 439.892,226.859 439.5,231.5C 439.833,232.833 440.167,234.167 440.5,235.5C 434.62,235.708 428.62,235.708 422.5,235.5C 423.405,231.024 425.405,227.024 428.5,223.5C 426.257,222.526 423.924,222.192 421.5,222.5C 421.343,221.127 421.51,219.793 422,218.5C 424.827,214.845 426.993,210.845 428.5,206.5C 429.265,205.34 430.265,204.34 431.5,203.5C 432.72,203.887 433.387,204.72 433.5,206C 431.719,209.948 429.719,213.781 427.5,217.5C 428.723,218.614 430.056,218.781 431.5,218C 432.985,215.523 434.819,213.356 437,211.5C 438.28,211.613 439.113,212.28 439.5,213.5C 437.443,217.201 435.443,220.867 433.5,224.5 Z"/></g>
<g><path style="opacity:1" fill="#abc9e1" d="M 674.5,229.5 C 673.432,230.434 672.099,230.768 670.5,230.5C 667.5,230.5 664.5,230.5 661.5,230.5C 661.5,238.167 661.5,245.833 661.5,253.5C 660.508,245.684 660.174,237.684 660.5,229.5C 665.167,229.5 669.833,229.5 674.5,229.5 Z"/></g>
<g><path style="opacity:1" fill="#145999" d="M 445.5,220.5 C 446.833,220.5 448.167,220.5 449.5,220.5C 449.694,222.912 451.027,223.912 453.5,223.5C 453.5,224.5 453.5,225.5 453.5,226.5C 452.167,226.5 450.833,226.5 449.5,226.5C 449.5,227.5 449.5,228.5 449.5,229.5C 450.833,229.5 452.167,229.5 453.5,229.5C 453.5,230.833 453.5,232.167 453.5,233.5C 450.794,233.575 448.127,233.908 445.5,234.5C 444.167,234.5 442.833,234.5 441.5,234.5C 441.5,233.5 441.5,232.5 441.5,231.5C 442.833,231.5 444.167,231.5 445.5,231.5C 445.5,229.833 445.5,228.167 445.5,226.5C 444.167,226.5 442.833,226.5 441.5,226.5C 441.5,225.5 441.5,224.5 441.5,223.5C 443.099,223.768 444.432,223.434 445.5,222.5C 445.5,221.833 445.5,221.167 445.5,220.5 Z"/></g>
<g><path style="opacity:1" fill="#74a2c8" d="M 412.5,226.5 C 413.451,227.919 413.784,229.585 413.5,231.5C 403.319,231.827 393.319,231.494 383.5,230.5C 393.167,230.5 402.833,230.5 412.5,230.5C 412.5,229.167 412.5,227.833 412.5,226.5 Z"/></g>
<g><path style="opacity:1" fill="#25619b" d="M 365.5,227.5 C 370.833,227.5 376.167,227.5 381.5,227.5C 381.5,228.833 381.5,230.167 381.5,231.5C 376.167,231.5 370.833,231.5 365.5,231.5C 365.5,230.167 365.5,228.833 365.5,227.5 Z"/></g>
<g><path style="opacity:1" fill="#709ec4" d="M 680.5,228.5 C 685.833,229.167 691.167,229.833 696.5,230.5C 696.167,230.5 695.833,230.5 695.5,230.5C 690.125,230.828 684.792,230.495 679.5,229.5C 679.624,228.893 679.957,228.56 680.5,228.5 Z"/></g>
<g><path style="opacity:1" fill="#ddeef6" d="M 433.5,224.5 C 434.15,226.435 434.483,228.435 434.5,230.5C 432.712,230.785 431.045,230.452 429.5,229.5C 430.612,227.581 431.946,225.914 433.5,224.5 Z"/></g>
<g><path style="opacity:1" fill="#2d5d7d" d="M 580.5,229.5 C 567.989,229.171 555.655,229.505 543.5,230.5C 543.5,231.167 543.5,231.833 543.5,232.5C 543.5,232.833 543.5,233.167 543.5,233.5C 542.549,232.081 542.216,230.415 542.5,228.5C 555.344,228.171 568.011,228.505 580.5,229.5 Z"/></g>
<g><path style="opacity:1" fill="#eef4f8" d="M 332.5,225.5 C 336.167,225.5 339.833,225.5 343.5,225.5C 343.5,228.5 343.5,231.5 343.5,234.5C 339.833,234.5 336.167,234.5 332.5,234.5C 332.5,231.5 332.5,228.5 332.5,225.5 Z"/></g>
<g><path style="opacity:1" fill="#f7fafa" d="M 326.5,225.5 C 326.5,228.167 326.5,230.833 326.5,233.5C 323.167,233.5 319.833,233.5 316.5,233.5C 316.5,230.833 316.5,228.167 316.5,225.5C 319.833,225.5 323.167,225.5 326.5,225.5 Z"/></g>
<g><path style="opacity:1" fill="#def0f6" d="M 637.5,224.5 C 638.468,226.607 638.802,228.941 638.5,231.5C 636.821,231.715 635.821,231.048 635.5,229.5C 635.893,227.716 636.559,226.05 637.5,224.5 Z"/></g>
<g><path style="opacity:1" fill="#286098" d="M 621.5,222.5 C 624.137,224.482 625.47,227.148 625.5,230.5C 621.509,229.185 620.176,226.518 621.5,222.5 Z"/></g>
<g><path style="opacity:1" fill="#89aeca" d="M 693.5,222.5 C 693.56,221.957 693.893,221.624 694.5,221.5C 695.452,223.045 695.785,224.712 695.5,226.5C 696.833,226.5 698.167,226.5 699.5,226.5C 698.081,227.451 696.415,227.784 694.5,227.5C 694.784,225.585 694.451,223.919 693.5,222.5 Z"/></g>
<g><path style="opacity:1" fill="#185a94" d="M 411.5,210.5 C 406.5,210.5 401.5,210.5 396.5,210.5C 396.5,212.167 396.5,213.833 396.5,215.5C 399.962,216.482 403.629,216.815 407.5,216.5C 407.187,220.042 407.521,223.375 408.5,226.5C 409.833,226.5 411.167,226.5 412.5,226.5C 412.5,227.833 412.5,229.167 412.5,230.5C 402.833,230.5 393.167,230.5 383.5,230.5C 383.5,229.167 383.5,227.833 383.5,226.5C 385.5,226.5 387.5,226.5 389.5,226.5C 389.833,224.5 390.167,222.5 390.5,220.5C 389.432,219.566 388.099,219.232 386.5,219.5C 386.5,218.5 386.5,217.5 386.5,216.5C 388.415,216.784 390.081,216.451 391.5,215.5C 391.5,213.833 391.5,212.167 391.5,210.5C 389.5,210.5 387.5,210.5 385.5,210.5C 385.5,209.167 385.5,207.833 385.5,206.5C 394.167,206.5 402.833,206.5 411.5,206.5C 411.5,207.833 411.5,209.167 411.5,210.5 Z"/></g>
<g><path style="opacity:1" fill="#1d5b95" d="M 675.5,225.5 C 674.5,225.5 673.5,225.5 672.5,225.5C 672.5,224.5 672.5,223.5 672.5,222.5C 666.763,223.968 661.097,225.635 655.5,227.5C 655.238,226.022 655.571,224.689 656.5,223.5C 661.79,221.793 666.957,219.793 672,217.5C 672.796,214.961 672.629,212.628 671.5,210.5C 666.695,209.513 661.695,209.179 656.5,209.5C 656.5,208.5 656.5,207.5 656.5,206.5C 663.167,206.5 669.833,206.5 676.5,206.5C 676.823,213.022 676.49,219.355 675.5,225.5 Z"/></g>
<g><path style="opacity:1" fill="#dfeff6" d="M 631.5,221.5 C 633.833,221.5 636.167,221.5 638.5,221.5C 638.672,222.492 638.338,223.158 637.5,223.5C 636.791,222.596 635.791,222.263 634.5,222.5C 634.396,224.703 633.73,226.703 632.5,228.5C 631.532,226.393 631.198,224.059 631.5,221.5 Z"/></g>
<g><path style="opacity:1" fill="#7194a9" d="M 445.5,222.5 C 444.432,223.434 443.099,223.768 441.5,223.5C 441.5,224.5 441.5,225.5 441.5,226.5C 440.566,225.432 440.232,224.099 440.5,222.5C 442.167,222.5 443.833,222.5 445.5,222.5 Z"/></g>
<g><path style="opacity:1" fill="#99b9d2" d="M 311.5,220.5 C 316.5,220.5 321.5,220.5 326.5,220.5C 321.695,221.487 316.695,221.821 311.5,221.5C 311.5,225.833 311.5,230.167 311.5,234.5C 309.167,234.5 306.833,234.5 304.5,234.5C 306.265,233.539 308.265,233.205 310.5,233.5C 310.182,228.968 310.515,224.634 311.5,220.5 Z"/></g>
<g><path style="opacity:1" fill="#275e93" d="M 637.5,223.5 C 637.5,223.833 637.5,224.167 637.5,224.5C 636.559,226.05 635.893,227.716 635.5,229.5C 634.031,232.1 633.031,231.767 632.5,228.5C 633.73,226.703 634.396,224.703 634.5,222.5C 635.791,222.263 636.791,222.596 637.5,223.5 Z"/></g>
<g><path style="opacity:1" fill="#6b95b1" d="M 396.5,215.5 C 400.5,215.5 404.5,215.5 408.5,215.5C 408.5,219.167 408.5,222.833 408.5,226.5C 407.521,223.375 407.187,220.042 407.5,216.5C 403.629,216.815 399.962,216.482 396.5,215.5 Z"/></g>
<g><path style="opacity:1" fill="#195a95" d="M 459.5,220.5 C 460.833,220.5 462.167,220.5 463.5,220.5C 464.552,222.256 466.219,222.923 468.5,222.5C 468.5,223.833 468.5,225.167 468.5,226.5C 467.167,226.5 465.833,226.5 464.5,226.5C 463.566,227.568 463.232,228.901 463.5,230.5C 465.5,230.5 467.5,230.5 469.5,230.5C 469.5,231.5 469.5,232.5 469.5,233.5C 464.5,233.5 459.5,233.5 454.5,233.5C 454.5,232.5 454.5,231.5 454.5,230.5C 456.167,230.5 457.833,230.5 459.5,230.5C 459.5,229.167 459.5,227.833 459.5,226.5C 458.167,226.5 456.833,226.5 455.5,226.5C 455.5,225.5 455.5,224.5 455.5,223.5C 456.833,223.5 458.167,223.5 459.5,223.5C 459.5,222.5 459.5,221.5 459.5,220.5 Z"/></g>
<g><path style="opacity:1" fill="#e6f3f7" d="M 394.5,220.5 C 397.5,220.5 400.5,220.5 403.5,220.5C 403.5,222.5 403.5,224.5 403.5,226.5C 400.5,226.5 397.5,226.5 394.5,226.5C 394.5,224.5 394.5,222.5 394.5,220.5 Z"/></g>
<g><path style="opacity:1" fill="#e55046" d="M 957.5,215.5 C 962.419,218.748 966.753,222.748 970.5,227.5C 969.998,228.521 969.332,228.688 968.5,228C 964.23,224.239 960.563,220.072 957.5,215.5 Z"/></g>
<g><path style="opacity:1" fill="#b3cde4" d="M 615.5,217.5 C 615.666,222.511 615.499,227.511 615,232.5C 614.487,231.473 613.987,230.473 613.5,229.5C 614.167,225.5 614.833,221.5 615.5,217.5 Z"/></g>
<g><path style="opacity:1" fill="#1a5e9f" d="M 365.5,219.5 C 370.833,219.5 376.167,219.5 381.5,219.5C 381.5,220.833 381.5,222.167 381.5,223.5C 376.167,223.5 370.833,223.5 365.5,223.5C 365.5,222.167 365.5,220.833 365.5,219.5 Z"/></g>
<g><path style="opacity:1" fill="#618ba6" d="M 332.5,220.5 C 337.833,220.5 343.167,220.5 348.5,220.5C 348.5,224.833 348.5,229.167 348.5,233.5C 347.517,229.702 347.183,225.702 347.5,221.5C 342.305,221.821 337.305,221.487 332.5,220.5 Z"/></g>
<g><path style="opacity:1" fill="#709dc6" d="M 469.5,215.5 C 470.434,216.568 470.768,217.901 470.5,219.5C 467.941,219.198 465.607,219.532 463.5,220.5C 462.167,220.5 460.833,220.5 459.5,220.5C 456.167,219.167 452.833,219.167 449.5,220.5C 448.167,220.5 446.833,220.5 445.5,220.5C 443.833,219.833 442.167,219.167 440.5,218.5C 450.167,218.5 459.833,218.5 469.5,218.5C 469.5,217.5 469.5,216.5 469.5,215.5 Z"/></g>
<g><path style="opacity:1" fill="#719dc0" d="M 679.5,223.5 C 680.404,224.209 680.737,225.209 680.5,226.5C 678.833,226.5 677.167,226.5 675.5,226.5C 675.5,226.167 675.5,225.833 675.5,225.5C 676.49,219.355 676.823,213.022 676.5,206.5C 669.833,206.5 663.167,206.5 656.5,206.5C 656.5,207.5 656.5,208.5 656.5,209.5C 661.695,209.179 666.695,209.513 671.5,210.5C 667.958,210.187 664.625,210.521 661.5,211.5C 661.167,211.5 660.833,211.5 660.5,211.5C 659.081,210.549 657.415,210.216 655.5,210.5C 655.5,208.833 655.5,207.167 655.5,205.5C 662.833,205.5 670.167,205.5 677.5,205.5C 677.17,212.2 677.503,218.866 678.5,225.5C 679.298,225.043 679.631,224.376 679.5,223.5 Z"/></g>
<g><path style="opacity:1" fill="#6991ad" d="M 327.5,216.5 C 328.919,215.549 330.585,215.216 332.5,215.5C 332.5,217.167 332.5,218.833 332.5,220.5C 331.566,219.432 331.232,218.099 331.5,216.5C 330.167,216.5 328.833,216.5 327.5,216.5 Z"/></g>
<g><path style="opacity:1" fill="#1f5d98" d="M 660.5,211.5 C 660.833,211.5 661.167,211.5 661.5,211.5C 663.509,213.169 665.509,214.836 667.5,216.5C 666.855,217.646 666.022,218.646 665,219.5C 662.833,217.333 660.667,215.167 658.5,213C 659.044,212.283 659.711,211.783 660.5,211.5 Z"/></g>
<g><path style="opacity:1" fill="#6491b6" d="M 391.5,215.5 C 390.081,216.451 388.415,216.784 386.5,216.5C 386.5,217.5 386.5,218.5 386.5,219.5C 388.099,219.232 389.432,219.566 390.5,220.5C 388.833,220.5 387.167,220.5 385.5,220.5C 385.5,218.833 385.5,217.167 385.5,215.5C 387.5,215.5 389.5,215.5 391.5,215.5 Z"/></g>
<g><path style="opacity:1" fill="#5380a7" d="M 377.5,210.5 C 379.833,210.5 382.167,210.5 384.5,210.5C 384.5,212.167 384.5,213.833 384.5,215.5C 377.313,215.825 370.313,215.491 363.5,214.5C 370.167,214.5 376.833,214.5 383.5,214.5C 383.5,213.5 383.5,212.5 383.5,211.5C 381.265,211.795 379.265,211.461 377.5,210.5 Z"/></g>
<g><path style="opacity:1" fill="#e65e55" d="M 963.5,209.5 C 968.072,212.563 972.239,216.23 976,220.5C 976.749,221.635 976.583,222.635 975.5,223.5C 970.323,219.671 966.323,215.004 963.5,209.5 Z"/></g>
<g><path style="opacity:1" fill="#246099" d="M 682.5,211.5 C 683.167,211.5 683.833,211.5 684.5,211.5C 686.479,212.812 688.145,214.479 689.5,216.5C 688.855,217.646 688.022,218.646 687,219.5C 685.333,217.833 683.667,216.167 682,214.5C 681.26,213.251 681.427,212.251 682.5,211.5 Z"/></g>
<g><path style="opacity:1" fill="#0458a0" d="M 520.5,209.5 C 521.5,209.5 522.5,209.5 523.5,209.5C 523.5,223.167 523.5,236.833 523.5,250.5C 511.167,250.5 498.833,250.5 486.5,250.5C 486.5,237.167 486.5,223.833 486.5,210.5C 498.012,210.828 509.346,210.495 520.5,209.5 Z"/></g>
<g><path style="opacity:1" fill="#1a5687" d="M 489.5,246.5 C 499.5,246.5 509.5,246.5 519.5,246.5C 519.828,235.321 519.495,224.321 518.5,213.5C 509.167,213.5 499.833,213.5 490.5,213.5C 489.506,223.987 489.172,234.654 489.5,245.5C 488.505,234.679 488.172,223.679 488.5,212.5C 499.167,212.5 509.833,212.5 520.5,212.5C 520.5,224.167 520.5,235.833 520.5,247.5C 509.986,247.828 499.653,247.494 489.5,246.5 Z"/></g>
<g><path style="opacity:1" fill="#b2cee1" d="M 490.5,213.5 C 490.5,224.167 490.5,234.833 490.5,245.5C 499.833,245.5 509.167,245.5 518.5,245.5C 518.5,234.833 518.5,224.167 518.5,213.5C 519.495,224.321 519.828,235.321 519.5,246.5C 509.5,246.5 499.5,246.5 489.5,246.5C 489.5,246.167 489.5,245.833 489.5,245.5C 489.172,234.654 489.506,223.987 490.5,213.5 Z"/></g>
<g><path style="opacity:1" fill="#f8f9fa" d="M 490.5,213.5 C 499.833,213.5 509.167,213.5 518.5,213.5C 518.5,224.167 518.5,234.833 518.5,245.5C 509.167,245.5 499.833,245.5 490.5,245.5C 490.5,234.833 490.5,224.167 490.5,213.5 Z"/></g>
<g><path style="opacity:1" fill="#1f5271" d="M 523.5,208.5 C 523.5,208.833 523.5,209.167 523.5,209.5C 522.5,209.5 521.5,209.5 520.5,209.5C 508.833,209.5 497.167,209.5 485.5,209.5C 485.5,223.167 485.5,236.833 485.5,250.5C 485.167,250.5 484.833,250.5 484.5,250.5C 484.5,236.5 484.5,222.5 484.5,208.5C 497.5,208.5 510.5,208.5 523.5,208.5 Z"/></g>
<g><path style="opacity:1" fill="#cde0ee" d="M 317.5,213.5 C 318.404,214.209 318.737,215.209 318.5,216.5C 319.833,216.5 321.167,216.5 322.5,216.5C 322.5,215.5 322.5,214.5 322.5,213.5C 327.167,213.5 331.833,213.5 336.5,213.5C 336.5,214.5 336.5,215.5 336.5,216.5C 338.167,216.5 339.833,216.5 341.5,216.5C 339.735,217.461 337.735,217.795 335.5,217.5C 335.5,216.5 335.5,215.5 335.5,214.5C 334.209,214.263 333.209,214.596 332.5,215.5C 330.585,215.216 328.919,215.549 327.5,216.5C 327.768,218.099 327.434,219.432 326.5,220.5C 321.5,220.5 316.5,220.5 311.5,220.5C 316.305,219.513 321.305,219.179 326.5,219.5C 326.785,217.712 326.452,216.045 325.5,214.5C 324.614,215.325 324.281,216.325 324.5,217.5C 322.167,217.5 319.833,217.5 317.5,217.5C 317.5,216.167 317.5,214.833 317.5,213.5 Z"/></g>
<g><path style="opacity:1" fill="#5887b1" d="M 644.5,209.5 C 645.434,210.568 645.768,211.901 645.5,213.5C 640.833,213.5 636.167,213.5 631.5,213.5C 635.634,212.515 639.968,212.182 644.5,212.5C 644.5,211.5 644.5,210.5 644.5,209.5 Z"/></g>
<g><path style="opacity:1" fill="#1f5d9a" d="M 560.5,202.5 C 562.288,202.215 563.955,202.548 565.5,203.5C 570.929,211.597 577.929,217.93 586.5,222.5C 587.645,223.776 587.645,225.109 586.5,226.5C 585.635,227.583 584.635,227.749 583.5,227C 575.681,222.099 568.681,216.265 562.5,209.5C 558.675,214.158 554.342,218.324 549.5,222C 546.299,224.267 542.966,225.934 539.5,227C 537.579,225.759 537.246,224.259 538.5,222.5C 547.427,217.572 554.76,210.906 560.5,202.5 Z"/></g>
<g><path style="opacity:1" fill="#1d5c98" d="M 559.5,216.5 C 562.394,217.882 564.894,219.882 567,222.5C 567.636,225.522 566.47,227.022 563.5,227C 562.042,224.54 560.209,222.373 558,220.5C 557.516,218.807 558.016,217.473 559.5,216.5 Z"/></g>
<g><path style="opacity:1" fill="#0f558d" d="M 520.5,209.5 C 509.346,210.495 498.012,210.828 486.5,210.5C 486.5,223.833 486.5,237.167 486.5,250.5C 486.167,250.5 485.833,250.5 485.5,250.5C 485.5,236.833 485.5,223.167 485.5,209.5C 497.167,209.5 508.833,209.5 520.5,209.5 Z"/></g>
<g><path style="opacity:1" fill="#215e9d" d="M 377.5,210.5 C 379.265,211.461 381.265,211.795 383.5,211.5C 383.5,212.5 383.5,213.5 383.5,214.5C 376.833,214.5 370.167,214.5 363.5,214.5C 363.5,213.167 363.5,211.833 363.5,210.5C 366.572,210.817 369.572,210.484 372.5,209.5C 371.253,207.677 370.586,205.677 370.5,203.5C 374.788,203.663 377.121,205.996 377.5,210.5 Z"/></g>
<g><path style="opacity:1" fill="#7fa5bc" d="M 467.5,208.5 C 468.434,209.568 468.768,210.901 468.5,212.5C 464.833,212.5 461.167,212.5 457.5,212.5C 460.625,211.521 463.958,211.187 467.5,211.5C 467.5,210.5 467.5,209.5 467.5,208.5 Z"/></g>
<g><path style="opacity:1" fill="#4e7b96" d="M 679.5,209.5 C 684.695,209.179 689.695,209.513 694.5,210.5C 690.958,210.187 687.625,210.521 684.5,211.5C 683.833,211.5 683.167,211.5 682.5,211.5C 681.5,210.833 680.5,210.167 679.5,209.5 Z"/></g>
<g><path style="opacity:1" fill="#145894" d="M 452.5,203.5 C 453.833,203.5 455.167,203.5 456.5,203.5C 456.5,205.167 456.5,206.833 456.5,208.5C 460.167,208.5 463.833,208.5 467.5,208.5C 467.5,209.5 467.5,210.5 467.5,211.5C 463.958,211.187 460.625,211.521 457.5,212.5C 456.596,213.209 456.263,214.209 456.5,215.5C 460.833,215.5 465.167,215.5 469.5,215.5C 469.5,216.5 469.5,217.5 469.5,218.5C 459.833,218.5 450.167,218.5 440.5,218.5C 440.5,217.5 440.5,216.5 440.5,215.5C 444.5,215.5 448.5,215.5 452.5,215.5C 452.5,214.167 452.5,212.833 452.5,211.5C 449.167,211.5 445.833,211.5 442.5,211.5C 442.5,210.5 442.5,209.5 442.5,208.5C 445.833,208.5 449.167,208.5 452.5,208.5C 452.5,206.833 452.5,205.167 452.5,203.5 Z"/></g>
<g><path style="opacity:1" fill="#26609a" d="M 341.5,216.5 C 339.833,216.5 338.167,216.5 336.5,216.5C 336.5,215.5 336.5,214.5 336.5,213.5C 331.833,213.5 327.167,213.5 322.5,213.5C 322.5,214.5 322.5,215.5 322.5,216.5C 321.167,216.5 319.833,216.5 318.5,216.5C 318.737,215.209 318.404,214.209 317.5,213.5C 313.5,213.5 309.5,213.5 305.5,213.5C 305.5,211.833 305.5,210.167 305.5,208.5C 309.833,208.5 314.167,208.5 318.5,208.5C 318.5,207.167 318.5,205.833 318.5,204.5C 319.833,204.5 321.167,204.5 322.5,204.5C 322.232,206.099 322.566,207.432 323.5,208.5C 327.833,208.5 332.167,208.5 336.5,208.5C 336.5,206.833 336.5,205.167 336.5,203.5C 338.167,203.5 339.833,203.5 341.5,203.5C 341.5,205.167 341.5,206.833 341.5,208.5C 345.5,208.5 349.5,208.5 353.5,208.5C 353.5,210.167 353.5,211.833 353.5,213.5C 349.5,213.5 345.5,213.5 341.5,213.5C 341.5,214.5 341.5,215.5 341.5,216.5 Z"/></g>
<g><path style="opacity:1" fill="#f6f8f9" d="M 179.5,200.5 C 192.041,199.241 203.707,201.741 214.5,208C 218.539,211.967 222.206,216.133 225.5,220.5C 227.694,219.06 230.027,218.227 232.5,218C 235.194,225.897 236.194,234.064 235.5,242.5C 226.864,245.567 218.031,247.9 209,249.5C 201.41,248.956 195.91,245.289 192.5,238.5C 194.61,238.294 196.61,239.127 198.5,241C 208.333,241.833 212.833,237.333 212,227.5C 205.337,222.342 201.671,224.009 201,232.5C 200,231.833 199,231.167 198,230.5C 198.921,220.939 194.754,215.272 185.5,213.5C 180.549,213.611 177.049,215.945 175,220.5C 175.424,226.14 176.09,231.807 177,237.5C 179.704,239.65 179.871,241.816 177.5,244C 172.445,246.696 167.112,248.53 161.5,249.5C 155.948,248.371 150.615,246.538 145.5,244C 143.996,242.509 143.163,240.676 143,238.5C 141.887,231.285 142.554,224.285 145,217.5C 145.414,217.043 145.914,216.709 146.5,216.5C 148.75,218.798 151.416,219.631 154.5,219C 160.372,209.408 168.705,203.241 179.5,200.5 Z"/></g>
<g><path style="opacity:1" fill="#e95349" d="M 949.5,207.5 C 950.568,208.434 951.901,208.768 953.5,208.5C 953.5,209.5 953.5,210.5 953.5,211.5C 948.927,211.88 944.927,210.547 941.5,207.5C 937.438,210.844 937.771,214.01 942.5,217C 943.5,217.667 944.5,217.667 945.5,217C 946.713,214.674 948.046,214.341 949.5,216C 948.451,218.698 946.451,220.198 943.5,220.5C 939.502,218.502 936.502,215.502 934.5,211.5C 934.752,209.927 935.418,208.594 936.5,207.5C 939.512,204.655 942.679,201.988 946,199.5C 946.5,199.833 947,200.167 947.5,200.5C 946.167,202.167 944.833,203.833 943.5,205.5C 945.173,207.086 947.173,207.753 949.5,207.5 Z"/></g>
<g><path style="opacity:1" fill="#1b5a95" d="M 699.5,226.5 C 698.167,226.5 696.833,226.5 695.5,226.5C 695.785,224.712 695.452,223.045 694.5,221.5C 693.893,221.624 693.56,221.957 693.5,222.5C 689.076,223.546 684.743,224.879 680.5,226.5C 680.737,225.209 680.404,224.209 679.5,223.5C 684.049,221.511 688.715,219.511 693.5,217.5C 694.474,215.257 694.808,212.924 694.5,210.5C 689.695,209.513 684.695,209.179 679.5,209.5C 679.5,208.5 679.5,207.5 679.5,206.5C 686.167,206.5 692.833,206.5 699.5,206.5C 699.5,213.167 699.5,219.833 699.5,226.5 Z"/></g>
<g><path style="opacity:1" fill="#80a9ca" d="M 411.5,210.5 C 411.5,209.167 411.5,207.833 411.5,206.5C 402.833,206.5 394.167,206.5 385.5,206.5C 385.5,207.833 385.5,209.167 385.5,210.5C 385.167,210.5 384.833,210.5 384.5,210.5C 384.5,208.833 384.5,207.167 384.5,205.5C 393.833,205.5 403.167,205.5 412.5,205.5C 412.784,207.415 412.451,209.081 411.5,210.5 Z"/></g>
<g><path style="opacity:1" fill="#7099b7" d="M 631.5,208.5 C 630.566,207.432 630.232,206.099 630.5,204.5C 629.5,204.5 628.5,204.5 627.5,204.5C 627.768,206.099 627.434,207.432 626.5,208.5C 626.5,206.833 626.5,205.167 626.5,203.5C 628.167,203.5 629.833,203.5 631.5,203.5C 631.5,205.167 631.5,206.833 631.5,208.5 Z"/></g>
<g><path style="opacity:1" fill="#6794bd" d="M 318.5,204.5 C 319.919,203.549 321.585,203.216 323.5,203.5C 323.5,205.167 323.5,206.833 323.5,208.5C 322.566,207.432 322.232,206.099 322.5,204.5C 321.167,204.5 319.833,204.5 318.5,204.5 Z"/></g>
<g><path style="opacity:1" fill="#e4eff5" d="M 452.5,203.5 C 452.5,205.167 452.5,206.833 452.5,208.5C 449.167,208.5 445.833,208.5 442.5,208.5C 442.5,209.5 442.5,210.5 442.5,211.5C 445.833,211.5 449.167,211.5 452.5,211.5C 452.5,212.833 452.5,214.167 452.5,215.5C 448.5,215.5 444.5,215.5 440.5,215.5C 440.5,216.5 440.5,217.5 440.5,218.5C 442.167,219.167 443.833,219.833 445.5,220.5C 445.5,221.167 445.5,221.833 445.5,222.5C 443.833,222.5 442.167,222.5 440.5,222.5C 440.232,224.099 440.566,225.432 441.5,226.5C 442.833,226.5 444.167,226.5 445.5,226.5C 445.5,228.167 445.5,229.833 445.5,231.5C 444.167,231.5 442.833,231.5 441.5,231.5C 440.833,231.5 440.167,231.5 439.5,231.5C 439.892,226.859 437.892,224.526 433.5,224.5C 435.443,220.867 437.443,217.201 439.5,213.5C 439.113,212.28 438.28,211.613 437,211.5C 434.819,213.356 432.985,215.523 431.5,218C 430.056,218.781 428.723,218.614 427.5,217.5C 429.719,213.781 431.719,209.948 433.5,206C 433.387,204.72 432.72,203.887 431.5,203.5C 430.265,204.34 429.265,205.34 428.5,206.5C 428.08,204.326 428.08,202.326 428.5,200.5C 430.173,202.086 432.173,202.753 434.5,202.5C 434.575,205.206 434.908,207.873 435.5,210.5C 437.167,210.5 438.833,210.5 440.5,210.5C 440.768,207.881 440.435,205.381 439.5,203C 441.131,201.164 441.798,201.664 441.5,204.5C 443.766,204.141 445.599,204.808 447,206.5C 448.008,201.459 448.508,201.792 448.5,207.5C 449.5,207.5 450.5,207.5 451.5,207.5C 451.232,205.901 451.566,204.568 452.5,203.5 Z"/></g>
<g><path style="opacity:1" fill="#fbbcbe" d="M 937.5,177.5 C 937.351,178.552 937.517,179.552 938,180.5C 942.314,183.647 946.148,187.314 949.5,191.5C 950.176,190.398 950.842,189.398 951.5,188.5C 951.263,189.791 951.596,190.791 952.5,191.5C 950.765,193.235 949.432,195.235 948.5,197.5C 949.432,199.765 950.765,201.765 952.5,203.5C 950.14,202.084 948.14,202.417 946.5,204.5C 947.34,205.735 948.34,206.735 949.5,207.5C 947.173,207.753 945.173,207.086 943.5,205.5C 944.833,203.833 946.167,202.167 947.5,200.5C 947,200.167 946.5,199.833 946,199.5C 942.679,201.988 939.512,204.655 936.5,207.5C 935.001,206.506 933.334,206.506 931.5,207.5C 936.173,202.494 940.84,197.494 945.5,192.5C 942.431,188.764 939.097,185.431 935.5,182.5C 935.796,180.597 936.463,178.93 937.5,177.5 Z"/></g>
<g><path style="opacity:1" fill="#e95248" d="M 952.5,203.5 C 950.765,201.765 949.432,199.765 948.5,197.5C 949.432,195.235 950.765,193.235 952.5,191.5C 954.814,189.523 957.147,187.523 959.5,185.5C 959.833,186 960.167,186.5 960.5,187C 959.073,188.7 958.24,190.533 958,192.5C 960.58,194.253 963.413,195.253 966.5,195.5C 966.5,196.5 966.5,197.5 966.5,198.5C 961.896,197.79 957.563,196.624 953.5,195C 952.643,195.689 951.977,196.522 951.5,197.5C 952.982,199.483 954.649,201.316 956.5,203C 958.519,202.848 960.519,202.348 962.5,201.5C 962.487,204.695 960.82,206.362 957.5,206.5C 955.577,205.908 953.911,204.908 952.5,203.5 Z"/></g>
<g><path style="opacity:1" fill="#e95349" d="M 935.5,182.5 C 939.097,185.431 942.431,188.764 945.5,192.5C 940.84,197.494 936.173,202.494 931.5,207.5C 928.988,207.577 926.988,206.577 925.5,204.5C 934.485,204.661 935.485,201.828 928.5,196C 927.833,195.333 927.167,195.333 926.5,196C 924.983,197.685 923.316,199.185 921.5,200.5C 920.5,200.167 919.833,199.5 919.5,198.5C 924.854,193.146 930.188,187.812 935.5,182.5 Z"/></g>
<g><path style="opacity:1" fill="#fab9ba" d="M 929.5,191.5 C 934.178,191.682 936.678,194.015 937,198.5C 936.586,198.957 936.086,199.291 935.5,199.5C 934.307,197.473 932.64,195.973 930.5,195C 929.663,193.989 929.33,192.822 929.5,191.5 Z"/></g>
<g><path style="opacity:1" fill="#fbbec0" d="M 934.5,186.5 C 938.225,187.895 940.558,190.562 941.5,194.5C 938.596,193.024 935.93,191.024 933.5,188.5C 933.863,187.817 934.196,187.15 934.5,186.5 Z"/></g>
<g><path style="opacity:1" fill="#eb5045" d="M 951.5,188.5 C 950.842,189.398 950.176,190.398 949.5,191.5C 946.148,187.314 942.314,183.647 938,180.5C 937.517,179.552 937.351,178.552 937.5,177.5C 941.892,176.912 946.226,176.912 950.5,177.5C 950.291,178.086 949.957,178.586 949.5,179C 941.935,178.665 940.935,180.665 946.5,185C 947.448,185.483 948.448,185.649 949.5,185.5C 949.238,184.022 949.571,182.689 950.5,181.5C 951.474,183.743 951.808,186.076 951.5,188.5 Z"/></g>
<g><path style="opacity:1" fill="#30699b" d="M 569.5,176.5 C 570.152,177.725 571.319,178.392 573,178.5C 574.385,178.486 575.551,178.152 576.5,177.5C 577.043,177.56 577.376,177.893 577.5,178.5C 573.5,179.833 569.5,179.833 565.5,178.5C 566.766,177.638 568.099,176.971 569.5,176.5 Z"/></g>
<g><path style="opacity:1" fill="#608eb8" d="M 340.5,176.5 C 342.5,176.5 344.5,176.5 346.5,176.5C 345.048,177.302 343.382,177.802 341.5,178C 343.81,178.497 346.143,178.663 348.5,178.5C 345.696,179.638 342.696,179.805 339.5,179C 338.944,178.617 338.611,178.117 338.5,177.5C 339.492,177.672 340.158,177.338 340.5,176.5 Z"/></g>
<g><path style="opacity:1" fill="#ef7f7a" d="M 902.5,173.5 C 900.958,174.163 899.291,174.83 897.5,175.5C 900.795,176.401 904.128,176.401 907.5,175.5C 903.817,177.25 899.817,177.917 895.5,177.5C 895.5,176.167 895.5,174.833 895.5,173.5C 897.833,173.5 900.167,173.5 902.5,173.5 Z"/></g>
<g><path style="opacity:1" fill="#376a9f" d="M 858.5,160.5 C 860.404,160.738 861.738,161.738 862.5,163.5C 862.163,167.308 862.663,170.974 864,174.5C 866.887,176.839 870.054,177.172 873.5,175.5C 873.833,175.5 874.167,175.5 874.5,175.5C 874.489,177.017 873.823,178.184 872.5,179C 864.718,181.22 859.884,178.387 858,170.5C 857.253,167.076 857.42,163.743 858.5,160.5 Z"/></g>
<g><path style="opacity:1" fill="#286096" d="M 773.5,165.5 C 774.492,165.328 775.158,165.662 775.5,166.5C 771.173,170.49 771.507,173.823 776.5,176.5C 778.374,176.61 779.874,175.944 781,174.5C 782.252,171.986 782.752,169.32 782.5,166.5C 782.5,165.833 782.5,165.167 782.5,164.5C 783.667,158.504 781.334,156.004 775.5,157C 774.62,158.356 774.286,159.856 774.5,161.5C 770.081,160.677 769.414,158.51 772.5,155C 777.708,153.706 782.208,154.872 786,158.5C 786.333,164.5 786.667,170.5 787,176.5C 787.925,177.047 788.758,177.713 789.5,178.5C 787.604,179.466 785.604,179.799 783.5,179.5C 783.762,178.022 783.429,176.689 782.5,175.5C 772.926,182.614 768.426,180.281 769,168.5C 770.129,166.859 771.629,165.859 773.5,165.5 Z"/></g>
<g><path style="opacity:1" fill="#1a5b9a" d="M 661.5,177.5 C 662.978,177.238 664.311,177.571 665.5,178.5C 661.167,179.833 656.833,179.833 652.5,178.5C 653.934,177.77 655.1,176.77 656,175.5C 656.79,169.085 656.624,162.752 655.5,156.5C 656.209,155.596 657.209,155.263 658.5,155.5C 658.38,157.199 658.046,158.865 657.5,160.5C 658.236,165.803 658.736,171.137 659,176.5C 659.671,177.252 660.504,177.586 661.5,177.5 Z"/></g>
<g><path style="opacity:1" fill="#225d94" d="M 610.5,149.5 C 611.5,149.5 612.5,149.5 613.5,149.5C 613.5,151.167 613.5,152.833 613.5,154.5C 621.5,155.167 621.5,155.833 613.5,156.5C 613.334,162.842 613.5,169.175 614,175.5C 615.491,177.004 617.324,177.837 619.5,178C 615.921,180.265 612.754,179.765 610,176.5C 609.5,169.842 609.334,163.175 609.5,156.5C 605.665,155.996 605.665,154.996 609.5,153.5C 610.246,152.264 610.579,150.93 610.5,149.5 Z"/></g>
<g><path style="opacity:1" fill="#2f649a" d="M 802.5,154.5 C 805.941,154.301 809.274,154.801 812.5,156C 815.487,159.208 814.82,161.041 810.5,161.5C 809.021,155.755 806.187,155.089 802,159.5C 801.333,163.833 801.333,168.167 802,172.5C 805.436,177.509 809.436,177.843 814,173.5C 814.63,175.903 813.797,177.737 811.5,179C 801.672,180.517 796.672,176.184 796.5,166C 796.58,161.106 798.58,157.273 802.5,154.5 Z"/></g>
<g><path style="opacity:1" fill="#e6f1f7" d="M 775.5,166.5 C 777.833,166.5 780.167,166.5 782.5,166.5C 782.752,169.32 782.252,171.986 781,174.5C 779.874,175.944 778.374,176.61 776.5,176.5C 771.507,173.823 771.173,170.49 775.5,166.5 Z"/></g>
<g><path style="opacity:1" fill="#165996" d="M 839.5,154.5 C 842.167,154.5 844.833,154.5 847.5,154.5C 847.334,161.841 847.5,169.174 848,176.5C 849.205,177.071 850.372,177.738 851.5,178.5C 847.5,179.833 843.5,179.833 839.5,178.5C 840.628,177.738 841.795,177.071 843,176.5C 843.667,170.167 843.667,163.833 843,157.5C 841.271,157.026 840.105,156.026 839.5,154.5 Z"/></g>
<g><path style="opacity:1" fill="#1e5b95" d="M 423.5,156.5 C 424.568,155.566 425.901,155.232 427.5,155.5C 427.178,161.358 427.511,167.025 428.5,172.5C 429.462,176.146 431.795,177.313 435.5,176C 436,175.5 436.5,175 437,174.5C 438.57,168.947 438.903,163.281 438,157.5C 436.795,156.929 435.628,156.262 434.5,155.5C 437.086,154.52 439.753,154.187 442.5,154.5C 442.334,161.841 442.5,169.174 443,176.5C 444.205,177.071 445.372,177.738 446.5,178.5C 444.257,179.474 441.924,179.808 439.5,179.5C 439.97,175.03 438.97,174.53 436.5,178C 432.879,180.09 429.379,179.923 426,177.5C 424.914,170.499 424.08,163.499 423.5,156.5 Z"/></g>
<g><path style="opacity:1" fill="#2b6199" d="M 348.5,178.5 C 346.143,178.663 343.81,178.497 341.5,178C 343.382,177.802 345.048,177.302 346.5,176.5C 348.173,175.657 349.34,174.324 350,172.5C 350.667,168.833 350.667,165.167 350,161.5C 349.06,158.558 347.06,157.225 344,157.5C 341.966,157.354 340.299,158.02 339,159.5C 337.99,165.38 338.49,171.046 340.5,176.5C 340.158,177.338 339.492,177.672 338.5,177.5C 331.511,169.72 331.844,162.22 339.5,155C 346.918,152.789 351.752,155.289 354,162.5C 354.658,166.572 354.325,170.572 353,174.5C 351.951,176.384 350.451,177.718 348.5,178.5 Z"/></g>
<g><path style="opacity:1" fill="#f2f4f7" d="M 862.5,163.5 C 866.869,166.869 870.536,170.869 873.5,175.5C 870.054,177.172 866.887,176.839 864,174.5C 862.663,170.974 862.163,167.308 862.5,163.5 Z"/></g>
<g><path style="opacity:1" fill="#275f95" d="M 472.5,166.5 C 467.5,166.5 462.5,166.5 457.5,166.5C 457.216,168.415 457.549,170.081 458.5,171.5C 459.793,176.078 462.793,177.578 467.5,176C 471.571,172.736 472.237,173.403 469.5,178C 458.805,181.309 453.472,177.309 453.5,166C 453.944,155.953 458.944,152.62 468.5,156C 471.87,158.697 473.204,162.197 472.5,166.5 Z"/></g>
<g><path style="opacity:1" fill="#9dc4e6" d="M 645.5,166.5 C 641.03,167.486 636.363,167.819 631.5,167.5C 631.5,169.167 631.5,170.833 631.5,172.5C 630.539,170.735 630.205,168.735 630.5,166.5C 635.5,166.5 640.5,166.5 645.5,166.5 Z"/></g>
<g><path style="opacity:1" fill="#a5c8e8" d="M 472.5,166.5 C 468.03,167.486 463.363,167.819 458.5,167.5C 458.5,168.833 458.5,170.167 458.5,171.5C 457.549,170.081 457.216,168.415 457.5,166.5C 462.5,166.5 467.5,166.5 472.5,166.5 Z"/></g>
<g><path style="opacity:1" fill="#f2f6f8" d="M 346.5,176.5 C 344.5,176.5 342.5,176.5 340.5,176.5C 338.49,171.046 337.99,165.38 339,159.5C 340.299,158.02 341.966,157.354 344,157.5C 347.06,157.225 349.06,158.558 350,161.5C 350.667,165.167 350.667,168.833 350,172.5C 349.34,174.324 348.173,175.657 346.5,176.5 Z"/></g>
<g><path style="opacity:1" fill="#48728b" d="M 773.5,165.5 C 776.287,164.523 779.287,164.19 782.5,164.5C 782.5,165.167 782.5,165.833 782.5,166.5C 780.167,166.5 777.833,166.5 775.5,166.5C 775.158,165.662 774.492,165.328 773.5,165.5 Z"/></g>
<g><path style="opacity:1" fill="#285f92" d="M 361.5,154.5 C 364.167,154.5 366.833,154.5 369.5,154.5C 369.343,155.873 369.51,157.207 370,158.5C 372.89,154.172 376.723,153.339 381.5,156C 382.701,156.903 383.535,158.069 384,159.5C 384.333,165.167 384.667,170.833 385,176.5C 385.925,177.047 386.758,177.713 387.5,178.5C 385.257,179.474 382.924,179.808 380.5,179.5C 380.666,173.158 380.5,166.825 380,160.5C 376.667,156.5 373.333,156.5 370,160.5C 369.333,165.833 369.333,171.167 370,176.5C 371.205,177.071 372.372,177.738 373.5,178.5C 369.5,179.833 365.5,179.833 361.5,178.5C 362.628,177.738 363.795,177.071 365,176.5C 365.667,170.167 365.667,163.833 365,157.5C 363.271,157.026 362.105,156.026 361.5,154.5 Z"/></g>
<g><path style="opacity:1" fill="#0059a7" d="M 366.5,157.5 C 367.222,157.918 367.722,158.584 368,159.5C 368.831,165.859 368.664,172.193 367.5,178.5C 366.503,171.532 366.17,164.532 366.5,157.5 Z"/></g>
<g><path style="opacity:1" fill="#2a6198" d="M 714.5,146.5 C 719.844,146.334 725.177,146.501 730.5,147C 733.494,147.406 735.661,148.906 737,151.5C 738.986,162.347 734.486,167.347 723.5,166.5C 723.335,169.85 723.502,173.183 724,176.5C 725.509,177.09 727.009,177.756 728.5,178.5C 723.833,179.833 719.167,179.833 714.5,178.5C 715.628,177.738 716.795,177.071 718,176.5C 718.667,167.5 718.667,158.5 718,149.5C 716.271,149.026 715.105,148.026 714.5,146.5 Z"/></g>
<g><path style="opacity:1" fill="#225e97" d="M 682.5,154.5 C 685.32,154.248 687.986,154.748 690.5,156C 691.38,157.356 691.714,158.856 691.5,160.5C 690.5,160.5 689.5,160.5 688.5,160.5C 688.22,156.775 686.22,155.608 682.5,157C 679.808,159.632 680.141,161.966 683.5,164C 686.656,164.937 689.489,166.437 692,168.5C 692.969,177.64 688.802,181.14 679.5,179C 677.093,176.637 676.926,174.137 679,171.5C 679.806,176.486 682.639,178.319 687.5,177C 690.167,174.667 690.167,172.333 687.5,170C 683.65,168.672 680.483,166.505 678,163.5C 676.422,158.786 677.922,155.786 682.5,154.5 Z"/></g>
<g><path style="opacity:1" fill="#ea5045" d="M 907.5,175.5 C 904.128,176.401 900.795,176.401 897.5,175.5C 899.291,174.83 900.958,174.163 902.5,173.5C 905.39,173.722 908.057,173.055 910.5,171.5C 913.319,168.925 916.319,166.592 919.5,164.5C 919.5,162.167 919.5,159.833 919.5,157.5C 920.611,158.611 921.945,159.278 923.5,159.5C 925.623,157.69 927.957,156.357 930.5,155.5C 930.649,156.552 930.483,157.552 930,158.5C 928.172,159.661 926.672,161.161 925.5,163C 927.342,165.502 929.508,167.668 932,169.5C 932.667,170.5 932.667,171.5 932,172.5C 926.495,178.338 920.662,183.838 914.5,189C 909.563,188.902 906.563,186.402 905.5,181.5C 908.084,181.569 910.084,182.735 911.5,185C 912.5,185.667 913.5,185.667 914.5,185C 919.353,181.145 923.853,176.978 928,172.5C 928.06,169.352 926.56,167.019 923.5,165.5C 920.025,167.808 916.692,170.308 913.5,173C 911.593,174.122 909.593,174.955 907.5,175.5 Z"/></g>
<g><path style="opacity:1" fill="#286096" d="M 523.5,154.5 C 526.898,154.18 530.232,154.513 533.5,155.5C 532.675,156.386 531.675,156.719 530.5,156.5C 531.577,162.215 532.91,167.882 534.5,173.5C 536.91,167.271 538.91,160.937 540.5,154.5C 541.978,154.238 543.311,154.571 544.5,155.5C 546.355,161.274 548.355,166.941 550.5,172.5C 552.088,167.991 553.754,163.491 555.5,159C 554.768,157.235 553.435,156.068 551.5,155.5C 554.833,154.167 558.167,154.167 561.5,155.5C 560.372,156.262 559.205,156.929 558,157.5C 555.932,164.536 553.766,171.536 551.5,178.5C 550.311,179.429 548.978,179.762 547.5,179.5C 546.182,173.044 544.349,166.711 542,160.5C 539.839,166.459 537.673,172.459 535.5,178.5C 534.311,179.429 532.978,179.762 531.5,179.5C 530.414,170.579 527.748,162.246 523.5,154.5 Z"/></g>
<g><path style="opacity:1" fill="#276097" d="M 587.5,154.5 C 590.518,154.335 593.518,154.502 596.5,155C 598.155,156.444 598.822,158.278 598.5,160.5C 597.5,160.5 596.5,160.5 595.5,160.5C 595.22,156.775 593.22,155.608 589.5,157C 586.808,159.632 587.141,161.966 590.5,164C 593.656,164.937 596.489,166.437 599,168.5C 600.378,172.942 599.212,176.442 595.5,179C 592.5,179.667 589.5,179.667 586.5,179C 584.381,176.782 584.048,174.282 585.5,171.5C 586.917,176.107 589.917,177.94 594.5,177C 597.167,174.667 597.167,172.333 594.5,170C 590.65,168.672 587.483,166.505 585,163.5C 583.927,159.9 584.76,156.9 587.5,154.5 Z"/></g>
<g><path style="opacity:1" fill="#225a8b" d="M 573.5,176.5 C 572.833,169.988 572.167,163.321 571.5,156.5C 570.833,163.321 570.167,169.988 569.5,176.5C 569.666,170.158 569.5,163.825 569,157.5C 567.795,156.929 566.628,156.262 565.5,155.5C 568.086,154.52 570.753,154.187 573.5,154.5C 573.5,161.833 573.5,169.167 573.5,176.5 Z"/></g>
<g><path style="opacity:1" fill="#0258a5" d="M 573.5,176.5 C 574.391,177.11 575.391,177.443 576.5,177.5C 575.551,178.152 574.385,178.486 573,178.5C 571.319,178.392 570.152,177.725 569.5,176.5C 570.167,169.988 570.833,163.321 571.5,156.5C 572.167,163.321 572.833,169.988 573.5,176.5 Z"/></g>
<g><path style="opacity:1" fill="#e8f2f6" d="M 459.5,157.5 C 465.927,155.762 468.594,158.095 467.5,164.5C 464.167,164.5 460.833,164.5 457.5,164.5C 457.394,161.921 458.061,159.588 459.5,157.5 Z"/></g>
<g><path style="opacity:1" fill="#2d6192" d="M 661.5,177.5 C 660.504,177.586 659.671,177.252 659,176.5C 658.736,171.137 658.236,165.803 657.5,160.5C 658.046,158.865 658.38,157.199 658.5,155.5C 657.209,155.263 656.209,155.596 655.5,156.5C 654.325,156.719 653.325,156.386 652.5,155.5C 654.743,154.526 657.076,154.192 659.5,154.5C 659.34,156.199 659.506,157.866 660,159.5C 661.713,154.962 664.88,153.462 669.5,155C 670.406,156.699 670.739,158.533 670.5,160.5C 669.167,160.5 667.833,160.5 666.5,160.5C 666.5,159.5 666.5,158.5 666.5,157.5C 663.27,157.561 661.437,159.228 661,162.5C 660.222,167.584 660.389,172.584 661.5,177.5 Z"/></g>
<g><path style="opacity:1" fill="#0059a7" d="M 610.5,158.5 C 611.814,160.915 612.481,163.748 612.5,167C 612.167,169.833 611.833,172.667 611.5,175.5C 610.505,169.872 610.171,164.206 610.5,158.5 Z"/></g>
<g><path style="opacity:1" fill="#31638f" d="M 509.5,177.5 C 508.504,177.586 507.671,177.252 507,176.5C 506.832,167.149 506.332,157.816 505.5,148.5C 504.833,157.658 504.167,166.658 503.5,175.5C 503.5,166.5 503.5,157.5 503.5,148.5C 498.342,147.331 495.342,149.331 494.5,154.5C 493.52,151.914 493.187,149.247 493.5,146.5C 501.833,146.5 510.167,146.5 518.5,146.5C 518.813,149.247 518.48,151.914 517.5,154.5C 516.658,149.331 513.658,147.331 508.5,148.5C 508.194,158.25 508.527,167.916 509.5,177.5 Z"/></g>
<g><path style="opacity:1" fill="#45718c" d="M 428.5,172.5 C 427.511,167.025 427.178,161.358 427.5,155.5C 425.901,155.232 424.568,155.566 423.5,156.5C 422.325,156.719 421.325,156.386 420.5,155.5C 423.086,154.52 425.753,154.187 428.5,154.5C 428.5,160.5 428.5,166.5 428.5,172.5 Z"/></g>
<g><path style="opacity:1" fill="#255f97" d="M 410.5,153.5 C 413.95,152.756 415.616,154.09 415.5,157.5C 414.07,157.579 412.736,157.246 411.5,156.5C 411.953,160.156 411.453,163.822 410,167.5C 407.326,169.871 404.159,171.037 400.5,171C 399.62,172.356 399.286,173.856 399.5,175.5C 403.936,175.21 408.27,175.71 412.5,177C 415.69,182.051 414.69,186.051 409.5,189C 404.789,190.844 400.123,190.844 395.5,189C 393.522,186.503 393.022,183.669 394,180.5C 395.171,179.107 396.671,178.273 398.5,178C 395.833,175.333 395.833,172.667 398.5,170C 394.213,164.643 394.547,159.643 399.5,155C 402.202,154.393 404.868,154.56 407.5,155.5C 409.038,155.547 410.038,154.88 410.5,153.5 Z"/></g>
<g><path style="opacity:1" fill="#eaf2f7" d="M 398.5,179.5 C 402.182,179.335 405.848,179.501 409.5,180C 411.354,183.726 410.354,186.392 406.5,188C 398.118,189.799 395.451,186.966 398.5,179.5 Z"/></g>
<g><path style="opacity:1" fill="#edf3f7" d="M 401.5,156.5 C 403.722,156.178 405.556,156.845 407,158.5C 408.004,161.993 407.504,165.159 405.5,168C 403.299,168.825 401.466,168.325 400,166.5C 399.037,162.851 399.537,159.518 401.5,156.5 Z"/></g>
<g><path style="opacity:1" fill="#275f96" d="M 744.5,154.5 C 746.833,154.5 749.167,154.5 751.5,154.5C 751.367,159.272 752.7,159.438 755.5,155C 760.913,153.1 763.247,154.933 762.5,160.5C 761.167,160.5 759.833,160.5 758.5,160.5C 758.5,159.5 758.5,158.5 758.5,157.5C 756.61,157.297 755.11,157.963 754,159.5C 752.43,165.053 752.097,170.719 753,176.5C 754.509,177.09 756.009,177.756 757.5,178.5C 753.167,179.833 748.833,179.833 744.5,178.5C 745.76,177.618 746.926,176.618 748,175.5C 748.667,169.5 748.667,163.5 748,157.5C 746.271,157.026 745.105,156.026 744.5,154.5 Z"/></g>
<g><path style="opacity:1" fill="#326390" d="M 319.5,177.5 C 318.504,177.586 317.671,177.252 317,176.5C 316.832,167.149 316.332,157.816 315.5,148.5C 314.833,157.658 314.167,166.658 313.5,175.5C 313.5,166.5 313.5,157.5 313.5,148.5C 308.342,147.331 305.342,149.331 304.5,154.5C 303.52,151.914 303.187,149.247 303.5,146.5C 311.833,146.5 320.167,146.5 328.5,146.5C 328.813,149.247 328.48,151.914 327.5,154.5C 326.658,149.331 323.658,147.331 318.5,148.5C 318.194,158.25 318.527,167.916 319.5,177.5 Z"/></g>
<g><path style="opacity:1" fill="#255e93" d="M 645.5,166.5 C 640.5,166.5 635.5,166.5 630.5,166.5C 630.205,168.735 630.539,170.735 631.5,172.5C 633.392,176.168 636.392,177.335 640.5,176C 641.646,175.355 642.646,174.522 643.5,173.5C 644.754,175.259 644.421,176.759 642.5,178C 636.565,180.875 631.732,179.709 628,174.5C 626.455,169.953 626.121,165.287 627,160.5C 630.456,154.794 635.289,153.294 641.5,156C 644.87,158.697 646.204,162.197 645.5,166.5 Z"/></g>
<g><path style="opacity:1" fill="#e2edf2" d="M 634.5,156.5 C 639.576,156.673 641.91,159.339 641.5,164.5C 637.833,164.5 634.167,164.5 630.5,164.5C 630.278,160.944 631.611,158.277 634.5,156.5 Z"/></g>
<g><path style="opacity:1" fill="#245e94" d="M 825.5,149.5 C 827.256,150.552 827.923,152.219 827.5,154.5C 835.5,155.167 835.5,155.833 827.5,156.5C 827.334,162.842 827.5,169.175 828,175.5C 829.491,177.004 831.324,177.837 833.5,178C 829.921,180.265 826.754,179.765 824,176.5C 823.5,170.175 823.334,163.842 823.5,157.5C 822.5,157.5 821.5,157.5 820.5,157.5C 820.5,156.5 820.5,155.5 820.5,154.5C 823.659,154.43 825.326,152.763 825.5,149.5 Z"/></g>
<g><path style="opacity:1" fill="#0059a8" d="M 824.5,158.5 C 825.814,160.915 826.481,163.748 826.5,167C 826.333,169.833 826.167,172.667 826,175.5C 824.596,169.956 824.096,164.29 824.5,158.5 Z"/></g>
<g><path style="opacity:1" fill="#ea5145" d="M 910.5,144.5 C 914.75,147.079 918.417,150.412 921.5,154.5C 921,154.833 920.5,155.167 920,155.5C 918.418,153.971 916.585,153.471 914.5,154C 911,157.5 907.5,161 904,164.5C 903.667,166.934 904.834,167.934 907.5,167.5C 907.5,168.5 907.5,169.5 907.5,170.5C 901.712,169.442 897.045,166.609 893.5,162C 893.833,161.5 894.167,161 894.5,160.5C 896.167,161.5 897.833,162.5 899.5,163.5C 904.419,160.088 908.919,156.088 913,151.5C 912.95,149.248 911.784,147.582 909.5,146.5C 909.863,145.817 910.196,145.15 910.5,144.5 Z"/></g>
<g><path style="opacity:1" fill="#135aa0" d="M 319.5,177.5 C 320.675,177.281 321.675,177.614 322.5,178.5C 318.167,179.833 313.833,179.833 309.5,178.5C 311.184,177.85 312.517,176.85 313.5,175.5C 314.167,166.658 314.833,157.658 315.5,148.5C 316.332,157.816 316.832,167.149 317,176.5C 317.671,177.252 318.504,177.586 319.5,177.5 Z"/></g>
<g><path style="opacity:1" fill="#f0f6f8" d="M 723.5,148.5 C 729.693,147.413 733.027,149.913 733.5,156C 733.377,162.624 730.044,165.457 723.5,164.5C 723.5,159.167 723.5,153.833 723.5,148.5 Z"/></g>
<g><path style="opacity:1" fill="#135b9f" d="M 509.5,177.5 C 510.675,177.281 511.675,177.614 512.5,178.5C 508.167,179.833 503.833,179.833 499.5,178.5C 501.184,177.85 502.517,176.85 503.5,175.5C 504.167,166.658 504.833,157.658 505.5,148.5C 506.332,157.816 506.832,167.149 507,176.5C 507.671,177.252 508.504,177.586 509.5,177.5 Z"/></g>
<g><path style="opacity:1" fill="#3c6a9c" d="M 843.5,145.5 C 845.833,145.833 847.167,147.167 847.5,149.5C 843.483,150.161 842.149,148.828 843.5,145.5 Z"/></g>
<g><path style="opacity:1" fill="#275e95" d="M 569.5,144.5 C 570.833,144.5 572.167,144.5 573.5,144.5C 573.5,146.167 573.5,147.833 573.5,149.5C 572.167,149.5 570.833,149.5 569.5,149.5C 569.5,147.833 569.5,146.167 569.5,144.5 Z"/></g>
<g><path style="opacity:1" fill="#ea5045" d="M 872.5,132.5 C 877.5,128.833 881.833,124.5 885.5,119.5C 887.148,118.19 888.814,116.857 890.5,115.5C 890.833,116 891.167,116.5 891.5,117C 890.375,118.963 889.041,120.796 887.5,122.5C 888.213,124.776 888.713,127.109 889,129.5C 891.456,126.93 894.289,125.93 897.5,126.5C 896.167,127.833 894.833,129.167 893.5,130.5C 894.427,132.946 896.094,133.779 898.5,133C 899.953,130.295 901.953,129.461 904.5,130.5C 902.833,132.5 901.167,134.5 899.5,136.5C 900.815,138.316 902.315,139.983 904,141.5C 904.749,142.635 904.583,143.635 903.5,144.5C 901.684,143.185 900.017,141.685 898.5,140C 895.148,139.99 892.815,141.656 891.5,145C 892.27,146.775 893.437,148.275 895,149.5C 895.749,150.635 895.583,151.635 894.5,152.5C 892.5,150.833 890.5,149.167 888.5,147.5C 885.257,149.548 883.09,152.215 882,155.5C 884.046,157.376 885.879,159.376 887.5,161.5C 887.167,162.167 886.833,162.833 886.5,163.5C 880.359,158.191 874.692,152.358 869.5,146C 869.833,145.5 870.167,145 870.5,144.5C 872.984,146.483 875.317,148.65 877.5,151C 881.203,150.66 883.869,148.66 885.5,145C 884.392,142.888 882.892,141.054 881,139.5C 880.251,138.365 880.417,137.365 881.5,136.5C 883.833,138.5 886.167,140.5 888.5,142.5C 890.833,140.833 892.833,138.833 894.5,136.5C 891.718,131.52 888.384,131.186 884.5,135.5C 883.914,135.291 883.414,134.957 883,134.5C 883.693,132.618 884.526,130.618 885.5,128.5C 885.167,127.5 884.833,126.5 884.5,125.5C 878.138,131.697 871.638,137.697 865,143.5C 863.743,143.15 863.409,142.483 864,141.5C 867.038,138.631 869.871,135.631 872.5,132.5 Z"/></g>
<g><path style="opacity:1" fill="#f7f8f9" d="M 239.5,241.5 C 238.833,237.167 238.167,232.833 237.5,228.5C 233.244,199.592 216.411,184.592 187,183.5C 166.309,185.187 151.642,195.52 143,214.5C 141.072,220.351 139.905,226.351 139.5,232.5C 140.036,235.698 139.369,238.365 137.5,240.5C 118.353,212.497 118.853,184.83 139,157.5C 165.115,131.252 194.281,127.419 226.5,146C 252.915,167.487 260.415,194.32 249,226.5C 246.322,231.866 243.156,236.866 239.5,241.5 Z"/></g>
<g><path style="opacity:1" fill="#e0eef5" d="M 205.5,226.5 C 208.352,226.352 210.019,227.686 210.5,230.5C 209.282,237.282 205.282,239.782 198.5,238C 195.518,236.665 195.018,234.832 197,232.5C 198.734,234.451 200.901,235.451 203.5,235.5C 203.065,232.162 203.732,229.162 205.5,226.5 Z"/></g>
<g><path style="opacity:1" fill="#deecf3" d="M 182.5,215.5 C 189.863,214.867 193.863,218.2 194.5,225.5C 193.993,232.859 190.326,237.859 183.5,240.5C 179.78,239.384 178.446,237.051 179.5,233.5C 181.169,234.671 182.669,236.004 184,237.5C 191.23,233.236 193.064,227.403 189.5,220C 183.302,216.888 180.135,218.721 180,225.5C 182.296,227.057 184.462,228.724 186.5,230.5C 186.167,231.5 185.5,232.167 184.5,232.5C 178.111,230.388 175.944,226.055 178,219.5C 179.397,217.93 180.897,216.596 182.5,215.5 Z"/></g>
<g><path style="opacity:1" fill="#e5f0f5" d="M 183.5,221.5 C 188.5,220.5 190.5,222.5 189.5,227.5C 184.88,227.555 182.88,225.555 183.5,221.5 Z"/></g>
<g><path style="opacity:1" fill="#f3f6f8" d="M 178.5,186.5 C 197.408,183.844 213.242,189.511 226,203.5C 228.223,206.779 230.057,210.279 231.5,214C 229.72,216.392 227.387,217.392 224.5,217C 216.296,203.461 204.129,197.294 188,198.5C 173.119,197.725 161.619,203.558 153.5,216C 150.642,216.409 148.309,215.409 146.5,213C 153.171,199.187 163.837,190.354 178.5,186.5 Z"/></g>
<g><path style="opacity:1" fill="#11599a" d="M 207.5,161.5 C 216.994,160.159 220.827,164.159 219,173.5C 214.625,178.381 209.958,178.715 205,174.5C 202.458,169.438 203.292,165.105 207.5,161.5 Z"/></g>
<g><path style="opacity:1" fill="#185b9a" d="M 157.5,161.5 C 166.708,159.887 170.875,163.554 170,172.5C 169.215,174.286 168.049,175.786 166.5,177C 158.823,179.645 154.49,176.978 153.5,169C 153.927,165.977 155.261,163.477 157.5,161.5 Z"/></g>
<g><path style="opacity:1" fill="#e85349" d="M 883.5,118.5 C 880.767,122.559 877.101,125.559 872.5,127.5C 871.833,127.167 871.167,126.833 870.5,126.5C 874.165,124.159 877.499,121.493 880.5,118.5C 881.652,117.375 882.652,117.375 883.5,118.5 Z"/></g>
<g><path style="opacity:1" fill="#fbbcbe" d="M 862.5,95.5 C 861.761,95.369 861.094,95.5357 860.5,96C 861.38,97.3561 861.714,98.8561 861.5,100.5C 864.5,100.5 867.5,100.5 870.5,100.5C 866.787,102.027 862.787,103.027 858.5,103.5C 860.045,104.452 861.712,104.785 863.5,104.5C 864.5,108.833 867.167,111.5 871.5,112.5C 871.5,114.5 871.5,116.5 871.5,118.5C 872.5,118.5 873.5,118.5 874.5,118.5C 875.79,120.987 876.79,120.653 877.5,117.5C 878.417,118.127 879.417,118.461 880.5,118.5C 877.499,121.493 874.165,124.159 870.5,126.5C 871.167,126.833 871.833,127.167 872.5,127.5C 877.101,125.559 880.767,122.559 883.5,118.5C 884.167,118.833 884.833,119.167 885.5,119.5C 881.833,124.5 877.5,128.833 872.5,132.5C 871,128.827 869,125.494 866.5,122.5C 870.851,118.531 870.184,115.531 864.5,113.5C 860.896,115.933 858.229,119.099 856.5,123C 855.207,123.49 853.873,123.657 852.5,123.5C 852.5,121.5 852.5,119.5 852.5,117.5C 858.039,117.451 861.205,114.784 862,109.5C 860.938,108.101 859.605,107.101 858,106.5C 854.321,108.261 852.488,110.928 852.5,114.5C 849.687,117.202 846.354,118.369 842.5,118C 845.349,114.984 848.349,112.15 851.5,109.5C 851.833,106.833 852.167,104.167 852.5,101.5C 853.5,102.167 854.5,102.833 855.5,103.5C 855.567,101.576 855.9,99.5756 856.5,97.5C 857.5,98.1667 858.5,98.8333 859.5,99.5C 859.567,97.5756 859.9,95.5756 860.5,93.5C 861.522,93.8555 862.189,94.5222 862.5,95.5 Z"/></g>
<g><path style="opacity:1" fill="#e8564c" d="M 862.5,95.5 C 862.189,94.5222 861.522,93.8555 860.5,93.5C 859.9,95.5756 859.567,97.5756 859.5,99.5C 858.5,98.8333 857.5,98.1667 856.5,97.5C 855.9,99.5756 855.567,101.576 855.5,103.5C 854.5,102.833 853.5,102.167 852.5,101.5C 852.167,104.167 851.833,106.833 851.5,109.5C 848.349,112.15 845.349,114.984 842.5,118C 846.354,118.369 849.687,117.202 852.5,114.5C 852.488,110.928 854.321,108.261 858,106.5C 859.605,107.101 860.938,108.101 862,109.5C 861.205,114.784 858.039,117.451 852.5,117.5C 852.5,119.5 852.5,121.5 852.5,123.5C 853.873,123.657 855.207,123.49 856.5,123C 858.229,119.099 860.896,115.933 864.5,113.5C 870.184,115.531 870.851,118.531 866.5,122.5C 863.688,123.425 860.855,124.425 858,125.5C 857.502,128.482 857.335,131.482 857.5,134.5C 856.5,134.5 855.5,134.5 854.5,134.5C 854.575,131.794 854.908,129.127 855.5,126.5C 852.873,127.092 850.206,127.425 847.5,127.5C 847.955,125.633 848.622,123.8 849.5,122C 849.167,121.167 848.833,120.333 848.5,119.5C 845.979,120.785 843.313,121.452 840.5,121.5C 840.649,120.448 840.483,119.448 840,118.5C 833.826,113.845 834.326,112.845 841.5,115.5C 842.254,112.658 843.588,109.991 845.5,107.5C 846.167,106.167 846.833,106.167 847.5,107.5C 846.363,112.551 847.03,112.551 849.5,107.5C 848.191,105.024 846.358,103.024 844,101.5C 843.51,100.207 843.343,98.8734 843.5,97.5C 847.754,93.5855 852.088,89.5855 856.5,85.5C 859.833,88.1667 862.833,91.1667 865.5,94.5C 864.675,95.3857 863.675,95.719 862.5,95.5 Z"/></g>
<g><path style="opacity:1" fill="#f9bdbf" d="M 863.5,116.5 C 867.379,117.836 867.379,119.502 863.5,121.5C 861.07,119.963 861.07,118.296 863.5,116.5 Z"/></g>
<g><path style="opacity:1" fill="#f9b8b8" d="M 856.5,109.5 C 860.379,110.836 860.379,112.502 856.5,114.5C 854.07,112.963 854.07,111.296 856.5,109.5 Z"/></g>
<g><path style="opacity:1" fill="#f6a8a6" d="M 843.5,97.5 C 843.343,98.8734 843.51,100.207 844,101.5C 846.358,103.024 848.191,105.024 849.5,107.5C 847.03,112.551 846.363,112.551 847.5,107.5C 846.833,106.167 846.167,106.167 845.5,107.5C 843.588,109.991 842.254,112.658 841.5,115.5C 841.5,114.5 841.5,113.5 841.5,112.5C 839.801,112.473 838.467,111.806 837.5,110.5C 839.403,108.372 841.069,106.039 842.5,103.5C 841.452,102.452 840.452,101.452 839.5,100.5C 840.795,99.5116 842.128,98.5116 843.5,97.5 Z"/></g>
<g><path style="opacity:1" fill="#dc6058" d="M 843.5,104.5 C 844.573,105.251 844.74,106.251 844,107.5C 843.059,109.061 841.892,110.395 840.5,111.5C 840.167,111.167 839.833,110.833 839.5,110.5C 841.252,108.754 842.585,106.754 843.5,104.5 Z"/></g>
<g><path style="opacity:1" fill="#df5f56" d="M 839.5,100.5 C 840.452,101.452 841.452,102.452 842.5,103.5C 841.069,106.039 839.403,108.372 837.5,110.5C 836.624,110.631 835.957,110.298 835.5,109.5C 836.48,108.019 837.647,106.685 839,105.5C 839.688,104.668 839.521,104.002 838.5,103.5C 837.019,104.48 835.685,105.647 834.5,107C 833.365,107.749 832.365,107.583 831.5,106.5C 834.196,104.491 836.863,102.491 839.5,100.5 Z"/></g>
<g><path style="opacity:1" fill="#e4574d" d="M 870.5,100.5 C 872.948,100.01 874.615,100.843 875.5,103C 874.575,108.116 874.242,113.283 874.5,118.5C 873.5,118.5 872.5,118.5 871.5,118.5C 871.5,116.5 871.5,114.5 871.5,112.5C 867.167,111.5 864.5,108.833 863.5,104.5C 861.712,104.785 860.045,104.452 858.5,103.5C 862.787,103.027 866.787,102.027 870.5,100.5 Z"/></g>
<g><path style="opacity:1" fill="#fbbbbc" d="M 870.5,103.5 C 871.497,103.47 872.164,103.97 872.5,105C 871.873,107.135 871.373,109.302 871,111.5C 868.982,109.65 867.149,107.65 865.5,105.5C 867.291,104.83 868.958,104.163 870.5,103.5 Z"/></g>
<g><path style="opacity:1" fill="#fabec0" d="M 846.5,97.5 C 849.5,97.1667 850.833,98.5 850.5,101.5C 847.5,101.833 846.167,100.5 846.5,97.5 Z"/></g>
<g><path style="opacity:1" fill="#fbbbbd" d="M 850.5,93.5 C 853.166,93.0658 854.333,94.0658 854,96.5C 852.129,97.6678 850.629,97.1678 849.5,95C 850.056,94.6174 850.389,94.1174 850.5,93.5 Z"/></g>
<g><path style="opacity:1" fill="#e95045" d="M 823.5,94.5 C 820.279,93.2907 817.279,91.624 814.5,89.5C 813.571,88.3112 813.238,86.9778 813.5,85.5C 815.235,87.0927 817.235,87.926 819.5,88C 821.667,85.8333 823.833,83.6667 826,81.5C 826.353,80.3284 826.187,79.1618 825.5,78C 825.85,76.7425 826.517,76.4092 827.5,77C 829.351,78.6837 831.018,80.5171 832.5,82.5C 830.892,83.2421 829.225,83.4087 827.5,83C 826.023,85.4449 824.19,87.6116 822,89.5C 822.487,91.0438 822.987,92.7105 823.5,94.5 Z"/></g>
<g><path style="opacity:1" fill="#fbb9b9" d="M 854.5,89.5 C 857.5,89.1667 858.833,90.5 858.5,93.5C 855.5,93.8333 854.167,92.5 854.5,89.5 Z"/></g>
<g><path style="opacity:1" fill="#e8554a" d="M 811.5,71.5 C 814.251,73.7453 816.917,76.2453 819.5,79C 816.954,80.7106 814.954,82.8773 813.5,85.5C 812.262,86.4124 810.928,86.5791 809.5,86C 807.5,84 805.5,82 803.5,80C 805.667,76.6671 808.334,73.8337 811.5,71.5 Z"/></g>
<g><path style="opacity:1" fill="#e9554a" d="M 844.5,73.5 C 845.338,73.8417 845.672,74.5084 845.5,75.5C 842.508,79.2064 843.175,82.2064 847.5,84.5C 844.253,85.9658 841.92,84.9658 840.5,81.5C 834.232,86.7514 829.566,93.0847 826.5,100.5C 828.484,100.617 830.15,99.9501 831.5,98.5C 832.833,99.5 832.833,100.5 831.5,101.5C 829.149,103.229 826.482,103.896 823.5,103.5C 823.298,101.05 823.631,98.717 824.5,96.5C 828.395,90.5914 832.728,84.9247 837.5,79.5C 835.851,77.3501 834.018,75.3501 832,73.5C 830.595,67.9216 827.429,63.5883 822.5,60.5C 821.15,59.1765 821.317,58.1765 823,57.5C 824.944,58.4394 826.611,59.7727 828,61.5C 828.941,59.9386 830.108,58.6053 831.5,57.5C 832.383,59.7383 832.05,61.905 830.5,64C 831.714,69.5602 834.881,73.7268 840,76.5C 841.643,75.6854 843.143,74.6854 844.5,73.5 Z"/></g>
<g><path style="opacity:1" fill="#0158a2" d="M 1002.5,333.5 C 1002.5,242.5 1002.5,151.5 1002.5,60.5C 1003.22,60.0825 1003.72,59.4158 1004,58.5C 1004.67,150.5 1004.67,242.5 1004,334.5C 1003.62,333.944 1003.12,333.611 1002.5,333.5 Z"/></g>
<g><path style="opacity:1" fill="#fbc1c3" d="M 822.5,60.5 C 827.429,63.5883 830.595,67.9216 832,73.5C 834.018,75.3501 835.851,77.3501 837.5,79.5C 832.728,84.9247 828.395,90.5914 824.5,96.5C 824.672,95.5084 824.338,94.8417 823.5,94.5C 822.987,92.7105 822.487,91.0438 822,89.5C 824.19,87.6116 826.023,85.4449 827.5,83C 829.225,83.4087 830.892,83.2421 832.5,82.5C 831.018,80.5171 829.351,78.6837 827.5,77C 826.517,76.4092 825.85,76.7425 825.5,78C 826.187,79.1618 826.353,80.3284 826,81.5C 823.833,83.6667 821.667,85.8333 819.5,88C 817.235,87.926 815.235,87.0927 813.5,85.5C 814.954,82.8773 816.954,80.7106 819.5,79C 816.917,76.2453 814.251,73.7453 811.5,71.5C 812.581,69.8664 813.915,68.533 815.5,67.5C 816.833,66.1667 818.167,64.8333 819.5,63.5C 819.81,61.8564 820.81,60.8564 822.5,60.5 Z"/></g>
<g><path style="opacity:1" fill="#e4716a" d="M 845.5,75.5 C 845.672,74.5084 845.338,73.8417 844.5,73.5C 844.811,72.5222 845.478,71.8555 846.5,71.5C 848.687,74.5485 849.52,77.8818 849,81.5C 848.586,81.9574 848.086,82.2907 847.5,82.5C 846.832,80.0312 846.165,77.6979 845.5,75.5 Z"/></g>
<g><path style="opacity:1" fill="#fbc2c5" d="M 810.5,75.5 C 812.818,75.6571 814.484,76.8238 815.5,79C 814.003,80.6621 812.337,82.1621 810.5,83.5C 806.667,80.9427 806.667,78.276 810.5,75.5 Z"/></g>
<g><path style="opacity:1" fill="#e8584f" d="M 815.5,67.5 C 818.744,69.0713 821.411,71.4046 823.5,74.5C 822.635,75.5827 821.635,75.7494 820.5,75C 817.758,73.1136 816.091,70.6136 815.5,67.5 Z"/></g>
<g><path style="opacity:1" fill="#185587" d="M 1000.5,60.5 C 1001.17,60.5 1001.83,60.5 1002.5,60.5C 1002.5,151.5 1002.5,242.5 1002.5,333.5C 1001.29,335.63 999.956,337.63 998.5,339.5C 999.642,335.929 1000.31,332.262 1000.5,328.5C 1001.83,239.306 1001.83,149.973 1000.5,60.5 Z"/></g>
<g><path style="opacity:1" fill="#e64f44" d="M 819.5,63.5 C 822.744,65.0713 825.411,67.4046 827.5,70.5C 826.998,71.521 826.332,71.6877 825.5,71C 822.882,68.8943 820.882,66.3943 819.5,63.5 Z"/></g>
<g><path style="opacity:1" fill="#0258a0" d="M 114.5,369.5 C 397.666,368.334 681,368.167 964.5,369C 822.973,370.166 681.306,370.666 539.5,370.5C 397.764,370.499 256.097,370.166 114.5,369.5 Z"/></g>
<g><path style="opacity:1" fill="#effcfe" d="M 107.5,370.5 C 394.139,371.498 680.806,371.831 967.5,371.5C 967.5,371.833 967.5,372.167 967.5,372.5C 681.5,372.5 395.5,372.5 109.5,372.5C 108.167,372.5 107.5,371.833 107.5,370.5 Z"/></g>
<g><path style="opacity:1" fill="#fef9f4" d="M 109.5,372.5 C 395.5,372.5 681.5,372.5 967.5,372.5C 969.933,372.786 969.933,373.452 967.5,374.5C 681.833,374.5 396.167,374.5 110.5,374.5C 110.167,373.833 109.833,373.167 109.5,372.5 Z"/></g>
<g><path style="opacity:1" fill="#f8fafc" d="M 110.5,374.5 C 396.167,374.5 681.833,374.5 967.5,374.5C 967.611,375.117 967.944,375.617 968.5,376C 683.166,376.167 397.833,376.667 112.5,377.5C 398.5,378.167 684.5,378.833 970.5,379.5C 968.376,380.149 966.376,380.983 964.5,382C 965.167,382.333 965.833,382.667 966.5,383C 685.833,383.667 405.167,383.667 124.5,383C 125.766,382.691 126.933,382.191 128,381.5C 405.206,381.421 682.54,381.755 960,382.5C 961.225,382.138 962.391,381.638 963.5,381C 679.5,380.5 395.5,380.333 111.5,380.5C 111.859,378.234 111.192,376.401 109.5,375C 109.728,374.601 110.062,374.435 110.5,374.5 Z"/></g>
</svg>
