<?xml version="1.0" encoding="UTF-8"?>
<!DOCTYPE svg PUBLIC "-//W3C//DTD SVG 1.1//EN" "http://www.w3.org/Graphics/SVG/1.1/DTD/svg11.dtd">
<svg xmlns="http://www.w3.org/2000/svg" version="1.1" width="1080px" height="393px" style="shape-rendering:geometricPrecision; text-rendering:geometricPrecision; image-rendering:optimizeQuality; fill-rule:evenodd; clip-rule:evenodd" xmlns:xlink="http://www.w3.org/1999/xlink">
<g><path style="opacity:1" fill="#f9fafa" d="M -0.5,-0.5 C 359.5,-0.5 719.5,-0.5 1079.5,-0.5C 1079.5,130.5 1079.5,261.5 1079.5,392.5C 719.5,392.5 359.5,392.5 -0.5,392.5C -0.5,261.5 -0.5,130.5 -0.5,-0.5 Z"/></g>
<g><path style="opacity:1" fill="#cfe6ef" d="M 972.5,24.5 C 971.167,24.5 969.833,24.5 968.5,24.5C 682.5,24.3333 396.5,24.5 110.5,25C 109.263,25.2321 108.263,25.7321 107.5,26.5C 105.139,26.6741 102.806,27.0074 100.5,27.5C 102.645,25.2646 104.812,22.9312 107,20.5C 393.731,22.3308 680.564,23.1642 967.5,23C 969.382,23.1981 971.048,23.6981 972.5,24.5 Z"/></g>
<g><path style="opacity:1" fill="#1c547c" d="M 968.5,24.5 C 968.5,24.8333 968.5,25.1667 968.5,25.5C 681.479,25.1698 394.479,25.5031 107.5,26.5C 108.263,25.7321 109.263,25.2321 110.5,25C 396.5,24.5 682.5,24.3333 968.5,24.5 Z"/></g>
<g><path style="opacity:1" fill="#9bbdd6" d="M 968.5,25.5 C 968.5,25.1667 968.5,24.8333 968.5,24.5C 969.833,24.5 971.167,24.5 972.5,24.5C 973.167,25.1667 973.833,25.8333 974.5,26.5C 972.435,26.4828 970.435,26.1495 968.5,25.5 Z"/></g>
<g><path style="opacity:1" fill="#0c5697" d="M 968.5,25.5 C 970.435,26.1495 972.435,26.4828 974.5,26.5C 987.014,31.3513 996.347,39.6847 1002.5,51.5C 1002.68,54.2165 1003.18,56.8832 1004,59.5C 1004.67,151.833 1004.67,244.167 1004,336.5C 1002.48,339.051 1001.65,338.718 1001.5,335.5C 1002.16,289.541 1002.5,243.541 1002.5,197.5C 1002.5,151.828 1001.83,106.495 1000.5,61.5C 995.526,46.526 985.526,36.526 970.5,31.5C 969.158,30.207 967.491,29.3736 965.5,29C 681.333,28.167 397.333,28.3336 113.5,29.5C 110.728,29.7587 108.395,30.7587 106.5,32.5C 105.833,32.5 105.167,32.5 104.5,32.5C 102.436,32.313 100.436,31.813 98.5,31C 101.714,29.6264 104.714,28.1264 107.5,26.5C 394.479,25.5031 681.479,25.1698 968.5,25.5 Z"/></g>
<g><path style="opacity:1" fill="#175383" d="M 113.5,29.5 C 397.333,28.3336 681.333,28.167 965.5,29C 967.491,29.3736 969.158,30.207 970.5,31.5C 968.435,31.4828 966.435,31.1495 964.5,30.5C 681,29.5002 397.334,29.1669 113.5,29.5 Z"/></g>
<g><path style="opacity:1" fill="#6b93ac" d="M 113.5,29.5 C 397.334,29.1669 681,29.5002 964.5,30.5C 681.5,30.3333 398.5,30.5 115.5,31C 112.456,31.3629 109.456,31.8629 106.5,32.5C 108.395,30.7587 110.728,29.7587 113.5,29.5 Z"/></g>
<g><path style="opacity:1" fill="#f9f9f9" d="M 964.5,30.5 C 966.435,31.1495 968.435,31.4828 970.5,31.5C 985.526,36.526 995.526,46.526 1000.5,61.5C 1000.5,62.1667 1000.5,62.8333 1000.5,63.5C 1000.82,154.18 1000.48,244.847 999.5,335.5C 995.424,349.705 986.424,359.038 972.5,363.5C 685.511,364.494 398.511,364.827 111.5,364.5C 109.194,364.007 106.861,363.674 104.5,363.5C 89.4608,357.118 80.7941,345.784 78.5,329.5C 78.3333,241.166 78.5,152.833 79,64.5C 79.3333,63.5 79.6667,62.5 80,61.5C 80.6667,60.1667 81.3333,60.1667 82,61.5C 81.8163,58.1239 82.983,55.4573 85.5,53.5C 84.4647,51.8716 84.4647,50.205 85.5,48.5C 90.0608,40.9294 96.3941,35.596 104.5,32.5C 105.167,32.5 105.833,32.5 106.5,32.5C 109.456,31.8629 112.456,31.3629 115.5,31C 398.5,30.5 681.5,30.3333 964.5,30.5 Z"/></g>
<g><path style="opacity:1" fill="#235d97" d="M 107.5,26.5 C 104.714,28.1264 101.714,29.6264 98.5,31C 100.436,31.813 102.436,32.313 104.5,32.5C 96.3941,35.596 90.0608,40.9294 85.5,48.5C 83.4159,50.5764 81.7492,52.9097 80.5,55.5C 81.128,51.5089 79.7947,50.1755 76.5,51.5C 81.5317,40.4683 89.5317,32.4683 100.5,27.5C 102.806,27.0074 105.139,26.6741 107.5,26.5 Z"/></g>
<g><path style="opacity:1" fill="#0a5798" d="M 80.5,55.5 C 79.9759,57.3057 79.3092,58.9724 78.5,60.5C 77.8826,60.6107 77.3826,60.944 77,61.5C 76.5,151.499 76.3333,241.499 76.5,331.5C 77.0102,334.388 76.3435,336.721 74.5,338.5C 74.1667,338.5 73.8333,338.5 73.5,338.5C 73.0371,335.518 72.7038,332.518 72.5,329.5C 72.3333,242.833 72.5,156.166 73,69.5C 74.1946,65.2486 74.6946,60.9152 74.5,56.5C 74.4021,54.4471 75.0687,52.7804 76.5,51.5C 79.7947,50.1755 81.128,51.5089 80.5,55.5 Z"/></g>
<g><path style="opacity:1" fill="#fecacf" d="M 797.5,54.5 C 801.707,54.1149 805.707,54.1149 809.5,54.5C 824.837,54.3334 840.17,54.5001 855.5,55C 895.973,95.473 936.473,135.973 977,176.5C 977.833,202.173 977.666,227.84 976.5,253.5C 969.178,254.644 961.844,254.477 954.5,253C 948.542,248.711 942.876,244.044 937.5,239C 884.442,185.942 831.275,132.775 778,79.5C 776,75.5 774,71.5 772,67.5C 771.501,63.1794 771.334,58.8461 771.5,54.5C 780.39,54.3936 789.057,54.3936 797.5,54.5 Z"/></g>
<g><path style="opacity:1" fill="#da635d" d="M 809.5,54.5 C 810.458,55.9616 811.624,57.2949 813,58.5C 813.749,59.635 813.583,60.635 812.5,61.5C 810.167,59.8333 808.167,57.8333 806.5,55.5C 807.325,54.6143 808.325,54.281 809.5,54.5 Z"/></g>
<g><path style="opacity:1" fill="#da5e58" d="M 797.5,54.5 C 800.472,58.3037 803.972,61.637 808,64.5C 808.601,65.9653 808.101,66.9653 806.5,67.5C 803.182,63.6819 799.682,60.0152 796,56.5C 795.472,55.184 795.972,54.5173 797.5,54.5 Z"/></g>
<g><path style="opacity:1" fill="#e4fbfe" d="M 72.5,59.5 C 71.1756,149.646 71.1756,239.646 72.5,329.5C 72.7038,332.518 73.0371,335.518 73.5,338.5C 72.8826,338.389 72.3826,338.056 72,337.5C 71.6667,335.5 71.3333,333.5 71,331.5C 70.3333,241.5 70.3333,151.5 71,61.5C 71.2784,60.5842 71.7784,59.9175 72.5,59.5 Z"/></g>
<g><path style="opacity:1" fill="#1b527e" d="M 1000.5,61.5 C 1001.83,106.495 1002.5,151.828 1002.5,197.5C 1002.5,243.541 1002.16,289.541 1001.5,335.5C 1001.17,335.5 1000.83,335.5 1000.5,335.5C 1001.82,244.687 1001.82,154.021 1000.5,63.5C 1000.5,62.8333 1000.5,62.1667 1000.5,61.5 Z"/></g>
<g><path style="opacity:1" fill="#1b5582" d="M 74.5,56.5 C 74.6946,60.9152 74.1946,65.2486 73,69.5C 72.5,156.166 72.3333,242.833 72.5,329.5C 71.1756,239.646 71.1756,149.646 72.5,59.5C 73.1667,58.5 73.8333,57.5 74.5,56.5 Z"/></g>
<g><path style="opacity:1" fill="#e1fbfd" d="M 85.5,48.5 C 84.4647,50.205 84.4647,51.8716 85.5,53.5C 82.983,55.4573 81.8163,58.1239 82,61.5C 81.3333,60.1667 80.6667,60.1667 80,61.5C 79.6667,62.5 79.3333,63.5 79,64.5C 78.5,152.833 78.3333,241.166 78.5,329.5C 78.1667,329.5 77.8333,329.5 77.5,329.5C 77.1743,239.805 77.5076,150.138 78.5,60.5C 79.3092,58.9724 79.9759,57.3057 80.5,55.5C 81.7492,52.9097 83.4159,50.5764 85.5,48.5 Z"/></g>
<g><path style="opacity:1" fill="#e4fafd" d="M 1000.5,63.5 C 1001.82,154.021 1001.82,244.687 1000.5,335.5C 1000.17,335.5 999.833,335.5 999.5,335.5C 1000.48,244.847 1000.82,154.18 1000.5,63.5 Z"/></g>
<g><path style="opacity:1" fill="#155792" d="M 1002.5,51.5 C 1004.66,55.1402 1006.16,59.1402 1007,63.5C 1007.67,153.167 1007.67,242.833 1007,332.5C 1002.69,351.307 991.52,363.974 973.5,370.5C 972.5,370.5 971.5,370.5 970.5,370.5C 972.378,368.3 974.711,366.633 977.5,365.5C 976.045,364.255 974.711,364.422 973.5,366C 970.518,366.498 967.518,366.665 964.5,366.5C 967.167,365.5 969.833,364.5 972.5,363.5C 986.424,359.038 995.424,349.705 999.5,335.5C 999.833,335.5 1000.17,335.5 1000.5,335.5C 1000.83,335.5 1001.17,335.5 1001.5,335.5C 1001.65,338.718 1002.48,339.051 1004,336.5C 1004.67,244.167 1004.67,151.833 1004,59.5C 1003.18,56.8832 1002.68,54.2165 1002.5,51.5 Z"/></g>
<g><path style="opacity:1" fill="#165385" d="M 78.5,60.5 C 77.5076,150.138 77.1743,239.805 77.5,329.5C 77.6716,330.492 77.3382,331.158 76.5,331.5C 76.3333,241.499 76.5,151.499 77,61.5C 77.3826,60.944 77.8826,60.6107 78.5,60.5 Z"/></g>
<g><path style="opacity:1" fill="#e05d55" d="M 810.5,72.5 C 813.734,74.3853 816.734,76.7186 819.5,79.5C 817.833,81.5 816.167,83.5 814.5,85.5C 815.825,88.3292 817.825,88.9958 820.5,87.5C 821.859,85.3078 823.692,83.6411 826,82.5C 826.54,80.8654 826.04,79.5321 824.5,78.5C 825.167,78.1667 825.833,77.8333 826.5,77.5C 828.457,78.9535 830.29,80.6202 832,82.5C 832.749,83.635 832.583,84.635 831.5,85.5C 830.5,84.8333 829.5,84.1667 828.5,83.5C 826.183,85.316 824.016,87.316 822,89.5C 822.027,91.4174 822.861,93.084 824.5,94.5C 823.192,95.6256 821.858,95.6256 820.5,94.5C 816.934,92.8071 814.434,90.1404 813,86.5C 811.951,87.5171 810.784,87.6838 809.5,87C 807.316,84.9835 805.316,82.8169 803.5,80.5C 805.856,77.8136 808.189,75.147 810.5,72.5 Z"/></g>
<g><path style="opacity:1" fill="#fdbfc1" d="M 821.5,60.5 C 826.786,63.9361 830.286,68.6028 832,74.5C 834.513,75.6794 836.346,77.5127 837.5,80C 832.6,86.0564 827.933,92.2231 823.5,98.5C 822.5,97.1667 821.5,95.8333 820.5,94.5C 821.858,95.6256 823.192,95.6256 824.5,94.5C 822.861,93.084 822.027,91.4174 822,89.5C 824.016,87.316 826.183,85.316 828.5,83.5C 829.5,84.1667 830.5,84.8333 831.5,85.5C 832.583,84.635 832.749,83.635 832,82.5C 830.29,80.6202 828.457,78.9535 826.5,77.5C 825.833,77.8333 825.167,78.1667 824.5,78.5C 826.04,79.5321 826.54,80.8654 826,82.5C 823.692,83.6411 821.859,85.3078 820.5,87.5C 817.825,88.9958 815.825,88.3292 814.5,85.5C 816.167,83.5 817.833,81.5 819.5,79.5C 816.734,76.7186 813.734,74.3853 810.5,72.5C 812.279,71.3303 813.279,69.6636 813.5,67.5C 815.099,67.2322 816.432,67.5655 817.5,68.5C 818.833,68.5 819.5,67.8333 819.5,66.5C 818.903,66.2648 818.57,65.7648 818.5,65C 819.555,63.4928 820.555,61.9928 821.5,60.5 Z"/></g>
<g><path style="opacity:1" fill="#dd615b" d="M 817.5,68.5 C 819.477,70.8138 821.477,73.1472 823.5,75.5C 822.635,76.5827 821.635,76.7494 820.5,76C 818.443,74.2806 816.776,72.2806 815.5,70C 815.836,68.9701 816.503,68.4701 817.5,68.5 Z"/></g>
<g><path style="opacity:1" fill="#da5c54" d="M 819.5,66.5 C 819.517,64.9719 820.184,64.4719 821.5,65C 824.296,66.4186 826.296,68.5853 827.5,71.5C 826.998,72.521 826.332,72.6877 825.5,72C 823.63,69.9604 821.63,68.1271 819.5,66.5 Z"/></g>
<g><path style="opacity:1" fill="#febab8" d="M 844.5,77.5 C 845.649,77.7911 846.316,78.6244 846.5,80C 846.316,81.3756 845.649,82.2089 844.5,82.5C 844.047,81.5416 843.381,80.7083 842.5,80C 843.066,79.0053 843.733,78.172 844.5,77.5 Z"/></g>
<g><path style="opacity:1" fill="#febfc1" d="M 810.5,76.5 C 816.819,78.3045 816.985,80.6379 811,83.5C 809.378,83.0459 808.212,82.0459 807.5,80.5C 808.524,79.1482 809.524,77.8149 810.5,76.5 Z"/></g>
<g><path style="opacity:1" fill="#e07772" d="M 844.5,73.5 C 845.209,72.596 846.209,72.2627 847.5,72.5C 847.473,75.2298 848.14,77.7298 849.5,80C 849.443,82.2089 848.443,83.7089 846.5,84.5C 845.5,84.1667 844.833,83.5 844.5,82.5C 845.649,82.2089 846.316,81.3756 846.5,80C 846.316,78.6244 845.649,77.7911 844.5,77.5C 845.141,76.5178 845.807,75.5178 846.5,74.5C 846.043,73.7025 845.376,73.3691 844.5,73.5 Z"/></g>
<g><path style="opacity:1" fill="#e05951" d="M 844.5,73.5 C 845.376,73.3691 846.043,73.7025 846.5,74.5C 845.807,75.5178 845.141,76.5178 844.5,77.5C 843.733,78.172 843.066,79.0053 842.5,80C 843.381,80.7083 844.047,81.5416 844.5,82.5C 844.833,83.5 845.5,84.1667 846.5,84.5C 846.631,85.3764 846.298,86.0431 845.5,86.5C 843.833,85.1667 842.167,83.8333 840.5,82.5C 835.639,86.5608 831.473,91.2275 828,96.5C 827.283,100.768 828.45,101.434 831.5,98.5C 831.833,99 832.167,99.5 832.5,100C 830.582,103.62 827.749,104.787 824,103.5C 823.506,101.866 823.34,100.199 823.5,98.5C 827.933,92.2231 832.6,86.0564 837.5,80C 836.346,77.5127 834.513,75.6794 832,74.5C 830.286,68.6028 826.786,63.9361 821.5,60.5C 821.47,59.5028 821.97,58.8361 823,58.5C 824.944,59.4394 826.611,60.7727 828,62.5C 828.923,61.2412 829.757,59.9079 830.5,58.5C 831.706,60.4841 831.706,62.4841 830.5,64.5C 831.5,65.8333 832.5,67.1667 833.5,68.5C 833.291,69.086 832.957,69.586 832.5,70C 835.086,73.299 838.086,75.6323 841.5,77C 842.163,75.4815 843.163,74.3149 844.5,73.5 Z"/></g>
<g><path style="opacity:1" fill="#df5f58" d="M 871.5,101.5 C 872.833,101.5 874.167,101.5 875.5,101.5C 874.693,107.464 874.36,113.464 874.5,119.5C 873.5,119.5 872.5,119.5 871.5,119.5C 871.5,117.5 871.5,115.5 871.5,113.5C 867.167,112.5 864.5,109.833 863.5,105.5C 861.833,105.5 860.167,105.5 858.5,105.5C 858.5,104.5 858.5,103.5 858.5,102.5C 863.032,102.818 867.366,102.485 871.5,101.5 Z"/></g>
<g><path style="opacity:1" fill="#fdbcbd" d="M 870.5,104.5 C 871.497,104.47 872.164,104.97 872.5,106C 872.062,107.92 871.395,109.754 870.5,111.5C 869.167,109.833 867.833,108.167 866.5,106.5C 867.949,105.828 869.282,105.161 870.5,104.5 Z"/></g>
<g><path style="opacity:1" fill="#db6863" d="M 838.5,101.5 C 840.078,102.066 841.412,103.066 842.5,104.5C 840.748,106.246 839.415,108.246 838.5,110.5C 837.425,111.562 836.425,111.562 835.5,110.5C 836.48,109.019 837.647,107.685 839,106.5C 839.688,105.668 839.521,105.002 838.5,104.5C 836.476,106.358 834.309,108.025 832,109.5C 831.833,109 831.667,108.5 831.5,108C 833.639,105.697 835.972,103.53 838.5,101.5 Z"/></g>
<g><path style="opacity:1" fill="#f79e9b" d="M 842.5,98.5 C 842.351,99.552 842.517,100.552 843,101.5C 845.69,103.356 847.856,105.689 849.5,108.5C 847.278,112.712 846.111,112.379 846,107.5C 844.205,110.099 842.705,112.766 841.5,115.5C 841.179,113.952 840.179,113.285 838.5,113.5C 838.5,112.5 838.5,111.5 838.5,110.5C 839.415,108.246 840.748,106.246 842.5,104.5C 841.412,103.066 840.078,102.066 838.5,101.5C 839.926,100.659 841.26,99.6588 842.5,98.5 Z"/></g>
<g><path style="opacity:1" fill="#fcb6b6" d="M 861.5,100.5 C 864.625,101.479 867.958,101.813 871.5,101.5C 867.366,102.485 863.032,102.818 858.5,102.5C 858.5,103.5 858.5,104.5 858.5,105.5C 860.167,105.5 861.833,105.5 863.5,105.5C 864.5,109.833 867.167,112.5 871.5,113.5C 871.5,115.5 871.5,117.5 871.5,119.5C 872.5,119.5 873.5,119.5 874.5,119.5C 872.698,120.458 870.698,121.125 868.5,121.5C 869.935,118.053 868.768,115.72 865,114.5C 861.645,116.355 859.145,119.022 857.5,122.5C 856.15,123.95 854.484,124.617 852.5,124.5C 852.5,122.5 852.5,120.5 852.5,118.5C 857.24,118.608 860.573,116.442 862.5,112C 859.733,106.2 856.566,106.033 853,111.5C 852.506,113.134 852.34,114.801 852.5,116.5C 849.575,117.639 846.575,118.139 843.5,118C 846.333,115.167 849.167,112.333 852,109.5C 852.116,107.345 851.783,105.345 851,103.5C 852.68,102.397 854.18,102.73 855.5,104.5C 855.567,102.576 855.9,100.576 856.5,98.5C 857.85,99.9501 859.516,100.617 861.5,100.5 Z"/></g>
<g><path style="opacity:1" fill="#e15f57" d="M 861.5,100.5 C 859.516,100.617 857.85,99.9501 856.5,98.5C 855.9,100.576 855.567,102.576 855.5,104.5C 854.18,102.73 852.68,102.397 851,103.5C 851.783,105.345 852.116,107.345 852,109.5C 849.167,112.333 846.333,115.167 843.5,118C 846.575,118.139 849.575,117.639 852.5,116.5C 852.34,114.801 852.506,113.134 853,111.5C 856.566,106.033 859.733,106.2 862.5,112C 860.573,116.442 857.24,118.608 852.5,118.5C 852.5,120.5 852.5,122.5 852.5,124.5C 854.484,124.617 856.15,123.95 857.5,122.5C 859.145,119.022 861.645,116.355 865,114.5C 868.768,115.72 869.935,118.053 868.5,121.5C 866.852,122.81 865.186,124.143 863.5,125.5C 861.833,124.167 860.167,124.167 858.5,125.5C 857.833,128.5 857.167,131.5 856.5,134.5C 855.526,132.257 855.192,129.924 855.5,127.5C 852.753,127.813 850.086,127.48 847.5,126.5C 849.479,124.736 849.812,122.736 848.5,120.5C 842.808,122.35 838.474,120.684 835.5,115.5C 835.808,114.692 836.308,114.025 837,113.5C 838.019,114.687 839.186,115.687 840.5,116.5C 841.107,116.376 841.44,116.043 841.5,115.5C 842.705,112.766 844.205,110.099 846,107.5C 846.111,112.379 847.278,112.712 849.5,108.5C 847.856,105.689 845.69,103.356 843,101.5C 842.517,100.552 842.351,99.552 842.5,98.5C 846.818,94.3523 851.318,90.3523 856,86.5C 860.432,89.4282 863.932,93.0949 866.5,97.5C 864.339,97.1742 862.506,96.1742 861,94.5C 860.308,95.0253 859.808,95.6919 859.5,96.5C 860.63,97.6223 861.297,98.9557 861.5,100.5 Z"/></g>
<g><path style="opacity:1" fill="#fdbdbc" d="M 856.5,110.5 C 857.756,110.461 858.756,110.961 859.5,112C 858.692,113.706 857.359,114.539 855.5,114.5C 855.433,113.041 855.766,111.708 856.5,110.5 Z"/></g>
<g><path style="opacity:1" fill="#fdb4b3" d="M 846.5,98.5 C 849.166,98.0658 850.333,99.0658 850,101.5C 847.342,102.694 846.176,101.694 846.5,98.5 Z"/></g>
<g><path style="opacity:1" fill="#feb1af" d="M 850.5,94.5 C 853.166,94.0658 854.333,95.0658 854,97.5C 851.342,98.694 850.176,97.694 850.5,94.5 Z"/></g>
<g><path style="opacity:1" fill="#ffb9b6" d="M 854.5,90.5 C 856.346,90.2222 857.68,90.8888 858.5,92.5C 856.167,93.9415 854.834,93.2748 854.5,90.5 Z"/></g>
<g><path style="opacity:1" fill="#feb8b9" d="M 863.5,117.5 C 866.173,117.684 866.84,118.851 865.5,121C 861.447,121.468 860.78,120.302 863.5,117.5 Z"/></g>
<g><path style="opacity:1" fill="#e0645d" d="M 883.5,118.5 C 883.719,119.675 883.386,120.675 882.5,121.5C 878.736,124.611 874.736,127.277 870.5,129.5C 870.393,127.097 871.393,125.264 873.5,124C 876.767,121.865 880.101,120.031 883.5,118.5 Z"/></g>
<g><path style="opacity:1" fill="#fcb1af" d="M 883.5,118.5 C 884.833,118.5 886.167,118.5 887.5,118.5C 883.113,123.554 878.446,128.221 873.5,132.5C 872.9,131.1 871.9,130.1 870.5,129.5C 874.736,127.277 878.736,124.611 882.5,121.5C 883.386,120.675 883.719,119.675 883.5,118.5 Z"/></g>
<g><path style="opacity:1" fill="#e25a51" d="M 873.5,132.5 C 878.446,128.221 883.113,123.554 887.5,118.5C 888.287,116.896 889.62,116.229 891.5,116.5C 891.227,119.282 889.894,121.449 887.5,123C 887.978,125.226 888.645,127.392 889.5,129.5C 891.5,128.167 893.5,126.833 895.5,125.5C 895.833,126 896.167,126.5 896.5,127C 895.711,128.626 894.711,130.126 893.5,131.5C 894.212,133.046 895.378,134.046 897,134.5C 898.478,133.022 899.978,131.522 901.5,130C 903.667,129.5 904.5,130.333 904,132.5C 902.478,134.022 900.978,135.522 899.5,137C 901.296,139.633 903.296,142.133 905.5,144.5C 904.635,145.583 903.635,145.749 902.5,145C 898.515,138.943 894.849,139.11 891.5,145.5C 892.439,147.771 893.772,149.771 895.5,151.5C 895.167,152.167 894.833,152.833 894.5,153.5C 892.5,151.833 890.5,150.167 888.5,148.5C 881.374,151.963 880.874,155.963 887,160.5C 887.749,161.635 887.583,162.635 886.5,163.5C 881.175,158.344 875.675,153.344 870,148.5C 869.517,147.552 869.351,146.552 869.5,145.5C 873.302,146.779 876.469,149.112 879,152.5C 881.378,150.291 883.545,147.958 885.5,145.5C 884.214,143.71 882.714,142.043 881,140.5C 880.517,139.552 880.351,138.552 880.5,137.5C 883.075,138.881 885.575,140.548 888,142.5C 890.322,141.343 892.156,139.676 893.5,137.5C 893.471,135.971 892.804,134.804 891.5,134C 888.83,133.457 886.33,133.957 884,135.5C 882.341,134.046 882.674,132.713 885,131.5C 885.808,129.421 885.641,127.421 884.5,125.5C 878.167,132.5 871.5,139.167 864.5,145.5C 863.386,144.277 863.219,142.944 864,141.5C 867.036,138.296 870.203,135.296 873.5,132.5 Z"/></g>
<g><path style="opacity:1" fill="#c9e2f0" d="M 313.5,175.5 C 312.343,167.01 312.176,158.343 313,149.5C 313.772,148.151 314.939,147.318 316.5,147C 312.459,146.173 308.459,146.34 304.5,147.5C 305.602,148.176 306.602,148.842 307.5,149.5C 306.167,149.5 304.833,149.5 303.5,149.5C 303.5,147.833 303.5,146.167 303.5,144.5C 308.167,144.5 312.833,144.5 317.5,144.5C 317.392,147.382 316.226,149.715 314,151.5C 313.5,159.493 313.334,167.493 313.5,175.5 Z"/></g>
<g><path style="opacity:1" fill="#2d608e" d="M 422.5,146.5 C 426.264,147.385 427.264,149.552 425.5,153C 424.552,153.483 423.552,153.649 422.5,153.5C 422.727,151.067 421.727,149.401 419.5,148.5C 417.369,147.686 415.036,147.186 412.5,147C 415.817,146.502 419.15,146.335 422.5,146.5 Z"/></g>
<g><path style="opacity:1" fill="#396695" d="M 791.5,144.5 C 795.676,143.831 797.009,145.331 795.5,149C 794.207,149.49 792.873,149.657 791.5,149.5C 791.5,147.833 791.5,146.167 791.5,144.5 Z"/></g>
<g><path style="opacity:1" fill="#527da4" d="M 422.5,146.5 C 419.15,146.335 415.817,146.502 412.5,147C 415.036,147.186 417.369,147.686 419.5,148.5C 416.813,148.336 414.146,148.503 411.5,149C 410.944,149.383 410.611,149.883 410.5,150.5C 409.833,150.833 409.167,151.167 408.5,151.5C 408.5,150.167 407.833,149.5 406.5,149.5C 407.574,148.115 408.907,146.949 410.5,146C 414.689,145.188 418.689,145.355 422.5,146.5 Z"/></g>
<g><path style="opacity:1" fill="#17548b" d="M 313.5,175.5 C 314.1,176.9 315.1,177.9 316.5,178.5C 312.486,178.666 308.486,178.499 304.5,178C 306.061,177.682 307.228,176.849 308,175.5C 308.824,166.657 308.657,157.99 307.5,149.5C 306.602,148.842 305.602,148.176 304.5,147.5C 308.459,146.34 312.459,146.173 316.5,147C 314.939,147.318 313.772,148.151 313,149.5C 312.176,158.343 312.343,167.01 313.5,175.5 Z"/></g>
<g><path style="opacity:1" fill="#2f6291" d="M 344.5,162.5 C 342.952,162.179 342.285,161.179 342.5,159.5C 343.949,151.371 340.616,147.704 332.5,148.5C 331.833,153.167 331.167,157.833 330.5,162.5C 329.8,143.976 329.134,144.143 328.5,163C 328.833,167.833 329.167,172.667 329.5,177.5C 330.487,174.232 330.82,170.898 330.5,167.5C 331.167,170.167 331.833,172.833 332.5,175.5C 333.79,176.935 335.456,177.935 337.5,178.5C 332.833,179.833 328.167,179.833 323.5,178.5C 324.628,177.738 325.795,177.071 327,176.5C 327.5,167.173 327.666,157.839 327.5,148.5C 326.022,148.762 324.689,148.429 323.5,147.5C 329.472,146.336 335.472,146.17 341.5,147C 345.235,148.8 346.902,151.8 346.5,156C 346.664,158.544 345.997,160.71 344.5,162.5 Z"/></g>
<g><path style="opacity:1" fill="#eef7fb" d="M 332.5,148.5 C 340.616,147.704 343.949,151.371 342.5,159.5C 340.263,163.093 336.93,164.426 332.5,163.5C 332.5,158.5 332.5,153.5 332.5,148.5 Z"/></g>
<g><path style="opacity:1" fill="#306292" d="M 662.5,146.5 C 669.284,146.08 675.95,146.58 682.5,148C 687.015,152.264 687.682,157.097 684.5,162.5C 680.927,166.002 676.594,167.336 671.5,166.5C 671.5,165.833 671.5,165.167 671.5,164.5C 677.961,165.041 681.294,162.041 681.5,155.5C 680.789,149.788 677.456,147.454 671.5,148.5C 669.833,147.167 668.167,147.167 666.5,148.5C 664.517,148.843 663.183,148.176 662.5,146.5 Z"/></g>
<g><path style="opacity:1" fill="#0b5698" d="M 330.5,162.5 C 330.5,164.167 330.5,165.833 330.5,167.5C 330.82,170.898 330.487,174.232 329.5,177.5C 329.167,172.667 328.833,167.833 328.5,163C 329.134,144.143 329.8,143.976 330.5,162.5 Z"/></g>
<g><path style="opacity:1" fill="#bbd3e3" d="M 503.5,154.5 C 499.92,153.923 496.92,154.923 494.5,157.5C 493.614,156.675 493.281,155.675 493.5,154.5C 491.143,154.337 488.81,154.503 486.5,155C 487.737,155.232 488.737,155.732 489.5,156.5C 488.167,156.5 486.833,156.5 485.5,156.5C 485.5,155.5 485.5,154.5 485.5,153.5C 491.69,153.177 497.69,153.51 503.5,154.5 Z"/></g>
<g><path style="opacity:1" fill="#97b9cf" d="M 775.5,149.5 C 776.434,150.568 776.768,151.901 776.5,153.5C 778.415,153.216 780.081,153.549 781.5,154.5C 779.5,154.5 777.5,154.5 775.5,154.5C 775.5,152.833 775.5,151.167 775.5,149.5 Z"/></g>
<g><path style="opacity:1" fill="#215a8e" d="M 582.5,154.5 C 583.268,155.263 583.768,156.263 584,157.5C 588.678,153.311 593.011,153.644 597,158.5C 600.938,154.094 605.438,153.427 610.5,156.5C 611.257,163.119 611.757,169.785 612,176.5C 612.671,177.252 613.504,177.586 614.5,177.5C 612.393,178.468 610.059,178.802 607.5,178.5C 607.666,172.158 607.5,165.825 607,159.5C 603.528,156.582 600.528,156.915 598,160.5C 597.333,165.5 597.333,170.5 598,175.5C 598.417,176.756 599.25,177.423 600.5,177.5C 598.393,178.468 596.059,178.802 593.5,178.5C 593.666,172.158 593.5,165.825 593,159.5C 589.528,156.582 586.528,156.915 584,160.5C 583.501,165.489 583.334,170.489 583.5,175.5C 584.058,176.79 585.058,177.623 586.5,178C 582.848,178.499 579.182,178.665 575.5,178.5C 576.848,177.814 578.015,176.814 579,175.5C 579.667,169.5 579.667,163.5 579,157.5C 578.617,156.944 578.117,156.611 577.5,156.5C 577.389,155.883 577.056,155.383 576.5,155C 578.473,154.505 580.473,154.338 582.5,154.5 Z"/></g>
<g><path style="opacity:1" fill="#155690" d="M 671.5,148.5 C 671.5,153.833 671.5,159.167 671.5,164.5C 671.5,165.167 671.5,165.833 671.5,166.5C 671.335,169.85 671.502,173.183 672,176.5C 673.622,177.099 675.122,177.766 676.5,178.5C 672.154,178.666 667.821,178.499 663.5,178C 664.416,177.722 665.082,177.222 665.5,176.5C 666.117,176.389 666.617,176.056 667,175.5C 667.804,166.422 667.637,157.422 666.5,148.5C 668.167,147.167 669.833,147.167 671.5,148.5 Z"/></g>
<g><path style="opacity:1" fill="#ecf6fa" d="M 671.5,148.5 C 677.456,147.454 680.789,149.788 681.5,155.5C 681.294,162.041 677.961,165.041 671.5,164.5C 671.5,159.167 671.5,153.833 671.5,148.5 Z"/></g>
<g><path style="opacity:1" fill="#2a5e91" d="M 449.5,158.5 C 447.006,156.923 445.173,157.59 444,160.5C 443.333,165.833 443.333,171.167 444,176.5C 445.509,177.09 447.009,177.756 448.5,178.5C 448.376,179.107 448.043,179.44 447.5,179.5C 443.445,179.824 439.445,179.491 435.5,178.5C 436.76,177.618 437.926,176.618 439,175.5C 439.667,169.5 439.667,163.5 439,157.5C 437.795,156.929 436.628,156.262 435.5,155.5C 437.743,154.526 440.076,154.192 442.5,154.5C 442.135,159.421 443.135,159.755 445.5,155.5C 447.765,154.353 450.098,154.186 452.5,155C 453.38,156.356 453.714,157.856 453.5,159.5C 452.041,159.567 450.708,159.234 449.5,158.5 Z"/></g>
<g><path style="opacity:1" fill="#2b5f90" d="M 850.5,159.5 C 850.5,161.833 850.5,164.167 850.5,166.5C 845.5,166.5 840.5,166.5 835.5,166.5C 835.346,174.037 838.68,177.037 845.5,175.5C 846.482,174.859 847.482,174.193 848.5,173.5C 848.833,173.833 849.167,174.167 849.5,174.5C 848.479,175.901 847.479,177.235 846.5,178.5C 839.881,180.773 835.048,178.773 832,172.5C 831.333,168.5 831.333,164.5 832,160.5C 834.815,154.831 839.315,152.998 845.5,155C 847.037,156.707 848.704,158.207 850.5,159.5 Z"/></g>
<g><path style="opacity:1" fill="#a7c8e3" d="M 307.5,149.5 C 308.657,157.99 308.824,166.657 308,175.5C 307.228,176.849 306.061,177.682 304.5,178C 308.486,178.499 312.486,178.666 316.5,178.5C 312.366,179.485 308.032,179.818 303.5,179.5C 303.5,178.167 303.5,176.833 303.5,175.5C 305.124,175.64 306.29,174.973 307,173.5C 307.5,165.507 307.666,157.507 307.5,149.5 Z"/></g>
<g><path style="opacity:1" fill="#e5f1f7" d="M 410.5,150.5 C 408.343,157.02 408.01,163.687 409.5,170.5C 411.214,169.391 411.881,170.058 411.5,172.5C 414.5,173.833 417.5,173.833 420.5,172.5C 420.5,170.5 420.5,168.5 420.5,166.5C 419.167,166.5 417.833,166.5 416.5,166.5C 416.5,164.833 416.5,163.167 416.5,161.5C 422.067,160.954 427.4,161.621 432.5,163.5C 433.946,162.829 434.612,161.662 434.5,160C 433.325,157.509 433.325,155.009 434.5,152.5C 438.434,152.979 442.101,152.312 445.5,150.5C 448.109,151.23 450.776,151.73 453.5,152C 454.701,152.903 455.535,154.069 456,155.5C 456.414,155.043 456.914,154.709 457.5,154.5C 458.281,155.729 458.781,157.062 459,158.5C 460.368,156.973 460.868,155.473 460.5,154C 463,153.833 465.5,153.667 468,153.5C 470.929,153.525 473.429,154.191 475.5,155.5C 471.215,154.23 466.881,154.23 462.5,155.5C 461.691,157.071 461.357,158.738 461.5,160.5C 463.824,160.338 465.491,159.172 466.5,157C 472.334,156.004 474.667,158.504 473.5,164.5C 469.818,164.335 466.152,164.501 462.5,165C 461.944,165.383 461.611,165.883 461.5,166.5C 461.167,166.5 460.833,166.5 460.5,166.5C 460.326,164.139 459.993,161.806 459.5,159.5C 456.962,159.507 454.462,159.841 452,160.5C 450.624,160.316 449.791,159.649 449.5,158.5C 450.708,159.234 452.041,159.567 453.5,159.5C 453.714,157.856 453.38,156.356 452.5,155C 450.098,154.186 447.765,154.353 445.5,155.5C 443.135,159.755 442.135,159.421 442.5,154.5C 440.076,154.192 437.743,154.526 435.5,155.5C 436.628,156.262 437.795,156.929 439,157.5C 439.667,163.5 439.667,169.5 439,175.5C 437.926,176.618 436.76,177.618 435.5,178.5C 439.445,179.491 443.445,179.824 447.5,179.5C 443.03,180.486 438.363,180.819 433.5,180.5C 433.5,178.833 433.5,177.167 433.5,175.5C 437.079,175.234 437.413,173.901 434.5,171.5C 436.712,168.679 436.545,166.346 434,164.5C 432.273,164.646 432.106,165.313 433.5,166.5C 432.544,171.591 431.211,171.591 429.5,166.5C 428.676,169.785 428.176,173.118 428,176.5C 427.617,177.056 427.117,177.389 426.5,177.5C 426.335,173.818 426.501,170.152 427,166.5C 427.925,165.953 428.758,165.287 429.5,164.5C 425.833,163.167 422.167,163.167 418.5,164.5C 419.628,165.262 420.795,165.929 422,166.5C 422.808,170.027 422.641,173.36 421.5,176.5C 418.5,176.5 415.5,176.5 412.5,176.5C 409.8,174.954 407.967,172.621 407,169.5C 405.979,163.29 406.479,157.29 408.5,151.5C 409.167,151.167 409.833,150.833 410.5,150.5 Z"/></g>
<g><path style="opacity:1" fill="#2e6192" d="M 503.5,154.5 C 506.428,155.591 508.594,157.591 510,160.5C 512.252,168.365 510.085,174.532 503.5,179C 500.15,179.93 497.317,179.097 495,176.5C 494.333,180.167 494.333,183.833 495,187.5C 495.925,188.047 496.758,188.713 497.5,189.5C 493.833,190.833 490.167,190.833 486.5,189.5C 487.76,188.618 488.926,187.618 490,186.5C 490.807,176.423 490.64,166.423 489.5,156.5C 488.737,155.732 487.737,155.232 486.5,155C 488.81,154.503 491.143,154.337 493.5,154.5C 493.281,155.675 493.614,156.675 494.5,157.5C 496.92,154.923 499.92,153.923 503.5,154.5 Z"/></g>
<g><path style="opacity:1" fill="#2a5f8f" d="M 641.5,166.5 C 636.5,166.5 631.5,166.5 626.5,166.5C 626.093,176.114 630.093,178.781 638.5,174.5C 639.594,175.868 639.26,177.035 637.5,178C 627.481,180.973 622.481,177.14 622.5,166.5C 622.401,162.976 623.067,159.643 624.5,156.5C 635.099,151.431 640.766,154.764 641.5,166.5 Z"/></g>
<g><path style="opacity:1" fill="#295d8f" d="M 702.5,158.5 C 700.479,164.29 699.979,170.29 701,176.5C 702.509,177.09 704.009,177.756 705.5,178.5C 703.333,178.833 701.167,179.167 699,179.5C 696.39,179.467 694.223,178.8 692.5,177.5C 694.124,177.64 695.29,176.973 696,175.5C 696.667,169.5 696.667,163.5 696,157.5C 694.795,156.929 693.628,156.262 692.5,155.5C 694.743,154.526 697.076,154.192 699.5,154.5C 699.281,155.675 699.614,156.675 700.5,157.5C 703.844,154.188 707.344,153.854 711,156.5C 711.854,158.607 711.188,159.941 709,160.5C 707.831,159.991 706.998,159.158 706.5,158C 704.934,157.235 703.601,157.402 702.5,158.5 Z"/></g>
<g><path style="opacity:1" fill="#e1eef6" d="M 720.5,154.5 C 718.919,156.142 718.253,158.142 718.5,160.5C 719.833,160.5 721.167,160.5 722.5,160.5C 722.78,156.775 724.78,155.608 728.5,157C 730.278,159.135 730.945,161.635 730.5,164.5C 725.814,164.119 721.481,165.119 717.5,167.5C 717.548,164.708 716.215,162.875 713.5,162C 710.881,162.083 708.214,162.25 705.5,162.5C 705.912,160.027 704.912,158.694 702.5,158.5C 703.601,157.402 704.934,157.235 706.5,158C 706.998,159.158 707.831,159.991 709,160.5C 711.188,159.941 711.854,158.607 711,156.5C 707.344,153.854 703.844,154.188 700.5,157.5C 699.614,156.675 699.281,155.675 699.5,154.5C 697.076,154.192 694.743,154.526 692.5,155.5C 693.628,156.262 694.795,156.929 696,157.5C 696.667,163.5 696.667,169.5 696,175.5C 695.29,176.973 694.124,177.64 692.5,177.5C 694.722,171.423 695.056,165.089 693.5,158.5C 692.167,159.833 690.833,159.833 689.5,158.5C 687.683,159.767 686.016,161.1 684.5,162.5C 687.682,157.097 687.015,152.264 682.5,148C 675.95,146.58 669.284,146.08 662.5,146.5C 670.35,143.76 678.35,144.094 686.5,147.5C 687.281,146.271 687.781,144.938 688,143.5C 688.779,145.807 688.279,147.807 686.5,149.5C 687.861,151.028 689.028,152.695 690,154.5C 691.128,152.01 693.128,151.01 696,151.5C 701.408,152.985 706.908,153.652 712.5,153.5C 712.016,156.798 713.016,159.464 715.5,161.5C 716.167,158.833 716.833,156.167 717.5,153.5C 718.417,154.127 719.417,154.461 720.5,154.5 Z"/></g>
<g><path style="opacity:1" fill="#96b9d3" d="M 781.5,156.5 C 780.081,157.451 778.415,157.784 776.5,157.5C 776.5,163.167 776.5,168.833 776.5,174.5C 775.51,168.69 775.177,162.69 775.5,156.5C 777.5,156.5 779.5,156.5 781.5,156.5 Z"/></g>
<g><path style="opacity:1" fill="#2d6091" d="M 749.5,154.5 C 752.85,154.335 756.183,154.502 759.5,155C 763.798,158.226 763.465,160.392 758.5,161.5C 758.465,156.622 756.132,155.289 751.5,157.5C 748.879,163.103 748.879,168.77 751.5,174.5C 755.27,176.024 758.77,175.691 762,173.5C 761.922,177.752 759.588,179.752 755,179.5C 750.265,179.435 747.265,177.102 746,172.5C 744.459,165.808 745.626,159.808 749.5,154.5 Z"/></g>
<g><path style="opacity:1" fill="#edf6f9" d="M 496.5,157.5 C 499.685,157.02 502.519,157.686 505,159.5C 505.667,163.833 505.667,168.167 505,172.5C 503.666,176.104 501.166,177.271 497.5,176C 493.943,170.033 493.61,163.866 496.5,157.5 Z"/></g>
<g><path style="opacity:1" fill="#2a5f90" d="M 568.5,159.5 C 568.5,161.833 568.5,164.167 568.5,166.5C 563.5,166.5 558.5,166.5 553.5,166.5C 554.158,176.694 558.658,179.028 567,173.5C 567.579,174.928 567.412,176.262 566.5,177.5C 558.693,181.701 553.193,179.701 550,171.5C 548.491,165.605 549.658,160.439 553.5,156C 559.624,153.171 564.624,154.338 568.5,159.5 Z"/></g>
<g><path style="opacity:1" fill="#417090" d="M 520.5,147.5 C 521.494,157.653 521.828,167.986 521.5,178.5C 523.833,178.5 526.167,178.5 528.5,178.5C 524.702,179.483 520.702,179.817 516.5,179.5C 516.5,178.5 516.5,177.5 516.5,176.5C 517.822,176.67 518.989,176.337 520,175.5C 520.5,166.173 520.666,156.839 520.5,147.5 Z"/></g>
<g><path style="opacity:1" fill="#e6f6fa" d="M 563.5,160.5 C 563.5,161.5 563.5,162.5 563.5,163.5C 560.5,163.5 557.5,163.5 554.5,163.5C 554.5,162.5 554.5,161.5 554.5,160.5C 555.5,156.852 557.834,155.686 561.5,157C 562.823,157.816 563.489,158.983 563.5,160.5 Z"/></g>
<g><path style="opacity:1" fill="#daeef5" d="M 629.5,156.5 C 635.02,156.151 637.354,158.817 636.5,164.5C 633.167,164.5 629.833,164.5 626.5,164.5C 626.394,161.385 627.394,158.719 629.5,156.5 Z"/></g>
<g><path style="opacity:1" fill="#275d8f" d="M 797.5,176.5 C 797.918,177.222 798.584,177.722 799.5,178C 795.514,178.499 791.514,178.666 787.5,178.5C 788.531,177.751 789.698,177.085 791,176.5C 791.5,169.842 791.666,163.175 791.5,156.5C 790.325,156.719 789.325,156.386 788.5,155.5C 790.743,154.526 793.076,154.192 795.5,154.5C 795.334,161.508 795.5,168.508 796,175.5C 796.383,176.056 796.883,176.389 797.5,176.5 Z"/></g>
<g><path style="opacity:1" fill="#ebf4f9" d="M 850.5,159.5 C 848.704,158.207 847.037,156.707 845.5,155C 839.315,152.998 834.815,154.831 832,160.5C 831.333,164.5 831.333,168.5 832,172.5C 835.048,178.773 839.881,180.773 846.5,178.5C 845.486,179.765 843.986,180.431 842,180.5C 838.4,180.119 834.9,179.285 831.5,178C 829.854,173.281 828.521,168.448 827.5,163.5C 826.459,165.585 824.959,167.252 823,168.5C 822.308,167.975 821.808,167.308 821.5,166.5C 822.921,163.572 821.921,162.238 818.5,162.5C 818.5,161.167 818.5,159.833 818.5,158.5C 816.5,158.5 814.5,158.5 812.5,158.5C 814.011,156.559 816.011,156.059 818.5,157C 818.793,160.094 820.459,161.594 823.5,161.5C 823.739,159.533 823.406,157.699 822.5,156C 811.96,151.288 806.627,154.622 806.5,166C 806.345,170.699 807.678,174.865 810.5,178.5C 804.907,174.26 803.074,168.593 805,161.5C 805.797,158.78 806.963,156.28 808.5,154C 814.416,153.81 820.249,153.31 826,152.5C 826.265,154.163 825.765,155.663 824.5,157C 825.833,158 827.167,159 828.5,160C 827.346,160.914 827.513,161.747 829,162.5C 830.343,158.49 832.509,154.99 835.5,152C 839.355,152.059 843.189,152.559 847,153.5C 848,152.167 849,152.167 850,153.5C 850.495,155.473 850.662,157.473 850.5,159.5 Z"/></g>
<g><path style="opacity:1" fill="#d8ecf6" d="M 812.5,158.5 C 812.334,163.179 812.501,167.845 813,172.5C 816.682,172.719 820.516,172.719 824.5,172.5C 824.768,174.099 824.434,175.432 823.5,176.5C 823.649,175.448 823.483,174.448 823,173.5C 819.333,177.5 815.667,177.5 812,173.5C 810.964,171.13 810.464,168.63 810.5,166C 810.3,163.134 810.967,160.634 812.5,158.5 Z"/></g>
<g><path style="opacity:1" fill="#e6f6fa" d="M 845.5,160.5 C 845.5,161.5 845.5,162.5 845.5,163.5C 842.5,163.5 839.5,163.5 836.5,163.5C 836.5,162.5 836.5,161.5 836.5,160.5C 837.462,156.854 839.795,155.687 843.5,157C 844.823,157.816 845.489,158.983 845.5,160.5 Z"/></g>
<g><path style="opacity:1" fill="#e35951" d="M 911.5,146.5 C 915.436,148.766 918.769,151.766 921.5,155.5C 920.226,157.85 918.893,157.683 917.5,155C 916.5,154.333 915.5,154.333 914.5,155C 911,158.5 907.5,162 904,165.5C 905.372,167.198 906.538,169.198 907.5,171.5C 901.882,170.362 897.216,167.695 893.5,163.5C 893.833,162.833 894.167,162.167 894.5,161.5C 896.487,163.501 898.82,164.335 901.5,164C 904.667,159.5 908.5,155.667 913,152.5C 912.405,150.65 911.905,148.65 911.5,146.5 Z"/></g>
<g><path style="opacity:1" fill="#477399" d="M 332.5,148.5 C 332.5,153.5 332.5,158.5 332.5,163.5C 336.93,164.426 340.263,163.093 342.5,159.5C 342.285,161.179 342.952,162.179 344.5,162.5C 341.207,165.598 337.207,166.931 332.5,166.5C 332.5,169.5 332.5,172.5 332.5,175.5C 331.833,172.833 331.167,170.167 330.5,167.5C 330.5,165.833 330.5,164.167 330.5,162.5C 331.167,157.833 331.833,153.167 332.5,148.5 Z"/></g>
<g><path style="opacity:1" fill="#90b6cf" d="M 554.5,160.5 C 554.5,161.5 554.5,162.5 554.5,163.5C 557.5,163.5 560.5,163.5 563.5,163.5C 563.5,162.5 563.5,161.5 563.5,160.5C 564.434,161.568 564.768,162.901 564.5,164.5C 560.833,164.5 557.167,164.5 553.5,164.5C 553.232,162.901 553.566,161.568 554.5,160.5 Z"/></g>
<g><path style="opacity:1" fill="#8cb2cb" d="M 836.5,160.5 C 836.5,161.5 836.5,162.5 836.5,163.5C 839.5,163.5 842.5,163.5 845.5,163.5C 845.5,162.5 845.5,161.5 845.5,160.5C 846.434,161.568 846.768,162.901 846.5,164.5C 842.833,164.5 839.167,164.5 835.5,164.5C 835.232,162.901 835.566,161.568 836.5,160.5 Z"/></g>
<g><path style="opacity:1" fill="#9fc9e3" d="M 144.5,163.5 C 147.287,162.523 150.287,162.19 153.5,162.5C 153.5,179.167 153.5,195.833 153.5,212.5C 150.287,212.81 147.287,212.477 144.5,211.5C 144.833,211.5 145.167,211.5 145.5,211.5C 147.833,211.5 150.167,211.5 152.5,211.5C 152.5,195.833 152.5,180.167 152.5,164.5C 150.052,163.527 147.385,163.194 144.5,163.5 Z"/></g>
<g><path style="opacity:1" fill="#587e9a" d="M 473.5,164.5 C 473.5,165.167 473.5,165.833 473.5,166.5C 471.167,166.5 468.833,166.5 466.5,166.5C 465.001,165.506 463.334,165.506 461.5,166.5C 461.611,165.883 461.944,165.383 462.5,165C 466.152,164.501 469.818,164.335 473.5,164.5 Z"/></g>
<g><path style="opacity:1" fill="#1b5891" d="M 775.5,149.5 C 775.5,151.167 775.5,152.833 775.5,154.5C 777.5,154.5 779.5,154.5 781.5,154.5C 781.5,155.167 781.5,155.833 781.5,156.5C 779.5,156.5 777.5,156.5 775.5,156.5C 775.177,162.69 775.51,168.69 776.5,174.5C 776.5,175.167 776.5,175.833 776.5,176.5C 776.44,177.043 776.107,177.376 775.5,177.5C 774.416,176.335 773.583,175.002 773,173.5C 772.827,167.652 772.327,161.985 771.5,156.5C 770.325,156.719 769.325,156.386 768.5,155.5C 771.652,154.221 773.652,151.888 774.5,148.5C 775.107,148.624 775.44,148.957 775.5,149.5 Z"/></g>
<g><path style="opacity:1" fill="#76a3bf" d="M 144.5,163.5 C 147.385,163.194 150.052,163.527 152.5,164.5C 150.167,164.5 147.833,164.5 145.5,164.5C 145.5,180.167 145.5,195.833 145.5,211.5C 145.167,211.5 144.833,211.5 144.5,211.5C 144.5,195.5 144.5,179.5 144.5,163.5 Z"/></g>
<g><path style="opacity:1" fill="#1e68a7" d="M 195.5,174.5 C 196.506,182.818 193.506,189.151 186.5,193.5C 181.881,194.314 177.214,194.647 172.5,194.5C 171.512,199.64 171.179,204.974 171.5,210.5C 169.167,210.5 166.833,210.5 164.5,210.5C 164.5,194.833 164.5,179.167 164.5,163.5C 173.331,162.92 181.998,163.753 190.5,166C 193.072,168.313 194.739,171.146 195.5,174.5 Z"/></g>
<g><path style="opacity:1" fill="#a1c1d9" d="M 534.5,160.5 C 535.49,166.31 535.823,172.31 535.5,178.5C 537.833,178.5 540.167,178.5 542.5,178.5C 540.052,179.473 537.385,179.806 534.5,179.5C 534.5,173.167 534.5,166.833 534.5,160.5 Z"/></g>
<g><path style="opacity:1" fill="#275c8d" d="M 720.5,154.5 C 724.182,154.335 727.848,154.501 731.5,155C 732.333,155.833 733.167,156.667 734,157.5C 734.333,163.5 734.667,169.5 735,175.5C 735.645,176.646 736.478,177.646 737.5,178.5C 735.604,179.466 733.604,179.799 731.5,179.5C 731.5,178.167 731.5,176.833 731.5,175.5C 730.89,174.609 730.557,173.609 730.5,172.5C 730.5,170.5 730.5,168.5 730.5,166.5C 727.615,166.194 724.948,166.527 722.5,167.5C 719.576,170.878 719.91,173.878 723.5,176.5C 723.611,177.117 723.944,177.617 724.5,178C 723.207,178.49 721.873,178.657 720.5,178.5C 716.635,175.664 715.635,171.997 717.5,167.5C 721.481,165.119 725.814,164.119 730.5,164.5C 730.945,161.635 730.278,159.135 728.5,157C 724.78,155.608 722.78,156.775 722.5,160.5C 721.167,160.5 719.833,160.5 718.5,160.5C 718.253,158.142 718.919,156.142 720.5,154.5 Z"/></g>
<g><path style="opacity:1" fill="#186ba7" d="M 152.5,164.5 C 152.5,180.167 152.5,195.833 152.5,211.5C 150.167,211.5 147.833,211.5 145.5,211.5C 145.5,195.833 145.5,180.167 145.5,164.5C 147.833,164.5 150.167,164.5 152.5,164.5 Z"/></g>
<g><path style="opacity:1" fill="#2c5f8f" d="M 380.5,177.5 C 377.024,178.643 373.358,178.81 369.5,178C 370.416,177.722 371.082,177.222 371.5,176.5C 372.602,173.996 372.269,171.496 370.5,169C 366.179,168.501 361.846,168.334 357.5,168.5C 356.737,171.141 356.57,173.808 357,176.5C 358.205,177.071 359.372,177.738 360.5,178.5C 356.833,179.833 353.167,179.833 349.5,178.5C 350.5,177.833 351.5,177.167 352.5,176.5C 356.098,166.872 359.598,157.205 363,147.5C 365.022,146.009 366.688,146.342 368,148.5C 371.333,157.833 374.667,167.167 378,176.5C 378.671,177.252 379.504,177.586 380.5,177.5 Z"/></g>
<g><path style="opacity:1" fill="#7da7cb" d="M 360.5,163.5 C 361.334,164.748 362.667,165.415 364.5,165.5C 366.333,165.415 367.666,164.748 368.5,163.5C 369.404,164.209 369.737,165.209 369.5,166.5C 366.167,166.5 362.833,166.5 359.5,166.5C 359.263,165.209 359.596,164.209 360.5,163.5 Z"/></g>
<g><path style="opacity:1" fill="#e5f3fa" d="M 368.5,163.5 C 367.666,164.748 366.333,165.415 364.5,165.5C 362.667,165.415 361.334,164.748 360.5,163.5C 361.256,159.318 362.59,155.318 364.5,151.5C 366.435,155.304 367.768,159.304 368.5,163.5 Z"/></g>
<g><path style="opacity:1" fill="#1f598e" d="M 406.5,149.5 C 407.833,149.5 408.5,150.167 408.5,151.5C 406.479,157.29 405.979,163.29 407,169.5C 407.967,172.621 409.8,174.954 412.5,176.5C 410.435,176.483 408.435,176.15 406.5,175.5C 403.096,171.768 401.429,167.268 401.5,162C 401.29,156.94 402.956,152.773 406.5,149.5 Z"/></g>
<g><path style="opacity:1" fill="#1f588d" d="M 426.5,177.5 C 425.833,177.5 425.167,177.5 424.5,177.5C 423.209,177.737 422.209,177.404 421.5,176.5C 422.641,173.36 422.808,170.027 422,166.5C 420.795,165.929 419.628,165.262 418.5,164.5C 422.167,163.167 425.833,163.167 429.5,164.5C 428.758,165.287 427.925,165.953 427,166.5C 426.501,170.152 426.335,173.818 426.5,177.5 Z"/></g>
<g><path style="opacity:1" fill="#1f598e" d="M 542.5,178.5 C 540.167,178.5 537.833,178.5 535.5,178.5C 535.823,172.31 535.49,166.31 534.5,160.5C 534.315,158.11 532.982,157.11 530.5,157.5C 527.699,157.464 525.865,158.797 525,161.5C 524.333,166.167 524.333,170.833 525,175.5C 525.985,176.814 527.152,177.814 528.5,178.5C 526.167,178.5 523.833,178.5 521.5,178.5C 521.828,167.986 521.494,157.653 520.5,147.5C 519.099,147.029 517.766,146.362 516.5,145.5C 519.086,144.52 521.753,144.187 524.5,144.5C 524.334,149.179 524.501,153.845 525,158.5C 525.94,155.558 527.94,154.225 531,154.5C 533.814,154.408 536.147,155.408 538,157.5C 539.251,163.725 539.917,170.058 540,176.5C 540.995,177.066 541.828,177.733 542.5,178.5 Z"/></g>
<g><path style="opacity:1" fill="#ecf5f9" d="M 610.5,156.5 C 605.438,153.427 600.938,154.094 597,158.5C 593.011,153.644 588.678,153.311 584,157.5C 583.768,156.263 583.268,155.263 582.5,154.5C 580.393,153.532 578.059,153.198 575.5,153.5C 575.285,155.179 575.952,156.179 577.5,156.5C 578.117,156.611 578.617,156.944 579,157.5C 579.667,163.5 579.667,169.5 579,175.5C 578.015,176.814 576.848,177.814 575.5,178.5C 579.298,179.483 583.298,179.817 587.5,179.5C 583.019,180.648 578.352,180.815 573.5,180C 573.032,178.014 573.032,176.181 573.5,174.5C 571.154,175.238 568.82,176.238 566.5,177.5C 567.412,176.262 567.579,174.928 567,173.5C 558.658,179.028 554.158,176.694 553.5,166.5C 558.5,166.5 563.5,166.5 568.5,166.5C 568.5,164.167 568.5,161.833 568.5,159.5C 569.958,162.214 570.958,165.214 571.5,168.5C 572.72,169.711 573.887,169.711 575,168.5C 575.944,163.928 575.444,159.595 573.5,155.5C 574.128,152.216 576.128,150.883 579.5,151.5C 581.384,151.716 583.051,152.383 584.5,153.5C 592.997,152.664 601.664,152.664 610.5,153.5C 610.5,154.5 610.5,155.5 610.5,156.5 Z"/></g>
<g><path style="opacity:1" fill="#96b5c7" d="M 582.5,154.5 C 580.473,154.338 578.473,154.505 576.5,155C 577.056,155.383 577.389,155.883 577.5,156.5C 575.952,156.179 575.285,155.179 575.5,153.5C 578.059,153.198 580.393,153.532 582.5,154.5 Z"/></g>
<g><path style="opacity:1" fill="#c8e3f1" d="M 730.5,172.5 C 729.171,175.48 726.837,176.813 723.5,176.5C 719.91,173.878 719.576,170.878 722.5,167.5C 724.948,166.527 727.615,166.194 730.5,166.5C 730.5,168.5 730.5,170.5 730.5,172.5 Z"/></g>
<g><path style="opacity:1" fill="#f6fbfa" d="M 722.5,167.5 C 724.5,167.5 726.5,167.5 728.5,167.5C 728.5,169.5 728.5,171.5 728.5,173.5C 726.71,174.013 725.044,174.513 723.5,175C 722.565,172.619 722.232,170.119 722.5,167.5 Z"/></g>
<g><path style="opacity:1" fill="#2c6090" d="M 812.5,158.5 C 810.967,160.634 810.3,163.134 810.5,166C 810.464,168.63 810.964,171.13 812,173.5C 815.667,177.5 819.333,177.5 823,173.5C 823.483,174.448 823.649,175.448 823.5,176.5C 819.635,179.577 815.301,180.244 810.5,178.5C 807.678,174.865 806.345,170.699 806.5,166C 806.627,154.622 811.96,151.288 822.5,156C 823.406,157.699 823.739,159.533 823.5,161.5C 820.459,161.594 818.793,160.094 818.5,157C 816.011,156.059 814.011,156.559 812.5,158.5 Z"/></g>
<g><path style="opacity:1" fill="#c7e0f1" d="M 850.5,166.5 C 846.018,167.326 841.351,167.826 836.5,168C 837.557,170.339 838.89,172.505 840.5,174.5C 842.045,175.452 843.712,175.785 845.5,175.5C 838.68,177.037 835.346,174.037 835.5,166.5C 840.5,166.5 845.5,166.5 850.5,166.5 Z"/></g>
<g><path style="opacity:1" fill="#2c6da1" d="M 226.5,181.5 C 225.115,180.426 223.949,179.093 223,177.5C 221.23,182.187 221.397,186.854 223.5,191.5C 223.167,192.167 222.833,192.833 222.5,193.5C 218.223,194.606 213.89,194.772 209.5,194C 208.944,193.617 208.611,193.117 208.5,192.5C 213.214,192.827 217.88,192.493 222.5,191.5C 220.484,186.141 218.484,180.808 216.5,175.5C 217.859,176.007 218.859,177.007 219.5,178.5C 221.905,174.642 222.072,170.642 220,166.5C 217.599,165.398 215.099,165.231 212.5,166C 210.372,171.832 207.706,177.332 204.5,182.5C 206.5,176.5 208.5,170.5 210.5,164.5C 213.687,163.194 217.02,163.194 220.5,164.5C 222.507,170.19 224.507,175.857 226.5,181.5 Z"/></g>
<g><path style="opacity:1" fill="#537ea1" d="M 730.5,172.5 C 730.557,173.609 730.89,174.609 731.5,175.5C 729.405,176.412 727.405,177.579 725.5,179C 723.613,179.78 721.946,179.613 720.5,178.5C 721.873,178.657 723.207,178.49 724.5,178C 723.944,177.617 723.611,177.117 723.5,176.5C 726.837,176.813 729.171,175.48 730.5,172.5 Z"/></g>
<g><path style="opacity:1" fill="#e35850" d="M 927.5,156.5 C 928.5,156.5 929.5,156.5 930.5,156.5C 929.064,158.816 927.731,161.316 926.5,164C 927.944,166.449 929.778,168.615 932,170.5C 932.667,171.5 932.667,172.5 932,173.5C 926.802,179.033 921.302,184.2 915.5,189C 910.394,190.395 907.061,188.561 905.5,183.5C 905.833,182.833 906.167,182.167 906.5,181.5C 908.316,182.815 909.983,184.315 911.5,186C 912.5,186.667 913.5,186.667 914.5,186C 919.161,181.339 923.828,176.672 928.5,172C 927.185,168.656 924.852,166.99 921.5,167C 914.843,174.576 906.509,178.076 896.5,177.5C 896.5,176.5 896.5,175.5 896.5,174.5C 900.605,174.766 904.605,174.266 908.5,173C 912.244,170.045 916.078,167.211 920,164.5C 920.333,162.953 919.833,161.62 918.5,160.5C 922.432,161.515 925.432,160.182 927.5,156.5 Z"/></g>
<g><path style="opacity:1" fill="#4c789e" d="M 406.5,175.5 C 408.435,176.15 410.435,176.483 412.5,176.5C 415.5,176.5 418.5,176.5 421.5,176.5C 422.209,177.404 423.209,177.737 424.5,177.5C 420.469,179.439 416.136,179.939 411.5,179C 409.416,178.303 407.749,177.136 406.5,175.5 Z"/></g>
<g><path style="opacity:1" fill="#326493" d="M 475.5,155.5 C 475.987,156.473 476.487,157.473 477,158.5C 477.172,164.681 477.672,170.681 478.5,176.5C 478.611,177.117 478.944,177.617 479.5,178C 477.866,178.494 476.199,178.66 474.5,178.5C 473.732,177.737 473.232,176.737 473,175.5C 466.169,181.722 461.669,180.389 459.5,171.5C 459.728,169.793 460.062,168.126 460.5,166.5C 460.833,166.5 461.167,166.5 461.5,166.5C 463.334,165.506 465.001,165.506 466.5,166.5C 463.668,168.407 462.834,171.073 464,174.5C 470.872,176.471 474.039,173.805 473.5,166.5C 473.5,165.833 473.5,165.167 473.5,164.5C 474.667,158.504 472.334,156.004 466.5,157C 465.491,159.172 463.824,160.338 461.5,160.5C 461.357,158.738 461.691,157.071 462.5,155.5C 466.881,154.23 471.215,154.23 475.5,155.5 Z"/></g>
<g><path style="opacity:1" fill="#e5f3f9" d="M 466.5,166.5 C 468.833,166.5 471.167,166.5 473.5,166.5C 474.039,173.805 470.872,176.471 464,174.5C 462.834,171.073 463.668,168.407 466.5,166.5 Z"/></g>
<g><path style="opacity:1" fill="#0b5597" d="M 474.5,159.5 C 475.816,162.087 476.483,165.087 476.5,168.5C 476.167,171.5 475.833,174.5 475.5,177.5C 474.504,171.537 474.171,165.537 474.5,159.5 Z"/></g>
<g><path style="opacity:1" fill="#e1f0f7" d="M 624.5,156.5 C 623.067,159.643 622.401,162.976 622.5,166.5C 622.481,177.14 627.481,180.973 637.5,178C 639.26,177.035 639.594,175.868 638.5,174.5C 630.093,178.781 626.093,176.114 626.5,166.5C 631.5,166.5 636.5,166.5 641.5,166.5C 637.366,167.485 633.032,167.818 628.5,167.5C 627.578,171.459 629.078,173.792 633,174.5C 635.974,173.882 638.808,172.882 641.5,171.5C 643.13,174.896 642.463,177.729 639.5,180C 635.5,180.333 631.5,180.667 627.5,181C 625.419,182.712 625.085,182.212 626.5,179.5C 625.284,178.904 623.951,178.737 622.5,179C 622.833,178.667 623.167,178.333 623.5,178C 621.895,176.64 620.395,175.14 619,173.5C 619.913,169.123 620.747,164.623 621.5,160C 620.287,157.359 621.287,156.192 624.5,156.5 Z"/></g>
<g><path style="opacity:1" fill="#507ca2" d="M 771.5,156.5 C 772.327,161.985 772.827,167.652 773,173.5C 773.583,175.002 774.416,176.335 775.5,177.5C 776.107,177.376 776.44,177.043 776.5,176.5C 783.781,176.651 784.114,177.651 777.5,179.5C 774.401,179.357 772.568,177.69 772,174.5C 771.501,168.509 771.334,162.509 771.5,156.5 Z"/></g>
<g><path style="opacity:1" fill="#e5706b" d="M 948.5,176.5 C 951.173,176.684 951.84,177.851 950.5,180C 948.19,180.497 945.857,180.663 943.5,180.5C 943.611,179.883 943.944,179.383 944.5,179C 942.19,178.503 939.857,178.337 937.5,178.5C 940.997,177.598 944.663,176.931 948.5,176.5 Z"/></g>
<g><path style="opacity:1" fill="#7a9fba" d="M 371.5,176.5 C 371.082,177.222 370.416,177.722 369.5,178C 373.358,178.81 377.024,178.643 380.5,177.5C 381.043,177.56 381.376,177.893 381.5,178.5C 377.217,179.492 372.884,179.826 368.5,179.5C 368.5,178.5 368.5,177.5 368.5,176.5C 369.5,176.5 370.5,176.5 371.5,176.5 Z"/></g>
<g><path style="opacity:1" fill="#84a2b4" d="M 478.5,176.5 C 480.048,176.821 480.715,177.821 480.5,179.5C 478.265,179.795 476.265,179.461 474.5,178.5C 476.265,179.461 478.265,179.795 480.5,179.5C 480.715,177.821 480.048,176.821 478.5,176.5 Z"/></g>
<g><path style="opacity:1" fill="#789fbc" d="M 583.5,175.5 C 586.179,175.525 587.512,176.858 587.5,179.5C 583.298,179.817 579.298,179.483 575.5,178.5C 579.182,178.665 582.848,178.499 586.5,178C 585.058,177.623 584.058,176.79 583.5,175.5 Z"/></g>
<g><path style="opacity:1" fill="#7198b6" d="M 600.5,177.5 C 601.043,177.56 601.376,177.893 601.5,178.5C 598.691,179.8 596.024,179.8 593.5,178.5C 596.059,178.802 598.393,178.468 600.5,177.5 Z"/></g>
<g><path style="opacity:1" fill="#749ab7" d="M 614.5,177.5 C 615.043,177.56 615.376,177.893 615.5,178.5C 612.691,179.8 610.024,179.8 607.5,178.5C 610.059,178.802 612.393,178.468 614.5,177.5 Z"/></g>
<g><path style="opacity:1" fill="#6e97b4" d="M 665.5,176.5 C 665.082,177.222 664.416,177.722 663.5,178C 667.821,178.499 672.154,178.666 676.5,178.5C 672.03,179.486 667.363,179.819 662.5,179.5C 662.5,178.5 662.5,177.5 662.5,176.5C 663.5,176.5 664.5,176.5 665.5,176.5 Z"/></g>
<g><path style="opacity:1" fill="#749ab7" d="M 797.5,176.5 C 798.5,176.5 799.5,176.5 800.5,176.5C 800.5,177.5 800.5,178.5 800.5,179.5C 795.968,179.818 791.634,179.485 787.5,178.5C 791.514,178.666 795.514,178.499 799.5,178C 798.584,177.722 797.918,177.222 797.5,176.5 Z"/></g>
<g><path style="opacity:1" fill="#f2f8fb" d="M 172.5,170.5 C 183.143,167.996 187.976,171.996 187,182.5C 186.215,184.286 185.049,185.786 183.5,187C 179.848,187.499 176.182,187.665 172.5,187.5C 172.5,181.833 172.5,176.167 172.5,170.5 Z"/></g>
<g><path style="opacity:1" fill="#e5f4f9" d="M 210.5,164.5 C 208.5,170.5 206.5,176.5 204.5,182.5C 201.833,188.833 199.167,195.167 196.5,201.5C 196.462,198.819 197.129,196.319 198.5,194C 197.278,191.966 196.278,189.8 195.5,187.5C 194.218,189.179 193.218,191.013 192.5,193C 190.527,193.495 188.527,193.662 186.5,193.5C 193.506,189.151 196.506,182.818 195.5,174.5C 196.166,178.021 196.833,181.687 197.5,185.5C 198.803,184.282 199.803,184.615 200.5,186.5C 203.783,180.98 205.45,174.98 205.5,168.5C 206.5,168.5 207.5,168.5 208.5,168.5C 208.157,166.517 208.824,165.183 210.5,164.5 Z"/></g>
<g><path style="opacity:1" fill="#e25951" d="M 935.5,183.5 C 939.79,185.79 943.124,189.124 945.5,193.5C 940.781,199.221 935.448,204.221 929.5,208.5C 926.676,208.011 925.343,206.344 925.5,203.5C 927.484,203.383 929.15,204.05 930.5,205.5C 932.384,204.307 932.884,202.641 932,200.5C 930.446,197.898 928.28,196.731 925.5,197C 924.047,199.705 922.047,200.539 919.5,199.5C 924.521,193.812 929.854,188.479 935.5,183.5 Z"/></g>
<g><path style="opacity:1" fill="#fdb9b9" d="M 934.5,187.5 C 938.378,188.233 940.711,190.566 941.5,194.5C 937.46,193.794 935.127,191.46 934.5,187.5 Z"/></g>
<g><path style="opacity:1" fill="#e15b53" d="M 950.5,202.5 C 950.08,200.906 949.414,199.406 948.5,198C 949.985,195.683 951.652,193.516 953.5,191.5C 955.019,189.386 957.019,187.72 959.5,186.5C 959.833,187 960.167,187.5 960.5,188C 959.711,189.626 958.711,191.126 957.5,192.5C 959.967,194.991 962.967,196.324 966.5,196.5C 966.5,197.5 966.5,198.5 966.5,199.5C 961.896,198.79 957.563,197.624 953.5,196C 952.643,196.689 951.977,197.522 951.5,198.5C 953.897,203.349 957.563,204.682 962.5,202.5C 962.5,203.5 962.5,204.5 962.5,205.5C 960.723,205.786 959.056,206.453 957.5,207.5C 954.895,206.231 952.562,204.564 950.5,202.5 Z"/></g>
<g><path style="opacity:1" fill="#1666a5" d="M 216.5,175.5 C 215.841,172.592 215.007,172.258 214,174.5C 212.257,180.559 210.424,186.559 208.5,192.5C 208.611,193.117 208.944,193.617 209.5,194C 213.89,194.772 218.223,194.606 222.5,193.5C 222.833,192.833 223.167,192.167 223.5,191.5C 221.397,186.854 221.23,182.187 223,177.5C 223.949,179.093 225.115,180.426 226.5,181.5C 230.562,191.353 234.229,201.353 237.5,211.5C 234.5,211.5 231.5,211.5 228.5,211.5C 228.302,207.908 227.302,204.574 225.5,201.5C 222.572,200.18 219.239,199.514 215.5,199.5C 211.982,199.502 208.649,199.835 205.5,200.5C 204.244,203.767 203.077,207.101 202,210.5C 199.619,211.435 197.119,211.768 194.5,211.5C 194.959,208.123 195.626,204.789 196.5,201.5C 199.167,195.167 201.833,188.833 204.5,182.5C 207.706,177.332 210.372,171.832 212.5,166C 215.099,165.231 217.599,165.398 220,166.5C 222.072,170.642 221.905,174.642 219.5,178.5C 218.859,177.007 217.859,176.007 216.5,175.5 Z"/></g>
<g><path style="opacity:1" fill="#e6f4f9" d="M 216.5,175.5 C 218.484,180.808 220.484,186.141 222.5,191.5C 217.88,192.493 213.214,192.827 208.5,192.5C 210.424,186.559 212.257,180.559 214,174.5C 215.007,172.258 215.841,172.592 216.5,175.5 Z"/></g>
<g><path style="opacity:1" fill="#5185a6" d="M 172.5,194.5 C 172.5,200.167 172.5,205.833 172.5,211.5C 169.615,211.806 166.948,211.473 164.5,210.5C 166.833,210.5 169.167,210.5 171.5,210.5C 171.179,204.974 171.512,199.64 172.5,194.5 Z"/></g>
<g><path style="opacity:1" fill="#feb8b7" d="M 930.5,191.5 C 934.274,192.938 936.607,195.605 937.5,199.5C 934.386,198.909 931.886,197.242 930,194.5C 929.53,193.423 929.697,192.423 930.5,191.5 Z"/></g>
<g><path style="opacity:1" fill="#fdb9b9" d="M 948.5,176.5 C 949.542,175.209 950.708,175.209 952,176.5C 952.174,181.684 952.674,186.684 953.5,191.5C 951.652,193.516 949.985,195.683 948.5,198C 949.414,199.406 950.08,200.906 950.5,202.5C 949.883,202.389 949.383,202.056 949,201.5C 948.583,202.756 947.75,203.423 946.5,203.5C 948.162,201.388 947.828,200.222 945.5,200C 942,203.5 938.5,207 935,210.5C 934.517,211.448 934.351,212.448 934.5,213.5C 933.566,212.432 933.232,211.099 933.5,209.5C 931.901,209.768 930.568,209.434 929.5,208.5C 935.448,204.221 940.781,199.221 945.5,193.5C 943.124,189.124 939.79,185.79 935.5,183.5C 936.024,181.694 936.691,180.028 937.5,178.5C 937.351,179.552 937.517,180.552 938,181.5C 942.331,184.664 946.164,188.331 949.5,192.5C 951.524,189.333 951.857,186 950.5,182.5C 949.571,183.689 949.238,185.022 949.5,186.5C 945.833,186.167 943.833,184.167 943.5,180.5C 945.857,180.663 948.19,180.497 950.5,180C 951.84,177.851 951.173,176.684 948.5,176.5 Z"/></g>
<g><path style="opacity:1" fill="#e25951" d="M 937.5,178.5 C 939.857,178.337 942.19,178.503 944.5,179C 943.944,179.383 943.611,179.883 943.5,180.5C 943.833,184.167 945.833,186.167 949.5,186.5C 949.238,185.022 949.571,183.689 950.5,182.5C 951.857,186 951.524,189.333 949.5,192.5C 946.164,188.331 942.331,184.664 938,181.5C 937.517,180.552 937.351,179.552 937.5,178.5 Z"/></g>
<g><path style="opacity:1" fill="#a7cce2" d="M 205.5,200.5 C 208.649,199.835 211.982,199.502 215.5,199.5C 219.239,199.514 222.572,200.18 225.5,201.5C 218.922,200.54 212.255,200.207 205.5,200.5 Z"/></g>
<g><path style="opacity:1" fill="#99bad1" d="M 484.5,206.5 C 485.919,205.549 487.585,205.216 489.5,205.5C 489.5,206.833 489.5,208.167 489.5,209.5C 488.596,208.791 488.263,207.791 488.5,206.5C 487.167,206.5 485.833,206.5 484.5,206.5 Z"/></g>
<g><path style="opacity:1" fill="#1d5a93" d="M 532.5,209.5 C 530.441,213.271 528.108,216.938 525.5,220.5C 527.074,221.631 528.741,221.798 530.5,221C 532.123,218.92 533.623,216.754 535,214.5C 535.671,215.252 536.504,215.586 537.5,215.5C 537.5,216.167 537.5,216.833 537.5,217.5C 536.153,220.193 534.82,222.86 533.5,225.5C 531.171,227.841 529.171,230.508 527.5,233.5C 529.396,234.466 531.396,234.799 533.5,234.5C 533.682,232.409 533.348,230.409 532.5,228.5C 533.325,227.614 534.325,227.281 535.5,227.5C 536.935,229.598 538.102,231.931 539,234.5C 539.499,229.845 539.666,225.179 539.5,220.5C 543.5,220.5 547.5,220.5 551.5,220.5C 551.5,218.833 551.5,217.167 551.5,215.5C 547.5,215.5 543.5,215.5 539.5,215.5C 539.5,214.5 539.5,213.5 539.5,212.5C 543.371,212.815 547.038,212.482 550.5,211.5C 551.451,210.081 551.784,208.415 551.5,206.5C 552.833,206.5 554.167,206.5 555.5,206.5C 555.5,208.167 555.5,209.833 555.5,211.5C 559.634,212.485 563.968,212.818 568.5,212.5C 568.5,213.5 568.5,214.5 568.5,215.5C 563.968,215.182 559.634,215.515 555.5,216.5C 555.5,217.5 555.5,218.5 555.5,219.5C 558.962,220.482 562.629,220.815 566.5,220.5C 566.5,226.5 566.5,232.5 566.5,238.5C 564.167,238.5 561.833,238.5 559.5,238.5C 559.263,239.791 559.596,240.791 560.5,241.5C 563.072,245.745 566.406,249.411 570.5,252.5C 569.833,253.833 568.833,254.833 567.5,255.5C 562.605,251.367 558.938,246.367 556.5,240.5C 556.44,239.957 556.107,239.624 555.5,239.5C 554.505,245.128 554.171,250.794 554.5,256.5C 553.5,256.5 552.5,256.5 551.5,256.5C 551.666,250.824 551.499,245.157 551,239.5C 549.961,240.244 549.461,241.244 549.5,242.5C 546.865,248.134 542.865,252.467 537.5,255.5C 536.859,254.518 536.193,253.518 535.5,252.5C 539.102,250.678 539.102,249.678 535.5,249.5C 535.44,246.659 534.774,243.993 533.5,241.5C 534.964,240.595 536.298,240.595 537.5,241.5C 538.32,243.812 539.153,246.146 540,248.5C 542.933,246.236 545.1,243.402 546.5,240C 543.746,239.728 541.079,239.228 538.5,238.5C 535.362,237.319 532.362,237.319 529.5,238.5C 526.833,238.5 524.167,238.5 521.5,238.5C 521.5,236.833 521.5,235.167 521.5,233.5C 524.192,231.797 526.192,229.464 527.5,226.5C 525.234,225.686 522.9,225.186 520.5,225C 519.218,222.21 520.052,220.043 523,218.5C 524.833,214.833 526.667,211.167 528.5,207.5C 530.833,206.059 532.166,206.725 532.5,209.5 Z"/></g>
<g><path style="opacity:1" fill="#90b6cf" d="M 484.5,206.5 C 484.5,207.833 484.5,209.167 484.5,210.5C 477.833,210.5 471.167,210.5 464.5,210.5C 470.645,209.51 476.978,209.177 483.5,209.5C 483.263,208.209 483.596,207.209 484.5,206.5 Z"/></g>
<g><path style="opacity:1" fill="#1e5a92" d="M 484.5,206.5 C 485.833,206.5 487.167,206.5 488.5,206.5C 488.263,207.791 488.596,208.791 489.5,209.5C 495.645,210.49 501.978,210.823 508.5,210.5C 508.5,211.5 508.5,212.5 508.5,213.5C 501.978,213.177 495.645,213.51 489.5,214.5C 488.596,215.209 488.263,216.209 488.5,217.5C 494.5,217.5 500.5,217.5 506.5,217.5C 506.5,218.5 506.5,219.5 506.5,220.5C 500.833,220.5 495.167,220.5 489.5,220.5C 489.5,221.5 489.5,222.5 489.5,223.5C 496.833,223.5 504.167,223.5 511.5,223.5C 511.5,224.5 511.5,225.5 511.5,226.5C 502.983,226.174 494.65,226.507 486.5,227.5C 484.142,228.874 481.808,230.207 479.5,231.5C 478.957,231.56 478.624,231.893 478.5,232.5C 481.972,233.135 485.305,234.135 488.5,235.5C 488.137,236.183 487.804,236.85 487.5,237.5C 486.486,238.674 485.153,239.34 483.5,239.5C 482.711,239.783 482.044,240.283 481.5,241C 486.684,241.816 491.684,241.65 496.5,240.5C 497.376,240.631 498.043,240.298 498.5,239.5C 497.147,238.476 496.48,237.143 496.5,235.5C 498.308,235.491 499.975,235.991 501.5,237C 503.208,239.043 505.208,240.71 507.5,242C 508.337,243.011 508.67,244.178 508.5,245.5C 507.833,245.5 507.5,245.833 507.5,246.5C 501.748,244.645 495.748,243.978 489.5,244.5C 489.921,248.742 489.254,252.742 487.5,256.5C 484.167,256.5 480.833,256.5 477.5,256.5C 477.5,255.167 477.5,253.833 477.5,252.5C 479.833,252.5 482.167,252.5 484.5,252.5C 484.5,250.167 484.5,247.833 484.5,245.5C 478.355,244.51 472.022,244.177 465.5,244.5C 465.5,243.5 465.5,242.5 465.5,241.5C 467.099,241.768 468.432,241.434 469.5,240.5C 472.966,239.923 476.299,238.923 479.5,237.5C 480.376,237.631 481.043,237.298 481.5,236.5C 476.88,235.507 472.214,235.173 467.5,235.5C 467.5,234.5 467.5,233.5 467.5,232.5C 470.817,232.336 473.817,231.336 476.5,229.5C 477.995,229.585 478.995,228.919 479.5,227.5C 473.833,226.833 468.167,226.167 462.5,225.5C 469.655,224.833 476.655,224.167 483.5,223.5C 484.833,222.833 484.833,222.167 483.5,221.5C 478.36,220.512 473.026,220.179 467.5,220.5C 467.5,219.5 467.5,218.5 467.5,217.5C 473.167,217.5 478.833,217.5 484.5,217.5C 484.737,216.209 484.404,215.209 483.5,214.5C 477.355,213.51 471.022,213.177 464.5,213.5C 464.5,212.5 464.5,211.5 464.5,210.5C 471.167,210.5 477.833,210.5 484.5,210.5C 484.5,209.167 484.5,207.833 484.5,206.5 Z"/></g>
<g><path style="opacity:1" fill="#115693" d="M 623.5,229.5 C 622.167,229.5 620.833,229.5 619.5,229.5C 619.5,227.833 619.5,226.167 619.5,224.5C 618.737,223.732 617.737,223.232 616.5,223C 617.381,222.292 618.047,221.458 618.5,220.5C 619.473,218.052 619.806,215.385 619.5,212.5C 615.833,212.5 612.167,212.5 608.5,212.5C 608.167,212.5 607.833,212.5 607.5,212.5C 606.5,212.5 605.5,212.5 604.5,212.5C 604.5,211.5 604.5,210.5 604.5,209.5C 610.833,209.5 617.167,209.5 623.5,209.5C 623.5,216.167 623.5,222.833 623.5,229.5 Z"/></g>
<g><path style="opacity:1" fill="#7aa3c1" d="M 550.5,211.5 C 547.038,212.482 543.371,212.815 539.5,212.5C 539.5,213.5 539.5,214.5 539.5,215.5C 543.5,215.5 547.5,215.5 551.5,215.5C 551.5,217.167 551.5,218.833 551.5,220.5C 547.5,220.5 543.5,220.5 539.5,220.5C 542.962,219.518 546.629,219.185 550.5,219.5C 550.5,218.5 550.5,217.5 550.5,216.5C 546.069,216.231 541.735,216.564 537.5,217.5C 537.5,216.833 537.5,216.167 537.5,215.5C 538.434,214.432 538.768,213.099 538.5,211.5C 542.5,211.5 546.5,211.5 550.5,211.5 Z"/></g>
<g><path style="opacity:1" fill="#6f99b8" d="M 555.5,211.5 C 560.167,211.5 564.833,211.5 569.5,211.5C 569.5,213.167 569.5,214.833 569.5,216.5C 564.833,216.5 560.167,216.5 555.5,216.5C 559.634,215.515 563.968,215.182 568.5,215.5C 568.5,214.5 568.5,213.5 568.5,212.5C 563.968,212.818 559.634,212.485 555.5,211.5 Z"/></g>
<g><path style="opacity:1" fill="#e25a52" d="M 946.5,203.5 C 944.915,204.002 944.415,205.002 945,206.5C 947.919,207.187 950.752,208.187 953.5,209.5C 954.386,210.325 954.719,211.325 954.5,212.5C 949.375,211.946 944.375,211.112 939.5,210C 937.972,212.881 938.638,215.214 941.5,217C 944.309,217.312 946.976,216.812 949.5,215.5C 949.083,218.659 947.25,220.659 944,221.5C 940.042,219.704 936.876,217.037 934.5,213.5C 934.351,212.448 934.517,211.448 935,210.5C 938.5,207 942,203.5 945.5,200C 947.828,200.222 948.162,201.388 946.5,203.5 Z"/></g>
<g><path style="opacity:1" fill="#7aa4c4" d="M 608.5,212.5 C 612.167,212.5 615.833,212.5 619.5,212.5C 619.806,215.385 619.473,218.052 618.5,220.5C 618.5,218.167 618.5,215.833 618.5,213.5C 615.287,213.19 612.287,213.523 609.5,214.5C 608.662,214.158 608.328,213.492 608.5,212.5 Z"/></g>
<g><path style="opacity:1" fill="#df645e" d="M 963.5,210.5 C 968.419,213.748 972.753,217.748 976.5,222.5C 975.635,223.583 974.635,223.749 973.5,223C 970.333,219.833 967.167,216.667 964,213.5C 963.517,212.552 963.351,211.552 963.5,210.5 Z"/></g>
<g><path style="opacity:1" fill="#9abad0" d="M 508.5,210.5 C 509.434,211.568 509.768,212.901 509.5,214.5C 502.833,214.5 496.167,214.5 489.5,214.5C 495.645,213.51 501.978,213.177 508.5,213.5C 508.5,212.5 508.5,211.5 508.5,210.5 Z"/></g>
<g><path style="opacity:1" fill="#306392" d="M 338.5,235.5 C 338.5,234.833 338.5,234.167 338.5,233.5C 336.544,227.588 335.877,221.255 336.5,214.5C 334.821,214.285 333.821,214.952 333.5,216.5C 333.827,226.681 333.494,236.681 332.5,246.5C 332.666,236.161 332.5,225.828 332,215.5C 330.491,214.91 328.991,214.244 327.5,213.5C 334.811,212.335 342.144,212.169 349.5,213C 357.433,218.178 358.6,224.678 353,232.5C 348.528,235.056 343.695,236.056 338.5,235.5 Z"/></g>
<g><path style="opacity:1" fill="#ecf6fa" d="M 618.5,220.5 C 616.883,221.038 615.216,221.371 613.5,221.5C 613.039,218.697 611.705,216.363 609.5,214.5C 612.287,213.523 615.287,213.19 618.5,213.5C 618.5,215.833 618.5,218.167 618.5,220.5 Z"/></g>
<g><path style="opacity:1" fill="#90afc5" d="M 623.5,208.5 C 624.833,215.5 624.833,222.5 623.5,229.5C 623.5,222.833 623.5,216.167 623.5,209.5C 617.167,209.5 610.833,209.5 604.5,209.5C 604.5,210.5 604.5,211.5 604.5,212.5C 605.5,212.5 606.5,212.5 607.5,212.5C 607.672,213.492 607.338,214.158 606.5,214.5C 605.791,213.596 604.791,213.263 603.5,213.5C 603.5,211.833 603.5,210.167 603.5,208.5C 610.167,208.5 616.833,208.5 623.5,208.5 Z"/></g>
<g><path style="opacity:1" fill="#8db2cf" d="M 489.5,214.5 C 494.927,216.146 500.594,217.146 506.5,217.5C 500.5,217.5 494.5,217.5 488.5,217.5C 488.263,216.209 488.596,215.209 489.5,214.5 Z"/></g>
<g><path style="opacity:1" fill="#1f588a" d="M 333.5,216.5 C 334.659,226.658 334.825,236.992 334,247.5C 333.5,248 333,248.5 332.5,249C 334.259,249.798 335.926,249.631 337.5,248.5C 336.4,244.558 336.233,240.558 337,236.5C 337.383,235.944 337.883,235.611 338.5,235.5C 338.334,239.514 338.501,243.514 339,247.5C 341.326,247.88 343.159,248.88 344.5,250.5C 339.489,250.666 334.489,250.499 329.5,250C 330.056,249.617 330.389,249.117 330.5,248.5C 331.5,248.167 332.167,247.5 332.5,246.5C 333.494,236.681 333.827,226.681 333.5,216.5 Z"/></g>
<g><path style="opacity:1" fill="#9dc0db" d="M 483.5,214.5 C 484.404,215.209 484.737,216.209 484.5,217.5C 478.833,217.5 473.167,217.5 467.5,217.5C 467.5,218.5 467.5,219.5 467.5,220.5C 473.026,220.179 478.36,220.512 483.5,221.5C 477.833,221.5 472.167,221.5 466.5,221.5C 466.5,219.833 466.5,218.167 466.5,216.5C 472.598,217.117 478.265,216.45 483.5,214.5 Z"/></g>
<g><path style="opacity:1" fill="#d95b55" d="M 957.5,216.5 C 961.753,219.41 965.753,222.744 969.5,226.5C 970.833,227.5 970.833,228.5 969.5,229.5C 964.748,225.753 960.748,221.419 957.5,216.5 Z"/></g>
<g><path style="opacity:1" fill="#316598" d="M 607.5,212.5 C 607.833,212.5 608.167,212.5 608.5,212.5C 608.328,213.492 608.662,214.158 609.5,214.5C 611.705,216.363 613.039,218.697 613.5,221.5C 615.216,221.371 616.883,221.038 618.5,220.5C 618.047,221.458 617.381,222.292 616.5,223C 617.737,223.232 618.737,223.732 619.5,224.5C 617.302,224.12 615.635,224.787 614.5,226.5C 611.198,227.294 607.865,227.96 604.5,228.5C 604.5,227.167 604.5,225.833 604.5,224.5C 606.5,224.167 608.5,223.833 610.5,223.5C 609.881,220.367 608.214,217.867 605.5,216C 605.57,215.235 605.903,214.735 606.5,214.5C 607.338,214.158 607.672,213.492 607.5,212.5 Z"/></g>
<g><path style="opacity:1" fill="#08569a" d="M 338.5,233.5 C 338.5,234.167 338.5,234.833 338.5,235.5C 337.883,235.611 337.383,235.944 337,236.5C 336.233,240.558 336.4,244.558 337.5,248.5C 335.926,249.631 334.259,249.798 332.5,249C 333,248.5 333.5,248 334,247.5C 334.825,236.992 334.659,226.658 333.5,216.5C 333.821,214.952 334.821,214.285 336.5,214.5C 335.877,221.255 336.544,227.588 338.5,233.5 Z"/></g>
<g><path style="opacity:1" fill="#ecf5f9" d="M 489.5,205.5 C 487.585,205.216 485.919,205.549 484.5,206.5C 483.596,207.209 483.263,208.209 483.5,209.5C 476.978,209.177 470.645,209.51 464.5,210.5C 464.5,211.5 464.5,212.5 464.5,213.5C 471.022,213.177 477.355,213.51 483.5,214.5C 478.265,216.45 472.598,217.117 466.5,216.5C 466.5,218.167 466.5,219.833 466.5,221.5C 472.167,221.5 477.833,221.5 483.5,221.5C 484.833,222.167 484.833,222.833 483.5,223.5C 476.167,223.5 468.833,223.5 461.5,223.5C 461.5,224.833 461.5,226.167 461.5,227.5C 466.844,227.334 472.177,227.501 477.5,228C 476.944,228.383 476.611,228.883 476.5,229.5C 473.817,231.336 470.817,232.336 467.5,232.5C 467.5,233.5 467.5,234.5 467.5,235.5C 471.5,236.167 475.5,236.833 479.5,237.5C 476.299,238.923 472.966,239.923 469.5,240.5C 467.585,240.216 465.919,240.549 464.5,241.5C 463.957,241.44 463.624,241.107 463.5,240.5C 464.325,239.614 465.325,239.281 466.5,239.5C 466.808,237.076 466.474,234.743 465.5,232.5C 464.61,235.394 463.276,238.061 461.5,240.5C 460.749,239.624 460.249,238.624 460,237.5C 459,238.5 458,239.5 457,240.5C 456.667,239.167 456.333,237.833 456,236.5C 455.015,238.175 454.181,239.842 453.5,241.5C 453.784,239.585 453.451,237.919 452.5,236.5C 445.833,235.833 439.167,235.167 432.5,234.5C 436.336,232.416 440.003,230.083 443.5,227.5C 444.451,226.081 444.784,224.415 444.5,222.5C 433.833,222.5 423.167,222.5 412.5,222.5C 412.5,224.167 412.5,225.833 412.5,227.5C 420.019,227.175 427.352,227.508 434.5,228.5C 432.363,229.942 430.03,231.109 427.5,232C 426.62,233.356 426.286,234.856 426.5,236.5C 419.167,236.5 411.833,236.5 404.5,236.5C 404.5,238.167 404.5,239.833 404.5,241.5C 411.833,241.5 419.167,241.5 426.5,241.5C 426.5,244.833 426.5,248.167 426.5,251.5C 423.5,251.5 420.5,251.5 417.5,251.5C 417.5,252.833 417.5,254.167 417.5,255.5C 415.926,253.898 415.259,251.898 415.5,249.5C 418.347,249.218 421.013,249.218 423.5,249.5C 424.474,247.257 424.808,244.924 424.5,242.5C 417.492,242.666 410.492,242.5 403.5,242C 401.59,237.344 402.924,234.011 407.5,232C 407.167,231.667 406.833,231.333 406.5,231C 411.962,227.585 411.296,226.085 404.5,226.5C 404.5,221.167 404.5,215.833 404.5,210.5C 411.167,210.5 417.833,210.5 424.5,210.5C 424.232,208.901 424.566,207.568 425.5,206.5C 425.5,207.5 425.5,208.5 425.5,209.5C 419.25,211.459 412.584,212.126 405.5,211.5C 405.5,215.833 405.5,220.167 405.5,224.5C 407.5,224.5 409.5,224.5 411.5,224.5C 411.5,222.167 411.5,219.833 411.5,217.5C 422.833,217.5 434.167,217.5 445.5,217.5C 445.5,219.833 445.5,222.167 445.5,224.5C 447.5,224.5 449.5,224.5 451.5,224.5C 451.5,220.167 451.5,215.833 451.5,211.5C 452.326,215.982 452.826,220.649 453,225.5C 454.029,221.571 454.863,217.571 455.5,213.5C 456.747,215.006 456.747,216.506 455.5,218C 455.996,219.996 456.996,221.663 458.5,223C 458.167,223.333 457.833,223.667 457.5,224C 458.448,224.483 459.448,224.649 460.5,224.5C 460.22,221.612 461.553,220.112 464.5,220C 462.996,218.509 462.163,216.676 462,214.5C 459.152,213.567 458.986,212.067 461.5,210C 468.385,208.575 475.385,208.075 482.5,208.5C 482.5,207.167 482.5,205.833 482.5,204.5C 485.059,204.198 487.393,204.532 489.5,205.5 Z"/></g>
<g><path style="opacity:1" fill="#5d86a5" d="M 443.5,227.5 C 443.5,226.167 443.5,224.833 443.5,223.5C 433.5,223.5 423.5,223.5 413.5,223.5C 413.5,224.5 413.5,225.5 413.5,226.5C 420.863,226.169 428.197,226.503 435.5,227.5C 435.376,228.107 435.043,228.44 434.5,228.5C 427.352,227.508 420.019,227.175 412.5,227.5C 412.5,225.833 412.5,224.167 412.5,222.5C 423.167,222.5 433.833,222.5 444.5,222.5C 444.784,224.415 444.451,226.081 443.5,227.5 Z"/></g>
<g><path style="opacity:1" fill="#81a7c6" d="M 425.5,209.5 C 426.404,210.209 426.737,211.209 426.5,212.5C 419.833,212.5 413.167,212.5 406.5,212.5C 406.5,216.167 406.5,219.833 406.5,223.5C 407.833,223.5 409.167,223.5 410.5,223.5C 410.5,221.167 410.5,218.833 410.5,216.5C 422.5,216.5 434.5,216.5 446.5,216.5C 446.5,218.833 446.5,221.167 446.5,223.5C 447.833,223.5 449.167,223.5 450.5,223.5C 450.5,219.833 450.5,216.167 450.5,212.5C 443.978,212.823 437.645,212.49 431.5,211.5C 438.167,211.5 444.833,211.5 451.5,211.5C 451.5,215.833 451.5,220.167 451.5,224.5C 449.5,224.5 447.5,224.5 445.5,224.5C 445.5,222.167 445.5,219.833 445.5,217.5C 434.167,217.5 422.833,217.5 411.5,217.5C 411.5,219.833 411.5,222.167 411.5,224.5C 409.5,224.5 407.5,224.5 405.5,224.5C 405.5,220.167 405.5,215.833 405.5,211.5C 412.584,212.126 419.25,211.459 425.5,209.5 Z"/></g>
<g><path style="opacity:1" fill="#165790" d="M 425.5,206.5 C 427.167,206.5 428.833,206.5 430.5,206.5C 430.629,208.216 430.962,209.883 431.5,211.5C 437.645,212.49 443.978,212.823 450.5,212.5C 450.5,216.167 450.5,219.833 450.5,223.5C 449.167,223.5 447.833,223.5 446.5,223.5C 446.5,221.167 446.5,218.833 446.5,216.5C 434.5,216.5 422.5,216.5 410.5,216.5C 410.5,218.833 410.5,221.167 410.5,223.5C 409.167,223.5 407.833,223.5 406.5,223.5C 406.5,219.833 406.5,216.167 406.5,212.5C 413.167,212.5 419.833,212.5 426.5,212.5C 426.737,211.209 426.404,210.209 425.5,209.5C 425.5,208.5 425.5,207.5 425.5,206.5 Z"/></g>
<g><path style="opacity:1" fill="#fafaf6" d="M 412.5,218.5 C 423.187,218.168 433.854,218.501 444.5,219.5C 439.167,219.833 433.833,220.167 428.5,220.5C 422.789,220.495 417.456,219.828 412.5,218.5 Z"/></g>
<g><path style="opacity:1" fill="#eaf8fc" d="M 539.5,220.5 C 539.666,225.179 539.499,229.845 539,234.5C 538.102,231.931 536.935,229.598 535.5,227.5C 534.833,226.833 534.167,226.167 533.5,225.5C 534.82,222.86 536.153,220.193 537.5,217.5C 541.735,216.564 546.069,216.231 550.5,216.5C 550.5,217.5 550.5,218.5 550.5,219.5C 546.629,219.185 542.962,219.518 539.5,220.5 Z"/></g>
<g><path style="opacity:1" fill="#f0f6f9" d="M 532.5,209.5 C 532.166,206.725 530.833,206.059 528.5,207.5C 526.667,211.167 524.833,214.833 523,218.5C 520.052,220.043 519.218,222.21 520.5,225C 522.9,225.186 525.234,225.686 527.5,226.5C 526.192,229.464 524.192,231.797 521.5,233.5C 520.275,234.152 519.608,235.319 519.5,237C 519.788,239.187 520.122,241.354 520.5,243.5C 519.265,243.279 518.265,242.612 517.5,241.5C 515.772,245.617 514.105,245.95 512.5,242.5C 511.717,244.288 510.384,245.288 508.5,245.5C 508.67,244.178 508.337,243.011 507.5,242C 505.208,240.71 503.208,239.043 501.5,237C 499.975,235.991 498.308,235.491 496.5,235.5C 496.48,237.143 497.147,238.476 498.5,239.5C 498.043,240.298 497.376,240.631 496.5,240.5C 491.968,240.818 487.634,240.485 483.5,239.5C 485.153,239.34 486.486,238.674 487.5,237.5C 491.273,235.779 494.939,233.779 498.5,231.5C 499.731,230.349 499.731,229.183 498.5,228C 503.019,227.825 507.353,227.325 511.5,226.5C 511.5,225.5 511.5,224.5 511.5,223.5C 513.143,223.52 514.476,222.853 515.5,221.5C 516.167,222.833 516.833,224.167 517.5,225.5C 518.788,222.125 519.288,218.791 519,215.5C 519.667,216.167 520.333,216.833 521,217.5C 522.339,213.921 523.839,210.421 525.5,207C 524.483,205.951 524.316,204.784 525,203.5C 527.069,204.264 529.236,204.764 531.5,205C 533.466,206.347 533.799,207.847 532.5,209.5 Z"/></g>
<g><path style="opacity:1" fill="#e8f4f9" d="M 338.5,233.5 C 338.5,227.167 338.5,220.833 338.5,214.5C 348.734,213.901 352.567,218.568 350,228.5C 347.575,233.063 343.742,234.729 338.5,233.5 Z"/></g>
<g><path style="opacity:1" fill="#5d8eb7" d="M 483.5,223.5 C 476.655,224.167 469.655,224.833 462.5,225.5C 468.167,226.167 473.833,226.833 479.5,227.5C 478.995,228.919 477.995,229.585 476.5,229.5C 476.611,228.883 476.944,228.383 477.5,228C 472.177,227.501 466.844,227.334 461.5,227.5C 461.5,226.167 461.5,224.833 461.5,223.5C 468.833,223.5 476.167,223.5 483.5,223.5 Z"/></g>
<g><path style="opacity:1" fill="#80a8c8" d="M 555.5,219.5 C 559.5,219.5 563.5,219.5 567.5,219.5C 567.5,226.167 567.5,232.833 567.5,239.5C 564.612,238.99 562.279,239.656 560.5,241.5C 559.596,240.791 559.263,239.791 559.5,238.5C 561.833,238.5 564.167,238.5 566.5,238.5C 566.5,232.5 566.5,226.5 566.5,220.5C 562.629,220.815 558.962,220.482 555.5,219.5 Z"/></g>
<g><path style="opacity:1" fill="#95b8d4" d="M 619.5,224.5 C 619.5,226.167 619.5,227.833 619.5,229.5C 618.839,228.282 618.172,226.949 617.5,225.5C 616.583,226.127 615.583,226.461 614.5,226.5C 615.635,224.787 617.302,224.12 619.5,224.5 Z"/></g>
<g><path style="opacity:1" fill="#4a7fab" d="M 551.5,224.5 C 551.167,224.5 550.833,224.5 550.5,224.5C 548.167,224.5 545.833,224.5 543.5,224.5C 543.5,227.833 543.5,231.167 543.5,234.5C 543.5,234.833 543.5,235.167 543.5,235.5C 542.517,231.702 542.183,227.702 542.5,223.5C 545.713,223.19 548.713,223.523 551.5,224.5 Z"/></g>
<g><path style="opacity:1" fill="#d4e9f4" d="M 486.5,227.5 C 489.518,227.335 492.518,227.502 495.5,228C 490.71,232.125 485.377,233.292 479.5,231.5C 481.808,230.207 484.142,228.874 486.5,227.5 Z"/></g>
<g><path style="opacity:1" fill="#dbf3fa" d="M 550.5,224.5 C 550.795,226.735 550.461,228.735 549.5,230.5C 548.922,227.63 547.255,225.963 544.5,225.5C 544.94,228.38 545.94,231.046 547.5,233.5C 546.432,234.434 545.099,234.768 543.5,234.5C 543.5,231.167 543.5,227.833 543.5,224.5C 545.833,224.5 548.167,224.5 550.5,224.5 Z"/></g>
<g><path style="opacity:1" fill="#295e8f" d="M 549.5,230.5 C 549.715,232.179 549.048,233.179 547.5,233.5C 545.94,231.046 544.94,228.38 544.5,225.5C 547.255,225.963 548.922,227.63 549.5,230.5 Z"/></g>
<g><path style="opacity:1" fill="#badaed" d="M 563.5,224.5 C 563.5,228.167 563.5,231.833 563.5,235.5C 560.615,235.806 557.948,235.473 555.5,234.5C 555.5,231.167 555.5,227.833 555.5,224.5C 558.167,224.5 560.833,224.5 563.5,224.5 Z"/></g>
<g><path style="opacity:1" fill="#2e608f" d="M 559.5,225.5 C 561.273,226.314 561.773,227.648 561,229.5C 560.55,232.106 559.05,233.439 556.5,233.5C 556.94,230.62 557.94,227.954 559.5,225.5 Z"/></g>
<g><path style="opacity:1" fill="#4d80a9" d="M 563.5,224.5 C 560.833,224.5 558.167,224.5 555.5,224.5C 555.5,227.833 555.5,231.167 555.5,234.5C 554.518,231.038 554.185,227.371 554.5,223.5C 557.713,223.19 560.713,223.523 563.5,224.5 Z"/></g>
<g><path style="opacity:1" fill="#386c9c" d="M 486.5,227.5 C 494.65,226.507 502.983,226.174 511.5,226.5C 507.353,227.325 503.019,227.825 498.5,228C 499.731,229.183 499.731,230.349 498.5,231.5C 494.939,233.779 491.273,235.779 487.5,237.5C 487.804,236.85 488.137,236.183 488.5,235.5C 485.305,234.135 481.972,233.135 478.5,232.5C 478.624,231.893 478.957,231.56 479.5,231.5C 485.377,233.292 490.71,232.125 495.5,228C 492.518,227.502 489.518,227.335 486.5,227.5 Z"/></g>
<g><path style="opacity:1" fill="#c0deed" d="M 533.5,225.5 C 534.167,226.167 534.833,226.833 535.5,227.5C 534.325,227.281 533.325,227.614 532.5,228.5C 533.348,230.409 533.682,232.409 533.5,234.5C 531.396,234.799 529.396,234.466 527.5,233.5C 529.171,230.508 531.171,227.841 533.5,225.5 Z"/></g>
<g><path style="opacity:1" fill="#205a91" d="M 397.5,250.5 C 392.821,250.666 388.155,250.499 383.5,250C 384.416,249.722 385.082,249.222 385.5,248.5C 386.88,248.038 387.547,247.038 387.5,245.5C 386.727,242.966 385.727,240.632 384.5,238.5C 379.695,237.513 374.695,237.179 369.5,237.5C 368.066,240.698 367.566,244.032 368,247.5C 369.11,249.037 370.61,249.703 372.5,249.5C 372.5,249.833 372.5,250.167 372.5,250.5C 368.154,250.666 363.821,250.499 359.5,250C 360.416,249.722 361.082,249.222 361.5,248.5C 362.79,247.942 363.623,246.942 364,245.5C 368,234.833 372,224.167 376,213.5C 378.33,211.968 380.33,212.302 382,214.5C 385.803,225.577 389.803,236.577 394,247.5C 395.729,247.974 396.895,248.974 397.5,250.5 Z"/></g>
<g><path style="opacity:1" fill="#e9f5fa" d="M 382.5,232.5 C 381.306,233.777 379.64,234.444 377.5,234.5C 375.36,234.444 373.694,233.777 372.5,232.5C 373.765,227.707 375.431,223.041 377.5,218.5C 379.569,223.041 381.235,227.707 382.5,232.5 Z"/></g>
<g><path style="opacity:1" fill="#9bbed3" d="M 372.5,232.5 C 373.694,233.777 375.36,234.444 377.5,234.5C 379.64,234.444 381.306,233.777 382.5,232.5C 383.404,233.209 383.737,234.209 383.5,235.5C 379.5,235.5 375.5,235.5 371.5,235.5C 371.263,234.209 371.596,233.209 372.5,232.5 Z"/></g>
<g><path style="opacity:1" fill="#8cb4d5" d="M 550.5,224.5 C 550.833,224.5 551.167,224.5 551.5,224.5C 551.5,228.167 551.5,231.833 551.5,235.5C 548.833,235.5 546.167,235.5 543.5,235.5C 543.5,235.167 543.5,234.833 543.5,234.5C 545.099,234.768 546.432,234.434 547.5,233.5C 549.048,233.179 549.715,232.179 549.5,230.5C 550.461,228.735 550.795,226.735 550.5,224.5 Z"/></g>
<g><path style="opacity:1" fill="#9abfd5" d="M 432.5,234.5 C 439.167,235.167 445.833,235.833 452.5,236.5C 445.468,236.83 438.468,236.497 431.5,235.5C 431.624,234.893 431.957,234.56 432.5,234.5 Z"/></g>
<g><path style="opacity:1" fill="#719ebc" d="M 467.5,235.5 C 472.214,235.173 476.88,235.507 481.5,236.5C 481.043,237.298 480.376,237.631 479.5,237.5C 475.5,236.833 471.5,236.167 467.5,235.5 Z"/></g>
<g><path style="opacity:1" fill="#a0c2da" d="M 529.5,238.5 C 532.362,237.319 535.362,237.319 538.5,238.5C 537.89,239.391 537.557,240.391 537.5,241.5C 536.298,240.595 534.964,240.595 533.5,241.5C 533.953,240.542 534.619,239.708 535.5,239C 533.527,238.505 531.527,238.338 529.5,238.5 Z"/></g>
<g><path style="opacity:1" fill="#e8f5fb" d="M 538.5,238.5 C 541.079,239.228 543.746,239.728 546.5,240C 545.1,243.402 542.933,246.236 540,248.5C 539.153,246.146 538.32,243.812 537.5,241.5C 537.557,240.391 537.89,239.391 538.5,238.5 Z"/></g>
<g><path style="opacity:1" fill="#6e98bb" d="M 452.5,236.5 C 453.451,237.919 453.784,239.585 453.5,241.5C 446.167,241.5 438.833,241.5 431.5,241.5C 438.313,240.509 445.313,240.175 452.5,240.5C 452.5,239.167 452.5,237.833 452.5,236.5 Z"/></g>
<g><path style="opacity:1" fill="#6f9abd" d="M 483.5,239.5 C 487.634,240.485 491.968,240.818 496.5,240.5C 491.684,241.65 486.684,241.816 481.5,241C 482.044,240.283 482.711,239.783 483.5,239.5 Z"/></g>
<g><path style="opacity:1" fill="#89aac4" d="M 469.5,240.5 C 468.432,241.434 467.099,241.768 465.5,241.5C 465.5,242.5 465.5,243.5 465.5,244.5C 464.596,243.791 464.263,242.791 464.5,241.5C 465.919,240.549 467.585,240.216 469.5,240.5 Z"/></g>
<g><path style="opacity:1" fill="#4b7ca4" d="M 556.5,240.5 C 555.511,245.975 555.178,251.642 555.5,257.5C 554.167,257.5 552.833,257.5 551.5,257.5C 551.5,257.167 551.5,256.833 551.5,256.5C 552.5,256.5 553.5,256.5 554.5,256.5C 554.171,250.794 554.505,245.128 555.5,239.5C 556.107,239.624 556.44,239.957 556.5,240.5 Z"/></g>
<g><path style="opacity:1" fill="#c1d9e8" d="M 384.5,238.5 C 379.833,238.5 375.167,238.5 370.5,238.5C 370.62,240.734 370.287,242.901 369.5,245C 370.555,246.507 371.555,248.007 372.5,249.5C 370.61,249.703 369.11,249.037 368,247.5C 367.566,244.032 368.066,240.698 369.5,237.5C 374.695,237.179 379.695,237.513 384.5,238.5 Z"/></g>
<g><path style="opacity:1" fill="#77a2c3" d="M 465.5,244.5 C 472.022,244.177 478.355,244.51 484.5,245.5C 481.615,245.194 478.948,245.527 476.5,246.5C 475.167,246.833 473.833,247.167 472.5,247.5C 472.611,246.883 472.944,246.383 473.5,246C 470.635,245.817 467.969,245.317 465.5,244.5 Z"/></g>
<g><path style="opacity:1" fill="#cce2f0" d="M 507.5,246.5 C 507.5,247.5 507.5,248.5 507.5,249.5C 511.273,249.657 512.273,251.324 510.5,254.5C 510.586,253.504 510.252,252.671 509.5,252C 504.537,249.187 499.537,247.354 494.5,246.5C 493.432,245.566 492.099,245.232 490.5,245.5C 490.665,248.85 490.498,252.183 490,255.5C 489.329,256.252 488.496,256.586 487.5,256.5C 489.254,252.742 489.921,248.742 489.5,244.5C 495.748,243.978 501.748,244.645 507.5,246.5 Z"/></g>
<g><path style="opacity:1" fill="#9cbdd7" d="M 551.5,256.5 C 551.5,256.833 551.5,257.167 551.5,257.5C 550.833,252.5 550.167,247.5 549.5,242.5C 549.461,241.244 549.961,240.244 551,239.5C 551.499,245.157 551.666,250.824 551.5,256.5 Z"/></g>
<g><path style="opacity:1" fill="#3c6c9a" d="M 304.5,212.5 C 309.875,212.172 315.208,212.505 320.5,213.5C 319.009,214.244 317.509,214.91 316,215.5C 315.333,226.167 315.333,236.833 316,247.5C 317.356,248.38 318.856,248.714 320.5,248.5C 320.5,249.5 320.5,250.5 320.5,251.5C 315.167,251.5 309.833,251.5 304.5,251.5C 304.5,250.5 304.5,249.5 304.5,248.5C 306.144,248.714 307.644,248.38 309,247.5C 309.667,236.833 309.667,226.167 309,215.5C 306.974,215.085 305.474,214.085 304.5,212.5 Z"/></g>
<g><path style="opacity:1" fill="#0c5595" d="M 311.5,214.5 C 312.5,214.5 313.5,214.5 314.5,214.5C 314.179,226.081 314.512,237.581 315.5,249C 313.866,249.494 312.199,249.66 310.5,249.5C 310.254,237.803 310.587,226.136 311.5,214.5 Z"/></g>
<g><path style="opacity:1" fill="#326596" d="M 510.5,254.5 C 510.53,255.497 510.03,256.164 509,256.5C 504.226,254.196 499.392,252.029 494.5,250C 493.316,248.855 493.316,247.688 494.5,246.5C 499.537,247.354 504.537,249.187 509.5,252C 510.252,252.671 510.586,253.504 510.5,254.5 Z"/></g>
<g><path style="opacity:1" fill="#2a5e90" d="M 519.5,255.5 C 518.957,255.44 518.624,255.107 518.5,254.5C 519.482,251.904 520.149,249.238 520.5,246.5C 521.451,245.081 521.784,243.415 521.5,241.5C 522.833,241.5 524.167,241.5 525.5,241.5C 524.99,245.884 524.157,250.218 523,254.5C 521.989,255.337 520.822,255.67 519.5,255.5 Z"/></g>
<g><path style="opacity:1" fill="#daedf6" d="M 521.5,233.5 C 521.5,235.167 521.5,236.833 521.5,238.5C 524.167,238.5 526.833,238.5 529.5,238.5C 531.527,238.338 533.527,238.505 535.5,239C 534.619,239.708 533.953,240.542 533.5,241.5C 534.774,243.993 535.44,246.659 535.5,249.5C 539.102,249.678 539.102,250.678 535.5,252.5C 536.193,253.518 536.859,254.518 537.5,255.5C 534.287,255.81 531.287,255.477 528.5,254.5C 529.833,254.5 531.167,254.5 532.5,254.5C 532.414,250.143 532.08,245.81 531.5,241.5C 530.432,240.566 529.099,240.232 527.5,240.5C 527.19,243.713 527.523,246.713 528.5,249.5C 528.5,250.833 528.5,252.167 528.5,253.5C 525.742,250.997 524.075,251.83 523.5,256C 521.934,256.765 520.601,256.598 519.5,255.5C 520.822,255.67 521.989,255.337 523,254.5C 524.157,250.218 524.99,245.884 525.5,241.5C 524.167,241.5 522.833,241.5 521.5,241.5C 521.784,243.415 521.451,245.081 520.5,246.5C 520.5,245.5 520.5,244.5 520.5,243.5C 520.122,241.354 519.788,239.187 519.5,237C 519.608,235.319 520.275,234.152 521.5,233.5 Z"/></g>
<g><path style="opacity:1" fill="#275b8a" d="M 531.5,241.5 C 532.08,245.81 532.414,250.143 532.5,254.5C 531.167,254.5 529.833,254.5 528.5,254.5C 528.5,254.167 528.5,253.833 528.5,253.5C 528.5,252.167 528.5,250.833 528.5,249.5C 528.5,246.833 528.5,244.167 528.5,241.5C 529.5,241.5 530.5,241.5 531.5,241.5 Z"/></g>
<g><path style="opacity:1" fill="#83aecf" d="M 531.5,241.5 C 530.5,241.5 529.5,241.5 528.5,241.5C 528.5,244.167 528.5,246.833 528.5,249.5C 527.523,246.713 527.19,243.713 527.5,240.5C 529.099,240.232 530.432,240.566 531.5,241.5 Z"/></g>
<g><path style="opacity:1" fill="#638eaf" d="M 330.5,248.5 C 330.389,249.117 330.056,249.617 329.5,250C 334.489,250.499 339.489,250.666 344.5,250.5C 339.025,251.489 333.358,251.822 327.5,251.5C 327.5,250.5 327.5,249.5 327.5,248.5C 328.5,248.5 329.5,248.5 330.5,248.5 Z"/></g>
<g><path style="opacity:1" fill="#7098b7" d="M 361.5,248.5 C 361.082,249.222 360.416,249.722 359.5,250C 363.821,250.499 368.154,250.666 372.5,250.5C 368.03,251.486 363.363,251.819 358.5,251.5C 358.5,250.5 358.5,249.5 358.5,248.5C 359.5,248.5 360.5,248.5 361.5,248.5 Z"/></g>
<g><path style="opacity:1" fill="#6b95b5" d="M 385.5,248.5 C 385.082,249.222 384.416,249.722 383.5,250C 388.155,250.499 392.821,250.666 397.5,250.5C 392.695,251.487 387.695,251.821 382.5,251.5C 382.5,250.5 382.5,249.5 382.5,248.5C 383.5,248.5 384.5,248.5 385.5,248.5 Z"/></g>
<g><path style="opacity:1" fill="#90b3cc" d="M 466.5,250.5 C 464.703,251.393 463.37,252.726 462.5,254.5C 461.515,251.563 462.849,250.229 466.5,250.5 Z"/></g>
<g><path style="opacity:1" fill="#2b6094" d="M 476.5,246.5 C 477.573,247.251 477.74,248.251 477,249.5C 472.865,252.211 468.532,254.544 464,256.5C 462.97,256.164 462.47,255.497 462.5,254.5C 463.37,252.726 464.703,251.393 466.5,250.5C 468.255,249.096 470.255,248.096 472.5,247.5C 473.833,247.167 475.167,246.833 476.5,246.5 Z"/></g>
<g><path style="opacity:1" fill="#1f5b94" d="M 443.5,227.5 C 440.003,230.083 436.336,232.416 432.5,234.5C 431.957,234.56 431.624,234.893 431.5,235.5C 438.468,236.497 445.468,236.83 452.5,236.5C 452.5,237.833 452.5,239.167 452.5,240.5C 445.313,240.175 438.313,240.509 431.5,241.5C 431.665,245.182 431.499,248.848 431,252.5C 430.125,255.215 428.292,256.548 425.5,256.5C 422.721,256.721 420.054,256.388 417.5,255.5C 417.5,254.167 417.5,252.833 417.5,251.5C 420.5,251.5 423.5,251.5 426.5,251.5C 426.5,248.167 426.5,244.833 426.5,241.5C 419.167,241.5 411.833,241.5 404.5,241.5C 404.5,239.833 404.5,238.167 404.5,236.5C 411.833,236.5 419.167,236.5 426.5,236.5C 426.286,234.856 426.62,233.356 427.5,232C 430.03,231.109 432.363,229.942 434.5,228.5C 435.043,228.44 435.376,228.107 435.5,227.5C 428.197,226.503 420.863,226.169 413.5,226.5C 413.5,225.5 413.5,224.5 413.5,223.5C 423.5,223.5 433.5,223.5 443.5,223.5C 443.5,224.833 443.5,226.167 443.5,227.5 Z"/></g>
<g><path style="opacity:1" fill="#95b7d2" d="M 417.5,255.5 C 420.054,256.388 422.721,256.721 425.5,256.5C 424.378,257.156 423.045,257.489 421.5,257.5C 419.667,257.415 418.334,256.748 417.5,255.5 Z"/></g>
<g><path style="opacity:1" fill="#e7f5fa" d="M 623.5,208.5 C 616.833,208.5 610.167,208.5 603.5,208.5C 603.5,210.167 603.5,211.833 603.5,213.5C 604.791,213.263 605.791,213.596 606.5,214.5C 605.903,214.735 605.57,215.235 605.5,216C 608.214,217.867 609.881,220.367 610.5,223.5C 608.5,223.833 606.5,224.167 604.5,224.5C 604.5,225.833 604.5,227.167 604.5,228.5C 607.865,227.96 611.198,227.294 614.5,226.5C 615.583,226.461 616.583,226.127 617.5,225.5C 618.172,226.949 618.839,228.282 619.5,229.5C 620.833,229.5 622.167,229.5 623.5,229.5C 622.527,239.084 622.194,248.75 622.5,258.5C 609.833,258.5 597.167,258.5 584.5,258.5C 584.831,250.14 584.498,241.807 583.5,233.5C 582.692,235.423 582.192,237.423 582,239.5C 580.191,234.665 578.858,229.665 578,224.5C 577.333,225.833 576.667,225.833 576,224.5C 575.667,225.167 575.333,225.833 575,226.5C 574.505,224.527 574.338,222.527 574.5,220.5C 576.905,221.768 578.905,221.768 580.5,220.5C 579.32,218.546 578.654,216.379 578.5,214C 578.506,211.967 578.839,210.134 579.5,208.5C 579.077,205.757 580.244,204.424 583,204.5C 588.342,205.391 593.842,205.391 599.5,204.5C 600.646,205.145 601.646,205.978 602.5,207C 609.679,207.171 616.679,207.671 623.5,208.5 Z"/></g>
<g><path style="opacity:1" fill="#255e93" d="M 602.5,229.5 C 604.048,229.821 604.715,230.821 604.5,232.5C 609.833,232.5 615.167,232.5 620.5,232.5C 620.5,240.167 620.5,247.833 620.5,255.5C 608.784,256.144 597.451,255.478 586.5,253.5C 588.45,248.265 589.117,242.598 588.5,236.5C 597.793,235.582 607.127,235.248 616.5,235.5C 616.171,241.537 616.504,247.537 617.5,253.5C 618.496,247.202 618.83,240.868 618.5,234.5C 613.489,234.666 608.489,234.499 603.5,234C 602.62,232.644 602.286,231.144 602.5,229.5 Z"/></g>
<g><path style="opacity:1" fill="#0a5698" d="M 599.5,229.5 C 600.5,229.5 601.5,229.5 602.5,229.5C 602.286,231.144 602.62,232.644 603.5,234C 608.489,234.499 613.489,234.666 618.5,234.5C 618.83,240.868 618.496,247.202 617.5,253.5C 616.504,247.537 616.171,241.537 616.5,235.5C 607.127,235.248 597.793,235.582 588.5,236.5C 589.117,242.598 588.45,248.265 586.5,253.5C 586.5,246.833 586.5,240.167 586.5,233.5C 590.702,233.817 594.702,233.483 598.5,232.5C 599.404,231.791 599.737,230.791 599.5,229.5 Z"/></g>
<g><path style="opacity:1" fill="#dcecf4" d="M 590.5,246.5 C 598.833,246.5 607.167,246.5 615.5,246.5C 615.5,248.167 615.5,249.833 615.5,251.5C 607.167,251.5 598.833,251.5 590.5,251.5C 590.5,249.833 590.5,248.167 590.5,246.5 Z"/></g>
<g><path style="opacity:1" fill="#dff0f5" d="M 590.5,237.5 C 598.833,237.5 607.167,237.5 615.5,237.5C 615.5,239.167 615.5,240.833 615.5,242.5C 607.167,242.5 598.833,242.5 590.5,242.5C 590.5,240.833 590.5,239.167 590.5,237.5 Z"/></g>
<g><path style="opacity:1" fill="#457093" d="M 598.5,232.5 C 594.702,233.483 590.702,233.817 586.5,233.5C 586.5,240.167 586.5,246.833 586.5,253.5C 597.451,255.478 608.784,256.144 620.5,255.5C 609.012,256.495 597.345,256.828 585.5,256.5C 585.5,248.5 585.5,240.5 585.5,232.5C 589.833,232.5 594.167,232.5 598.5,232.5 Z"/></g>
<g><path style="opacity:1" fill="#265f94" d="M 601.5,209.5 C 601.207,216.255 601.54,222.922 602.5,229.5C 601.5,229.5 600.5,229.5 599.5,229.5C 598.791,228.596 597.791,228.263 596.5,228.5C 596.5,227.5 596.5,226.5 596.5,225.5C 590.692,226.631 585.025,228.297 579.5,230.5C 579.238,229.022 579.571,227.689 580.5,226.5C 583.054,224.979 585.721,223.646 588.5,222.5C 587.185,220.684 585.685,219.017 584,217.5C 583.26,216.251 583.427,215.251 584.5,214.5C 585.167,214.5 585.833,214.5 586.5,214.5C 589.204,216.206 591.204,218.539 592.5,221.5C 593.736,220.754 595.07,220.421 596.5,220.5C 596.5,218.167 596.5,215.833 596.5,213.5C 591.36,212.512 586.026,212.179 580.5,212.5C 580.5,211.5 580.5,210.5 580.5,209.5C 587.5,209.5 594.5,209.5 601.5,209.5 Z"/></g>
<g><path style="opacity:1" fill="#e4f5fa" d="M 586.5,214.5 C 589.625,213.521 592.958,213.187 596.5,213.5C 596.5,215.833 596.5,218.167 596.5,220.5C 595.07,220.421 593.736,220.754 592.5,221.5C 591.204,218.539 589.204,216.206 586.5,214.5 Z"/></g>
<g><path style="opacity:1" fill="#759ebe" d="M 579.5,208.5 C 587.019,208.175 594.352,208.508 601.5,209.5C 594.5,209.5 587.5,209.5 580.5,209.5C 580.5,210.5 580.5,211.5 580.5,212.5C 586.026,212.179 591.36,212.512 596.5,213.5C 592.958,213.187 589.625,213.521 586.5,214.5C 585.833,214.5 585.167,214.5 584.5,214.5C 583.081,213.549 581.415,213.216 579.5,213.5C 579.5,211.833 579.5,210.167 579.5,208.5 Z"/></g>
<g><path style="opacity:1" fill="#1f5b95" d="M 77.5,329.5 C 77.8333,329.5 78.1667,329.5 78.5,329.5C 80.7941,345.784 89.4608,357.118 104.5,363.5C 104.5,363.833 104.5,364.167 104.5,364.5C 103.325,364.281 102.325,364.614 101.5,365.5C 102.368,367.397 103.701,368.73 105.5,369.5C 104.833,369.5 104.167,369.5 103.5,369.5C 88.6354,363.971 78.9687,353.637 74.5,338.5C 76.3435,336.721 77.0102,334.388 76.5,331.5C 77.3382,331.158 77.6716,330.492 77.5,329.5 Z"/></g>
<g><path style="opacity:1" fill="#8fb3ce" d="M 104.5,364.5 C 104.5,364.167 104.5,363.833 104.5,363.5C 106.861,363.674 109.194,364.007 111.5,364.5C 111.5,364.833 111.5,365.167 111.5,365.5C 109.139,365.326 106.806,364.993 104.5,364.5 Z"/></g>
<g><path style="opacity:1" fill="#265e92" d="M 104.5,364.5 C 106.806,364.993 109.139,365.326 111.5,365.5C 395.666,366.5 680,366.833 964.5,366.5C 967.518,366.665 970.518,366.498 973.5,366C 974.711,364.422 976.045,364.255 977.5,365.5C 974.711,366.633 972.378,368.3 970.5,370.5C 968.914,371.148 967.247,371.648 965.5,372C 681.834,372.5 398.167,372.667 114.5,372.5C 112.901,372.768 111.568,372.434 110.5,371.5C 109.07,370.463 107.403,369.796 105.5,369.5C 103.701,368.73 102.368,367.397 101.5,365.5C 102.325,364.614 103.325,364.281 104.5,364.5 Z"/></g>
<g><path style="opacity:1" fill="#cde6f0" d="M 972.5,363.5 C 969.833,364.5 967.167,365.5 964.5,366.5C 680,366.833 395.666,366.5 111.5,365.5C 111.5,365.167 111.5,364.833 111.5,364.5C 398.511,364.827 685.511,364.494 972.5,363.5 Z"/></g>
<g><path style="opacity:1" fill="#79a1c2" d="M 103.5,369.5 C 104.167,369.5 104.833,369.5 105.5,369.5C 107.403,369.796 109.07,370.463 110.5,371.5C 107.848,371.59 105.515,370.924 103.5,369.5 Z"/></g>
<g><path style="opacity:1" fill="#e8fdfe" d="M 970.5,370.5 C 971.5,370.5 972.5,370.5 973.5,370.5C 971.695,372.197 969.361,373.03 966.5,373C 682.333,373.833 398.333,373.666 114.5,372.5C 398.167,372.667 681.834,372.5 965.5,372C 967.247,371.648 968.914,371.148 970.5,370.5 Z"/></g>
</svg>
