<?xml version="1.0" encoding="UTF-8"?>
<!DOCTYPE svg PUBLIC "-//W3C//DTD SVG 1.1//EN" "http://www.w3.org/Graphics/SVG/1.1/DTD/svg11.dtd">
<svg xmlns="http://www.w3.org/2000/svg" version="1.1" width="1080px" height="393px" style="shape-rendering:geometricPrecision; text-rendering:geometricPrecision; image-rendering:optimizeQuality; fill-rule:evenodd; clip-rule:evenodd" xmlns:xlink="http://www.w3.org/1999/xlink">
<g><path style="opacity:1" fill="#f9fafa" d="M -0.5,-0.5 C 359.5,-0.5 719.5,-0.5 1079.5,-0.5C 1079.5,130.5 1079.5,261.5 1079.5,392.5C 719.5,392.5 359.5,392.5 -0.5,392.5C -0.5,261.5 -0.5,130.5 -0.5,-0.5 Z"/></g>
<g><path style="opacity:1" fill="#f0fdfb" d="M 964.5,21.5 C 680.167,21.5 395.833,21.5 111.5,21.5C 111.351,20.448 111.517,19.448 112,18.5C 394.609,19.324 677.443,19.824 960.5,20C 962.058,20.21 963.391,20.71 964.5,21.5 Z"/></g>
<g><path style="opacity:1" fill="#77a0ba" d="M 110.5,22.5 C 110.5,21.8333 110.833,21.5 111.5,21.5C 395.833,21.5 680.167,21.5 964.5,21.5C 967.152,21.4095 969.485,22.0762 971.5,23.5C 969.833,23.5 968.167,23.5 966.5,23.5C 681.334,22.5002 396,22.1669 110.5,22.5 Z"/></g>
<g><path style="opacity:1" fill="#185381" d="M 110.5,22.5 C 396,22.1669 681.334,22.5002 966.5,23.5C 680.146,23.1698 393.812,23.5031 107.5,24.5C 108.5,23.8333 109.5,23.1667 110.5,22.5 Z"/></g>
<g><path style="opacity:1" fill="#6e98b8" d="M 110.5,22.5 C 109.5,23.1667 108.5,23.8333 107.5,24.5C 104.167,25.5 100.833,26.5 97.5,27.5C 101.206,24.4909 105.539,22.8242 110.5,22.5 Z"/></g>
<g><path style="opacity:1" fill="#89afc5" d="M 111.5,28.5 C 397.354,27.1694 683.354,27.1694 969.5,28.5C 969.5,28.8333 969.5,29.1667 969.5,29.5C 967.5,29.5 965.5,29.5 963.5,29.5C 679.667,28.5002 395.667,28.1669 111.5,28.5 Z"/></g>
<g><path style="opacity:1" fill="#255e96" d="M 972.5,23.5 C 993.986,30.7839 1005.65,45.7839 1007.5,68.5C 1005.67,63.018 1003.84,57.3514 1002,51.5C 1000.84,50.0072 1000.01,50.1739 999.5,52C 1000.41,54.8946 1001.41,57.7279 1002.5,60.5C 1001.83,60.1667 1001.17,59.8333 1000.5,59.5C 996.028,43.4327 985.694,33.4327 969.5,29.5C 969.5,29.1667 969.5,28.8333 969.5,28.5C 971.833,28.5 974.167,28.5 976.5,28.5C 976.5,27.5 976.5,26.5 976.5,25.5C 974.62,25.7709 973.287,25.1042 972.5,23.5 Z"/></g>
<g><path style="opacity:1" fill="#e9fcfe" d="M 111.5,28.5 C 395.667,28.1669 679.667,28.5002 963.5,29.5C 680.833,29.3333 398.166,29.5 115.5,30C 110.604,30.5449 106.271,32.3782 102.5,35.5C 100.929,34.6906 99.2624,34.3573 97.5,34.5C 101.396,30.8896 106.063,28.8896 111.5,28.5 Z"/></g>
<g><path style="opacity:1" fill="#f9f9f9" d="M 963.5,29.5 C 965.5,29.5 967.5,29.5 969.5,29.5C 985.694,33.4327 996.028,43.4327 1000.5,59.5C 1000.5,60.1667 1000.5,60.8333 1000.5,61.5C 1000.67,149.501 1000.5,237.501 1000,325.5C 999.545,328.854 999.045,332.187 998.5,335.5C 995.397,346.269 988.73,353.936 978.5,358.5C 974.5,359.5 970.5,360.5 966.5,361.5C 682.427,360.687 398.427,360.687 114.5,361.5C 112.552,360.869 110.719,359.869 109,358.5C 107.769,359.108 106.436,359.441 105,359.5C 102.51,358.664 100.01,357.998 97.5,357.5C 86.7736,350.763 80.4403,341.096 78.5,328.5C 78.3333,240.833 78.5,153.166 79,65.5C 80,64.1667 81,62.8333 82,61.5C 82.3905,56.7177 83.2239,52.051 84.5,47.5C 87.1667,41.5 91.5,37.1667 97.5,34.5C 99.2624,34.3573 100.929,34.6906 102.5,35.5C 106.271,32.3782 110.604,30.5449 115.5,30C 398.166,29.5 680.833,29.3333 963.5,29.5 Z"/></g>
<g><path style="opacity:1" fill="#fecacf" d="M 797.5,52.5 C 795.972,52.5173 795.472,53.184 796,54.5C 799.349,58.0158 802.849,61.3492 806.5,64.5C 807.583,63.635 807.749,62.635 807,61.5C 803.903,58.5816 801.07,55.5816 798.5,52.5C 817.151,51.429 835.818,51.2623 854.5,52C 895.36,92.8604 936.194,133.694 977,174.5C 977.5,200.165 977.667,225.831 977.5,251.5C 966.25,253.96 955.917,252.127 946.5,246C 890.721,190.221 834.887,134.387 779,78.5C 776.119,74.0706 773.785,69.404 772,64.5C 770.675,60.5715 770.342,56.5715 771,52.5C 779.932,51.1719 788.765,51.1719 797.5,52.5 Z"/></g>
<g><path style="opacity:1" fill="#d55c56" d="M 806.5,53.5 C 809.56,52.7746 811.893,54.108 813.5,57.5C 812.998,58.521 812.332,58.6877 811.5,58C 809.963,56.2927 808.296,54.7927 806.5,53.5 Z"/></g>
<g><path style="opacity:1" fill="#0f5694" d="M 966.5,23.5 C 968.167,23.5 969.833,23.5 971.5,23.5C 971.833,23.5 972.167,23.5 972.5,23.5C 973.287,25.1042 974.62,25.7709 976.5,25.5C 976.5,26.5 976.5,27.5 976.5,28.5C 974.167,28.5 971.833,28.5 969.5,28.5C 683.354,27.1694 397.354,27.1694 111.5,28.5C 106.063,28.8896 101.396,30.8896 97.5,34.5C 91.5,37.1667 87.1667,41.5 84.5,47.5C 81.704,50.7607 79.704,54.4273 78.5,58.5C 77.8826,58.6107 77.3826,58.944 77,59.5C 76.5,149.166 76.3333,238.833 76.5,328.5C 77.0356,331.698 76.369,334.365 74.5,336.5C 72.9886,333.456 72.322,330.122 72.5,326.5C 72.3333,238.166 72.5,149.833 73,61.5C 74.2022,59.3225 74.7022,56.9892 74.5,54.5C 78.2125,42.1216 85.8792,33.1216 97.5,27.5C 100.833,26.5 104.167,25.5 107.5,24.5C 393.812,23.5031 680.146,23.1698 966.5,23.5 Z"/></g>
<g><path style="opacity:1" fill="#db605a" d="M 797.5,52.5 C 797.833,52.5 798.167,52.5 798.5,52.5C 801.07,55.5816 803.903,58.5816 807,61.5C 807.749,62.635 807.583,63.635 806.5,64.5C 802.849,61.3492 799.349,58.0158 796,54.5C 795.472,53.184 795.972,52.5173 797.5,52.5 Z"/></g>
<g><path style="opacity:1" fill="#165385" d="M 78.5,58.5 C 77.5076,148.471 77.1743,238.471 77.5,328.5C 77.1667,328.5 76.8333,328.5 76.5,328.5C 76.3333,238.833 76.5,149.166 77,59.5C 77.3826,58.944 77.8826,58.6107 78.5,58.5 Z"/></g>
<g><path style="opacity:1" fill="#e4fbfe" d="M 72.5,58.5 C 71.1707,147.961 71.1707,237.294 72.5,326.5C 72.322,330.122 72.9886,333.456 74.5,336.5C 74.6287,338.216 74.962,339.883 75.5,341.5C 74.5416,341.047 73.7083,340.381 73,339.5C 72.4888,337.122 71.8221,334.788 71,332.5C 70.3333,241.5 70.3333,150.5 71,59.5C 71.3826,58.944 71.8826,58.6107 72.5,58.5 Z"/></g>
<g><path style="opacity:1" fill="#1c5581" d="M 74.5,54.5 C 74.7022,56.9892 74.2022,59.3225 73,61.5C 72.5,149.833 72.3333,238.166 72.5,326.5C 71.1707,237.294 71.1707,147.961 72.5,58.5C 72.9887,57.0048 73.6554,55.6715 74.5,54.5 Z"/></g>
<g><path style="opacity:1" fill="#e1fbfd" d="M 84.5,47.5 C 83.2239,52.051 82.3905,56.7177 82,61.5C 81,62.8333 80,64.1667 79,65.5C 78.5,153.166 78.3333,240.833 78.5,328.5C 78.1667,328.5 77.8333,328.5 77.5,328.5C 77.1743,238.471 77.5076,148.471 78.5,58.5C 79.704,54.4273 81.704,50.7607 84.5,47.5 Z"/></g>
<g><path style="opacity:1" fill="#fcbebf" d="M 822.5,59.5 C 828.093,62.0935 831.427,66.4268 832.5,72.5C 834.705,73.8707 836.372,75.704 837.5,78C 832.6,84.0564 827.933,90.2231 823.5,96.5C 823.267,94.9382 822.6,93.6049 821.5,92.5C 822.376,92.6309 823.043,92.2975 823.5,91.5C 822.167,90.3801 821.667,89.0468 822,87.5C 823.833,85.6667 825.667,83.8333 827.5,82C 828.784,81.3162 829.951,81.4829 831,82.5C 831.419,78.2623 829.585,75.7623 825.5,75C 824.273,76.5874 824.606,77.9207 826.5,79C 824.167,81.3333 821.833,83.6667 819.5,86C 818.5,86.6667 817.5,86.6667 816.5,86C 815.424,84.2739 815.257,82.4406 816,80.5C 817.487,79.8448 818.653,78.8448 819.5,77.5C 817.313,73.9633 814.313,71.63 810.5,70.5C 811.874,66.8132 814.541,65.1466 818.5,65.5C 818.232,63.901 818.566,62.5676 819.5,61.5C 820.29,60.5987 821.29,59.9321 822.5,59.5 Z"/></g>
<g><path style="opacity:1" fill="#db5d56" d="M 815.5,66.5 C 818.744,68.0713 821.411,70.4046 823.5,73.5C 823.167,73.8333 822.833,74.1667 822.5,74.5C 820.641,72.8076 818.641,71.3076 816.5,70C 815.663,68.9887 815.33,67.8221 815.5,66.5 Z"/></g>
<g><path style="opacity:1" fill="#dc615a" d="M 819.5,61.5 C 822.394,62.8823 824.894,64.8823 827,67.5C 827.749,68.635 827.583,69.635 826.5,70.5C 822.963,68.3129 820.63,65.3129 819.5,61.5 Z"/></g>
<g><path style="opacity:1" fill="#e15d55" d="M 810.5,70.5 C 814.313,71.63 817.313,73.9633 819.5,77.5C 818.653,78.8448 817.487,79.8448 816,80.5C 815.257,82.4406 815.424,84.2739 816.5,86C 817.5,86.6667 818.5,86.6667 819.5,86C 821.833,83.6667 824.167,81.3333 826.5,79C 824.606,77.9207 824.273,76.5874 825.5,75C 829.585,75.7623 831.419,78.2623 831,82.5C 829.951,81.4829 828.784,81.3162 827.5,82C 825.667,83.8333 823.833,85.6667 822,87.5C 821.667,89.0468 822.167,90.3801 823.5,91.5C 823.043,92.2975 822.376,92.6309 821.5,92.5C 817.63,89.7975 813.63,87.2975 809.5,85C 807.316,82.9835 805.316,80.8169 803.5,78.5C 805.856,75.8136 808.189,73.147 810.5,70.5 Z"/></g>
<g><path style="opacity:1" fill="#fec1c3" d="M 809.5,74.5 C 815.476,75.951 815.976,78.6177 811,82.5C 809.647,81.3147 808.48,79.9814 807.5,78.5C 808.63,77.3777 809.297,76.0443 809.5,74.5 Z"/></g>
<g><path style="opacity:1" fill="#d76b65" d="M 846.5,74.5 C 847.5,74.5 848.5,74.5 849.5,74.5C 849.5,76.5 849.5,78.5 849.5,80.5C 848.5,80.5 847.5,80.5 846.5,80.5C 846.5,78.5 846.5,76.5 846.5,74.5 Z"/></g>
<g><path style="opacity:1" fill="#1d527f" d="M 1000.5,59.5 C 1001.17,59.8333 1001.83,60.1667 1002.5,60.5C 1002.67,150.834 1002.5,241.167 1002,331.5C 1001.62,332.056 1001.12,332.389 1000.5,332.5C 1001.82,242.014 1001.82,151.68 1000.5,61.5C 1000.5,60.8333 1000.5,60.1667 1000.5,59.5 Z"/></g>
<g><path style="opacity:1" fill="#e5fbfe" d="M 1000.5,61.5 C 1001.82,151.68 1001.82,242.014 1000.5,332.5C 1000.07,333.71 999.401,334.71 998.5,335.5C 999.045,332.187 999.545,328.854 1000,325.5C 1000.5,237.501 1000.67,149.501 1000.5,61.5 Z"/></g>
<g><path style="opacity:1" fill="#e05a52" d="M 823.5,96.5 C 827.933,90.2231 832.6,84.0564 837.5,78C 836.372,75.704 834.705,73.8707 832.5,72.5C 831.427,66.4268 828.093,62.0935 822.5,59.5C 821.766,58.2921 821.433,56.9587 821.5,55.5C 823.914,57.2245 826.58,58.5578 829.5,59.5C 829.265,56.1881 830.265,55.3547 832.5,57C 829.937,65.9465 832.937,71.6131 841.5,74C 842.916,71.7355 844.916,70.5688 847.5,70.5C 846.119,73.0745 844.452,75.5745 842.5,78C 843.535,79.2737 844.702,80.4404 846,81.5C 846.749,82.635 846.583,83.635 845.5,84.5C 844.019,83.5197 842.685,82.353 841.5,81C 835.809,84.0237 831.309,88.5237 828,94.5C 827.283,98.7676 828.45,99.4342 831.5,96.5C 832.583,97.365 832.749,98.365 832,99.5C 829.435,101.179 826.602,101.846 823.5,101.5C 823.5,99.8333 823.5,98.1667 823.5,96.5 Z"/></g>
<g><path style="opacity:1" fill="#e06059" d="M 874.5,99.5 C 874.721,105.29 874.721,111.29 874.5,117.5C 873.209,117.737 872.209,117.404 871.5,116.5C 871.5,114.833 871.5,113.167 871.5,111.5C 867.167,110.5 864.5,107.833 863.5,103.5C 861.833,103.5 860.167,103.5 858.5,103.5C 858.5,102.5 858.5,101.5 858.5,100.5C 863.88,100.676 869.213,100.342 874.5,99.5 Z"/></g>
<g><path style="opacity:1" fill="#da6864" d="M 840.5,98.5 C 840.5,99.5 840.5,100.5 840.5,101.5C 837.868,103.113 835.202,104.78 832.5,106.5C 832.167,106 831.833,105.5 831.5,105C 834.378,102.616 837.378,100.449 840.5,98.5 Z"/></g>
<g><path style="opacity:1" fill="#e7817c" d="M 840.5,101.5 C 842.078,102.066 843.412,103.066 844.5,104.5C 843.441,106.534 842.441,108.534 841.5,110.5C 839.501,111.857 838.335,111.19 838,108.5C 837.107,109.711 836.274,109.711 835.5,108.5C 837.038,105.95 838.704,103.617 840.5,101.5 Z"/></g>
<g><path style="opacity:1" fill="#feb9b8" d="M 865.5,102.5 C 867.924,102.192 870.257,102.526 872.5,103.5C 871.811,105.444 871.311,107.444 871,109.5C 868.546,107.559 866.713,105.225 865.5,102.5 Z"/></g>
<g><path style="opacity:1" fill="#f7a09d" d="M 842.5,96.5 C 844.185,99.9913 846.519,103.158 849.5,106C 848.382,107.074 847.382,108.24 846.5,109.5C 845.833,109.167 845.167,108.833 844.5,108.5C 843.304,110.145 842.304,111.811 841.5,113.5C 841.5,112.5 841.5,111.5 841.5,110.5C 842.441,108.534 843.441,106.534 844.5,104.5C 843.412,103.066 842.078,102.066 840.5,101.5C 840.5,100.5 840.5,99.5 840.5,98.5C 841.167,97.8333 841.833,97.1667 842.5,96.5 Z"/></g>
<g><path style="opacity:1" fill="#fcb6b6" d="M 860.5,96.5 C 861.404,97.209 861.737,98.209 861.5,99.5C 866.041,99.1574 870.374,99.1574 874.5,99.5C 869.213,100.342 863.88,100.676 858.5,100.5C 858.5,101.5 858.5,102.5 858.5,103.5C 860.167,103.5 861.833,103.5 863.5,103.5C 864.5,107.833 867.167,110.5 871.5,111.5C 871.5,113.167 871.5,114.833 871.5,116.5C 870.833,116.833 870.167,117.167 869.5,117.5C 868.604,114.931 866.938,112.931 864.5,111.5C 861.777,114.22 859.443,117.22 857.5,120.5C 856.15,121.95 854.484,122.617 852.5,122.5C 851.309,117.882 852.975,115.382 857.5,115C 859.188,113.312 860.855,111.645 862.5,110C 859.733,104.2 856.566,104.033 853,109.5C 851.824,114.671 848.657,116.671 843.5,115.5C 846.458,113.044 849.291,110.378 852,107.5C 852.116,105.345 851.783,103.345 851,101.5C 852.68,100.397 854.18,100.73 855.5,102.5C 855.833,102 856.167,101.5 856.5,101C 855.852,99.5603 855.519,98.0603 855.5,96.5C 857.143,96.4802 858.476,97.1468 859.5,98.5C 860.298,98.0431 860.631,97.3764 860.5,96.5 Z"/></g>
<g><path style="opacity:1" fill="#e05d55" d="M 860.5,96.5 C 860.631,97.3764 860.298,98.0431 859.5,98.5C 858.476,97.1468 857.143,96.4802 855.5,96.5C 855.519,98.0603 855.852,99.5603 856.5,101C 856.167,101.5 855.833,102 855.5,102.5C 854.18,100.73 852.68,100.397 851,101.5C 851.783,103.345 852.116,105.345 852,107.5C 849.291,110.378 846.458,113.044 843.5,115.5C 848.657,116.671 851.824,114.671 853,109.5C 856.566,104.033 859.733,104.2 862.5,110C 860.855,111.645 859.188,113.312 857.5,115C 852.975,115.382 851.309,117.882 852.5,122.5C 854.484,122.617 856.15,121.95 857.5,120.5C 859.443,117.22 861.777,114.22 864.5,111.5C 866.938,112.931 868.604,114.931 869.5,117.5C 866.879,121.679 863.046,123.679 858,123.5C 857.502,126.482 857.335,129.482 857.5,132.5C 855.656,130.721 854.99,128.388 855.5,125.5C 852.302,126.036 849.635,125.369 847.5,123.5C 849.351,122.134 849.684,120.467 848.5,118.5C 845.916,119.393 843.249,119.726 840.5,119.5C 840.5,118.5 840.5,117.5 840.5,116.5C 836.765,116.454 835.432,114.787 836.5,111.5C 837.85,112.95 839.516,113.617 841.5,113.5C 842.304,111.811 843.304,110.145 844.5,108.5C 845.167,108.833 845.833,109.167 846.5,109.5C 847.382,108.24 848.382,107.074 849.5,106C 846.519,103.158 844.185,99.9913 842.5,96.5C 847.146,92.1885 851.813,87.8551 856.5,83.5C 859.5,86.8333 862.5,90.1667 865.5,93.5C 865.167,93.8333 864.833,94.1667 864.5,94.5C 863.15,93.0499 861.484,92.3832 859.5,92.5C 859.433,93.9587 859.766,95.2921 860.5,96.5 Z"/></g>
<g><path style="opacity:1" fill="#fcb6b4" d="M 856.5,108.5 C 857.5,108.5 858.5,108.5 859.5,108.5C 859.254,111.47 857.588,112.803 854.5,112.5C 854.527,110.801 855.194,109.467 856.5,108.5 Z"/></g>
<g><path style="opacity:1" fill="#fcb3b2" d="M 846.5,95.5 C 849.423,96.1634 850.09,97.8301 848.5,100.5C 846.783,99.3315 846.116,97.6648 846.5,95.5 Z"/></g>
<g><path style="opacity:1" fill="#feb8b7" d="M 850.5,92.5 C 852.346,92.2222 853.68,92.8888 854.5,94.5C 852.167,95.9415 850.834,95.2748 850.5,92.5 Z"/></g>
<g><path style="opacity:1" fill="#feb2af" d="M 855.5,87.5 C 857.912,87.6941 858.912,89.0274 858.5,91.5C 855.046,91.7332 854.046,90.3999 855.5,87.5 Z"/></g>
<g><path style="opacity:1" fill="#fdb6b6" d="M 863.5,115.5 C 864.5,115.5 865.5,115.5 866.5,115.5C 866.616,118.91 864.95,120.244 861.5,119.5C 861.527,117.801 862.194,116.467 863.5,115.5 Z"/></g>
<g><path style="opacity:1" fill="#df5f59" d="M 880.5,116.5 C 884.135,116.656 884.468,117.822 881.5,120C 878.833,122 876.167,124 873.5,126C 872.365,126.749 871.365,126.583 870.5,125.5C 873.853,122.478 877.187,119.478 880.5,116.5 Z"/></g>
<g><path style="opacity:1" fill="#f09c9c" d="M 847.5,123.5 C 849.635,125.369 852.302,126.036 855.5,125.5C 854.99,128.388 855.656,130.721 857.5,132.5C 856.791,133.404 855.791,133.737 854.5,133.5C 854.5,131.167 854.5,128.833 854.5,126.5C 852.08,126.292 849.747,126.626 847.5,127.5C 846.218,126.042 846.218,124.708 847.5,123.5 Z"/></g>
<g><path style="opacity:1" fill="#e25951" d="M 869.5,145.5 C 869.281,144.325 869.614,143.325 870.5,142.5C 872.984,144.483 875.317,146.65 877.5,149C 881.203,148.66 883.869,146.66 885.5,143C 883.548,140.575 881.881,138.075 880.5,135.5C 881.552,135.351 882.552,135.517 883.5,136C 885.017,137.685 886.684,139.185 888.5,140.5C 890.149,139.352 891.649,138.019 893,136.5C 893.711,134.633 893.211,133.133 891.5,132C 888.8,131.747 886.133,131.747 883.5,132C 885.524,129.36 885.857,126.527 884.5,123.5C 878.194,129.14 872.194,135.14 866.5,141.5C 865.675,142.386 864.675,142.719 863.5,142.5C 863.351,141.448 863.517,140.448 864,139.5C 872.867,130.448 882.034,122.115 891.5,114.5C 890.563,116.838 889.23,119.005 887.5,121C 887.978,123.226 888.645,125.392 889.5,127.5C 891.702,125.732 894.035,124.565 896.5,124C 896.957,124.414 897.291,124.914 897.5,125.5C 892.743,127.409 892.41,129.742 896.5,132.5C 898.316,131.185 899.983,129.685 901.5,128C 902.448,127.517 903.448,127.351 904.5,127.5C 904.649,128.552 904.483,129.552 904,130.5C 901.82,131.346 900.32,132.846 899.5,135C 901.781,137.757 903.781,140.591 905.5,143.5C 904.448,143.649 903.448,143.483 902.5,143C 900.65,140.982 898.65,139.149 896.5,137.5C 894.804,139.525 893.137,141.525 891.5,143.5C 892.278,145.147 893.444,146.48 895,147.5C 895.749,148.635 895.583,149.635 894.5,150.5C 892.035,149.868 890.369,148.368 889.5,146C 886.018,147.132 883.351,149.465 881.5,153C 883.312,154.812 885.145,156.645 887,158.5C 887.749,159.635 887.583,160.635 886.5,161.5C 880.865,156.201 875.199,150.867 869.5,145.5 Z"/></g>
<g><path style="opacity:1" fill="#fdc1c3" d="M 869.5,145.5 C 868.732,144.737 868.232,143.737 868,142.5C 866.384,143.801 864.884,143.801 863.5,142.5C 864.675,142.719 865.675,142.386 866.5,141.5C 872.194,135.14 878.194,129.14 884.5,123.5C 885.857,126.527 885.524,129.36 883.5,132C 886.133,131.747 888.8,131.747 891.5,132C 893.211,133.133 893.711,134.633 893,136.5C 891.649,138.019 890.149,139.352 888.5,140.5C 886.684,139.185 885.017,137.685 883.5,136C 882.552,135.517 881.552,135.351 880.5,135.5C 881.881,138.075 883.548,140.575 885.5,143C 883.869,146.66 881.203,148.66 877.5,149C 875.317,146.65 872.984,144.483 870.5,142.5C 869.614,143.325 869.281,144.325 869.5,145.5 Z"/></g>
<g><path style="opacity:1" fill="#1a558c" d="M 496.5,173.5 C 496.5,174.833 497.167,175.5 498.5,175.5C 499.833,175.5 500.5,176.167 500.5,177.5C 496.298,177.817 492.298,177.483 488.5,176.5C 489.531,175.751 490.698,175.085 492,174.5C 492.806,164.756 492.639,155.089 491.5,145.5C 490.737,144.732 489.737,144.232 488.5,144C 490.81,143.503 493.143,143.337 495.5,143.5C 495.173,153.681 495.506,163.681 496.5,173.5 Z"/></g>
<g><path style="opacity:1" fill="#86a8c2" d="M 314.5,145.5 C 311.15,145.335 307.817,145.502 304.5,146C 306.119,146.236 307.119,147.069 307.5,148.5C 307.167,148.5 306.833,148.5 306.5,148.5C 305.791,147.596 304.791,147.263 303.5,147.5C 303.5,146.5 303.5,145.5 303.5,144.5C 307.371,144.185 311.038,144.518 314.5,145.5 Z"/></g>
<g><path style="opacity:1" fill="#3d6a95" d="M 583.5,142.5 C 587.35,142.701 588.35,144.534 586.5,148C 582.537,148.118 581.537,146.284 583.5,142.5 Z"/></g>
<g><path style="opacity:1" fill="#2f5f8d" d="M 352.5,143.5 C 353.833,143.5 355.167,143.5 356.5,143.5C 356.5,145.167 356.5,146.833 356.5,148.5C 355.167,148.5 353.833,148.5 352.5,148.5C 352.5,146.833 352.5,145.167 352.5,143.5 Z"/></g>
<g><path style="opacity:1" fill="#e6f3f9" d="M 498.5,175.5 C 497.167,175.5 496.5,174.833 496.5,173.5C 496.5,163.167 496.5,152.833 496.5,142.5C 493.5,142.5 490.5,142.5 487.5,142.5C 487.5,143.5 487.5,144.5 487.5,145.5C 488.833,145.5 490.167,145.5 491.5,145.5C 492.639,155.089 492.806,164.756 492,174.5C 490.698,175.085 489.531,175.751 488.5,176.5C 487.957,176.56 487.624,176.893 487.5,177.5C 491.783,178.492 496.116,178.826 500.5,178.5C 495.985,179.812 491.318,179.812 486.5,178.5C 486.192,177.692 485.692,177.025 485,176.5C 484.51,177.793 484.343,179.127 484.5,180.5C 480.993,179.994 477.826,180.66 475,182.5C 474.369,181.128 473.702,179.795 473,178.5C 469.112,179.85 465.279,179.684 461.5,178C 460.606,173.237 459.939,168.403 459.5,163.5C 460.833,163.5 462.167,163.5 463.5,163.5C 461.673,160.738 460.673,157.904 460.5,155C 461.85,153.282 463.017,151.448 464,149.5C 468.648,151.108 473.481,151.942 478.5,152C 479.701,152.903 480.535,154.069 481,155.5C 481.17,161.528 481.67,167.528 482.5,173.5C 484.833,173.5 487.167,173.5 489.5,173.5C 490.833,164.5 490.833,155.5 489.5,146.5C 488.575,147.641 487.741,147.641 487,146.5C 486.333,144.833 486.333,143.167 487,141.5C 490.409,140.378 493.909,140.211 497.5,141C 498.488,152.419 498.821,163.919 498.5,175.5 Z"/></g>
<g><path style="opacity:1" fill="#e45d55" d="M 910.5,143.5 C 914.75,146.079 918.417,149.412 921.5,153.5C 921,153.833 920.5,154.167 920,154.5C 918.418,152.971 916.585,152.471 914.5,153C 910.779,156.721 907.113,160.387 903.5,164C 905.746,165.257 907.079,167.09 907.5,169.5C 901.882,168.362 897.216,165.695 893.5,161.5C 894.035,159.084 895.035,158.917 896.5,161C 898.167,161.667 899.833,161.667 901.5,161C 905,157.5 908.5,154 912,150.5C 911.86,148.149 911.36,145.816 910.5,143.5 Z"/></g>
<g><path style="opacity:1" fill="#39678d" d="M 342.5,146.5 C 341.178,146.33 340.011,146.663 339,147.5C 338.5,156.16 338.334,164.827 338.5,173.5C 337.507,164.682 337.173,155.682 337.5,146.5C 334.05,145.756 332.384,147.09 332.5,150.5C 332.5,151.167 332.5,151.833 332.5,152.5C 330.206,159.727 327.539,166.727 324.5,173.5C 324.5,172.167 324.5,170.833 324.5,169.5C 326.957,161.461 329.624,153.461 332.5,145.5C 334.167,145.167 335.833,144.833 337.5,144.5C 339.64,144.556 341.306,145.223 342.5,146.5 Z"/></g>
<g><path style="opacity:1" fill="#94b2c9" d="M 373.5,153.5 C 371.143,153.337 368.81,153.503 366.5,154C 367.416,154.278 368.082,154.778 368.5,155.5C 367.5,155.5 366.5,155.5 365.5,155.5C 365.5,154.5 365.5,153.5 365.5,152.5C 368.385,152.194 371.052,152.527 373.5,153.5 Z"/></g>
<g><path style="opacity:1" fill="#aacce6" d="M 357.5,174.5 C 356.509,167.687 356.175,160.687 356.5,153.5C 354.143,153.337 351.81,153.503 349.5,154C 350.416,154.278 351.082,154.778 351.5,155.5C 350.5,155.5 349.5,155.5 348.5,155.5C 348.5,154.5 348.5,153.5 348.5,152.5C 351.5,152.5 354.5,152.5 357.5,152.5C 357.5,159.833 357.5,167.167 357.5,174.5 Z"/></g>
<g><path style="opacity:1" fill="#648dac" d="M 537.5,153.5 C 535.25,153.181 533.25,153.681 531.5,155C 533.382,155.198 535.048,155.698 536.5,156.5C 533.487,156.107 530.82,156.774 528.5,158.5C 528.5,158.167 528.5,157.833 528.5,157.5C 530.106,152.75 533.106,151.416 537.5,153.5 Z"/></g>
<g><path style="opacity:1" fill="#628db1" d="M 579.5,153.5 C 582.167,152.167 584.833,152.167 587.5,153.5C 587.5,160.167 587.5,166.833 587.5,173.5C 586.509,167.021 586.176,160.354 586.5,153.5C 584.167,153.5 581.833,153.5 579.5,153.5 Z"/></g>
<g><path style="opacity:1" fill="#eaf6fa" d="M 342.5,146.5 C 340.075,154.965 339.909,163.631 342,172.5C 345.201,175.017 348.034,174.517 350.5,171C 349.426,170.261 348.759,169.261 348.5,168C 349.525,163.582 349.525,159.415 348.5,155.5C 349.5,155.5 350.5,155.5 351.5,155.5C 352.653,161.653 352.82,167.986 352,174.5C 350.271,174.974 349.105,175.974 348.5,177.5C 352.298,178.483 356.298,178.817 360.5,178.5C 357.017,179.402 353.35,180.068 349.5,180.5C 346.936,180.38 345.436,179.047 345,176.5C 344.691,177.766 344.191,178.933 343.5,180C 341.167,180.333 338.833,180.667 336.5,181C 339.468,183.178 339.135,184.344 335.5,184.5C 335.5,183.167 335.5,181.833 335.5,180.5C 332.03,181.125 329.196,180.125 327,177.5C 323.522,179.979 320.188,179.646 317,176.5C 316.289,178.367 316.789,179.867 318.5,181C 317.773,182.399 317.273,183.899 317,185.5C 315.716,184.428 315.383,183.095 316,181.5C 312.274,179.646 309.608,180.646 308,184.5C 308.148,183.175 307.982,182.008 307.5,181C 305.343,180.922 303.343,180.755 301.5,180.5C 300.691,178.929 300.357,177.262 300.5,175.5C 302.5,175.167 304.5,174.833 306.5,174.5C 306.5,165.833 306.5,157.167 306.5,148.5C 306.833,148.5 307.167,148.5 307.5,148.5C 308.657,156.99 308.824,165.657 308,174.5C 306.698,175.085 305.531,175.751 304.5,176.5C 303.957,176.56 303.624,176.893 303.5,177.5C 307.107,178.489 310.774,178.823 314.5,178.5C 314.5,177.5 314.5,176.5 314.5,175.5C 313.5,175.5 312.5,175.5 311.5,175.5C 311.5,175.167 311.5,174.833 311.5,174.5C 311.175,166.981 311.508,159.648 312.5,152.5C 315.595,160.368 318.429,168.368 321,176.5C 323.658,177.694 324.824,176.694 324.5,173.5C 327.539,166.727 330.206,159.727 332.5,152.5C 333.492,159.648 333.825,166.981 333.5,174.5C 333.5,175.167 333.167,175.5 332.5,175.5C 330.952,175.821 330.285,176.821 330.5,178.5C 334.702,178.817 338.702,178.483 342.5,177.5C 341.167,176.167 339.833,174.833 338.5,173.5C 338.334,164.827 338.5,156.16 339,147.5C 340.011,146.663 341.178,146.33 342.5,146.5 Z"/></g>
<g><path style="opacity:1" fill="#91bcdd" d="M 333.5,174.5 C 333.825,166.981 333.492,159.648 332.5,152.5C 332.5,151.833 332.5,151.167 332.5,150.5C 333.222,150.082 333.722,149.416 334,148.5C 334.824,157.343 334.657,166.01 333.5,174.5 Z"/></g>
<g><path style="opacity:1" fill="#1b578e" d="M 579.5,153.5 C 581.833,153.5 584.167,153.5 586.5,153.5C 586.176,160.354 586.509,167.021 587.5,173.5C 588.833,174.833 590.167,176.167 591.5,177.5C 587.486,177.666 583.486,177.499 579.5,177C 580.416,176.722 581.082,176.222 581.5,175.5C 582.117,175.389 582.617,175.056 583,174.5C 583.667,168.5 583.667,162.5 583,156.5C 581.271,156.026 580.105,155.026 579.5,153.5 Z"/></g>
<g><path style="opacity:1" fill="#21598e" d="M 314.5,145.5 C 316.756,151.768 318.923,158.101 321,164.5C 321.549,166.76 322.716,168.426 324.5,169.5C 324.5,170.833 324.5,172.167 324.5,173.5C 324.824,176.694 323.658,177.694 321,176.5C 318.429,168.368 315.595,160.368 312.5,152.5C 312.291,151.078 311.791,149.745 311,148.5C 310.176,157.343 310.343,166.01 311.5,174.5C 311.5,174.833 311.5,175.167 311.5,175.5C 311.918,176.222 312.584,176.722 313.5,177C 310.304,177.805 307.304,177.638 304.5,176.5C 305.531,175.751 306.698,175.085 308,174.5C 308.824,165.657 308.657,156.99 307.5,148.5C 307.119,147.069 306.119,146.236 304.5,146C 307.817,145.502 311.15,145.335 314.5,145.5 Z"/></g>
<g><path style="opacity:1" fill="#93bcde" d="M 312.5,152.5 C 311.508,159.648 311.175,166.981 311.5,174.5C 310.343,166.01 310.176,157.343 311,148.5C 311.791,149.745 312.291,151.078 312.5,152.5 Z"/></g>
<g><path style="opacity:1" fill="#1d578a" d="M 357.5,174.5 C 357.5,174.833 357.5,175.167 357.5,175.5C 358.263,176.268 359.263,176.768 360.5,177C 356.514,177.499 352.514,177.666 348.5,177.5C 349.105,175.974 350.271,174.974 352,174.5C 352.82,167.986 352.653,161.653 351.5,155.5C 351.082,154.778 350.416,154.278 349.5,154C 351.81,153.503 354.143,153.337 356.5,153.5C 356.175,160.687 356.509,167.687 357.5,174.5 Z"/></g>
<g><path style="opacity:1" fill="#2d6298" d="M 528.5,157.5 C 528.5,157.833 528.5,158.167 528.5,158.5C 528.5,159.5 528.5,160.5 528.5,161.5C 527.167,169.5 527.167,177.5 528.5,185.5C 528.5,186.167 528.833,186.5 529.5,186.5C 529.918,187.222 530.584,187.722 531.5,188C 527.642,188.81 523.976,188.643 520.5,187.5C 521.209,186.596 522.209,186.263 523.5,186.5C 523.666,176.161 523.5,165.828 523,155.5C 521.795,154.929 520.628,154.262 519.5,153.5C 522.086,152.52 524.753,152.187 527.5,152.5C 527.216,154.415 527.549,156.081 528.5,157.5 Z"/></g>
<g><path style="opacity:1" fill="#e2eff5" d="M 569.5,156.5 C 568.5,155.833 567.5,155.167 566.5,154.5C 564.883,153.028 562.883,152.361 560.5,152.5C 558.955,152.511 557.622,152.844 556.5,153.5C 552.256,156.417 552.59,158.417 557.5,159.5C 557.229,157.62 557.896,156.287 559.5,155.5C 561.167,155.5 562.833,155.5 564.5,155.5C 565.388,158.054 565.721,160.721 565.5,163.5C 562.15,163.335 558.817,163.502 555.5,164C 550.259,168.204 550.259,172.537 555.5,177C 559.295,177.979 562.628,177.146 565.5,174.5C 566.386,175.325 566.719,176.325 566.5,177.5C 568.527,177.662 570.527,177.495 572.5,177C 571.584,176.722 570.918,176.222 570.5,175.5C 571.5,175.5 572.5,175.5 573.5,175.5C 573.5,176.833 573.5,178.167 573.5,179.5C 569.818,179.335 566.152,179.501 562.5,180C 565.028,180.669 565.028,181.502 562.5,182.5C 560.792,180.309 558.792,179.976 556.5,181.5C 551.998,177.777 549.665,172.944 549.5,167C 550.577,164.852 551.91,162.852 553.5,161C 552.491,157.523 552.491,154.023 553.5,150.5C 558.468,151.164 563.468,151.664 568.5,152C 569.5,152.833 570.5,153.667 571.5,154.5C 571.145,155.522 570.478,156.189 569.5,156.5 Z"/></g>
<g><path style="opacity:1" fill="#628daf" d="M 556.5,153.5 C 557.622,152.844 558.955,152.511 560.5,152.5C 562.883,152.361 564.883,153.028 566.5,154.5C 565.508,154.328 564.842,154.662 564.5,155.5C 562.833,155.5 561.167,155.5 559.5,155.5C 560.609,154.71 561.942,154.21 563.5,154C 561.19,153.503 558.857,153.337 556.5,153.5 Z"/></g>
<g><path style="opacity:1" fill="#2e608d" d="M 556.5,153.5 C 558.857,153.337 561.19,153.503 563.5,154C 561.942,154.21 560.609,154.71 559.5,155.5C 557.896,156.287 557.229,157.62 557.5,159.5C 552.59,158.417 552.256,156.417 556.5,153.5 Z"/></g>
<g><path style="opacity:1" fill="#275f98" d="M 373.5,153.5 C 373.5,154.5 373.5,155.5 373.5,156.5C 372.265,163.044 372.265,169.544 373.5,176C 371.934,176.765 370.601,176.598 369.5,175.5C 369.824,168.646 369.491,161.979 368.5,155.5C 368.082,154.778 367.416,154.278 366.5,154C 368.81,153.503 371.143,153.337 373.5,153.5 Z"/></g>
<g><path style="opacity:1" fill="#ecf5f9" d="M 405.5,143.5 C 407.665,143.116 409.332,143.783 410.5,145.5C 408.834,146.992 407.834,148.825 407.5,151C 410.822,154.73 411.155,158.897 408.5,163.5C 409.611,164.611 410.278,165.945 410.5,167.5C 408.827,170.311 409.327,172.644 412,174.5C 412.333,173.833 412.667,173.167 413,172.5C 414.356,173.38 415.856,173.714 417.5,173.5C 417.5,167.833 417.5,162.167 417.5,156.5C 412.537,156.898 411.537,155.231 414.5,151.5C 421.509,150.572 428.509,150.905 435.5,152.5C 441.391,150.517 446.725,151.35 451.5,155C 450.944,155.383 450.611,155.883 450.5,156.5C 452.137,161.774 453.137,167.441 453.5,173.5C 454.167,173.167 454.833,172.833 455.5,172.5C 457.74,174.961 458.073,177.627 456.5,180.5C 452.647,181.939 448.981,181.606 445.5,179.5C 444.669,172.524 444.169,165.524 444,158.5C 442.538,165.658 442.038,172.992 442.5,180.5C 439.956,180.104 437.789,180.771 436,182.5C 434.934,180.901 433.434,179.901 431.5,179.5C 430.786,176.973 430.12,174.473 429.5,172C 430.464,167.934 430.797,163.767 430.5,159.5C 429.07,159.579 427.736,159.246 426.5,158.5C 424.348,163.334 424.014,168.334 425.5,173.5C 427.375,172.164 428.708,172.664 429.5,175C 428.594,176.699 428.261,178.533 428.5,180.5C 420.787,179.98 413.121,179.98 405.5,180.5C 405.762,181.978 405.429,183.311 404.5,184.5C 403.269,183.349 403.269,182.183 404.5,181C 401.854,180.503 399.187,180.336 396.5,180.5C 396.216,178.585 396.549,176.919 397.5,175.5C 397.811,174.522 398.478,173.855 399.5,173.5C 400.495,167.872 400.829,162.206 400.5,156.5C 399.167,156.5 397.833,156.5 396.5,156.5C 395.637,152.838 396.97,150.672 400.5,150C 399.687,148.686 398.687,147.519 397.5,146.5C 399.415,144.929 400.415,142.929 400.5,140.5C 403.285,139.916 404.952,140.916 405.5,143.5 Z"/></g>
<g><path style="opacity:1" fill="#8fb2cb" d="M 406.5,174.5 C 405.509,167.687 405.175,160.687 405.5,153.5C 403.143,153.337 400.81,153.503 398.5,154C 399.416,154.278 400.082,154.778 400.5,155.5C 399.5,155.5 398.5,155.5 397.5,155.5C 397.5,154.5 397.5,153.5 397.5,152.5C 400.5,152.5 403.5,152.5 406.5,152.5C 406.5,159.833 406.5,167.167 406.5,174.5 Z"/></g>
<g><path style="opacity:1" fill="#1f598d" d="M 432.5,153.5 C 433.833,154.5 435.167,155.5 436.5,156.5C 436.833,157.167 437.167,157.833 437.5,158.5C 437.178,164.358 437.511,170.025 438.5,175.5C 438.918,176.222 439.584,176.722 440.5,177C 438.19,177.497 435.857,177.663 433.5,177.5C 433.666,171.158 433.5,164.825 433,158.5C 432.292,157.619 431.458,156.953 430.5,156.5C 429.391,155.71 428.058,155.21 426.5,155C 428.25,153.681 430.25,153.181 432.5,153.5 Z"/></g>
<g><path style="opacity:1" fill="#225c95" d="M 446.5,153.5 C 447.833,154.5 449.167,155.5 450.5,156.5C 451.13,162.934 451.797,169.267 452.5,175.5C 452.918,176.222 453.584,176.722 454.5,177C 452.19,177.497 449.857,177.663 447.5,177.5C 447.666,171.491 447.499,165.491 447,159.5C 446.623,158.058 445.79,157.058 444.5,156.5C 443.391,155.71 442.058,155.21 440.5,155C 442.25,153.681 444.25,153.181 446.5,153.5 Z"/></g>
<g><path style="opacity:1" fill="#21598e" d="M 422.5,153.5 C 422.5,154.5 422.5,155.5 422.5,156.5C 423.5,156.5 424.5,156.5 425.5,156.5C 423.914,159.703 423.247,163.203 423.5,167C 423.502,170.021 423.836,172.854 424.5,175.5C 424.918,176.222 425.584,176.722 426.5,177C 422.833,177.667 419.167,177.667 415.5,177C 416.737,176.768 417.737,176.268 418.5,175.5C 419.624,169.248 419.79,162.915 419,156.5C 418.1,155.23 416.934,154.23 415.5,153.5C 417.973,152.203 420.307,152.203 422.5,153.5 Z"/></g>
<g><path style="opacity:1" fill="#275d92" d="M 406.5,174.5 C 406.5,175.167 406.833,175.5 407.5,175.5C 407.918,176.222 408.584,176.722 409.5,177C 405.514,177.499 401.514,177.666 397.5,177.5C 397.5,176.833 397.5,176.167 397.5,175.5C 398.833,175.5 400.167,175.5 401.5,175.5C 401.824,168.646 401.491,161.979 400.5,155.5C 400.082,154.778 399.416,154.278 398.5,154C 400.81,153.503 403.143,153.337 405.5,153.5C 405.175,160.687 405.509,167.687 406.5,174.5 Z"/></g>
<g><path style="opacity:1" fill="#5e86a8" d="M 446.5,153.5 C 444.25,153.181 442.25,153.681 440.5,155C 442.058,155.21 443.391,155.71 444.5,156.5C 441.812,156.166 439.479,156.832 437.5,158.5C 437.167,157.833 436.833,157.167 436.5,156.5C 437.962,155.542 439.295,154.376 440.5,153C 442.712,152.211 444.712,152.378 446.5,153.5 Z"/></g>
<g><path style="opacity:1" fill="#7098b5" d="M 432.5,153.5 C 430.25,153.181 428.25,153.681 426.5,155C 428.058,155.21 429.391,155.71 430.5,156.5C 428.833,156.5 427.167,156.5 425.5,156.5C 424.5,156.5 423.5,156.5 422.5,156.5C 422.5,155.5 422.5,154.5 422.5,153.5C 423.222,153.918 423.722,154.584 424,155.5C 426.414,152.52 429.248,151.853 432.5,153.5 Z"/></g>
<g><path style="opacity:1" fill="#376491" d="M 405.5,143.5 C 407.268,147.411 405.935,149.078 401.5,148.5C 401.5,146.833 401.5,145.167 401.5,143.5C 402.833,143.5 404.167,143.5 405.5,143.5 Z"/></g>
<g><path style="opacity:1" fill="#225b91" d="M 537.5,153.5 C 539.062,153.733 540.395,154.4 541.5,155.5C 543.987,161.707 544.154,168.041 542,174.5C 538.698,177.712 534.865,178.379 530.5,176.5C 532.5,175.833 534.5,175.167 536.5,174.5C 537.966,173.653 538.8,172.32 539,170.5C 539.667,166.5 539.667,162.5 539,158.5C 538.292,157.619 537.458,156.953 536.5,156.5C 535.048,155.698 533.382,155.198 531.5,155C 533.25,153.681 535.25,153.181 537.5,153.5 Z"/></g>
<g><path style="opacity:1" fill="#d9ebf3" d="M 541.5,155.5 C 542.75,155.577 543.583,156.244 544,157.5C 544.935,159.909 545.435,162.409 545.5,165C 545.045,169.65 544.045,174.15 542.5,178.5C 538.167,178.5 533.833,178.5 529.5,178.5C 529.401,181.237 529.735,183.904 530.5,186.5C 530.167,186.5 529.833,186.5 529.5,186.5C 528.833,186.5 528.5,186.167 528.5,185.5C 528.335,182.15 528.502,178.817 529,175.5C 529.383,176.056 529.883,176.389 530.5,176.5C 534.865,178.379 538.698,177.712 542,174.5C 544.154,168.041 543.987,161.707 541.5,155.5 Z"/></g>
<g><path style="opacity:1" fill="#668ead" d="M 475.5,162.5 C 475.5,163.5 475.5,164.5 475.5,165.5C 473.167,165.5 470.833,165.5 468.5,165.5C 467.001,164.506 465.334,164.506 463.5,165.5C 464.058,164.21 465.058,163.377 466.5,163C 469.482,162.502 472.482,162.335 475.5,162.5 Z"/></g>
<g><path style="opacity:1" fill="#5c8194" d="M 496.5,173.5 C 495.506,163.681 495.173,153.681 495.5,143.5C 493.143,143.337 490.81,143.503 488.5,144C 489.737,144.232 490.737,144.732 491.5,145.5C 490.167,145.5 488.833,145.5 487.5,145.5C 487.5,144.5 487.5,143.5 487.5,142.5C 490.5,142.5 493.5,142.5 496.5,142.5C 496.5,152.833 496.5,163.167 496.5,173.5 Z"/></g>
<g><path style="opacity:1" fill="#e35951" d="M 927.5,154.5 C 928.978,154.238 930.311,154.571 931.5,155.5C 929.374,156.901 927.707,158.734 926.5,161C 927.546,164.051 929.379,166.551 932,168.5C 932.667,169.5 932.667,170.5 932,171.5C 926.802,177.033 921.302,182.2 915.5,187C 910.036,187.372 906.702,184.872 905.5,179.5C 907.978,180.195 909.978,181.695 911.5,184C 912.5,184.667 913.5,184.667 914.5,184C 918.946,179.554 923.446,175.054 928,170.5C 927.805,168.255 926.638,166.422 924.5,165C 923.5,164.333 922.5,164.333 921.5,165C 915.035,172.898 906.702,176.398 896.5,175.5C 896.5,174.5 896.5,173.5 896.5,172.5C 901.901,173.034 906.901,171.867 911.5,169C 914.333,166.833 917.167,164.667 920,162.5C 920.393,160.801 919.893,159.301 918.5,158C 918.833,157.5 919.167,157 919.5,156.5C 922.948,159.355 925.615,158.688 927.5,154.5 Z"/></g>
<g><path style="opacity:1" fill="#19558c" d="M 338.5,173.5 C 339.833,174.833 341.167,176.167 342.5,177.5C 338.818,177.665 335.152,177.499 331.5,177C 332.056,176.617 332.389,176.117 332.5,175.5C 333.167,175.5 333.5,175.167 333.5,174.5C 334.657,166.01 334.824,157.343 334,148.5C 333.722,149.416 333.222,150.082 332.5,150.5C 332.384,147.09 334.05,145.756 337.5,146.5C 337.173,155.682 337.507,164.682 338.5,173.5 Z"/></g>
<g><path style="opacity:1" fill="#0e5798" d="M 233.5,185.5 C 231.519,181.539 229.519,177.539 227.5,173.5C 227.318,170.906 226.318,168.739 224.5,167C 228.152,166.501 231.818,166.335 235.5,166.5C 235.667,184.503 235.5,202.503 235,220.5C 231.591,221.622 228.091,221.789 224.5,221C 225.551,219.615 226.884,218.615 228.5,218C 226.842,217.275 226.342,216.108 227,214.5C 230.624,211.341 232.958,207.341 234,202.5C 234.818,196.651 234.652,190.985 233.5,185.5 Z"/></g>
<g><path style="opacity:1" fill="#1c598f" d="M 236.5,223.5 C 229.646,223.824 222.979,223.491 216.5,222.5C 229.965,213.895 235.632,201.562 233.5,185.5C 234.652,190.985 234.818,196.651 234,202.5C 232.958,207.341 230.624,211.341 227,214.5C 226.342,216.108 226.842,217.275 228.5,218C 226.884,218.615 225.551,219.615 224.5,221C 228.091,221.789 231.591,221.622 235,220.5C 235.5,202.503 235.667,184.503 235.5,166.5C 231.818,166.335 228.152,166.501 224.5,167C 226.318,168.739 227.318,170.906 227.5,173.5C 224.431,170.423 221.097,167.756 217.5,165.5C 223.645,164.51 229.978,164.177 236.5,164.5C 236.5,184.167 236.5,203.833 236.5,223.5 Z"/></g>
<g><path style="opacity:1" fill="#f1f8fa" d="M 536.5,156.5 C 537.458,156.953 538.292,157.619 539,158.5C 539.667,162.5 539.667,166.5 539,170.5C 538.8,172.32 537.966,173.653 536.5,174.5C 534.208,174.756 532.041,174.423 530,173.5C 528.646,169.637 528.146,165.637 528.5,161.5C 528.5,160.5 528.5,159.5 528.5,158.5C 530.82,156.774 533.487,156.107 536.5,156.5 Z"/></g>
<g><path style="opacity:1" fill="#205788" d="M 391.5,176.5 C 389.393,177.468 387.059,177.802 384.5,177.5C 384.666,171.158 384.5,164.825 384,158.5C 379.882,155.408 376.549,156.075 374,160.5C 373.333,165.167 373.333,169.833 374,174.5C 374.383,175.056 374.883,175.389 375.5,175.5C 375.918,176.222 376.584,176.722 377.5,177C 373.833,177.667 370.167,177.667 366.5,177C 367.416,176.722 368.082,176.222 368.5,175.5C 368.833,175.5 369.167,175.5 369.5,175.5C 370.601,176.598 371.934,176.765 373.5,176C 372.265,169.544 372.265,163.044 373.5,156.5C 377.746,152.973 382.246,152.64 387,155.5C 388.251,161.725 388.917,168.058 389,174.5C 389.995,175.066 390.828,175.733 391.5,176.5 Z"/></g>
<g><path style="opacity:1" fill="#2b5f90" d="M 463.5,165.5 C 465.334,164.506 467.001,164.506 468.5,165.5C 465.437,167.46 464.771,170.127 466.5,173.5C 473.475,175.531 476.475,172.864 475.5,165.5C 475.5,164.5 475.5,163.5 475.5,162.5C 476.827,156.326 474.494,154.159 468.5,156C 467.663,157.011 467.33,158.178 467.5,159.5C 466.167,159.5 464.833,159.5 463.5,159.5C 463.178,157.278 463.845,155.444 465.5,154C 469.167,153.333 472.833,153.333 476.5,154C 477.333,154.833 478.167,155.667 479,156.5C 479.333,162.5 479.667,168.5 480,174.5C 483.464,176.127 483.297,177.127 479.5,177.5C 477.42,177.314 475.92,176.314 475,174.5C 472.005,177.265 468.505,178.098 464.5,177C 461.018,173.321 460.685,169.488 463.5,165.5 Z"/></g>
<g><path style="opacity:1" fill="#edf6fa" d="M 621.5,157.5 C 621.891,163.726 625.224,167.226 631.5,168C 634.671,172.143 633.671,174.643 628.5,175.5C 627.5,175.333 626.5,175.167 625.5,175C 622.22,169.119 621.22,169.619 622.5,176.5C 619.203,174.217 615.869,171.884 612.5,169.5C 611.386,170.723 611.219,172.056 612,173.5C 612.893,172.289 613.726,172.289 614.5,173.5C 613.68,175.111 612.346,175.778 610.5,175.5C 610.5,177.167 610.5,178.833 610.5,180.5C 606.226,180.783 602.059,180.783 598,180.5C 596.739,180.759 595.739,181.426 595,182.5C 594.667,180.167 594.333,177.833 594,175.5C 593.727,177.101 593.227,178.601 592.5,180C 589.666,180.045 587.166,180.879 585,182.5C 583.174,180.926 581.007,180.093 578.5,180C 579.056,179.617 579.389,179.117 579.5,178.5C 583.702,178.817 587.702,178.483 591.5,177.5C 590.167,176.167 588.833,174.833 587.5,173.5C 587.5,166.833 587.5,160.167 587.5,153.5C 588.167,160.012 588.833,166.679 589.5,173.5C 591.306,172.141 592.806,172.475 594,174.5C 594.928,172.665 596.094,172.332 597.5,173.5C 598.833,167.833 598.833,162.167 597.5,156.5C 595.538,157.854 594.538,157.187 594.5,154.5C 594.57,153.228 594.903,152.062 595.5,151C 601.846,150.734 608.179,151.067 614.5,152C 616.121,155.709 617.621,159.542 619,163.5C 620.019,161.498 620.852,159.498 621.5,157.5 Z"/></g>
<g><path style="opacity:1" fill="#5e87aa" d="M 613.5,153.5 C 610.99,153.054 608.99,153.72 607.5,155.5C 607.068,156.71 606.401,157.71 605.5,158.5C 604.167,158.5 603.5,157.833 603.5,156.5C 605.564,156.238 606.897,155.071 607.5,153C 609.712,152.211 611.712,152.378 613.5,153.5 Z"/></g>
<g><path style="opacity:1" fill="#2e6294" d="M 613.5,153.5 C 615.676,154.713 616.009,156.38 614.5,158.5C 613.675,159.386 612.675,159.719 611.5,159.5C 611.833,156.5 610.5,155.167 607.5,155.5C 608.99,153.72 610.99,153.054 613.5,153.5 Z"/></g>
<g><path style="opacity:1" fill="#1c5589" d="M 603.5,153.5 C 603.5,154.5 603.5,155.5 603.5,156.5C 603.5,157.833 604.167,158.5 605.5,158.5C 604.433,163.782 604.267,169.115 605,174.5C 606.098,175.967 607.598,176.801 609.5,177C 605.129,177.828 600.795,177.661 596.5,176.5C 597.628,175.738 598.795,175.071 600,174.5C 600.499,168.509 600.666,162.509 600.5,156.5C 600.5,155.5 600.5,154.5 600.5,153.5C 601.5,153.5 602.5,153.5 603.5,153.5 Z"/></g>
<g><path style="opacity:1" fill="#547ca0" d="M 603.5,153.5 C 602.5,153.5 601.5,153.5 600.5,153.5C 600.5,154.5 600.5,155.5 600.5,156.5C 599.292,155.766 597.959,155.433 596.5,155.5C 596.5,154.5 596.5,153.5 596.5,152.5C 599.059,152.198 601.393,152.532 603.5,153.5 Z"/></g>
<g><path style="opacity:1" fill="#e3f2f8" d="M 468.5,165.5 C 470.833,165.5 473.167,165.5 475.5,165.5C 476.475,172.864 473.475,175.531 466.5,173.5C 464.771,170.127 465.437,167.46 468.5,165.5 Z"/></g>
<g><path style="opacity:1" fill="#5c83a4" d="M 528.5,161.5 C 528.146,165.637 528.646,169.637 530,173.5C 532.041,174.423 534.208,174.756 536.5,174.5C 534.5,175.167 532.5,175.833 530.5,176.5C 529.883,176.389 529.383,176.056 529,175.5C 528.502,178.817 528.335,182.15 528.5,185.5C 527.167,177.5 527.167,169.5 528.5,161.5 Z"/></g>
<g><path style="opacity:1" fill="#396a9a" d="M 186.5,180.5 C 183.855,177.783 183.855,174.95 186.5,172C 193.743,170.902 196.243,173.735 194,180.5C 191.293,183.059 188.793,183.059 186.5,180.5 Z"/></g>
<g><path style="opacity:1" fill="#245b8e" d="M 566.5,154.5 C 567.5,155.167 568.5,155.833 569.5,156.5C 569.209,162.923 569.542,169.256 570.5,175.5C 570.918,176.222 571.584,176.722 572.5,177C 570.527,177.495 568.527,177.662 566.5,177.5C 566.719,176.325 566.386,175.325 565.5,174.5C 562.628,177.146 559.295,177.979 555.5,177C 550.259,172.537 550.259,168.204 555.5,164C 558.817,163.502 562.15,163.335 565.5,163.5C 565.721,160.721 565.388,158.054 564.5,155.5C 564.842,154.662 565.508,154.328 566.5,154.5 Z"/></g>
<g><path style="opacity:1" fill="#e0f0f7" d="M 559.5,164.5 C 561.5,164.5 563.5,164.5 565.5,164.5C 567.025,172.179 564.025,175.513 556.5,174.5C 556.336,171.813 556.503,169.146 557,166.5C 557.995,165.934 558.828,165.267 559.5,164.5 Z"/></g>
<g><path style="opacity:1" fill="#346594" d="M 622.5,176.5 C 621.22,169.619 622.22,169.119 625.5,175C 626.5,175.167 627.5,175.333 628.5,175.5C 633.671,174.643 634.671,172.143 631.5,168C 625.224,167.226 621.891,163.726 621.5,157.5C 622.29,156.206 623.29,155.039 624.5,154C 627.833,153.333 631.167,153.333 634.5,154C 637.487,157.208 636.82,159.041 632.5,159.5C 632.67,158.178 632.337,157.011 631.5,156C 629.527,155.505 627.527,155.338 625.5,155.5C 625.5,157.5 625.5,159.5 625.5,161.5C 628.675,163.13 632.009,164.63 635.5,166C 638.569,170.325 637.902,173.992 633.5,177C 629.779,177.678 626.112,177.511 622.5,176.5 Z"/></g>
<g><path style="opacity:1" fill="#0a5799" d="M 186.5,180.5 C 186.5,178.167 186.5,175.833 186.5,173.5C 188.167,173.5 189.833,173.5 191.5,173.5C 191.5,175.833 191.5,178.167 191.5,180.5C 189.833,180.5 188.167,180.5 186.5,180.5 Z"/></g>
<g><path style="opacity:1" fill="#e15a52" d="M 937.5,175.5 C 941.846,175.334 946.179,175.501 950.5,176C 948.406,177.352 946.073,177.852 943.5,177.5C 943.676,181.265 945.676,183.265 949.5,183.5C 950.274,179.556 950.941,179.723 951.5,184C 951.518,186.389 950.851,188.556 949.5,190.5C 946.208,186.377 942.374,182.71 938,179.5C 937.517,178.552 937.351,177.552 937.5,176.5C 937.5,176.167 937.5,175.833 937.5,175.5 Z"/></g>
<g><path style="opacity:1" fill="#8dacbd" d="M 311.5,175.5 C 312.5,175.5 313.5,175.5 314.5,175.5C 314.5,176.5 314.5,177.5 314.5,178.5C 310.774,178.823 307.107,178.489 303.5,177.5C 303.624,176.893 303.957,176.56 304.5,176.5C 307.304,177.638 310.304,177.805 313.5,177C 312.584,176.722 311.918,176.222 311.5,175.5 Z"/></g>
<g><path style="opacity:1" fill="#8eaebe" d="M 332.5,175.5 C 332.389,176.117 332.056,176.617 331.5,177C 335.152,177.499 338.818,177.665 342.5,177.5C 338.702,178.483 334.702,178.817 330.5,178.5C 330.285,176.821 330.952,175.821 332.5,175.5 Z"/></g>
<g><path style="opacity:1" fill="#91b0c2" d="M 357.5,175.5 C 358.833,175.5 360.167,175.5 361.5,175.5C 361.737,176.791 361.404,177.791 360.5,178.5C 356.298,178.817 352.298,178.483 348.5,177.5C 352.514,177.666 356.514,177.499 360.5,177C 359.263,176.768 358.263,176.268 357.5,175.5 Z"/></g>
<g><path style="opacity:1" fill="#94b2c4" d="M 368.5,175.5 C 368.082,176.222 367.416,176.722 366.5,177C 370.167,177.667 373.833,177.667 377.5,177C 376.584,176.722 375.918,176.222 375.5,175.5C 376.5,175.5 377.5,175.5 378.5,175.5C 378.5,176.5 378.5,177.5 378.5,178.5C 374.167,178.5 369.833,178.5 365.5,178.5C 365.5,177.5 365.5,176.5 365.5,175.5C 366.5,175.5 367.5,175.5 368.5,175.5 Z"/></g>
<g><path style="opacity:1" fill="#93b0c0" d="M 391.5,176.5 C 392.043,176.56 392.376,176.893 392.5,177.5C 389.691,178.8 387.024,178.8 384.5,177.5C 387.059,177.802 389.393,177.468 391.5,176.5 Z"/></g>
<g><path style="opacity:1" fill="#8dadbe" d="M 407.5,175.5 C 408.5,175.5 409.5,175.5 410.5,175.5C 410.5,176.5 410.5,177.5 410.5,178.5C 405.968,178.818 401.634,178.485 397.5,177.5C 401.514,177.666 405.514,177.499 409.5,177C 408.584,176.722 407.918,176.222 407.5,175.5 Z"/></g>
<g><path style="opacity:1" fill="#94b1c3" d="M 418.5,175.5 C 417.737,176.268 416.737,176.768 415.5,177C 419.167,177.667 422.833,177.667 426.5,177C 425.584,176.722 424.918,176.222 424.5,175.5C 425.5,175.5 426.5,175.5 427.5,175.5C 427.5,176.5 427.5,177.5 427.5,178.5C 423.167,178.5 418.833,178.5 414.5,178.5C 414.5,177.5 414.5,176.5 414.5,175.5C 415.833,175.5 417.167,175.5 418.5,175.5 Z"/></g>
<g><path style="opacity:1" fill="#95b2c4" d="M 438.5,175.5 C 439.5,175.5 440.5,175.5 441.5,175.5C 441.5,176.5 441.5,177.5 441.5,178.5C 438.615,178.806 435.948,178.473 433.5,177.5C 435.857,177.663 438.19,177.497 440.5,177C 439.584,176.722 438.918,176.222 438.5,175.5 Z"/></g>
<g><path style="opacity:1" fill="#97b6c6" d="M 452.5,175.5 C 453.5,175.5 454.5,175.5 455.5,175.5C 455.5,176.5 455.5,177.5 455.5,178.5C 452.615,178.806 449.948,178.473 447.5,177.5C 449.857,177.663 452.19,177.497 454.5,177C 453.584,176.722 452.918,176.222 452.5,175.5 Z"/></g>
<g><path style="opacity:1" fill="#8fb0c1" d="M 488.5,176.5 C 492.298,177.483 496.298,177.817 500.5,177.5C 500.5,177.833 500.5,178.167 500.5,178.5C 496.116,178.826 491.783,178.492 487.5,177.5C 487.624,176.893 487.957,176.56 488.5,176.5 Z"/></g>
<g><path style="opacity:1" fill="#8daebe" d="M 581.5,175.5 C 581.082,176.222 580.416,176.722 579.5,177C 583.486,177.499 587.486,177.666 591.5,177.5C 587.702,178.483 583.702,178.817 579.5,178.5C 578.596,177.791 578.263,176.791 578.5,175.5C 579.5,175.5 580.5,175.5 581.5,175.5 Z"/></g>
<g><path style="opacity:1" fill="#94b5cf" d="M 529.5,186.5 C 529.833,186.5 530.167,186.5 530.5,186.5C 532.048,186.821 532.715,187.821 532.5,189.5C 528.116,189.826 523.783,189.492 519.5,188.5C 519.624,187.893 519.957,187.56 520.5,187.5C 523.976,188.643 527.642,188.81 531.5,188C 530.584,187.722 529.918,187.222 529.5,186.5 Z"/></g>
<g><path style="opacity:1" fill="#8fb1c9" d="M 194.5,187.5 C 191.287,187.19 188.287,187.523 185.5,188.5C 185.5,197.833 185.5,207.167 185.5,216.5C 185.5,216.833 185.5,217.167 185.5,217.5C 184.506,207.347 184.172,197.014 184.5,186.5C 188.042,186.187 191.375,186.521 194.5,187.5 Z"/></g>
<g><path style="opacity:1" fill="#0d5796" d="M 185.5,188.5 C 188.167,188.5 190.833,188.5 193.5,188.5C 193.5,197.833 193.5,207.167 193.5,216.5C 190.833,216.5 188.167,216.5 185.5,216.5C 185.5,207.167 185.5,197.833 185.5,188.5 Z"/></g>
<g><path style="opacity:1" fill="#2d5d7f" d="M 185.5,188.5 C 188.287,187.523 191.287,187.19 194.5,187.5C 194.5,197.5 194.5,207.5 194.5,217.5C 191.5,217.5 188.5,217.5 185.5,217.5C 185.5,217.167 185.5,216.833 185.5,216.5C 188.167,216.5 190.833,216.5 193.5,216.5C 193.5,207.167 193.5,197.833 193.5,188.5C 190.833,188.5 188.167,188.5 185.5,188.5 Z"/></g>
<g><path style="opacity:1" fill="#e15b53" d="M 961.5,203.5 C 959.863,204.218 958.197,204.384 956.5,204C 952.344,201.876 949.844,198.71 949,194.5C 951.04,192.63 952.873,190.63 954.5,188.5C 955.708,185.956 957.708,184.622 960.5,184.5C 960.415,186.929 959.415,188.929 957.5,190.5C 960.719,191.939 963.719,193.606 966.5,195.5C 962.415,196.523 958.582,195.857 955,193.5C 951.708,195.95 951.875,198.45 955.5,201C 957.809,201.756 959.809,201.256 961.5,199.5C 962.782,200.958 962.782,202.292 961.5,203.5 Z"/></g>
<g><path style="opacity:1" fill="#175893" d="M 159.5,166.5 C 144.785,177.347 140.952,191.347 148,208.5C 152.003,213.669 156.503,218.336 161.5,222.5C 155.021,223.491 148.354,223.824 141.5,223.5C 141.5,203.833 141.5,184.167 141.5,164.5C 147.842,164.334 154.175,164.5 160.5,165C 159.944,165.383 159.611,165.883 159.5,166.5 Z"/></g>
<g><path style="opacity:1" fill="#b2d0e4" d="M 159.5,166.5 C 159.611,165.883 159.944,165.383 160.5,165C 154.175,164.5 147.842,164.334 141.5,164.5C 141.5,184.167 141.5,203.833 141.5,223.5C 140.503,203.674 140.17,183.674 140.5,163.5C 148.196,163.169 155.862,163.503 163.5,164.5C 162.423,165.705 161.09,166.372 159.5,166.5 Z"/></g>
<g><path style="opacity:1" fill="#185892" d="M 324.5,212.5 C 324.5,213.833 324.5,215.167 324.5,216.5C 322.167,216.5 319.833,216.5 317.5,216.5C 317.263,217.791 317.596,218.791 318.5,219.5C 320.122,222.455 322.122,225.122 324.5,227.5C 326.268,231.292 325.268,232.626 321.5,231.5C 320.833,230.5 320.167,229.5 319.5,228.5C 319.44,227.957 319.107,227.624 318.5,227.5C 317.502,235.807 317.169,244.14 317.5,252.5C 316.167,252.5 314.833,252.5 313.5,252.5C 313.666,244.826 313.5,237.159 313,229.5C 311.961,230.244 311.461,231.244 311.5,232.5C 310.498,235.174 308.998,237.508 307,239.5C 305.268,239.266 304.434,238.266 304.5,236.5C 307.943,230.508 310.609,224.175 312.5,217.5C 310.735,216.539 308.735,216.205 306.5,216.5C 306.5,215.167 306.5,213.833 306.5,212.5C 308.833,212.5 311.167,212.5 313.5,212.5C 313.5,209.167 313.5,205.833 313.5,202.5C 314.833,202.5 316.167,202.5 317.5,202.5C 317.5,205.833 317.5,209.167 317.5,212.5C 319.833,212.5 322.167,212.5 324.5,212.5 Z"/></g>
<g><path style="opacity:1" fill="#e15b53" d="M 935.5,181.5 C 939.613,183.778 942.946,186.945 945.5,191C 941.009,196.324 936.342,201.491 931.5,206.5C 928.243,206.236 926.243,204.57 925.5,201.5C 933.434,202.886 934.434,200.72 928.5,195C 927.5,194.333 926.5,194.333 925.5,195C 924.047,197.705 922.047,198.539 919.5,197.5C 924.521,191.812 929.854,186.479 935.5,181.5 Z"/></g>
<g><path style="opacity:1" fill="#feb6b5" d="M 930.5,189.5 C 934.274,190.938 936.607,193.605 937.5,197.5C 934.386,196.909 931.886,195.242 930,192.5C 929.53,191.423 929.697,190.423 930.5,189.5 Z"/></g>
<g><path style="opacity:1" fill="#febbba" d="M 934.5,185.5 C 938.5,186.167 940.833,188.5 941.5,192.5C 937.5,191.833 935.167,189.5 934.5,185.5 Z"/></g>
<g><path style="opacity:1" fill="#fcb9b9" d="M 954.5,188.5 C 952.873,190.63 951.04,192.63 949,194.5C 949.844,198.71 952.344,201.876 956.5,204C 958.197,204.384 959.863,204.218 961.5,203.5C 960.393,205.969 958.393,206.969 955.5,206.5C 955.99,208.948 955.157,210.615 953,211.5C 950.28,210.767 947.78,209.767 945.5,208.5C 948.244,209.205 950.911,209.205 953.5,208.5C 950.72,207.027 947.887,205.693 945,204.5C 945.937,202.326 946.771,199.993 947.5,197.5C 946.448,197.351 945.448,197.517 944.5,198C 942.553,201.07 940.053,203.57 937,205.5C 935.441,207.217 934.608,209.217 934.5,211.5C 933.199,210.116 933.199,208.616 934.5,207C 933.552,206.517 932.552,206.351 931.5,206.5C 936.342,201.491 941.009,196.324 945.5,191C 942.946,186.945 939.613,183.778 935.5,181.5C 935.796,179.597 936.463,177.93 937.5,176.5C 937.351,177.552 937.517,178.552 938,179.5C 942.374,182.71 946.208,186.377 949.5,190.5C 950.851,188.556 951.518,186.389 951.5,184C 950.941,179.723 950.274,179.556 949.5,183.5C 945.676,183.265 943.676,181.265 943.5,177.5C 946.073,177.852 948.406,177.352 950.5,176C 946.179,175.501 941.846,175.334 937.5,175.5C 942.29,174.275 947.29,173.608 952.5,173.5C 951.892,178.944 952.558,183.944 954.5,188.5 Z"/></g>
<g><path style="opacity:1" fill="#7a9bb4" d="M 501.5,205.5 C 502.043,205.56 502.376,205.893 502.5,206.5C 495.866,207.497 489.2,207.83 482.5,207.5C 488.833,206.833 495.167,206.167 501.5,205.5 Z"/></g>
<g><path style="opacity:1" fill="#7396b2" d="M 507.5,206.5 C 513.833,206.5 520.167,206.5 526.5,206.5C 526.5,208.167 526.5,209.833 526.5,211.5C 522.958,211.187 519.625,211.521 516.5,212.5C 515.957,212.44 515.624,212.107 515.5,211.5C 518.768,210.513 522.102,210.18 525.5,210.5C 525.5,209.5 525.5,208.5 525.5,207.5C 519.31,207.823 513.31,207.49 507.5,206.5 Z"/></g>
<g><path style="opacity:1" fill="#b4cde0" d="M 573.5,201.5 C 573.5,203.167 573.5,204.833 573.5,206.5C 578.032,206.182 582.366,206.515 586.5,207.5C 582.167,207.5 577.833,207.5 573.5,207.5C 572.549,206.081 572.216,204.415 572.5,202.5C 571.5,202.5 570.5,202.5 569.5,202.5C 569.5,204.167 569.5,205.833 569.5,207.5C 565.167,207.5 560.833,207.5 556.5,207.5C 560.298,206.517 564.298,206.183 568.5,206.5C 568.5,204.833 568.5,203.167 568.5,201.5C 570.167,201.5 571.833,201.5 573.5,201.5 Z"/></g>
<g><path style="opacity:1" fill="#e25850" d="M 945.5,208.5 C 943.393,207.532 941.059,207.198 938.5,207.5C 939.455,214.823 943.122,216.823 949.5,213.5C 948.615,217.784 945.949,219.284 941.5,218C 939.297,215.628 936.963,213.461 934.5,211.5C 934.608,209.217 935.441,207.217 937,205.5C 940.053,203.57 942.553,201.07 944.5,198C 945.448,197.517 946.448,197.351 947.5,197.5C 946.771,199.993 945.937,202.326 945,204.5C 947.887,205.693 950.72,207.027 953.5,208.5C 950.911,209.205 948.244,209.205 945.5,208.5 Z"/></g>
<g><path style="opacity:1" fill="#ebf5f9" d="M 463.5,220.5 C 465.167,220.5 466.833,220.5 468.5,220.5C 468.5,216.167 468.5,211.833 468.5,207.5C 462.132,207.83 455.798,207.496 449.5,206.5C 448.864,204.205 447.531,202.539 445.5,201.5C 444,201.453 443,202.119 442.5,203.5C 443.246,204.736 443.579,206.07 443.5,207.5C 436.833,207.5 430.167,207.5 423.5,207.5C 423.5,211.833 423.5,216.167 423.5,220.5C 425.167,220.5 426.833,220.5 428.5,220.5C 428.5,217.833 428.5,215.167 428.5,212.5C 440.167,212.5 451.833,212.5 463.5,212.5C 463.5,214.833 463.5,217.167 463.5,219.5C 462.833,220.833 462.167,222.167 461.5,223.5C 461.5,221.833 461.5,220.167 461.5,218.5C 451.167,218.5 440.833,218.5 430.5,218.5C 430.5,219.833 430.5,221.167 430.5,222.5C 437.5,223.167 444.5,223.833 451.5,224.5C 449.193,225.653 446.86,226.82 444.5,228C 443.62,229.356 443.286,230.856 443.5,232.5C 436.167,232.5 428.833,232.5 421.5,232.5C 421.5,233.833 421.5,235.167 421.5,236.5C 428.833,236.5 436.167,236.5 443.5,236.5C 443.815,240.371 443.482,244.038 442.5,247.5C 439.833,247.5 437.167,247.5 434.5,247.5C 434.263,248.791 434.596,249.791 435.5,250.5C 439.116,252.842 443.116,253.175 447.5,251.5C 447.423,252.75 446.756,253.583 445.5,254C 441.789,254.825 438.122,254.659 434.5,253.5C 433.412,249.614 432.579,249.614 432,253.5C 431.925,249.725 431.925,246.058 432,242.5C 432.605,244.481 433.605,244.815 435,243.5C 437.135,245.278 439.635,245.945 442.5,245.5C 442.5,243.167 442.5,240.833 442.5,238.5C 435.288,238.219 428.122,238.552 421,239.5C 420.5,239.167 420,238.833 419.5,238.5C 420.724,236.161 420.724,233.828 419.5,231.5C 418.833,233.833 418.167,236.167 417.5,238.5C 416.909,235.36 416.076,232.36 415,229.5C 413.653,233.375 412.486,233.375 411.5,229.5C 410.833,231.167 410.167,232.833 409.5,234.5C 407.325,229.637 406.325,230.303 406.5,236.5C 410.57,236.363 412.404,238.03 412,241.5C 412.333,241.167 412.667,240.833 413,240.5C 414.11,242.243 415.61,243.576 417.5,244.5C 418.938,247.083 418.604,249.417 416.5,251.5C 414.52,251.303 412.52,251.97 410.5,253.5C 407.167,252.833 405.833,250.833 406.5,247.5C 407.885,248.574 409.051,249.907 410,251.5C 411.487,250.845 412.653,249.845 413.5,248.5C 410.912,244.324 408.079,240.324 405,236.5C 405.293,231.182 405.793,225.849 406.5,220.5C 407.489,215.025 407.822,209.358 407.5,203.5C 405.833,203.5 404.167,203.5 402.5,203.5C 402.5,207.5 402.5,211.5 402.5,215.5C 403.728,230.043 398.228,241.043 386,248.5C 385.36,251.368 386.527,253.035 389.5,253.5C 387.691,254.291 385.691,254.291 383.5,253.5C 382.592,251.109 382.426,248.776 383,246.5C 380.709,247.311 378.875,246.477 377.5,244C 378.653,233.243 378.82,222.41 378,211.5C 376.684,225.346 376.017,239.346 376,253.5C 375.667,254.167 375.333,254.833 375,255.5C 373.052,254.891 371.218,254.224 369.5,253.5C 371.167,253.5 372.833,253.5 374.5,253.5C 374.5,241.167 374.5,228.833 374.5,216.5C 375.022,211.933 376.355,207.6 378.5,203.5C 376.647,202.24 374.814,202.24 373,203.5C 370.251,212.332 366.417,220.666 361.5,228.5C 363.281,230.546 365.281,230.88 367.5,229.5C 367.586,230.496 367.252,231.329 366.5,232C 364.324,232.163 362.491,232.996 361,234.5C 360.355,233.354 359.522,232.354 358.5,231.5C 359.167,230.167 359.833,228.833 360.5,227.5C 359.609,226.41 358.609,226.41 357.5,227.5C 356.808,226.975 356.308,226.308 356,225.5C 355.135,234.164 354.302,242.998 353.5,252C 344.324,252.824 335.324,252.657 326.5,251.5C 335.167,251.5 343.833,251.5 352.5,251.5C 352.5,235.833 352.5,220.167 352.5,204.5C 353.868,206.564 354.868,208.898 355.5,211.5C 358.361,209.02 361.694,208.02 365.5,208.5C 365.351,207.448 365.517,206.448 366,205.5C 367.016,206.634 367.683,206.301 368,204.5C 369.052,209.405 370.219,209.071 371.5,203.5C 371.167,202.833 370.833,202.167 370.5,201.5C 371.667,201.167 372.833,200.833 374,200.5C 377.077,201.464 380.077,201.464 383,200.5C 383.311,201.742 382.811,202.742 381.5,203.5C 382.333,203.833 383.167,204.167 384,204.5C 384.893,203.057 386.559,202.057 389,201.5C 390.681,201.608 391.848,202.275 392.5,203.5C 394.201,203.966 395.701,203.966 397,203.5C 397.374,204.416 397.874,205.25 398.5,206C 396.729,206.535 396.396,207.369 397.5,208.5C 399.05,206.667 400.05,204.501 400.5,202C 403.554,201.179 406.554,201.345 409.5,202.5C 408.199,210.139 408.199,217.805 409.5,225.5C 410.331,218.189 410.831,210.856 411,203.5C 412.127,209.356 412.96,215.356 413.5,221.5C 414.329,216.198 414.829,210.864 415,205.5C 416.42,208.647 416.587,211.813 415.5,215C 415.954,217.036 416.787,218.87 418,220.5C 418.333,216.5 418.667,212.5 419,208.5C 421.397,205.76 424.397,204.427 428,204.5C 432.157,205.292 436.323,205.458 440.5,205C 441.903,200.382 445.07,198.215 450,198.5C 450.692,199.025 451.192,199.692 451.5,200.5C 450.48,202.432 450.313,204.432 451,206.5C 455.933,205.987 461.099,205.32 466.5,204.5C 468.856,204.69 470.523,205.857 471.5,208C 470.753,212.461 470.253,216.961 470,221.5C 467.36,223.1 465.193,222.766 463.5,220.5 Z"/></g>
<g><path style="opacity:1" fill="#2b6197" d="M 463.5,220.5 C 463.5,220.167 463.5,219.833 463.5,219.5C 463.5,217.167 463.5,214.833 463.5,212.5C 451.833,212.5 440.167,212.5 428.5,212.5C 428.5,215.167 428.5,217.833 428.5,220.5C 426.833,220.5 425.167,220.5 423.5,220.5C 423.5,216.167 423.5,211.833 423.5,207.5C 430.167,207.5 436.833,207.5 443.5,207.5C 443.579,206.07 443.246,204.736 442.5,203.5C 443,202.119 444,201.453 445.5,201.5C 447.531,202.539 448.864,204.205 449.5,206.5C 455.798,207.496 462.132,207.83 468.5,207.5C 468.5,211.833 468.5,216.167 468.5,220.5C 466.833,220.5 465.167,220.5 463.5,220.5 Z"/></g>
<g><path style="opacity:1" fill="#5f8fb9" d="M 573.5,207.5 C 577.833,207.5 582.167,207.5 586.5,207.5C 587.833,208.833 587.833,210.167 586.5,211.5C 586.5,210.5 586.5,209.5 586.5,208.5C 581.968,208.818 577.634,208.485 573.5,207.5 Z"/></g>
<g><path style="opacity:1" fill="#225d97" d="M 507.5,206.5 C 513.31,207.49 519.31,207.823 525.5,207.5C 525.5,208.5 525.5,209.5 525.5,210.5C 522.102,210.18 518.768,210.513 515.5,211.5C 515.624,212.107 515.957,212.44 516.5,212.5C 517.376,212.369 518.043,212.702 518.5,213.5C 517.82,214.86 517.153,216.193 516.5,217.5C 515.957,217.56 515.624,217.893 515.5,218.5C 519.783,219.492 524.116,219.826 528.5,219.5C 528.5,220.833 528.5,222.167 528.5,223.5C 512.5,223.5 496.5,223.5 480.5,223.5C 480.5,222.167 480.5,220.833 480.5,219.5C 485.032,219.818 489.366,219.485 493.5,218.5C 492.952,216.606 491.952,214.94 490.5,213.5C 490.709,212.914 491.043,212.414 491.5,212C 488.518,211.502 485.518,211.335 482.5,211.5C 482.5,210.167 482.5,208.833 482.5,207.5C 489.2,207.83 495.866,207.497 502.5,206.5C 502.376,205.893 502.043,205.56 501.5,205.5C 501.5,204.167 501.5,202.833 501.5,201.5C 503.167,201.5 504.833,201.5 506.5,201.5C 506.629,203.216 506.962,204.883 507.5,206.5 Z"/></g>
<g><path style="opacity:1" fill="#eaf4f9" d="M 573.5,201.5 C 574.434,202.568 574.768,203.901 574.5,205.5C 579.167,205.5 583.833,205.5 588.5,205.5C 588.148,208.073 588.648,210.406 590,212.5C 590.837,206.163 591.503,206.497 592,213.5C 592.5,213 593,212.5 593.5,212C 592.077,209.38 592.243,206.88 594,204.5C 594.17,206.715 594.837,208.715 596,210.5C 596.001,207.313 596.834,204.48 598.5,202C 613.076,202.887 627.742,203.387 642.5,203.5C 642.825,211.019 642.492,218.352 641.5,225.5C 641.5,218.5 641.5,211.5 641.5,204.5C 634.833,204.5 628.167,204.5 621.5,204.5C 621.5,205.833 621.5,207.167 621.5,208.5C 624.487,208.422 625.153,209.589 623.5,212C 626.214,213.867 627.881,216.367 628.5,219.5C 626.139,219.674 623.806,220.007 621.5,220.5C 621.5,221.5 621.5,222.5 621.5,223.5C 619.851,217.399 618.851,211.065 618.5,204.5C 611.5,204.5 604.5,204.5 597.5,204.5C 597.5,206.167 597.5,207.833 597.5,209.5C 599.099,209.232 600.432,209.566 601.5,210.5C 600.475,210.897 600.308,211.563 601,212.5C 602.707,214.037 604.207,215.704 605.5,217.5C 605.5,218.167 605.5,218.833 605.5,219.5C 603.11,219.913 600.777,220.579 598.5,221.5C 597.754,222.736 597.421,224.07 597.5,225.5C 599.806,225.007 602.139,224.674 604.5,224.5C 606.967,224.245 608.967,223.245 610.5,221.5C 611.5,221.5 612.5,221.5 613.5,221.5C 613.5,222.5 613.5,223.5 613.5,224.5C 615.179,224.285 616.179,224.952 616.5,226.5C 612.627,228.43 608.294,229.097 603.5,228.5C 603.5,236.167 603.5,243.833 603.5,251.5C 601.61,251.703 600.11,251.037 599,249.5C 598.414,242.596 598.58,235.929 599.5,229.5C 597.143,228.597 595.643,226.93 595,224.5C 594.834,228.511 594,229.011 592.5,226C 592.957,225.586 593.291,225.086 593.5,224.5C 591.829,221.673 589.996,219.006 588,216.5C 586.708,222.662 586.041,228.996 586,235.5C 583.37,235.859 581.203,236.859 579.5,238.5C 578.662,238.158 578.328,237.492 578.5,236.5C 580.5,235.833 582.5,235.167 584.5,234.5C 585.49,228.355 585.823,222.022 585.5,215.5C 581.5,215.5 577.5,215.5 573.5,215.5C 573.5,214.5 573.5,213.5 573.5,212.5C 578.032,212.818 582.366,212.485 586.5,211.5C 587.833,210.167 587.833,208.833 586.5,207.5C 582.366,206.515 578.032,206.182 573.5,206.5C 573.5,204.833 573.5,203.167 573.5,201.5 Z"/></g>
<g><path style="opacity:1" fill="#2e6392" d="M 641.5,225.5 C 639.585,225.784 637.919,225.451 636.5,224.5C 637.833,224.5 639.167,224.5 640.5,224.5C 640.5,218.5 640.5,212.5 640.5,206.5C 634.491,206.334 628.491,206.501 622.5,207C 627.823,207.499 633.156,207.666 638.5,207.5C 638.664,210.187 638.497,212.854 638,215.5C 636.951,217.107 635.451,217.773 633.5,217.5C 635.856,215.443 636.856,212.776 636.5,209.5C 633.313,208.194 629.98,208.194 626.5,209.5C 626.624,210.107 626.957,210.44 627.5,210.5C 628.81,212.148 630.143,213.814 631.5,215.5C 630.019,216.944 630.352,217.611 632.5,217.5C 631.486,218.674 630.153,219.34 628.5,219.5C 627.881,216.367 626.214,213.867 623.5,212C 625.153,209.589 624.487,208.422 621.5,208.5C 621.5,207.167 621.5,205.833 621.5,204.5C 628.167,204.5 634.833,204.5 641.5,204.5C 641.5,211.5 641.5,218.5 641.5,225.5 Z"/></g>
<g><path style="opacity:1" fill="#91bad7" d="M 636.5,209.5 C 633.287,209.19 630.287,209.523 627.5,210.5C 626.957,210.44 626.624,210.107 626.5,209.5C 629.98,208.194 633.313,208.194 636.5,209.5 Z"/></g>
<g><path style="opacity:1" fill="#5f8aae" d="M 618.5,204.5 C 618.5,204.833 618.5,205.167 618.5,205.5C 611.833,205.5 605.167,205.5 598.5,205.5C 598.5,206.5 598.5,207.5 598.5,208.5C 599.978,208.238 601.311,208.571 602.5,209.5C 602.376,210.107 602.043,210.44 601.5,210.5C 600.432,209.566 599.099,209.232 597.5,209.5C 597.5,207.833 597.5,206.167 597.5,204.5C 604.5,204.5 611.5,204.5 618.5,204.5 Z"/></g>
<g><path style="opacity:1" fill="#da5e58" d="M 963.5,208.5 C 968.419,211.748 972.753,215.748 976.5,220.5C 975.998,221.521 975.332,221.688 974.5,221C 970.184,217.198 966.517,213.031 963.5,208.5 Z"/></g>
<g><path style="opacity:1" fill="#8db1cb" d="M 324.5,212.5 C 322.167,212.5 319.833,212.5 317.5,212.5C 317.5,209.167 317.5,205.833 317.5,202.5C 316.167,202.5 314.833,202.5 313.5,202.5C 313.5,205.833 313.5,209.167 313.5,212.5C 311.167,212.5 308.833,212.5 306.5,212.5C 306.5,213.833 306.5,215.167 306.5,216.5C 308.735,216.205 310.735,216.539 312.5,217.5C 310.167,217.5 307.833,217.5 305.5,217.5C 305.5,215.5 305.5,213.5 305.5,211.5C 307.833,211.5 310.167,211.5 312.5,211.5C 312.5,208.167 312.5,204.833 312.5,201.5C 314.5,201.5 316.5,201.5 318.5,201.5C 318.5,204.833 318.5,208.167 318.5,211.5C 320.735,211.205 322.735,211.539 324.5,212.5 Z"/></g>
<g><path style="opacity:1" fill="#225b91" d="M 392.5,203.5 C 394.742,206.979 396.742,210.646 398.5,214.5C 397.672,215.415 396.672,216.081 395.5,216.5C 391.895,212.884 389.562,208.551 388.5,203.5C 389.833,203.5 391.167,203.5 392.5,203.5 Z"/></g>
<g><path style="opacity:1" fill="#81abcc" d="M 236.5,223.5 C 236.5,203.833 236.5,184.167 236.5,164.5C 229.978,164.177 223.645,164.51 217.5,165.5C 216.624,165.631 215.957,165.298 215.5,164.5C 222.803,163.503 230.137,163.169 237.5,163.5C 237.83,183.674 237.497,203.674 236.5,223.5 Z"/></g>
<g><path style="opacity:1" fill="#185893" d="M 374.5,216.5 C 373.505,228.322 373.172,240.322 373.5,252.5C 372.167,252.5 370.833,252.5 369.5,252.5C 369.666,243.494 369.5,234.494 369,225.5C 368.209,226.745 367.709,228.078 367.5,229.5C 365.281,230.88 363.281,230.546 361.5,228.5C 366.417,220.666 370.251,212.332 373,203.5C 374.814,202.24 376.647,202.24 378.5,203.5C 376.355,207.6 375.022,211.933 374.5,216.5 Z"/></g>
<g><path style="opacity:1" fill="#e7f3f9" d="M 509.5,218.5 C 505.629,218.815 501.962,218.482 498.5,217.5C 498.278,215.393 497.278,213.726 495.5,212.5C 501.5,211.167 507.5,211.167 513.5,212.5C 512.156,214.529 510.823,216.529 509.5,218.5 Z"/></g>
<g><path style="opacity:1" fill="#26587a" d="M 380.5,207.5 C 380.833,207.5 381.167,207.5 381.5,207.5C 380.855,219.548 381.522,231.215 383.5,242.5C 381.788,244.764 380.455,244.264 379.5,241C 380.468,229.872 380.801,218.706 380.5,207.5 Z"/></g>
<g><path style="opacity:1" fill="#4f7b9f" d="M 406.5,220.5 C 406.5,215.167 406.5,209.833 406.5,204.5C 405.5,204.5 404.5,204.5 403.5,204.5C 403.815,208.371 403.482,212.038 402.5,215.5C 402.5,211.5 402.5,207.5 402.5,203.5C 404.167,203.5 405.833,203.5 407.5,203.5C 407.822,209.358 407.489,215.025 406.5,220.5 Z"/></g>
<g><path style="opacity:1" fill="#ebf8fb" d="M 636.5,209.5 C 636.856,212.776 635.856,215.443 633.5,217.5C 633.167,217.5 632.833,217.5 632.5,217.5C 630.352,217.611 630.019,216.944 631.5,215.5C 630.143,213.814 628.81,212.148 627.5,210.5C 630.287,209.523 633.287,209.19 636.5,209.5 Z"/></g>
<g><path style="opacity:1" fill="#4f7da3" d="M 380.5,207.5 C 381.919,206.549 383.585,206.216 385.5,206.5C 385.5,216.167 385.5,225.833 385.5,235.5C 384.506,226.348 384.173,217.015 384.5,207.5C 383.5,207.5 382.5,207.5 381.5,207.5C 381.167,207.5 380.833,207.5 380.5,207.5 Z"/></g>
<g><path style="opacity:1" fill="#9ec4e4" d="M 618.5,204.5 C 618.851,211.065 619.851,217.399 621.5,223.5C 622.167,223.5 622.5,223.833 622.5,224.5C 620.901,224.768 619.568,224.434 618.5,223.5C 618.5,217.5 618.5,211.5 618.5,205.5C 618.5,205.167 618.5,204.833 618.5,204.5 Z"/></g>
<g><path style="opacity:1" fill="#195895" d="M 381.5,207.5 C 382.5,207.5 383.5,207.5 384.5,207.5C 384.173,217.015 384.506,226.348 385.5,235.5C 388.147,233.189 390.814,230.856 393.5,228.5C 395.046,229.212 396.046,230.378 396.5,232C 392.871,236.471 388.538,239.971 383.5,242.5C 381.522,231.215 380.855,219.548 381.5,207.5 Z"/></g>
<g><path style="opacity:1" fill="#9bbfda" d="M 586.5,211.5 C 582.366,212.485 578.032,212.818 573.5,212.5C 573.5,213.5 573.5,214.5 573.5,215.5C 577.5,215.5 581.5,215.5 585.5,215.5C 585.823,222.022 585.49,228.355 584.5,234.5C 584.5,228.5 584.5,222.5 584.5,216.5C 580.5,216.5 576.5,216.5 572.5,216.5C 572.5,214.833 572.5,213.167 572.5,211.5C 577.167,211.5 581.833,211.5 586.5,211.5 Z"/></g>
<g><path style="opacity:1" fill="#96bcd9" d="M 324.5,216.5 C 322.156,216.94 320.156,217.94 318.5,219.5C 317.596,218.791 317.263,217.791 317.5,216.5C 319.833,216.5 322.167,216.5 324.5,216.5 Z"/></g>
<g><path style="opacity:1" fill="#396c95" d="M 461.5,223.5 C 461.167,223.5 460.833,223.5 460.5,223.5C 460.5,222.167 460.5,220.833 460.5,219.5C 450.833,219.5 441.167,219.5 431.5,219.5C 431.5,220.5 431.5,221.5 431.5,222.5C 431.167,222.5 430.833,222.5 430.5,222.5C 430.5,221.167 430.5,219.833 430.5,218.5C 440.833,218.5 451.167,218.5 461.5,218.5C 461.5,220.167 461.5,221.833 461.5,223.5 Z"/></g>
<g><path style="opacity:1" fill="#7da6c2" d="M 493.5,218.5 C 489.366,219.485 485.032,219.818 480.5,219.5C 480.5,220.833 480.5,222.167 480.5,223.5C 479.549,222.081 479.216,220.415 479.5,218.5C 484.167,218.5 488.833,218.5 493.5,218.5 Z"/></g>
<g><path style="opacity:1" fill="#7ca6c3" d="M 498.5,217.5 C 501.962,218.482 505.629,218.815 509.5,218.5C 505.317,219.811 500.984,219.811 496.5,218.5C 496.957,217.702 497.624,217.369 498.5,217.5 Z"/></g>
<g><path style="opacity:1" fill="#7fa7c2" d="M 516.5,217.5 C 520.5,218.167 524.5,218.833 528.5,219.5C 524.116,219.826 519.783,219.492 515.5,218.5C 515.624,217.893 515.957,217.56 516.5,217.5 Z"/></g>
<g><path style="opacity:1" fill="#8fb9d6" d="M 608.5,214.5 C 609.467,215.806 610.801,216.473 612.5,216.5C 610.321,217.677 607.987,218.677 605.5,219.5C 605.5,218.833 605.5,218.167 605.5,217.5C 607.5,217.5 608.5,216.5 608.5,214.5 Z"/></g>
<g><path style="opacity:1" fill="#dd615c" d="M 957.5,214.5 C 958.922,214.709 960.255,215.209 961.5,216C 964.36,218.86 967.194,221.694 970,224.5C 970.749,225.635 970.583,226.635 969.5,227.5C 964.748,223.753 960.748,219.419 957.5,214.5 Z"/></g>
<g><path style="opacity:1" fill="#185890" d="M 326.5,205.5 C 334.833,205.5 343.167,205.5 351.5,205.5C 351.5,220.5 351.5,235.5 351.5,250.5C 343.167,250.5 334.833,250.5 326.5,250.5C 326.5,235.5 326.5,220.5 326.5,205.5 Z"/></g>
<g><path style="opacity:1" fill="#105796" d="M 347.5,210.5 C 342.36,209.512 337.026,209.179 331.5,209.5C 330.518,212.962 330.185,216.629 330.5,220.5C 332.199,220.34 333.866,220.506 335.5,221C 333.563,221.122 332.23,221.955 331.5,223.5C 331.5,226.5 331.5,229.5 331.5,232.5C 336.907,234.326 336.574,235.326 330.5,235.5C 330.185,239.371 330.518,243.038 331.5,246.5C 336.975,247.489 342.642,247.822 348.5,247.5C 348.334,243.486 348.501,239.486 349,235.5C 350.818,239.701 350.985,244.034 349.5,248.5C 342.532,249.497 335.532,249.83 328.5,249.5C 328.5,235.167 328.5,220.833 328.5,206.5C 335.175,206.334 341.842,206.5 348.5,207C 350.995,210.985 351.161,215.152 349,219.5C 348.819,216.305 348.319,213.305 347.5,210.5 Z"/></g>
<g><path style="opacity:1" fill="#deebf2" d="M 331.5,209.5 C 337.026,209.179 342.36,209.512 347.5,210.5C 347.5,213.5 347.5,216.5 347.5,219.5C 342.167,219.5 336.833,219.5 331.5,219.5C 331.5,216.167 331.5,212.833 331.5,209.5 Z"/></g>
<g><path style="opacity:1" fill="#1d588f" d="M 618.5,205.5 C 618.5,211.5 618.5,217.5 618.5,223.5C 617.167,223.5 615.833,223.5 614.5,223.5C 614.5,222.5 614.5,221.5 614.5,220.5C 612.901,220.232 611.568,220.566 610.5,221.5C 608.033,221.755 606.033,222.755 604.5,224.5C 602.139,224.674 599.806,225.007 597.5,225.5C 597.421,224.07 597.754,222.736 598.5,221.5C 600.777,220.579 603.11,219.913 605.5,219.5C 607.987,218.677 610.321,217.677 612.5,216.5C 613.167,216.5 613.5,216.167 613.5,215.5C 614.468,213.393 614.802,211.059 614.5,208.5C 610.774,208.177 607.107,208.511 603.5,209.5C 603.624,210.107 603.957,210.44 604.5,210.5C 606.167,211.5 607.5,212.833 608.5,214.5C 608.5,216.5 607.5,217.5 605.5,217.5C 604.207,215.704 602.707,214.037 601,212.5C 600.308,211.563 600.475,210.897 601.5,210.5C 602.043,210.44 602.376,210.107 602.5,209.5C 601.311,208.571 599.978,208.238 598.5,208.5C 598.5,207.5 598.5,206.5 598.5,205.5C 605.167,205.5 611.833,205.5 618.5,205.5 Z"/></g>
<g><path style="opacity:1" fill="#f2f9f9" d="M 604.5,210.5 C 607.287,209.523 610.287,209.19 613.5,209.5C 613.5,211.5 613.5,213.5 613.5,215.5C 613.5,216.167 613.167,216.5 612.5,216.5C 610.801,216.473 609.467,215.806 608.5,214.5C 607.5,212.833 606.167,211.5 604.5,210.5 Z"/></g>
<g><path style="opacity:1" fill="#86b1d1" d="M 613.5,215.5 C 613.5,213.5 613.5,211.5 613.5,209.5C 610.287,209.19 607.287,209.523 604.5,210.5C 603.957,210.44 603.624,210.107 603.5,209.5C 607.107,208.511 610.774,208.177 614.5,208.5C 614.802,211.059 614.468,213.393 613.5,215.5 Z"/></g>
<g><path style="opacity:1" fill="#1c5a94" d="M 636.5,224.5 C 636.5,223.167 636.5,221.833 636.5,220.5C 632.035,221.433 627.702,222.766 623.5,224.5C 623.167,224.5 622.833,224.5 622.5,224.5C 622.5,223.833 622.167,223.5 621.5,223.5C 621.5,222.5 621.5,221.5 621.5,220.5C 623.806,220.007 626.139,219.674 628.5,219.5C 630.153,219.34 631.486,218.674 632.5,217.5C 632.833,217.5 633.167,217.5 633.5,217.5C 635.451,217.773 636.951,217.107 638,215.5C 638.497,212.854 638.664,210.187 638.5,207.5C 633.156,207.666 627.823,207.499 622.5,207C 628.491,206.501 634.491,206.334 640.5,206.5C 640.5,212.5 640.5,218.5 640.5,224.5C 639.167,224.5 637.833,224.5 636.5,224.5 Z"/></g>
<g><path style="opacity:1" fill="#7fadd1" d="M 430.5,222.5 C 430.833,222.5 431.167,222.5 431.5,222.5C 438.532,222.17 445.532,222.503 452.5,223.5C 452.376,224.107 452.043,224.44 451.5,224.5C 444.5,223.833 437.5,223.167 430.5,222.5 Z"/></g>
<g><path style="opacity:1" fill="#98bbd7" d="M 610.5,221.5 C 608.967,223.245 606.967,224.245 604.5,224.5C 606.033,222.755 608.033,221.755 610.5,221.5 Z"/></g>
<g><path style="opacity:1" fill="#8faebb" d="M 161.5,222.5 C 162.043,222.56 162.376,222.893 162.5,223.5C 155.344,224.819 148.344,224.819 141.5,223.5C 148.354,223.824 155.021,223.491 161.5,222.5 Z"/></g>
<g><path style="opacity:1" fill="#8fafbc" d="M 216.5,222.5 C 222.979,223.491 229.646,223.824 236.5,223.5C 229.656,224.819 222.656,224.819 215.5,223.5C 215.624,222.893 215.957,222.56 216.5,222.5 Z"/></g>
<g><path style="opacity:1" fill="#6a90a7" d="M 326.5,205.5 C 326.5,205.167 326.5,204.833 326.5,204.5C 335.167,204.5 343.833,204.5 352.5,204.5C 352.5,220.167 352.5,235.833 352.5,251.5C 343.833,251.5 335.167,251.5 326.5,251.5C 326.5,251.167 326.5,250.833 326.5,250.5C 334.833,250.5 343.167,250.5 351.5,250.5C 351.5,235.5 351.5,220.5 351.5,205.5C 343.167,205.5 334.833,205.5 326.5,205.5 Z"/></g>
<g><path style="opacity:1" fill="#6893b4" d="M 610.5,221.5 C 611.568,220.566 612.901,220.232 614.5,220.5C 614.5,221.5 614.5,222.5 614.5,223.5C 615.833,223.5 617.167,223.5 618.5,223.5C 619.568,224.434 620.901,224.768 622.5,224.5C 622.833,224.5 623.167,224.5 623.5,224.5C 623.167,225.5 622.5,226.167 621.5,226.5C 619.95,225.28 618.284,225.28 616.5,226.5C 616.179,224.952 615.179,224.285 613.5,224.5C 613.5,223.5 613.5,222.5 613.5,221.5C 612.5,221.5 611.5,221.5 610.5,221.5 Z"/></g>
<g><path style="opacity:1" fill="#deecf0" d="M 331.5,223.5 C 336.833,223.5 342.167,223.5 347.5,223.5C 347.5,226.5 347.5,229.5 347.5,232.5C 342.167,232.5 336.833,232.5 331.5,232.5C 331.5,229.5 331.5,226.5 331.5,223.5 Z"/></g>
<g><path style="opacity:1" fill="#7da5c2" d="M 522.5,251.5 C 510.345,252.495 498.011,252.829 485.5,252.5C 485.5,244.167 485.5,235.833 485.5,227.5C 498.167,227.5 510.833,227.5 523.5,227.5C 523.826,235.684 523.492,243.684 522.5,251.5 Z"/></g>
<g><path style="opacity:1" fill="#195892" d="M 460.5,223.5 C 456.966,226.097 453.3,228.43 449.5,230.5C 448.957,230.56 448.624,230.893 448.5,231.5C 455.803,232.497 463.137,232.831 470.5,232.5C 470.5,233.833 470.5,235.167 470.5,236.5C 463.167,236.5 455.833,236.5 448.5,236.5C 448.5,240.5 448.5,244.5 448.5,248.5C 447.89,249.391 447.557,250.391 447.5,251.5C 443.116,253.175 439.116,252.842 435.5,250.5C 437.508,248.917 439.841,247.917 442.5,247.5C 443.482,244.038 443.815,240.371 443.5,236.5C 436.167,236.5 428.833,236.5 421.5,236.5C 421.5,235.167 421.5,233.833 421.5,232.5C 428.833,232.5 436.167,232.5 443.5,232.5C 443.286,230.856 443.62,229.356 444.5,228C 446.86,226.82 449.193,225.653 451.5,224.5C 452.043,224.44 452.376,224.107 452.5,223.5C 445.532,222.503 438.532,222.17 431.5,222.5C 431.5,221.5 431.5,220.5 431.5,219.5C 441.167,219.5 450.833,219.5 460.5,219.5C 460.5,220.833 460.5,222.167 460.5,223.5 Z"/></g>
<g><path style="opacity:1" fill="#1b5992" d="M 555.5,211.5 C 555.5,212.167 555.5,212.833 555.5,213.5C 552.425,218.643 549.092,223.643 545.5,228.5C 547.396,229.466 549.396,229.799 551.5,229.5C 551.167,227.5 550.833,225.5 550.5,223.5C 551.833,223.5 553.167,223.5 554.5,223.5C 554.433,224.959 554.766,226.292 555.5,227.5C 555.709,228.922 556.209,230.255 557,231.5C 557.499,226.511 557.666,221.511 557.5,216.5C 561.5,216.5 565.5,216.5 569.5,216.5C 569.5,214.833 569.5,213.167 569.5,211.5C 565.167,211.5 560.833,211.5 556.5,211.5C 556.5,210.167 556.5,208.833 556.5,207.5C 560.833,207.5 565.167,207.5 569.5,207.5C 569.5,205.833 569.5,204.167 569.5,202.5C 570.5,202.5 571.5,202.5 572.5,202.5C 572.216,204.415 572.549,206.081 573.5,207.5C 577.634,208.485 581.968,208.818 586.5,208.5C 586.5,209.5 586.5,210.5 586.5,211.5C 581.833,211.5 577.167,211.5 572.5,211.5C 572.5,213.167 572.5,214.833 572.5,216.5C 576.5,216.5 580.5,216.5 584.5,216.5C 584.5,222.5 584.5,228.5 584.5,234.5C 582.076,234.192 579.743,234.526 577.5,235.5C 577.624,236.107 577.957,236.44 578.5,236.5C 578.328,237.492 578.662,238.158 579.5,238.5C 581.412,241.919 583.912,244.919 587,247.5C 587.783,249.319 587.283,250.652 585.5,251.5C 580.388,247.931 576.722,243.264 574.5,237.5C 574.217,236.711 573.717,236.044 573,235.5C 572.501,241.491 572.334,247.491 572.5,253.5C 571.5,253.5 570.5,253.5 569.5,253.5C 569.829,247.463 569.496,241.463 568.5,235.5C 567.702,235.957 567.369,236.624 567.5,237.5C 564.575,242.924 560.741,247.591 556,251.5C 553.114,249.83 552.948,248.163 555.5,246.5C 556.833,245.833 557.833,244.833 558.5,243.5C 560.522,241.469 562.189,239.135 563.5,236.5C 564.043,236.44 564.376,236.107 564.5,235.5C 555.901,233.993 547.234,233.327 538.5,233.5C 540.146,229.398 542.479,225.565 545.5,222C 542.854,221.503 540.187,221.336 537.5,221.5C 540.041,215.249 543.041,209.082 546.5,203C 548.319,202.217 549.652,202.717 550.5,204.5C 548.246,208.007 546.246,211.673 544.5,215.5C 548.161,216.886 550.494,215.553 551.5,211.5C 552.958,210.218 554.292,210.218 555.5,211.5 Z"/></g>
<g><path style="opacity:1" fill="#75a4c6" d="M 568.5,230.5 C 566.052,231.473 563.385,231.806 560.5,231.5C 560.5,227.5 560.5,223.5 560.5,219.5C 563.5,219.5 566.5,219.5 569.5,219.5C 569.815,223.371 569.482,227.038 568.5,230.5 Z"/></g>
<g><path style="opacity:1" fill="#265b8d" d="M 564.5,221.5 C 566.293,223.426 567.293,225.759 567.5,228.5C 566.5,228.5 565.5,228.5 564.5,228.5C 564.107,226.716 563.441,225.05 562.5,223.5C 562.833,222.5 563.5,221.833 564.5,221.5 Z"/></g>
<g><path style="opacity:1" fill="#daf1f9" d="M 562.5,223.5 C 563.441,225.05 564.107,226.716 564.5,228.5C 564.179,230.048 563.179,230.715 561.5,230.5C 561.198,227.941 561.532,225.607 562.5,223.5 Z"/></g>
<g><path style="opacity:1" fill="#76a4c7" d="M 573.5,230.5 C 572.518,227.038 572.185,223.371 572.5,219.5C 575.5,219.5 578.5,219.5 581.5,219.5C 581.5,223.5 581.5,227.5 581.5,231.5C 578.615,231.806 575.948,231.473 573.5,230.5 Z"/></g>
<g><path style="opacity:1" fill="#d4eff8" d="M 573.5,230.5 C 573.842,229.662 574.508,229.328 575.5,229.5C 577.873,227.421 579.206,224.754 579.5,221.5C 576.745,221.963 575.078,223.63 574.5,226.5C 573.539,224.735 573.205,222.735 573.5,220.5C 575.833,220.5 578.167,220.5 580.5,220.5C 580.5,223.833 580.5,227.167 580.5,230.5C 578.167,230.5 575.833,230.5 573.5,230.5 Z"/></g>
<g><path style="opacity:1" fill="#2d5f8e" d="M 575.5,229.5 C 574.89,228.609 574.557,227.609 574.5,226.5C 575.078,223.63 576.745,221.963 579.5,221.5C 579.206,224.754 577.873,227.421 575.5,229.5 Z"/></g>
<g><path style="opacity:1" fill="#d8f4fc" d="M 564.5,221.5 C 565.568,220.566 566.901,220.232 568.5,220.5C 568.5,223.833 568.5,227.167 568.5,230.5C 566.302,230.591 565.969,229.925 567.5,228.5C 567.293,225.759 566.293,223.426 564.5,221.5 Z"/></g>
<g><path style="opacity:1" fill="#9abdd6" d="M 555.5,211.5 C 555.833,211.5 556.167,211.5 556.5,211.5C 560.833,211.5 565.167,211.5 569.5,211.5C 569.5,213.167 569.5,214.833 569.5,216.5C 565.5,216.5 561.5,216.5 557.5,216.5C 557.666,221.511 557.499,226.511 557,231.5C 556.209,230.255 555.709,228.922 555.5,227.5C 556.483,223.702 556.817,219.702 556.5,215.5C 560.5,215.5 564.5,215.5 568.5,215.5C 568.5,214.5 568.5,213.5 568.5,212.5C 564.069,212.231 559.735,212.564 555.5,213.5C 555.5,212.833 555.5,212.167 555.5,211.5 Z"/></g>
<g><path style="opacity:1" fill="#e4f5fa" d="M 555.5,227.5 C 554.766,226.292 554.433,224.959 554.5,223.5C 553.167,223.5 551.833,223.5 550.5,223.5C 550.833,225.5 551.167,227.5 551.5,229.5C 549.396,229.799 547.396,229.466 545.5,228.5C 549.092,223.643 552.425,218.643 555.5,213.5C 559.735,212.564 564.069,212.231 568.5,212.5C 568.5,213.5 568.5,214.5 568.5,215.5C 564.5,215.5 560.5,215.5 556.5,215.5C 556.817,219.702 556.483,223.702 555.5,227.5 Z"/></g>
<g><path style="opacity:1" fill="#7da4be" d="M 449.5,230.5 C 456.5,231.167 463.5,231.833 470.5,232.5C 463.137,232.831 455.803,232.497 448.5,231.5C 448.624,230.893 448.957,230.56 449.5,230.5 Z"/></g>
<g><path style="opacity:1" fill="#a0c1d9" d="M 319.5,228.5 C 318.833,236.5 318.167,244.5 317.5,252.5C 317.169,244.14 317.502,235.807 318.5,227.5C 319.107,227.624 319.44,227.957 319.5,228.5 Z"/></g>
<g><path style="opacity:1" fill="#c2e4f8" d="M 326.5,204.5 C 326.5,204.833 326.5,205.167 326.5,205.5C 326.5,220.5 326.5,235.5 326.5,250.5C 326.5,250.833 326.5,251.167 326.5,251.5C 325.51,245.69 325.177,239.69 325.5,233.5C 323.517,233.843 322.183,233.176 321.5,231.5C 325.268,232.626 326.268,231.292 324.5,227.5C 325.167,219.833 325.833,212.167 326.5,204.5 Z"/></g>
<g><path style="opacity:1" fill="#c3dceb" d="M 538.5,233.5 C 547.234,233.327 555.901,233.993 564.5,235.5C 564.376,236.107 564.043,236.44 563.5,236.5C 561.393,235.532 559.059,235.198 556.5,235.5C 556.5,236.833 556.5,238.167 556.5,239.5C 555.626,237.31 553.959,236.31 551.5,236.5C 551.629,238.216 551.962,239.883 552.5,241.5C 551.883,241.389 551.383,241.056 551,240.5C 550.506,242.134 550.34,243.801 550.5,245.5C 550.167,245.5 549.833,245.5 549.5,245.5C 549.5,242.833 549.5,240.167 549.5,237.5C 548.167,237.5 546.833,237.5 545.5,237.5C 546.718,236.839 548.051,236.172 549.5,235.5C 547.082,234.71 544.582,234.71 542,235.5C 540.319,235.392 539.152,234.725 538.5,233.5 Z"/></g>
<g><path style="opacity:1" fill="#88afcd" d="M 584.5,234.5 C 582.5,235.167 580.5,235.833 578.5,236.5C 577.957,236.44 577.624,236.107 577.5,235.5C 579.743,234.526 582.076,234.192 584.5,234.5 Z"/></g>
<g><path style="opacity:1" fill="#86afd0" d="M 470.5,236.5 C 463.687,237.491 456.687,237.825 449.5,237.5C 449.815,241.371 449.482,245.038 448.5,248.5C 448.5,244.5 448.5,240.5 448.5,236.5C 455.833,236.5 463.167,236.5 470.5,236.5 Z"/></g>
<g><path style="opacity:1" fill="#a8c9e0" d="M 313.5,252.5 C 312.833,245.833 312.167,239.167 311.5,232.5C 311.461,231.244 311.961,230.244 313,229.5C 313.5,237.159 313.666,244.826 313.5,252.5 Z"/></g>
<g><path style="opacity:1" fill="#537d9a" d="M 374.5,216.5 C 374.5,228.833 374.5,241.167 374.5,253.5C 372.833,253.5 371.167,253.5 369.5,253.5C 369.5,253.167 369.5,252.833 369.5,252.5C 370.833,252.5 372.167,252.5 373.5,252.5C 373.172,240.322 373.505,228.322 374.5,216.5 Z"/></g>
<g><path style="opacity:1" fill="#1e5a92" d="M 406.5,220.5 C 405.793,225.849 405.293,231.182 405,236.5C 408.079,240.324 410.912,244.324 413.5,248.5C 412.653,249.845 411.487,250.845 410,251.5C 409.051,249.907 407.885,248.574 406.5,247.5C 405.52,244.884 404.02,242.551 402,240.5C 398.303,245.362 394.136,249.696 389.5,253.5C 386.527,253.035 385.36,251.368 386,248.5C 398.228,241.043 403.728,230.043 402.5,215.5C 403.482,212.038 403.815,208.371 403.5,204.5C 404.5,204.5 405.5,204.5 406.5,204.5C 406.5,209.833 406.5,215.167 406.5,220.5 Z"/></g>
<g><path style="opacity:1" fill="#e7f6fb" d="M 460.5,223.5 C 460.833,223.5 461.167,223.5 461.5,223.5C 460.723,226.112 459.056,227.945 456.5,229C 461.792,229.419 467.126,229.585 472.5,229.5C 473.652,232.106 473.818,234.773 473,237.5C 465.587,238.481 458.087,238.814 450.5,238.5C 450.665,242.182 450.499,245.848 450,249.5C 449.292,250.381 448.458,251.047 447.5,251.5C 447.557,250.391 447.89,249.391 448.5,248.5C 449.482,245.038 449.815,241.371 449.5,237.5C 456.687,237.825 463.687,237.491 470.5,236.5C 470.5,235.167 470.5,233.833 470.5,232.5C 463.5,231.833 456.5,231.167 449.5,230.5C 453.3,228.43 456.966,226.097 460.5,223.5 Z"/></g>
<g><path style="opacity:1" fill="#5c86a3" d="M 621.5,228.5 C 627.167,228.5 632.833,228.5 638.5,228.5C 638.5,236.5 638.5,244.5 638.5,252.5C 626.655,252.828 614.988,252.495 603.5,251.5C 614.833,251.5 626.167,251.5 637.5,251.5C 637.5,244.167 637.5,236.833 637.5,229.5C 631.974,229.821 626.64,229.488 621.5,228.5 Z"/></g>
<g><path style="opacity:1" fill="#ecf7fb" d="M 563.5,236.5 C 562.189,239.135 560.522,241.469 558.5,243.5C 557.833,243.167 557.167,242.833 556.5,242.5C 556.5,241.5 556.5,240.5 556.5,239.5C 556.5,238.167 556.5,236.833 556.5,235.5C 559.059,235.198 561.393,235.532 563.5,236.5 Z"/></g>
<g><path style="opacity:1" fill="#f5fafb" d="M 331.5,237.5 C 336.5,237.5 341.5,237.5 346.5,237.5C 346.5,240.167 346.5,242.833 346.5,245.5C 341.5,245.5 336.5,245.5 331.5,245.5C 331.5,242.833 331.5,240.167 331.5,237.5 Z"/></g>
<g><path style="opacity:1" fill="#1a5991" d="M 621.5,226.5 C 621.5,227.167 621.5,227.833 621.5,228.5C 626.64,229.488 631.974,229.821 637.5,229.5C 637.5,236.833 637.5,244.167 637.5,251.5C 626.167,251.5 614.833,251.5 603.5,251.5C 603.5,243.833 603.5,236.167 603.5,228.5C 608.294,229.097 612.627,228.43 616.5,226.5C 618.284,225.28 619.95,225.28 621.5,226.5 Z"/></g>
<g><path style="opacity:1" fill="#83abc8" d="M 607.5,232.5 C 616.167,232.5 624.833,232.5 633.5,232.5C 633.5,234.5 633.5,236.5 633.5,238.5C 624.833,238.5 616.167,238.5 607.5,238.5C 607.5,236.5 607.5,234.5 607.5,232.5 Z"/></g>
<g><path style="opacity:1" fill="#edfcfc" d="M 608.5,233.5 C 616.5,233.5 624.5,233.5 632.5,233.5C 632.5,234.833 632.5,236.167 632.5,237.5C 624.5,237.5 616.5,237.5 608.5,237.5C 608.5,236.167 608.5,234.833 608.5,233.5 Z"/></g>
<g><path style="opacity:1" fill="#235a8c" d="M 556.5,239.5 C 556.5,240.5 556.5,241.5 556.5,242.5C 556.179,244.048 555.179,244.715 553.5,244.5C 553.737,243.209 553.404,242.209 552.5,241.5C 551.962,239.883 551.629,238.216 551.5,236.5C 553.959,236.31 555.626,237.31 556.5,239.5 Z"/></g>
<g><path style="opacity:1" fill="#245e95" d="M 522.5,251.5 C 510.5,251.5 498.5,251.5 486.5,251.5C 486.5,243.833 486.5,236.167 486.5,228.5C 498.5,228.5 510.5,228.5 522.5,228.5C 522.5,236.167 522.5,243.833 522.5,251.5 Z"/></g>
<g><path style="opacity:1" fill="#c1dff4" d="M 517.5,233.5 C 508.833,233.5 500.167,233.5 491.5,233.5C 491.5,234.5 491.5,235.5 491.5,236.5C 500.167,236.5 508.833,236.5 517.5,236.5C 508.682,237.493 499.682,237.827 490.5,237.5C 490.5,235.833 490.5,234.167 490.5,232.5C 499.682,232.173 508.682,232.507 517.5,233.5 Z"/></g>
<g><path style="opacity:1" fill="#f4fbfc" d="M 517.5,233.5 C 517.5,234.5 517.5,235.5 517.5,236.5C 508.833,236.5 500.167,236.5 491.5,236.5C 491.5,235.5 491.5,234.5 491.5,233.5C 500.167,233.5 508.833,233.5 517.5,233.5 Z"/></g>
<g><path style="opacity:1" fill="#2b5f91" d="M 539.5,236.5 C 540.833,236.5 542.167,236.5 543.5,236.5C 543.147,240.913 542.314,245.246 541,249.5C 539.951,251.107 538.451,251.773 536.5,251.5C 537.659,246.532 538.659,241.532 539.5,236.5 Z"/></g>
<g><path style="opacity:1" fill="#16558e" d="M 545.5,237.5 C 546.833,237.5 548.167,237.5 549.5,237.5C 549.5,240.167 549.5,242.833 549.5,245.5C 549.5,246.833 549.5,248.167 549.5,249.5C 548.5,249.5 547.5,249.5 546.5,249.5C 546.81,246.287 546.477,243.287 545.5,240.5C 545.5,239.5 545.5,238.5 545.5,237.5 Z"/></g>
<g><path style="opacity:1" fill="#9abdd8" d="M 331.5,237.5 C 336.64,236.512 341.974,236.179 347.5,236.5C 347.5,239.833 347.5,243.167 347.5,246.5C 342.167,246.5 336.833,246.5 331.5,246.5C 331.5,246.167 331.5,245.833 331.5,245.5C 336.5,245.5 341.5,245.5 346.5,245.5C 346.5,242.833 346.5,240.167 346.5,237.5C 341.5,237.5 336.5,237.5 331.5,237.5 Z"/></g>
<g><path style="opacity:1" fill="#ecf9fd" d="M 491.5,242.5 C 500.167,242.5 508.833,242.5 517.5,242.5C 517.5,243.833 517.5,245.167 517.5,246.5C 508.833,246.5 500.167,246.5 491.5,246.5C 491.5,245.167 491.5,243.833 491.5,242.5 Z"/></g>
<g><path style="opacity:1" fill="#77a8ce" d="M 556.5,242.5 C 557.167,242.833 557.833,243.167 558.5,243.5C 557.833,244.833 556.833,245.833 555.5,246.5C 554.833,245.833 554.167,245.167 553.5,244.5C 555.179,244.715 556.179,244.048 556.5,242.5 Z"/></g>
<g><path style="opacity:1" fill="#a8cae1" d="M 491.5,242.5 C 491.5,243.833 491.5,245.167 491.5,246.5C 500.167,246.5 508.833,246.5 517.5,246.5C 508.682,247.493 499.682,247.827 490.5,247.5C 490.216,245.585 490.549,243.919 491.5,242.5 Z"/></g>
<g><path style="opacity:1" fill="#accce4" d="M 607.5,242.5 C 616.167,242.5 624.833,242.5 633.5,242.5C 633.5,244.167 633.5,245.833 633.5,247.5C 624.833,247.5 616.167,247.5 607.5,247.5C 607.5,245.833 607.5,244.167 607.5,242.5 Z"/></g>
<g><path style="opacity:1" fill="#f2fbfd" d="M 608.5,243.5 C 616.5,243.5 624.5,243.5 632.5,243.5C 632.5,244.5 632.5,245.5 632.5,246.5C 624.5,246.5 616.5,246.5 608.5,246.5C 608.5,245.5 608.5,244.5 608.5,243.5 Z"/></g>
<g><path style="opacity:1" fill="#6891b5" d="M 442.5,247.5 C 439.841,247.917 437.508,248.917 435.5,250.5C 434.596,249.791 434.263,248.791 434.5,247.5C 437.167,247.5 439.833,247.5 442.5,247.5 Z"/></g>
<g><path style="opacity:1" fill="#7da1bf" d="M 545.5,240.5 C 546.477,243.287 546.81,246.287 546.5,249.5C 547.5,249.5 548.5,249.5 549.5,249.5C 549.5,248.167 549.5,246.833 549.5,245.5C 549.833,245.5 550.167,245.5 550.5,245.5C 550.5,247.167 550.5,248.833 550.5,250.5C 548.833,250.5 547.167,250.5 545.5,250.5C 545.5,247.167 545.5,243.833 545.5,240.5 Z"/></g>
<g><path style="opacity:1" fill="#78a0bc" d="M 574.5,237.5 C 573.511,242.975 573.178,248.642 573.5,254.5C 571.833,254.5 570.167,254.5 568.5,254.5C 568.822,248.642 568.489,242.975 567.5,237.5C 567.369,236.624 567.702,235.957 568.5,235.5C 569.496,241.463 569.829,247.463 569.5,253.5C 570.5,253.5 571.5,253.5 572.5,253.5C 572.334,247.491 572.501,241.491 573,235.5C 573.717,236.044 574.217,236.711 574.5,237.5 Z"/></g>
<g><path style="opacity:1" fill="#1e5b96" d="M 76.5,328.5 C 76.8333,328.5 77.1667,328.5 77.5,328.5C 77.8333,328.5 78.1667,328.5 78.5,328.5C 80.4403,341.096 86.7736,350.763 97.5,357.5C 101.064,360.389 105.064,362.389 109.5,363.5C 107.143,363.337 104.81,363.503 102.5,364C 104.063,364.759 105.063,365.926 105.5,367.5C 91.545,363.555 81.545,354.888 75.5,341.5C 74.962,339.883 74.6287,338.216 74.5,336.5C 76.369,334.365 77.0356,331.698 76.5,328.5 Z"/></g>
<g><path style="opacity:1" fill="#e7fbfe" d="M 97.5,357.5 C 100.01,357.998 102.51,358.664 105,359.5C 106.436,359.441 107.769,359.108 109,358.5C 110.719,359.869 112.552,360.869 114.5,361.5C 395.833,362.833 679.833,362.833 966.5,361.5C 970.5,360.5 974.5,359.5 978.5,358.5C 978.5,358.833 978.5,359.167 978.5,359.5C 974.41,360.895 970.41,362.228 966.5,363.5C 681.5,363.5 396.5,363.5 111.5,363.5C 110.833,363.5 110.167,363.5 109.5,363.5C 105.064,362.389 101.064,360.389 97.5,357.5 Z"/></g>
<g><path style="opacity:1" fill="#f5fcfa" d="M 966.5,361.5 C 679.833,362.833 395.833,362.833 114.5,361.5C 398.427,360.687 682.427,360.687 966.5,361.5 Z"/></g>
<g><path style="opacity:1" fill="#507ea6" d="M 978.5,359.5 C 975.207,362.598 971.207,363.931 966.5,363.5C 970.41,362.228 974.41,360.895 978.5,359.5 Z"/></g>
<g><path style="opacity:1" fill="#105592" d="M 1007.5,68.5 C 1007.67,154.501 1007.5,240.501 1007,326.5C 1003.75,349.917 990.584,364.251 967.5,369.5C 682.5,369.667 397.5,369.5 112.5,369C 110.26,368.023 107.927,367.523 105.5,367.5C 105.063,365.926 104.063,364.759 102.5,364C 104.81,363.503 107.143,363.337 109.5,363.5C 110.167,363.5 110.833,363.5 111.5,363.5C 112.609,364.29 113.942,364.79 115.5,365C 398.167,365.667 680.833,365.667 963.5,365C 964.737,364.768 965.737,364.268 966.5,363.5C 971.207,363.931 975.207,362.598 978.5,359.5C 978.5,359.167 978.5,358.833 978.5,358.5C 988.73,353.936 995.397,346.269 998.5,335.5C 999.401,334.71 1000.07,333.71 1000.5,332.5C 1001.12,332.389 1001.62,332.056 1002,331.5C 1002.5,241.167 1002.67,150.834 1002.5,60.5C 1001.41,57.7279 1000.41,54.8946 999.5,52C 1000.01,50.1739 1000.84,50.0072 1002,51.5C 1003.84,57.3514 1005.67,63.018 1007.5,68.5 Z"/></g>
<g><path style="opacity:1" fill="#3d6b94" d="M 111.5,363.5 C 396.5,363.5 681.5,363.5 966.5,363.5C 965.737,364.268 964.737,364.768 963.5,365C 680.833,365.667 398.167,365.667 115.5,365C 113.942,364.79 112.609,364.29 111.5,363.5 Z"/></g>
<g><path style="opacity:1" fill="#8ab0c4" d="M 105.5,367.5 C 107.927,367.523 110.26,368.023 112.5,369C 397.5,369.5 682.5,369.667 967.5,369.5C 682,370.666 396.334,370.833 110.5,370C 108.685,369.243 107.019,368.41 105.5,367.5 Z"/></g>
</svg>
