<?xml version="1.0" encoding="UTF-8"?>
<!DOCTYPE svg PUBLIC "-//W3C//DTD SVG 1.1//EN" "http://www.w3.org/Graphics/SVG/1.1/DTD/svg11.dtd">
<svg xmlns="http://www.w3.org/2000/svg" version="1.1" width="1080px" height="398px" style="shape-rendering:geometricPrecision; text-rendering:geometricPrecision; image-rendering:optimizeQuality; fill-rule:evenodd; clip-rule:evenodd" xmlns:xlink="http://www.w3.org/1999/xlink">
<g><path style="opacity:1" fill="#f9fafa" d="M -0.5,-0.5 C 359.5,-0.5 719.5,-0.5 1079.5,-0.5C 1079.5,132.167 1079.5,264.833 1079.5,397.5C 719.5,397.5 359.5,397.5 -0.5,397.5C -0.5,264.833 -0.5,132.167 -0.5,-0.5 Z"/></g>
<g><path style="opacity:1" fill="#f1fbfe" d="M 968.5,24.5 C 684.021,23.1695 399.687,23.1695 115.5,24.5C 114.167,24.5 112.833,24.5 111.5,24.5C 112.263,23.7321 113.263,23.2321 114.5,23C 396.54,22.8325 678.54,22.3325 960.5,21.5C 961.711,22.3898 963.045,22.3898 964.5,21.5C 966.16,22.1716 967.493,23.1716 968.5,24.5 Z"/></g>
<g><path style="opacity:1" fill="#e0fcfe" d="M 115.5,24.5 C 399.687,23.1695 684.021,23.1695 968.5,24.5C 970.38,24.2291 971.713,24.8958 972.5,26.5C 971.833,26.5 971.167,26.5 970.5,26.5C 968.369,25.6862 966.036,25.1862 963.5,25C 680.834,24.5 398.167,24.3333 115.5,24.5 Z"/></g>
<g><path style="opacity:1" fill="#1c5683" d="M 111.5,24.5 C 112.833,24.5 114.167,24.5 115.5,24.5C 398.167,24.3333 680.834,24.5 963.5,25C 966.036,25.1862 968.369,25.6862 970.5,26.5C 970.167,26.5 969.833,26.5 969.5,26.5C 682.166,26.3333 394.833,26.5 107.5,27C 105.655,28.128 103.655,28.628 101.5,28.5C 104.534,26.5957 107.867,25.2623 111.5,24.5 Z"/></g>
<g><path style="opacity:1" fill="#08569b" d="M 969.5,26.5 C 968.082,28.3079 966.082,28.9746 963.5,28.5C 678.656,28.502 393.989,28.502 109.5,28.5C 107.414,29.4887 105.747,30.822 104.5,32.5C 102.345,32.628 100.345,32.128 98.5,31C 100.119,30.7645 101.119,29.9311 101.5,28.5C 103.655,28.628 105.655,28.128 107.5,27C 394.833,26.5 682.166,26.3333 969.5,26.5 Z"/></g>
<g><path style="opacity:1" fill="#195381" d="M 963.5,28.5 C 965.246,29.0013 966.246,29.6679 966.5,30.5C 681.5,30.3333 396.5,30.5 111.5,31C 109.187,31.662 106.854,32.162 104.5,32.5C 105.747,30.822 107.414,29.4887 109.5,28.5C 393.989,28.502 678.656,28.502 963.5,28.5 Z"/></g>
<g><path style="opacity:1" fill="#effafc" d="M 966.5,30.5 C 974.452,32.3099 981.452,35.9766 987.5,41.5C 985.599,41.4332 983.766,41.7665 982,42.5C 979.367,41.4478 978.534,39.7812 979.5,37.5C 976.017,35.2134 972.184,33.8801 968,33.5C 682.916,34.1107 397.249,34.1107 111,33.5C 108.527,34.1197 106.027,34.7864 103.5,35.5C 104.506,36.3957 104.506,37.0623 103.5,37.5C 101.518,36.3775 99.5184,36.3775 97.5,37.5C 99.6572,35.5879 101.991,33.9213 104.5,32.5C 106.854,32.162 109.187,31.662 111.5,31C 396.5,30.5 681.5,30.3333 966.5,30.5 Z"/></g>
<g><path style="opacity:1" fill="#f9f9f9" d="M 987.5,41.5 C 990.973,43.6367 993.306,46.6367 994.5,50.5C 994.096,51.7564 993.429,52.9231 992.5,54C 993.482,55.0544 994.649,55.5544 996,55.5C 997.6,58.3343 998.766,61.3343 999.5,64.5C 1000.67,153.165 1000.83,241.831 1000,330.5C 998.748,333.014 998.248,335.68 998.5,338.5C 998.371,340.216 998.038,341.883 997.5,343.5C 995.442,345.927 993.609,348.593 992,351.5C 989.894,354.118 987.394,356.118 984.5,357.5C 978.67,361.052 972.336,363.552 965.5,365C 681.5,365.667 397.5,365.667 113.5,365C 110.568,364.047 107.568,363.547 104.5,363.5C 91.6718,358.671 83.3384,349.671 79.5,336.5C 79.5,335.833 79.5,335.167 79.5,334.5C 78.5101,244.522 78.1768,154.522 78.5,64.5C 78.5,63.5 78.5,62.5 78.5,61.5C 81.028,52.9448 85.6947,45.7781 92.5,40C 94.0779,38.9055 95.7446,38.0722 97.5,37.5C 99.5184,36.3775 101.518,36.3775 103.5,37.5C 104.506,37.0623 104.506,36.3957 103.5,35.5C 106.027,34.7864 108.527,34.1197 111,33.5C 397.249,34.1107 682.916,34.1107 968,33.5C 972.184,33.8801 976.017,35.2134 979.5,37.5C 978.534,39.7812 979.367,41.4478 982,42.5C 983.766,41.7665 985.599,41.4332 987.5,41.5 Z"/></g>
<g><path style="opacity:1" fill="#fecbcf" d="M 794.5,54.5 C 798.491,58.991 802.657,63.3243 807,67.5C 807.5,67 808,66.5 808.5,66C 804.63,62.2977 800.963,58.4643 797.5,54.5C 800.096,55.2653 802.763,55.5987 805.5,55.5C 807.814,57.4773 810.147,59.4773 812.5,61.5C 813.583,60.635 813.749,59.635 813,58.5C 811.624,57.2949 810.458,55.9616 809.5,54.5C 824.848,54.1673 840.181,54.5006 855.5,55.5C 896.541,95.7077 937.041,136.374 977,177.5C 977.5,203.165 977.667,228.831 977.5,254.5C 965.886,256.877 955.22,254.711 945.5,248C 918.994,220.933 892.327,194.099 865.5,167.5C 864.833,166.167 863.833,165.167 862.5,164.5C 833.921,136.754 805.755,108.421 778,79.5C 773.175,71.8544 770.675,63.521 770.5,54.5C 778.5,54.5 786.5,54.5 794.5,54.5 Z"/></g>
<g><path style="opacity:1" fill="#d7625b" d="M 805.5,55.5 C 806.568,54.5655 807.901,54.2322 809.5,54.5C 810.458,55.9616 811.624,57.2949 813,58.5C 813.749,59.635 813.583,60.635 812.5,61.5C 810.147,59.4773 807.814,57.4773 805.5,55.5 Z"/></g>
<g><path style="opacity:1" fill="#d65750" d="M 794.5,54.5 C 795.5,54.5 796.5,54.5 797.5,54.5C 800.963,58.4643 804.63,62.2977 808.5,66C 808,66.5 807.5,67 807,67.5C 802.657,63.3243 798.491,58.991 794.5,54.5 Z"/></g>
<g><path style="opacity:1" fill="#e5fcfe" d="M 71.5,63.5 C 71.1673,152.668 71.5006,241.668 72.5,330.5C 72.5,331.833 72.5,333.167 72.5,334.5C 71.1667,289.672 70.5001,244.505 70.5,199C 70.5,153.665 70.8333,108.499 71.5,63.5 Z"/></g>
<g><path style="opacity:1" fill="#135692" d="M 969.5,26.5 C 969.833,26.5 970.167,26.5 970.5,26.5C 971.167,26.5 971.833,26.5 972.5,26.5C 990.711,32.5453 1002.21,44.8786 1007,63.5C 1007.17,108 1007.33,152.5 1007.5,197C 1007.65,243.531 1007.15,290.031 1006,336.5C 1000.58,354.09 989.077,365.423 971.5,370.5C 972.842,369.207 974.509,368.374 976.5,368C 974.699,367.683 974.366,367.016 975.5,366C 972.918,366.255 970.252,366.422 967.5,366.5C 973.853,364.823 979.52,361.823 984.5,357.5C 987.394,356.118 989.894,354.118 992,351.5C 993.609,348.593 995.442,345.927 997.5,343.5C 998.458,343.047 999.292,342.381 1000,341.5C 1000.74,338.11 1001.58,334.777 1002.5,331.5C 1003.83,286.338 1004.5,240.838 1004.5,195C 1004.33,149.5 1004.17,104 1004,58.5C 1001.41,53.4197 1000.24,54.0864 1000.5,60.5C 999.016,56.8677 997.016,53.5344 994.5,50.5C 993.306,46.6367 990.973,43.6367 987.5,41.5C 981.452,35.9766 974.452,32.3099 966.5,30.5C 966.246,29.6679 965.246,29.0013 963.5,28.5C 966.082,28.9746 968.082,28.3079 969.5,26.5 Z"/></g>
<g><path style="opacity:1" fill="#1b5582" d="M 74.5,56.5 C 74.8537,60.6372 74.3537,64.6372 73,68.5C 72.5,155.833 72.3333,243.166 72.5,330.5C 71.5006,241.668 71.1673,152.668 71.5,63.5C 72.3485,61.1124 73.3485,58.7791 74.5,56.5 Z"/></g>
<g><path style="opacity:1" fill="#e1fcfe" d="M 78.5,64.5 C 78.1768,154.522 78.5101,244.522 79.5,334.5C 78.7321,333.737 78.2321,332.737 78,331.5C 77.1676,242.332 77.3343,153.332 78.5,64.5 Z"/></g>
<g><path style="opacity:1" fill="#e4fafd" d="M 994.5,50.5 C 997.016,53.5344 999.016,56.8677 1000.5,60.5C 1001.66,150.805 1001.83,241.139 1001,331.5C 1000.3,334.004 999.469,336.337 998.5,338.5C 998.248,335.68 998.748,333.014 1000,330.5C 1000.83,241.831 1000.67,153.165 999.5,64.5C 998.766,61.3343 997.6,58.3343 996,55.5C 994.649,55.5544 993.482,55.0544 992.5,54C 993.429,52.9231 994.096,51.7564 994.5,50.5 Z"/></g>
<g><path style="opacity:1" fill="#185385" d="M 78.5,61.5 C 78.5,62.5 78.5,63.5 78.5,64.5C 77.3343,153.332 77.1676,242.332 78,331.5C 78.2321,332.737 78.7321,333.737 79.5,334.5C 79.5,335.167 79.5,335.833 79.5,336.5C 78.0337,335.653 77.2004,334.32 77,332.5C 76.8333,287.333 76.6667,242.167 76.5,197C 76.5001,151.495 77.1667,106.328 78.5,61.5 Z"/></g>
<g><path style="opacity:1" fill="#fec0c2" d="M 824.5,58.5 C 822.645,58.272 821.812,58.9387 822,60.5C 825,63.5 828,66.5 831,69.5C 831,70.8333 831,72.1667 831,73.5C 833.35,75.6829 835.517,78.0163 837.5,80.5C 832.423,86.0757 827.923,92.0757 824,98.5C 823.505,100.473 823.338,102.473 823.5,104.5C 826.39,104.722 829.057,104.055 831.5,102.5C 832.776,101.386 832.776,100.386 831.5,99.5C 831.897,98.475 832.563,98.3083 833.5,99C 834.833,100.333 834.833,101.667 833.5,103C 834.448,103.483 835.448,103.649 836.5,103.5C 835.101,104.89 833.434,105.89 831.5,106.5C 831.631,105.624 831.298,104.957 830.5,104.5C 827.916,105.393 825.249,105.726 822.5,105.5C 822.658,102.098 822.324,98.7644 821.5,95.5C 822.675,95.719 823.675,95.3857 824.5,94.5C 822.985,93.4095 822.152,92.0761 822,90.5C 824.35,88.3171 826.517,85.9837 828.5,83.5C 830.093,85.6603 831.76,85.827 833.5,84C 831.5,82 829.5,80 827.5,78C 824.012,78.0196 823.679,79.1863 826.5,81.5C 824.35,84.1506 822.017,86.6506 819.5,89C 817.893,89.1151 816.393,88.6151 815,87.5C 813.97,87.8361 813.47,88.5028 813.5,89.5C 812.005,89.0113 810.671,88.3446 809.5,87.5C 813.472,86.0508 816.806,83.5508 819.5,80C 816.964,77.295 814.297,74.795 811.5,72.5C 812.725,71.063 813.725,69.3964 814.5,67.5C 815.736,66.7542 817.07,66.4208 818.5,66.5C 819.406,63.5641 820.072,60.5641 820.5,57.5C 822.099,57.2322 823.432,57.5655 824.5,58.5 Z"/></g>
<g><path style="opacity:1" fill="#d5534d" d="M 819.5,64.5 C 822.744,66.0713 825.411,68.4046 827.5,71.5C 826.998,72.521 826.332,72.6877 825.5,72C 822.834,69.8552 820.834,67.3552 819.5,64.5 Z"/></g>
<g><path style="opacity:1" fill="#da5b54" d="M 815.5,68.5 C 818.394,69.8823 820.894,71.8823 823,74.5C 823.563,75.7248 823.23,76.7248 822,77.5C 818.774,75.1311 816.608,72.1311 815.5,68.5 Z"/></g>
<g><path style="opacity:1" fill="#1c527f" d="M 1000.5,60.5 C 1001.12,60.6107 1001.62,60.944 1002,61.5C 1002.5,151.499 1002.67,241.499 1002.5,331.5C 1001.58,334.777 1000.74,338.11 1000,341.5C 999.292,342.381 998.458,343.047 997.5,343.5C 998.038,341.883 998.371,340.216 998.5,338.5C 999.469,336.337 1000.3,334.004 1001,331.5C 1001.83,241.139 1001.66,150.805 1000.5,60.5 Z"/></g>
<g><path style="opacity:1" fill="#07569b" d="M 1002.5,331.5 C 1002.67,241.499 1002.5,151.499 1002,61.5C 1001.62,60.944 1001.12,60.6107 1000.5,60.5C 1000.24,54.0864 1001.41,53.4197 1004,58.5C 1004.17,104 1004.33,149.5 1004.5,195C 1004.5,240.838 1003.83,286.338 1002.5,331.5 Z"/></g>
<g><path style="opacity:1" fill="#dc564e" d="M 811.5,72.5 C 814.297,74.795 816.964,77.295 819.5,80C 816.806,83.5508 813.472,86.0508 809.5,87.5C 807.523,85.1862 805.523,82.8528 803.5,80.5C 806.173,77.8001 808.84,75.1335 811.5,72.5 Z"/></g>
<g><path style="opacity:1" fill="#fdbab9" d="M 810.5,76.5 C 816.981,78.6082 817.148,81.2749 811,84.5C 809.167,84 808,82.8333 807.5,81C 808.315,79.3566 809.315,77.8566 810.5,76.5 Z"/></g>
<g><path style="opacity:1" fill="#d66661" d="M 846.5,77.5 C 847.5,77.5 848.5,77.5 849.5,77.5C 849.5,79.5 849.5,81.5 849.5,83.5C 848.5,83.5 847.5,83.5 846.5,83.5C 846.5,81.5 846.5,79.5 846.5,77.5 Z"/></g>
<g><path style="opacity:1" fill="#de564e" d="M 824.5,58.5 C 825.458,59.9616 826.624,61.2949 828,62.5C 828.941,60.9386 830.108,59.6053 831.5,58.5C 832.489,60.5878 832.156,62.5878 830.5,64.5C 831.5,65.8333 832.5,67.1667 833.5,68.5C 833.291,69.086 832.957,69.586 832.5,70C 834.462,73.995 837.462,76.3284 841.5,77C 842.953,74.2948 844.953,73.4615 847.5,74.5C 845.833,76.5 844.167,78.5 842.5,80.5C 843.982,82.4829 845.649,84.3163 847.5,86C 846.975,86.6924 846.308,87.1924 845.5,87.5C 844.019,86.5197 842.685,85.353 841.5,84C 840.5,83.3333 839.5,83.3333 838.5,84C 833.352,89.1558 829.352,94.9892 826.5,101.5C 828.514,101.608 830.18,100.942 831.5,99.5C 832.776,100.386 832.776,101.386 831.5,102.5C 829.057,104.055 826.39,104.722 823.5,104.5C 823.338,102.473 823.505,100.473 824,98.5C 827.923,92.0757 832.423,86.0757 837.5,80.5C 835.517,78.0163 833.35,75.6829 831,73.5C 831,72.1667 831,70.8333 831,69.5C 828,66.5 825,63.5 822,60.5C 821.812,58.9387 822.645,58.272 824.5,58.5 Z"/></g>
<g><path style="opacity:1" fill="#df534b" d="M 821.5,95.5 C 818.833,93.5 816.167,91.5 813.5,89.5C 813.47,88.5028 813.97,87.8361 815,87.5C 816.393,88.6151 817.893,89.1151 819.5,89C 822.017,86.6506 824.35,84.1506 826.5,81.5C 823.679,79.1863 824.012,78.0196 827.5,78C 829.5,80 831.5,82 833.5,84C 831.76,85.827 830.093,85.6603 828.5,83.5C 826.517,85.9837 824.35,88.3171 822,90.5C 822.152,92.0761 822.985,93.4095 824.5,94.5C 823.675,95.3857 822.675,95.719 821.5,95.5 Z"/></g>
<g><path style="opacity:1" fill="#dc564f" d="M 870.5,101.5 C 872.948,101.01 874.615,101.843 875.5,104C 874.575,109.116 874.242,114.283 874.5,119.5C 873.5,119.5 872.5,119.5 871.5,119.5C 871.5,117.5 871.5,115.5 871.5,113.5C 867.167,112.5 864.5,109.833 863.5,105.5C 861.712,105.785 860.045,105.452 858.5,104.5C 862.745,103.935 866.745,102.935 870.5,101.5 Z"/></g>
<g><path style="opacity:1" fill="#d55d57" d="M 831.5,109.5 C 831.5,108.5 831.5,107.5 831.5,106.5C 833.434,105.89 835.101,104.89 836.5,103.5C 837.167,103.5 837.5,103.167 837.5,102.5C 839.374,100.905 840.207,101.239 840,103.5C 837.401,105.879 834.567,107.879 831.5,109.5 Z"/></g>
<g><path style="opacity:1" fill="#fdbaba" d="M 861.5,99.5 C 864.145,101.242 867.145,101.909 870.5,101.5C 866.745,102.935 862.745,103.935 858.5,104.5C 860.045,105.452 861.712,105.785 863.5,105.5C 864.5,109.833 867.167,112.5 871.5,113.5C 871.5,115.5 871.5,117.5 871.5,119.5C 870.833,119.833 870.167,120.167 869.5,120.5C 869.359,117.52 867.859,115.52 865,114.5C 861.223,116.443 858.723,119.443 857.5,123.5C 855.929,124.309 854.262,124.643 852.5,124.5C 852.5,122.5 852.5,120.5 852.5,118.5C 856.664,118.857 859.831,117.19 862,113.5C 862.196,110.575 860.862,108.575 858,107.5C 853.821,109.446 851.655,112.446 851.5,116.5C 849.189,117.961 846.856,118.294 844.5,117.5C 847.194,114.14 850.194,111.14 853.5,108.5C 852.687,107.186 851.687,106.019 850.5,105C 852.324,102.919 853.991,103.085 855.5,105.5C 856.308,105.192 856.975,104.692 857.5,104C 856.313,102.981 855.313,101.814 854.5,100.5C 856.611,99.1515 858.445,99.4848 860,101.5C 860.717,100.956 861.217,100.289 861.5,99.5 Z"/></g>
<g><path style="opacity:1" fill="#feb7b6" d="M 869.5,104.5 C 870.5,104.5 871.5,104.5 872.5,104.5C 872.248,113.045 869.915,113.712 865.5,106.5C 866.949,105.828 868.282,105.161 869.5,104.5 Z"/></g>
<g><path style="opacity:1" fill="#fdb2b0" d="M 842.5,99.5 C 844.403,102.748 846.737,105.748 849.5,108.5C 847.19,112.236 846.523,112.236 847.5,108.5C 846.833,107.167 846.167,107.167 845.5,108.5C 843.506,110.816 842.506,113.482 842.5,116.5C 840.097,116.607 838.264,115.607 837,113.5C 835.198,115.273 835.365,116.94 837.5,118.5C 836.504,118.586 835.671,118.252 835,117.5C 834.51,115.455 834.677,113.455 835.5,111.5C 834.778,111.082 834.278,110.416 834,109.5C 833.023,110.774 832.189,110.774 831.5,109.5C 834.567,107.879 837.401,105.879 840,103.5C 840.207,101.239 839.374,100.905 837.5,102.5C 838.605,100.777 840.272,99.7769 842.5,99.5 Z"/></g>
<g><path style="opacity:1" fill="#d5605a" d="M 835.5,111.5 C 837.051,108.437 839.218,105.771 842,103.5C 841.561,107.451 839.394,110.117 835.5,111.5 Z"/></g>
<g><path style="opacity:1" fill="#d15f59" d="M 843.5,105.5 C 843.883,108.452 842.717,111.119 840,113.5C 839.333,112.5 839.333,111.5 840,110.5C 841.669,109.154 842.836,107.487 843.5,105.5 Z"/></g>
<g><path style="opacity:1" fill="#dd5a52" d="M 861.5,99.5 C 861.217,100.289 860.717,100.956 860,101.5C 858.445,99.4848 856.611,99.1515 854.5,100.5C 855.313,101.814 856.313,102.981 857.5,104C 856.975,104.692 856.308,105.192 855.5,105.5C 853.991,103.085 852.324,102.919 850.5,105C 851.687,106.019 852.687,107.186 853.5,108.5C 850.194,111.14 847.194,114.14 844.5,117.5C 846.856,118.294 849.189,117.961 851.5,116.5C 851.655,112.446 853.821,109.446 858,107.5C 860.862,108.575 862.196,110.575 862,113.5C 859.831,117.19 856.664,118.857 852.5,118.5C 852.5,120.5 852.5,122.5 852.5,124.5C 854.262,124.643 855.929,124.309 857.5,123.5C 858.723,119.443 861.223,116.443 865,114.5C 867.859,115.52 869.359,117.52 869.5,120.5C 867.704,121.793 866.037,123.293 864.5,125C 862.023,123.869 859.857,124.369 858,126.5C 857.502,129.482 857.335,132.482 857.5,135.5C 856.5,135.5 855.5,135.5 854.5,135.5C 855.092,132.873 855.425,130.206 855.5,127.5C 852.473,128.509 849.473,128.509 846.5,127.5C 848.559,126.049 849.559,124.049 849.5,121.5C 846.813,121.664 844.146,121.497 841.5,121C 840.529,119.519 839.196,118.685 837.5,118.5C 835.365,116.94 835.198,115.273 837,113.5C 838.264,115.607 840.097,116.607 842.5,116.5C 842.506,113.482 843.506,110.816 845.5,108.5C 846.167,107.167 846.833,107.167 847.5,108.5C 846.523,112.236 847.19,112.236 849.5,108.5C 846.737,105.748 844.403,102.748 842.5,99.5C 847.146,95.1885 851.813,90.8551 856.5,86.5C 859.484,88.9836 862.318,91.6503 865,94.5C 865.749,95.635 865.583,96.635 864.5,97.5C 861.45,93.1816 859.95,93.515 860,98.5C 860.383,99.056 860.883,99.3893 861.5,99.5 Z"/></g>
<g><path style="opacity:1" fill="#feb7b6" d="M 856.5,110.5 C 860.379,111.836 860.379,113.502 856.5,115.5C 854.07,113.963 854.07,112.296 856.5,110.5 Z"/></g>
<g><path style="opacity:1" fill="#feb6b3" d="M 846.5,98.5 C 849.5,98.1667 850.833,99.5 850.5,102.5C 847.5,102.833 846.167,101.5 846.5,98.5 Z"/></g>
<g><path style="opacity:1" fill="#fdb6b5" d="M 850.5,94.5 C 853.166,94.0658 854.333,95.0658 854,97.5C 852.129,98.6678 850.629,98.1678 849.5,96C 850.056,95.6174 850.389,95.1174 850.5,94.5 Z"/></g>
<g><path style="opacity:1" fill="#ffb4b3" d="M 854.5,90.5 C 857.5,90.1667 858.833,91.5 858.5,94.5C 855.5,94.8333 854.167,93.5 854.5,90.5 Z"/></g>
<g><path style="opacity:1" fill="#feb9b9" d="M 863.5,117.5 C 867.379,118.836 867.379,120.502 863.5,122.5C 861.07,120.963 861.07,119.296 863.5,117.5 Z"/></g>
<g><path style="opacity:1" fill="#dc5c54" d="M 881.5,118.5 C 883.225,118.843 883.725,119.843 883,121.5C 879.325,125.079 875.158,127.745 870.5,129.5C 870.281,128.325 870.614,127.325 871.5,126.5C 875.165,124.159 878.499,121.493 881.5,118.5 Z"/></g>
<g><path style="opacity:1" fill="#dc554d" d="M 889.5,121.5 C 887.197,122.654 886.863,124.321 888.5,126.5C 886.758,131.749 885.591,131.416 885,125.5C 878.244,132.761 871.078,139.428 863.5,145.5C 863.351,144.448 863.517,143.448 864,142.5C 872.167,134.333 880.333,126.167 888.5,118C 889.635,117.251 890.635,117.417 891.5,118.5C 890.807,119.518 890.141,120.518 889.5,121.5 Z"/></g>
<g><path style="opacity:1" fill="#fec2c5" d="M 889.5,121.5 C 888.99,124.388 889.656,126.721 891.5,128.5C 888.667,130.75 885.667,132.75 882.5,134.5C 882.808,135.308 883.308,135.975 884,136.5C 888.087,132.269 891.587,132.602 894.5,137.5C 892.833,139.833 890.833,141.833 888.5,143.5C 886.167,141.5 883.833,139.5 881.5,137.5C 880.417,138.365 880.251,139.365 881,140.5C 882.892,142.054 884.392,143.888 885.5,146C 883.869,149.66 881.203,151.66 877.5,152C 875.317,149.65 872.984,147.483 870.5,145.5C 869.614,146.325 869.281,147.325 869.5,148.5C 867.588,147.201 865.588,146.201 863.5,145.5C 871.078,139.428 878.244,132.761 885,125.5C 885.591,131.416 886.758,131.749 888.5,126.5C 886.863,124.321 887.197,122.654 889.5,121.5 Z"/></g>
<g><path style="opacity:1" fill="#df5148" d="M 869.5,148.5 C 869.281,147.325 869.614,146.325 870.5,145.5C 872.984,147.483 875.317,149.65 877.5,152C 881.203,151.66 883.869,149.66 885.5,146C 884.392,143.888 882.892,142.054 881,140.5C 880.251,139.365 880.417,138.365 881.5,137.5C 883.833,139.5 886.167,141.5 888.5,143.5C 890.833,141.833 892.833,139.833 894.5,137.5C 891.587,132.602 888.087,132.269 884,136.5C 883.308,135.975 882.808,135.308 882.5,134.5C 885.667,132.75 888.667,130.75 891.5,128.5C 893.511,126.613 895.511,126.446 897.5,128C 896.315,129.353 894.981,130.52 893.5,131.5C 894.5,132.833 895.5,134.167 896.5,135.5C 898.316,134.185 899.983,132.685 901.5,131C 902.635,130.251 903.635,130.417 904.5,131.5C 902.833,133.5 901.167,135.5 899.5,137.5C 901.5,139.833 903.5,142.167 905.5,144.5C 904.635,145.583 903.635,145.749 902.5,145C 898.27,138.852 894.604,139.185 891.5,146C 892.27,147.775 893.437,149.275 895,150.5C 895.749,151.635 895.583,152.635 894.5,153.5C 892.5,151.833 890.5,150.167 888.5,148.5C 885.257,150.548 883.09,153.215 882,156.5C 883.667,158.167 885.333,159.833 887,161.5C 887.749,162.635 887.583,163.635 886.5,164.5C 880.813,159.145 875.146,153.812 869.5,148.5 Z"/></g>
<g><path style="opacity:1" fill="#2b5571" d="M 313.5,148.5 C 311.5,147.167 309.5,147.167 307.5,148.5C 306.325,148.719 305.325,148.386 304.5,147.5C 308.5,146.167 312.5,146.167 316.5,147.5C 315.675,148.386 314.675,148.719 313.5,148.5 Z"/></g>
<g><path style="opacity:1" fill="#2b566e" d="M 333.5,148.5 C 330.833,147.167 328.167,147.167 325.5,148.5C 324.624,148.631 323.957,148.298 323.5,147.5C 327.5,146.167 331.5,146.167 335.5,147.5C 335.043,148.298 334.376,148.631 333.5,148.5 Z"/></g>
<g><path style="opacity:1" fill="#14548d" d="M 313.5,148.5 C 313.5,148.833 313.5,149.167 313.5,149.5C 312.517,153.298 312.183,157.298 312.5,161.5C 317.5,161.5 322.5,161.5 327.5,161.5C 327.817,157.298 327.483,153.298 326.5,149.5C 326.5,148.833 326.167,148.5 325.5,148.5C 328.167,147.167 330.833,147.167 333.5,148.5C 332.883,148.611 332.383,148.944 332,149.5C 331.333,158.5 331.333,167.5 332,176.5C 333.205,177.071 334.372,177.738 335.5,178.5C 331.5,179.833 327.5,179.833 323.5,178.5C 324.628,177.738 325.795,177.071 327,176.5C 327.499,172.179 327.666,167.846 327.5,163.5C 322.5,163.5 317.5,163.5 312.5,163.5C 312.334,167.846 312.501,172.179 313,176.5C 314.205,177.071 315.372,177.738 316.5,178.5C 312.5,179.833 308.5,179.833 304.5,178.5C 305.628,177.738 306.795,177.071 308,176.5C 308.805,167.089 308.638,157.756 307.5,148.5C 309.5,147.167 311.5,147.167 313.5,148.5 Z"/></g>
<g><path style="opacity:1" fill="#17558d" d="M 760.5,163.5 C 760.5,163.833 760.5,164.167 760.5,164.5C 760.5,165.167 760.5,165.833 760.5,166.5C 760.335,169.85 760.502,173.183 761,176.5C 762.509,177.09 764.009,177.756 765.5,178.5C 760.833,179.833 756.167,179.833 751.5,178.5C 753.193,177.772 754.693,176.772 756,175.5C 756.667,167.167 756.667,158.833 756,150.5C 755.283,149.956 754.783,149.289 754.5,148.5C 755.919,147.549 757.585,147.216 759.5,147.5C 759.179,153.026 759.512,158.36 760.5,163.5 Z"/></g>
<g><path style="opacity:1" fill="#7ea3c4" d="M 619.5,154.5 C 620.404,155.209 620.737,156.209 620.5,157.5C 618.5,157.5 616.5,157.5 614.5,157.5C 616.531,157.028 618.198,156.028 619.5,154.5 Z"/></g>
<g><path style="opacity:1" fill="#f0f8fb" d="M 760.5,164.5 C 760.5,164.167 760.5,163.833 760.5,163.5C 760.5,158.5 760.5,153.5 760.5,148.5C 767,147.4 770.334,150.066 770.5,156.5C 770.334,162.934 767,165.6 760.5,164.5 Z"/></g>
<g><path style="opacity:1" fill="#265a8a" d="M 840.5,154.5 C 847.148,152.71 850.814,155.043 851.5,161.5C 848.891,161.17 847.224,159.67 846.5,157C 840.052,156.651 837.385,159.818 838.5,166.5C 838.078,176.098 842.078,178.764 850.5,174.5C 851.881,177.318 850.881,178.818 847.5,179C 837.985,180.153 833.652,175.82 834.5,166C 834.025,160.781 836.025,156.948 840.5,154.5 Z"/></g>
<g><path style="opacity:1" fill="#fcbec0" d="M 921.5,157.5 C 921.167,158.167 920.833,158.833 920.5,159.5C 919.624,159.369 918.957,159.702 918.5,160.5C 919.383,161.548 920.05,162.715 920.5,164C 913.936,171.439 905.936,175.939 896.5,177.5C 895.566,176.432 895.232,175.099 895.5,173.5C 899.329,174.069 902.663,173.402 905.5,171.5C 906.376,171.631 907.043,171.298 907.5,170.5C 906.653,169.155 905.487,168.155 904,167.5C 903.333,166.833 903.333,166.167 904,165.5C 907.5,162 911,158.5 914.5,155C 915.5,154.333 916.5,154.333 917.5,155C 918.471,156.481 919.804,157.315 921.5,157.5 Z"/></g>
<g><path style="opacity:1" fill="#2b5f90" d="M 619.5,154.5 C 618.198,156.028 616.531,157.028 614.5,157.5C 614.334,163.509 614.501,169.509 615,175.5C 616.491,177.004 618.324,177.837 620.5,178C 616.669,180.445 613.503,179.945 611,176.5C 610.5,170.175 610.334,163.842 610.5,157.5C 609.022,157.762 607.689,157.429 606.5,156.5C 609.39,154.957 611.057,152.624 611.5,149.5C 612.5,149.5 613.5,149.5 614.5,149.5C 614.5,151.167 614.5,152.833 614.5,154.5C 616.167,154.5 617.833,154.5 619.5,154.5 Z"/></g>
<g><path style="opacity:1" fill="#245a8d" d="M 653.5,154.5 C 655.833,154.5 658.167,154.5 660.5,154.5C 660.367,159.272 661.7,159.438 664.5,155C 668.793,153.798 672.293,154.965 675,158.5C 675.333,164.5 675.667,170.5 676,176.5C 677.205,177.071 678.372,177.738 679.5,178.5C 676.914,179.48 674.247,179.813 671.5,179.5C 671.666,172.825 671.5,166.158 671,159.5C 666.882,156.408 663.549,157.075 661,161.5C 660.333,166.5 660.333,171.5 661,176.5C 662.205,177.071 663.372,177.738 664.5,178.5C 660.5,179.833 656.5,179.833 652.5,178.5C 653.628,177.738 654.795,177.071 656,176.5C 656.667,170.167 656.667,163.833 656,157.5C 654.583,156.922 653.75,155.922 653.5,154.5 Z"/></g>
<g><path style="opacity:1" fill="#2b5f93" d="M 575.5,154.5 C 578.972,153.963 581.805,154.963 584,157.5C 587.419,154.152 591.252,153.652 595.5,156C 596.46,157.419 597.293,158.919 598,160.5C 598.499,166.157 598.666,171.824 598.5,177.5C 599.675,177.281 600.675,177.614 601.5,178.5C 598.914,179.48 596.247,179.813 593.5,179.5C 593.666,172.825 593.5,166.158 593,159.5C 589.706,156.689 586.706,157.022 584,160.5C 583.333,165.833 583.333,171.167 584,176.5C 585.205,177.071 586.372,177.738 587.5,178.5C 583.5,179.833 579.5,179.833 575.5,178.5C 576.628,177.738 577.795,177.071 579,176.5C 579.667,170.167 579.667,163.833 579,157.5C 577.271,157.026 576.105,156.026 575.5,154.5 Z"/></g>
<g><path style="opacity:1" fill="#275b8c" d="M 729.5,160.5 C 729.5,162.5 729.5,164.5 729.5,166.5C 724.637,166.181 719.97,166.514 715.5,167.5C 716.207,177.022 720.541,179.022 728.5,173.5C 729.754,175.259 729.421,176.759 727.5,178C 722.034,180.548 717.2,179.714 713,175.5C 711.508,170.589 711.174,165.589 712,160.5C 715.363,154.516 720.197,153.016 726.5,156C 727.883,157.271 728.883,158.771 729.5,160.5 Z"/></g>
<g><path style="opacity:1" fill="#285d8f" d="M 810.5,154.5 C 814.273,154.263 817.94,154.763 821.5,156C 822.126,156.75 822.626,157.584 823,158.5C 823.333,164.5 823.667,170.5 824,176.5C 824.925,177.047 825.758,177.713 826.5,178.5C 824.604,179.466 822.604,179.799 820.5,179.5C 820.762,178.022 820.429,176.689 819.5,175.5C 817.064,179.08 813.73,180.246 809.5,179C 805.209,175.552 804.542,171.552 807.5,167C 811.253,165.011 815.253,164.178 819.5,164.5C 820.822,159.007 818.822,156.507 813.5,157C 811.963,158.11 811.297,159.61 811.5,161.5C 809.365,161.853 808.032,161.02 807.5,159C 808.315,157.357 809.315,155.857 810.5,154.5 Z"/></g>
<g><path style="opacity:1" fill="#255b90" d="M 476.5,169.5 C 476.5,166.833 476.5,164.167 476.5,161.5C 480.072,154.043 485.238,152.71 492,157.5C 492.667,154.167 492.667,150.833 492,147.5C 490.795,146.929 489.628,146.262 488.5,145.5C 491.086,144.52 493.753,144.187 496.5,144.5C 496.333,155.172 496.5,165.839 497,176.5C 498.205,177.071 499.372,177.738 500.5,178.5C 498.257,179.474 495.924,179.808 493.5,179.5C 493.762,178.022 493.429,176.689 492.5,175.5C 489.253,179.654 485.253,180.487 480.5,178C 478.346,175.544 477.013,172.711 476.5,169.5 Z"/></g>
<g><path style="opacity:1" fill="#1e588e" d="M 781.5,154.5 C 786.061,153.58 788.895,155.246 790,159.5C 792.164,154.338 795.498,153.338 800,156.5C 800.854,158.607 800.188,159.941 798,160.5C 794.284,156.177 791.617,156.843 790,162.5C 789.333,167.167 789.333,171.833 790,176.5C 791.509,177.09 793.009,177.756 794.5,178.5C 790.167,179.833 785.833,179.833 781.5,178.5C 782.628,177.738 783.795,177.071 785,176.5C 785.667,170.167 785.667,163.833 785,157.5C 783.271,157.026 782.105,156.026 781.5,154.5 Z"/></g>
<g><path style="opacity:1" fill="#b8daf6" d="M 313.5,149.5 C 313.5,153.167 313.5,156.833 313.5,160.5C 317.833,160.5 322.167,160.5 326.5,160.5C 326.5,156.833 326.5,153.167 326.5,149.5C 327.483,153.298 327.817,157.298 327.5,161.5C 322.5,161.5 317.5,161.5 312.5,161.5C 312.183,157.298 312.517,153.298 313.5,149.5 Z"/></g>
<g><path style="opacity:1" fill="#265b8e" d="M 526.5,146.5 C 530.637,146.146 534.637,146.646 538.5,148C 541.487,151.208 540.82,153.041 536.5,153.5C 535.826,148.849 533.159,147.349 528.5,149C 525.657,152.619 525.99,155.952 529.5,159C 533.419,160.54 536.919,162.707 540,165.5C 542.397,176.439 537.897,180.939 526.5,179C 522.329,177.55 520.995,174.883 522.5,171C 523.448,170.517 524.448,170.351 525.5,170.5C 526.07,177.225 529.403,179.058 535.5,176C 538.167,173 538.167,170 535.5,167C 530.087,165.387 525.92,162.22 523,157.5C 521.662,152.96 522.829,149.293 526.5,146.5 Z"/></g>
<g><path style="opacity:1" fill="#ebf9fc" d="M 717.5,157.5 C 723.334,156.337 726,158.671 725.5,164.5C 722.167,164.5 718.833,164.5 715.5,164.5C 715.394,161.921 716.061,159.588 717.5,157.5 Z"/></g>
<g><path style="opacity:1" fill="#245986" d="M 760.5,166.5 C 760.5,165.833 760.5,165.167 760.5,164.5C 767,165.6 770.334,162.934 770.5,156.5C 770.334,150.066 767,147.4 760.5,148.5C 760.5,153.5 760.5,158.5 760.5,163.5C 759.512,158.36 759.179,153.026 759.5,147.5C 757.585,147.216 755.919,147.549 754.5,148.5C 753.325,148.719 752.325,148.386 751.5,147.5C 758.69,145.887 765.69,146.387 772.5,149C 776.748,154.862 776.081,160.195 770.5,165C 767.274,166.199 763.941,166.699 760.5,166.5 Z"/></g>
<g><path style="opacity:1" fill="#ecf7fa" d="M 483.5,157.5 C 486.97,156.875 489.804,157.875 492,160.5C 492.667,164.833 492.667,169.167 492,173.5C 488.492,177.436 485.159,177.436 482,173.5C 481.003,167.95 481.503,162.617 483.5,157.5 Z"/></g>
<g><path style="opacity:1" fill="#21588b" d="M 645.5,161.5 C 645.5,163.167 645.5,164.833 645.5,166.5C 640.637,166.181 635.97,166.514 631.5,167.5C 631.654,176.515 635.654,178.848 643.5,174.5C 643.833,175 644.167,175.5 644.5,176C 641.601,179.336 637.934,180.336 633.5,179C 631.714,178.215 630.214,177.049 629,175.5C 627.508,170.589 627.174,165.589 628,160.5C 631.363,154.516 636.197,153.016 642.5,156C 644.16,157.488 645.16,159.321 645.5,161.5 Z"/></g>
<g><path style="opacity:1" fill="#eaf9fc" d="M 633.5,157.5 C 639.334,156.337 642,158.671 641.5,164.5C 638.167,164.5 634.833,164.5 631.5,164.5C 631.394,161.921 632.061,159.588 633.5,157.5 Z"/></g>
<g><path style="opacity:1" fill="#91b6d6" d="M 568.5,166.5 C 564.03,167.486 559.363,167.819 554.5,167.5C 554.5,168.833 554.5,170.167 554.5,171.5C 553.549,170.081 553.216,168.415 553.5,166.5C 558.5,166.5 563.5,166.5 568.5,166.5 Z"/></g>
<g><path style="opacity:1" fill="#8eb1cf" d="M 645.5,161.5 C 646.461,163.265 646.795,165.265 646.5,167.5C 641.5,167.5 636.5,167.5 631.5,167.5C 635.97,166.514 640.637,166.181 645.5,166.5C 645.5,164.833 645.5,163.167 645.5,161.5 Z"/></g>
<g><path style="opacity:1" fill="#90b3d1" d="M 729.5,160.5 C 730.468,162.607 730.802,164.941 730.5,167.5C 725.5,167.5 720.5,167.5 715.5,167.5C 719.97,166.514 724.637,166.181 729.5,166.5C 729.5,164.5 729.5,162.5 729.5,160.5 Z"/></g>
<g><path style="opacity:1" fill="#295b88" d="M 409.5,154.5 C 412.572,154.183 415.572,154.516 418.5,155.5C 417.23,156.288 416.23,157.288 415.5,158.5C 412.91,165.099 410.41,171.766 408,178.5C 406.384,179.801 404.884,179.801 403.5,178.5C 401.242,172.227 399.076,165.894 397,159.5C 396.363,157.697 395.197,156.364 393.5,155.5C 397.167,154.167 400.833,154.167 404.5,155.5C 403.675,156.386 402.675,156.719 401.5,156.5C 402.229,162.853 404.063,168.853 407,174.5C 408.933,169.533 410.767,164.533 412.5,159.5C 411.733,157.643 410.733,155.976 409.5,154.5 Z"/></g>
<g><path style="opacity:1" fill="#e05148" d="M 921.5,157.5 C 919.804,157.315 918.471,156.481 917.5,155C 916.5,154.333 915.5,154.333 914.5,155C 911,158.5 907.5,162 904,165.5C 903.333,166.167 903.333,166.833 904,167.5C 905.487,168.155 906.653,169.155 907.5,170.5C 907.043,171.298 906.376,171.631 905.5,171.5C 901.727,169.779 898.061,167.779 894.5,165.5C 893.167,164.167 893.167,162.833 894.5,161.5C 896.487,163.501 898.82,164.335 901.5,164C 905.333,160.167 909.167,156.333 913,152.5C 912.973,150.583 912.139,148.916 910.5,147.5C 911,147.167 911.5,146.833 912,146.5C 916.486,149.144 919.653,152.811 921.5,157.5 Z"/></g>
<g><path style="opacity:1" fill="#edf7fb" d="M 380.5,155.5 C 381.413,153.914 381.413,152.414 380.5,151C 384.086,150.208 387.253,151.041 390,153.5C 395.116,152.575 400.283,152.242 405.5,152.5C 405.5,154.167 405.5,155.833 405.5,157.5C 404.5,157.5 403.5,157.5 402.5,157.5C 402.841,160.516 404.007,163.182 406,165.5C 406.17,163.285 406.837,161.285 408,159.5C 408.579,163.386 409.412,163.386 410.5,159.5C 408.516,157.954 408.183,156.287 409.5,154.5C 410.733,155.976 411.733,157.643 412.5,159.5C 410.767,164.533 408.933,169.533 407,174.5C 404.063,168.853 402.229,162.853 401.5,156.5C 402.675,156.719 403.675,156.386 404.5,155.5C 400.833,154.167 397.167,154.167 393.5,155.5C 395.197,156.364 396.363,157.697 397,159.5C 399.076,165.894 401.242,172.227 403.5,178.5C 401.554,176.293 399.388,174.293 397,172.5C 397.029,168.666 396.696,164.666 396,160.5C 395.692,159.692 395.192,159.025 394.5,158.5C 391.334,160.833 387.834,162.499 384,163.5C 383.05,162.978 382.216,162.311 381.5,161.5C 380.507,164.238 380.841,166.905 382.5,169.5C 381.054,171.618 380.387,173.951 380.5,176.5C 382.199,176.34 383.866,176.506 385.5,177C 386.833,178 386.833,179 385.5,180C 382.667,180.167 379.833,180.333 377,180.5C 373.724,180.442 370.724,179.776 368,178.5C 363.751,179.696 359.584,181.029 355.5,182.5C 354.304,182.154 354.304,181.654 355.5,181C 351.689,181.083 348.355,180.25 345.5,178.5C 350.031,180.325 353.864,179.325 357,175.5C 357.49,176.793 357.657,178.127 357.5,179.5C 359.604,179.799 361.604,179.466 363.5,178.5C 361.964,171.605 360.797,164.605 360,157.5C 356.276,154.76 352.109,153.926 347.5,155C 344.881,157.257 344.881,159.423 347.5,161.5C 348.625,157.201 351.292,155.701 355.5,157C 356.435,159.381 356.768,161.881 356.5,164.5C 353.833,164.5 351.167,164.5 348.5,164.5C 347.359,162.912 345.859,161.579 344,160.5C 343.333,157.833 343.333,155.167 344,152.5C 344.308,153.308 344.808,153.975 345.5,154.5C 347.167,153.167 348.833,151.833 350.5,150.5C 351.598,151.615 352.765,151.615 354,150.5C 356.405,151.953 358.905,153.287 361.5,154.5C 362.135,161.808 362.802,169.141 363.5,176.5C 364.33,170.528 364.83,164.528 365,158.5C 366.031,159.7 366.865,161.034 367.5,162.5C 366.036,167.317 366.203,171.984 368,176.5C 367.741,170.635 368.241,164.468 369.5,158C 368.692,157.692 368.025,157.192 367.5,156.5C 368.246,155.264 368.579,153.93 368.5,152.5C 371.518,152.335 374.518,152.502 377.5,153C 378.078,154.417 379.078,155.25 380.5,155.5 Z"/></g>
<g><path style="opacity:1" fill="#1f5688" d="M 380.5,155.5 C 384.392,153.583 387.392,154.417 389.5,158C 387.947,161.283 386.281,161.283 384.5,158C 381.702,157.439 379.869,158.606 379,161.5C 378.333,166.5 378.333,171.5 379,176.5C 380.509,177.09 382.009,177.756 383.5,178.5C 379.167,179.833 374.833,179.833 370.5,178.5C 371.628,177.738 372.795,177.071 374,176.5C 374.667,170.167 374.667,163.833 374,157.5C 369.582,156.042 369.582,155.042 374,154.5C 376.255,154.61 377.922,155.61 379,157.5C 379.717,156.956 380.217,156.289 380.5,155.5 Z"/></g>
<g><path style="opacity:1" fill="#23598d" d="M 693.5,154.5 C 697.115,154.206 700.282,155.206 703,157.5C 703.847,160.49 702.68,161.824 699.5,161.5C 698.661,156.332 696.161,155.332 692,158.5C 690.466,162.711 690.133,167.044 691,171.5C 692.077,176.115 694.91,177.615 699.5,176C 700.931,175.535 702.097,174.701 703,173.5C 703.68,175.976 702.847,177.809 700.5,179C 695.563,180.369 691.396,179.203 688,175.5C 686.508,170.589 686.174,165.589 687,160.5C 688.436,157.558 690.603,155.558 693.5,154.5 Z"/></g>
<g><path style="opacity:1" fill="#245a8c" d="M 568.5,166.5 C 563.5,166.5 558.5,166.5 553.5,166.5C 553.216,168.415 553.549,170.081 554.5,171.5C 555.843,176.078 558.843,177.578 563.5,176C 564.931,175.535 566.097,174.701 567,173.5C 567.711,175.367 567.211,176.867 565.5,178C 559.61,180.879 554.776,179.712 551,174.5C 548.69,168.638 549.024,162.971 552,157.5C 557.862,153.252 563.195,153.919 568,159.5C 568.497,161.81 568.663,164.143 568.5,166.5 Z"/></g>
<g><path style="opacity:1" fill="#ebf7fa" d="M 556.5,157.5 C 562.284,156.284 564.951,158.618 564.5,164.5C 561.167,164.5 557.833,164.5 554.5,164.5C 554.166,161.812 554.832,159.479 556.5,157.5 Z"/></g>
<g><path style="opacity:1" fill="#eff9fb" d="M 812.5,166.5 C 814.833,166.5 817.167,166.5 819.5,166.5C 820.701,173.795 817.868,176.795 811,175.5C 810.068,172.177 810.568,169.177 812.5,166.5 Z"/></g>
<g><path style="opacity:1" fill="#e05148" d="M 896.5,177.5 C 905.936,175.939 913.936,171.439 920.5,164C 920.05,162.715 919.383,161.548 918.5,160.5C 918.957,159.702 919.624,159.369 920.5,159.5C 921.458,159.953 922.292,160.619 923,161.5C 925.309,160.025 927.476,158.358 929.5,156.5C 930.583,157.365 930.749,158.365 930,159.5C 928.5,161 927,162.5 925.5,164C 928.922,166.719 931.422,169.886 933,173.5C 926.616,179.555 919.949,185.222 913,190.5C 908.893,189.23 906.393,186.564 905.5,182.5C 908.325,183.143 910.825,184.477 913,186.5C 919.123,182.711 924.29,177.878 928.5,172C 927.256,169.618 925.423,167.785 923,166.5C 915.908,174.364 907.075,178.031 896.5,177.5 Z"/></g>
<g><path style="opacity:1" fill="#f0f8fb" d="M 476.5,161.5 C 476.5,164.167 476.5,166.833 476.5,169.5C 475.009,166.28 473.509,162.946 472,159.5C 470.152,161.953 467.652,162.953 464.5,162.5C 464.388,157.407 463.555,157.407 462,162.5C 461.501,167.155 461.334,171.821 461.5,176.5C 463.167,176.5 464.833,176.5 466.5,176.5C 466.815,178.226 466.981,179.893 467,181.5C 461.377,180.205 455.71,180.205 450,181.5C 449.5,181.333 449,181.167 448.5,181C 450.421,179.759 450.754,178.259 449.5,176.5C 448.59,178.655 447.423,180.655 446,182.5C 444.82,181.316 443.32,180.649 441.5,180.5C 436.972,180.739 432.305,180.906 427.5,181C 427,181.5 426.5,182 426,182.5C 423.605,178.149 422.105,173.482 421.5,168.5C 422.648,166.851 423.981,165.351 425.5,164C 424.061,163.009 423.061,161.676 422.5,160C 423.167,159.667 423.833,159.333 424.5,159C 421.606,157.433 418.606,157.267 415.5,158.5C 416.23,157.288 417.23,156.288 418.5,155.5C 415.572,154.516 412.572,154.183 409.5,154.5C 411.633,152.661 414.3,151.661 417.5,151.5C 419.529,152.551 421.363,153.885 423,155.5C 428.602,153.458 434.436,152.958 440.5,154C 441.892,156.228 443.892,157.394 446.5,157.5C 446.489,159.547 446.156,161.547 445.5,163.5C 445.556,164.737 446.056,165.737 447,166.5C 447.333,164.833 447.667,163.167 448,161.5C 448.059,166.348 448.726,171.015 450,175.5C 450.5,167.841 450.666,160.174 450.5,152.5C 454.106,152.211 457.606,152.544 461,153.5C 463.314,150.592 466.147,149.925 469.5,151.5C 469.351,152.552 469.517,153.552 470,154.5C 472.649,156.529 474.815,158.862 476.5,161.5 Z"/></g>
<g><path style="opacity:1" fill="#275b8b" d="M 429.5,154.5 C 434.535,153.502 438.702,154.835 442,158.5C 442.333,164.5 442.667,170.5 443,176.5C 443.925,177.047 444.758,177.713 445.5,178.5C 443.604,179.466 441.604,179.799 439.5,179.5C 439.762,178.022 439.429,176.689 438.5,175.5C 434.834,179.735 430.668,180.402 426,177.5C 423.226,167.098 427.393,162.765 438.5,164.5C 439.667,158.504 437.334,156.004 431.5,157C 430.62,158.356 430.286,159.856 430.5,161.5C 428.052,161.915 426.719,160.915 426.5,158.5C 426.787,156.557 427.787,155.223 429.5,154.5 Z"/></g>
<g><path style="opacity:1" fill="#eaf6fa" d="M 431.5,166.5 C 433.833,166.5 436.167,166.5 438.5,166.5C 439.605,173.87 436.605,177.037 429.5,176C 427.861,172.327 428.528,169.16 431.5,166.5 Z"/></g>
<g><path style="opacity:1" fill="#155793" d="M 459.5,176.5 C 465.928,178.379 465.428,179.379 458,179.5C 455.833,179.167 453.667,178.833 451.5,178.5C 452.766,177.638 454.099,176.971 455.5,176.5C 456.167,171.319 456.833,165.985 457.5,160.5C 458.167,165.985 458.833,171.319 459.5,176.5 Z"/></g>
<g><path style="opacity:1" fill="#255988" d="M 459.5,176.5 C 458.833,171.319 458.167,165.985 457.5,160.5C 456.833,165.985 456.167,171.319 455.5,176.5C 455.666,170.158 455.5,163.825 455,157.5C 450.582,156.042 450.582,155.042 455,154.5C 458.21,154.568 459.877,156.234 460,159.5C 461.366,155.234 464.199,153.734 468.5,155C 471.303,157.222 471.137,159.055 468,160.5C 464.284,156.177 461.617,156.843 460,162.5C 459.501,167.155 459.334,171.821 459.5,176.5 Z"/></g>
<g><path style="opacity:1" fill="#2c5f8f" d="M 345.5,178.5 C 342.123,172.809 343.123,168.142 348.5,164.5C 351.167,164.5 353.833,164.5 356.5,164.5C 356.768,161.881 356.435,159.381 355.5,157C 351.292,155.701 348.625,157.201 347.5,161.5C 344.881,159.423 344.881,157.257 347.5,155C 352.109,153.926 356.276,154.76 360,157.5C 360.797,164.605 361.964,171.605 363.5,178.5C 361.604,179.466 359.604,179.799 357.5,179.5C 357.657,178.127 357.49,176.793 357,175.5C 353.864,179.325 350.031,180.325 345.5,178.5 Z"/></g>
<g><path style="opacity:1" fill="#e6f3f8" d="M 350.5,166.5 C 352.833,166.5 355.167,166.5 357.5,166.5C 358.535,174.305 355.368,177.305 348,175.5C 346.779,171.718 347.613,168.718 350.5,166.5 Z"/></g>
<g><path style="opacity:1" fill="#306193" d="M 862.5,164.5 C 863.833,165.167 864.833,166.167 865.5,167.5C 865.336,170.187 865.503,172.854 866,175.5C 867.491,177.004 869.324,177.837 871.5,178C 863.877,181.561 860.544,179.061 861.5,170.5C 861.505,168.304 861.838,166.304 862.5,164.5 Z"/></g>
<g><path style="opacity:1" fill="#226290" d="M 129.5,191.5 C 128.834,188.311 128.167,184.977 127.5,181.5C 126.167,189.167 126.167,196.833 127.5,204.5C 128.167,201.358 128.834,198.358 129.5,195.5C 129.5,198.833 129.5,202.167 129.5,205.5C 128.432,206.434 127.099,206.768 125.5,206.5C 125.5,197.833 125.5,189.167 125.5,180.5C 126.833,180.5 128.167,180.5 129.5,180.5C 129.5,184.167 129.5,187.833 129.5,191.5 Z"/></g>
<g><path style="opacity:1" fill="#1a66a4" d="M 141.5,179.5 C 143.099,179.232 144.432,179.566 145.5,180.5C 145.5,188.833 145.5,197.167 145.5,205.5C 144.5,205.5 143.5,205.5 142.5,205.5C 142.5,201.833 142.5,198.167 142.5,194.5C 137.968,194.182 133.634,194.515 129.5,195.5C 128.834,198.358 128.167,201.358 127.5,204.5C 126.167,196.833 126.167,189.167 127.5,181.5C 128.167,184.977 128.834,188.311 129.5,191.5C 133.5,191.5 137.5,191.5 141.5,191.5C 141.5,187.5 141.5,183.5 141.5,179.5 Z"/></g>
<g><path style="opacity:1" fill="#df574e" d="M 937.5,179.5 C 937.5,179.167 937.5,178.833 937.5,178.5C 942.181,178.331 946.848,177.998 951.5,177.5C 951.5,178.5 951.5,179.5 951.5,180.5C 948.278,180.108 945.278,180.608 942.5,182C 944.017,183.685 945.684,185.185 947.5,186.5C 948.281,185.263 949.281,184.263 950.5,183.5C 951.652,186.106 951.818,188.773 951,191.5C 950.29,192.973 949.124,193.64 947.5,193.5C 947.657,192.127 947.49,190.793 947,189.5C 944,186.833 941,184.167 938,181.5C 937.536,180.906 937.369,180.239 937.5,179.5 Z"/></g>
<g><path style="opacity:1" fill="#d3ecf5" d="M 141.5,179.5 C 141.5,183.5 141.5,187.5 141.5,191.5C 137.5,191.5 133.5,191.5 129.5,191.5C 129.5,187.833 129.5,184.167 129.5,180.5C 128.167,180.5 126.833,180.5 125.5,180.5C 125.5,189.167 125.5,197.833 125.5,206.5C 124.507,197.682 124.173,188.682 124.5,179.5C 126.5,179.5 128.5,179.5 130.5,179.5C 130.5,182.833 130.5,186.167 130.5,189.5C 133.833,189.5 137.167,189.5 140.5,189.5C 140.187,185.958 140.521,182.625 141.5,179.5 Z"/></g>
<g><path style="opacity:1" fill="#1c669f" d="M 249.5,205.5 C 248.352,204.105 247.352,204.272 246.5,206C 236.841,206.651 233.341,202.151 236,192.5C 238.847,187.481 243.013,186.148 248.5,188.5C 249.505,186.296 249.838,183.296 249.5,179.5C 250.5,179.5 251.5,179.5 252.5,179.5C 252.5,188.167 252.5,196.833 252.5,205.5C 251.5,205.5 250.5,205.5 249.5,205.5 Z"/></g>
<g><path style="opacity:1" fill="#e6f5fa" d="M 253.5,178.5 C 254.829,188.569 254.829,198.735 253.5,209C 248.582,209.195 243.749,209.695 239,210.5C 237.513,209.747 237.346,208.914 238.5,208C 236.939,207.682 235.772,206.849 235,205.5C 234.501,201.179 234.334,196.846 234.5,192.5C 232.418,192.472 230.584,193.139 229,194.5C 228.823,198.356 228.323,202.023 227.5,205.5C 227.334,201.486 227.501,197.486 228,193.5C 229.789,191.771 231.956,191.104 234.5,191.5C 233.677,187.081 231.51,186.414 228,189.5C 226.951,187.893 225.451,187.227 223.5,187.5C 223.5,193.833 223.5,200.167 223.5,206.5C 224.833,206.5 226.167,206.5 227.5,206.5C 223.849,207.165 220.015,207.499 216,207.5C 211.771,207.49 207.938,206.823 204.5,205.5C 203.178,205.67 202.011,205.337 201,204.5C 200.692,205.308 200.192,205.975 199.5,206.5C 198.949,204.587 198.782,202.587 199,200.5C 198.583,201.756 197.75,202.423 196.5,202.5C 196.532,207.213 194.199,208.713 189.5,207C 187.578,202.046 185.411,197.213 183,192.5C 182.692,193.308 182.192,193.975 181.5,194.5C 180.575,193.359 179.741,193.359 179,194.5C 178.197,198.129 177.697,202.296 177.5,207C 174.833,207.333 172.167,207.667 169.5,208C 166.725,210.916 163.892,211.082 161,208.5C 155.649,210.768 151.649,209.435 149,204.5C 149.042,207.655 147.209,209.655 143.5,210.5C 141.559,210.196 139.893,209.363 138.5,208C 139,207.5 139.5,207 140,206.5C 140.498,203.183 140.665,199.85 140.5,196.5C 137.167,196.5 133.833,196.5 130.5,196.5C 130.81,199.713 130.477,202.713 129.5,205.5C 129.5,202.167 129.5,198.833 129.5,195.5C 133.5,195.5 137.5,195.5 141.5,195.5C 141.5,199.167 141.5,202.833 141.5,206.5C 143.167,206.5 144.833,206.5 146.5,206.5C 146.5,198.167 146.5,189.833 146.5,181.5C 146.917,185.65 148.083,189.65 150,193.5C 150.303,191.112 151.137,188.945 152.5,187C 156.167,186.667 159.833,186.333 163.5,186C 164,185.5 164.5,185 165,184.5C 166.01,187.934 167.843,188.767 170.5,187C 176.833,186.333 183.167,186.333 189.5,187C 190.227,188.399 190.727,189.899 191,191.5C 192.32,189.183 193.986,187.183 196,185.5C 202.419,186.313 208.919,186.813 215.5,187C 218.005,187.51 219.505,189.01 220,191.5C 220.333,189.5 220.667,187.5 221,185.5C 230.148,185.908 239.315,186.241 248.5,186.5C 248.5,187.167 248.5,187.833 248.5,188.5C 243.013,186.148 238.847,187.481 236,192.5C 233.341,202.151 236.841,206.651 246.5,206C 247.352,204.272 248.352,204.105 249.5,205.5C 250.568,206.434 251.901,206.768 253.5,206.5C 253.5,197.167 253.5,187.833 253.5,178.5 Z"/></g>
<g><path style="opacity:1" fill="#286aa0" d="M 171.5,187.5 C 173.451,187.227 174.951,187.893 176,189.5C 177.444,187.845 179.278,187.178 181.5,187.5C 181.5,188.5 181.5,189.5 181.5,190.5C 179.097,190.393 177.264,191.393 176,193.5C 175.501,197.821 175.334,202.154 175.5,206.5C 174.167,206.5 172.833,206.5 171.5,206.5C 171.5,200.167 171.5,193.833 171.5,187.5 Z"/></g>
<g><path style="opacity:1" fill="#5b91b3" d="M 253.5,178.5 C 253.5,187.833 253.5,197.167 253.5,206.5C 251.901,206.768 250.568,206.434 249.5,205.5C 250.5,205.5 251.5,205.5 252.5,205.5C 252.5,196.833 252.5,188.167 252.5,179.5C 251.5,179.5 250.5,179.5 249.5,179.5C 249.838,183.296 249.505,186.296 248.5,188.5C 248.5,187.833 248.5,187.167 248.5,186.5C 248.5,183.833 248.5,181.167 248.5,178.5C 250.167,178.5 251.833,178.5 253.5,178.5 Z"/></g>
<g><path style="opacity:1" fill="#5a89a6" d="M 217.5,191.5 C 218.487,196.305 218.821,201.305 218.5,206.5C 216.901,206.768 215.568,206.434 214.5,205.5C 215.5,205.5 216.5,205.5 217.5,205.5C 217.5,200.833 217.5,196.167 217.5,191.5 Z"/></g>
<g><path style="opacity:1" fill="#df544c" d="M 955.5,207.5 C 952.776,204.779 950.442,201.779 948.5,198.5C 949.769,195.895 951.436,193.562 953.5,191.5C 955.186,189.984 957.019,188.65 959,187.5C 959.5,187.833 960,188.167 960.5,188.5C 959.703,190.132 958.703,191.632 957.5,193C 959.942,195.428 962.942,196.595 966.5,196.5C 966.5,197.5 966.5,198.5 966.5,199.5C 961.929,198.803 957.596,197.636 953.5,196C 952.643,196.689 951.977,197.522 951.5,198.5C 952.982,200.483 954.649,202.316 956.5,204C 958.464,204.624 960.131,204.124 961.5,202.5C 962.731,203.651 962.731,204.817 961.5,206C 959.655,207.128 957.655,207.628 955.5,207.5 Z"/></g>
<g><path style="opacity:1" fill="#1f679f" d="M 227.5,205.5 C 227.5,205.833 227.5,206.167 227.5,206.5C 226.167,206.5 224.833,206.5 223.5,206.5C 223.5,200.167 223.5,193.833 223.5,187.5C 225.451,187.227 226.951,187.893 228,189.5C 231.51,186.414 233.677,187.081 234.5,191.5C 231.956,191.104 229.789,191.771 228,193.5C 227.501,197.486 227.334,201.486 227.5,205.5 Z"/></g>
<g><path style="opacity:1" fill="#febfc0" d="M 953.5,191.5 C 951.436,193.562 949.769,195.895 948.5,198.5C 950.442,201.779 952.776,204.779 955.5,207.5C 954.127,207.343 952.793,207.51 951.5,208C 952.056,208.383 952.389,208.883 952.5,209.5C 949.226,209.365 946.226,208.365 943.5,206.5C 945.503,204.867 946.836,202.867 947.5,200.5C 946.448,200.351 945.448,200.517 944.5,201C 941.333,204.167 938.167,207.333 935,210.5C 934.517,211.448 934.351,212.448 934.5,213.5C 933.839,212.282 933.172,210.949 932.5,209.5C 930.929,210.309 929.262,210.643 927.5,210.5C 927.5,209.5 927.5,208.5 927.5,207.5C 929.544,208.778 931.544,208.612 933.5,207C 937.862,202.972 941.862,198.639 945.5,194C 942.946,189.945 939.613,186.778 935.5,184.5C 935.796,182.597 936.463,180.93 937.5,179.5C 937.369,180.239 937.536,180.906 938,181.5C 941,184.167 944,186.833 947,189.5C 947.49,190.793 947.657,192.127 947.5,193.5C 949.124,193.64 950.29,192.973 951,191.5C 951.818,188.773 951.652,186.106 950.5,183.5C 949.281,184.263 948.281,185.263 947.5,186.5C 945.684,185.185 944.017,183.685 942.5,182C 945.278,180.608 948.278,180.108 951.5,180.5C 951.5,179.5 951.5,178.5 951.5,177.5C 946.848,177.998 942.181,178.331 937.5,178.5C 942.056,176.558 947.056,175.892 952.5,176.5C 952.179,181.695 952.513,186.695 953.5,191.5 Z"/></g>
<g><path style="opacity:1" fill="#dff1f8" d="M 242.5,190.5 C 248.303,190.81 250.47,193.81 249,199.5C 247.666,203.104 245.166,204.271 241.5,203C 238.598,198.501 238.932,194.335 242.5,190.5 Z"/></g>
<g><path style="opacity:1" fill="#6c9cbc" d="M 145.5,180.5 C 146.167,180.5 146.5,180.833 146.5,181.5C 146.5,189.833 146.5,198.167 146.5,206.5C 144.833,206.5 143.167,206.5 141.5,206.5C 141.5,202.833 141.5,199.167 141.5,195.5C 137.5,195.5 133.5,195.5 129.5,195.5C 133.634,194.515 137.968,194.182 142.5,194.5C 142.5,198.167 142.5,201.833 142.5,205.5C 143.5,205.5 144.5,205.5 145.5,205.5C 145.5,197.167 145.5,188.833 145.5,180.5 Z"/></g>
<g><path style="opacity:1" fill="#24689b" d="M 154.5,187.5 C 157.187,187.336 159.854,187.503 162.5,188C 163.308,188.308 163.975,188.808 164.5,189.5C 165.454,195.104 165.788,200.771 165.5,206.5C 163.857,206.52 162.524,205.853 161.5,204.5C 154.326,208.502 150.826,206.502 151,198.5C 153.697,195.13 157.197,193.796 161.5,194.5C 161.67,193.178 161.337,192.011 160.5,191C 158.101,190.289 155.768,190.456 153.5,191.5C 153.167,191 152.833,190.5 152.5,190C 153.056,188.989 153.722,188.156 154.5,187.5 Z"/></g>
<g><path style="opacity:1" fill="#e4f6fb" d="M 156.5,197.5 C 158.5,197.5 160.5,197.5 162.5,197.5C 162.304,200.699 160.637,202.699 157.5,203.5C 153.854,202.2 153.52,200.2 156.5,197.5 Z"/></g>
<g><path style="opacity:1" fill="#2f6c9f" d="M 196.5,202.5 C 195.672,206.255 193.505,207.255 190,205.5C 188.222,199.496 186.055,193.662 183.5,188C 185.259,187.202 186.926,187.369 188.5,188.5C 189.854,192.934 191.354,197.268 193,201.5C 194.131,197.106 195.465,192.773 197,188.5C 198.356,187.62 199.856,187.286 201.5,187.5C 200.035,192.562 198.368,197.562 196.5,202.5 Z"/></g>
<g><path style="opacity:1" fill="#25699b" d="M 217.5,191.5 C 217.5,196.167 217.5,200.833 217.5,205.5C 216.5,205.5 215.5,205.5 214.5,205.5C 211.475,206.513 208.141,206.513 204.5,205.5C 201.623,202.04 201.956,198.873 205.5,196C 208.5,195.167 211.5,194.333 214.5,193.5C 211.79,189.864 208.624,189.531 205,192.5C 204.219,191.056 204.386,189.723 205.5,188.5C 208.438,187.425 211.438,187.259 214.5,188C 216.426,188.422 217.426,189.589 217.5,191.5 Z"/></g>
<g><path style="opacity:1" fill="#daf1f9" d="M 208.5,197.5 C 210.5,197.5 212.5,197.5 214.5,197.5C 214.304,200.699 212.637,202.699 209.5,203.5C 205.854,202.2 205.52,200.2 208.5,197.5 Z"/></g>
<g><path style="opacity:1" fill="#e0544c" d="M 935.5,184.5 C 939.613,186.778 942.946,189.945 945.5,194C 941.862,198.639 937.862,202.972 933.5,207C 931.544,208.612 929.544,208.778 927.5,207.5C 925.148,206.457 924.981,205.124 927,203.5C 929.574,206.259 931.74,205.926 933.5,202.5C 931.778,199.58 929.445,197.747 926.5,197C 924.983,198.685 923.316,200.185 921.5,201.5C 920.692,201.192 920.025,200.692 919.5,200C 924.702,194.63 930.035,189.464 935.5,184.5 Z"/></g>
<g><path style="opacity:1" fill="#febcbc" d="M 930.5,192.5 C 933.81,192.965 936.143,194.799 937.5,198C 937.387,199.28 936.72,200.113 935.5,200.5C 933.684,198.183 931.684,196.016 929.5,194C 930.056,193.617 930.389,193.117 930.5,192.5 Z"/></g>
<g><path style="opacity:1" fill="#fdbaba" d="M 935.5,187.5 C 938.73,189.377 940.73,192.044 941.5,195.5C 936.649,194.682 934.649,192.016 935.5,187.5 Z"/></g>
<g><path style="opacity:1" fill="#6e93b1" d="M 701.5,211.5 C 700.566,210.432 700.232,209.099 700.5,207.5C 699.5,207.5 698.5,207.5 697.5,207.5C 697.768,209.099 697.434,210.432 696.5,211.5C 696.5,209.833 696.5,208.167 696.5,206.5C 698.167,206.5 699.833,206.5 701.5,206.5C 701.5,208.167 701.5,209.833 701.5,211.5 Z"/></g>
<g><path style="opacity:1" fill="#df554d" d="M 952.5,209.5 C 954.078,211.318 953.578,212.318 951,212.5C 947.733,211.8 944.566,210.8 941.5,209.5C 938.754,210.096 937.92,211.763 939,214.5C 941.81,219.283 944.976,219.616 948.5,215.5C 949.347,218.866 947.847,220.866 944,221.5C 940.068,219.734 936.901,217.067 934.5,213.5C 934.351,212.448 934.517,211.448 935,210.5C 938.167,207.333 941.333,204.167 944.5,201C 945.448,200.517 946.448,200.351 947.5,200.5C 946.836,202.867 945.503,204.867 943.5,206.5C 946.226,208.365 949.226,209.365 952.5,209.5 Z"/></g>
<g><path style="opacity:1" fill="#0b5698" d="M 742.5,226.5 C 742.5,226.167 742.5,225.833 742.5,225.5C 738.769,223.472 739.435,222.472 744.5,222.5C 745.055,218.988 744.388,215.988 742.5,213.5C 742.167,213.5 741.833,213.5 741.5,213.5C 736.983,212.834 732.317,212.167 727.5,211.5C 733.798,210.504 740.132,210.17 746.5,210.5C 746.829,216.206 746.495,221.872 745.5,227.5C 744.583,226.873 743.583,226.539 742.5,226.5 Z"/></g>
<g><path style="opacity:1" fill="#9bb9d2" d="M 769.5,209.5 C 770.833,216.5 770.833,223.5 769.5,230.5C 767.833,230.5 766.167,230.5 764.5,230.5C 764.784,228.585 764.451,226.919 763.5,225.5C 763.5,225.167 763.5,224.833 763.5,224.5C 764.167,224.5 764.833,224.5 765.5,224.5C 765.5,226.167 765.5,227.833 765.5,229.5C 766.833,229.5 768.167,229.5 769.5,229.5C 769.5,222.833 769.5,216.167 769.5,209.5 Z"/></g>
<g><path style="opacity:1" fill="#1f5581" d="M 328.5,212.5 C 333.5,212.5 338.5,212.5 343.5,212.5C 342.218,214.18 340.551,215.513 338.5,216.5C 338.03,215.307 337.03,214.64 335.5,214.5C 334.274,214.52 333.274,214.853 332.5,215.5C 330.545,215.201 329.211,214.201 328.5,212.5 Z"/></g>
<g><path style="opacity:1" fill="#2b5f8c" d="M 726.5,209.5 C 733.5,209.5 740.5,209.5 747.5,209.5C 747.5,215.833 747.5,222.167 747.5,228.5C 745.219,228.923 743.552,228.256 742.5,226.5C 743.583,226.539 744.583,226.873 745.5,227.5C 746.495,221.872 746.829,216.206 746.5,210.5C 740.132,210.17 733.798,210.504 727.5,211.5C 732.317,212.167 736.983,212.834 741.5,213.5C 738.482,213.335 735.482,213.502 732.5,214C 734.351,215.684 736.018,217.517 737.5,219.5C 736.855,220.646 736.022,221.646 735,222.5C 733.296,220.627 731.463,218.96 729.5,217.5C 729.33,216.178 729.663,215.011 730.5,214C 729.207,213.51 727.873,213.343 726.5,213.5C 726.5,212.167 726.5,210.833 726.5,209.5 Z"/></g>
<g><path style="opacity:1" fill="#125797" d="M 594.5,240.5 C 597.19,254.477 591.523,260.144 577.5,257.5C 577.5,256.5 577.5,255.5 577.5,254.5C 580.203,252.89 583.203,251.89 586.5,251.5C 587.496,251.586 588.329,251.252 589,250.5C 590.079,247.937 590.579,245.271 590.5,242.5C 591.117,242.389 591.617,242.056 592,241.5C 592.5,233.173 592.666,224.84 592.5,216.5C 583.494,216.666 574.494,216.5 565.5,216C 562.519,214.62 561.853,212.454 563.5,209.5C 564.452,211.045 564.785,212.712 564.5,214.5C 574.5,214.5 584.5,214.5 594.5,214.5C 594.5,223.167 594.5,231.833 594.5,240.5 Z"/></g>
<g><path style="opacity:1" fill="#e7f8fc" d="M 642.5,223.5 C 645.501,220.507 648.835,217.841 652.5,215.5C 653.452,213.955 653.785,212.288 653.5,210.5C 640.01,209.504 626.344,209.171 612.5,209.5C 612.5,211.167 612.5,212.833 612.5,214.5C 623.5,214.5 634.5,214.5 645.5,214.5C 643.853,216.326 641.853,217.66 639.5,218.5C 630.554,216.689 621.22,215.855 611.5,216C 610.643,215.311 609.977,214.478 609.5,213.5C 610.309,211.929 610.643,210.262 610.5,208.5C 625.504,208.333 640.504,208.5 655.5,209C 656.516,209.519 657.182,210.353 657.5,211.5C 656.946,213.61 656.112,215.61 655,217.5C 654.282,216.549 653.449,216.383 652.5,217C 651.044,218.745 649.711,220.578 648.5,222.5C 646.604,223.466 644.604,223.799 642.5,223.5 Z"/></g>
<g><path style="opacity:1" fill="#34678d" d="M 653.5,210.5 C 640.167,210.5 626.833,210.5 613.5,210.5C 613.5,211.5 613.5,212.5 613.5,213.5C 624.346,213.172 635.013,213.506 645.5,214.5C 634.5,214.5 623.5,214.5 612.5,214.5C 612.5,212.833 612.5,211.167 612.5,209.5C 626.344,209.171 640.01,209.504 653.5,210.5 Z"/></g>
<g><path style="opacity:1" fill="#1e5a93" d="M 317.5,214.5 C 316.883,214.611 316.383,214.944 316,215.5C 315.501,220.155 315.334,224.821 315.5,229.5C 321.167,229.5 326.833,229.5 332.5,229.5C 333.797,224.934 333.797,220.267 332.5,215.5C 333.274,214.853 334.274,214.52 335.5,214.5C 337.03,214.64 338.03,215.307 338.5,216.5C 338.334,226.839 338.5,237.172 339,247.5C 340.859,248.579 342.359,249.912 343.5,251.5C 338.456,251.827 333.456,251.494 328.5,250.5C 330.193,249.772 331.693,248.772 333,247.5C 333.499,242.511 333.666,237.511 333.5,232.5C 327.5,232.5 321.5,232.5 315.5,232.5C 315.334,237.844 315.501,243.177 316,248.5C 317.509,249.09 319.009,249.756 320.5,250.5C 315.167,251.833 309.833,251.833 304.5,250.5C 306.193,249.772 307.693,248.772 309,247.5C 309.667,237.167 309.667,226.833 309,216.5C 308.283,215.956 307.783,215.289 307.5,214.5C 310.833,213.167 314.167,213.167 317.5,214.5 Z"/></g>
<g><path style="opacity:1" fill="#ddeffa" d="M 343.5,251.5 C 342.359,249.912 340.859,248.579 339,247.5C 338.5,237.172 338.334,226.839 338.5,216.5C 340.551,215.513 342.218,214.18 343.5,212.5C 343.56,211.957 343.893,211.624 344.5,211.5C 345.452,213.045 345.785,214.712 345.5,216.5C 343.833,216.5 342.167,216.5 340.5,216.5C 340.168,226.855 340.501,237.188 341.5,247.5C 342.167,246.5 342.833,245.5 343.5,244.5C 343.833,244.667 344.167,244.833 344.5,245C 344.612,247.17 344.278,249.336 343.5,251.5 Z"/></g>
<g><path style="opacity:1" fill="#275d8f" d="M 749.5,209.5 C 756.167,209.5 762.833,209.5 769.5,209.5C 769.5,216.167 769.5,222.833 769.5,229.5C 768.167,229.5 766.833,229.5 765.5,229.5C 765.5,227.833 765.5,226.167 765.5,224.5C 766.161,225.718 766.828,227.051 767.5,228.5C 768.496,222.537 768.829,216.537 768.5,210.5C 762.463,210.171 756.463,210.504 750.5,211.5C 755.651,212.167 760.651,212.834 765.5,213.5C 761.818,213.335 758.152,213.501 754.5,214C 756.5,216 758.5,218 760.5,220C 759.833,220.667 759.167,221.333 758.5,222C 760.922,222.135 763.255,221.635 765.5,220.5C 764.64,222.614 762.973,223.78 760.5,224C 761.448,224.483 762.448,224.649 763.5,224.5C 763.5,224.833 763.5,225.167 763.5,225.5C 759.561,226.535 755.728,227.869 752,229.5C 750.422,228.289 750.255,226.955 751.5,225.5C 753.385,224.391 755.385,223.557 757.5,223C 755.316,220.984 753.316,218.817 751.5,216.5C 754.251,213.945 753.584,212.945 749.5,213.5C 749.5,212.167 749.5,210.833 749.5,209.5 Z"/></g>
<g><path style="opacity:1" fill="#e2f3f9" d="M 765.5,213.5 C 765.5,215.833 765.5,218.167 765.5,220.5C 763.255,221.635 760.922,222.135 758.5,222C 759.167,221.333 759.833,220.667 760.5,220C 758.5,218 756.5,216 754.5,214C 758.152,213.501 761.818,213.335 765.5,213.5 Z"/></g>
<g><path style="opacity:1" fill="#1e588c" d="M 594.5,240.5 C 594.5,231.833 594.5,223.167 594.5,214.5C 584.5,214.5 574.5,214.5 564.5,214.5C 564.785,212.712 564.452,211.045 563.5,209.5C 561.853,212.454 562.519,214.62 565.5,216C 574.494,216.5 583.494,216.666 592.5,216.5C 592.666,224.84 592.5,233.173 592,241.5C 591.617,242.056 591.117,242.389 590.5,242.5C 590.5,234.167 590.5,225.833 590.5,217.5C 581.161,217.334 571.827,217.5 562.5,218C 561.167,220 559.833,222 558.5,224C 566.159,224.5 573.826,224.666 581.5,224.5C 581.5,232.167 581.5,239.833 581.5,247.5C 573.833,247.5 566.167,247.5 558.5,247.5C 558.831,240.137 558.497,232.803 557.5,225.5C 556.893,225.624 556.56,225.957 556.5,226.5C 553.139,232.05 550.972,231.717 550,225.5C 555.115,219.56 559.615,213.227 563.5,206.5C 567.907,207.126 568.573,208.959 565.5,212C 575.494,212.5 585.494,212.666 595.5,212.5C 595.827,222.015 595.494,231.348 594.5,240.5 Z"/></g>
<g><path style="opacity:1" fill="#0c5697" d="M 765.5,224.5 C 764.833,224.5 764.167,224.5 763.5,224.5C 762.448,224.649 761.448,224.483 760.5,224C 762.973,223.78 764.64,222.614 765.5,220.5C 765.5,218.167 765.5,215.833 765.5,213.5C 760.651,212.834 755.651,212.167 750.5,211.5C 756.463,210.504 762.463,210.171 768.5,210.5C 768.829,216.537 768.496,222.537 767.5,228.5C 766.828,227.051 766.161,225.718 765.5,224.5 Z"/></g>
<g><path style="opacity:1" fill="#d5534c" d="M 958.5,216.5 C 962.464,219.963 966.298,223.63 970,227.5C 970.688,228.332 970.521,228.998 969.5,229.5C 965.348,225.849 961.348,222.016 957.5,218C 958.056,217.617 958.389,217.117 958.5,216.5 Z"/></g>
<g><path style="opacity:1" fill="#dc605a" d="M 963.5,210.5 C 968.419,213.748 972.753,217.748 976.5,222.5C 975.635,223.583 974.635,223.749 973.5,223C 970.333,219.833 967.167,216.667 964,213.5C 963.517,212.552 963.351,211.552 963.5,210.5 Z"/></g>
<g><path style="opacity:1" fill="#3b6076" d="M 393.5,223.5 C 390.615,223.194 387.948,223.527 385.5,224.5C 384.957,224.44 384.624,224.107 384.5,223.5C 387.645,222.197 390.645,222.197 393.5,223.5 Z"/></g>
<g><path style="opacity:1" fill="#17568f" d="M 396.5,228.5 C 394.47,234.626 393.97,240.959 395,247.5C 396.6,248.866 398.433,249.866 400.5,250.5C 395.5,251.833 390.5,251.833 385.5,250.5C 386.76,249.618 387.926,248.618 389,247.5C 389.667,240.5 389.667,233.5 389,226.5C 388.184,225.177 387.017,224.511 385.5,224.5C 387.948,223.527 390.615,223.194 393.5,223.5C 394.475,227.265 395.808,227.265 397.5,223.5C 400.408,222.431 403.408,222.264 406.5,223C 407.576,224.726 407.743,226.559 407,228.5C 406.439,229.022 405.772,229.355 405,229.5C 403.63,227.797 401.964,226.464 400,225.5C 398.358,225.978 397.191,226.978 396.5,228.5 Z"/></g>
<g><path style="opacity:1" fill="#0c5696" d="M 533.5,246.5 C 533.167,246.5 532.833,246.5 532.5,246.5C 533.603,243.449 534.269,240.282 534.5,237C 534.664,234.456 533.997,232.29 532.5,230.5C 532.5,230.167 532.5,229.833 532.5,229.5C 533.751,224.369 533.751,219.369 532.5,214.5C 531.833,213.5 531.167,212.5 530.5,211.5C 532.265,210.539 534.265,210.205 536.5,210.5C 536.186,223.55 536.519,236.55 537.5,249.5C 536.675,250.386 535.675,250.719 534.5,250.5C 534.768,248.901 534.434,247.568 533.5,246.5 Z"/></g>
<g><path style="opacity:1" fill="#19578e" d="M 653.5,210.5 C 653.785,212.288 653.452,213.955 652.5,215.5C 648.835,217.841 645.501,220.507 642.5,223.5C 638.599,223.915 636.266,225.915 635.5,229.5C 642.5,229.5 649.5,229.5 656.5,229.5C 656.5,231.167 656.5,232.833 656.5,234.5C 649.5,234.5 642.5,234.5 635.5,234.5C 635.5,240.5 635.5,246.5 635.5,252.5C 635.5,253.167 635.167,253.5 634.5,253.5C 634.334,246.825 634.5,240.158 635,233.5C 641.778,232.85 648.611,232.183 655.5,231.5C 648.532,230.503 641.532,230.17 634.5,230.5C 634.662,228.473 634.495,226.473 634,224.5C 633.263,226.596 632.097,228.263 630.5,229.5C 630.34,227.801 630.506,226.134 631,224.5C 634.291,223.025 637.125,221.025 639.5,218.5C 641.853,217.66 643.853,216.326 645.5,214.5C 635.013,213.506 624.346,213.172 613.5,213.5C 613.5,212.5 613.5,211.5 613.5,210.5C 626.833,210.5 640.167,210.5 653.5,210.5 Z"/></g>
<g><path style="opacity:1" fill="#ebf6f9" d="M 674.5,207.5 C 672.158,213.014 669.158,218.181 665.5,223C 665.645,223.772 665.978,224.439 666.5,225C 669.167,225.333 671.833,225.667 674.5,226C 672.302,229.023 669.969,231.856 667.5,234.5C 666.549,235.919 666.216,237.585 666.5,239.5C 668.735,239.795 670.735,239.461 672.5,238.5C 675.038,238.493 677.538,238.159 680,237.5C 681.326,237.755 682.326,238.422 683,239.5C 683.414,239.043 683.914,238.709 684.5,238.5C 687.177,239.074 689.843,239.741 692.5,240.5C 690.078,245.756 686.411,249.922 681.5,253C 682.324,256.054 683.991,256.888 686.5,255.5C 686.5,256.5 686.5,257.5 686.5,258.5C 683.192,259.026 681.026,257.693 680,254.5C 679.617,255.056 679.117,255.389 678.5,255.5C 678.331,250.819 677.998,246.152 677.5,241.5C 676.5,241.5 675.5,241.5 674.5,241.5C 674.5,245.5 674.5,249.5 674.5,253.5C 673.676,249.688 673.176,245.688 673,241.5C 672.79,243.058 672.29,244.391 671.5,245.5C 671.5,244.167 671.5,242.833 671.5,241.5C 670.167,241.5 668.833,241.5 667.5,241.5C 667.678,245.122 667.011,248.456 665.5,251.5C 665.451,248.626 665.784,245.792 666.5,243C 664.939,240.546 663.606,237.879 662.5,235C 664.217,233.441 666.217,232.608 668.5,232.5C 668.5,230.833 668.5,229.167 668.5,227.5C 664.61,227.555 662.443,229.555 662,233.5C 660.956,232.377 660.29,231.044 660,229.5C 659.015,231.175 658.181,232.842 657.5,234.5C 657.784,232.585 657.451,230.919 656.5,229.5C 649.5,229.5 642.5,229.5 635.5,229.5C 636.266,225.915 638.599,223.915 642.5,223.5C 647.015,224.812 651.682,224.812 656.5,223.5C 656.808,222.692 657.308,222.025 658,221.5C 658.55,226.07 659.717,226.403 661.5,222.5C 662.167,223.5 662.833,224.5 663.5,225.5C 664.185,223.219 664.351,220.886 664,218.5C 664.333,218.833 664.667,219.167 665,219.5C 668.174,217.827 669.841,215.16 670,211.5C 671.468,210.011 672.968,208.677 674.5,207.5 Z"/></g>
<g><path style="opacity:1" fill="#b0cee3" d="M 328.5,212.5 C 329.211,214.201 330.545,215.201 332.5,215.5C 333.797,220.267 333.797,224.934 332.5,229.5C 332.5,229.167 332.5,228.833 332.5,228.5C 332.665,224.818 332.499,221.152 332,217.5C 330.644,216.62 329.144,216.286 327.5,216.5C 327.232,214.901 327.566,213.568 328.5,212.5 Z"/></g>
<g><path style="opacity:1" fill="#2a5f8f" d="M 532.5,214.5 C 533.751,219.369 533.751,224.369 532.5,229.5C 527.491,223.866 522.991,224.199 519,230.5C 518.501,234.486 518.334,238.486 518.5,242.5C 517.883,242.389 517.383,242.056 517,241.5C 516.084,236.821 516.584,232.321 518.5,228C 518.167,227.5 517.833,227 517.5,226.5C 516.859,227.993 515.859,228.993 514.5,229.5C 514.84,226.325 516.507,224.159 519.5,223C 524.152,221.807 528.319,222.64 532,225.5C 532.499,221.848 532.665,218.182 532.5,214.5 Z"/></g>
<g><path style="opacity:1" fill="#195484" d="M 533.5,246.5 C 534.434,247.568 534.768,248.901 534.5,250.5C 535.675,250.719 536.675,250.386 537.5,249.5C 536.519,236.55 536.186,223.55 536.5,210.5C 534.265,210.205 532.265,210.539 530.5,211.5C 529.325,211.719 528.325,211.386 527.5,210.5C 530.768,209.513 534.102,209.18 537.5,209.5C 537.333,222.171 537.5,234.838 538,247.5C 539.307,248.772 540.807,249.772 542.5,250.5C 539.572,251.484 536.572,251.817 533.5,251.5C 533.5,249.833 533.5,248.167 533.5,246.5 Z"/></g>
<g><path style="opacity:1" fill="#19568e" d="M 483.5,222.5 C 486.167,222.5 488.833,222.5 491.5,222.5C 491.312,224.103 491.812,225.437 493,226.5C 495.955,222.723 499.788,221.557 504.5,223C 505.576,224.726 505.743,226.559 505,228.5C 504.439,229.022 503.772,229.355 503,229.5C 498.612,223.841 495.279,224.508 493,231.5C 492.333,236.833 492.333,242.167 493,247.5C 494.6,248.866 496.433,249.866 498.5,250.5C 493.5,251.833 488.5,251.833 483.5,250.5C 484.76,249.618 485.926,248.618 487,247.5C 487.667,240.5 487.667,233.5 487,226.5C 485.373,225.468 484.207,224.134 483.5,222.5 Z"/></g>
<g><path style="opacity:1" fill="#1c5992" d="M 683.5,215.5 C 683.5,216.167 683.5,216.833 683.5,217.5C 680.689,223.114 677.356,228.447 673.5,233.5C 675.984,234.861 678.317,234.694 680.5,233C 678.164,230.952 678.164,229.118 680.5,227.5C 682.645,229.732 684.145,232.399 685,235.5C 685.499,230.511 685.666,225.511 685.5,220.5C 689.5,220.5 693.5,220.5 697.5,220.5C 697.5,219.167 697.5,217.833 697.5,216.5C 693.5,216.5 689.5,216.5 685.5,216.5C 685.5,215.167 685.5,213.833 685.5,212.5C 689.371,212.815 693.038,212.482 696.5,211.5C 697.434,210.432 697.768,209.099 697.5,207.5C 698.5,207.5 699.5,207.5 700.5,207.5C 700.232,209.099 700.566,210.432 701.5,211.5C 705.97,212.486 710.637,212.819 715.5,212.5C 715.5,213.833 715.5,215.167 715.5,216.5C 710.833,216.5 706.167,216.5 701.5,216.5C 701.5,217.833 701.5,219.167 701.5,220.5C 705.5,220.5 709.5,220.5 713.5,220.5C 713.5,226.833 713.5,233.167 713.5,239.5C 710.813,239.336 708.146,239.503 705.5,240C 708.265,244.934 711.932,249.1 716.5,252.5C 715.833,253.833 714.833,254.833 713.5,255.5C 708.314,251.986 704.648,247.32 702.5,241.5C 702.217,240.711 701.717,240.044 701,239.5C 700.501,245.491 700.334,251.491 700.5,257.5C 699.5,257.5 698.5,257.5 697.5,257.5C 697.666,251.491 697.499,245.491 697,239.5C 696.487,240.527 695.987,241.527 695.5,242.5C 692.89,247.109 689.89,251.442 686.5,255.5C 683.991,256.888 682.324,256.054 681.5,253C 686.411,249.922 690.078,245.756 692.5,240.5C 689.843,239.741 687.177,239.074 684.5,238.5C 683.914,238.709 683.414,239.043 683,239.5C 682.326,238.422 681.326,237.755 680,237.5C 677.538,238.159 675.038,238.493 672.5,238.5C 670.833,238.5 669.167,238.5 667.5,238.5C 667.5,237.167 667.5,235.833 667.5,234.5C 669.969,231.856 672.302,229.023 674.5,226C 671.833,225.667 669.167,225.333 666.5,225C 665.978,224.439 665.645,223.772 665.5,223C 669.158,218.181 672.158,213.014 674.5,207.5C 676.112,206.445 677.445,206.945 678.5,209C 676.582,213.249 674.248,217.249 671.5,221C 673.167,221.667 674.833,221.667 676.5,221C 678.123,218.92 679.623,216.754 681,214.5C 681.671,215.252 682.504,215.586 683.5,215.5 Z"/></g>
<g><path style="opacity:1" fill="#e0f4fb" d="M 685.5,216.5 C 689.5,216.5 693.5,216.5 697.5,216.5C 697.5,217.833 697.5,219.167 697.5,220.5C 693.5,220.5 689.5,220.5 685.5,220.5C 685.666,225.511 685.499,230.511 685,235.5C 684.145,232.399 682.645,229.732 680.5,227.5C 678.164,229.118 678.164,230.952 680.5,233C 678.317,234.694 675.984,234.861 673.5,233.5C 677.356,228.447 680.689,223.114 683.5,217.5C 684.167,217.167 684.833,216.833 685.5,216.5 Z"/></g>
<g><path style="opacity:1" fill="#9cc0da" d="M 696.5,211.5 C 693.038,212.482 689.371,212.815 685.5,212.5C 685.5,213.833 685.5,215.167 685.5,216.5C 684.833,216.833 684.167,217.167 683.5,217.5C 683.5,216.833 683.5,216.167 683.5,215.5C 684.434,214.432 684.768,213.099 684.5,211.5C 688.5,211.5 692.5,211.5 696.5,211.5 Z"/></g>
<g><path style="opacity:1" fill="#edf6fa" d="M 469.5,223.5 C 464.101,222.006 458.768,222.173 453.5,224C 451.527,227.758 452.527,229.925 456.5,230.5C 457.659,224.434 460.826,223.1 466,226.5C 466.497,229.146 466.664,231.813 466.5,234.5C 460.676,233.588 455.51,234.922 451,238.5C 448.178,248.68 452.011,252.847 462.5,251C 464.333,249.833 465.833,248.333 467,246.5C 468.009,248.025 468.509,249.692 468.5,251.5C 470.833,251.5 473.167,251.5 475.5,251.5C 471.948,252.059 468.448,253.059 465,254.5C 460.004,252.755 454.837,251.755 449.5,251.5C 449.386,246.237 448.219,241.237 446,236.5C 445.581,237.672 444.915,238.672 444,239.5C 443.632,238.09 442.799,237.09 441.5,236.5C 440.289,237.274 440.289,238.107 441.5,239C 439.865,239.54 438.532,239.04 437.5,237.5C 437.167,238.167 436.833,238.833 436.5,239.5C 437.762,242.022 438.429,244.689 438.5,247.5C 439.5,247.5 440.5,247.5 441.5,247.5C 441.649,248.552 441.483,249.552 441,250.5C 439.581,249.54 438.081,248.707 436.5,248C 437.93,246.12 437.596,244.62 435.5,243.5C 434.276,245.828 434.276,248.161 435.5,250.5C 432.048,252.39 428.382,252.89 424.5,252C 421.924,248.248 420.591,244.081 420.5,239.5C 419.057,238.665 418.057,237.332 417.5,235.5C 416.719,236.729 416.219,238.062 416,239.5C 415.289,237.101 415.456,234.768 416.5,232.5C 414.111,231.398 412.277,229.731 411,227.5C 409.956,228.623 409.29,229.956 409,231.5C 406.973,231.014 404.807,231.014 402.5,231.5C 401.859,227.846 399.859,226.846 396.5,228.5C 397.191,226.978 398.358,225.978 400,225.5C 401.964,226.464 403.63,227.797 405,229.5C 405.772,229.355 406.439,229.022 407,228.5C 407.743,226.559 407.576,224.726 406.5,223C 403.408,222.264 400.408,222.431 397.5,223.5C 397.414,222.504 397.748,221.671 398.5,221C 401.5,220.333 404.5,220.333 407.5,221C 408.5,224.333 409.5,224.333 410.5,221C 416.167,220.333 421.833,220.333 427.5,221C 428.5,223 429.5,223 430.5,221C 435.22,220.779 439.887,220.279 444.5,219.5C 445.244,220.991 445.91,222.491 446.5,224C 445.184,226.657 443.851,229.323 442.5,232C 442.646,233.727 443.313,233.894 444.5,232.5C 445.478,232.977 446.311,233.643 447,234.5C 448.919,230.205 450.752,225.871 452.5,221.5C 457.467,220.338 462.467,220.171 467.5,221C 468.756,221.417 469.423,222.25 469.5,223.5 Z"/></g>
<g><path style="opacity:1" fill="#2a5e8f" d="M 469.5,223.5 C 470.11,224.391 470.443,225.391 470.5,226.5C 471.117,226.611 471.617,226.944 472,227.5C 472.333,234.5 472.667,241.5 473,248.5C 474.417,249.078 475.25,250.078 475.5,251.5C 473.167,251.5 470.833,251.5 468.5,251.5C 468.509,249.692 468.009,248.025 467,246.5C 465.833,248.333 464.333,249.833 462.5,251C 452.011,252.847 448.178,248.68 451,238.5C 455.51,234.922 460.676,233.588 466.5,234.5C 466.664,231.813 466.497,229.146 466,226.5C 460.826,223.1 457.659,224.434 456.5,230.5C 452.527,229.925 451.527,227.758 453.5,224C 458.768,222.173 464.101,222.006 469.5,223.5 Z"/></g>
<g><path style="opacity:1" fill="#0b5698" d="M 634.5,253.5 C 634.5,254.833 633.833,255.5 632.5,255.5C 629.167,255.5 625.833,255.5 622.5,255.5C 622.5,254.5 622.5,253.5 622.5,252.5C 625.579,252.74 628.579,252.407 631.5,251.5C 632.663,245.863 632.83,240.196 632,234.5C 631.5,234 631,233.5 630.5,233C 623.809,232.831 617.142,232.331 610.5,231.5C 616.988,230.833 623.321,230.167 629.5,229.5C 629.833,229.5 630.167,229.5 630.5,229.5C 632.097,228.263 633.263,226.596 634,224.5C 634.495,226.473 634.662,228.473 634.5,230.5C 641.532,230.17 648.532,230.503 655.5,231.5C 648.611,232.183 641.778,232.85 635,233.5C 634.5,240.158 634.334,246.825 634.5,253.5 Z"/></g>
<g><path style="opacity:1" fill="#0e5696" d="M 518.5,242.5 C 518.5,242.833 518.5,243.167 518.5,243.5C 518.762,244.978 518.429,246.311 517.5,247.5C 516.735,246.388 515.735,245.721 514.5,245.5C 513.243,240.036 513.243,234.703 514.5,229.5C 515.859,228.993 516.859,227.993 517.5,226.5C 517.833,227 518.167,227.5 518.5,228C 516.584,232.321 516.084,236.821 517,241.5C 517.383,242.056 517.883,242.389 518.5,242.5 Z"/></g>
<g><path style="opacity:1" fill="#21598f" d="M 420.5,239.5 C 419.44,235.82 418.274,232.154 417,228.5C 416.027,226.36 414.527,224.693 412.5,223.5C 416.833,222.167 421.167,222.167 425.5,223.5C 423.495,224.337 422.495,225.837 422.5,228C 424.267,234.634 426.434,241.134 429,247.5C 431.47,241.256 433.637,234.923 435.5,228.5C 435.743,226.078 434.743,224.412 432.5,223.5C 436.167,222.167 439.833,222.167 443.5,223.5C 440.744,225.091 438.911,227.424 438,230.5C 435.391,237.497 432.891,244.497 430.5,251.5C 428.533,251.739 426.699,251.406 425,250.5C 423.962,246.532 422.462,242.865 420.5,239.5 Z"/></g>
<g><path style="opacity:1" fill="#cde9f6" d="M 689.5,224.5 C 692.167,224.5 694.833,224.5 697.5,224.5C 697.5,228.167 697.5,231.833 697.5,235.5C 694.833,235.5 692.167,235.5 689.5,235.5C 689.5,231.833 689.5,228.167 689.5,224.5 Z"/></g>
<g><path style="opacity:1" fill="#215889" d="M 690.5,226.5 C 694.665,227.161 695.999,229.494 694.5,233.5C 692.4,231.636 691.067,229.303 690.5,226.5 Z"/></g>
<g><path style="opacity:1" fill="#ddeff7" d="M 726.5,209.5 C 734.068,208.188 741.735,208.188 749.5,209.5C 749.5,210.833 749.5,212.167 749.5,213.5C 753.584,212.945 754.251,213.945 751.5,216.5C 753.316,218.817 755.316,220.984 757.5,223C 755.385,223.557 753.385,224.391 751.5,225.5C 750.255,226.955 750.422,228.289 752,229.5C 755.728,227.869 759.561,226.535 763.5,225.5C 764.451,226.919 764.784,228.585 764.5,230.5C 766.167,230.5 767.833,230.5 769.5,230.5C 767.569,239.57 766.903,248.903 767.5,258.5C 755.495,258.667 743.495,258.5 731.5,258C 730.517,249.585 730.183,241.085 730.5,232.5C 728.5,232.5 726.5,232.5 724.5,232.5C 723.865,229.507 723.699,226.507 724,223.5C 724.928,220.965 726.762,219.965 729.5,220.5C 729.5,219.5 729.5,218.5 729.5,217.5C 731.463,218.96 733.296,220.627 735,222.5C 736.022,221.646 736.855,220.646 737.5,219.5C 736.018,217.517 734.351,215.684 732.5,214C 735.482,213.502 738.482,213.335 741.5,213.5C 741.833,213.5 742.167,213.5 742.5,213.5C 742.768,216.119 742.435,218.619 741.5,221C 736.833,222.667 732.167,224.333 727.5,226C 724.936,227.481 724.936,228.981 727.5,230.5C 732.427,228.532 737.427,226.866 742.5,225.5C 742.5,225.833 742.5,226.167 742.5,226.5C 743.552,228.256 745.219,228.923 747.5,228.5C 747.5,222.167 747.5,215.833 747.5,209.5C 740.5,209.5 733.5,209.5 726.5,209.5 Z"/></g>
<g><path style="opacity:1" fill="#1f5a8e" d="M 742.5,213.5 C 744.388,215.988 745.055,218.988 744.5,222.5C 739.435,222.472 738.769,223.472 742.5,225.5C 737.427,226.866 732.427,228.532 727.5,230.5C 724.936,228.981 724.936,227.481 727.5,226C 732.167,224.333 736.833,222.667 741.5,221C 742.435,218.619 742.768,216.119 742.5,213.5 Z"/></g>
<g><path style="opacity:1" fill="#f3f9fa" d="M 532.5,229.5 C 532.5,229.833 532.5,230.167 532.5,230.5C 532.666,234.514 532.499,238.514 532,242.5C 530.905,247.8 527.738,249.633 522.5,248C 520.93,246.603 519.596,245.103 518.5,243.5C 518.5,243.167 518.5,242.833 518.5,242.5C 518.334,238.486 518.501,234.486 519,230.5C 522.991,224.199 527.491,223.866 532.5,229.5 Z"/></g>
<g><path style="opacity:1" fill="#1d5687" d="M 629.5,229.5 C 623.321,230.167 616.988,230.833 610.5,231.5C 617.142,232.331 623.809,232.831 630.5,233C 631,233.5 631.5,234 632,234.5C 632.83,240.196 632.663,245.863 631.5,251.5C 628.579,252.407 625.579,252.74 622.5,252.5C 622.5,253.5 622.5,254.5 622.5,255.5C 625.833,255.5 629.167,255.5 632.5,255.5C 629.038,256.482 625.371,256.815 621.5,256.5C 621.579,255.07 621.246,253.736 620.5,252.5C 623.642,251.833 626.642,251.166 629.5,250.5C 630.488,245.36 630.821,240.026 630.5,234.5C 623.167,234.5 615.833,234.5 608.5,234.5C 608.5,232.833 608.5,231.167 608.5,229.5C 615.5,229.5 622.5,229.5 629.5,229.5 Z"/></g>
<g><path style="opacity:1" fill="#c6e9fe" d="M 608.5,234.5 C 615.833,234.5 623.167,234.5 630.5,234.5C 630.821,240.026 630.488,245.36 629.5,250.5C 629.5,245.5 629.5,240.5 629.5,235.5C 622.313,235.825 615.313,235.491 608.5,234.5 Z"/></g>
<g><path style="opacity:1" fill="#cbe9f7" d="M 701.5,224.5 C 704.167,224.5 706.833,224.5 709.5,224.5C 709.5,228.167 709.5,231.833 709.5,235.5C 706.833,235.5 704.167,235.5 701.5,235.5C 701.5,231.833 701.5,228.167 701.5,224.5 Z"/></g>
<g><path style="opacity:1" fill="#2a5d8b" d="M 705.5,225.5 C 706.473,225.987 707.473,226.487 708.5,227C 707.126,229.583 705.626,232.083 704,234.5C 703.13,233.892 702.63,233.059 702.5,232C 703.377,229.747 704.377,227.581 705.5,225.5 Z"/></g>
<g><path style="opacity:1" fill="#08569a" d="M 762.5,242.5 C 762.5,240.5 762.5,238.5 762.5,236.5C 753.5,236.5 744.5,236.5 735.5,236.5C 734.51,242.645 734.177,248.978 734.5,255.5C 732.539,248.913 731.872,241.913 732.5,234.5C 736.702,234.817 740.702,234.483 744.5,233.5C 745.859,232.993 746.859,231.993 747.5,230.5C 748.429,231.689 748.762,233.022 748.5,234.5C 753.833,234.5 759.167,234.5 764.5,234.5C 764.83,241.2 764.497,247.866 763.5,254.5C 762.516,251.572 762.183,248.572 762.5,245.5C 753.494,245.666 744.494,245.5 735.5,245C 744.889,245.144 753.889,244.31 762.5,242.5 Z"/></g>
<g><path style="opacity:1" fill="#08569b" d="M 470.5,226.5 C 470.4,234.585 470.566,242.585 471,250.5C 470.085,249.672 469.419,248.672 469,247.5C 468.833,244 468.667,240.5 468.5,237C 468.512,233.098 469.179,229.598 470.5,226.5 Z"/></g>
<g><path style="opacity:1" fill="#88afcd" d="M 459.5,237.5 C 461.948,236.527 464.615,236.194 467.5,236.5C 467.802,239.059 467.468,241.393 466.5,243.5C 466.5,241.5 466.5,239.5 466.5,237.5C 464.167,237.5 461.833,237.5 459.5,237.5 Z"/></g>
<g><path style="opacity:1" fill="#c2e1f9" d="M 656.5,229.5 C 657.451,230.919 657.784,232.585 657.5,234.5C 650.687,235.491 643.687,235.825 636.5,235.5C 636.822,241.358 636.489,247.025 635.5,252.5C 635.5,246.5 635.5,240.5 635.5,234.5C 642.5,234.5 649.5,234.5 656.5,234.5C 656.5,232.833 656.5,231.167 656.5,229.5 Z"/></g>
<g><path style="opacity:1" fill="#90b7d8" d="M 667.5,234.5 C 667.5,235.833 667.5,237.167 667.5,238.5C 669.167,238.5 670.833,238.5 672.5,238.5C 670.735,239.461 668.735,239.795 666.5,239.5C 666.216,237.585 666.549,235.919 667.5,234.5 Z"/></g>
<g><path style="opacity:1" fill="#eef7fa" d="M 332.5,228.5 C 332.5,228.833 332.5,229.167 332.5,229.5C 326.833,229.5 321.167,229.5 315.5,229.5C 315.334,224.821 315.501,220.155 316,215.5C 316.383,214.944 316.883,214.611 317.5,214.5C 318.675,214.719 319.675,214.386 320.5,213.5C 315.167,212.167 309.833,212.167 304.5,213.5C 305.325,214.386 306.325,214.719 307.5,214.5C 307.783,215.289 308.283,215.956 309,216.5C 309.667,226.833 309.667,237.167 309,247.5C 307.693,248.772 306.193,249.772 304.5,250.5C 309.833,251.833 315.167,251.833 320.5,250.5C 319.009,249.756 317.509,249.09 316,248.5C 315.501,243.177 315.334,237.844 315.5,232.5C 321.5,232.5 327.5,232.5 333.5,232.5C 333.666,237.511 333.499,242.511 333,247.5C 331.693,248.772 330.193,249.772 328.5,250.5C 333.456,251.494 338.456,251.827 343.5,251.5C 338.025,252.489 332.358,252.822 326.5,252.5C 326.575,249.794 326.908,247.127 327.5,244.5C 328.675,244.719 329.675,244.386 330.5,243.5C 329.835,241.899 329.501,240.399 329.5,239C 330.308,238.692 330.975,238.192 331.5,237.5C 327.541,236.34 323.541,236.173 319.5,237C 319.141,240.503 319.808,244.003 321.5,247.5C 322.5,247.5 323.5,247.5 324.5,247.5C 324.773,249.451 324.107,250.951 322.5,252C 315.174,252.5 307.841,252.666 300.5,252.5C 299.756,249.05 301.09,247.384 304.5,247.5C 304.581,235.455 304.415,223.455 304,211.5C 309.082,210.363 314.249,210.196 319.5,211C 321.192,212.401 321.859,214.234 321.5,216.5C 319.833,216.5 318.167,216.5 316.5,216.5C 316.5,220.5 316.5,224.5 316.5,228.5C 321.833,228.5 327.167,228.5 332.5,228.5 Z"/></g>
<g><path style="opacity:1" fill="#2b5674" d="M 317.5,214.5 C 314.167,213.167 310.833,213.167 307.5,214.5C 306.325,214.719 305.325,214.386 304.5,213.5C 309.833,212.167 315.167,212.167 320.5,213.5C 319.675,214.386 318.675,214.719 317.5,214.5 Z"/></g>
<g><path style="opacity:1" fill="#f0f8fa" d="M 459.5,237.5 C 461.833,237.5 464.167,237.5 466.5,237.5C 466.5,239.5 466.5,241.5 466.5,243.5C 464.641,247.926 461.308,249.426 456.5,248C 455.39,245.263 455.223,242.429 456,239.5C 456.816,238.177 457.983,237.511 459.5,237.5 Z"/></g>
<g><path style="opacity:1" fill="#285c8d" d="M 680.5,240.5 C 681.496,240.414 682.329,240.748 683,241.5C 683.931,243.459 684.764,245.459 685.5,247.5C 684.68,249.111 683.346,249.778 681.5,249.5C 681.613,246.951 680.946,244.618 679.5,242.5C 679.863,241.817 680.196,241.15 680.5,240.5 Z"/></g>
<g><path style="opacity:1" fill="#275b8b" d="M 678.5,255.5 C 676.517,255.843 675.183,255.176 674.5,253.5C 674.5,249.5 674.5,245.5 674.5,241.5C 675.5,241.5 676.5,241.5 677.5,241.5C 677.998,246.152 678.331,250.819 678.5,255.5 Z"/></g>
<g><path style="opacity:1" fill="#658dac" d="M 581.5,224.5 C 582.492,232.316 582.826,240.316 582.5,248.5C 574.167,248.5 565.833,248.5 557.5,248.5C 557.825,240.981 557.492,233.648 556.5,226.5C 556.56,225.957 556.893,225.624 557.5,225.5C 558.497,232.803 558.831,240.137 558.5,247.5C 566.167,247.5 573.833,247.5 581.5,247.5C 581.5,239.833 581.5,232.167 581.5,224.5 Z"/></g>
<g><path style="opacity:1" fill="#aecfeb" d="M 563.5,229.5 C 563.5,233.833 563.5,238.167 563.5,242.5C 567.833,242.5 572.167,242.5 576.5,242.5C 572.03,243.486 567.363,243.819 562.5,243.5C 562.181,238.637 562.514,233.97 563.5,229.5 Z"/></g>
<g><path style="opacity:1" fill="#08569a" d="M 562.5,243.5 C 567.64,244.488 572.974,244.821 578.5,244.5C 578.5,239.167 578.5,233.833 578.5,228.5C 572.439,228.21 566.439,228.543 560.5,229.5C 559.614,228.675 559.281,227.675 559.5,226.5C 566.5,226.5 573.5,226.5 580.5,226.5C 580.5,233.167 580.5,239.833 580.5,246.5C 573.5,246.5 566.5,246.5 559.5,246.5C 559.181,244.25 559.681,242.25 561,240.5C 561.232,241.737 561.732,242.737 562.5,243.5 Z"/></g>
<g><path style="opacity:1" fill="#f5fafb" d="M 563.5,229.5 C 567.833,229.5 572.167,229.5 576.5,229.5C 576.5,233.833 576.5,238.167 576.5,242.5C 576.5,238.167 576.5,233.833 576.5,229.5C 572.167,229.5 567.833,229.5 563.5,229.5 Z"/></g>
<g><path style="opacity:1" fill="#21598d" d="M 671.5,245.5 C 670.489,249.207 669.323,252.873 668,256.5C 666.795,255.929 665.628,255.262 664.5,254.5C 665.127,253.583 665.461,252.583 665.5,251.5C 667.011,248.456 667.678,245.122 667.5,241.5C 668.833,241.5 670.167,241.5 671.5,241.5C 671.5,242.833 671.5,244.167 671.5,245.5 Z"/></g>
<g><path style="opacity:1" fill="#265c91" d="M 357.5,222.5 C 361.514,222.334 365.514,222.501 369.5,223C 371.552,223.93 373.052,225.43 374,227.5C 374.333,234.5 374.667,241.5 375,248.5C 375.925,249.047 376.758,249.713 377.5,250.5C 375.257,251.474 372.924,251.808 370.5,251.5C 370.509,249.692 370.009,248.025 369,246.5C 365.702,251.22 361.202,252.72 355.5,251C 349.225,243.698 350.559,238.365 359.5,235C 362.482,234.502 365.482,234.335 368.5,234.5C 369.006,230.993 368.34,227.826 366.5,225C 361.556,223.633 358.89,225.466 358.5,230.5C 355.757,230.923 354.424,229.756 354.5,227C 354.557,224.791 355.557,223.291 357.5,222.5 Z"/></g>
<g><path style="opacity:1" fill="#f0f9fb" d="M 361.5,237.5 C 363.833,237.5 366.167,237.5 368.5,237.5C 368.5,239.5 368.5,241.5 368.5,243.5C 366.641,247.926 363.308,249.426 358.5,248C 357.39,245.263 357.223,242.429 358,239.5C 358.816,238.177 359.983,237.511 361.5,237.5 Z"/></g>
<g><path style="opacity:1" fill="#88afcc" d="M 361.5,237.5 C 363.948,236.527 366.615,236.194 369.5,236.5C 369.802,239.059 369.468,241.393 368.5,243.5C 368.5,241.5 368.5,239.5 368.5,237.5C 366.167,237.5 363.833,237.5 361.5,237.5 Z"/></g>
<g><path style="opacity:1" fill="#245b8d" d="M 532.5,230.5 C 533.997,232.29 534.664,234.456 534.5,237C 534.269,240.282 533.603,243.449 532.5,246.5C 531.044,250.317 528.211,251.984 524,251.5C 519.255,251.883 516.089,249.883 514.5,245.5C 515.735,245.721 516.735,246.388 517.5,247.5C 518.429,246.311 518.762,244.978 518.5,243.5C 519.596,245.103 520.93,246.603 522.5,248C 527.738,249.633 530.905,247.8 532,242.5C 532.499,238.514 532.666,234.514 532.5,230.5 Z"/></g>
<g><path style="opacity:1" fill="#9cbfd6" d="M 697.5,257.5 C 697.5,257.833 697.5,258.167 697.5,258.5C 696.833,253.167 696.167,247.833 695.5,242.5C 695.987,241.527 696.487,240.527 697,239.5C 697.499,245.491 697.666,251.491 697.5,257.5 Z"/></g>
<g><path style="opacity:1" fill="#89afcd" d="M 586.5,251.5 C 583.203,251.89 580.203,252.89 577.5,254.5C 576.596,253.791 576.263,252.791 576.5,251.5C 579.833,251.5 583.167,251.5 586.5,251.5 Z"/></g>
<g><path style="opacity:1" fill="#5180a7" d="M 702.5,241.5 C 701.511,246.975 701.178,252.642 701.5,258.5C 700.167,258.5 698.833,258.5 697.5,258.5C 697.5,258.167 697.5,257.833 697.5,257.5C 698.5,257.5 699.5,257.5 700.5,257.5C 700.334,251.491 700.501,245.491 701,239.5C 701.717,240.044 702.217,240.711 702.5,241.5 Z"/></g>
<g><path style="opacity:1" fill="#2a6196" d="M 766.5,255.5 C 755.833,255.5 745.167,255.5 734.5,255.5C 734.177,248.978 734.51,242.645 735.5,236.5C 735.5,238.833 735.5,241.167 735.5,243.5C 744.349,243.826 753.016,243.493 761.5,242.5C 761.833,242.5 762.167,242.5 762.5,242.5C 753.889,244.31 744.889,245.144 735.5,245C 744.494,245.5 753.494,245.666 762.5,245.5C 762.183,248.572 762.516,251.572 763.5,254.5C 764.497,247.866 764.83,241.2 764.5,234.5C 759.167,234.5 753.833,234.5 748.5,234.5C 748.762,233.022 748.429,231.689 747.5,230.5C 746.859,231.993 745.859,232.993 744.5,233.5C 745.234,232.292 745.567,230.959 745.5,229.5C 747.167,229.5 748.833,229.5 750.5,229.5C 750.5,230.833 750.5,232.167 750.5,233.5C 755.833,233.5 761.167,233.5 766.5,233.5C 766.5,240.833 766.5,248.167 766.5,255.5 Z"/></g>
<g><path style="opacity:1" fill="#edfbfb" d="M 736.5,247.5 C 744.833,247.5 753.167,247.5 761.5,247.5C 761.5,248.833 761.5,250.167 761.5,251.5C 753.167,251.5 744.833,251.5 736.5,251.5C 736.5,250.167 736.5,248.833 736.5,247.5 Z"/></g>
<g><path style="opacity:1" fill="#225781" d="M 735.5,236.5 C 744.5,236.5 753.5,236.5 762.5,236.5C 762.5,238.5 762.5,240.5 762.5,242.5C 762.167,242.5 761.833,242.5 761.5,242.5C 753.016,243.493 744.349,243.826 735.5,243.5C 735.5,241.167 735.5,238.833 735.5,236.5 Z"/></g>
<g><path style="opacity:1" fill="#eefbfc" d="M 761.5,242.5 C 753.167,242.5 744.833,242.5 736.5,242.5C 736.5,240.833 736.5,239.167 736.5,237.5C 744.833,237.5 753.167,237.5 761.5,237.5C 761.5,239.167 761.5,240.833 761.5,242.5 Z"/></g>
<g><path style="opacity:1" fill="#215276" d="M 744.5,233.5 C 740.702,234.483 736.702,234.817 732.5,234.5C 731.872,241.913 732.539,248.913 734.5,255.5C 745.167,255.5 755.833,255.5 766.5,255.5C 755.012,256.495 743.345,256.828 731.5,256.5C 731.5,248.833 731.5,241.167 731.5,233.5C 735.833,233.5 740.167,233.5 744.5,233.5 Z"/></g>
<g><path style="opacity:1" fill="#0b5698" d="M 101.5,28.5 C 101.119,29.9311 100.119,30.7645 98.5,31C 100.345,32.128 102.345,32.628 104.5,32.5C 101.991,33.9213 99.6572,35.5879 97.5,37.5C 95.7446,38.0722 94.0779,38.9055 92.5,40C 85.6947,45.7781 81.028,52.9448 78.5,61.5C 77.1667,106.328 76.5001,151.495 76.5,197C 76.6667,242.167 76.8333,287.333 77,332.5C 77.2004,334.32 78.0337,335.653 79.5,336.5C 83.3384,349.671 91.6718,358.671 104.5,363.5C 106.779,364.651 109.112,365.651 111.5,366.5C 253.665,367.833 396.165,368.5 539,368.5C 681.5,368.333 824,368.167 966.5,368C 967.056,367.617 967.389,367.117 967.5,366.5C 970.252,366.422 972.918,366.255 975.5,366C 974.366,367.016 974.699,367.683 976.5,368C 974.509,368.374 972.842,369.207 971.5,370.5C 971.167,370.5 970.833,370.5 970.5,370.5C 682.833,370.667 395.166,370.5 107.5,370C 105.75,368.681 103.75,368.181 101.5,368.5C 86.1077,362.104 76.4411,350.77 72.5,334.5C 72.5,333.167 72.5,331.833 72.5,330.5C 72.3333,243.166 72.5,155.833 73,68.5C 74.3537,64.6372 74.8537,60.6372 74.5,56.5C 79.4372,43.2298 88.4372,33.8965 101.5,28.5 Z"/></g>
<g><path style="opacity:1" fill="#dffcfe" d="M 984.5,357.5 C 979.52,361.823 973.853,364.823 967.5,366.5C 682.167,366.5 396.833,366.5 111.5,366.5C 109.112,365.651 106.779,364.651 104.5,363.5C 107.568,363.547 110.568,364.047 113.5,365C 397.5,365.667 681.5,365.667 965.5,365C 972.336,363.552 978.67,361.052 984.5,357.5 Z"/></g>
<g><path style="opacity:1" fill="#1c5685" d="M 111.5,366.5 C 396.833,366.5 682.167,366.5 967.5,366.5C 967.389,367.117 967.056,367.617 966.5,368C 824,368.167 681.5,368.333 539,368.5C 396.165,368.5 253.665,367.833 111.5,366.5 Z"/></g>
<g><path style="opacity:1" fill="#175483" d="M 101.5,368.5 C 103.75,368.181 105.75,368.681 107.5,370C 395.166,370.5 682.833,370.667 970.5,370.5C 969.07,371.537 967.403,372.204 965.5,372.5C 679.146,372.83 392.812,372.497 106.5,371.5C 104.739,370.687 103.072,369.687 101.5,368.5 Z"/></g>
<g><path style="opacity:1" fill="#dbf8fe" d="M 106.5,371.5 C 392.812,372.497 679.146,372.83 965.5,372.5C 823,373.167 680.334,373.5 537.5,373.5C 394.833,373.333 252.167,373.167 109.5,373C 108.263,372.768 107.263,372.268 106.5,371.5 Z"/></g>
</svg>
