<?xml version="1.0" encoding="UTF-8"?>
<!DOCTYPE svg PUBLIC "-//W3C//DTD SVG 1.1//EN" "http://www.w3.org/Graphics/SVG/1.1/DTD/svg11.dtd">
<svg xmlns="http://www.w3.org/2000/svg" version="1.1" width="712px" height="624px" style="shape-rendering:geometricPrecision; text-rendering:geometricPrecision; image-rendering:optimizeQuality; fill-rule:evenodd; clip-rule:evenodd" xmlns:xlink="http://www.w3.org/1999/xlink">
<g><path style="opacity:0.956" fill="#0060a7" d="M 209.5,-0.5 C 220.167,-0.5 230.833,-0.5 241.5,-0.5C 306.652,11.191 347.486,49.191 364,113.5C 373.533,170.579 356.7,218.079 313.5,256C 295.989,269.754 276.322,279.254 254.5,284.5C 299.042,296.187 335.876,319.853 365,355.5C 401.1,401.715 425.434,453.715 438,511.5C 446.367,548.366 450.2,585.699 449.5,623.5C 444.167,623.5 438.833,623.5 433.5,623.5C 434.551,550.248 418.718,480.914 386,415.5C 366.253,377.515 338.753,346.349 303.5,322C 250.849,290.668 198.183,290.668 145.5,322C 110.257,346.307 82.7573,377.474 63,415.5C 30.413,480.593 14.5797,549.593 15.5,622.5C 10.1667,622.5 4.83333,622.5 -0.5,622.5C -0.5,611.5 -0.5,600.5 -0.5,589.5C 3.29785,530.976 17.4645,474.976 42,421.5C 61.6396,379.859 89.473,344.692 125.5,316C 146.914,300.521 170.581,289.854 196.5,284C 142.652,270.485 107.152,237.319 90,184.5C 74.8674,123.245 90.7008,71.7448 137.5,30C 158.842,13.4938 182.842,3.32717 209.5,-0.5 Z M 210.5,13.5 C 267.067,10.3602 309.567,33.0268 338,81.5C 357.333,122.5 357.333,163.5 338,204.5C 309.591,253.126 267.091,275.626 210.5,272C 157.49,262.923 121.99,233.09 104,182.5C 89.836,128.639 102.669,82.4724 142.5,44C 162.396,27.5498 185.063,17.3831 210.5,13.5 Z"/></g>
<g><path style="opacity:0.951" fill="#0060a7" d="M 558.5,122.5 C 600.739,118.533 639.072,128.7 673.5,153C 707.16,179.647 717.66,213.481 705,254.5C 691.926,282.239 671.093,301.739 642.5,313C 616.16,323.377 588.827,327.71 560.5,326C 547.178,335.662 533.511,344.829 519.5,353.5C 515.514,339.889 511.68,326.222 508,312.5C 489.735,303.87 474.068,291.87 461,276.5C 439.033,246.341 436.7,214.674 454,181.5C 474.844,151.634 503.344,133.134 539.5,126C 545.972,124.813 552.306,123.646 558.5,122.5 Z M 559.5,136.5 C 597.497,132.832 632.164,141.665 663.5,163C 680.824,175.657 691.657,192.49 696,213.5C 698.767,240.867 689.6,263.367 668.5,281C 646.849,298.15 622.182,308.15 594.5,311C 581.833,311.333 569.167,311.667 556.5,312C 546.913,318.376 537.413,324.876 528,331.5C 525.18,321.889 522.514,312.222 520,302.5C 502.48,294.981 487.147,284.314 474,270.5C 455.546,248.224 451.546,223.557 462,196.5C 475.267,172.575 494.767,155.741 520.5,146C 533.34,141.604 546.34,138.438 559.5,136.5 Z"/></g>
<g><path style="opacity:0.959" fill="#0060a7" d="M 634.5,173.5 C 640.242,177.735 645.575,182.568 650.5,188C 618.984,217.684 587.317,247.184 555.5,276.5C 538.041,258.541 520.374,240.707 502.5,223C 507.052,217.945 512.052,213.445 517.5,209.5C 530.486,221.986 543.319,234.653 556,247.5C 582.666,223.333 608.833,198.666 634.5,173.5 Z"/></g>
</svg>
