<?xml version="1.0" encoding="utf-8"?>
<!-- Generator: Adobe Illustrator 16.0.0, SVG Export Plug-In . SVG Version: 6.00 Build 0)  -->
<!DOCTYPE svg PUBLIC "-//W3C//DTD SVG 1.1//EN" "http://www.w3.org/Graphics/SVG/1.1/DTD/svg11.dtd">
<svg version="1.1" id="圖層_1" xmlns="http://www.w3.org/2000/svg" xmlns:xlink="http://www.w3.org/1999/xlink" x="0px" y="0px"
	 width="1280px" height="1280px" viewBox="0 0 1280 1280" enable-background="new 0 0 1280 1280" xml:space="preserve">
<g>
	<g>
		<path fill="#09589B" d="M161.442,716.528v-52.383c9.495,7.969,19.808,13.943,30.939,17.925
			c11.131,3.986,22.369,5.976,33.722,5.976c6.654,0,12.465-0.598,17.434-1.801c4.968-1.199,9.109-2.865,12.441-4.993
			c3.331-2.128,5.811-4.637,7.448-7.53c1.637-2.889,2.455-6.027,2.455-9.412c0-4.584-1.31-8.676-3.929-12.277
			s-6.196-6.929-10.723-9.986c-4.525-3.053-9.903-5.999-16.124-8.839c-6.221-2.837-12.932-5.729-20.135-8.677
			c-18.334-7.636-32.003-16.967-41.006-27.992c-9.004-11.021-13.505-24.333-13.505-39.941c0-12.221,2.455-22.726,7.366-31.513
			c4.911-8.782,11.598-16.014,20.053-21.689c8.455-5.672,18.252-9.847,29.384-12.522c11.132-2.673,22.918-4.011,35.358-4.011
			c12.22,0,23.057,0.736,32.494,2.21c9.438,1.473,18.146,3.74,26.109,6.793v48.945c-3.929-2.726-8.209-5.127-12.85-7.202
			c-4.641-2.071-9.413-3.79-14.324-5.156c-4.91-1.363-9.797-2.374-14.65-3.028c-4.854-0.655-9.47-0.982-13.833-0.982
			c-5.999,0-11.458,0.573-16.369,1.719s-9.061,2.758-12.441,4.829c-3.38,2.075-5.999,4.559-7.857,7.448
			c-1.857,2.894-2.782,6.139-2.782,9.74c0,3.929,1.039,7.448,3.109,10.559c2.071,3.109,5.018,6.057,8.84,8.84
			c3.822,2.782,8.455,5.512,13.915,8.185c5.459,2.677,11.622,5.431,18.497,8.267c9.389,3.929,17.818,8.104,25.291,12.523
			c7.474,4.42,13.891,9.412,19.235,14.978s9.437,11.926,12.277,19.071c2.84,7.148,4.256,15.469,4.256,24.963
			c0,13.096-2.48,24.093-7.448,32.986c-4.969,8.896-11.704,16.1-20.217,21.607c-8.513,5.513-18.416,9.47-29.711,11.868
			c-11.295,2.397-23.221,3.601-35.768,3.601c-12.875,0-25.128-1.092-36.751-3.273C180.022,724.169,169.955,720.896,161.442,716.528z
			"/>
		<path fill="#09589B" d="M414.184,706.052h-0.655v96.582H361.8V557.906h51.729v25.209h0.655
			c12.769-19.533,30.718-29.302,53.856-29.302c21.714,0,38.493,7.448,50.337,22.345s17.761,35.171,17.761,60.813
			c0,27.939-6.899,50.365-20.707,67.279c-13.809,16.918-32.167,25.373-55.085,25.373
			C440.154,729.624,424.767,721.767,414.184,706.052z M412.71,637.3v13.423c0,11.569,3.053,21.011,9.167,28.319
			c6.114,7.313,14.136,10.968,24.063,10.968c11.786,0,20.929-4.555,27.42-13.669c6.49-9.109,9.739-22.018,9.739-38.715
			c0-29.465-11.458-44.197-34.376-44.197c-10.583,0-19.234,4.01-25.946,12.031C416.066,613.481,412.71,624.097,412.71,637.3z"/>
		<path fill="#09589B" d="M727.001,656.452h-109.35c1.743,24.338,17.081,36.504,45.999,36.504c18.44,0,34.646-4.362,48.617-13.096
			v37.323c-15.493,8.296-35.628,12.44-60.404,12.44c-27.066,0-48.069-7.501-63.023-22.508
			c-14.953-15.003-22.426-35.932-22.426-62.777c0-27.829,8.078-49.871,24.227-66.135c16.149-16.259,36.014-24.391,59.586-24.391
			c24.448,0,43.355,7.26,56.722,21.771c13.366,14.516,20.053,34.213,20.053,59.096V656.452z M679.037,624.694
			c0-24.006-9.715-36.014-29.138-36.014c-8.291,0-15.47,3.438-21.526,10.313s-9.74,15.444-11.049,25.7H679.037z"/>
		<path fill="#09589B" d="M903.958,725.532h-48.946v-24.063h-0.654c-11.238,18.772-27.886,28.155-49.928,28.155
			c-16.264,0-29.057-4.607-38.387-13.832c-9.331-9.221-13.996-21.525-13.996-36.914c0-32.518,19.259-51.29,57.785-56.312
			l45.508-6.057c0-18.334-9.929-27.501-29.793-27.501c-19.971,0-38.96,5.95-56.967,17.843v-38.96
			c7.203-3.707,17.049-6.982,29.547-9.822c12.499-2.836,23.876-4.256,34.131-4.256c47.8,0,71.7,23.847,71.7,71.536V725.532z
			 M855.34,657.435V646.14l-30.448,3.928c-16.804,2.186-25.209,9.77-25.209,22.754c0,5.894,2.046,10.723,6.139,14.488
			c4.093,3.764,9.634,5.646,16.615,5.646c9.716,0,17.622-3.355,23.736-10.066C852.287,676.177,855.34,667.694,855.34,657.435z"/>
		<path fill="#09589B" d="M1119.539,725.532h-62.041l-53.529-83.158h-0.654v83.158h-51.729V477.366h51.729v157.969h0.654
			l49.928-77.429h61.387l-60.077,78.738L1119.539,725.532z"/>
	</g>
</g>
</svg>
