<svg width="1024" height="1024" xmlns="http://www.w3.org/2000/svg" version="1.1" enable-background="new 0 0 1024 1024" xml:space="preserve">
 <g>
  <title>Layer 1</title>
  <path stroke-width="20" fill="#FEF8F2" stroke="#09589B" stroke-miterlimit="10" d="m1014.009,807.348l-65.526,-23.301l-63.568,-22.531l-384.776,0c-34.874,0 -63.123,-28.293 -63.123,-63.121l0,-196.179c0,-34.797 28.249,-63.122 63.123,-63.122l425.243,0c34.874,0 63.106,28.325 63.106,63.122l0,168.563l0.339,-0.248l25.182,136.817z" id="svg_2"/>
  <path stroke-width="20" fill="#FEF8F2" stroke="#09589B" stroke-miterlimit="10" d="m597.135,297.483l0,196.087c0,14.64 -4.962,28.139 -13.354,38.834c-1.587,2.035 -3.305,3.945 -5.084,5.764c0,0 -0.07,0 -0.07,0.092c-1.842,1.758 -3.753,3.484 -5.787,5.086c-10.687,8.385 -24.18,13.346 -38.812,13.346l-384.782,0l-63.562,22.531l-65.541,23.301l25.197,-136.818l0.323,0.247l0,-168.47c0,-19.602 8.908,-37.171 22.969,-48.759c1.588,-1.264 3.183,-2.466 4.901,-3.638c0.824,-0.554 1.65,-1.078 2.542,-1.633c2.351,-1.479 4.901,-2.743 7.445,-3.883c0.956,-0.463 1.973,-0.833 2.927,-1.202c6.997,-2.62 14.508,-4.038 22.338,-4.038l425.243,0c7.821,0 15.325,1.417 22.329,4.038c0.956,0.37 1.973,0.739 2.929,1.202c2.544,1.14 5.023,2.404 7.443,3.883c0.894,0.555 1.78,1.14 2.612,1.633c1.657,1.172 3.306,2.374 4.831,3.638c1.526,1.263 3.059,2.681 4.454,4.068c2.165,2.157 4.138,4.469 5.979,6.873c1.788,2.435 3.437,4.962 4.9,7.644c4.841,8.969 7.63,19.202 7.63,30.174z" id="svg_8"/>
  <path fill="#9A8EC3" d="m556.357,238.368c-7.004,-2.62 -14.508,-4.038 -22.329,-4.038l-425.243,0c-7.83,0 -15.341,1.417 -22.338,4.038c6.997,-2.682 14.508,-4.1 22.338,-4.1l425.243,0c7.822,0.001 15.326,1.419 22.329,4.1z" id="svg_5"/>
  <path fill="#9A8EC3" d="m578.627,252.792c2.165,2.034 4.138,4.407 5.979,6.873c-1.841,-2.404 -3.814,-4.715 -5.979,-6.873z" id="svg_6"/>
  <path fill="#9A8EC3" d="m589.507,267.31c-1.464,-2.682 -3.112,-5.209 -4.9,-7.644c1.848,2.434 3.497,4.962 4.9,7.644z" id="svg_7"/>
  <line id="svg_25" y2="499" x2="222" y1="301" x1="316" stroke-width="30" stroke="#09589B" fill="none"/>
  <line id="svg_26" y2="500" x2="383" y1="302" x1="309" stroke-width="30" stroke="#09589B" fill="none"/>
  <line id="svg_27" y2="411" x2="342" y1="405" x1="275" stroke-width="30" stroke="#09589B" fill="none"/>
  <line id="svg_28" y2="536" x2="737" y1="499" x1="709" stroke-width="30" stroke="#09589B" fill="none"/>
  <line id="svg_29" y2="539" x2="850" y1="542" x1="639" stroke-width="30" stroke="#09589B" fill="none"/>
  <line id="svg_30" y2="713" x2="627" y1="553" x1="824" stroke-width="30" stroke="#09589B" fill="none"/>
  <line id="svg_31" y2="705" x2="834" y1="585" x1="650" stroke-width="30" stroke="#09589B" fill="none"/>
 </g>

</svg>