<?xml version="1.0" encoding="utf-8"?>
<!-- Generator: Adobe Illustrator 16.0.0, SVG Export Plug-In . SVG Version: 6.00 Build 0)  -->
<!DOCTYPE svg PUBLIC "-//W3C//DTD SVG 1.1//EN" "http://www.w3.org/Graphics/SVG/1.1/DTD/svg11.dtd">
<svg version="1.1" id="圖層_1" xmlns="http://www.w3.org/2000/svg" xmlns:xlink="http://www.w3.org/1999/xlink" x="0px" y="0px"
	 width="1024px" height="1024px" viewBox="0 0 1024 1024" enable-background="new 0 0 1024 1024" xml:space="preserve">
<path fill="#F8CF7E" d="M657.51,421.289c0,177.247-143.665,320.905-320.904,320.905c-177.238,0-320.912-143.658-320.912-320.905
	c0-177.246,143.674-320.904,320.912-320.904C513.845,100.385,657.51,244.042,657.51,421.289z"/>
<g>
	
		<path fill-rule="evenodd" clip-rule="evenodd" fill="none" stroke="#FFFFFF" stroke-width="20" stroke-linecap="round" stroke-linejoin="round" stroke-miterlimit="10" d="
		M513.172,879.27c-10.869-21.269-20.798-43.639-26.78-66.658c-7.247-27.816-11.056-56.704-14.25-85.364
		c-3.112-27.785,12.304-43.056,40.211-43.056c29.899,0,59.8,0,89.717,0c2.982,0,5.965,0,10.083,0c0-3.955,0-7.197,0-10.438
		c0-30.217-0.032-60.434,0-90.617c0.017-25.224,14.558-39.717,39.748-39.749c12.434,0,24.852,0,38.938,0
		c-5.415-9.37-10.019-17.442-14.752-25.482c-18.772-31.773-37.998-63.287-56.04-95.448c-4.555-8.105-7.084-18.156-7.766-27.525
		c-2.398-32.324-6.517-64.194-18.269-94.669c-17.127-44.515-47.772-75.995-93.082-90.617
		c-76.222-24.64-153.173-26.002-228.568,2.724c-68.838,26.229-106.552,78.751-114.236,151.276
		c-11.907,112.437,33.021,202.502,113.863,277.136c9.888,9.109,16.081,19.16,15.424,32.551
		c-3.518,70.419-22.589,136.136-60.027,196.18L513.172,879.27z"/>
	
		<path fill-rule="evenodd" clip-rule="evenodd" fill="none" stroke="#FFFFFF" stroke-width="20" stroke-linecap="round" stroke-linejoin="round" stroke-miterlimit="10" d="
		M956.595,493.491c27.071,47.886,38.306,99.694,38.176,151.114c0.244,54.954-10.699,104.137-33.247,150.693
		c-1.719,3.566-3.55,7.101-5.512,10.537"/>
	
		<path fill-rule="evenodd" clip-rule="evenodd" fill="none" stroke="#FFFFFF" stroke-width="20" stroke-linecap="round" stroke-linejoin="round" stroke-miterlimit="10" d="
		M829.861,560.894c16.259,27.331,23.765,57.159,23.861,82.966c-0.129,36.182-7.555,64.454-22.176,90.845"/>
</g>
</svg>
