<svg width="48" height="48" xmlns="http://www.w3.org/2000/svg">

 <g>
  <title>Layer 1</title>
  <path id="svg_1" fill="none" d="m0,0l48,0l0,48l-48,0l0,-48z"/>
  <path fill="#c9caca" stroke="null" id="svg_2" d="m41.39057,26.64953c0.09363,-0.74902 0.16385,-1.50975 0.16385,-2.28219s-0.07022,-1.53316 -0.16385,-2.28219l4.95059,-3.87386c0.44473,-0.35111 0.57347,-0.9831 0.28088,-1.49805l-4.68141,-8.11054c-0.29259,-0.50325 -0.90117,-0.71391 -1.42783,-0.50325l-5.82835,2.35241c-1.20546,-0.92458 -2.52796,-1.70871 -3.95579,-2.30559l-0.87776,-6.20286c-0.10533,-0.55007 -0.58518,-0.9831 -1.17035,-0.9831l-9.36281,0c-0.58518,0 -1.06502,0.43303 -1.15865,0.9831l-0.87776,6.20286c-1.42783,0.59688 -2.75033,1.36931 -3.95579,2.30559l-5.82835,-2.35241c-0.52666,-0.19896 -1.13524,0 -1.42783,0.50325l-4.68141,8.11054c-0.29259,0.50325 -0.16385,1.13524 0.28088,1.49805l4.93888,3.87386c-0.09363,0.74902 -0.16385,1.50975 -0.16385,2.28219s0.07022,1.53316 0.16385,2.28219l-4.93888,3.87386c-0.44473,0.35111 -0.57347,0.9831 -0.28088,1.49805l4.68141,8.11054c0.29259,0.50325 0.90117,0.71391 1.42783,0.50325l5.82835,-2.35241c1.20546,0.92458 2.52796,1.70871 3.95579,2.30559l0.87776,6.20286c0.09363,0.55007 0.57347,0.9831 1.15865,0.9831l9.36281,0c0.58518,0 1.06502,-0.43303 1.15865,-0.9831l0.87776,-6.20286c1.42783,-0.59688 2.75033,-1.36931 3.95579,-2.30559l5.82835,2.35241c0.52666,0.19896 1.13524,0 1.42783,-0.50325l4.68141,-8.11054c0.29259,-0.50325 0.16385,-1.13524 -0.28088,-1.49805l-4.93888,-3.87386zm-17.39142,5.91028c-4.52926,0 -8.19246,-3.6632 -8.19246,-8.19246s3.6632,-8.19246 8.19246,-8.19246s8.19246,3.6632 8.19246,8.19246s-3.6632,8.19246 -8.19246,8.19246z"/>
 </g>
</svg>