<?xml version="1.0" encoding="utf-8"?>
<!-- Generator: Adobe Illustrator 16.0.0, SVG Export Plug-In . SVG Version: 6.00 Build 0)  -->
<!DOCTYPE svg PUBLIC "-//W3C//DTD SVG 1.1//EN" "http://www.w3.org/Graphics/SVG/1.1/DTD/svg11.dtd">
<svg version="1.1" id="圖層_1" xmlns="http://www.w3.org/2000/svg" xmlns:xlink="http://www.w3.org/1999/xlink" x="0px" y="0px"
	 width="1024px" height="1024px" viewBox="0 0 1024 1024" enable-background="new 0 0 1024 1024" xml:space="preserve">
<g>
	<rect x="23.242" y="254.229" fill="#C9CACA" width="866.944" height="80.243"/>
	<path fill="#C9CACA" d="M1016.088,294.35c0,69.491-56.371,125.821-125.901,125.821c-69.492,0-125.861-56.33-125.861-125.821
		c0-69.491,56.369-125.821,125.861-125.821C959.717,168.529,1016.088,224.859,1016.088,294.35z"/>
	<rect x="23.242" y="505.952" fill="#C9CACA" width="866.944" height="80.242"/>
	<path fill="#C9CACA" d="M582.614,546.072c0,69.568-56.41,125.9-125.9,125.9c-69.489,0-125.861-56.332-125.861-125.9
		c0-69.491,56.372-125.901,125.861-125.901C526.204,420.171,582.614,476.581,582.614,546.072z"/>
	<rect x="23.242" y="757.754" fill="#C9CACA" width="866.944" height="80.162"/>
	<path fill="#C9CACA" d="M265.964,797.875c0,69.488-56.331,125.82-125.82,125.82c-69.571,0-125.901-56.332-125.901-125.82
		c0-69.57,56.331-125.902,125.901-125.902C209.633,671.973,265.964,728.305,265.964,797.875z"/>
</g>
</svg>
