<?xml version="1.0" encoding="UTF-8"?>
<!DOCTYPE svg PUBLIC "-//W3C//DTD SVG 1.1//EN" "http://www.w3.org/Graphics/SVG/1.1/DTD/svg11.dtd">
<svg xmlns="http://www.w3.org/2000/svg" version="1.1" width="437px" height="344px" style="shape-rendering:geometricPrecision; text-rendering:geometricPrecision; image-rendering:optimizeQuality; fill-rule:evenodd; clip-rule:evenodd" xmlns:xlink="http://www.w3.org/1999/xlink">
<g><path style="opacity:0.953" fill="#0060a7" d="M 291.5,0.5 C 324.186,-2.88884 354.852,3.27783 383.5,19C 399.331,27.8453 409.498,41.012 414,58.5C 416.364,79.0746 409.531,95.9079 393.5,109C 364.998,128.712 333.331,137.379 298.5,135C 287.414,141.294 276.247,147.46 265,153.5C 262.328,143.982 259.161,134.649 255.5,125.5C 235.236,118.06 219.736,105.06 209,86.5C 202.761,69.3953 204.761,53.3953 215,38.5C 225.626,25.5491 238.793,16.0491 254.5,10C 266.682,5.70532 279.015,2.53865 291.5,0.5 Z M 292.5,14.5 C 323.621,11.1563 352.621,17.3229 379.5,33C 389.36,39.5224 396.193,48.3558 400,59.5C 402.351,70.6242 400.018,80.6242 393,89.5C 374.731,107.88 352.564,118.047 326.5,120C 315.833,120.333 305.167,120.667 294.5,121C 287.5,124.833 280.5,128.667 273.5,132.5C 271.551,126.314 269.218,120.314 266.5,114.5C 250.949,109.815 237.782,101.481 227,89.5C 217,74.8333 217,60.1667 227,45.5C 236.038,35.3985 246.871,27.8985 259.5,23C 270.356,19.0696 281.356,16.2362 292.5,14.5 Z"/></g>
<g><path style="opacity:0.951" fill="#0060a7" d="M 89.5,64.5 C 123.92,61.0187 154.92,69.5187 182.5,90C 214.35,119.268 219.184,152.435 197,189.5C 177.259,212.792 152.093,226.292 121.5,230C 112.5,230.333 103.5,230.667 94.5,231C 83.0708,238.464 71.9041,246.297 61,254.5C 57.1988,242.636 53.6988,230.636 50.5,218.5C 15.2878,202.401 -1.2122,175.068 1,136.5C 6.40025,112.098 19.9003,93.5983 41.5,81C 56.5938,72.5807 72.5938,67.0807 89.5,64.5 Z M 106.5,77.5 C 137.136,78.0934 162.969,89.4268 184,111.5C 203.952,142.543 200.119,170.376 172.5,195C 147.663,212.461 119.996,219.795 89.5,217C 82.6667,221.833 75.8333,226.667 69,231.5C 67,224.167 65,216.833 63,209.5C 44.3378,202.169 30.0044,189.836 20,172.5C 8.752,143.908 14.9187,119.741 38.5,100C 58.8041,85.1763 81.4707,77.6763 106.5,77.5 Z"/></g>
<g><path style="opacity:0.953" fill="#0060a7" d="M 286.5,343.5 C 286.167,343.5 285.833,343.5 285.5,343.5C 282.828,331.811 279.994,320.144 277,308.5C 257.055,298.888 242.055,284.222 232,264.5C 219.53,224.912 230.697,193.745 265.5,171C 299.855,151.877 335.855,148.21 373.5,160C 400.988,169.157 420.488,186.99 432,213.5C 440.976,245.57 432.81,272.403 407.5,294C 381.544,313.535 352.211,322.202 319.5,320C 308.319,327.696 297.319,335.53 286.5,343.5 Z M 315.5,167.5 C 343.811,164.326 369.811,170.492 393.5,186C 424.773,210.242 429.94,239.075 409,272.5C 392.164,290.836 371.331,301.669 346.5,305C 336.167,305.333 325.833,305.667 315.5,306C 308.579,310.71 301.746,315.544 295,320.5C 292.691,313.266 290.691,305.932 289,298.5C 267.762,289.927 252.429,275.261 243,254.5C 236.348,228.121 243.515,206.288 264.5,189C 279.682,177.442 296.682,170.275 315.5,167.5 Z"/></g>
</svg>
