<?xml version="1.0" encoding="utf-8"?>
<!-- Generator: Adobe Illustrator 16.0.0, SVG Export Plug-In . SVG Version: 6.00 Build 0)  -->
<!DOCTYPE svg PUBLIC "-//W3C//DTD SVG 1.1//EN" "http://www.w3.org/Graphics/SVG/1.1/DTD/svg11.dtd">
<svg version="1.1" id="圖層_1" xmlns="http://www.w3.org/2000/svg" xmlns:xlink="http://www.w3.org/1999/xlink" x="0px" y="0px"
	 width="1280px" height="1280px" viewBox="0 0 1280 1280" enable-background="new 0 0 1280 1280" xml:space="preserve">
<g>
	<g>
		<g>
			<path fill-rule="evenodd" clip-rule="evenodd" fill="none" stroke="#09589B" stroke-width="18" stroke-miterlimit="10" d="
				M736.811,914.864c-0.146,5.911-10.754-5.296-15.563-8.759c-9.833-7.074-19.286-14.671-29.342-22.394
				c-1.717,2.069-3.828,3.826-4.929,6.08c-4.617,9.464-8.861,19.115-13.407,28.618c-1.523,3.18-1.351,5.681,1.62,7.75
				c10.352,7.208,20.241,15.227,31.156,21.447c27.84,15.865,61.318,5.659,81.267-17.076c15.035-17.135,23.101-39.967,13.385-61.634
				c-9.342-20.83-28.986-30.63-49.592-16.938C736.027,862.18,737.189,899.522,736.811,914.864z"/>
			<path fill-rule="evenodd" clip-rule="evenodd" fill="none" stroke="#09589B" stroke-width="18" stroke-miterlimit="10" d="
				M607.061,964.764c0,0-125.806,76.884-169.918,68.427"/>
			<path fill-rule="evenodd" clip-rule="evenodd" fill="none" stroke="#09589B" stroke-width="18" stroke-miterlimit="10" d="
				M648.942,945.668c1.171-0.841,2.326-1.701,4.006-2.934c0.527,2.534,0.894,4.306,1.264,6.08c0,0,70.855,133.481,231.777,64.667"/>
			<path fill-rule="evenodd" clip-rule="evenodd" fill="none" stroke="#09589B" stroke-width="18" stroke-miterlimit="10" d="
				M302.658,989.162"/>
			<path fill-rule="evenodd" clip-rule="evenodd" fill="none" stroke="#09589B" stroke-width="18" stroke-miterlimit="10" d="
				M637.588,873.467c-11.688-4.918-22.967-9.374-33.98-14.418c-5.387-2.466-10.665-5.528-15.311-9.189
				c-8.074-6.363-9.371-14.293-4.769-23.495c7.893-15.787,21.357-22.833,37.477-19.611c17.539,3.503,30.371,17.908,31.465,35.624
				c1.651,26.78-9.46,48.503-27.473,67.192c-7.044,7.307-14.377,14.614-25.142,16.437c-0.346,0.057-0.699,0.049-2.422,0.163
				c-1.12-3.92-2.174-8.197-3.599-12.349c-0.608-1.769-1.604-3.933-3.076-4.793c-11.516-6.7-23.19-13.127-35.104-19.801
				c-0.275,0.707-1.075,1.901-1.176,3.154c-1.48,18.506-0.648,36.663,9.829,52.887c12.149,18.807,33.962,25.04,55.098,16.237
				c12.589-5.239,23.125-13.288,32.288-23.179c19.494-21.044,33.643-44.968,38.958-73.556c9.171-49.318-23.809-93.181-73.369-97.551
				c-34.6-3.052-64.373,19.364-72.344,54.47c-6.646,29.273,4.031,55.462,29.978,70.845c10.809,6.405,22.67,11.032,34.056,16.462
				c3.269,1.56,5.527,0.469,7.538-2.427c6.009-8.653,12.294-17.114,18.233-25.813C636.157,878.686,636.641,875.981,637.588,873.467z
				"/>
		</g>
		<g>
			<path fill-rule="evenodd" clip-rule="evenodd" fill="none" stroke="#09589B" stroke-width="18" stroke-miterlimit="10" d="
				M323.656,1033.19c-25.45-38.88-31.321-84.967-31.321-84.967c-0.272-1.83-0.529-3.66-0.771-5.49
				c-21.379-161.784,76.19-319.573,231.313-373.488c122.022-42.41,273.161-13.258,364.742,80.23
				c42.899,43.792,69.463,90.93,84.548,150.333c16.849,66.35,25.037,132.39,13.601,200.74 M316.586,762.6l22.146,14.892
				c8.564,4.817,17.141,9.616,25.73,14.39c13.674,7.601,19.455,5.808,26.556-8.144c32.018-62.907,94.77-102.895,162.087-118.894
				c22.829-5.426,46.287-8.367,69.736-9.065c32.139-0.959,65.723,1.77,97.286,8.042c50.075,9.952,94.685,31.118,131.126,67.73
				c17.423,17.506,31.017,37.681,41.464,60.043c4.39,9.392,11.216,12.954,18.977,9.137c11.377-5.598,22.319-12.079,33.321-18.113
				l17.554-11.919"/>
		</g>
		<path fill-rule="evenodd" clip-rule="evenodd" fill="none" stroke="#09589B" stroke-width="18" stroke-miterlimit="10" d="
			M300.482,978.733c0.001,0.001,271.606,175.536,682.818-1.727"/>
	</g>
</g>
<path fill-rule="evenodd" clip-rule="evenodd" fill="none" stroke="#09589B" stroke-width="18" stroke-miterlimit="10" d="
	M1128.111,662.889C1128.111,932.466,906.576,1146,637,1146S151.889,932.466,151.889,662.889
	c0-269.576,218.535-488.11,488.111-488.11S1128.111,393.313,1128.111,662.889z"/>
<ellipse transform="matrix(1 -0.0031 0.0031 1 -3.0991 1.9222)" fill-rule="evenodd" clip-rule="evenodd" fill="#09589B" cx="628.399" cy="1016.576" rx="5.601" ry="22.614"/>
<circle fill-rule="evenodd" clip-rule="evenodd" fill="#09589B" cx="443" cy="439" r="62"/>
<circle fill-rule="evenodd" clip-rule="evenodd" fill="#09589B" cx="805" cy="439" r="62"/>
</svg>
