<?xml version="1.0" encoding="utf-8"?>
<!-- Generator: Adobe Illustrator 16.0.0, SVG Export Plug-In . SVG Version: 6.00 Build 0)  -->
<!DOCTYPE svg PUBLIC "-//W3C//DTD SVG 1.1//EN" "http://www.w3.org/Graphics/SVG/1.1/DTD/svg11.dtd">
<svg version="1.1" id="圖層_1" xmlns="http://www.w3.org/2000/svg" xmlns:xlink="http://www.w3.org/1999/xlink" x="0px" y="0px"
	 width="1024px" height="1024px" viewBox="0 0 1024 1024" enable-background="new 0 0 1024 1024" xml:space="preserve">
<g>
	<g>
		<path fill-rule="evenodd" clip-rule="evenodd" fill="#FFFFFF" d="M124.095,728.336c0,5.622,0.108,9.153-0.015,12.685
			c-0.635,17.335-10.58,28.595-27.774,29.339c-18.959,0.82-38.028,0.82-56.988,0.016c-17.225-0.728-27.712-12.19-27.758-29.339
			c-0.155-69.688-0.17-139.395,0-209.085c0.031-18.479,11.137-29.306,29.71-29.554c17.427-0.216,34.853-0.17,52.279,0
			c19.532,0.186,30.593,10.564,30.298,29.974c-0.155,10.037,3.036,12.624,12.779,12.545c56.617-0.417,113.264,0.203,169.88-0.417
			c24.118-0.264,43.62,7.808,60.504,24.908c48.128,48.731,96.674,97.061,145.234,145.374c10.068,10.008,18.543,20.695,20.37,35.192
			c0.991,7.962,6.677,6.415,11.57,6.415c50.297,0.061,100.577-0.094,150.875,0.201c8.596,0.045,17.626,0.525,25.697,3.16
			c26.457,8.612,41.869,34.991,37.718,62.564c-3.981,26.394-27.061,46.576-54.851,46.624c-116.81,0.217-233.636,0.125-350.447,0.062
			c-19.641,0-35.999-7.868-49.77-21.639c-33.303-33.304-67.056-66.189-99.802-100.05c-13.074-13.523-27.403-20.571-46.269-19.115
			C146.804,729.001,136.162,728.336,124.095,728.336z M124.126,699.833c12.717,0,23.777,0.511,34.775-0.092
			c25.512-1.458,45.85,8.115,63.524,26.239c32.885,33.754,66.607,66.67,99.802,100.111c9.45,9.512,20.261,14.594,33.815,14.578
			c114.858-0.109,229.733,0.03,344.608-0.279c6.335-0.016,13.429-2.139,18.851-5.438c9.868-6.025,13.522-18.51,10.316-29.214
			c-3.795-12.594-13.972-20.787-28.486-20.865c-55.842-0.325-111.699-0.249-167.541,0.015c-3.377,0.016-7.729,2.03-9.944,4.586
			c-26.085,29.989-58.149,31.554-86.311,3.702c-17.178-16.992-34.14-34.187-51.21-51.287c-10.347-10.363-21.298-20.23-30.779-31.322
			c-3.206-3.763-4.832-11.339-3.33-15.892c1.302-3.89,8.101-8.227,12.471-8.227c4.615,0,10.021,4.09,13.739,7.762
			c26.829,26.379,53.238,53.177,79.944,79.68c12.995,12.919,27.757,13.942,38.833,3.16c11.479-11.184,10.658-26.394-2.633-39.717
			c-50.063-50.201-100.283-100.235-150.363-150.422c-9.154-9.188-19.951-13.958-32.916-13.943
			c-13.864,0.016-27.727-0.076-41.59-0.076c-44.751-0.015-89.518-0.03-134.284,0.016c-5.344,0-11.416-1.426-11.369,7.606
			C124.234,619.673,124.126,658.815,124.126,699.833z M40.495,741.501c18.882,0,36.463,0,54.339,0c0-70.493,0-140.169,0-209.966
			c-18.588,0-36.169,0-54.339,0C40.495,601.719,40.495,671.145,40.495,741.501z"/>
	</g>
	<g>
		<path fill-rule="evenodd" clip-rule="evenodd" fill="#FFFFFF" d="M759.791,711.372c0-101.009-0.031-197.527,0.109-294.046
			c0.015-3.393,0.883-7.42,2.835-10.085c46.81-63.803,109.204-101.289,188.095-110.583c1.797-0.201,3.641-0.155,5.453-0.031
			c0.805,0.063,1.58,0.605,3.129,1.24c0,103.752,0,207.767,0,312.588C880.319,616.807,814.472,649.288,759.791,711.372z"/>
		<path fill-rule="evenodd" clip-rule="evenodd" fill="#FFFFFF" d="M734.697,709.267c-54.339-59.295-119.352-92.615-198.582-98.842
			c0-104.278,0-208.341,0-314.99c12.965,2.2,25.326,3.779,37.438,6.444c63.386,13.957,114.41,47.57,154.002,98.61
			c4.137,5.328,7.716,12.825,7.731,19.347c0.371,93.824,0.076,187.647-0.079,281.484
			C735.208,703.118,734.992,704.93,734.697,709.267z"/>
		<path fill-rule="evenodd" clip-rule="evenodd" fill="#FFFFFF" d="M696.298,706.464c-72.029-25.808-141.44-27.759-212.122-10.363
			c0-107.626,0-214.196,0-322.209c7.141-2.215,14.732-4.569,24.351-7.575c0.728,8.18,1.843,15.149,1.875,22.136
			c0.262,72.462,0.278,144.94,0.511,217.402c0.093,27.634,0.248,27.682,27.943,29.463c57.483,3.702,107.47,25.202,150.532,63.215
			C690.908,699.863,692.084,701.599,696.298,706.464z"/>
		<path fill-rule="evenodd" clip-rule="evenodd" fill="#FFFFFF" d="M984.134,366.394c9.759,2.695,17.953,4.973,25.931,7.172
			c0,107.394,0,214.182,0,322.411c-71.827-17.611-141.517-14.591-210.217,9.697c42.335-41.188,92.478-65.26,151.262-69.876
			c32.809-2.587,32.915-1.921,32.932-34.311c0.063-72.834,0.063-145.684,0.093-218.519
			C984.134,378.042,984.134,373.133,984.134,366.394z"/>
	</g>
</g>
</svg>
