<?xml version="1.0" encoding="utf-8"?>
<!-- Generator: Adobe Illustrator 16.0.0, SVG Export Plug-In . SVG Version: 6.00 Build 0)  -->
<!DOCTYPE svg PUBLIC "-//W3C//DTD SVG 1.1//EN" "http://www.w3.org/Graphics/SVG/1.1/DTD/svg11.dtd">
<svg version="1.1" id="圖層_1" xmlns="http://www.w3.org/2000/svg" xmlns:xlink="http://www.w3.org/1999/xlink" x="0px" y="0px"
	 width="1024px" height="1024px" viewBox="0 0 1024 1024" enable-background="new 0 0 1024 1024" xml:space="preserve">
<g>
	<path fill="#C7E2BE" d="M648.2,213.008c60.782,42.659,75.588,126.656,33.027,187.608L460.038,883.342
		c-42.55,60.933-126.312,75.781-187.095,33.101L71.51,775.072C10.728,732.411-4.06,648.415,38.472,587.443l232.29-474.918
		c42.549-60.953,126.321-75.781,187.102-33.103L648.2,213.008z"/>
	<path fill="#9BCB68" d="M1009.81,719.817c0,74.385-60.15,134.686-134.364,134.686l-521.182,95.081
		c-74.205,0-134.346-60.319-134.346-134.725V568.294c0-74.404,60.142-134.723,134.346-134.723l521.182-81.444
		c74.214,0,134.364,60.302,134.364,134.685V719.817z"/>
	<g>
		<path fill="#FFFFFF" d="M252.538,749.102h-67.61V464.533c0-24.591,1.737-46.889,5.202-66.878
			c3.475-19.971,9.409-36.996,17.797-51.042c8.406-14.065,19.534-24.814,33.41-32.284c13.858-7.47,31.198-11.196,52.014-11.196
			c20.778,0,38.184,3.726,52.181,11.196c14.006,7.47,25.266,18.219,33.81,32.284c8.517,14.046,14.657,31.071,18.399,51.042
			c3.727,19.989,5.592,42.287,5.592,66.878v284.568h-69.197V602.867h-81.597V749.102z M334.135,525.111v-68.515
			c0-24.124-3.27-42.473-9.799-54.991c-6.541-12.52-16.868-18.76-30.986-18.76c-14.155,0-24.484,6.24-31.013,18.76
			c-6.54,12.518-9.799,30.868-9.799,54.991v68.515H334.135z"/>
		<path fill="#FFFFFF" d="M545.044,373.587c13.711,0,26.239,1.714,37.544,5.104c11.313,3.391,20.989,8.848,28.979,16.375
			c7.987,7.545,14.23,17.51,18.689,29.938c4.456,12.406,6.686,27.644,6.686,45.714c0,24.104-3.195,42.92-9.622,56.481
			c-6.372,13.563-15.884,23.731-28.46,30.515c5.964,1.861,11.722,4.879,17.313,9.015c5.611,4.155,10.533,9.799,14.75,16.952
			c4.216,7.135,7.654,15.705,10.292,25.671c2.637,9.985,3.957,21.943,3.957,35.878c0,20.716-2.472,38.098-7.375,52.217
			c-4.924,14.121-11.797,25.615-20.583,34.443c-8.806,8.85-19.208,15.146-31.21,18.928c-11.981,3.764-24.966,5.627-38.898,5.627
			c-11.656,0-24.695-1.212-39.085-3.652c-14.405-2.459-29.147-6.297-44.231-11.586V373.587H545.044z M522.752,527.198h25.031
			c8.918,0,15.882-3.466,20.917-10.45c5.016-6.949,7.552-18.723,7.552-35.301c0-16.914-2.341-28.502-7.041-34.724
			c-4.681-6.185-12.056-9.314-22.105-9.314h-24.354V527.198z M522.752,689.828c3.659,0.762,7.608,1.339,11.852,1.673
			c4.208,0.412,7.7,0.599,10.44,0.599c14.397,0,23.945-4.342,28.636-13.005c4.68-8.644,7.021-21.645,7.021-38.952
			c0-15.816-2.405-27.682-7.198-35.563c-4.803-7.934-13.134-11.882-25.032-11.882h-25.719V689.828z"/>
		<path fill="#FFFFFF" d="M839.574,447.021c-6.873-3.372-15.344-6.221-25.376-8.475c-10.069-2.256-19.653-3.375-28.792-3.375
			c-15.792,0-27.679,9.576-35.669,28.803c-8.006,19.188-11.999,51.004-11.999,95.414c0,25.969,1.021,47.15,3.084,63.523
			c2.043,16.396,5.202,29.173,9.437,38.413c4.198,9.222,9.715,15.611,16.458,19.188c6.726,3.576,14.789,5.364,24.169,5.364
			c8.675,0,17.592-1.321,26.731-3.949c9.14-2.607,17.388-5.476,24.688-8.494l4.124,67.772c-7.095,3.761-15.882,7.247-26.415,10.47
			c-10.495,3.165-21.232,4.769-32.23,4.769c-17.834,0-33.716-3.297-47.649-9.875c-13.932-6.594-25.654-17.585-35.128-33.009
			c-9.511-15.461-16.719-35.674-21.623-60.711c-4.903-25.019-7.356-56.202-7.356-93.461c0-35.374,2.415-65.311,7.209-89.789
			c4.791-24.46,11.925-44.337,21.418-59.576c9.475-15.238,21.194-26.246,35.129-33.009c13.968-6.799,30.056-10.17,48.353-10.17
			c10.98,0,21.718,1.21,32.232,3.688c10.514,2.439,18.854,4.991,25.021,7.6L839.574,447.021z"/>
	</g>
</g>
</svg>
