<?xml version="1.0" encoding="utf-8"?>
<!-- Generator: Adobe Illustrator 16.0.0, SVG Export Plug-In . SVG Version: 6.00 Build 0)  -->
<!DOCTYPE svg PUBLIC "-//W3C//DTD SVG 1.1//EN" "http://www.w3.org/Graphics/SVG/1.1/DTD/svg11.dtd">
<svg version="1.1" id="圖層_1" xmlns="http://www.w3.org/2000/svg" xmlns:xlink="http://www.w3.org/1999/xlink" x="0px" y="0px"
	 width="1024px" height="1024px" viewBox="0 0 1024 1024" enable-background="new 0 0 1024 1024" xml:space="preserve">
<g>
	<path fill="#387C38" d="M445.85,127.334h-60.041c-2.276-0.359-4.67-0.599-7.068-0.599H61.087
		c-26.987,0-48.864,23.294-48.864,51.997v68.944h528.66L445.85,127.334z"/>
	<path fill="#57A033" d="M962.913,247.676H632.524h-91.642H12.223v550.317c0,28.604,21.877,51.9,48.864,51.9h901.826
		c26.988,0,48.864-23.296,48.864-51.9V299.534C1011.777,270.831,989.901,247.676,962.913,247.676z"/>
	<g>
		<path fill="#FFFFFF" d="M353.99,408.362l-25.011,212.521c-1.955,17.466-8.821,26.187-20.837,26.187H288.52
			c-11.757,0-18.863-8.343-21.318-25.449l-12.754-92.457c-2.936-20.74-5.391-41.839-7.106-62.976h-0.978l-2.936,25.129
			c-1.237,12.755-2.694,25.11-4.411,37.847l-12.517,92.457c-2.195,17.106-9.061,25.449-21.078,25.449h-18.882
			c-11.518,0-18.624-8.721-20.82-25.827l-25.749-210.347l42.655-9.84l9.323,98.626l7.345,85.91h0.978
			c2.696-24.392,6.388-52.775,10.8-85.91l13.034-98.626h52.437l9.043,98.626c1.476,10.579,3.433,26.926,6.127,48.784l4.412,37.126
			h1.237l6.846-85.91l16.986-98.626L353.99,408.362z"/>
		<path fill="#FFFFFF" d="M414.153,636.371c-25.49-20.459-39.941-59.402-39.941-111.32c0-25.968,3.433-48.365,10.539-66.847
			c13.712-37.348,39.701-57.148,73.056-57.148c16.667,0,31.378,4.871,43.874,14.611c25.249,19.481,39.702,57.765,39.702,109.384
			c0,25.949-3.414,48.346-10.279,67.508c-13.974,37.967-40.201,59.063-73.296,59.063
			C441.378,651.622,426.668,646.452,414.153,636.371z M457.807,601.641c23.773,0,38.963-29.861,38.963-76.59
			c0-46.428-14.71-74.333-38.963-74.333c-24.272,0-38.744,27.586-38.744,74.333C419.063,571.779,434.013,601.641,457.807,601.641z"
			/>
		<path fill="#FFFFFF" d="M594.699,405.287h47.565c43.134,0,71.34,21.757,71.34,76.271c0,34.071-11.777,57.765-31.38,69.763
			l24.014,56.489c1.717,4.23,2.694,8.763,2.694,13.632c0,15.591-9.562,27.905-21.318,27.905c-8.083,0-14.95-5.827-18.624-14.931
			l-28.682-72.358h-21.08v58.406c0,15.907-9.82,29.223-21.816,29.223c-12.017,0-22.076-13.315-22.076-29.223V430.917
			C575.336,414.369,582.201,405.287,594.699,405.287z M638.83,516.289c20.84,0,32.119-12.355,32.119-34.731
			c0-22.078-10.541-30.181-32.119-30.181h-19.602v64.912H638.83z"/>
		<path fill="#FFFFFF" d="M768.336,405.287h33.096c57.865,0,92.418,38.286,92.418,119.764c0,81.461-34.313,122.02-89.963,122.02
			h-35.551c-12.496,0-19.361-9.08-19.361-25.629V430.917C748.975,414.369,755.84,405.287,768.336,405.287z M798.736,600.345
			c31.639,0,50.263-21.101,50.263-75.294c0-54.192-18.146-73.355-50.263-73.355h-5.869v148.649H798.736z"/>
	</g>
</g>
</svg>
