<?xml version="1.0" encoding="utf-8"?>
<!-- Generator: Adobe Illustrator 16.0.0, SVG Export Plug-In . SVG Version: 6.00 Build 0)  -->
<!DOCTYPE svg PUBLIC "-//W3C//DTD SVG 1.1//EN" "http://www.w3.org/Graphics/SVG/1.1/DTD/svg11.dtd">
<svg version="1.1" id="圖層_1" xmlns="http://www.w3.org/2000/svg" xmlns:xlink="http://www.w3.org/1999/xlink" x="0px" y="0px"
	 width="1024px" height="1024px" viewBox="0 0 1024 1024" enable-background="new 0 0 1024 1024" xml:space="preserve">
<g>
	<path fill="#387C38" d="M447.055,146.153h-59.763c-2.254-0.358-4.648-0.597-7.022-0.597H64.141
		c-26.867,0-48.639,23.183-48.639,51.748v68.613h526.12L447.055,146.153z"/>
	<path fill="#57A033" d="M961.624,265.917H632.821h-91.199H15.502v547.673c0,28.466,21.772,51.648,48.639,51.648h897.483
		c26.856,0,48.628-23.183,48.628-51.648V317.526C1010.252,288.961,988.48,265.917,961.624,265.917z"/>
	<g>
		<path fill="#FFFFFF" d="M194.752,775.032h-75.338v-308.44c0-26.659,1.908-50.814,5.801-72.467
			c3.844-21.673,10.459-40.107,19.815-55.343c9.366-15.237,21.772-26.877,37.227-35.002c15.455-8.084,34.773-12.137,57.956-12.137
			c23.182,0,42.57,4.053,58.174,12.137c15.573,8.125,28.148,19.765,37.653,35.002c9.525,15.236,16.339,33.67,20.51,55.343
			c4.152,21.652,6.238,45.808,6.238,72.467v308.44h-77.105V616.512h-90.931V775.032z M285.683,532.265v-74.254
			c0-26.183-3.666-46.047-10.925-59.595c-7.311-13.587-18.812-20.381-34.545-20.381c-15.763,0-27.275,6.793-34.535,20.381
			c-7.311,13.548-10.926,33.412-10.926,59.595v74.254H285.683z"/>
		<path fill="#FFFFFF" d="M545.316,347.701v351.488h100.695v75.844H476.315V347.701H545.316z"/>
		<path fill="#FFFFFF" d="M804.096,347.701v351.488h100.675v75.844H735.085V347.701H804.096z"/>
	</g>
</g>
</svg>
