<?xml version="1.0" encoding="utf-8"?>
<!-- Generator: Adobe Illustrator 16.0.0, SVG Export Plug-In . SVG Version: 6.00 Build 0)  -->
<!DOCTYPE svg PUBLIC "-//W3C//DTD SVG 1.1//EN" "http://www.w3.org/Graphics/SVG/1.1/DTD/svg11.dtd">
<svg version="1.1" id="圖層_1" xmlns="http://www.w3.org/2000/svg" xmlns:xlink="http://www.w3.org/1999/xlink" x="0px" y="0px"
	 width="2902.68px" height="2902.68px" viewBox="0 0 2902.68 2902.68" enable-background="new 0 0 2902.68 2902.68"
	 xml:space="preserve">
<g>
	<path fill="#09589B" d="M866.857,1192.236c68.408,0,120.494,21.09,156.344,63.265c35.75,42.12,53.678,100.78,53.678,175.912
		c0,73.493-18.596,130.406-55.768,170.693c-37.171,40.28-88.63,60.372-154.254,60.372c-63.043,0-113.031-20.564-149.927-61.572
		c-37.022-41.075-55.518-97.591-55.518-169.493c0-75.132,17.624-133.792,52.874-175.912
		C749.571,1213.327,800.328,1192.236,866.857,1192.236z M867.847,1538.369c19.566,0,34.286-8.442,44.144-25.291
		c9.783-16.883,14.638-45.66,14.638-86.466c0-40.381-4.78-68.74-14.389-84.976c-9.635-16.276-24.151-24.348-43.395-24.348
		c-18.92,0-33.361,7.896-43.32,23.653c-10.006,15.757-14.988,44.615-14.988,86.715
		C810.537,1501.42,829.685,1538.369,867.847,1538.369z"/>
	<path fill="#09589B" d="M1358.23,1207.521v55.868h2.588c33.362-45.586,71.107-68.315,113.005-68.315
		c45.087,0,81.308,21.212,108.669,63.784c27.361,42.451,40.953,99.634,40.953,171.563c0,69.407-13.963,125.451-41.972,168.097
		c-28.035,42.646-63.985,63.959-107.65,63.959c-46.105,0-83.749-24.475-113.005-73.493h-2.588v238.705h-149.65v-620.168H1358.23z
		 M1473.823,1425.661c0-72.219-19.742-108.372-59.3-108.372c-37.522,0-56.293,36.477-56.293,109.323
		c0,75.131,18.771,112.653,56.293,112.653C1454.081,1539.266,1473.823,1501.42,1473.823,1425.661z"/>
	<path fill="#09589B" d="M1751.586,1075.726c0-20.389,7.673-37.744,23.208-52.086c15.461-14.24,34.057-21.461,55.768-21.461
		c21.98,0,40.704,7.221,56.212,21.461c15.487,14.342,23.228,31.697,23.228,52.086c0,20.039-7.74,37.34-23.228,51.783
		c-15.508,14.49-34.231,21.71-56.212,21.71c-21.34,0-39.835-7.221-55.545-21.71
		C1759.354,1113.065,1751.586,1095.765,1751.586,1075.726z M1755.672,1207.521h150.176v439.193h-150.176V1207.521z"/>
	<path fill="#09589B" d="M2299.105,1512.552v114.649c-35.776,22.257-71.728,33.382-107.8,33.382
		c-53.353,0-96.101-21.407-128.263-64.182c-32.195-42.849-48.323-100.355-48.323-172.682c0-68.335,16.553-124.103,49.639-167.052
		c33.018-43.017,75.664-64.431,127.945-64.431c36.443,0,72.448,11.9,107.873,35.803v113.598
		c-20.342-9.858-38.54-14.813-54.675-14.813c-24.145,0-43.59,9.015-58.403,27.037c-14.712,17.929-22.155,41.905-22.155,71.801
		c0,31.521,7.24,56.32,21.684,74.545c14.436,18.124,34.056,27.159,58.875,27.159
		C2260.591,1527.365,2278.519,1522.463,2299.105,1512.552z"/>
	<path fill="#09589B" d="M2444.203,1504.906c51.338,28.035,88.307,42.1,111.009,42.1c12.399,0,22.682-3.034,30.948-8.887
		c8.293-5.9,12.399-12.973,12.399-21.212c0-8.961-3.438-15.488-10.282-19.641c-6.871-4.086-32.742-15.285-77.451-33.389
		c-35.775-14.638-61.572-31.892-77.377-51.81c-15.858-19.89-23.781-44.608-23.781-74.234c0-42.33,15.765-77.182,47.185-104.543
		c31.515-27.361,71.7-41.055,120.522-41.055c47.521,0,105.635,17.456,174.516,52.457l-57.857,98.885
		c-44.709-25.466-81.361-38.209-109.916-38.209c-24.792,0-37.172,9.23-37.172,27.685c0,8.907,4.585,16.654,13.694,23.174
		c9.136,6.5,25.696,13.768,49.82,21.737c45.033,14.584,77.822,32.142,98.313,52.457c20.464,20.437,30.698,46.179,30.698,77.323
		c0,44.642-16.182,81.24-48.546,109.869c-32.316,28.628-73.595,42.97-123.833,42.97c-54.351,0-112.505-17.625-174.502-53.003
		L2444.203,1504.906z"/>
	<polygon fill="#09589B" points="669.949,1009.4 669.949,1154.074 595.309,1154.074 595.309,1154.971 487.409,1154.971 
		487.409,1646.714 328.974,1646.714 328.974,1154.971 222.166,1154.971 222.166,1154.074 150.79,1154.074 150.79,1009.4 	"/>
</g>
</svg>
