<?xml version="1.0" encoding="utf-8"?>
<!-- Generator: Adobe Illustrator 16.0.0, SVG Export Plug-In . SVG Version: 6.00 Build 0)  -->
<!DOCTYPE svg PUBLIC "-//W3C//DTD SVG 1.1//EN" "http://www.w3.org/Graphics/SVG/1.1/DTD/svg11.dtd">
<svg version="1.1" id="圖層_1" xmlns="http://www.w3.org/2000/svg" xmlns:xlink="http://www.w3.org/1999/xlink" x="0px" y="0px"
	 width="2902.68px" height="2902.68px" viewBox="0 0 2902.68 2902.68" enable-background="new 0 0 2902.68 2902.68"
	 xml:space="preserve">
<g>
	<path fill="#09589B" d="M1404.014,1040.395c107.272,0,188.783,32.789,244.382,98.366c55.564,65.578,83.473,162.096,83.473,289.563
		c0,124.163-28.332,219.165-84.896,285.113c-56.61,65.975-137.675,98.986-242.959,98.986c-99.91,0-179.357-30.847-238.509-92.662
		c-59.031-61.64-88.604-161.429-88.604-299.131c0-120.92,28.406-214.499,85.293-280.724
		c56.886-66.353,136.434-99.512,238.806-99.512H1404.014z M1292.776,1419.539c0,156.77,36.598,235.172,109.814,235.172
		c39.538,0,68.045-17.308,85.542-51.938c17.632-34.63,26.464-89.622,26.464-165.11c0-83.128-8.832-143.703-26.464-181.569
		c-17.497-37.94-46.476-56.914-87.133-56.914C1328.902,1199.181,1292.776,1272.701,1292.776,1419.539z"/>
	<path fill="#09589B" d="M1879.927,1058.418l202.086,0.802l-2.07,345.034h3.311l192.795-344.191l211.971,0.849l-208.957,373.838
		l195.883,359.652l-221.969-0.944l-170.296-305.604l-3.357-0.047l-1.747,304.95l-202.079-0.843L1879.927,1058.418z"/>
	<polygon fill="#09589B" points="956.804,1635.562 956.804,1793.182 414.66,1793.182 414.66,1635.562 606.362,1635.562 
		606.362,1213.495 492.96,1213.495 492.96,1059.591 799.036,1059.591 799.036,1635.562 	"/>
</g>
</svg>
